<svg xmlns="http://www.w3.org/2000/svg" xmlns:xlink="http://www.w3.org/1999/xlink" viewBox="0 0 800 200"><defs><style>.cls-1{fill:#fff;}.cls-2{isolation:isolate;}.cls-3{opacity:0.85;mix-blend-mode:multiply;}.cls-4{fill:#4d4d4d;}.cls-5{mask:url(#mask);}</style><mask id="mask" x="11.64" y="103.67" width="87.52" height="98.57" maskUnits="userSpaceOnUse"><g id="_Group_" data-name="&lt;Group&gt;"><circle id="_Path_" data-name="&lt;Path&gt;" class="cls-1" cx="55.4" cy="147.43" r="43.76"/></g></mask></defs><title>animal_icons-01</title><g class="cls-2"><g id="動物分類按鈕" class="cls-3"><path id="_Path_2" data-name="&lt;Path&gt;" class="cls-4" d="M27.3,58.4c0,.29,0,.55.08.59s.32-.1.54-.3l.09-.08c.21-.2.35-.13.31.16l-.43,2.91c0,.29.11.4.33.25s.4,0,.39.25a47.73,47.73,0,0,0,1.46,14.6,30.77,30.77,0,0,0,1.84,4.92,5.32,5.32,0,0,1,.42,3.3c-.33,2.18-.61,4.37-1,6.86a.45.45,0,0,0,.46.52c1.35,0,2.58,0,3.8,0a3.4,3.4,0,0,0,2.66-1.48c1.18-1.54,2.44-3,3.56-4.36.19-.22.34-.17.33.12a24.33,24.33,0,0,0,0,2.45c.17,2.11.65,2.63,2.72,2.55.29,0,.32-.15.07-.29s-.43-.24-.62-.37-.41-.3-.66-.5a.34.34,0,0,1,0-.59,2,2,0,0,1,.57-.27,2.42,2.42,0,0,0,1.88-2c.4-1.63,1.8-1.93,3.09-2.23,1.13-.25,1.89.46,2.44,1.41.44.76.91,1.5,1.42,2.21s.87,1.09,1.54.66c.25-.16.49-.12.56.16a3.47,3.47,0,0,1-.78,3c-.17.23-.18.42,0,.42a.53.53,0,0,0,.31-.06,5.15,5.15,0,0,0,1.9-6.5c-.07-.17-.15-.33-.21-.51s0-.35.26-.15l1.12,1.08,1.27,1.26a.39.39,0,0,0,.65-.08l.39-.64c.15-.25.27-.22.27.08v1.42c0,.29.06.56.14.59s.27-.14.42-.39l.61-1a.7.7,0,0,1,.78-.28l1.28.43c1.25.43,1.57.39,1.82-.58a.34.34,0,0,1,.56-.23c.92.67.89,1.38-.1,2.75-.17.24-.09.38.2.31,1.32-.34,1.89-.95,2-2a3.16,3.16,0,0,0-2.3-3.28,21,21,0,0,1-3.58-1.26c-1.66-.88-1.79-2.19-.23-3.14,2.47-1.51,3.81-4,5.56-6.06,1.93-2.3,2.27-5.17,2.1-8.1A7.23,7.23,0,0,1,70.23,63c.59-1.17.29-2.75.55-4.11.51-2.62,1.2-5.2,1.68-7.83a77.09,77.09,0,0,0,1.1-7.79,54.83,54.83,0,0,0,0-7.39,16.51,16.51,0,0,0-.94-4.59A10.21,10.21,0,0,1,71.9,26a16.32,16.32,0,0,0-.52-7.42c-.4-1.35-.75-3,.75-4.19a1.25,1.25,0,0,0,.44-1C72,11.82,73.12,11,73.77,10a4.36,4.36,0,0,0,.41-.92c.1-.27.06-.49-.08-.49a1.9,1.9,0,0,0-.72.27c-2.63,1.56-5.25,3.13-7.91,4.63a2.43,2.43,0,0,1-1.75.09,12.9,12.9,0,0,0-8.25-.15c-1.67.54-3,.06-4.57-1C48.77,10.9,46.16,10.05,43.74,9a.78.78,0,0,0-.49,0,.57.57,0,0,0-.43.6A.86.86,0,0,0,43,10a2.9,2.9,0,0,1,.92,2.61c-.14.85.8,1.85,1.16,2.82a1.93,1.93,0,0,1,0,1.31A36.17,36.17,0,0,0,42.63,26,20.07,20.07,0,0,1,39,35.1c-1,1.34-2,2.69-3,4a47.5,47.5,0,0,0-8.1,16A19.5,19.5,0,0,0,27.3,58.4Z"/><path id="_Path_3" data-name="&lt;Path&gt;" class="cls-4" d="M185,36.86c1-.21,3.74,1.23,6.28-.08,4-2.05,1.83-2.93.24-3.64s-5.74-2.12-6.11-5.89a5.61,5.61,0,0,0-3.49-4.81s1.45-7.39.07-7.81-6.24,4.59-7.56,5.75c-4.46,0-9.19,5.86-9.3,12.69S161.41,45,157.78,46.51c-20.84,6.8-22.11,19.35-22,28.75a28.22,28.22,0,0,0,.69,6.37c-2.24-2.14-5.45-8.44-3.31-20,2.69-14.45-5.15-28.79-27.33-25,8.18,3.92,10.65,14.43,9.07,20.39-3.38,12.81-4.37,31.6,20.28,31.6h24.56c1.93,0,4.47,0,4.47-1.81,0-2-7.14-2.61-7.7-3.11,0,0,11.9-.9,12.8-12.46,0,0,9.88,17.28,13,17.33s5.32,0,7.31,0A2.09,2.09,0,0,0,192,86.3c0-1.36-2-2-3.11-2s-3.34.28-4.7-1.59c-6.8-8.72-6.51-15.38-6.52-18.86a7.62,7.62,0,0,1,1.25-4.13c4.93-8.78,5.59-10.16,5.61-13.43s-2.42-6.48-2.86-7.16S182.74,37.31,185,36.86Z"/><path id="_Path_4" data-name="&lt;Path&gt;" class="cls-4" d="M282.35,43.32c-.84-2-1.58-4.08-2.5-6.07a8.2,8.2,0,0,0-3.64-3.64,18.84,18.84,0,0,0-2.74-1.18.68.68,0,0,1-.4-.74c.15-.75.32-1.55.42-2.35a10.65,10.65,0,0,0-.06-1.5c0-.68,0-1.36,0-2a12,12,0,0,0-.54-3.41c-.18-.72,0-1.53-.26-2.24s0-1.63-.66-2.21a.09.09,0,0,1,0-.07c.11-1.14-.73-1.94-1.12-2.89a4.07,4.07,0,0,0-2.12-2.35,7.37,7.37,0,0,1-1.13-.66.4.4,0,0,0-.63.22A25.16,25.16,0,0,0,266.1,15a7.4,7.4,0,0,0-.53,2.79,7.9,7.9,0,0,1-.52,2.37c-.08.42-.13.85-.17,1.29s-.22.36-.41.12a6,6,0,0,0-1.38-1.47c-.93-.57-1.62-1.42-2.53-2a25,25,0,0,0-4.42-2.26,24.19,24.19,0,0,0-4.83-.94,3.5,3.5,0,0,0-1.4.27.43.43,0,0,0-.27.63c.48.92.91,1.78,1.39,2.61q1.21,2.06,2.51,4.05c.49.75,1.09,1.44,1.63,2.16s1.06,1.52,1.65,2.25c.4.5.9.92,1.34,1.4s1,1,1.4,1.6a10.59,10.59,0,0,1,1.88,5.24.65.65,0,0,0,.05.21c.62,1.19,0,1.94-.87,2.66-.12.1-.13.33-.19.49a3.36,3.36,0,0,1-.35.83,4.18,4.18,0,0,0-.73,2.39c0,.53-.2,1-.28,1.58a.87.87,0,0,0,0,.25,1.79,1.79,0,0,1-.2.74,6.29,6.29,0,0,1-1.74,2.82c-.24.18-.31.26-.12.23a.86.86,0,0,1,.36,0,2,2,0,0,1-.5.23l-.13,0c-.28.11-.38.23-.22.27s.06.16-.22.26l-.74.26c-.28.1-.4.24-.27.3s0,.17-.22.24-.44.18-.4.26-.17.19-.47.25a13.89,13.89,0,0,1-1.59.28,1.52,1.52,0,0,1-.54-.06,4.28,4.28,0,0,0-1-.21,44.94,44.94,0,0,0-6,.82c-.29.06-.78.13-1.07.16l-1.29.13c-.3,0-.5.09-.45.14s-.15.16-.43.25l-4,1.33c-.28.1-.44.21-.34.27s-.05.19-.34.29a8,8,0,0,0-2.11.94c-.64.48-1.35.86-2,1.37a10.92,10.92,0,0,1-2.58,1.17l-.27.12c-.15.07-.15.17,0,.24s.08.27-.17.45l-1.56,1.16c-.24.18-.36.37-.28.42s-.05.21-.32.35l-.53.29c-.26.14-.46.29-.45.32a.74.74,0,0,0,.39,0c.2,0,.19.1,0,.31l-2.81,2.68-.32.28c-.18.15-.13.22.11.15s.3.08.14.33c-.46.71-.91,1.41-1.39,2.09-.31.43-.7.81-1.05,1.21a.09.09,0,0,0,0,.06s.11,0,.22,0,.07.16-.11.4l-.89,1.22c-.18.24-.13.34.11.21s.34,0,.21.26a8.3,8.3,0,0,0-1,2.92,4.72,4.72,0,0,1-.57,1.58c-.13.27-.11.42,0,.33s.2.07.14.37l-.71,4.1c-.05.3,0,.5.08.46s.11.16,0,.45l-.19.67c-.08.29-.06.5,0,.47s.11.18.05.47c-.14.77,0,1.59-.61,2.23-.2.22-.3.35-.15.35s.12.2-.06.44l-.14.2c-.18.24-.22.41-.1.37s.22-.06.24,0a.07.07,0,0,1,0,0,1.29,1.29,0,0,1,0,.22A2.52,2.52,0,0,0,220,87.39c.9.41,1.55,1.32,2.72,1.21.37,0,.78.36,1.17.55h.06s0-.08,0-.16.18-.09.48,0l.64.13c.29.06.49,0,.45-.07s.14-.09.43,0c2.46.81,5,.47,7.46.52.3,0,.51,0,.47-.09s.17-.1.47-.1h2.58a9.77,9.77,0,0,0,1.2-.08c.88-.12,1.77-.25,2.64-.4s1.94.21,2.93-.37c.58-.34,1.11-.6,1.31-1,.12-.27.32-.59.61-.66.54-.13,1.06-.25,1.56-.4.7-.22,1.31-.47,1.46-1.4a1.41,1.41,0,0,0-.55-1.62.31.31,0,0,1-.11-.2c0-.12-.29-.25-.59-.27l-.2,0a.31.31,0,0,1-.26-.51l.25-.42c.16-.26.32-.45.36-.42a.84.84,0,0,1,.11.44c0,.22.14.18.27-.09l.19-.38c.13-.27.27-.48.31-.46a.81.81,0,0,1,.11.42c0,.21.13.16.24-.12l.11-.27c.11-.28.22-.3.24-.06s.09.21.22-.06a2.29,2.29,0,0,1,1.24-1.22c.84-.36,1.65-.79,2.49-1.15a.61.61,0,0,1,.55.15c.41.49.76,1,1.16,1.55s.85,1.06,1.29,1.57,1.15,1.28,1.73,1.92l.09.12c0,.07.13.05.18,0s.19.07.32.35l.13.3c.12.27.24.35.27.16s.19-.14.36.11l1.32,1.92c.17.25.31.29.31.1s.14-.14.3.1l.75,1.1c.17.25.28.26.25,0a.83.83,0,0,1,0-.49s.23.13.41.38l.3.41c.18.24.38.38.44.3a.29.29,0,0,0,.07-.17s0,0,0-.07l0,0a2,2,0,0,1,.48.29l.51.37c.24.18.43.21.42.07s.2-.15.47,0a2.89,2.89,0,0,0,.7.23,15.78,15.78,0,0,1,1.83.15,3.13,3.13,0,0,0,2.88-.79,2.48,2.48,0,0,1,1.45-.53,1.81,1.81,0,0,0,.94-.41l.9-.85A.78.78,0,0,0,274,86a2.46,2.46,0,0,0-1.43-1.47c-.29-.09-.42-.18-.29-.29s0-.21-.29-.21h-.24a2.19,2.19,0,0,1-.54,0,.65.65,0,0,1,.26-.1c.15,0,0-.17-.23-.3l-.24-.11c-.27-.13-.39-.25-.26-.29s0-.17-.24-.32L269,82.06a2.26,2.26,0,0,0-.36-.14c-.2-.06-.24-.16-.08-.2s.14-.15,0-.23-.15-.17.06-.21.14-.15-.13-.26l-.69-.28c-.28-.11-.41-.34-.28-.49s.2-.24.18-.3a2.59,2.59,0,0,0-.26-.48c-.17-.25-.22-.45-.11-.44s.15-.12.11-.28-.05-.19-.07-.29a7.31,7.31,0,0,0-.37-1.75,1.5,1.5,0,0,1,.11-1.75c.19-.24.42-.32.48-.24s.19,0,.3-.26.23-.34.27-.25.22,0,.41-.27l.49-.58c.19-.23.38-.32.43-.21s.16,0,.3-.29c.68-1.35,1.83-2.41,2.1-3.95l0,0a.48.48,0,0,1,.18.13c.08.07.21-.1.3-.39l1.39-4.77a3.73,3.73,0,0,1,.48-1,5,5,0,0,0,1.12-2.49,2,2,0,0,0-.42-.94,3.12,3.12,0,0,1-.29-1.56,13.09,13.09,0,0,1,.08-2.11c0-.3.07-.53.13-.5s.06-.19.07-.49c0-1.29,1.16-1.61,2.13-2,.28-.12.71-.29,1-.38a1.27,1.27,0,0,0,.45-.22,6.9,6.9,0,0,0,.88-1.06,4.46,4.46,0,0,1,.92-.83,15,15,0,0,0,1.54-1.62,11.06,11.06,0,0,1,1.39-1.23,1.44,1.44,0,0,0,.32-2A13.43,13.43,0,0,1,282.35,43.32Z"/><path id="_Path_5" data-name="&lt;Path&gt;" class="cls-4" d="M396.3,32.23c-3.65-2.08-2.28-4-3.81-5a5.38,5.38,0,0,0-2.39-1.11s.69-3.25-3-3.2c0,0-4.86-8.63-14.32-.3a3.12,3.12,0,0,1,2.06,0c.85.43-7,1.64-10.23,7.56,2.18-1,2.42-.28,2.42.79,0,3.69-4.31,8.67-12.59,9.15-3.66.21-6.2-1.78-14.77-1.78s-14.13,7.22-16.81,17.82-4,12.06-6.7,12.06-5.24-3.41-5.12-6.82.7-6.66,2.48-7.88.1-4.41-2.69-2.79-3.65,6-3.6,10.75,2,11.11,8.68,11.11,9.34-6.9,9.34-6.9a74.65,74.65,0,0,0,1.57,18.93c-.2,1.52-.81,3.91,3.35,3.86s5.28-.25,5.18-2.59-1.42-2.59-2.49-2.59-2.69.3-2.54-1.78S332.18,65.72,342.68,60c5.28,2,8.64,5.08,19.19,2,.56-.1,1.68,3.09,1.68,7.05s4.38,8.53,5.25,13.09c.31,1.93-2,6.24,2,6.24s6.19.56,6.09-2.13-.81-3.4-2.44-3.45-3.2-.86-2.84-4.31-.66-12.23,1.88-15.68c.46-.61,7.66.15,11.77-7a14.5,14.5,0,0,1-.56,4.82s8-6.34,5.33-15.53c-.35-.76.71-.81,1.27-.1,0-2.33-1.93-5.28-1.93-5.28s0-1.37,1.37-.25,5.89,3.86,6.5-3.1C398.07,36.34,400,34.31,396.3,32.23Z"/><path id="_Path_6" data-name="&lt;Path&gt;" class="cls-4" d="M492.56,15.48a1.79,1.79,0,0,0-1.46-1.12c.79,1.07.4,2.09-.26,3a2,2,0,0,1-2.54,1c1.7-2.45,1.22-4.64-1.55-6.51a1,1,0,0,0,0,.68c.14.41.34.81.49,1.21a2.34,2.34,0,0,1-.34,2.4,1.46,1.46,0,0,1-2.09.27,11.7,11.7,0,0,0-1.18-.76,19,19,0,0,1-4.24-2.59,4.08,4.08,0,0,0-.52-.33l-.23.1L479.77,15l-.84-.14a.76.76,0,0,0,.33.52c.48.35,1,.69,1.48,1,1.84,1.15,3.09,2.55,3.37,4.34a9.87,9.87,0,0,1,.08,2.14,3.74,3.74,0,0,1-.38,1.77c-1.06,1.7-2.26,3.35-3.41,5a3.14,3.14,0,0,1-.51.41,32.53,32.53,0,0,0,0-3.34,5.25,5.25,0,0,0-1.1-3,.72.72,0,0,0-.1.39c-.06,1.5,0,3-.2,4.51A5.71,5.71,0,0,1,476,33c-1.13.77-2.25,1.55-3.4,2.3a2,2,0,0,1-.66.11,1.44,1.44,0,0,1,0-.46c.15-.69.38-1.37.47-2.06.18-1.39.29-2.78.41-4.17a1.7,1.7,0,0,0-.12-.42,9,9,0,0,0-1.49,3.48,7.12,7.12,0,0,1-1.88,4.3,1.55,1.55,0,0,0-.31.92c-.06.47-.34.78-.93,1a9.77,9.77,0,0,1-4.45.34,2.32,2.32,0,0,1-1.62-.76,11.73,11.73,0,0,0-1.71-1.9,4.87,4.87,0,0,1-1.95-2.54,5.31,5.31,0,0,0-.24-.75c-.44-1.11-.89-2.23-1.33-3.34l-.26,0A22.49,22.49,0,0,0,457.3,35l-1.07-.62a6.91,6.91,0,0,1-3.45-3.42c-.24-.69-.5-1.38-.73-2.08s-.49-1.62-.74-2.43c-.83,1.37-.19,2.76-.3,4.17a32,32,0,0,1-3-4.14,5.35,5.35,0,0,1-.17-5.57A10.1,10.1,0,0,1,450,18.57a7.47,7.47,0,0,0,1-1.46h-.93a11.9,11.9,0,0,0,.7-3.52,1.17,1.17,0,0,0-.51.33c-.87,1-1.73,2-2.6,3-.67.77-1.34,1.55-2.05,2.3a1.53,1.53,0,0,1-1.76.41l.64-.9-.15-.08-1.21.65a2.42,2.42,0,0,1-.63-2.16c.21-1.07.51-2.13.74-3.2a5.73,5.73,0,0,0,.06-.88l-.24,0a3.87,3.87,0,0,0-.41.47c-.55.89-1,1.79-1.62,2.66a3.26,3.26,0,0,0,.34,4.2,4.56,4.56,0,0,1,.4,1c.27.56.55,1.11.87,1.66.5.85,1.19,1.64,1.1,2.64a5,5,0,0,0,2.29,4.78c1.63,1.18,3.29,2.34,5,3.45C453,35.09,455,36.24,457,37.43c.47.29.88.63,1.31.95-1.45-.28-2.75-.71-4.11-1a6,6,0,0,1-3.41-1.74,1.39,1.39,0,0,0-.4-.2c-.09.12-.27.26-.24.36a2.67,2.67,0,0,0,.47,1c1.14,1.27,2.29,2.53,3.52,3.75a5.75,5.75,0,0,0,2,1.38,4.14,4.14,0,0,1,1.7.79c.28.31.5.64.75,1a1.6,1.6,0,0,1,0,2.33.69.69,0,0,0-.15.25c-.59,1.82-1.17,3.63-1.77,5.45a1,1,0,0,1-.4.5,7.21,7.21,0,0,1-3.4,1c-2.81.11-5.62.24-8.43.33a12.72,12.72,0,0,1-1.76-.17,6.13,6.13,0,0,0-1.24-.14c-1.62.17-3.22.39-4.83.59a9,9,0,0,0-1.67.21,25.69,25.69,0,0,0-3.6,1.41c-1.38.72-3.2,1-4.05,2.24,0,.06-.15.09-.23.14a5.82,5.82,0,0,0-2.82,3.39c-.5,1.48.22,2.94.25,4.42,0,0,0,0,0,.05.59,2,1.33,4,1.74,6a41.07,41.07,0,0,1,.51,5.45c.1,1.57.13,3.15.18,4.72a1.49,1.49,0,0,1-.06.66,26,26,0,0,1-1.86,3.94,4.15,4.15,0,0,0-.8,2.88,22.83,22.83,0,0,1-.22,3.56c0,.77,0,1.53,0,2.3-.3,1.37-.15,2,2.55,1.71s3.74,1,3.37-.55-2.6-2.33-2.6-2.33-.4-.29-.37-.4a6.43,6.43,0,0,1,.42-1.22c.53-1.24,1.06-2.48,1.62-3.71.37-.81.74-1.63,1.19-2.42,1.25-2.17,2.55-4.34,3.84-6.5a12.08,12.08,0,0,1,2.48-3.47c.74.79,1.15-.19,1.69-.1,1.21.61.68,1.55.81,2.33a3.1,3.1,0,0,1-.48,2.52c-1.1,1.48-2.1,3-3.27,4.45a1.68,1.68,0,0,0-.09,2.27,36.44,36.44,0,0,1,2.86,4.63c.4.84,1.23,1.45,1.62,2.27.21.38-.68,1.83.67,1.62s4.49.38,4.57,0a3.72,3.72,0,0,0-2.09-2.81c-1.57-.77-1.54-3.28-1.54-3.28-.5-1.68.22-3.1,1.68-4.38a21.42,21.42,0,0,0,2.39-2.3,29.81,29.81,0,0,0,1.85-2.76c.17-.26.37-.52.54-.79a1.11,1.11,0,0,1,1.13-.5.49.49,0,0,0,.15,0,10.32,10.32,0,0,1,3.49.06c.58.06,1.19,0,1.77,0,.23,0,.59.16.65.3,1,2.47,2.08,4.9,2.3,7.49a7.72,7.72,0,0,0,.72,1.72c.19.53-.08,1.07,0,1.61l.19,1.54s-.82,3.08-.27,3.15a12.46,12.46,0,0,1,2.79.11,7.53,7.53,0,0,0,2.82-.15c.22-1-2.08-2.25-2.08-2.25a30.6,30.6,0,0,1,0-3.73c.06-.54.48-1.05.52-1.59a5.36,5.36,0,0,0-.25-1.78c-.3-1.13-.77-2.24-1-3.38a27.9,27.9,0,0,1-.18-3.16c0-.45.2-.73.71-1,1.45-.77,4.51-.82,5.93.23a3.19,3.19,0,0,0,1.22.14.15.15,0,0,1,.14.1L470,88.33c0,.08.88,2.52.46,2.85-.23.18-.1.61-.06,1,0,.09-1,1.51.24,2.56s5.24.94,5.24.94-.15-.55-.52-1.76-1-1.26-1-1.26a1,1,0,0,1,.17-1.64c0-.09,0-.22-.05-.26-.69-.41-.45-.94-.41-1.46a15.21,15.21,0,0,0,0-2,47.62,47.62,0,0,1-.29-5.65,36.27,36.27,0,0,1,1-4.63,26.77,26.77,0,0,0,.39-3.17,2.64,2.64,0,0,1,1-2,6.65,6.65,0,0,0,1.19-1.34c.29-.4.4-.87.68-1.27.87-1.27,1.72-2.54,1-4a.35.35,0,0,1,0-.11l-.56-4.22a7.33,7.33,0,0,1-.17-1.37c0-.75.29-1.49.27-2.23a14.85,14.85,0,0,0-.39-3.83,19.74,19.74,0,0,0-1.91-4.1,31.25,31.25,0,0,0-2.7-3.92,2.53,2.53,0,0,1-.36-2.52,1.29,1.29,0,0,1,.54-.56c1-.66,2.1-1.22,2.5-2.24a2,2,0,0,1,.54-.77c.93-.8,1.93-1.56,2.87-2.36a6.25,6.25,0,0,0,1-1c.12-.17.06-.41.08-.62-.29,0-.41.07-.47.14a4.85,4.85,0,0,1-2.72,1.45c-1.41.35-2.77.8-4.16,1.2a5.39,5.39,0,0,1-.65.08,9.68,9.68,0,0,1,.89-.83c1-.69,1.94-1.38,2.93-2,1.37-.91,2.78-1.79,4.13-2.71s2.81-2,4.28-3c2.25-1.47,3.22-3.28,2.81-5.46-.24-1.31.6-2.29,1.61-3.23a9.77,9.77,0,0,1,1.32-1,2.25,2.25,0,0,1,1-.34c.7,0,.8-.18.52-.66a.9.9,0,0,1-.08-.75A3.4,3.4,0,0,0,492.56,15.48Z"/><path id="_Path_7" data-name="&lt;Path&gt;" class="cls-4" d="M588.6,72.22a.74.74,0,0,1-.08-.49l.09-.37a2.16,2.16,0,0,0,0-.93,4,4,0,0,1-.07-.53,6.9,6.9,0,0,0-.15-1.26c-.47-2.12-1.36-3.94-3.65-4.66-1.3-.41-2.59-.86-3.89-1.28a23.78,23.78,0,0,1-6.9-3.08,5.38,5.38,0,0,1-2.23-2.86c-.73-2.64,1.87-6,4.72-6.09a10.25,10.25,0,0,1,3.68.61c.14,0,.17,0,.06-.09l-.25-.23c-.11-.1-.19-.2-.17-.23s.14,0,.28,0a1,1,0,0,1,.24.09c1,.54,2,1.11,3,1.64.17.09.46.18.57.11.6-.42,1.17-.87,1.72-1.31a.35.35,0,0,0,.09-.41c-.37-.74-.75-1.44-1-2.17a40.27,40.27,0,0,1-2.09-9.34,36.3,36.3,0,0,1,.15-12,50.78,50.78,0,0,1,5.74-14.84c.54-1,1.12-1.9,1.69-2.85.08-.13.1-.27.05-.31s-.17,0-.28.1a37.44,37.44,0,0,0-3.15,3.06,32,32,0,0,0-2.63,3.88c-.46.75-.89,1.51-1.31,2.28a1.89,1.89,0,0,1-.33.41l-.41.37c-.11.1-.11.1,0,0,.45-.82.4-3,.42-4q0-.22,0,0A12.1,12.1,0,0,1,578,22.68c-.12.09-.19,0-.16-.1l2-10c0-.15,0-.16-.07,0l-6.83,14.11c-.06.13-.14.12-.17,0a31.62,31.62,0,0,1,0-8.86c0-.15,0-.16-.09,0a26.74,26.74,0,0,0-2.46,8.94,7,7,0,0,1-.49,2.45,2,2,0,0,1-1.67,1.2.33.33,0,0,1-.31-.28c-.35-2.1-1-5.76-.43-7.78,0-.14,0-.14,0,0a32.14,32.14,0,0,0-1.58,11.16.83.83,0,0,1-.16.48q-.53.65-1,1.31c-.09.12-.2.1-.24,0q-.81-2.83-1.6-5.66a7.44,7.44,0,0,1-.18-1c0-.15-.09-.26-.16-.25s-.13.14-.14.28a36.72,36.72,0,0,0,.36,9.1.79.79,0,0,1-.11.49q-.46.68-.9,1.37c-.08.13-.18.11-.23,0l-1.86-5.31c0-.14-.09-.13-.09,0,0,.67,0,1.27,0,1.86a49.69,49.69,0,0,0,.77,5.44.83.83,0,0,1-.08.5q-.59,1-1.14,2.12c-.07.13-.17.13-.24,0q-1.2-2.52-2.38-5a6.83,6.83,0,0,1-.3-.84c0-.14-.12-.24-.17-.22s-.07.15-.06.3a36.46,36.46,0,0,0,1.9,8,.77.77,0,0,1,0,.5q-.27.6-.53,1.21c-.06.14-.17.15-.25,0q-1.25-1.93-2.48-3.88a3.92,3.92,0,0,1-.26-.52c-.06-.14-.14-.23-.18-.21s0,.15,0,.3a24.35,24.35,0,0,0,2.24,6.14.7.7,0,0,1,0,.49q-.19.51-.38,1c0,.14-.17.16-.26,0A9.37,9.37,0,0,1,553.92,49s0,0-.09,0-.09.09-.06.23a13.23,13.23,0,0,0,1.09,3.38c.06.13,0,.16-.08.06a42.15,42.15,0,0,0-5-4,103.71,103.71,0,0,0-15.41-9.42c-1.62-.81-3.19-1.72-4.79-2.58a20.8,20.8,0,0,1-7-6.79,15.33,15.33,0,0,1-2.69-5.21,22.59,22.59,0,0,1,.51-10.95c.22-.88.51-1.75.77-2.62,0-.14,0-.18-.12-.07a6.24,6.24,0,0,0-.72.92,15.62,15.62,0,0,0-3,7.56c-.11,1.53.32,3.08-.24,4.59,0,.1,0,.26.09.39a43.51,43.51,0,0,0,3.77,8.31,4.89,4.89,0,0,1,.25.47,23.89,23.89,0,0,0,2.66,4.56c.09.12.11.26.06.32a.4.4,0,0,1-.36,0,5.44,5.44,0,0,1-.67-.27,2,2,0,0,1-.43-.31A41.16,41.16,0,0,1,515.79,29c-1-1.66-1.88-3.37-2.89-5.2-.07-.13-.12-.12-.1,0a25.18,25.18,0,0,0,5.53,13.5,3.82,3.82,0,0,1,.3.44,10.82,10.82,0,0,0,2.61,3.05,2.74,2.74,0,0,1,.38.38l.79,1a1.07,1.07,0,0,1,.19.33l0,.12c0,.21.09.41.13.62s0,.2-.17.12a56.49,56.49,0,0,1-7.9-6l-2.33-2.11c-.11-.1-.23-.15-.27-.12s0,.16.08.28a54.75,54.75,0,0,0,5.63,7.4,17.2,17.2,0,0,0,1.87,1.63l2.95,2.66c.53.48,1.3,1,1.54,1.71s-2.14,0-2.38-.06a21.92,21.92,0,0,1-3.94-2l-1.16-.65c-.13-.07-.26-.1-.29-.06s0,.15.14.25c2.64,2.48,5.24,5,8.8,6.19l1.07.35a.85.85,0,0,1,.39.31q.38.61.78,1.21c.08.12,0,.19-.11.15a44.35,44.35,0,0,1-7.82-2.92c-.36-.18-.74-.33-1.14-.49-.14-.06-.16,0-.05.08A23.55,23.55,0,0,0,529.35,57a1,1,0,0,1,.43.27q.39.46.79.91c.1.11.1.21,0,.24a1.11,1.11,0,0,1-.43,0A52.26,52.26,0,0,1,523,57.12c-.14,0-.15,0,0,.06a34.69,34.69,0,0,0,6.76,3c.36.1.72.19,1.07.26a3.8,3.8,0,0,1,.52.14,8.5,8.5,0,0,1,1,.47,8.89,8.89,0,0,1,.78.5l0,0s0,.11-.07.22a.4.4,0,0,1-.35.2c-.85,0-1.7,0-2.55,0-1.31,0-2.62-.26-3.92-.42-.15,0-.16,0,0,.08a25.74,25.74,0,0,0,9.71,2.49,1.89,1.89,0,0,1,.52.1l.84.31a3.07,3.07,0,0,1,.87.37c.11.09,0,.22-.11.22-.69,0-1.37,0-2.06,0-1.68,0-3.36-.21-5.21-.35-.15,0-.15,0,0,.07a37.46,37.46,0,0,0,7.44,1.65c.15,0,.16.08,0,.13a13.5,13.5,0,0,0-3,1.79,4.09,4.09,0,0,1-.45.3q-1.16.64-2.25,1.39a1.07,1.07,0,0,0-.28.28,3.55,3.55,0,0,1-.31.43,7.24,7.24,0,0,0-.86,1.06,4.08,4.08,0,0,1-.33.42,8.73,8.73,0,0,0-1.65,2.53c-.06.14-.17.35-.24.48a4.88,4.88,0,0,0-.52,1.55,6.28,6.28,0,0,1-1.58,3.14l-1.51,1.65a.16.16,0,0,0,.08.28c1.47.44,2.79.6,3.88-.73.09-.11.16-.09.15.06a1.16,1.16,0,0,1-.18.61A15.48,15.48,0,0,1,527,84.53a3.89,3.89,0,0,1-3.95.86,3.66,3.66,0,0,1-2.68-3.85,7.87,7.87,0,0,1,.32-1.18c0-.14,0-.21-.06-.16a.58.58,0,0,0-.13.11,5.18,5.18,0,0,0-.44.59,6.47,6.47,0,0,0-.75,4.73c.45,2.12,3.24,4.29,5.62,4.45a9.08,9.08,0,0,0,6.79-2.69,5.69,5.69,0,0,0,2-4.27,1.81,1.81,0,0,1,.08-.41c0-.14.11-.15.17,0,1,2.19,2.34,2.2,3.66,1.75.14,0,.15-.15,0-.23a4,4,0,0,1-1.5-1.95,7.23,7.23,0,0,1-.13-4.74,2.78,2.78,0,0,1,1.64-2.17,3.82,3.82,0,0,1,2.48,0l.25.1h0a3.33,3.33,0,0,1-.59,4s0,0,0,.06.12.11.26.15a1.59,1.59,0,0,0,1.63-.36c.11-.1.23-.08.25.07a3,3,0,0,1-.63,2.12.16.16,0,0,0,.14.25l2.66.15c.15,0,.2.11.12.24a4.8,4.8,0,0,1-1,1.33,15.34,15.34,0,0,1-2.5,1.28c-.42.19-.45.4-.3.78a5.34,5.34,0,0,0,1.72,2.08c.11.1.2.06.19-.09a12.45,12.45,0,0,1-.06-1.36.81.81,0,0,1,.32-.56,2.68,2.68,0,0,1,.63-.27.18.18,0,0,1,.25.18c0,1.27,0,2.47,0,3.68,0,.16-.31.41-.5.45a13.6,13.6,0,0,1-1.5.17c-.15,0-.17.1-.05.19.62.47,1.15.87,1.69,1.25a.64.64,0,0,0,.43.1c.94-.15,1.27-.53,1.35-1.49,0-.18,0-.36,0-.54.1-.92.19-1.85.29-2.79a.2.2,0,0,1,.28-.18c1.4.51,1.46.74,1,2.16l-.05.2c0,.11.06.15.19.08l.85-.42a.41.41,0,0,1,.44.07,1.42,1.42,0,0,1,.45,1.69c-.1.47-.2.93-.33,1.5,0,.14,0,.18.14.08l.74-.7c1.3-1.23,1.29-1.23.59-2.89a.73.73,0,0,1,0-.58c.52-.81.55-1.3-.17-1.93a10.27,10.27,0,0,0-1.92-1.19c-.48-.26-1-.53-.93-1.11a2.63,2.63,0,0,1,1.21-2.47c.82-.43,1.67-.81,2.46-1.18a4.77,4.77,0,0,1,.5-.18,2,2,0,0,0,.71-.39.19.19,0,0,1,.31.05l.31.61c.07.13.11.24.09.23s0,.06.08.15l.11.16a1.72,1.72,0,0,0,.15.22l.64.92a.23.23,0,0,1-.08.35l-1.54.82a.25.25,0,0,0-.09.35,4,4,0,0,0,1.89,2c.14.05.24,0,.21-.18l-.2-1.23a.27.27,0,0,1,.22-.31,7.3,7.3,0,0,1,1-.14c.14,0,.4.17.41.28.07.66.09,1.32.13,2a.21.21,0,0,1-.25.23l-2.3-.34c-.15,0-.18,0-.07.14l2.33,2.2a.35.35,0,0,0,.42,0l.87-.6a.26.26,0,0,1,.37.07c.26.42.47.9.79,1a2.37,2.37,0,0,0,1.28-.31.33.33,0,0,0,.21-.35c-.1-.6-.2-1.15-.26-1.71,0-.22,0-.55.14-.66.64-.49.52-1,.1-1.52a2.82,2.82,0,0,1-.37-.64,3,3,0,0,0-2.05-2.07.25.25,0,0,1-.21-.3,8.77,8.77,0,0,0,.15-1,.25.25,0,0,1,.29-.23c.87.11,1.74.2,2.61.26A23.86,23.86,0,0,0,570,78.18c2.34-1,4.6-2.09,6.88-3.19a4.33,4.33,0,0,1,3.26-.35c1.24.38,2.46.84,3.69,1.28l.5.21a4.62,4.62,0,0,0,.66.24.64.64,0,0,1,.38.3,3.71,3.71,0,0,1-.1,2.95c-.06.14,0,.21.15.16a10.25,10.25,0,0,0,1.81-.83,6.92,6.92,0,0,0,2.83-2.69,1.82,1.82,0,0,0-.08-2c-.38-.55-.78-1.09-1.13-1.66Z"/><path id="_Path_8" data-name="&lt;Path&gt;" class="cls-4" d="M676,89.3c-.39-3.27-4-3.65-6.12-3.42-2.24-8.43,5.57-21,6-24,.49-3.2-2.29-21.81-2.58-31.24C673.08,21,659,10.3,656.68,12c-2.32,2.57,3.35,6,.36,9s-3.64,4.81-5.78,8.06c-5.49,8.33,9.38,8.44,9.38,8.44s-11.64,8.63-14.23,13c-2.39,4-3.39,8.48-6.26,12.26-6.56,8.61-5.08,23.61-5.08,23.61s-12.43-4.07-5.59-18.25c5.21-10.8,7.77-26.73-3.94-22.63-4.53,1.59,1,4.92,2,6,3.2,3.57.5,9.58-1.43,13.06-5.17,9.31-7,19.06,3.83,25.07,4.83,2.67,11.35,3.33,17.92,3.43l16.71,0C670,93.34,676.27,92.31,676,89.3Z"/><path id="_Compound_Path_" data-name="&lt;Compound Path&gt;" class="cls-4" d="M789.59,25.88l-4.4-.72-1.75-.53-.13-.4,3.38-2a9.15,9.15,0,0,1,2.21,0c.13.08.27.15.4.25s.55-.29.34-.66c0-.19-.1-.36-.26-.39h0a3.15,3.15,0,0,0-.45-.48l0,0a10,10,0,0,0-1.31-1l-.83-.42c-3.14-2.25-6.81-4.48-10.2-3.75-2.76.27-5.19,2-7.13,5.82-1.31,2.58-2.45,5.36-3.8,7.89a7.75,7.75,0,0,1-2.29,2.73c-2.73,1.85-5.58,3.32-8.29,5.24-2,1.44-3.84,3.57-5.86,5a62,62,0,0,0-10.81,9.89c-2,2.36-4.25,4.34-6.37,6.54-1,1.06-2.59,1.22-2.74,3.83,0,.21-.28.45-.45.56-2.4,1.36-4.78,2.82-7.22,4a48.38,48.38,0,0,0-11.44,7.57,10.72,10.72,0,0,0-1,1.25l.16.32,6.07-3.66.11.32-6,5.94.17.36,4.6-3.79.12.38L714,77.21l.16.28,4.35-3.71.15.39-2.52,3.7.27.67c.95-.73,1.89-1.49,2.85-2.19,2.47-1.82,4.86-4.16,7.46-5.27,2.3-1,4.84-.64,7.28-.72a32,32,0,0,1,3.55.41c1.14.09,2.43.61,3.4,0,1.92-1.24,3.68-.49,5.49.14.28.1.52.76.68,1.24a36.93,36.93,0,0,0,1.49,4.49c1.52,3,3.19,5.76,4.83,8.68,0,0,1.67,2.45.47,3.94s-.66,1.3-.42,1.49c0,0,1.8-1.4,3.07-.47,1.7,1.25,5-1.3,6-.28s2.83-.19,3.79.28,1.26,1.68,1.14,0-3-2-3-2a7.06,7.06,0,0,1-3.35-2,48.33,48.33,0,0,1-3.69-5.83c-1.22-2-2.87-3.85-1.66-7.23.05-.15,0-.39,0-.55s.21-.65.33-.67a21.71,21.71,0,0,1,2.35-.22c.29,0,.6.22.86.09,1.28-.65,2.52-1.52,3.82-2.07a21.06,21.06,0,0,0,9.7-7.76c1.36-2,2.72-4,4.15-5.91a12,12,0,0,0,2.69-6.16c.23-2,.37-4,.52-6.07.3-4,1.6-7.47,2.76-11,1-3,2.58-4.87,4.84-5.16a4.87,4.87,0,0,0,1.37-.68h0l.48-.28C790,26.55,789.91,25.93,789.59,25.88Zm-31.42,60a1.85,1.85,0,0,1,.2,1.11.69.69,0,0,1-.7.4,1.78,1.78,0,0,1-1.14-.7c-1.78-3.08-3.52-6.22-5.24-9.38a2.48,2.48,0,0,1,0-2.7,34,34,0,0,1,2.08,2.84C755,80.17,756.58,83,758.17,85.85Z"/><g class="cls-5"><path id="_Compound_Path_2" data-name="&lt;Compound Path&gt;" class="cls-4" d="M92.17,182.89C89,180.21,87.58,176,84.08,174c-3.3-1.85-3.27-2.42-3.82-5.7-.39-2.33-1.88-2.15-3.61-3.37a10.34,10.34,0,0,0-4.59-1.83c-1.48-.34-2-.46-2.49-.11a15.62,15.62,0,0,1-.5-1.63A11.77,11.77,0,0,1,69,159a23.45,23.45,0,0,1,.7-3.48,5.24,5.24,0,0,1,1.42-2.91c.49-.51,1.38-1.51.83-2.25.4-.31.14-1.22.33-1.7.38.25.65.77,1.09,1,0-.63.09-2.53,1-1.38,0-.48.11-1.7.81-1.42a2.45,2.45,0,0,1,.09-.88,3.72,3.72,0,0,0,.52.34c.05-.45-.16-.88-.11-1.35.3,0,.56.23.86.25a4.09,4.09,0,0,0-.2-1.61,2.89,2.89,0,0,1,1.08.39c0-.7-.83-1.29-1-2,.56,0,1,.45,1.49.39.11-.65-1-1.4-1.35-1.81a1.42,1.42,0,0,1,.72.18c-.18-.2-1-.77-.93-1.09s1.18-.14,1.22-.75c0-.43-.74-.43-.75-.83s.56-.41.75-.66c-.27-.11-1.27-.41-1.13-.77s1.11,0,1.2-.52c-1-.43-1-.45-.14-1-.32-.2-.79-.14-1-.48a1.23,1.23,0,0,0,.54-.47,3.93,3.93,0,0,0-.45-.36.78.78,0,0,0,.66.27l-.68-.54c.23-.48.91-.63,1.27-1-.27,0-.54,0-.79,0,.07-.09.36-.41.36-.56,0-.45-.22-.18-.29-.45s-.16-.34.07-.75c-1.24.13-.3-.5.09-.83-.05-.05-.07,0-.14-.07a1.33,1.33,0,0,0,.11-.65,2.65,2.65,0,0,1-1.21-1c-.1-1.59.13-3.23,0-4.81a7.6,7.6,0,0,1,.09-2.62,2.82,2.82,0,0,0-.07-2.35c-.38,0-.68.41-1,.52-.27-.61.09-1.47-.14-1.88s-1.38-1.26-1.83-1.17a9.85,9.85,0,0,1-1.63,2.87c-.7.77-.81,1.81-1.51,2.57-1.4,1.56-2.48,1.76-3.07,2.73a23.57,23.57,0,0,1-1.51,2.92A19.14,19.14,0,0,0,64,128.58c-.27.45-1,.91-1.22,1.38.57.22,2.1-.59,2.62-.47.68.18.36.81.09,1.29a3.37,3.37,0,0,1-1.18,1.27c-.2.13-.48.14-.63.34s0,.5-.13.77c-.22.5-.93.68-1.36,1.08a7.52,7.52,0,0,1-1.22,1c-1,.61-2,1.33-3.07,1.87a12.9,12.9,0,0,0-3.73,2.8,5.56,5.56,0,0,1-1.58,1.22c-.65.32-2.35.22-2.66.61l.07.07c-2.13,0-4.83.34-6.55,1.7a24,24,0,0,1-2.82,2.17,28.38,28.38,0,0,1-3.25,1.76c-.16.07-.79.22-.86.36-.25.41.25.34.36.74s-.05.32-.18.61c0,.09-.25.2-.3.3s.05.36,0,.47a15.8,15.8,0,0,1-2.8,2.78,18.35,18.35,0,0,1-2.58,2,31.82,31.82,0,0,1-2.66,1.83c-2.19,1.13-4.23-.18-6.39-.41l-.81.05c.7.18,2.12,1.15,1.09,1.42.57.27,2.74,1,1.85,1.92.66.25,1.38-.2,1.29.88a5.29,5.29,0,0,0,3.68-.23,8,8,0,0,1-1.08,1c.65-.2,1.35-.39,2-.59a2,2,0,0,1,.07.74c.75-.22,1.47-.83,2.22-1.08,0,.11,0,.27,0,.39a6.48,6.48,0,0,0,2.08-1.22,1.94,1.94,0,0,0-.54.72c.63-.56,1.2-1.44,2-1.67,0,.27,0,.54,0,.79.05-.72,1-1.09,1.44-1.52-.05.16-.07.34-.13.5a7,7,0,0,1,1.54-1.54c.09,1-1.33,2.44-1.83,3.27S36,162.13,35,162.13c.38,2.73,1.27,8.65-2.24,9.81a3.72,3.72,0,0,1,1,2.1c-1.22-.27-2.22-.68-3.43,0-2.12,1.26-2.21,4.2-3.14,6.17-.57,1.24-1.51,3.61-2.42,4.56a9.2,9.2,0,0,1-2.4,1.22,8.53,8.53,0,0,0-3.37,3.1c-1.35,1.94-2.28,4.07-3.55,6-.86,1.33-3.09,2.69-1.87,4.38.88,1.24,4.5,1.69,5.85,1.92,4.13.72,8.58.47,12.76.63,9.42.36,18.41.18,27.66-1.61,6.35-1.22,12.31-2.78,17.72-6.33,1.4-.91.75,3.84,2.42,3.61a19.73,19.73,0,0,0,5.11-1.85c3.57-1.83,9,1.58,8.59-2,0,.22,3.09-1.85,3.07-1.63ZM76,128.08a.28.28,0,0,1,0-.15ZM45.3,160.48l-.08-.09v0A1,1,0,0,0,45.3,160.48Zm-9,13.78a11.84,11.84,0,0,0,0-1.24,3,3,0,0,1,.39-1.7,44.07,44.07,0,0,0,1.56-5.09c.11-.45-.13-1.44.14-1.79.14-.18.75-.25,1-.32a11.23,11.23,0,0,0,1.44-.63c1-.5,4-1.59,4.44-2.92a14.48,14.48,0,0,1,0,3,2,2,0,0,1-.68,1.27c-.32.27-.77.27-1,.54a6.05,6.05,0,0,1,1.56,3,8.25,8.25,0,0,1-.24,2.88c-1.76.41-3,.52-4.56,1.77A5.06,5.06,0,0,1,36.25,174.26Zm23.33-6.73a14,14,0,0,0-2.22.93c-1,.63-1.51,1.81-2.39,2.42-1.9,1.33-3.12-.22-5.24-.66a4.9,4.9,0,0,0-3.08.42,10.26,10.26,0,0,1-.11-1.45,4.7,4.7,0,0,1,.36-2.33c.38-.7,1.26-1.09,1.87-1.56a12.12,12.12,0,0,0,2.12-2.06,7.25,7.25,0,0,0,1.51-2.78,22.21,22.21,0,0,1,1.42-3.87,9.47,9.47,0,0,1,1.15-2.39,3.84,3.84,0,0,1,1.7-.81,1.21,1.21,0,0,0,.13.2.26.26,0,0,0,.22-.07l.07-.14c.2.41-.18.74-.32,1.08A1.86,1.86,0,0,0,58,154c-.05.05-.18.29-.27.38.47.05,1-.36,1.38.07.23.25.14.91.16,1.24a7.9,7.9,0,0,1,.09,1.31c0,.5-.36.84-.39,1.27.16-.05.43-.05.59-.13-.2.5-.72.91-.81,1.47.25-.07.5-.22.74-.3a2.14,2.14,0,0,1-.32,1l.25,0a14.42,14.42,0,0,0,.29,1.69c0,.57-.09,1.27,0,1.81s0,.25.47.57a3,3,0,0,1,.84.88,5.49,5.49,0,0,1,.56.88A11.39,11.39,0,0,1,59.57,167.53Zm4.23-2.46a2.36,2.36,0,0,0-.66.15,5.5,5.5,0,0,1-.52-.94,6,6,0,0,1-.25-3.09c.34-2.26.25-4.56.56-6.8.22.39.7,1.33,1,.34.2.34.47.27.72,0,.83,1,.45,2.6.43,3.93.05-.11.14-.23.2-.32a4.11,4.11,0,0,1-.25,1.2,8.73,8.73,0,0,1,.88-.77,1.51,1.51,0,0,0-.59,1c.22-.09.5-.36.74-.45,0,.66-.38,1.22-.32,1.94a1.76,1.76,0,0,1,.47-.43,4.68,4.68,0,0,1-.34,1.26,1.75,1.75,0,0,1,.52-.38c0,.43-.23.84-.25,1.27.84.39,1,1.44,1.42,2.11C66.14,166.23,65.86,164.93,63.81,165.07Z"/></g><path id="_Compound_Path_3" data-name="&lt;Compound Path&gt;" class="cls-4" d="M198,178.2a.85.85,0,0,0-.27-.56c-.51-.5-1-1-1.53-1.51a1.48,1.48,0,0,0-.63-.37l-.45-.13c-1.71-.47-3.39-1-5.13-1.37a1,1,0,0,1-.33-.16l-1.93-1.29a.86.86,0,0,1-.25-.22c-.23-.36-.46-.72-.66-1.09-.42-.79-.75-1.64-1.22-2.39a33.16,33.16,0,0,1-2.38-4.44c-.07-.16-.15-.33-.23-.49a6.5,6.5,0,0,1-.28-.65c-.33-1-.64-2-1-3-.2-.65-.37-1.32-.61-2-.55-1.47-1.29-2.86-2-4.28a1.33,1.33,0,0,1-.15-.37,12,12,0,0,1-.15-1.51c0-1,0-1.93.09-2.89a24.21,24.21,0,0,0-.2-4.2,8.73,8.73,0,0,0-.56-2,2.16,2.16,0,0,1-.12-.65c0-.53,0-1.05,0-1.58a9.21,9.21,0,0,0-.65-3.28,2.42,2.42,0,0,0-.2-.39,1.56,1.56,0,0,0-.81-.78.48.48,0,0,1,.22-.46c.3-.26.41-.26.76,0,.09.06.17.16.32.06l.16-1,.06,0,.18.32a1.37,1.37,0,0,0,.29-.36,9.93,9.93,0,0,1,.7-1.1,4.36,4.36,0,0,0,.92-2.79.7.7,0,0,1,.35-.69,1.5,1.5,0,0,0,.63-.88,4,4,0,0,0,.19-1.26,3.61,3.61,0,0,1,.11-1.2l.44-1.43a.93.93,0,0,0,.09-.3l.13-.42a3.18,3.18,0,0,0,.11-.59,1.22,1.22,0,0,0-.71-1.08,2,2,0,0,0-1.56.1l-.74.35-.38-.65.34-.31-.32-.23a12.29,12.29,0,0,1-1.08-.73c-.47-.4-.91-.84-1.35-1.26a3.82,3.82,0,0,0-1.28-.71s0,0-.06,0l-.1.2a2,2,0,0,0-1.41-.25,4.2,4.2,0,0,1-1.57-.07c-.26-.07-.52-.11-.79-.16a.82.82,0,0,0-.07.14,1.41,1.41,0,0,0,0,.18,2.71,2.71,0,0,0-1.15-.34c0,.37-.25.46-.53.51l-.46.1a1.5,1.5,0,0,0-.32.09,7.62,7.62,0,0,0-1.72,1.17c-.1.09-.19.2-.29.3l-.3-.37-.7,1-.25-.22a4.4,4.4,0,0,0-1.29,2.13c-.3-.21-.58-.38-.84-.59a2.06,2.06,0,0,0-.82-.37.46.46,0,0,0-.61.47,1.34,1.34,0,0,0,0,.31.4.4,0,0,0,0,.11l.05.13c.23.45.5.87.74,1.32l.06.11h0a5.1,5.1,0,0,1,.3,1.73.51.51,0,0,0,.1.3c0,.1,0,.19,0,.29a3.3,3.3,0,0,0,.35,1.66c.08.13,0,.23-.11.29l-.46.2c-1,.42-1.95.86-2.93,1.27a5.34,5.34,0,0,0-1.73,1c-.1.1-.22.19-.33.28a3.53,3.53,0,0,1-1.15.6c-1.55.52-3.15.88-4.72,1.34a22,22,0,0,0-3.87,1.35c-.46.23-.94.42-1.41.64a2.1,2.1,0,0,0-.3.15,28.59,28.59,0,0,0-2.66,1.84,9.26,9.26,0,0,1-1.18.9c-1.49.88-2.91,1.86-4.33,2.85-.46.32-.9.67-1.36,1a1.46,1.46,0,0,1-.43.24,11.73,11.73,0,0,0-2.94,1.3c-.8.48-1.6.95-2.41,1.42a1.63,1.63,0,0,1-.46.18,48.76,48.76,0,0,0-5.69,1.48,24.31,24.31,0,0,0-2.81,1.11,15.15,15.15,0,0,0-3.09,2,14.38,14.38,0,0,0-1.68,1.64,12.34,12.34,0,0,0-1.5,2.26,21.75,21.75,0,0,0-2,7.49c0,.53-.09,1.05-.09,1.58s.06,1.12.1,1.68a6.35,6.35,0,0,0,.06.77,13.48,13.48,0,0,0,.84,3c.15.34.25.7.41,1a13.45,13.45,0,0,0,1.94,3c.12.14.22.29.33.42s.44.51.68.74c.66.64,1.33,1.26,2,1.9a.42.42,0,0,1-.07.09c-.38.33-.75.68-1.15,1-.67.51-1.36,1-2.05,1.47a1.93,1.93,0,0,0-.93,1.41,1.44,1.44,0,0,0,.3,1.2,5.17,5.17,0,0,0,1.4,1c1.5.76,3,1.5,4.51,2.26a3.91,3.91,0,0,1,1.42,1.16c.5.69,1,1.36,1.57,2a4.28,4.28,0,0,0,.68.6,1,1,0,0,0,.81.08.36.36,0,0,0,.26-.42,2.91,2.91,0,0,0-.1-.39c-.11-.37-.22-.73-.33-1.09,0-.15,0-.21.17-.22l.15.3.88,1.89a.64.64,0,0,0,.19.27.92.92,0,0,0,.88.16c.38-.14.5-.26.53-.67a.55.55,0,0,1,0-.1,4.09,4.09,0,0,0,.56.19c.52.1,1-.23.78-.77a4.33,4.33,0,0,1-.13-.69,14.57,14.57,0,0,1-.3-2.09c0-.72,0-1.44-.07-2.15a1.07,1.07,0,0,0-.7-1.08l-.44-.17c-.45-.15-.89-.32-1.34-.44a6.57,6.57,0,0,1-2.54-1.26l-.29-.21c.36-.38.36-.38.79-.2l.19.07c1,.22,1.92.46,2.88.66a9.83,9.83,0,0,0,2.51.23c.57,0,1.14-.07,1.71-.13a12.85,12.85,0,0,0,2.54-.49,20,20,0,0,0,1.86-.77,12.91,12.91,0,0,0,3.08-2A16.56,16.56,0,0,0,142,175.9c1-1.16,2-2.35,3-3.58a13,13,0,0,1,1.52-1.61,2,2,0,0,1,.62-.37,1.79,1.79,0,0,1-.16.37c-.38.69-.8,1.36-1.12,2.07-.41.94-.75,1.92-1.09,2.89a4.31,4.31,0,0,0-.08,2.55.71.71,0,0,0,.19.3,1.32,1.32,0,0,0,.59.31,2.33,2.33,0,0,0,1.16,0c.93-.19,1.86-.41,2.79-.6a5.25,5.25,0,0,1,1.23-.15,16,16,0,0,1,1.9.22,22.41,22.41,0,0,0,2.87.31,3.56,3.56,0,0,0,1.91-.55.5.5,0,0,0,.07-.86,2.47,2.47,0,0,0-.72-.27c-.43-.09-.87-.12-1.29-.22a10,10,0,0,1-1.18-.38.23.23,0,0,1,0-.42.87.87,0,0,1,.31-.13,10.34,10.34,0,0,1,1-.14l2.62-.14a1.18,1.18,0,0,1,.91.33c.69.63,1.39,1.24,2.09,1.86a1.53,1.53,0,0,0,1.11.38.59.59,0,0,0,.57-.87,6.05,6.05,0,0,1-.25-.65.86.86,0,0,0,.5-1.32,21.32,21.32,0,0,0-2.47-2.8,1.52,1.52,0,0,0-.9-.42,3.55,3.55,0,0,0-1.33.14c-1.23.37-2.48.61-3.73.89a1.52,1.52,0,0,1-.37,0c-.3,0-.4-.16-.3-.44s.25-.65.37-1a10.39,10.39,0,0,1,1.75-3,21.36,21.36,0,0,0,1.69-2.31,8.16,8.16,0,0,1,1.33-1.64,2.64,2.64,0,0,0,.68-1.06,4.53,4.53,0,0,0,.12-.46l.15.11a13.9,13.9,0,0,1,1.49,1.51c.29.37.6.73.91,1.08a9.34,9.34,0,0,1,1.52,2.37c.23.5.51,1,.76,1.46a2.39,2.39,0,0,0,1,1,.72.72,0,0,1,.34.36l.53,1.23.16.34.21-.16c.13.27.25.52.38.77a2.85,2.85,0,0,0,1.35,1.27,11.61,11.61,0,0,0,1.51.56c1,.29,1.94.57,2.91.83a.61.61,0,0,1,.47.41,14.19,14.19,0,0,0,1.14,2.32,1.29,1.29,0,0,0,.84.68.53.53,0,0,0,.72-.54,2.22,2.22,0,0,0-.08-.6c-.2-.7-.41-1.4-.61-2.1,0-.1-.05-.21-.08-.31l.08,0a2.69,2.69,0,0,1,.19.32c.37.9.73,1.81,1.1,2.71a1.84,1.84,0,0,0,.34.53,1,1,0,0,0,1.42-.09.47.47,0,0,1,.41-.23.46.46,0,0,0,.47-.4,3.66,3.66,0,0,0,.07-.66.61.61,0,0,1,.13-.46A.93.93,0,0,0,180,177a3.91,3.91,0,0,0,0-.94c-.13-.91-.29-1.81-.45-2.72a1.36,1.36,0,0,0-.13-.34,1.54,1.54,0,0,0-.87-.75c-1.92-.79-3.8-1.66-5.67-2.57a3.11,3.11,0,0,1-.41-.23l-1.54-1.08a1.42,1.42,0,0,1-.28-.24,11.23,11.23,0,0,1-1.24-1.92,27,27,0,0,1-1.45-3.4c-.79-2.18-1.54-4.38-2.48-6.5-.07-.16-.15-.33-.23-.48L163.65,153c0-.08-.07-.16-.12-.27.49-.25,1-.52,1.45-.73a33.57,33.57,0,0,0,4-2,1.62,1.62,0,0,1,.25-.1c0,.11.08.19.11.27.41,1.19.81,2.38,1.1,3.6a4.51,4.51,0,0,1,.14.66c.06.72.12,1.43.16,2.15a3.58,3.58,0,0,1-.19,1.55,3.05,3.05,0,0,0-.12.35,1,1,0,0,0,0,.21c.36-.14.56-.46.94-.6v1.2l.58-.12.38,1.62a4.67,4.67,0,0,0,.7,1.52s.09.05.15.09c.13-.26,0-.58.23-.81.15.25.27.49.41.72a13.25,13.25,0,0,0,2.15,2.92,2.32,2.32,0,0,1,.24.28c.59.75,1.16,1.52,1.76,2.26a42.29,42.29,0,0,1,2.72,3.8c.83,1.28,1.67,2.55,2.51,3.83a1.53,1.53,0,0,1,.38,1.43,12.7,12.7,0,0,0,0,1.78,1.17,1.17,0,0,0,.4.91,2.62,2.62,0,0,0,.31.25c1.07.66,2.14,1.31,3.21,2a8.9,8.9,0,0,1,1.2.86,2.33,2.33,0,0,0,1.19.48c.52.1.9-.55.8-.92a2.43,2.43,0,0,0-.41-.84,4.79,4.79,0,0,0-.82-.79,10.51,10.51,0,0,0-1-.67,1.26,1.26,0,0,1-.52-.56c.1-.05.19-.14.28-.15a1.83,1.83,0,0,1,.57,0l3.34.8a1.44,1.44,0,0,1,.39.18c.56.35,1.12.71,1.69,1,.36.21.73.38,1.1.56a1.27,1.27,0,0,0,.76.09.53.53,0,0,0,.43-.87l-.21-.33a4.45,4.45,0,0,0,.71.22c.56.07,1-.21.94-.78a.25.25,0,0,1,.07-.2,1.19,1.19,0,0,0,.4-.52V179a1.82,1.82,0,0,0-.35-.6A.38.38,0,0,1,198,178.2Zm-72.28-8a18.7,18.7,0,0,0-2.18,2.42c-.42.61-.88,1.19-1.33,1.78l-.24.29c-.44-.4-.9-.75-1.28-1.16-.57-.61-1.09-1.25-1.63-1.89a1.67,1.67,0,0,1-.13-.16,13.24,13.24,0,0,1-1.58-3.37,10.21,10.21,0,0,1-.24-1.32,15.84,15.84,0,0,1,0-3.89,26.39,26.39,0,0,1,.76-4.09c.1-.39.29-.75.42-1.13a16.93,16.93,0,0,1,1.36-2.59.86.86,0,0,1,.15-.18l1.41-1.4a1.43,1.43,0,0,1,.3-.21l2-1.13a2.33,2.33,0,0,1,.46-.19c.59-.17,1.18-.36,1.78-.5s1.15-.17,1.72-.29a7.33,7.33,0,0,1,2,.1,2.35,2.35,0,0,1-.45.93c-.14.13-.27.27-.39.42a1.19,1.19,0,0,0-.11.2c.34,0,.53-.28.86-.35a8.55,8.55,0,0,0-.67,2c.37-.18.48-.53.79-.73a3.53,3.53,0,0,0-.22,1.52l.37,0-.06,1.19.53-.08-.4,2.32.07.05.33-.16a8.08,8.08,0,0,1,0,1c0,.33.09.66.13,1,.26,0,.27-.24.46-.29a6,6,0,0,1,0,1.82l.51-.1-.41.88c.32,0,.46-.24.74-.27,0,.13.08.26.11.4a8.07,8.07,0,0,1,.25,1.89,1.9,1.9,0,0,1-.46,1.16,4.93,4.93,0,0,1-1.37,1.17c-.77.45-1.5.94-2.26,1.4a19.5,19.5,0,0,0-1.94,1.33A2.11,2.11,0,0,0,125.68,170.22ZM150,165.11c-.39.7-.77,1.39-1.15,2.09a.5.5,0,0,1-.35.27c-.48.12-1,.26-1.42.4l-.22.08a10.93,10.93,0,0,0-2.58,1.74,2,2,0,0,0-.23.25l-2.87,3.48c-.17.21-.36.4-.55.59s-.32.28-.47.43a20.83,20.83,0,0,1-3.06,2.46,8.87,8.87,0,0,1-1.65.83,10,10,0,0,1-2.81.65,18.93,18.93,0,0,1-2.89,0,9.75,9.75,0,0,1-2.12-.48l-.19-.07s0-.08.06-.1a16.4,16.4,0,0,1,1.69-1.33,67.12,67.12,0,0,1,7-3.78q.65-.31,1.32-.59a3.32,3.32,0,0,0,1.3-1,3.67,3.67,0,0,0,.62-1.33c.34-1.16.7-2.32,1-3.49.17-.67.25-1.37.36-2.05.23-1.51.32-3,.41-4.56,0-.05,0-.1,0-.2l.19.17a3.16,3.16,0,0,1,.88,2.12,1.8,1.8,0,0,0,.08.31l.4-.54.24.29c.18.2.36.4.55.59s.2.18.41,0l.16-.14.27.14a13.28,13.28,0,0,0,1.69.83,2.48,2.48,0,0,0,1.28.17c.28,0,.56-.07.83-.11h.15c-.12.18-.35.2-.46.44a3.49,3.49,0,0,0,.53,0,3,3,0,0,1,1.2.12.63.63,0,0,1,.48.51A1,1,0,0,1,150,165.11Z"/><g id="_Group_2" data-name="&lt;Group&gt;"><path id="_Path_9" data-name="&lt;Path&gt;" class="cls-4" d="M241.08,187l.64-4.49a1.21,1.21,0,0,0,1.17-.61c.39-.75,1-2,1.77-3.42a31.17,31.17,0,0,1-7.46-5.76c.53,5.89,2.1,8.53,3.48,9.42l.18,5.13v.05l0,.78.09-.41Z"/><path id="_Path_10" data-name="&lt;Path&gt;" class="cls-4" d="M246.16,177.07a16.42,16.42,0,0,1,1.25-1.71c.37-.42.88-.94,1.47-1.52-6.34-5.44-8.59-10.78-9.22-14.88a14.26,14.26,0,0,0-3.07,8.58C237.91,170.45,240.65,174,246.16,177.07Z"/><path id="_Path_11" data-name="&lt;Path&gt;" class="cls-4" d="M265.1,160.93a9.42,9.42,0,0,1,1.28-2.48,22.78,22.78,0,0,0-6.05-4.48c-.39-2.59-.46-7.38,1.07-10.27,3-5.65,5.68-9,7-11.56.57-1,1.39-2.78,2.22-4.43,1.53-3.25,3.95-7,2.85-8.72-.67-1-2.59-1.58-5.13-1.24a12.75,12.75,0,0,0-10,8.24c-1.29,0-6,.6-8,7.27-.09.37-.19.77-.27,1.19-1,3.73-.24,8.66,1,13.07a11,11,0,0,1-.91-2.73c-1.18-6.27-1.13-10.59-1.64-13.43-.2-1.15-.64-3-1-4.84-.81-3.52-1.26-8-3.17-8.62-1.14-.34-3,.36-4.78,2.19a12.79,12.79,0,0,0-2.74,12.67c-1,.8-4.37,4.21-1.78,10.66.15.36.32.72.52,1.11,1.86,4.33,6.85,8.42,11.28,11.27a16.36,16.36,0,0,0-4.67,1.47c-.05,3.27,1.13,8.93,8.19,14.93a17,17,0,0,0,2.62-3.75c-1.15-1.66-1.9-4.23-1.45-8.18a14.64,14.64,0,0,0,.07-1.67v-.06h0c0-.3,0-.63,0-1a6.29,6.29,0,0,1,.4-2,2.87,2.87,0,0,1,1.58-1.11c-1.81,1.62-1.15,3.71-1.38,5.89-.3,2.55-.5,9.86,6.22,10.5,5.24.5,6.59-1.55,7.09-3.16A8.43,8.43,0,0,1,265.1,160.93Z"/><path id="_Path_12" data-name="&lt;Path&gt;" class="cls-4" d="M278.37,166.51c1-2,1.83-5.33-.61-7.66a6.54,6.54,0,0,0-.63-.53,9,9,0,0,1,4.22-2.53,1.1,1.1,0,1,0,.65-1.66,1.08,1.08,0,0,0-.8.85,9.65,9.65,0,0,0-4.77,2.87,10,10,0,0,0-1.29-.65,8.9,8.9,0,0,1,3.33-3.34,1.08,1.08,0,0,0,1.27.16,1.11,1.11,0,1,0-1.63-.91,9.7,9.7,0,0,0-3.75,3.8c-3.07-1-7-.62-8.63,4.23-2.43,7.06,5.07,13,11.95,9.68A8.82,8.82,0,0,1,278.37,166.51Z"/></g><path id="_Path_13" data-name="&lt;Path&gt;" class="cls-4" d="M392.94,149.28a20.87,20.87,0,0,0-1.57-2.11,5.89,5.89,0,0,1-1.39-2.29,9.72,9.72,0,0,0-4.09-5.49,14.73,14.73,0,0,0-1.42-.72c-.38-.18-.76-.35-1.14-.54a8.76,8.76,0,0,1-1.61-.87,4,4,0,0,1-.87-1.23c-.6-1.12-1.15-2.26-1.73-3.38-.3-.58-.66-.68-1.12-.22a12.45,12.45,0,0,0-1.71,2,2.87,2.87,0,0,0-.43,2.19c.09.43,0,.68-.52.8a4.66,4.66,0,0,0-2.94,1.51c-.37.5-.87.91-1.21,1.43a12.47,12.47,0,0,1-2.08,2.65,3,3,0,0,1-3.95.25,9,9,0,0,0-3.88-1.87c-1.55-.32-3.11-.54-4.67-.8l-1.09-.21.23.34a3,3,0,0,1-.56.13c-1.05,0-2.11,0-3.15.06-.67.07-1.51,0-1.73,1,0,.07-.14.14-.23.17a8.9,8.9,0,0,0-3.32,1.93l-2.68,2.41c.57.18.49.43.2.74s-.54.65-.8,1l-.71.95c-.64-.67.16-.92.23-1.35-.54-.46-.55-.58-.09-1.21.32-.43.62-.87.92-1.32a.72.72,0,0,0,0-1c-.09-.1-.06-.36,0-.53a2.46,2.46,0,0,1,.28-.51c.22-.39.26-.73-.24-1-.33-.14-.41-.37-.24-.72a7.28,7.28,0,0,0,.52-1.26,1.87,1.87,0,0,0-.06-.72,3.19,3.19,0,0,1-.11-.64c0-.57.14-1.13.22-1.73h-.47c-.79,0-.81,0-.78-.81,0-.55.14-1.1.18-1.66,0-.13-.12-.37-.19-.38-.46,0-.4-.32-.44-.62s-.11-.43-.24-.49a.82.82,0,0,1-.52-.69c-.06-.32,0-.86-.62-.81s-.52-.17-.57-.58c-.08-.76-.27-1.5-.43-2.34-.36.39-.51.19-.64,0-.27-.43-.52-.87-.8-1.3-.15-.24-.33-.31-.61-.1a.62.62,0,0,1-.59,0,9.79,9.79,0,0,0-1.71-1.71,1.66,1.66,0,0,1-.16-.19,2.75,2.75,0,0,0-.51-.51c-.8-.47-1.61-.9-2.39-1.34a2,2,0,0,1-.28.39s-.22-.05-.28-.13a6.52,6.52,0,0,0-2.18-1.46,1.74,1.74,0,0,1-.13.56c0,.07-.28.08-.4,0-.83-.26-1.66-.54-2.54-.83a2,2,0,0,1,0,.53c0,.09-.17.23-.25.22-.54-.09-1.08-.21-1.62-.32l-1.68-.33c.1.76-.07.85-.72.8-.85-.06-1.71,0-2.6,0,.15.7-.34.67-.77.7.12.6,0,.71-.54.66-.27,0-.54-.08-.84-.12.3.62.24.79-.37.94s-1.43.3-2.14.48c-.18,0-.46.26-.44.37.07.57-.31.64-.7.73a3.25,3.25,0,0,0-.51.19.33.33,0,0,0-.21.5c.2.5.1.7-.39.92s-.87.34-1.28.56c-.18.1-.28.33-.41.5a1.93,1.93,0,0,1-.31.41c-.54.4-1.11.78-1.69,1.19.14.12.25.24.38.34.47.35.49.47.06.87s-.81.67-1.21,1c-.2.18-.33.36,0,.59.07.05,0,.39-.07.52a.49.49,0,0,0-.06.65.82.82,0,0,1,0,.64,6.52,6.52,0,0,1-.62.92l-1,1.37.09.09,1.18-.21.14.11-1.23,2.52a2,2,0,0,1,.44-.12c.12,0,.28,0,.34.09a.41.41,0,0,1,0,.35,4.33,4.33,0,0,0-.3,2.55,3.22,3.22,0,0,1,.27-.48,2,2,0,0,1,.35-.28,1.6,1.6,0,0,1,.15.46c0,1,0,2,0,2.93a2,2,0,0,1,1.35,1c.23.41.43.84.68,1.25.1.16.31.38.45.38.51,0,.67.37.72.67.12.65.44.57.9.42.67-.22.89-.12,1.23.48l.26.43a4.46,4.46,0,0,1,.34-.43c.54-.52.84-.48,1.24.14.22.35.46.68.74,1.09.27-.55.48-1,.71-1.44a2.76,2.76,0,0,1,.34-.42,2.16,2.16,0,0,1,.42.49c.17.4.29.82.46,1.34.12-.34.21-.58.29-.82.13-.41.32-.47.65-.17l.8.71,1.43-1.56c.25-.27.47-.26.69,0s.32.36.55.61a2.77,2.77,0,0,1,.11-.67c.14-.31.3-.79.52-.83.37-.06.22.4.28.65,0,0,0,0,.05.06.51-.25.64-.2.72.34a10.78,10.78,0,0,1,.11,1.32c0,.74-.16.85-.85.62a4.79,4.79,0,0,0-.13.72c0,.38,0,.75,0,1.13a2,2,0,0,1-.08.54,5.38,5.38,0,0,0-.34,1.14c0,.4-.1.64-.47.66a15.05,15.05,0,0,0,.09,1.55,4.28,4.28,0,0,0,1.8,2.59.76.76,0,0,1,.21.57c0,.1-.28.23-.45.25-.39,0-.8,0-1.29,0l1.37,1.42-.45-.11,0,.07.38.16a.43.43,0,0,1-.36.05l-.48-.16c.1.23.15.36.22.48a3.67,3.67,0,0,0,1.85,1.67c.24.11.43.31.16.5s-.16.43-.06.66.25.38.2.49-.31.2-.52.32c.31.33.62.66.93,1a1,1,0,0,1,.29.48c0,.18-.14.37-.25.62l1.8,1.64a2.88,2.88,0,0,1,.26.32c-.11.09-.21.18-.32.25a1,1,0,0,1-.2.09c.27.29.51.6.8.87.46.44.95.84,1.4,1.28.1.09.1.28.16.46s.43.21.66.35a3.57,3.57,0,0,0,2.53.87c.34-.05.38.21.33.45s-.17.65-.28,1c.31.07.62.12.91.21a1.41,1.41,0,0,1,.37.27,2.35,2.35,0,0,1-.27.31,5.31,5.31,0,0,1-.44.3l1.8.33c.38.07.42.32.39.67a.7.7,0,0,0,.21.57,4.14,4.14,0,0,0,1,.32c.23.06.46.1.69.16l-.44.65a.12.12,0,0,0,0,.06,11,11,0,0,1,1.6-.14c.46,0,1,.09,1.16.66.1.31.34.2.57.16a1.66,1.66,0,0,1,.82,0c.14.05.18.37.23.48.68-.15,1.34-.34,2-.43.31,0,.82,0,.84.38s.31.41.58.39a4.93,4.93,0,0,0,.61-.17c.36-.07.59,0,.54.49.2-.08.38-.16.56-.22,1-.33,2-.63,3-1a1.76,1.76,0,0,1,1.16-.24,8.56,8.56,0,0,0,1.82.5,16.06,16.06,0,0,0,3.29-.12,16.34,16.34,0,0,0,3-.88,1.82,1.82,0,0,1,2.06.36,1.27,1.27,0,0,0,.72.39c1.17,0,2.33,0,3.5-.06.92,0,1.83-.18,2.74-.17,1.08,0,2.15.19,3.23.24a.92.92,0,0,0,.74-.34,1.16,1.16,0,0,0-.13-.86,3.11,3.11,0,0,0-1.75-1.26,3.49,3.49,0,0,1-.42-.26,2.12,2.12,0,0,1,.31-.47c.82-.71,1.7-1.34,2.47-2.1a5.53,5.53,0,0,0,2-4.42,14.34,14.34,0,0,0-.46-2.74,3.12,3.12,0,0,0-1.18-1.92c-.32-.21-.07-.37.17-.48.87-.39,1.77-.74,2.6-1.2a13.76,13.76,0,0,0,2.45-1.66,1,1,0,0,1,1.34-.2,9.87,9.87,0,0,0,1.83.78,6,6,0,0,0,4.34-.75,20.57,20.57,0,0,0,6.83-6,1.36,1.36,0,0,1-.27-.37,1,1,0,0,0-1.34-.66,5.13,5.13,0,0,1-1,.24.58.58,0,0,1-.45-.17c-.05-.06.07-.28.16-.57a12.07,12.07,0,0,0-2.06,1,6.18,6.18,0,0,1-2.42,1.3,1.06,1.06,0,0,1-1.21-.36c-.13-.15-.24-.31-.38-.45-.32-.32-.29-.53.12-.68s.83-.26,1.25-.41a5,5,0,0,0,3-2.21,2.46,2.46,0,0,1,2.22-1.27,2.47,2.47,0,0,0,2.34-1.41,9.61,9.61,0,0,1,.51-.85.41.41,0,0,0,0-.33C393.17,149.47,393,149.39,392.94,149.28Z"/><path id="_Path_14" data-name="&lt;Path&gt;" class="cls-4" d="M490.6,130h-4.75a3.85,3.85,0,0,1-3.12-2l-.13-.26a3.85,3.85,0,0,0-3.12-2h-5a6.4,6.4,0,0,0-3.74,1.49L460.2,137a6.4,6.4,0,0,1-3.74,1.49H439.58a24.62,24.62,0,0,0-11.28,2.49,7.52,7.52,0,0,1-4,.39s-7.17-1.17-16.51-10.47c0,0,3.62,10.4,10.92,17,1.46,1.32,1.64,1.74,1.21,2.91L414.22,166a9.47,9.47,0,0,0-.34,4.38l2.21,10.89a2.82,2.82,0,0,0,2.58,2.24h4.54a2.18,2.18,0,0,0,2.13-2.22,2.88,2.88,0,0,0-2.06-2.7,3.3,3.3,0,0,1-2.28-2.76l-.22-2.28a5.45,5.45,0,0,1,1.33-3.85l7-7.08c.85-.86,1.36-.56,1.11.68L429.11,169a7.66,7.66,0,0,0,.58,4.25l4,7.75a3.8,3.8,0,0,0,3.15,2l4.65-.13a1.44,1.44,0,0,0,1.51-1.92,3,3,0,0,0-2.33-2,3.41,3.41,0,0,1-2.49-2.26l-1.57-4.37a6.55,6.55,0,0,1,.15-4.21l2.17-4.87a3.73,3.73,0,0,1,3-2.09l11-.09a1.49,1.49,0,0,1,1.42,2.15l-5.92,18.13c-.39,1.19.25,2.13,1.42,2.08l7.54-.31c1.17,0,1.8-.87,1.4-1.83a5.58,5.58,0,0,0-2.39-2.52,1.66,1.66,0,0,1-.37-2.6l2.73-3.82a1.37,1.37,0,0,1,2.46.11l5.47,9.12a4.3,4.3,0,0,0,3.28,1.92h5c1.17,0,1.69-.92,1.16-2l-.51-1.08a3.62,3.62,0,0,0-2.86-2,2.69,2.69,0,0,1-2.34-2.24l-2.55-12.81a6.19,6.19,0,0,1,.82-4.09l11.71-17.12a5.53,5.53,0,0,1,3.38-2.11l2.39-.29a6.24,6.24,0,0,0,3.52-2l1.7-2.08a6.82,6.82,0,0,0,1.4-3.65A2,2,0,0,0,490.6,130Z"/><path id="_Path_15" data-name="&lt;Path&gt;" class="cls-4" d="M510.08,161.72c0,.05-.12.2,0,.32a.24.24,0,0,0,.19.08.44.44,0,0,0,.19-.08l.49-.32-.31.83a.33.33,0,0,0,0,.31c.08.1.23.11.39,0l.87-.68.08-.06a1,1,0,0,1-.13.38l-.42.71a.43.43,0,0,0-.06.42.2.2,0,0,0,.12.09.25.25,0,0,1,0,.09,2.28,2.28,0,0,1-.3.45c-.22.27-.3.35-.22.47s.26.12.31.13a.65.65,0,0,0,.35-.18l.13-.11c.13-.08.15-.05.18,0a.2.2,0,0,0,.16.07.79.79,0,0,0,.28-.13l0,0,.13-.06a2.06,2.06,0,0,1-.4.25l-.3.18c-.19.13-.17.26-.15.31s.08.2.36.12l.18,0,.11,0,0,0a.19.19,0,0,0,.15.06h0s.12,0,.28-.21a1.49,1.49,0,0,1,.25-.25l0,.06a6.34,6.34,0,0,1-.36.58,4.46,4.46,0,0,0-.59,1.09.49.49,0,0,0,0,.44.22.22,0,0,0,.19.08,1.29,1.29,0,0,0,.5-.23l.13-.1a1.23,1.23,0,0,1,.68-.33h.09l0,0-.1.06-.23.1c-.08,0-.19.07-.18.2a.17.17,0,0,0,.18.15l-.11.16-.21.31c-.07.1-.15.25-.07.37a.23.23,0,0,0,.24.08l0,.14a.33.33,0,0,0,0,.3.2.2,0,0,0,.3,0,1.37,1.37,0,0,0,.18-.28l.1-.18,0,0a.78.78,0,0,1,.45-.24l.4-.06-.06,0c-.32.21-.38.33-.39.41a.22.22,0,0,0,.05.19.45.45,0,0,0,.33.11l-.29.12-.15.06c-.1,0-.28.11-.24.28a.17.17,0,0,0,0,.06l-.06,0c-.12.06-.21.1-.2.22s.2.15.26.14l.18,0-.05,0-.21.16c-.22.17-.27.32-.24.44a.86.86,0,0,1-.19.16c-.3.2-.35.25-.34.36a.17.17,0,0,0,.18.14,1.91,1.91,0,0,0,.36-.13l.24-.1H514a.81.81,0,0,0,.38,0l.31-.12-.26.22c-.31.27-.32.3-.31.38a.17.17,0,0,0,.18.14,1.94,1.94,0,0,0,.35-.12l.8-.34h0a2.09,2.09,0,0,1-.73.66c-.13.09-.26.17-.38.26s-.2.16-.14.3.15.16.37.06l.28-.13-.05.08-.28.41c0,.06-.13.19-.06.31a.22.22,0,0,0,.18.09.45.45,0,0,0,.19-.08l.24-.15,0,0-.05.06c0,.05-.16.18-.09.31a.21.21,0,0,0,.18.09.45.45,0,0,0,.19-.08l.71-.46a1.71,1.71,0,0,1-.19.37c0,.05-.13.19-.05.32a.23.23,0,0,0,.19.09.43.43,0,0,0,.19-.08l0,0a.23.23,0,0,0,.07.15.24.24,0,0,0,.16.05.37.37,0,0,0,.25-.2,2.49,2.49,0,0,1,.18-.27l0,0c0,.24,0,.42.22.4a.17.17,0,0,0,.14-.11c0,.35,0,.39,0,.44a.16.16,0,0,0,.13,0,.23.23,0,0,0,.14-.08l.11-.09a.19.19,0,0,0,0,.1.22.22,0,0,0,.16.06.63.63,0,0,0,.27-.14l.1-.06a.08.08,0,0,1,.05.1v.06c-.07.36-.07.41,0,.47a.16.16,0,0,0,.14.05c.05,0,.08,0,.24-.18v.1a.28.28,0,0,0,.48.2s0,0,.07.09a1,1,0,0,1,.07.36c0,.16,0,.26.08.33a.22.22,0,0,0,.15,0,.26.26,0,0,0,.15-.08l0,0,.07.14,0,.05a.79.79,0,0,1,.13.37.4.4,0,0,0,.29.4l.06,0a.64.64,0,0,1,.09.21l0,0c.07.19.22.39.39.37h0c.08.11.24.09.45-.06a.37.37,0,0,1,0,0v.07c-.08.38-.06.41,0,.47s.29,0,.3-.14a2.84,2.84,0,0,1,.14-.29l.09-.16c0,.1,0,.19-.07.29a4,4,0,0,0-.11.56c0,.14,0,.38.05.47a.16.16,0,0,0,.13,0,.19.19,0,0,0,.16-.22,1.18,1.18,0,0,0,0-.15l.06-.27a3.32,3.32,0,0,1,.13-.46l0-.07,0,.11a4.22,4.22,0,0,1,0,1.3c0,.07,0,.42.1.55a.92.92,0,0,0,.53.16h.53a.66.66,0,0,0,.44-.19.5.5,0,0,1,.17,0,3.57,3.57,0,0,0,1.81.41.51.51,0,0,0,.48-.35l.19,0,.19,0,.29,0c.38.11.71.16.86,0a.49.49,0,0,0,.08-.37.45.45,0,0,1,.16-.36,1,1,0,0,0,.25-.34l0-.05.39.42a.73.73,0,0,0,.52.27h.06c.2-.07.26-.37.21-.61a3,3,0,0,0-2.1-2.26,2.27,2.27,0,0,0-.73-.09h-.08a.75.75,0,0,1-.48-.15l-.05-.06-.15-.15s-.14-.14-.06-.23a7.15,7.15,0,0,1,1.44-1.23.25.25,0,0,1,.15,0,.39.39,0,0,0,.32-.07l.23-.2c.25,0,1.37-.11,1.57-.11a2,2,0,0,0,.42,0c1.36-.14,6.32-.72,9.95-1.14l3.68-.42a.62.62,0,0,0,.49.14,1.84,1.84,0,0,0,.86-.41l0,0s0,0,0,.06c0,1.27.15,1.54.26,1.62l.11.3a9.56,9.56,0,0,0,.47,1.15l.39.57a1.92,1.92,0,0,1,.25.56l0,.12c0,.11.06.28.22.26a.15.15,0,0,0,.12-.08,4.41,4.41,0,0,0,.49.94c.11.15.28.32.41.26v0l.06.31c.06.32.09.48.26.46s.15-.1.15-.24c.09.27.17.59.25,1s.13.45.28.43l.08,0,.05-.05a1.74,1.74,0,0,0,0,.29.72.72,0,0,0,.11.46.17.17,0,0,0,.13,0c.13,0,.15-.13.16-.21a2.14,2.14,0,0,1,.06-.24l0-.09h0v.27c0,.41,0,.44.07.48a.18.18,0,0,0,.13,0l.13,0,.23-.07h0l.07,0a.07.07,0,0,1,0,.07l-.07.15c-.07.13-.12.25-.06.34a.19.19,0,0,0,.25,0v0a.68.68,0,0,1,0,.17.43.43,0,0,0,.07.39.37.37,0,0,0,.32.12h.06l.18,0,.2,0a.24.24,0,0,0,0,.19.25.25,0,0,0,.22.08h0a.29.29,0,0,1,0,.12.42.42,0,0,0,.09.35.24.24,0,0,0,.32,0,.33.33,0,0,0,.51.13s.06.08.07.17,0,.22,0,.34a3.48,3.48,0,0,0,.16.78.36.36,0,0,0,.47.25l0,.08a2.64,2.64,0,0,0,2.17,1.53,1.37,1.37,0,0,0,.84-.22.76.76,0,0,1,.25-.11h0a1.54,1.54,0,0,1,.69.13,1.82,1.82,0,0,0,.8.15,1,1,0,0,0,.47-.17.34.34,0,0,1,.14-.06.49.49,0,0,0,.45.27h.05c.23-.06.26-.37.26-.5v-.09h.2a.89.89,0,0,0,.73-.51l.05-.08a.19.19,0,0,1,.14-.08.14.14,0,0,1,.11,0l.15.15.08.08c.15.14.43.29.54.15s.1-.13-.1-.52l-.19-.38c.24.1.49,0,.51-.16a1,1,0,0,0-.2-.56,1.93,1.93,0,0,0-1.22-.81,2.18,2.18,0,0,1-.51-.19h.2s.19,0,.23-.14a.2.2,0,0,0,0-.19,1.06,1.06,0,0,0-.5-.19l-.18,0c-.92-.14-1.79-.27-2.18-1a.07.07,0,0,1,0,0l.24.1,0,0a1.08,1.08,0,0,0,.48.05l.22,0a1.19,1.19,0,0,1,.5,0,3.3,3.3,0,0,0,.75.09,3.21,3.21,0,0,0,2.42-1.42,1,1,0,0,0,.16-.77,1.13,1.13,0,0,0-.1-.21.79.79,0,0,0-.67-.35l-.11,0a.3.3,0,0,1-.32-.09l-.18-.19a1.48,1.48,0,0,1-.31-.39H560a.29.29,0,0,0,.13-.06.24.24,0,0,0,.06-.16,2.46,2.46,0,0,0-.14-.45,4.66,4.66,0,0,1-.31-1.8.17.17,0,0,0,.21,0,.17.17,0,0,0,0-.12l.12-.28.08-.17c0,.3,0,.33,0,.38a.16.16,0,0,0,.13,0,.19.19,0,0,0,.16-.22l0-.11.14.13.23.22a5.56,5.56,0,0,0,.44.41.34.34,0,0,0,.25.1.23.23,0,0,0,.16-.11.31.31,0,0,0-.05-.3l-.23-.34a3.89,3.89,0,0,1-.4-.64v0l.11.07.22.16c.11.08.17.1.23.1a.17.17,0,0,0,.14-.22c.14.09.26,0,.3-.05a.19.19,0,0,0,0-.14l.16.12c.1.08.16.11.24.11a.17.17,0,0,0,.14-.1.19.19,0,0,0,0-.17l.16.15a4.2,4.2,0,0,0,.5.44c.17.12.35.09.42,0a.32.32,0,0,0,0-.31,3.42,3.42,0,0,0-.3-.43,1.43,1.43,0,0,1-.14-.22,1.77,1.77,0,0,1,1,.32c.19.11.24.12.29.11a.17.17,0,0,0,.14-.11.19.19,0,0,0-.07-.2l-.13-.12-.26-.27a1.89,1.89,0,0,1,1.55,1c0,.06.12.2.26.18a.2.2,0,0,0,.12-.07.33.33,0,0,0,0-.26l-.09-.63a1.86,1.86,0,0,0,.36.29.28.28,0,0,0,.41-.06.34.34,0,0,0,0-.32l-.12-.25.13-.08-.11.12a.42.42,0,0,0,.31.14.22.22,0,0,0,.19-.18.14.14,0,0,1,.07,0,1.78,1.78,0,0,1,.16.21c.07.1.14.18.24.17a.17.17,0,0,0,.13-.08c0-.08,0-.16,0-.28l0-.08-.05-.1a.55.55,0,0,1,.26.12,1,1,0,0,1,.21.6,4,4,0,0,0,.08.43c0,.07.07.27.24.25s.19-.07.17-.32a9,9,0,0,1,0-1.23.08.08,0,0,1,0,0l.06,0,.19.14a3.77,3.77,0,0,1,.45.41.28.28,0,0,0,.23.13.18.18,0,0,0,.13-.09c0-.08,0-.17,0-.3l-.06-.12.24.24.18.17a.32.32,0,0,0,.25.12.19.19,0,0,0,.14-.11.3.3,0,0,0-.09-.29l-.05-.06a1.22,1.22,0,0,1-.34-.66.31.31,0,0,1,0-.08.19.19,0,0,0,.15-.07c.06-.07,0-.16,0-.29h0l.16.2a2.74,2.74,0,0,0,.34.39.32.32,0,0,0,.24.12.19.19,0,0,0,.14-.1.3.3,0,0,0-.08-.29l-.39-.53,0,0a.53.53,0,0,1,.18.1l.12.12a2.07,2.07,0,0,1,.14.21c0,.08.09.15.2.14a.16.16,0,0,0,.11-.06s.06-.08,0-.46l0-.24.14.09a.37.37,0,0,0,.24.08.23.23,0,0,0,.15-.1.32.32,0,0,0,0-.3c.29.11.58.22.9.31a1.62,1.62,0,0,0,.38.07.17.17,0,0,0,.11-.06.17.17,0,0,0,0-.12s0-.08-.23-.38a3.16,3.16,0,0,1-.26-.39h0l1,.3.11,0c.2.06.33,0,.37-.12s0-.2-.14-.29l-.22-.16-.22-.15c.32.08.61.13.92.18l.24,0a1,1,0,0,0,.28,0,.19.19,0,0,0,.16-.13.19.19,0,0,0,0-.16.21.21,0,0,0,0-.09c0-.1-.11-.15-.21-.2l0,0H575l.45,0h.15a.46.46,0,0,1,.32.13.81.81,0,0,0,.57.3l.52.06.48.06a5.92,5.92,0,0,0,.7,0l.58,0a1.38,1.38,0,0,1,.56.13l.25.13a2,2,0,0,0,.71.21h.32a3.14,3.14,0,0,1,.51,0l1.19.21c.23.05.23.08.23.11s0,.26.08.32a.21.21,0,0,0,.14,0,.29.29,0,0,0,.15-.07.55.55,0,0,1,.36,0l.37.11a.47.47,0,0,1,.16.08.19.19,0,0,0,0,.15.24.24,0,0,0,.18.07.45.45,0,0,0,.19-.08.56.56,0,0,1,.38,0,.26.26,0,0,1,.15.11.23.23,0,0,0,0,.22.18.18,0,0,0,.15.06.23.23,0,0,0,.16-.12h.06a.54.54,0,0,1,.19,0l1,.27a4.31,4.31,0,0,0,.7.11l1.18.08a1.86,1.86,0,0,1,.59.16l.52.27a6.73,6.73,0,0,0,4,1.07,7.13,7.13,0,0,0,1.54-.35,1.34,1.34,0,0,0,.53-.45,1.86,1.86,0,0,1,.28-.26,2.69,2.69,0,0,0,.28-.25,1.09,1.09,0,0,0,.2-.75l-.09-1.1a2.2,2.2,0,0,0-.19-.71,9.68,9.68,0,0,0-1.36-1.85,11.84,11.84,0,0,1-1.08-1.37,4.07,4.07,0,0,1-.58-1.34.29.29,0,0,1,.07-.19.23.23,0,0,0,0-.13c0-.09-.08-.15-.25-.21a.09.09,0,0,1,0-.08.36.36,0,0,0,0-.32.2.2,0,0,0-.08-.07.21.21,0,0,0,.06-.16.24.24,0,0,0-.15-.19.37.37,0,0,0-.07-.45s0-.08,0-.1a.23.23,0,0,0,.07-.26.2.2,0,0,0-.12-.09v0a.46.46,0,0,0-.16-.51.57.57,0,0,1-.08-.28,15.1,15.1,0,0,1,.36-3.43c.07-.31,0-.4,0-.43a.22.22,0,0,0-.11-.06,1.2,1.2,0,0,1,.1-.32,6.58,6.58,0,0,1,.41-.69l.23-.37a.31.31,0,0,0,0-.32c-.06-.1-.19-.12-.33,0a2.69,2.69,0,0,1,.31-.27l.27-.22c.15-.14.14-.25.11-.31s-.21-.15-.39,0a3.34,3.34,0,0,0-.46.38,2.12,2.12,0,0,1,.36-.61l0-.06c.23-.31.23-.38.22-.41s-.1-.15-.2-.15a.19.19,0,0,1,.06-.08l.14-.08c.06,0,.24-.12.19-.28s-.08-.19-.35-.09l0,0-.2.07-.17,0,.11-.09c.1-.08.13-.16.09-.24a.21.21,0,0,0-.2-.1l-.15,0-.06,0,0-.05c-.1-.09-.26-.06-.46.1l-.11.09a7.18,7.18,0,0,1,.64-1.14c.08-.13.17-.31.12-.44l0-.05a.41.41,0,0,1,.07-.13l.22-.25.12-.13s.18-.2.11-.34a.18.18,0,0,0-.11-.09c.25-.33.53-.65.8-1a15.64,15.64,0,0,0,1.12-1.41.29.29,0,0,0,.05-.32.24.24,0,0,0-.19-.09.41.41,0,0,0-.19.09l-.27.21a2.74,2.74,0,0,1-.69.46l0-.09a10.69,10.69,0,0,1,1.4-1.87,15.72,15.72,0,0,0,1.16-1.45c0-.06.13-.19.06-.31a.19.19,0,0,0-.17-.08.39.39,0,0,0-.21.11l-.46.4.2-.3c0-.07.13-.19.07-.3a.18.18,0,0,0-.17-.08.39.39,0,0,0-.2.11l-.81.7a.23.23,0,0,1-.13,0h-.11a.33.33,0,0,0-.2.08,1.86,1.86,0,0,0-.43.61,1.56,1.56,0,0,1-.49.64l1.4-3,.13-.28c0-.1.09-.21,0-.3a.18.18,0,0,0-.16-.07c-.07,0-.12,0-.21.15l0,0a6.13,6.13,0,0,0,.45-1.25.35.35,0,0,0,0-.32.25.25,0,0,0-.17-.07.29.29,0,0,0-.19.11l0,0c-.07,0-.13-.06-.26.08l0,0a.21.21,0,0,0-.21,0c-.08,0-.11.13-.16.28l-.06.17a3,3,0,0,1-.82,1.11l.43-1.44c.11-.37.1-.41,0-.47a.16.16,0,0,0-.14-.06s-.08,0-.36.29l0,0,.35-1.23.11-.38c.09-.31.08-.38,0-.44a.17.17,0,0,0-.21,0c-.07,0-.1.11-.17.33l0,.11a5.3,5.3,0,0,1-.42.86.81.81,0,0,1-.24.2,1.58,1.58,0,0,0-.22.17l0,0a.39.39,0,0,0-.06-.28h0c0-.06,0-.15,0-.27a3.25,3.25,0,0,0,.07-.54A.71.71,0,0,0,592,140a.17.17,0,0,0-.27.14,1.55,1.55,0,0,0-.12.25.14.14,0,0,0-.15-.07.16.16,0,0,0-.14.14l-.06.14-.08.17-.11.27a4.57,4.57,0,0,1-.24.55l0-.09a6,6,0,0,0,.13-1.72c-.06-.44-.19-.43-.26-.42a.16.16,0,0,0-.14.14,2.48,2.48,0,0,1-.15.28l0,0a3.92,3.92,0,0,0,0-.7c0-.23-.17-.39-.32-.39,0-.37-.05-.75-.08-1.12a.34.34,0,0,0-.09-.25.18.18,0,0,0-.13,0c-.14,0-.18.18-.19.26v.07a.53.53,0,0,1-.26.31s0,0,0-.05,0-.3-.21-.28-.16.12-.2.24l-.05.13q0-.28,0-.56c0-.39,0-.42-.06-.46a.16.16,0,0,0-.13,0,.16.16,0,0,0-.13.09l-.06-.54a.16.16,0,0,0-.32,0,2.72,2.72,0,0,1-.14.28l-.16.27,0,.06a.19.19,0,0,0-.12,0,.25.25,0,0,0-.11.05l-.05.07a5.53,5.53,0,0,1,.13-.64l.05-.23c.08-.38,0-.44,0-.47a.16.16,0,0,0-.14-.05s0,0-.19.08a.21.21,0,0,0,0-.14.22.22,0,0,0-.16-.06.29.29,0,0,0-.16.08l0,0a.26.26,0,0,0-.29,0c0-.15-.1-.29-.24-.27a.17.17,0,0,0-.13.1l-.13.28.13-.55a.33.33,0,0,0,0-.29A.23.23,0,0,0,586,135a.37.37,0,0,0-.22.13l-.13.12-.07,0,0-.21,0-.19c0-.38,0-.41,0-.46a.16.16,0,0,0-.13,0,.19.19,0,0,0-.14.1c0-.28,0-.55,0-.83s0-.24,0-.28a.21.21,0,0,0,0,0,.16.16,0,0,0-.18-.15.17.17,0,0,0-.14.14l0,.1-.08.22-.06.17a2.45,2.45,0,0,1-.15.4.73.73,0,0,1-.12.16l0,0a.85.85,0,0,1,0-.3l.08-.56c.05-.36,0-.4,0-.44a.17.17,0,0,0-.21,0c-.05,0-.07.08-.11.19s-.05.14-.09.22l0,.06.06-.87c0-.11,0-.2,0-.25a.32.32,0,0,0,0-.07.16.16,0,0,0-.18-.15.2.2,0,0,0-.14.15l-.05.14-.07.18-.11.31A1.67,1.67,0,0,1,583,134h-.05a.13.13,0,0,1,0-.09c0-.12,0-.25,0-.37a6.67,6.67,0,0,1,0-1.33.36.36,0,0,0-.07-.33.32.32,0,0,0-.38,0l-.06,0-.17.05h0a.18.18,0,0,0-.14-.06c-.13,0-.15.12-.18.27l0,.1a1.12,1.12,0,0,1-.29.57s-.13-.08-.14-.16a1.65,1.65,0,0,1,.13-.75c.06-.19.06-.31,0-.39a.21.21,0,0,0-.29,0l0,0a.17.17,0,0,0-.11,0c-.14,0-.16.13-.21.39a3.89,3.89,0,0,1-.28.91.49.49,0,0,1-.07.1,1.26,1.26,0,0,1-.07-.22l-.07-.35a14.77,14.77,0,0,0-.41-1.69c-.07-.2-.18-.24-.26-.23s-.19.06-.2.31v0l-.33-1.18c-.07-.26-.14-.4-.29-.38a.18.18,0,0,0-.13.09,1,1,0,0,0,0,.5l.08.78,0,0a1.17,1.17,0,0,1-.24-.71,3.34,3.34,0,0,0-.09-.5c-.07-.25-.23-.25-.27-.25s-.18,0-.24.26l-.23.87c0-.12,0-.26,0-.4a4.52,4.52,0,0,0-.17-.93.29.29,0,0,0-.31-.21.41.41,0,0,0-.31.24,1.87,1.87,0,0,1-.19.3l0,.06c0-.05,0-.11-.06-.18a3.49,3.49,0,0,1-.11-.64c0-.32-.07-.38-.12-.42a.18.18,0,0,0-.19,0s-.11.07-.13.43a.17.17,0,0,0-.1,0c-.12,0-.16.12-.17.23l-.11-.45c0-.08-.07-.27-.24-.25s-.18.21-.18.29v.16c0-.08-.09-.17-.2-.16a.16.16,0,0,0-.12.07s-.07.1.06.47l0,.14a.26.26,0,0,0-.29,0,1.26,1.26,0,0,1-.07-.19l0-.08a9.66,9.66,0,0,0-.49-1.37.29.29,0,0,0-.29-.19c-.1,0-.22.1-.25.3l-.13.94-.12-.23c-.1-.2-.21-.4-.3-.62a.55.55,0,0,0-.48-.38.92.92,0,0,1-.19-.26l-.14-.25c-.06-.1-.11-.2-.17-.31l-.09-.19c-.06-.14-.1-.23-.22-.22s-.14,0-.14.19l-.5-1.21c-.14-.33-.18-.42-.31-.41s-.16.17-.14.51c0,.57.07,1,.07,1.29h0a2.53,2.53,0,0,1-.25-.58c-.12-.38-.14-.45-.28-.44s-.16.1-.23.46l0,.15-.13-.24c-.19-.37-.27-.39-.36-.38s-.18.15-.18.4a.19.19,0,0,0-.26,0,.27.27,0,0,0,0,.19l-.61-1.24c-.16-.33-.21-.4-.33-.39a.15.15,0,0,0-.14.12l0-.07c-.14-.33-.19-.42-.32-.41a.16.16,0,0,0-.12.07c-.07.1,0,.36,0,.47a5.15,5.15,0,0,0,.24.63,3.43,3.43,0,0,1,.24.66l-.31-.44-.64-.91c-.23-.32-.27-.35-.37-.34a.16.16,0,0,0-.12.08c0,.06,0,.1.09.46l.19.5-.36-.44a5.94,5.94,0,0,1-1-1.51l-.06-.15c-.08-.2-.11-.28-.24-.27a.16.16,0,0,0-.12.07c0,.06-.06.08,0,.46l.11.39a.87.87,0,0,1,0,.13l0,0s-.07.12,0,.42l.06.17.42,1.21a3,3,0,0,0-.45-.42.8.8,0,0,1-.31-.39l-.16-.79c0-.12-.06-.28-.22-.26s-.16.18-.15.31a4.66,4.66,0,0,1-.1,1.17c0,.06,0,.07-.11,0l-.22-.22a6.21,6.21,0,0,0-.79-.71c-.18-.13-.27-.12-.3-.12a.21.21,0,0,0-.14.1.2.2,0,0,0,0,.18l0,0c0,.08,0,.18.11.44a1.68,1.68,0,0,1,.15.34l-.06,0a3.1,3.1,0,0,1-.69-1.51c-.09-.33-.12-.46-.28-.45s-.16.2-.13.52l.07.71a.52.52,0,0,1,0,.08,1.84,1.84,0,0,1-.88-1l-.07-.17c-.06-.17-.1-.26-.23-.24a.16.16,0,0,0-.12.07c0,.05-.06.09.05.46l0,.08a.57.57,0,0,1,0,.14.17.17,0,0,0-.09.09c0,.1,0,.21.13.4a.75.75,0,0,1,.17.4v0l-.42-.29-.15-.1c-.33-.21-.36-.21-.41-.2a.2.2,0,0,0-.16.2,1.7,1.7,0,0,0,.21.38l.26.36c.14.19.28.38.4.59a5.86,5.86,0,0,1-1-.83,5,5,0,0,0-1-.82c-.18-.1-.33-.07-.39.05a.31.31,0,0,0,.06.31l.12.18A1.68,1.68,0,0,1,558,124a4.22,4.22,0,0,0-.26-.38.3.3,0,0,0-.26-.15.21.21,0,0,0-.14.09.32.32,0,0,0,0,.29c.09.23.19.45.29.67a10.16,10.16,0,0,1,.4,1l-.07-.07-1.55-1.7a.32.32,0,0,0-.25-.14.19.19,0,0,0-.13.09.32.32,0,0,0,0,.29l.18.41-.18-.18-.19-.19a5,5,0,0,1-.46-.49l-.13-.18c-.07-.11-.12-.17-.22-.16s-.18.08-.16.26a1.48,1.48,0,0,0,.12.32l0,.12c.05.13.1.27.15.4a4.44,4.44,0,0,0,.26.63,3.3,3.3,0,0,0,.2.3c.07.09.13.18.17.26l.05.09.09.17a1.16,1.16,0,0,1-.32-.1,4.58,4.58,0,0,1-1.16-.9,6.6,6.6,0,0,0-.71-.62.77.77,0,0,0-.39-.19.16.16,0,0,0-.14.18,2.77,2.77,0,0,0,.12.38l.14.41-.24-.16-.54-.34c-.26-.16-.34-.15-.37-.15a.18.18,0,0,0-.15.19,2.64,2.64,0,0,0,.1.35.28.28,0,0,0-.14,0,.24.24,0,0,0-.21.22l-.2-.22-.12-.14c-.18-.21-.36-.25-.47-.15l-.06,0a.22.22,0,0,0-.16,0,.22.22,0,0,0-.15.1.41.41,0,0,0,0,.36c.07.14.15.27.23.4a3.81,3.81,0,0,1,.5,1.12,5.12,5.12,0,0,1-1-.87c-.14-.15-.29-.29-.46-.45a.34.34,0,0,0-.26-.11.26.26,0,0,0-.15.09.33.33,0,0,0,0,.29l.05.19-.23-.31-.09-.14c-.12-.18-.15-.23-.26-.22a.16.16,0,0,0-.12.07c0,.05-.06.09.06.43a1.69,1.69,0,0,1-.26-.25l-.12-.14a.32.32,0,0,0-.25-.12.24.24,0,0,0-.15.1.32.32,0,0,0,0,.3l.07.15-.09-.07-.18-.15c-.2-.18-.28-.18-.34-.18a.19.19,0,0,0-.12.07v0h-.13a.2.2,0,0,0-.15.09.53.53,0,0,0,0,.41,4.69,4.69,0,0,1-.39-.4c-.11-.12-.21-.24-.33-.35a.32.32,0,0,0-.25-.11.24.24,0,0,0-.15.09.33.33,0,0,0,0,.3h0l-.17-.11a.2.2,0,0,0-.28.05c0,.08,0,.18.07.36l.15.26a2.14,2.14,0,0,1-.66-.47,2.23,2.23,0,0,1-.16-.2c-.06-.07-.1-.14-.2-.13a.16.16,0,0,0-.11.07c0,.05-.06.08,0,.46l.06.3a.11.11,0,0,1,0,.06,4.52,4.52,0,0,1-.84-.7l-.29-.27a.34.34,0,0,0-.26-.12.22.22,0,0,0-.14.09.23.23,0,0,0,0,.15l-.14-.14c-.11-.11-.27-.26-.39-.25a.18.18,0,0,0-.15.19.48.48,0,0,0,0,.1h0a.17.17,0,0,0-.13.1c0,.07,0,.15.11.34a.6.6,0,0,1-.19,0c-.19-.06-.31,0-.37.09a.33.33,0,0,0,0,.3l0,.05a3,3,0,0,1-.63-.36l-.29-.19c-.18-.11-.33-.08-.39,0a.32.32,0,0,0,0,.31l0,0c-.29-.12-.32-.12-.37-.12a.16.16,0,0,0-.14.18c0,.07.11.19.29.37l.15.16a.21.21,0,0,0-.24.13,6.25,6.25,0,0,0-1-.47c-.19-.07-.32,0-.36.1s.08.26.13.3l.11.1a.21.21,0,0,0-.16.11l0,0h0l-1.51-.61-.16-.06a.84.84,0,0,0-.34-.08.23.23,0,0,0-.14.08h-.16a2,2,0,0,0-.31,0,.19.19,0,0,0-.17.1.17.17,0,0,0,0,.16,2.15,2.15,0,0,0,.34.28l.26.18a.51.51,0,0,0-.19,0,.21.21,0,0,0-.19.15h-.06a.26.26,0,0,0-.29.13.35.35,0,0,0,0,.3l-.61-.24c-.31-.12-.35-.12-.39-.11a.16.16,0,0,0-.15.18s0,.06.2.31a5.57,5.57,0,0,0-1.44-.23H534c-.09,0-.4.06-.38.25a.16.16,0,0,0,.18.14l.28.11.61.24h-.11l-.17,0a2.48,2.48,0,0,1-.62,0l-.48-.1a1.49,1.49,0,0,0-.34,0,.2.2,0,0,0-.14.09.17.17,0,0,0,0,.16s0,.05.16.13l-.2,0c-.27,0-.33.1-.34.14s.12.25.18.28l.12.08a8.24,8.24,0,0,1-1.64-.08l-.73-.08c-.25,0-.32.11-.33.17s0,.18.13.32l.08.07a1,1,0,0,1,.14.14l0,0c-.08,0-.21.1-.18.24a.17.17,0,0,0,.13.11l.07,0,.22.11-1.9-.14-.26,0a.16.16,0,0,0-.21.15.19.19,0,0,0,.14.16l.29.15,0,0s0,0,0,0a7.74,7.74,0,0,1-2.11.13h-.34a.19.19,0,0,0-.17.18.22.22,0,0,0,.18.16l.29.14.07,0a.22.22,0,0,0-.15.13.19.19,0,0,0,0,.1c-.07,0-.27,0-.29.17a.19.19,0,0,0,.12.19l-.39,0c-.26,0-.35.08-.37.15a.22.22,0,0,0,.06.22h0l-.26,0-.27,0h0c-.14,0-.16.07-.14.18a.16.16,0,0,0,.18.14l.34.05.1,0c-.09,0-.23.06-.24.2s.2.21.26.23l.16,0c-.16,0-.21.1-.24.14v0l-.15,0-.53.09a7.28,7.28,0,0,1-1.48.14H523a.23.23,0,0,0-.18.1.18.18,0,0,0,0,.15c0,.07.13.15.3.23h-.32a6.33,6.33,0,0,0-.93.06c-.44.08-.42.21-.41.27a.16.16,0,0,0,.13.13l.06,0,.26.12a5.1,5.1,0,0,0,.5.16,4,4,0,0,1,.55.18l-1.08.11c-.13,0-.26,0-.28.16s.08.17.21.23l-.66.11-.13,0c-.13,0-.27,0-.27.19a.15.15,0,0,0,.09.15h-.05c-.38.06-.41.13-.43.18a.17.17,0,0,0,0,.16c0,.07.12.09.33.14l.13,0,.22.07c-.62.06-1.16.1-1.66.14h0a1.18,1.18,0,0,0-.42.13c-.11.05-.24.11-.23.24s.17.16.51.13l.31,0-.68.19c-.06,0-.26.07-.25.24s.22.19.29.2h0l-1.12.23c-.34.07-.48.1-.46.26s.13.15.39.14h.12a4.56,4.56,0,0,1,.72,0,.15.15,0,0,0-.11.17c0,.13.13.15.2.16l.23.05h0c-.11,0-.22.09-.21.21a.16.16,0,0,0,.11.14l-2.14.63c-.36.11-.39.19-.4.23a.17.17,0,0,0,0,.15.35.35,0,0,0,.28.11h0c0,.11.17.14.42.12h.32c-.18.08-.21.13-.22.17a.18.18,0,0,0,.13.24l-.37.16a3.73,3.73,0,0,1-.61.19l-.79.16c-.13,0-.28.05-.27.21s.16.16.3.16a2,2,0,0,1,.34,0c-.25.11-.35.15-.33.28s.12.14.21.16l.24.06.08,0s0,0,0,0a6.12,6.12,0,0,1-1.54.41c-.31,0-.4.07-.44.17a.17.17,0,0,0,0,.16s.07.1.47.17l.28.05a.19.19,0,0,0,0,.16c0,.1.12.2.36.18l.34,0a.39.39,0,0,1,.15,0,.6.6,0,0,1-.24.12,3.91,3.91,0,0,1-1.21,0h-.44a.18.18,0,0,0-.16.18c0,.11.08.15.44.26l.6.17h0l0,0-1.14.5c-.33.14-.42.19-.41.32s.12.16.25.16a.18.18,0,0,0,0,.06c0,.13.12.18.41.19l-1.11.37c-.35.12-.38.19-.4.24a.17.17,0,0,0,0,.14l0,0c-.15.06-.22.12-.21.23s.21.16.42.14l-.25.12a.17.17,0,0,0,.07.33,2.8,2.8,0,0,0,.33-.08l1.38-.39a.36.36,0,0,0,0,.32l-.18.07-1.25.45-.58.21c-.33.12-.44.16-.42.31a.2.2,0,0,0,.21.14l.32-.06.26-.06,0,0c-.27.24-.28.35-.23.45a.2.2,0,0,0,.17.08,1.24,1.24,0,0,0,.29-.1h0c-.22.15-.28.31-.25.42l-.08,0a.29.29,0,0,0-.19.3.2.2,0,0,0,.09.13l0,.05a1.5,1.5,0,0,1-.46.29l-.15.06c-.19.08-.27.12-.26.24a.19.19,0,0,0,.2.14l.33-.07.25-.06-1.65.55c-.32.11-.44.15-.43.3s.19.16.51.14l.46,0-.71.56c-.28.21-.28.3-.27.38a.18.18,0,0,0,.13.13,1,1,0,0,0,.45-.11,4.89,4.89,0,0,1,.75-.2.24.24,0,0,1,.11,0,.37.37,0,0,0,.09.38l-.05.05a.22.22,0,0,0-.09.25v0l-.08,0-.92.36c-.11,0-.31.12-.27.28a.17.17,0,0,0,.09.12l-.08,0-.05,0a.54.54,0,0,0-.24.32l0,.06a.21.21,0,0,0,0,.23c0,.06.16.14.42,0a4.47,4.47,0,0,1,1.09-.28h.15l-.41.39a4.22,4.22,0,0,0-.4.4.29.29,0,0,0-.07.34.28.28,0,0,0,.36.1l.09-.15h0l0,.15s0,0,0,0a1.59,1.59,0,0,1-.68.69l-.2.14c-.21.15-.22.28-.19.36a.21.21,0,0,0,.23.12h0a.19.19,0,0,0,0,.07c.09.09.26.08.47,0l.27-.12,0,.07a3.4,3.4,0,0,1-.45.59,4.87,4.87,0,0,0-.42.52.28.28,0,0,0,.35.43l.09,0a.24.24,0,0,1,.21.08c0,.07,0,.29.17.34a1.33,1.33,0,0,1-.18.12.43.43,0,0,0-.24.28.22.22,0,0,0,0,.13l-.08.11-.11.16c-.09.12-.11.23-.06.32s.21.13.38,0l.19-.12h0l0,0a.3.3,0,0,0,.15.12l0,.06-.15.19c-.14.18-.12.3-.08.37a.23.23,0,0,0,.24.11h0l-.1.15-.3.39c-.05.07-.15.19-.08.31a.19.19,0,0,0,.17.09.41.41,0,0,0,.2-.1l.08-.06.1-.07a.76.76,0,0,1,0,.08A5.54,5.54,0,0,1,510.08,161.72Z"/><path id="_Compound_Path_4" data-name="&lt;Compound Path&gt;" class="cls-4" d="M625.09,160.63c-.11.3-.08.34.18.14a55.1,55.1,0,0,1,7.86-5.17c.28-.15.5,0,.48.31l-1.06,19.32c-.93,7.72-2.93,15.16-7.19,21.82a2.6,2.6,0,0,0-.25.54c-.11.3-.09.64,0,.74s.43,0,.67-.2a23.26,23.26,0,0,0,2.37-2.27,22.66,22.66,0,0,0,4.11-8.49l.06-.21a1,1,0,0,1,.46-.62.58.58,0,0,1,.62.18c1.88,1.67-1.91,8.18-2.82,9.6a1.38,1.38,0,0,0-.17.48.79.79,0,0,0,.08.64c.1.08.38,0,.64-.22a11.56,11.56,0,0,0,1.19-1c3.39-3.35,5.29-7.55,6.7-12a69.77,69.77,0,0,0,2.5-11.3c0-.32.13-.67.15-.8a1,1,0,0,0,0-.23c0-.24.39.4.39.4a2.76,2.76,0,0,1,0,1.27,10,10,0,0,0-.23,2.06,1,1,0,0,0,1.68.74,1,1,0,0,0,.31-.54l0,0a100.17,100.17,0,0,0,2.46-14.22,1,1,0,0,1,.6-.78l2.74-1a.73.73,0,0,1,.83.31,4.52,4.52,0,0,0,.35.48.37.37,0,0,0,.25.14.89.89,0,0,0,.61-.26.44.44,0,0,0,.11-.36,3.56,3.56,0,0,1,0-.55.47.47,0,0,1,.44-.49,1.47,1.47,0,0,0,.4-.06l8.07-2.39c.31-.09.52.1.4.39v0c-.13.3-.62.6-.62.92h0c0,.32.41.46.52.46h.31l.13,0,.19-.07a2.47,2.47,0,0,0,.72-.3l.15-.13a3.88,3.88,0,0,0,.58-1,2.56,2.56,0,0,0,.13-.45.91.91,0,0,1,.48-.71.67.67,0,0,1,.72.38,3.62,3.62,0,0,1,.24.7.41.41,0,0,0,.1.19c.08.09.17.14.14.19s.09,0,.25-.05l.29-.14a1.53,1.53,0,0,0,.87-1.08,5.06,5.06,0,0,0,.09-.78c0-.11.21-.27.52-.36l7.08-2.1c1.8-.53,1-3.34-.77-2.81l-8.35,2.47a1.48,1.48,0,0,1-1-.16,6.67,6.67,0,0,0-3.36-1,.38.38,0,0,1-.39-.54c.34-1,.65-2,1-3a10.35,10.35,0,0,1,.41-1.09l.94-2.05a3,3,0,0,1,.69-.9q.56-.46,1.08-1a7,7,0,0,1,.93-.69,11.71,11.71,0,0,0,5.32-9c0-.1,0-.2,0-.3s.21-.43.49-.59l1-.59,1.61-.94a3.4,3.4,0,0,0,.5-.32s0,0,0,0h0a1.6,1.6,0,0,0,.37.11,1.71,1.71,0,0,1,.6.23,1.2,1.2,0,0,0,.28.14,14.77,14.77,0,0,0,4.23.81,1.25,1.25,0,0,0,.28,0,2.46,2.46,0,0,1,.71,0l.44.07.2,0c.11,0,.14.21,0,.46s-.12.29-.2.44l-.2.44a.84.84,0,0,0-.09.6c.06.09.35.06.65,0A1.6,1.6,0,0,0,682,133a21.08,21.08,0,0,0,2.71-3.74c.63-1.26,1.35-3,.16-4.11l-.21-.18a1.57,1.57,0,0,1-.37-.72l-.15-.59a1.08,1.08,0,0,0-.05-.16l-.27-.7a10.25,10.25,0,0,0-11.2-6.67,40.82,40.82,0,0,0-15,5.15c-1.12.65-3.12.75-4.39,1.19a32,32,0,0,0-15.17,10.86A73.18,73.18,0,0,0,629.46,147a63.24,63.24,0,0,0-3.05,7.51C626.14,155.29,625.62,159.18,625.09,160.63Zm28-9a2.68,2.68,0,0,0,0-.5v-1a3.21,3.21,0,0,1,.08-.79c0-.11,0-.19,0-.17s-.08,0-.08-.08v-.12s0,0,0,0,0,0,.07-.06.22.19.4.46l.94,1.36.11.15a6.14,6.14,0,0,1,.37.67l.39.77c.26.5.69.92.9,1.43a3.12,3.12,0,0,0,.18.37c.11.2.23.4.2.5a.4.4,0,0,1-.27.26,1.69,1.69,0,0,1-.76-.19,4.63,4.63,0,0,0-.53-.18,2.82,2.82,0,0,1-1-.5,4.27,4.27,0,0,1-1-1.3A1.93,1.93,0,0,1,653,151.58Zm-6.39,5.6c.13-2.21.19-4.42.17-6.63a2.18,2.18,0,0,1,0-.59,3.14,3.14,0,0,1,.17.56,4.77,4.77,0,0,0,.18.51c.12.3.29.77.4,1.05s.31.74.45,1,.2.38.33.59c.4.66.81,1.32,1.22,2a.6.6,0,0,1-.11.78,3.65,3.65,0,0,1-.9.57l-1.43.54A.35.35,0,0,1,646.65,157.19Z"/><path id="_Compound_Path_5" data-name="&lt;Compound Path&gt;" class="cls-4" d="M708.21,169.18c.78-.91,1.59-1.8,2.3-2.76a16.63,16.63,0,0,0,2.19-4c.55-1.42,1.18-2.8,1.75-4.2.25-.61.44-1.24.65-1.87a1.44,1.44,0,0,1,.85-.87c0,.24,0,.43,0,.63,0,3-.08,5.9-.09,8.85a18.92,18.92,0,0,0,.71,4.17c.1.46.24.91.36,1.36a4.45,4.45,0,0,1-.15,2.46c-.35,1.2-.66,2.41-1,3.62-.22.81-.47,1.6-.64,2.42a16.3,16.3,0,0,0,0,5.65,6.68,6.68,0,0,1,0,3,3.72,3.72,0,0,0-.19,1.21,1.3,1.3,0,0,0,1.25,1.29c.7.07,1.4.14,2.1.17.92,0,1.84.1,2.75.06,1.1,0,2.2-.19,3.3-.28.31,0,.36-.19.32-.44s-.11-.69-.17-1.06l.16-.08a.72.72,0,0,0,.42-1.1,9.49,9.49,0,0,0-1-1.21c-.32-.35-.72-.63-1-1a16.88,16.88,0,0,1-1.16-1.79,2.14,2.14,0,0,1-.08-1.7,16,16,0,0,1,.92-2.67,11.75,11.75,0,0,1,1.62-2.45c.8-.93,1.75-1.74,2.63-2.6a6.34,6.34,0,0,0,1.79-3.15,14.86,14.86,0,0,1,.42-1.43.37.37,0,0,1,.3-.17c1.16.07,2.31.2,3.47.24.75,0,1.51,0,2.26-.07h.57c1.51-.05,3,0,4.53-.18a7.74,7.74,0,0,0,2.83-1c.64-.34,1.3-.65,2-1a3.26,3.26,0,0,1,.81,1.58,32.23,32.23,0,0,1,.69,5.6c.06,1,.16,2,.16,3s-.12,2.21-.15,3.31c0,.59.09,1.19,0,1.78-.07,1-.2,2-.35,3a3.9,3.9,0,0,1-.39.93,1.7,1.7,0,0,0,.28,2.09.71.71,0,0,0,.45.19c1.62-.06,3.23-.16,4.85-.22,1,0,2.08,0,3.12-.05a.63.63,0,0,1,.41.15,1.72,1.72,0,0,0,1.29.36c1.29,0,2.57,0,3.86,0,.54,0,1.08,0,1.61,0a5.8,5.8,0,0,0,1-.25c.19-.05.38-.16.57-.2.82-.16.83-.34.67-1.18a2.4,2.4,0,0,0-.49-.77c-.16-.24-.33-.47-.51-.7s-.19-.09-.26-.16a7.14,7.14,0,0,1-1.66-2,2.41,2.41,0,0,1-.16-.66c-.18-1.57-.4-3.13-.49-4.71-.07-1.19,0-2.4.06-3.6,0-1,0-2,0-3,0-1.19.05-2.38.19-3.56a32.62,32.62,0,0,0,.1-5.62c-.08-1.58-.3-3.16-.44-4.73a.5.5,0,0,1,.22-.37q1.82-1.09,3.66-2.14c1.37-.79,2.76-1.56,4.27-2.41.26.3.56.66.88,1s.6.58.88.89.74.78,1.07,1.19.6.56.85.39a.88.88,0,0,0,.16-1.11,2.29,2.29,0,0,0-.3-.38,9.06,9.06,0,0,1-1.71-3.08l-.16-.37c.51-.24,1-.49,1.55-.72.36-.16.72-.31,1.09-.43a3.81,3.81,0,0,0,1.68-1.22c.29-.33.66-.52,1-.27a7.37,7.37,0,0,0,3,.81.93.93,0,0,1,.16,0c.21.08.44.17.57-.08a2,2,0,0,0,.06-.61c.19-.27.61-.16,1-.21a7.82,7.82,0,0,1,1.21-.08,3.31,3.31,0,0,1,.86.18,11.35,11.35,0,0,0,5.27.43,7.68,7.68,0,0,0,3.45-1.18,3.13,3.13,0,0,0,1.47-1.93,1.45,1.45,0,0,0-.06-.63c-1.77,1.64-3.91,1.62-6.16,1.58.58-.58,1.51-.76,1.44-1.83-.77.28-1.49.56-2.22.81a3.2,3.2,0,0,1-2.47.11,8.17,8.17,0,0,1,1.36-.47,5.39,5.39,0,0,0,3.71-2.48,8.42,8.42,0,0,0,1.58-5.91,13,13,0,0,0-1-3.67,8.46,8.46,0,0,1-.51-3.82,9.4,9.4,0,0,1,1.34-3.82c.32-.52.62-1.07,1-1.57a5.18,5.18,0,0,1,2.75-2c.32-.1.63-.22.95-.32a.32.32,0,0,0,.18-.49,3.13,3.13,0,0,1-.21-1.63c0-.54-.36-.85-.78-.55a8.69,8.69,0,0,1-2.24.85,11.4,11.4,0,0,0-3.92,2.52,11.51,11.51,0,0,0-2.81,4,20.3,20.3,0,0,0-1.38,4,13,13,0,0,0,.08,4.75,14.58,14.58,0,0,1,.19,2.34,1.07,1.07,0,0,1-.26.61c-.39.51-.82,1-1.15,1.39-.67-.23-1.29-.47-1.92-.66a5.07,5.07,0,0,1-1.75-.88c-.42-.33-.9-.58-1.34-.89-.77-.54-1.52-1.1-2.3-1.63a19.66,19.66,0,0,0-1.69-1c-.95-.51-1.9-1-2.87-1.46a5.36,5.36,0,0,0-2.83-.29,8.7,8.7,0,0,0-3.74,1.18c-1,.61-2,1.25-3.06,1.86a3.31,3.31,0,0,1-1.83.42,7.56,7.56,0,0,0-1.08,0c-.58.07-1-.3-1.47-.49a12,12,0,0,0-3.44-.85c-1-.08-1.9-.24-2.85-.34a9,9,0,0,0-4.54.49c-.85.36-1.67.81-2.52,1.17a1.4,1.4,0,0,1-.79,0c-1-.21-2-.47-2.94-.69s-1.76-.36-2.63-.58a8.47,8.47,0,0,0-4.54.5,32.08,32.08,0,0,0-3.15,1.12,14.69,14.69,0,0,0-2.12,1.09,23.64,23.64,0,0,0-6.23,5c-.85.9-1.61,1.88-2.36,2.86a20.38,20.38,0,0,0-1.59,2.32,32.49,32.49,0,0,0-1.62,3.25,13.42,13.42,0,0,0-.55,2c-.18.72-.33,1.44-.54,2.15q-.48,1.64-1,3.26-.44,1.3-1,2.57c-.29.72-.63,1.42-1,2.13-.46,1-.89,2-1.42,2.9a14.35,14.35,0,0,1-1.54,2.21c-.3.36-.85.5-1.23.81a2.87,2.87,0,0,0-1.11,1.94c.42-.19.76-.32,1.07-.5A6.58,6.58,0,0,0,708.21,169.18Zm44.38,13.43a4.89,4.89,0,0,0,.42-1.39c.21-1.33.39-2.66.57-4,.15-1.12.28-2.23.42-3.35h.08c.19.77.37,1.54.56,2.3a11,11,0,0,1,.2,3.94,4,4,0,0,0,.14,2.31,3.93,3.93,0,0,1,.15,2.64c-.11.53-.26,1.05-.42,1.7-.22-.26-.36-.42-.48-.58-.41-.53-.8-1.08-1.21-1.6A1.69,1.69,0,0,1,752.58,182.61Z"/></g></g></svg>