<svg xmlns="http://www.w3.org/2000/svg" xmlns:xlink="http://www.w3.org/1999/xlink" viewBox="0 0 800 200"><defs><style>.cls-1{fill:#fff;}.cls-2{isolation:isolate;}.cls-3{opacity:0.85;mix-blend-mode:multiply;}.cls-4{fill:#4d4d4d;}.cls-5{mask:url(#mask);}</style><mask id="mask" x="22.94" y="118.11" width="64.72" height="72.89" maskUnits="userSpaceOnUse"><g id="_Group_" data-name="&lt;Group&gt;"><circle id="_Path_" data-name="&lt;Path&gt;" class="cls-1" cx="55.3" cy="150.47" r="32.36"/></g></mask></defs><title>animal_icons</title><g class="cls-2"><g id="動物分類按鈕" class="cls-3"><path id="_Path_2" data-name="&lt;Path&gt;" class="cls-4" d="M34.11,56.24c0,.21,0,.39.05.42s.23-.07.38-.21l.06-.06c.15-.14.25-.09.22.12l-.3,2.07c0,.2.08.28.24.18s.28,0,.28.18a33.87,33.87,0,0,0,1,10.36,21.83,21.83,0,0,0,1.3,3.49,3.77,3.77,0,0,1,.3,2.34c-.24,1.55-.44,3.1-.68,4.87a.32.32,0,0,0,.32.37c1,0,1.83,0,2.7,0a2.41,2.41,0,0,0,1.89-1c.84-1.09,1.73-2.14,2.52-3.1.13-.16.24-.12.23.09a17.26,17.26,0,0,0,0,1.74c.12,1.5.46,1.86,1.93,1.81.21,0,.23-.1,0-.2s-.31-.17-.44-.26-.29-.21-.47-.36a.24.24,0,0,1,0-.42,1.43,1.43,0,0,1,.4-.19A1.72,1.72,0,0,0,47.51,77c.28-1.16,1.27-1.37,2.2-1.58s1.34.33,1.73,1,.65,1.06,1,1.57.61.78,1.09.47c.17-.11.35-.09.39.11a2.46,2.46,0,0,1-.55,2.16c-.12.17-.13.3,0,.3a.38.38,0,0,0,.22,0,3.66,3.66,0,0,0,1.35-4.61c-.05-.12-.11-.23-.15-.36s0-.25.18-.1l.8.77.9.9a.28.28,0,0,0,.46-.06l.28-.46c.11-.18.19-.15.19.05v1c0,.21,0,.39.1.42s.19-.1.3-.27l.44-.7a.5.5,0,0,1,.55-.2l.91.31c.89.3,1.12.28,1.29-.41a.24.24,0,0,1,.39-.17c.66.48.63,1-.07,2-.12.17-.06.27.14.22C62.57,79,63,78.59,63,77.82a2.24,2.24,0,0,0-1.63-2.33,14.91,14.91,0,0,1-2.54-.89C57.68,74,57.59,73,58.7,72.37c1.75-1.07,2.7-2.82,3.95-4.3a7.88,7.88,0,0,0,1.49-5.75,5.13,5.13,0,0,1,.44-2.78c.42-.83.21-1.95.39-2.92.36-1.86.85-3.69,1.19-5.55a54.7,54.7,0,0,0,.78-5.53,38.9,38.9,0,0,0,0-5.24A11.72,11.72,0,0,0,66.31,37a7.24,7.24,0,0,1-.55-3.8A11.58,11.58,0,0,0,65.39,28c-.28-1-.53-2.13.53-3a.88.88,0,0,0,.31-.74c-.43-1.07.39-1.63.85-2.35a3.1,3.1,0,0,0,.29-.65c.07-.19,0-.35-.06-.35a1.35,1.35,0,0,0-.51.19c-1.87,1.1-3.72,2.22-5.61,3.28a1.72,1.72,0,0,1-1.24.07,9.16,9.16,0,0,0-5.86-.11,3.41,3.41,0,0,1-3.24-.74,29.39,29.39,0,0,0-5.08-2.44.56.56,0,0,0-.35,0,.4.4,0,0,0-.3.42.61.61,0,0,0,.11.32,2.05,2.05,0,0,1,.66,1.85c-.1.6.57,1.31.82,2a1.37,1.37,0,0,1,0,.93A25.66,25.66,0,0,0,45,33.26a14.24,14.24,0,0,1-2.58,6.45c-.7,1-1.4,1.91-2.15,2.83a33.7,33.7,0,0,0-5.75,11.34A13.84,13.84,0,0,0,34.11,56.24Z"/><path id="_Path_3" data-name="&lt;Path&gt;" class="cls-4" d="M177.31,41.48c.76-.16,2.82.93,4.74-.06,3-1.55,1.38-2.21.18-2.75s-4.34-1.6-4.61-4.45A4.24,4.24,0,0,0,175,30.59s1.09-5.58.05-5.9-4.71,3.47-5.71,4.34c-3.37,0-6.94,4.42-7,9.58s-2.78,9-5.52,10.15C141,53.9,140.09,63.38,140.14,70.48a21.31,21.31,0,0,0,.52,4.81c-1.69-1.62-4.12-6.37-2.5-15.07,2-10.91-3.89-21.74-20.64-18.87,6.17,3,8,10.9,6.85,15.4-2.55,9.68-3.3,23.87,15.31,23.87h18.55c1.45,0,3.38,0,3.38-1.36,0-1.54-5.39-2-5.82-2.35,0,0,9-.68,9.67-9.41,0,0,7.46,13.05,9.84,13.09s4,0,5.52,0a1.58,1.58,0,0,0,1.79-1.75c0-1-1.51-1.5-2.35-1.5s-2.52.21-3.55-1.2c-5.13-6.59-4.92-11.62-4.92-14.24a5.76,5.76,0,0,1,.94-3.12c3.72-6.63,4.22-7.67,4.24-10.14s-1.83-4.89-2.16-5.41S175.64,41.82,177.31,41.48Z"/><path id="_Path_4" data-name="&lt;Path&gt;" class="cls-4" d="M276.62,46.67c-.69-1.65-1.29-3.33-2-5a6.71,6.71,0,0,0-3-3,15.39,15.39,0,0,0-2.24-1,.55.55,0,0,1-.33-.6c.12-.61.26-1.26.35-1.92a8.71,8.71,0,0,0-.05-1.23c0-.56,0-1.11,0-1.67a9.77,9.77,0,0,0-.44-2.79c-.15-.59,0-1.25-.21-1.83s0-1.33-.54-1.81a.07.07,0,0,1,0-.06c.09-.93-.6-1.59-.91-2.37a3.32,3.32,0,0,0-1.73-1.92,6,6,0,0,1-.92-.54.33.33,0,0,0-.52.18,20.56,20.56,0,0,0-.72,2.28,6,6,0,0,0-.44,2.28,6.46,6.46,0,0,1-.42,1.94c-.07.35-.1.7-.14,1.05s-.18.29-.33.1a4.92,4.92,0,0,0-1.13-1.2c-.76-.47-1.32-1.16-2.07-1.61a20.41,20.41,0,0,0-3.61-1.85,19.77,19.77,0,0,0-3.95-.77,2.86,2.86,0,0,0-1.14.22.35.35,0,0,0-.22.51c.39.75.74,1.46,1.14,2.13q1,1.68,2,3.31c.4.62.89,1.17,1.33,1.77s.87,1.25,1.34,1.84c.33.41.73.76,1.09,1.14s.8.85,1.15,1.31A8.66,8.66,0,0,1,259.52,40a.53.53,0,0,0,0,.17c.51,1,0,1.59-.71,2.17-.1.08-.1.27-.16.4a2.75,2.75,0,0,1-.29.68,3.42,3.42,0,0,0-.6,2c0,.43-.16.86-.23,1.29a.71.71,0,0,0,0,.21,1.47,1.47,0,0,1-.16.6A5.14,5.14,0,0,1,256,49.76c-.2.14-.26.21-.1.19a.7.7,0,0,1,.29,0,1.6,1.6,0,0,1-.41.19l-.1,0c-.23.09-.31.18-.18.22s.05.13-.18.21l-.61.22c-.23.08-.33.19-.22.25s0,.14-.18.19-.36.15-.33.22-.14.16-.38.21a11.35,11.35,0,0,1-1.3.23,1.24,1.24,0,0,1-.44-.05,3.5,3.5,0,0,0-.86-.17,36.73,36.73,0,0,0-4.88.67c-.24,0-.63.11-.88.13l-1.05.11c-.24,0-.41.08-.37.11s-.12.13-.35.21L240.21,54c-.23.08-.36.18-.28.22s0,.15-.27.24a6.54,6.54,0,0,0-1.72.77c-.52.39-1.11.71-1.62,1.12a8.93,8.93,0,0,1-2.11,1l-.22.1c-.12.05-.13.14,0,.2s.06.22-.14.36l-1.28,1c-.2.15-.3.3-.23.34s0,.17-.26.29l-.43.24c-.22.12-.38.23-.37.26a.61.61,0,0,0,.32,0c.16,0,.15.08,0,.25l-2.3,2.19-.27.23c-.15.12-.11.18.09.12s.25.07.11.27c-.38.58-.75,1.15-1.14,1.71-.25.36-.57.66-.86,1a.07.07,0,0,0,0,.05s.09,0,.18,0,.06.13-.09.33l-.73,1c-.14.2-.1.27.09.17s.27,0,.17.22A6.79,6.79,0,0,0,226,70a3.85,3.85,0,0,1-.47,1.29c-.1.22-.09.34,0,.27s.16.06.12.3l-.58,3.35c0,.24,0,.41.07.38s.09.13,0,.37l-.16.55c-.07.24-.05.41,0,.38s.09.15,0,.39c-.11.63,0,1.3-.5,1.82-.16.18-.24.29-.13.29s.1.16,0,.36l-.12.16c-.14.2-.18.33-.08.3s.18,0,.19,0v0a1.05,1.05,0,0,1,0,.18,2.06,2.06,0,0,0,1.23,2.35c.74.33,1.27,1.08,2.23,1,.3,0,.63.3,1,.45h.05s0-.07,0-.13.15-.07.39,0l.52.11c.24.05.4,0,.37-.06s.12-.07.35,0c2,.66,4.06.39,6.09.43.25,0,.42,0,.39-.07s.14-.09.39-.09h2.11a8,8,0,0,0,1-.07c.72-.1,1.44-.2,2.16-.33s1.58.17,2.39-.3c.47-.28.91-.49,1.07-.85s.26-.48.5-.54c.44-.11.86-.2,1.28-.33.58-.18,1.07-.39,1.19-1.15a1.15,1.15,0,0,0-.45-1.32.26.26,0,0,1-.09-.16c0-.1-.24-.2-.49-.22h-.17a.25.25,0,0,1-.21-.42l.21-.35c.13-.21.26-.36.3-.35a.69.69,0,0,1,.09.36c0,.18.11.15.22-.07l.15-.31c.11-.22.22-.39.26-.38a.66.66,0,0,1,.09.34c0,.18.11.13.2-.09l.09-.22c.09-.23.18-.25.19,0s.08.17.18-.05a1.87,1.87,0,0,1,1-1c.69-.29,1.35-.64,2-.94a.5.5,0,0,1,.45.12c.34.4.62.85.94,1.26s.69.86,1.05,1.28.94,1,1.41,1.57l.07.1c0,.06.11,0,.15,0s.16.06.26.28l.11.24c.1.22.2.28.22.13s.15-.11.29.09l1.08,1.57c.14.2.25.24.25.08s.11-.12.25.09l.61.9c.14.2.23.21.2,0a.67.67,0,0,1,0-.4s.19.11.33.31l.25.34c.14.2.31.31.36.24a.23.23,0,0,0,.06-.14s0,0,0-.06l0,0a1.64,1.64,0,0,1,.39.24l.42.3c.2.14.35.17.34.06s.16-.12.39,0a2.37,2.37,0,0,0,.57.19,12.9,12.9,0,0,1,1.49.12,2.56,2.56,0,0,0,2.35-.64,2,2,0,0,1,1.19-.44,1.48,1.48,0,0,0,.77-.34l.73-.69a.64.64,0,0,0,.13-.71,2,2,0,0,0-1.17-1.2c-.24-.07-.35-.15-.23-.24s0-.17-.24-.17H268a1.79,1.79,0,0,1-.44,0,.53.53,0,0,1,.22-.09c.12,0,0-.14-.19-.25l-.2-.09c-.22-.1-.32-.21-.21-.23s0-.14-.2-.26l-1.23-.66a1.85,1.85,0,0,0-.29-.11c-.16-.05-.19-.13-.07-.17s.12-.12,0-.19-.12-.14,0-.17.12-.12-.11-.22l-.56-.23c-.23-.09-.33-.28-.23-.4s.16-.2.14-.25a2.11,2.11,0,0,0-.21-.39c-.14-.2-.18-.37-.09-.36s.12-.1.09-.23,0-.16-.06-.23a6,6,0,0,0-.3-1.43,1.22,1.22,0,0,1,.09-1.43c.15-.19.35-.26.39-.2s.15,0,.25-.21.19-.27.22-.21.18,0,.34-.22l.4-.48c.16-.19.31-.26.35-.17s.13,0,.24-.24c.56-1.1,1.5-2,1.71-3.23h0a.39.39,0,0,1,.15.1c.07.06.17-.08.24-.32l1.13-3.9a3,3,0,0,1,.39-.78,4.07,4.07,0,0,0,.92-2,1.63,1.63,0,0,0-.35-.77,2.55,2.55,0,0,1-.24-1.28,10.7,10.7,0,0,1,.07-1.73c0-.24.06-.43.11-.41s0-.15.05-.4c0-1.05.95-1.32,1.74-1.65.23-.09.58-.24.8-.31a1,1,0,0,0,.37-.18,5.64,5.64,0,0,0,.72-.87,3.65,3.65,0,0,1,.75-.68,12.28,12.28,0,0,0,1.26-1.32,9,9,0,0,1,1.14-1,1.18,1.18,0,0,0,.27-1.64A11,11,0,0,1,276.62,46.67Z"/><path id="_Path_5" data-name="&lt;Path&gt;" class="cls-4" d="M386.78,35c-3-1.72-1.89-3.27-3.15-4.16a4.45,4.45,0,0,0-2-.92s.57-2.69-2.47-2.64c0,0-4-7.13-11.85-.25a2.58,2.58,0,0,1,1.7,0c.7.35-5.75,1.35-8.46,6.25,1.8-.8,2-.23,2,.65,0,3-3.57,7.17-10.41,7.56-3,.18-5.12-1.47-12.22-1.47s-11.69,6-13.9,14.74-3.33,10-5.54,10-4.33-2.82-4.23-5.64.58-5.51,2-6.52.08-3.65-2.22-2.31-3,5-3,8.89,1.68,9.19,7.18,9.19S328,62.6,328,62.6a61.73,61.73,0,0,0,1.3,15.65c-.17,1.26-.67,3.23,2.77,3.19s4.37-.21,4.28-2.14-1.17-2.14-2.06-2.14-2.22.25-2.1-1.47,1.53-13,10.21-17.75c4.37,1.63,7.14,4.2,15.87,1.68.46-.09,1.39,2.56,1.39,5.83s3.62,7.05,4.34,10.83c.25,1.6-1.64,5.16,1.64,5.16s5.12.46,5-1.76-.67-2.81-2-2.86-2.64-.71-2.35-3.56-.55-10.11,1.55-13c.38-.5,6.34.12,9.74-5.75a12,12,0,0,1-.46,4s6.59-5.24,4.4-12.84c-.29-.63.59-.67,1-.08A10.08,10.08,0,0,0,381,41.24s0-1.13,1.13-.21,4.87,3.19,5.37-2.56C388.25,38.35,389.8,36.67,386.78,35Z"/><path id="_Path_6" data-name="&lt;Path&gt;" class="cls-4" d="M485.45,20.68a1.43,1.43,0,0,0-1.16-.89,1.91,1.91,0,0,1-.2,2.42,1.61,1.61,0,0,1-2,.81c1.35-2,1-3.71-1.23-5.21a.8.8,0,0,0,0,.54c.11.33.27.65.39,1a1.88,1.88,0,0,1-.27,1.92,1.15,1.15,0,0,1-1.67.22,9.31,9.31,0,0,0-.94-.6A15.1,15.1,0,0,1,475,18.78a3.25,3.25,0,0,0-.41-.26l-.18.08.89,1.7-.67-.11a.61.61,0,0,0,.26.41c.38.28.77.55,1.18.81a5.17,5.17,0,0,1,2.68,3.47,7.94,7.94,0,0,1,.06,1.71,3,3,0,0,1-.3,1.42c-.84,1.36-1.79,2.68-2.71,4a2.5,2.5,0,0,1-.4.32,26.19,26.19,0,0,0,0-2.67,4.22,4.22,0,0,0-.87-2.42.58.58,0,0,0-.08.31c0,1.2,0,2.41-.16,3.61a4.58,4.58,0,0,1-2,3.53c-.9.62-1.79,1.24-2.7,1.84a1.58,1.58,0,0,1-.53.09,1.16,1.16,0,0,1,0-.37c.12-.55.3-1.09.38-1.65.14-1.11.23-2.22.33-3.34a1.37,1.37,0,0,0-.09-.34,7.26,7.26,0,0,0-1.18,2.78,5.72,5.72,0,0,1-1.5,3.44,1.25,1.25,0,0,0-.25.73.91.91,0,0,1-.74.77,7.73,7.73,0,0,1-3.54.27,1.85,1.85,0,0,1-1.29-.61,9.37,9.37,0,0,0-1.36-1.52,3.89,3.89,0,0,1-1.55-2,4.27,4.27,0,0,0-.19-.6c-.35-.89-.71-1.78-1.06-2.67l-.2,0a18.09,18.09,0,0,0,.66,4.75l-.85-.49a5.51,5.51,0,0,1-2.75-2.74c-.19-.55-.4-1.11-.58-1.66s-.39-1.3-.59-1.94c-.66,1.09-.15,2.21-.24,3.34a25.56,25.56,0,0,1-2.4-3.31,4.3,4.3,0,0,1-.13-4.46,8.06,8.06,0,0,1,1.76-1.86,6,6,0,0,0,.82-1.17h-.74a9.57,9.57,0,0,0,.56-2.82.93.93,0,0,0-.41.26l-2.07,2.42c-.54.62-1.06,1.24-1.63,1.84a1.22,1.22,0,0,1-1.4.33l.51-.72-.12-.06-1,.52a1.94,1.94,0,0,1-.5-1.73c.17-.86.4-1.71.59-2.56a4.61,4.61,0,0,0,.05-.71l-.19,0a3.09,3.09,0,0,0-.33.38c-.44.71-.83,1.43-1.29,2.13a2.62,2.62,0,0,0,.27,3.36,3.66,3.66,0,0,1,.32.77c.22.45.44.89.7,1.33a3.72,3.72,0,0,1,.87,2.11,4,4,0,0,0,1.82,3.83c1.29.95,2.62,1.87,4,2.76,1.52,1,3.12,1.9,4.68,2.86.37.23.7.5,1,.76-1.16-.23-2.19-.57-3.27-.8a4.8,4.8,0,0,1-2.71-1.39,1.1,1.1,0,0,0-.32-.16c-.07.1-.22.21-.19.28a2.14,2.14,0,0,0,.37.82c.9,1,1.82,2,2.8,3a4.58,4.58,0,0,0,1.56,1.1,3.28,3.28,0,0,1,1.35.63c.22.25.4.51.59.77a1.29,1.29,0,0,1,0,1.86.55.55,0,0,0-.12.2c-.47,1.45-.93,2.91-1.41,4.36a.77.77,0,0,1-.32.4,5.71,5.71,0,0,1-2.7.81c-2.23.09-4.47.19-6.71.26a10.07,10.07,0,0,1-1.4-.14,4.85,4.85,0,0,0-1-.11c-1.29.13-2.56.31-3.85.47a7.1,7.1,0,0,0-1.33.17,20.38,20.38,0,0,0-2.86,1.13c-1.1.57-2.54.81-3.23,1.8,0,0-.12.07-.18.11A4.65,4.65,0,0,0,431,57.31c-.4,1.18.18,2.35.2,3.53,0,0,0,0,0,0,.47,1.6,1.06,3.19,1.38,4.81a33.05,33.05,0,0,1,.41,4.36c.08,1.26.1,2.52.15,3.78a1.2,1.2,0,0,1,0,.53,20.89,20.89,0,0,1-1.48,3.15,3.34,3.34,0,0,0-.64,2.3,18.37,18.37,0,0,1-.17,2.85c0,.61,0,1.23,0,1.84-.24,1.1-.12,1.64,2,1.37s3,.79,2.68-.44-2.07-1.86-2.07-1.86-.32-.23-.3-.32a5.17,5.17,0,0,1,.33-1c.42-1,.85-2,1.29-3,.29-.65.59-1.31.95-1.94,1-1.74,2-3.47,3.06-5.2a9.67,9.67,0,0,1,2-2.77c.59.63.91-.15,1.35-.08,1,.49.54,1.24.65,1.87a2.49,2.49,0,0,1-.38,2c-.88,1.18-1.67,2.4-2.6,3.56a1.35,1.35,0,0,0-.07,1.82,29.19,29.19,0,0,1,2.28,3.7c.32.67,1,1.16,1.29,1.82.17.3-.54,1.47.53,1.29s3.57.31,3.63,0a3,3,0,0,0-1.67-2.25c-1.25-.62-1.23-2.63-1.23-2.63-.4-1.35.18-2.48,1.34-3.51a17.09,17.09,0,0,0,1.9-1.84A23.87,23.87,0,0,0,449.25,73c.14-.21.29-.42.43-.63a.88.88,0,0,1,.9-.4h.12a8.17,8.17,0,0,1,2.78,0c.46,0,.95,0,1.41,0,.19,0,.47.13.51.24a22.28,22.28,0,0,1,1.83,6,6.2,6.2,0,0,0,.57,1.38c.15.42-.06.85,0,1.29l.15,1.24s-.65,2.46-.22,2.52a9.86,9.86,0,0,1,2.22.09,6,6,0,0,0,2.24-.12c.18-.79-1.66-1.8-1.66-1.8a24.63,24.63,0,0,1,0-3c0-.43.38-.84.42-1.27a4.31,4.31,0,0,0-.2-1.42c-.24-.91-.61-1.79-.78-2.71a22.46,22.46,0,0,1-.15-2.53c0-.36.16-.58.56-.8a5.35,5.35,0,0,1,4.72.18,2.53,2.53,0,0,0,1,.11.12.12,0,0,1,.11.08L467.51,79c0,.07.7,2,.37,2.28-.18.15-.08.49,0,.84,0,.07-.76,1.21.19,2s4.17.75,4.17.75-.12-.44-.42-1.41-.76-1-.76-1a.8.8,0,0,1,.14-1.31c0-.07,0-.18,0-.21-.55-.33-.36-.75-.33-1.17a12.24,12.24,0,0,0,0-1.62,38.33,38.33,0,0,1-.23-4.52,29.17,29.17,0,0,1,.83-3.7,21.54,21.54,0,0,0,.31-2.54,2.12,2.12,0,0,1,.82-1.59,5.31,5.31,0,0,0,.95-1.07c.23-.32.32-.69.54-1,.69-1,1.37-2,.79-3.22a.28.28,0,0,1,0-.09L474.28,57a5.9,5.9,0,0,1-.14-1.09c0-.6.23-1.19.22-1.79a12,12,0,0,0-.31-3.06,15.84,15.84,0,0,0-1.52-3.28,25,25,0,0,0-2.15-3.14,2,2,0,0,1-.29-2,1,1,0,0,1,.43-.45c.78-.53,1.67-1,2-1.79a1.59,1.59,0,0,1,.43-.61c.74-.64,1.53-1.25,2.28-1.89a5,5,0,0,0,.77-.82c.1-.13,0-.33.07-.5-.23,0-.33.06-.37.11a3.85,3.85,0,0,1-2.16,1.16c-1.12.28-2.2.64-3.31,1a4.26,4.26,0,0,1-.52.06,7.72,7.72,0,0,1,.71-.66c.77-.55,1.54-1.1,2.33-1.63,1.09-.73,2.21-1.43,3.29-2.17s2.24-1.62,3.41-2.38c1.79-1.18,2.56-2.63,2.24-4.37-.19-1,.47-1.83,1.28-2.59a7.78,7.78,0,0,1,1.05-.83,1.78,1.78,0,0,1,.79-.27c.55,0,.64-.14.41-.53a.72.72,0,0,1-.06-.6A2.74,2.74,0,0,0,485.45,20.68Z"/><path id="_Path_7" data-name="&lt;Path&gt;" class="cls-4" d="M581.29,68a.6.6,0,0,1-.06-.39l.07-.3a1.74,1.74,0,0,0,0-.75,3.2,3.2,0,0,1-.06-.42,5.55,5.55,0,0,0-.12-1c-.38-1.71-1.09-3.17-2.93-3.75-1-.33-2.08-.69-3.13-1a19.13,19.13,0,0,1-5.55-2.48,4.33,4.33,0,0,1-1.79-2.3c-.59-2.12,1.5-4.81,3.8-4.9a8.25,8.25,0,0,1,3,.49c.11,0,.13,0,0-.08l-.2-.18c-.09-.08-.15-.16-.14-.18s.11,0,.22,0a.78.78,0,0,1,.19.07c.8.44,1.6.89,2.41,1.32.14.07.37.15.46.08.48-.34.94-.7,1.38-1.05a.28.28,0,0,0,.08-.33c-.3-.6-.6-1.16-.83-1.74a32.4,32.4,0,0,1-1.68-7.51,29.2,29.2,0,0,1,.12-9.68,40.85,40.85,0,0,1,4.62-11.94c.44-.77.9-1.53,1.36-2.29.06-.1.08-.21,0-.25s-.14,0-.23.08a30.12,30.12,0,0,0-2.53,2.46,25.75,25.75,0,0,0-2.12,3.12c-.37.6-.71,1.22-1.06,1.84a1.52,1.52,0,0,1-.27.33l-.33.29c-.09.08-.09.08,0,0a9.71,9.71,0,0,0,.34-3.21q0-.18,0,0a9.73,9.73,0,0,1-3.51,5.83c-.09.07-.15,0-.13-.08l1.58-8c0-.12,0-.13-.05,0l-5.5,11.35c-.05.11-.11.1-.14,0a25.44,25.44,0,0,1,0-7.13c0-.12,0-.13-.07,0a21.51,21.51,0,0,0-2,7.19,5.61,5.61,0,0,1-.4,2,1.59,1.59,0,0,1-1.35,1,.27.27,0,0,1-.25-.22c-.28-1.69-.78-4.63-.35-6.26,0-.12,0-.12,0,0a25.86,25.86,0,0,0-1.27,9,.67.67,0,0,1-.13.38q-.43.52-.84,1.06c-.07.09-.16.08-.19,0q-.65-2.28-1.29-4.56a6,6,0,0,1-.14-.84c0-.12-.07-.21-.13-.2s-.11.11-.12.23a29.54,29.54,0,0,0,.29,7.32.63.63,0,0,1-.09.39q-.37.55-.72,1.1c-.06.1-.15.09-.19,0l-1.5-4.27c0-.11-.07-.11-.07,0,0,.54,0,1,0,1.5a40,40,0,0,0,.62,4.38.67.67,0,0,1-.06.4q-.48.84-.92,1.71c-.05.11-.14.1-.19,0q-1-2-1.92-4.06a5.49,5.49,0,0,1-.24-.68c0-.11-.1-.19-.14-.18s-.06.12,0,.24a29.34,29.34,0,0,0,1.53,6.4.62.62,0,0,1,0,.4l-.43,1c0,.11-.14.12-.2,0l-2-3.12a3.15,3.15,0,0,1-.21-.42c0-.11-.11-.19-.15-.17s0,.12,0,.24a19.59,19.59,0,0,0,1.8,4.94.56.56,0,0,1,0,.39l-.3.83c0,.11-.13.13-.21,0a7.54,7.54,0,0,1-1.32-1.89s0,0-.08,0-.07.07-.05.19a10.64,10.64,0,0,0,.88,2.72c0,.11,0,.13-.07,0A33.91,33.91,0,0,0,550,49a83.44,83.44,0,0,0-12.39-7.58c-1.3-.65-2.57-1.39-3.85-2.08a16.74,16.74,0,0,1-5.66-5.46A12.33,12.33,0,0,1,526,29.7a18.18,18.18,0,0,1,.41-8.81c.18-.71.41-1.41.62-2.11,0-.11,0-.14-.09-.06a5,5,0,0,0-.58.74,12.57,12.57,0,0,0-2.45,6.08c-.09,1.23.25,2.48-.19,3.69,0,.08,0,.21.08.31a35,35,0,0,0,3,6.69,3.93,3.93,0,0,1,.2.38,19.22,19.22,0,0,0,2.14,3.67c.07.1.09.21,0,.26a.32.32,0,0,1-.29,0,4.38,4.38,0,0,1-.54-.22,1.58,1.58,0,0,1-.35-.25,33.12,33.12,0,0,1-5.28-6.89c-.78-1.34-1.51-2.71-2.33-4.18-.06-.1-.09-.09-.08,0a20.26,20.26,0,0,0,4.45,10.86,3.07,3.07,0,0,1,.24.36,8.71,8.71,0,0,0,2.1,2.46,2.2,2.2,0,0,1,.3.3l.64.82a.86.86,0,0,1,.15.27l0,.1.11.5c0,.12,0,.16-.14.1A45.45,45.45,0,0,1,521.82,40l-1.87-1.7c-.09-.08-.19-.12-.22-.1s0,.13.07.23a44.05,44.05,0,0,0,4.53,6,13.84,13.84,0,0,0,1.51,1.31l2.37,2.14c.43.39,1,.8,1.24,1.38s-1.72,0-1.91-.05a17.64,17.64,0,0,1-3.17-1.6l-.93-.52c-.1-.06-.21-.08-.23,0s0,.12.11.2c2.12,2,4.22,4.06,7.08,5l.86.28a.68.68,0,0,1,.32.25q.3.49.62,1c.07.1,0,.15-.09.12a35.68,35.68,0,0,1-6.29-2.35c-.29-.14-.59-.26-.92-.4-.11,0-.13,0,0,.06a19,19,0,0,0,8.75,4.7A.76.76,0,0,1,534,56l.64.73c.08.09.08.17,0,.19a.9.9,0,0,1-.34,0,42,42,0,0,1-5.77-1.11c-.12,0-.12,0,0,0a27.91,27.91,0,0,0,5.44,2.45c.29.08.58.15.86.21a3.06,3.06,0,0,1,.42.12A6.84,6.84,0,0,1,536,59a7.15,7.15,0,0,1,.63.4l0,0s0,.09-.06.18a.33.33,0,0,1-.28.16l-2.05,0c-1.05,0-2.11-.21-3.16-.34-.12,0-.13,0,0,.06a20.71,20.71,0,0,0,7.81,2,1.52,1.52,0,0,1,.42.08l.68.25a2.47,2.47,0,0,1,.7.3c.09.08,0,.18-.09.18-.55,0-1.11,0-1.66,0-1.35,0-2.7-.17-4.19-.28-.12,0-.12,0,0,.05a30.14,30.14,0,0,0,6,1.33c.12,0,.12.06,0,.11A10.86,10.86,0,0,0,538.33,65a3.29,3.29,0,0,1-.36.24q-.93.51-1.81,1.12a.86.86,0,0,0-.23.22,2.86,2.86,0,0,1-.25.34,5.83,5.83,0,0,0-.69.85,3.28,3.28,0,0,1-.27.34,7,7,0,0,0-1.32,2c0,.11-.13.28-.19.39a3.93,3.93,0,0,0-.41,1.25,5.05,5.05,0,0,1-1.27,2.53l-1.21,1.33a.13.13,0,0,0,.06.22c1.18.35,2.24.48,3.12-.58.08-.09.13-.07.12,0a.93.93,0,0,1-.14.49,12.45,12.45,0,0,1-1.73,2.1,3.13,3.13,0,0,1-3.17.69,2.94,2.94,0,0,1-2.16-3.1,6.33,6.33,0,0,1,.25-.95c0-.11,0-.17-.05-.13a.47.47,0,0,0-.11.09,4.16,4.16,0,0,0-.35.48,5.2,5.2,0,0,0-.61,3.8c.36,1.71,2.61,3.45,4.52,3.58a7.3,7.3,0,0,0,5.46-2.16,4.58,4.58,0,0,0,1.59-3.43,1.45,1.45,0,0,1,.06-.33c0-.12.09-.12.14,0,.79,1.76,1.88,1.77,2.94,1.41.11,0,.12-.12,0-.18a3.18,3.18,0,0,1-1.21-1.57,5.82,5.82,0,0,1-.11-3.82,2.23,2.23,0,0,1,1.32-1.75,3.07,3.07,0,0,1,2,0l.2.08h0a2.68,2.68,0,0,1-.47,3.25s0,0,0,0,.1.09.21.12a1.28,1.28,0,0,0,1.31-.29c.09-.08.18-.06.21.06a2.44,2.44,0,0,1-.51,1.7.13.13,0,0,0,.11.2l2.14.12c.12,0,.16.09.09.19a3.86,3.86,0,0,1-.81,1.07,12.34,12.34,0,0,1-2,1c-.34.15-.36.32-.24.63a4.29,4.29,0,0,0,1.38,1.68c.09.08.16,0,.15-.07a10,10,0,0,1-.05-1.1.65.65,0,0,1,.25-.45,2.16,2.16,0,0,1,.51-.22.15.15,0,0,1,.2.15c0,1,0,2,0,3,0,.13-.25.33-.4.36a10.94,10.94,0,0,1-1.21.14c-.12,0-.14.08,0,.15.5.38.92.7,1.36,1a.52.52,0,0,0,.34.08c.75-.12,1-.42,1.09-1.2,0-.14,0-.29,0-.43.08-.74.16-1.49.23-2.24a.16.16,0,0,1,.23-.14c1.13.41,1.17.59.84,1.74l0,.16c0,.09,0,.12.15.07l.68-.34a.33.33,0,0,1,.35.05,1.14,1.14,0,0,1,.37,1.36c-.08.37-.16.75-.26,1.21,0,.12,0,.14.11.06l.6-.56c1-1,1-1,.48-2.32a.59.59,0,0,1,0-.47c.42-.65.44-1-.14-1.55a8.26,8.26,0,0,0-1.54-1c-.38-.21-.77-.42-.75-.9a2.11,2.11,0,0,1,1-2c.66-.35,1.34-.65,2-.95a3.84,3.84,0,0,1,.41-.14,1.64,1.64,0,0,0,.57-.32.15.15,0,0,1,.25,0l.25.49c.05.11.09.19.07.19s0,.05.07.12l.09.13a1.38,1.38,0,0,0,.12.18l.52.74a.19.19,0,0,1-.07.28l-1.24.66a.2.2,0,0,0-.08.28,3.23,3.23,0,0,0,1.52,1.58c.11,0,.19,0,.17-.15l-.16-1a.22.22,0,0,1,.18-.25,5.87,5.87,0,0,1,.79-.11c.11,0,.32.13.33.22.05.53.08,1.07.1,1.64a.17.17,0,0,1-.2.18l-1.85-.27c-.12,0-.14,0-.06.12L554,80.43a.28.28,0,0,0,.34,0l.7-.48a.21.21,0,0,1,.3.06c.21.34.38.72.63.8a1.91,1.91,0,0,0,1-.25.27.27,0,0,0,.17-.28c-.08-.48-.16-.93-.21-1.38,0-.17,0-.44.12-.53.52-.4.42-.79.08-1.22a2.27,2.27,0,0,1-.3-.51A2.41,2.41,0,0,0,555.25,75a.2.2,0,0,1-.17-.24,7.06,7.06,0,0,0,.12-.79.2.2,0,0,1,.23-.19c.7.09,1.4.16,2.1.21a19.2,19.2,0,0,0,8.81-1.2c1.88-.77,3.7-1.68,5.53-2.57a3.48,3.48,0,0,1,2.62-.28c1,.31,2,.68,3,1l.4.17a3.72,3.72,0,0,0,.53.19.51.51,0,0,1,.3.25,3,3,0,0,1-.08,2.37c0,.11,0,.17.12.13a8.25,8.25,0,0,0,1.46-.66,5.56,5.56,0,0,0,2.28-2.16,1.46,1.46,0,0,0-.06-1.58c-.31-.44-.63-.88-.91-1.33Z"/><path id="_Path_8" data-name="&lt;Path&gt;" class="cls-4" d="M667.93,79.25c-.28-2.29-2.81-2.55-4.28-2.39-1.57-5.9,3.9-14.71,4.22-16.79.35-2.24-1.6-15.27-1.81-21.87-.21-6.77-10-14.25-11.69-13.06-1.63,1.8,2.34,4.23.25,6.31s-2.55,3.36-4,5.64c-3.84,5.83,6.57,5.91,6.57,5.91s-8.15,6-10,9.08c-1.67,2.8-2.37,5.94-4.38,8.58-4.59,6-3.56,16.53-3.56,16.53s-8.7-2.85-3.91-12.78c3.64-7.56,5.44-18.71-2.76-15.85-3.17,1.11.71,3.44,1.38,4.19,2.24,2.5.35,6.71-1,9.14-3.62,6.51-4.93,13.34,2.68,17.55,3.38,1.87,7.95,2.33,12.55,2.4l11.7,0C663.74,82.08,668.09,81.36,667.93,79.25Z"/><path id="_Compound_Path_" data-name="&lt;Compound Path&gt;" class="cls-4" d="M780.77,33.38l-3.84-.52-1.53-.38-.12-.29,3-1.42a9.71,9.71,0,0,1,1.93,0l.35.18c.25.15.48-.21.3-.48a.29.29,0,0,0-.22-.28h0a2.52,2.52,0,0,0-.4-.35l0,0a8.82,8.82,0,0,0-1.15-.71l-.73-.3c-2.75-1.62-6-3.23-8.92-2.7-2.41.19-4.54,1.45-6.23,4.19C762,32.16,761,34.16,759.87,36a6,6,0,0,1-2,2c-2.39,1.33-4.88,2.39-7.25,3.77-1.77,1-3.36,2.57-5.12,3.61A51.9,51.9,0,0,0,736,52.45c-1.78,1.7-3.72,3.13-5.58,4.7-.9.76-2.27.88-2.4,2.76,0,.15-.24.33-.4.4-2.1,1-4.18,2-6.31,2.89a44,44,0,0,0-10,5.45,8.23,8.23,0,0,0-.88.9l.14.23,5.31-2.64.1.23-5.26,4.28.15.26,4-2.72.11.28-.4.87.14.2,3.8-2.67.14.28-2.21,2.66.23.48c.83-.53,1.65-1.07,2.49-1.58,2.16-1.31,4.25-3,6.52-3.79,2-.7,4.24-.46,6.37-.52,1,0,2.07.23,3.11.29s2.13.44,3,0c1.68-.89,3.22-.35,4.8.1.24.07.45.55.59.89a23.45,23.45,0,0,0,1.3,3.23c1.33,2.14,2.79,4.15,4.23,6.25,0,0,1.46,1.76.41,2.83s-.58.94-.37,1.07c0,0,1.58-1,2.68-.34,1.48.9,4.42-.94,5.26-.2s2.47-.13,3.31.2,1.1,1.21,1,0-2.66-1.47-2.66-1.47a6.53,6.53,0,0,1-2.93-1.46,34.69,34.69,0,0,1-3.23-4.19c-1.07-1.46-2.51-2.77-1.45-5.21,0-.11,0-.28,0-.39s.18-.47.29-.49c.68-.09,1.37-.13,2.05-.16.25,0,.53.16.75.07,1.12-.47,2.21-1.09,3.34-1.49a18.28,18.28,0,0,0,8.48-5.58c1.19-1.44,2.38-2.89,3.63-4.25a8,8,0,0,0,2.35-4.43c.2-1.45.32-2.91.45-4.37A27.32,27.32,0,0,1,775,38.4c.88-2.17,2.25-3.51,4.23-3.71a4.69,4.69,0,0,0,1.2-.49h0l.42-.2A.33.33,0,0,0,780.77,33.38ZM753.29,76.54a1.13,1.13,0,0,1,.18.8.64.64,0,0,1-.61.29,1.64,1.64,0,0,1-1-.51c-1.56-2.22-3.08-4.48-4.59-6.75a1.53,1.53,0,0,1,0-1.94,25.35,25.35,0,0,1,1.82,2C750.51,72.46,751.9,74.5,753.29,76.54Z"/><g class="cls-5"><path id="_Compound_Path_2" data-name="&lt;Compound Path&gt;" class="cls-4" d="M82.49,176.69c-2.35-2-3.4-5.12-6-6.57s-2.41-1.79-2.83-4.22c-.29-1.72-1.39-1.59-2.67-2.49a7.65,7.65,0,0,0-3.4-1.35c-1.1-.25-1.46-.34-1.84-.08a11.55,11.55,0,0,1-.37-1.2,8.71,8.71,0,0,1,0-1.76,17.34,17.34,0,0,1,.52-2.57,3.87,3.87,0,0,1,1-2.15c.37-.38,1-1.11.62-1.66.3-.23.1-.9.25-1.25.28.19.48.57.81.7,0-.46.07-1.87.77-1,0-.36.08-1.26.6-1a1.81,1.81,0,0,1,.07-.65,2.75,2.75,0,0,0,.38.25c0-.33-.12-.65-.08-1,.23,0,.41.17.64.19a3,3,0,0,0-.15-1.19,2.14,2.14,0,0,1,.8.29c0-.52-.61-1-.74-1.45.41,0,.72.33,1.1.29.08-.48-.72-1-1-1.34a1.05,1.05,0,0,1,.53.13c-.13-.15-.76-.57-.69-.81s.88-.11.9-.56-.54-.32-.56-.61.41-.31.56-.49c-.2-.08-.94-.31-.84-.57s.82,0,.89-.38c-.74-.32-.72-.33-.11-.72-.24-.15-.58-.11-.74-.36a.91.91,0,0,0,.4-.34,2.91,2.91,0,0,0-.33-.27.57.57,0,0,0,.49.2l-.5-.4c.17-.36.68-.46.94-.76-.2,0-.4,0-.58,0,.05-.07.27-.31.27-.41,0-.33-.16-.13-.21-.33s-.12-.25.05-.56c-.92.09-.23-.37.07-.61,0,0-.05,0-.11-.05a1,1,0,0,0,.08-.48,2,2,0,0,1-.89-.72c-.08-1.18.1-2.39,0-3.55a5.62,5.62,0,0,1,.07-1.94,2.09,2.09,0,0,0-.05-1.74c-.28,0-.5.31-.74.38-.2-.45.07-1.09-.11-1.39s-1-.93-1.35-.86a7.29,7.29,0,0,1-1.21,2.12c-.52.57-.6,1.34-1.11,1.9-1,1.15-1.83,1.3-2.27,2a17.43,17.43,0,0,1-1.11,2.16,14.16,14.16,0,0,0-1.07,1.13c-.2.33-.74.68-.9,1,.42.16,1.55-.44,1.94-.34s.27.6.07,1a2.49,2.49,0,0,1-.88.94c-.15.09-.36.11-.46.25s0,.37-.09.57c-.16.37-.69.5-1,.8a5.56,5.56,0,0,1-.9.76c-.77.45-1.47,1-2.27,1.38a9.54,9.54,0,0,0-2.76,2.07,4.11,4.11,0,0,1-1.17.9c-.48.24-1.74.16-2,.45l.05.05a8.13,8.13,0,0,0-4.84,1.26,17.73,17.73,0,0,1-2.08,1.61,21,21,0,0,1-2.4,1.3c-.12.05-.58.16-.64.27-.19.31.19.25.27.54s0,.24-.13.45-.19.15-.23.23,0,.27,0,.34a11.68,11.68,0,0,1-2.07,2.06,13.57,13.57,0,0,1-1.91,1.47,23.53,23.53,0,0,1-2,1.35c-1.62.84-3.13-.13-4.72-.31l-.6,0c.52.13,1.57.85.81,1,.42.2,2,.74,1.37,1.42.49.19,1-.15,1,.65a3.91,3.91,0,0,0,2.72-.17,5.9,5.9,0,0,1-.8.73l1.45-.44a1.46,1.46,0,0,1,.05.54c.56-.16,1.09-.61,1.65-.8,0,.08,0,.2,0,.29a4.79,4.79,0,0,0,1.54-.9,1.44,1.44,0,0,0-.4.53c.46-.41.89-1.06,1.51-1.23,0,.2,0,.4,0,.58,0-.53.7-.81,1.06-1.13,0,.12-.05.25-.09.37a5.17,5.17,0,0,1,1.14-1.14c.07.72-1,1.8-1.35,2.41s-.64,1.62-1.35,1.62c.28,2,.94,6.39-1.66,7.26a2.75,2.75,0,0,1,.73,1.55,3.06,3.06,0,0,0-2.53,0c-1.57.93-1.63,3.1-2.32,4.56a15.12,15.12,0,0,1-1.79,3.37,6.8,6.8,0,0,1-1.78.9,6.31,6.31,0,0,0-2.49,2.3c-1,1.43-1.68,3-2.63,4.46-.64,1-2.28,2-1.38,3.24.65.92,3.33,1.25,4.32,1.42,3.05.53,6.34.34,9.43.46a88,88,0,0,0,20.46-1.19c4.7-.9,9.1-2.06,13.11-4.68,1-.68.56,2.84,1.79,2.67a14.59,14.59,0,0,0,3.78-1.37c2.64-1.35,6.62,1.17,6.35-1.51,0,.16,2.28-1.37,2.27-1.21ZM70.54,136.16a.21.21,0,0,1,0-.11Zm-22.72,24-.06-.07v0A.74.74,0,0,0,47.83,160.12Zm-6.69,10.19a8.76,8.76,0,0,0,0-.92,2.23,2.23,0,0,1,.29-1.26,32.59,32.59,0,0,0,1.15-3.77c.08-.33-.09-1.06.11-1.33s.56-.19.7-.24a8.3,8.3,0,0,0,1.06-.46c.72-.37,3-1.18,3.28-2.16a10.71,10.71,0,0,1,0,2.21,1.51,1.51,0,0,1-.5.94c-.24.2-.57.2-.76.4a4.48,4.48,0,0,1,1.15,2.2,6.1,6.1,0,0,1-.18,2.13,7.15,7.15,0,0,0-3.38,1.31A3.74,3.74,0,0,1,41.14,170.31Zm17.25-5a10.31,10.31,0,0,0-1.65.69c-.73.46-1.11,1.34-1.76,1.79-1.41,1-2.31-.16-3.87-.49a3.62,3.62,0,0,0-2.28.31,7.59,7.59,0,0,1-.08-1.07,3.48,3.48,0,0,1,.27-1.72c.28-.52.93-.81,1.38-1.15A9,9,0,0,0,52,162.16a5.36,5.36,0,0,0,1.11-2.06,16.43,16.43,0,0,1,1-2.87,7,7,0,0,1,.85-1.76,2.84,2.84,0,0,1,1.26-.6.89.89,0,0,0,.09.15.19.19,0,0,0,.16-.05l.05-.11c.15.31-.13.54-.24.8a1.38,1.38,0,0,0,.94-.32s-.13.21-.2.28c.34,0,.74-.27,1,.05s.11.68.12.92a5.84,5.84,0,0,1,.07,1c0,.37-.27.62-.29.94.12,0,.32,0,.44-.09-.15.37-.53.68-.6,1.09.19-.05.37-.16.54-.23a1.58,1.58,0,0,1-.24.73h.19a10.67,10.67,0,0,0,.21,1.25c0,.42-.07.94,0,1.34s0,.19.34.42a2.24,2.24,0,0,1,.62.65,4.06,4.06,0,0,1,.42.65A8.42,8.42,0,0,1,58.39,165.33Zm3.13-1.82a1.75,1.75,0,0,0-.49.11,4.06,4.06,0,0,1-.39-.7,4.44,4.44,0,0,1-.19-2.28c.25-1.67.19-3.37.41-5,.16.29.52,1,.7.25.15.25.34.2.53,0,.61.74.33,1.92.32,2.91,0-.08.11-.17.15-.24a3,3,0,0,1-.19.89,6.45,6.45,0,0,1,.65-.57,1.11,1.11,0,0,0-.44.73c.16-.07.37-.27.54-.33,0,.49-.28.9-.24,1.43a1.3,1.3,0,0,1,.34-.32,3.46,3.46,0,0,1-.25.93,1.3,1.3,0,0,1,.38-.28c0,.32-.17.62-.19.94.62.29.71,1.06,1.05,1.56C63.24,164.37,63,163.41,61.52,163.52Z"/></g><path id="_Compound_Path_3" data-name="&lt;Compound Path&gt;" class="cls-4" d="M187.74,170.46a.64.64,0,0,0-.2-.43c-.39-.38-.78-.76-1.16-1.14a1.12,1.12,0,0,0-.47-.28l-.34-.1c-1.29-.35-2.56-.78-3.88-1a.73.73,0,0,1-.25-.12l-1.46-1a.65.65,0,0,1-.19-.17c-.17-.27-.35-.54-.5-.83-.31-.6-.57-1.24-.93-1.81a25.08,25.08,0,0,1-1.8-3.36l-.17-.37a4.91,4.91,0,0,1-.21-.49c-.25-.76-.48-1.52-.72-2.28-.15-.49-.28-1-.46-1.48-.42-1.11-1-2.16-1.48-3.24a1,1,0,0,1-.11-.28,9.08,9.08,0,0,1-.11-1.14c0-.73,0-1.46.07-2.19a18.31,18.31,0,0,0-.15-3.17,6.6,6.6,0,0,0-.43-1.51,1.64,1.64,0,0,1-.09-.49c0-.4,0-.8,0-1.2a7,7,0,0,0-.49-2.48,1.83,1.83,0,0,0-.15-.29,1.18,1.18,0,0,0-.62-.59.37.37,0,0,1,.17-.35c.23-.2.31-.19.58,0,.07,0,.13.12.24,0l.12-.75h0l.13.24a1,1,0,0,0,.22-.27,7.51,7.51,0,0,1,.53-.83,3.3,3.3,0,0,0,.7-2.11.53.53,0,0,1,.27-.52,1.13,1.13,0,0,0,.48-.67,3,3,0,0,0,.14-1,2.73,2.73,0,0,1,.08-.91l.33-1.08a.7.7,0,0,0,.07-.23l.09-.32a2.41,2.41,0,0,0,.09-.45.92.92,0,0,0-.54-.82,1.52,1.52,0,0,0-1.18.08l-.56.26-.29-.49.26-.23-.24-.17a9.3,9.3,0,0,1-.82-.55c-.36-.3-.69-.63-1-1a2.89,2.89,0,0,0-1-.54h0l-.08.15a1.52,1.52,0,0,0-1.07-.19,3.17,3.17,0,0,1-1.19-.05l-.6-.12a.62.62,0,0,0-.05.1,1.07,1.07,0,0,0,0,.14,2.05,2.05,0,0,0-.87-.25c0,.28-.19.35-.4.39l-.35.07a1.13,1.13,0,0,0-.24.07,5.76,5.76,0,0,0-1.3.88l-.22.23-.23-.28-.53.75-.19-.17a3.33,3.33,0,0,0-1,1.61c-.22-.16-.44-.29-.63-.45a1.56,1.56,0,0,0-.62-.28.35.35,0,0,0-.46.35,1,1,0,0,0,0,.24.3.3,0,0,0,0,.08l0,.1c.17.34.38.66.56,1l0,.08h0a3.86,3.86,0,0,1,.23,1.3.38.38,0,0,0,.08.23c0,.07,0,.15,0,.22a2.5,2.5,0,0,0,.26,1.25c.06.1,0,.18-.08.22l-.35.15-2.22,1a4,4,0,0,0-1.31.76c-.08.08-.17.14-.25.21a2.67,2.67,0,0,1-.87.45c-1.18.39-2.38.67-3.57,1a16.66,16.66,0,0,0-2.92,1c-.35.18-.71.32-1.07.48a1.59,1.59,0,0,0-.23.11,21.62,21.62,0,0,0-2,1.39,7,7,0,0,1-.89.68c-1.12.67-2.2,1.41-3.27,2.16l-1,.75a1.11,1.11,0,0,1-.33.18,8.87,8.87,0,0,0-2.22,1c-.6.37-1.21.72-1.82,1.07a1.23,1.23,0,0,1-.35.14,36.87,36.87,0,0,0-4.3,1.12,18.39,18.39,0,0,0-2.13.84,11.46,11.46,0,0,0-2.34,1.52,10.87,10.87,0,0,0-1.27,1.24,9.34,9.34,0,0,0-1.13,1.71,16.45,16.45,0,0,0-1.51,5.67c0,.4-.07.8-.07,1.19s0,.85.07,1.27a4.8,4.8,0,0,0,0,.58,10.2,10.2,0,0,0,.63,2.3c.11.25.19.53.31.78a10.17,10.17,0,0,0,1.47,2.25c.09.1.16.22.25.32s.33.39.51.56l1.52,1.44a.32.32,0,0,1-.05.07c-.29.25-.57.51-.87.74-.51.38-1,.74-1.55,1.11a1.46,1.46,0,0,0-.71,1.06,1.09,1.09,0,0,0,.23.91,3.91,3.91,0,0,0,1.06.78c1.14.57,2.28,1.13,3.41,1.71a3,3,0,0,1,1.07.87c.38.52.78,1,1.19,1.53a3.24,3.24,0,0,0,.51.45.74.74,0,0,0,.61.06.28.28,0,0,0,.19-.31,2.2,2.2,0,0,0-.07-.3c-.08-.28-.16-.55-.25-.83,0-.11,0-.16.13-.17l.11.22.66,1.43a.48.48,0,0,0,.14.2.7.7,0,0,0,.67.12c.29-.11.38-.2.4-.5a.42.42,0,0,1,0-.07,3.09,3.09,0,0,0,.42.14c.4.07.73-.18.59-.58a3.27,3.27,0,0,1-.1-.52,11,11,0,0,1-.23-1.58c0-.54,0-1.09,0-1.63a.81.81,0,0,0-.53-.82l-.33-.13c-.34-.11-.67-.24-1-.33a5,5,0,0,1-1.92-.95l-.22-.16c.27-.29.27-.28.6-.15l.14.05c.73.17,1.45.35,2.18.5a7.43,7.43,0,0,0,1.9.17c.43,0,.86-.05,1.29-.1a9.72,9.72,0,0,0,1.92-.37,15.11,15.11,0,0,0,1.41-.58,9.77,9.77,0,0,0,2.33-1.49,12.52,12.52,0,0,0,1.29-1.26c.78-.88,1.52-1.78,2.24-2.7a9.85,9.85,0,0,1,1.15-1.22,1.51,1.51,0,0,1,.47-.28,1.35,1.35,0,0,1-.12.28c-.28.52-.61,1-.84,1.57-.31.71-.57,1.45-.83,2.19a3.26,3.26,0,0,0-.06,1.93.54.54,0,0,0,.15.22,1,1,0,0,0,.44.23,1.76,1.76,0,0,0,.88,0l2.11-.45a4,4,0,0,1,.93-.12,12.1,12.1,0,0,1,1.44.17,17,17,0,0,0,2.17.24,2.69,2.69,0,0,0,1.45-.41.38.38,0,0,0,.05-.65,1.87,1.87,0,0,0-.54-.2c-.32-.07-.66-.09-1-.17a7.56,7.56,0,0,1-.89-.29.17.17,0,0,1,0-.32.65.65,0,0,1,.23-.1,7.82,7.82,0,0,1,.78-.11l2-.11a.89.89,0,0,1,.69.25c.52.48,1,.94,1.58,1.4a1.16,1.16,0,0,0,.84.29.44.44,0,0,0,.43-.66,4.58,4.58,0,0,1-.19-.49.65.65,0,0,0,.38-1,16.13,16.13,0,0,0-1.87-2.12,1.15,1.15,0,0,0-.68-.32,2.68,2.68,0,0,0-1,.11c-.93.28-1.88.46-2.82.67a1.15,1.15,0,0,1-.28,0c-.23,0-.31-.12-.23-.33s.19-.49.28-.74a7.86,7.86,0,0,1,1.33-2.28,16.15,16.15,0,0,0,1.28-1.74,6.17,6.17,0,0,1,1-1.24,2,2,0,0,0,.51-.8,3.42,3.42,0,0,0,.09-.35l.11.09a10.51,10.51,0,0,1,1.12,1.14c.22.28.45.55.69.82a7.06,7.06,0,0,1,1.15,1.79c.17.38.39.74.58,1.11a1.81,1.81,0,0,0,.77.79.54.54,0,0,1,.26.27l.4.93.12.25.16-.12.29.58a2.15,2.15,0,0,0,1,1,8.78,8.78,0,0,0,1.14.42c.73.22,1.46.43,2.2.63a.46.46,0,0,1,.36.31,10.73,10.73,0,0,0,.86,1.75,1,1,0,0,0,.63.51.4.4,0,0,0,.54-.41,1.68,1.68,0,0,0-.06-.45c-.15-.53-.31-1.06-.46-1.59,0-.08,0-.16-.06-.24l.06,0a2,2,0,0,1,.14.24c.28.68.55,1.37.83,2.05a1.39,1.39,0,0,0,.26.4.72.72,0,0,0,1.07-.07.36.36,0,0,1,.31-.17.34.34,0,0,0,.36-.3,2.77,2.77,0,0,0,.06-.5.46.46,0,0,1,.1-.35.7.7,0,0,0,.17-.36,3,3,0,0,0,0-.71c-.1-.69-.22-1.37-.34-2.06a1,1,0,0,0-.1-.26A1.16,1.16,0,0,0,173,166c-1.45-.6-2.87-1.26-4.29-1.94a2.35,2.35,0,0,1-.31-.18l-1.17-.82a1.07,1.07,0,0,1-.21-.18,8.49,8.49,0,0,1-.94-1.45,20.38,20.38,0,0,1-1.09-2.57c-.6-1.65-1.17-3.31-1.88-4.92-.05-.12-.11-.25-.18-.37l-1.18-2.17c0-.06-.05-.12-.09-.2.37-.19.73-.4,1.1-.55a25.38,25.38,0,0,0,3-1.5A1.22,1.22,0,0,1,166,149l.08.21c.31.9.61,1.8.83,2.72a3.41,3.41,0,0,1,.1.5c0,.54.09,1.08.12,1.62a2.7,2.7,0,0,1-.15,1.18,2.31,2.31,0,0,0-.09.27.72.72,0,0,0,0,.16c.28-.1.42-.34.71-.46v.91l.44-.09.29,1.23a3.53,3.53,0,0,0,.53,1.15s.06,0,.11.07c.1-.2,0-.44.17-.61.11.19.21.37.31.54a10,10,0,0,0,1.62,2.21,1.75,1.75,0,0,1,.18.21c.44.57.88,1.15,1.33,1.71a32,32,0,0,1,2.06,2.87c.63,1,1.27,1.93,1.9,2.89a1.16,1.16,0,0,1,.29,1.08,9.6,9.6,0,0,0,0,1.35.88.88,0,0,0,.3.69,2,2,0,0,0,.24.19l2.43,1.5a6.73,6.73,0,0,1,.91.65,1.76,1.76,0,0,0,.9.36c.39.08.68-.42.61-.69a1.84,1.84,0,0,0-.31-.63,3.62,3.62,0,0,0-.62-.6,8,8,0,0,0-.76-.51,1,1,0,0,1-.39-.42c.08,0,.14-.1.21-.11a1.38,1.38,0,0,1,.43,0l2.52.6a1.09,1.09,0,0,1,.3.14c.43.26.85.54,1.28.79.27.16.56.29.84.43a1,1,0,0,0,.57.07.4.4,0,0,0,.32-.66l-.16-.25a3.37,3.37,0,0,0,.53.16c.43.05.76-.16.71-.59a.19.19,0,0,1,.05-.15.9.9,0,0,0,.3-.39v-.2a1.38,1.38,0,0,0-.26-.45A.29.29,0,0,1,187.74,170.46Zm-54.66-6a14.14,14.14,0,0,0-1.65,1.83c-.32.46-.67.9-1,1.35l-.18.22c-.33-.3-.68-.56-1-.88s-.82-.95-1.23-1.43l-.1-.12a10,10,0,0,1-1.19-2.55,7.73,7.73,0,0,1-.18-1,12,12,0,0,1,0-2.94,20,20,0,0,1,.58-3.1c.07-.29.22-.57.32-.86a12.8,12.8,0,0,1,1-2,.65.65,0,0,1,.11-.14l1.07-1.06a1.08,1.08,0,0,1,.23-.16l1.53-.85a1.76,1.76,0,0,1,.35-.14c.45-.13.89-.27,1.35-.38s.87-.13,1.3-.22a5.54,5.54,0,0,1,1.52.07,1.78,1.78,0,0,1-.34.7l-.3.32a.9.9,0,0,0-.08.15c.26,0,.4-.21.65-.26a6.46,6.46,0,0,0-.51,1.49c.28-.14.36-.4.59-.55a2.67,2.67,0,0,0-.16,1.15l.28,0,0,.9.4-.06-.3,1.75.05,0,.25-.12a6.11,6.11,0,0,1,0,.78c0,.25.06.5.1.75.2,0,.21-.18.35-.22a4.51,4.51,0,0,1,0,1.38l.38-.08-.31.67c.24,0,.35-.18.56-.21,0,.1.06.2.08.3a6.1,6.1,0,0,1,.19,1.43,1.44,1.44,0,0,1-.34.88,3.73,3.73,0,0,1-1,.89c-.58.34-1.13.71-1.71,1.06a14.74,14.74,0,0,0-1.47,1Zm18.4-3.87-.87,1.58a.38.38,0,0,1-.27.21c-.36.09-.72.2-1.08.3l-.17.06a8.27,8.27,0,0,0-2,1.32,1.54,1.54,0,0,0-.17.19l-2.17,2.63c-.13.16-.27.3-.42.44l-.35.33a15.76,15.76,0,0,1-2.32,1.86,6.71,6.71,0,0,1-1.24.63,7.55,7.55,0,0,1-2.12.49,14.32,14.32,0,0,1-2.19,0,7.37,7.37,0,0,1-1.61-.36l-.14-.06s0-.06,0-.08a12.41,12.41,0,0,1,1.28-1,50.76,50.76,0,0,1,5.28-2.86l1-.44a2.51,2.51,0,0,0,1-.74,2.78,2.78,0,0,0,.47-1c.26-.88.53-1.75.75-2.64.13-.51.19-1,.27-1.55.18-1.14.24-2.29.31-3.45,0,0,0-.08,0-.15l.14.13a2.39,2.39,0,0,1,.67,1.61,1.36,1.36,0,0,0,.06.24l.31-.41.18.22c.14.15.27.3.42.45s.15.13.31,0l.12-.11.2.11a10,10,0,0,0,1.28.62,1.88,1.88,0,0,0,1,.13l.63-.08h.12c-.09.14-.27.15-.35.33a2.64,2.64,0,0,0,.4,0,2.28,2.28,0,0,1,.9.09.47.47,0,0,1,.36.39A.78.78,0,0,1,151.48,160.56Z"/><g id="_Group_2" data-name="&lt;Group&gt;"><path id="_Path_9" data-name="&lt;Path&gt;" class="cls-4" d="M240.06,181.41l.54-3.8a1,1,0,0,0,1-.52c.33-.63.87-1.72,1.5-2.9a26.37,26.37,0,0,1-6.31-4.87c.45,5,1.78,7.22,2.94,8l.15,4.34v0l0,.66L240,182Z"/><path id="_Path_10" data-name="&lt;Path&gt;" class="cls-4" d="M244.37,173a13.9,13.9,0,0,1,1.06-1.44c.31-.36.74-.8,1.25-1.29-5.37-4.6-7.27-9.12-7.8-12.59a12.06,12.06,0,0,0-2.6,7.26C237.38,167.4,239.69,170.37,244.37,173Z"/><path id="_Path_11" data-name="&lt;Path&gt;" class="cls-4" d="M260.39,159.33a8,8,0,0,1,1.08-2.1,19.27,19.27,0,0,0-5.12-3.79c-.33-2.19-.39-6.24.91-8.69,2.51-4.78,4.8-7.63,6-9.78.49-.87,1.18-2.36,1.87-3.75,1.3-2.75,3.34-5.94,2.41-7.38-.56-.83-2.19-1.34-4.34-1a10.78,10.78,0,0,0-8.47,7c-1.09,0-5.09.51-6.76,6.15-.08.31-.16.65-.23,1-.85,3.16-.2,7.33.85,11.06a9.34,9.34,0,0,1-.77-2.31c-1-5.31-1-9-1.39-11.36-.17-1-.54-2.56-.86-4.09-.68-3-1.06-6.76-2.68-7.3-1-.29-2.55.31-4,1.85a10.83,10.83,0,0,0-2.32,10.72c-.86.67-3.7,3.56-1.5,9,.12.3.27.61.44.94,1.57,3.67,5.8,7.12,9.54,9.53a13.84,13.84,0,0,0-4,1.24c0,2.77,1,7.56,6.93,12.64a14.42,14.42,0,0,0,2.22-3.17c-1-1.4-1.61-3.58-1.23-6.92a12.39,12.39,0,0,0,.06-1.42v0h0c0-.26,0-.53,0-.81a5.33,5.33,0,0,1,.34-1.73,2.43,2.43,0,0,1,1.34-.94c-1.54,1.37-1,3.14-1.17,5-.25,2.16-.42,8.35,5.26,8.88,4.43.42,5.58-1.31,6-2.67A7.13,7.13,0,0,1,260.39,159.33Z"/><path id="_Path_12" data-name="&lt;Path&gt;" class="cls-4" d="M271.62,164.06c.82-1.7,1.55-4.51-.52-6.48a5.54,5.54,0,0,0-.54-.45,7.63,7.63,0,0,1,3.57-2.14.93.93,0,1,0,.55-1.4.92.92,0,0,0-.67.72,8.16,8.16,0,0,0-4,2.43,8.47,8.47,0,0,0-1.09-.55,7.53,7.53,0,0,1,2.82-2.82.92.92,0,0,0,1.08.13.94.94,0,1,0-1.38-.77,8.21,8.21,0,0,0-3.18,3.22c-2.6-.84-5.9-.52-7.3,3.58-2.05,6,4.29,11,10.11,8.19A7.46,7.46,0,0,1,271.62,164.06Z"/></g><path id="_Path_13" data-name="&lt;Path&gt;" class="cls-4" d="M385.32,150.83a16.67,16.67,0,0,0-1.25-1.69,4.7,4.7,0,0,1-1.11-1.83,7.77,7.77,0,0,0-3.27-4.39,11.77,11.77,0,0,0-1.13-.57l-.91-.43a7,7,0,0,1-1.28-.7,3.17,3.17,0,0,1-.7-1c-.48-.89-.92-1.81-1.38-2.7-.24-.46-.53-.54-.9-.17A10,10,0,0,0,372,139a2.29,2.29,0,0,0-.34,1.75c.08.34,0,.54-.41.64a3.72,3.72,0,0,0-2.35,1.2c-.3.4-.7.73-1,1.14a10,10,0,0,1-1.66,2.12,2.38,2.38,0,0,1-3.15.2,7.15,7.15,0,0,0-3.1-1.5c-1.24-.26-2.49-.43-3.73-.64l-.87-.17.18.27a2.4,2.4,0,0,1-.45.11c-.84,0-1.69,0-2.52,0-.53.05-1.21,0-1.38.79,0,.06-.11.11-.18.14a7.11,7.11,0,0,0-2.65,1.54l-2.14,1.92c.46.15.39.34.16.59s-.43.52-.64.79l-.57.76c-.51-.54.13-.73.18-1.08-.43-.36-.44-.47-.07-1,.25-.34.5-.7.74-1.05a.58.58,0,0,0,0-.81c-.07-.08-.05-.29,0-.43a2,2,0,0,1,.23-.41c.18-.31.21-.58-.19-.76s-.33-.29-.19-.57a5.82,5.82,0,0,0,.41-1,1.49,1.49,0,0,0,0-.57,2.55,2.55,0,0,1-.09-.51c0-.45.11-.91.17-1.38H346c-.63,0-.65,0-.62-.65,0-.44.11-.88.14-1.32,0-.1-.1-.3-.15-.3-.37,0-.32-.26-.36-.49s-.09-.34-.19-.39a.66.66,0,0,1-.42-.55c0-.26,0-.69-.49-.65s-.42-.14-.45-.46c-.07-.61-.21-1.2-.34-1.87-.29.31-.41.15-.51,0-.22-.34-.42-.7-.64-1-.12-.19-.26-.25-.49-.08a.49.49,0,0,1-.47,0,7.82,7.82,0,0,0-1.37-1.37,1.32,1.32,0,0,1-.13-.15,2.19,2.19,0,0,0-.41-.41c-.64-.37-1.29-.72-1.91-1.07a1.63,1.63,0,0,1-.22.31s-.17,0-.22-.1a5.21,5.21,0,0,0-1.74-1.17,1.39,1.39,0,0,1-.1.45c0,.06-.22.06-.32,0-.66-.21-1.32-.43-2-.66a1.62,1.62,0,0,1,0,.42c0,.08-.14.19-.2.18-.43-.07-.86-.17-1.29-.25l-1.34-.26c.08.6-.06.68-.57.64-.68-.05-1.36,0-2.08,0,.12.56-.27.54-.61.56.1.48,0,.57-.43.53-.22,0-.43-.06-.67-.1.24.49.19.63-.3.75s-1.14.24-1.71.38c-.14,0-.37.21-.36.29.05.46-.24.51-.56.58a2.6,2.6,0,0,0-.4.15.26.26,0,0,0-.17.4c.16.4.08.56-.32.74s-.7.27-1,.45c-.14.08-.22.26-.33.4a1.54,1.54,0,0,1-.25.33c-.44.32-.88.62-1.35,1,.11.1.2.19.3.27.38.28.39.38,0,.69s-.65.54-1,.81c-.16.14-.26.29,0,.47.06,0,0,.32-.06.41a.39.39,0,0,0-.05.52.65.65,0,0,1,0,.51,5.21,5.21,0,0,1-.5.74l-.78,1.1.07.07.94-.17.11.09-1,2a1.63,1.63,0,0,1,.35-.09c.09,0,.22,0,.27.07a.32.32,0,0,1,0,.28,3.46,3.46,0,0,0-.24,2,2.57,2.57,0,0,1,.21-.38,1.57,1.57,0,0,1,.28-.22,1.28,1.28,0,0,1,.12.37c0,.79,0,1.57,0,2.34a1.59,1.59,0,0,1,1.08.82c.18.33.34.67.54,1,.08.13.25.31.36.3.41,0,.53.29.58.54.1.52.35.45.72.33.53-.18.71-.09,1,.39l.2.34a3.56,3.56,0,0,1,.28-.34c.43-.42.67-.39,1,.11.18.28.37.55.59.87.21-.44.38-.8.57-1.15a2.21,2.21,0,0,1,.27-.34,1.72,1.72,0,0,1,.34.39c.14.32.23.66.37,1.07.1-.27.17-.46.23-.66s.26-.37.52-.14l.64.57,1.14-1.24c.2-.21.37-.21.55,0s.26.29.44.49a2.21,2.21,0,0,1,.08-.53c.11-.24.24-.63.41-.66s.17.32.22.52c0,0,0,0,0,.05.41-.2.51-.16.57.27a8.61,8.61,0,0,1,.09,1.05c0,.59-.13.68-.68.5a3.83,3.83,0,0,0-.1.57c0,.3,0,.6,0,.9a1.58,1.58,0,0,1-.06.43,4.3,4.3,0,0,0-.27.91c0,.32-.08.51-.37.52a12,12,0,0,0,.07,1.24,3.42,3.42,0,0,0,1.44,2.07.6.6,0,0,1,.17.46c0,.08-.23.19-.36.2-.32,0-.64,0-1,0l1.09,1.13-.36-.09,0,.06.31.13a.34.34,0,0,1-.29,0l-.39-.13c.08.18.12.29.17.38a2.94,2.94,0,0,0,1.48,1.34c.19.08.35.25.13.4s-.13.35-.05.53.2.3.16.39-.25.16-.42.25c.24.26.5.52.74.8a.77.77,0,0,1,.23.38c0,.15-.11.3-.2.5l1.44,1.31a2.3,2.3,0,0,1,.21.25c-.09.07-.17.14-.26.2a.79.79,0,0,1-.16.07c.21.23.41.48.64.69s.76.67,1.12,1c.08.07.08.23.13.37s.34.16.53.28a2.85,2.85,0,0,0,2,.7c.28,0,.3.17.27.36s-.14.52-.22.82c.25.06.49.09.72.17a1.13,1.13,0,0,1,.29.22,1.88,1.88,0,0,1-.21.24,4.24,4.24,0,0,1-.35.24l1.43.26c.3.06.34.26.32.53a.56.56,0,0,0,.17.45,3.31,3.31,0,0,0,.77.25l.55.12-.35.52a.1.1,0,0,0,0,0,8.77,8.77,0,0,1,1.28-.11c.37,0,.77.07.93.53.08.25.27.16.46.13a1.32,1.32,0,0,1,.65,0c.11,0,.15.29.19.38.55-.12,1.07-.27,1.61-.34.25,0,.66,0,.67.31s.25.33.46.32a3.94,3.94,0,0,0,.49-.13c.29-.06.47,0,.43.39l.44-.18c.81-.27,1.64-.5,2.43-.81a1.4,1.4,0,0,1,.93-.19,6.84,6.84,0,0,0,1.45.4,12.83,12.83,0,0,0,2.63-.1,13.05,13.05,0,0,0,2.39-.71,1.45,1.45,0,0,1,1.65.29,1,1,0,0,0,.58.31c.93,0,1.87,0,2.8-.05.73,0,1.46-.15,2.19-.13s1.72.15,2.58.19a.73.73,0,0,0,.59-.27.92.92,0,0,0-.1-.68,2.49,2.49,0,0,0-1.4-1,2.79,2.79,0,0,1-.34-.21,1.69,1.69,0,0,1,.25-.37c.65-.56,1.36-1.07,2-1.68a4.41,4.41,0,0,0,1.57-3.53,11.46,11.46,0,0,0-.36-2.19,2.49,2.49,0,0,0-.94-1.53c-.25-.17-.06-.3.13-.38.7-.32,1.42-.59,2.08-1a11,11,0,0,0,2-1.33.8.8,0,0,1,1.07-.16,7.89,7.89,0,0,0,1.46.62,4.77,4.77,0,0,0,3.47-.6,16.43,16.43,0,0,0,5.46-4.76,1.09,1.09,0,0,1-.22-.3.76.76,0,0,0-1.07-.53,4.1,4.1,0,0,1-.83.19.46.46,0,0,1-.36-.14c0-.05.06-.22.13-.46a9.65,9.65,0,0,0-1.64.82,4.93,4.93,0,0,1-1.93,1,.85.85,0,0,1-1-.29c-.1-.12-.19-.25-.3-.36s-.23-.42.1-.54.67-.21,1-.33a4,4,0,0,0,2.44-1.76,2,2,0,0,1,1.77-1,2,2,0,0,0,1.87-1.13,7.67,7.67,0,0,1,.41-.68.33.33,0,0,0,0-.26C385.5,151,385.39,150.92,385.32,150.83Z"/><path id="_Path_14" data-name="&lt;Path&gt;" class="cls-4" d="M483.81,134.83h-4a3.23,3.23,0,0,1-2.59-1.56l-.11-.2a3.23,3.23,0,0,0-2.59-1.56h-4.14a5.57,5.57,0,0,0-3.11,1.15l-8.78,7.51a5.57,5.57,0,0,1-3.11,1.15h-14a21.79,21.79,0,0,0-9.38,1.92,6.72,6.72,0,0,1-3.36.3s-6-.9-13.73-8.06c0,0,3,8,9.08,13.1,1.21,1,1.37,1.34,1,2.24l-4.7,11.7a6.78,6.78,0,0,0-.28,3.37l1.83,8.38A2.3,2.3,0,0,0,424,176h3.77a1.75,1.75,0,0,0,1.77-1.71,2.25,2.25,0,0,0-1.71-2.08,2.6,2.6,0,0,1-1.9-2.13l-.18-1.75a4,4,0,0,1,1.11-3l5.85-5.45c.71-.66,1.13-.43.92.52l-.95,4.41a5.5,5.5,0,0,0,.48,3.28l3.29,6a3.2,3.2,0,0,0,2.62,1.5l3.87-.1c1,0,1.54-.69,1.26-1.48a2.45,2.45,0,0,0-1.94-1.53,2.77,2.77,0,0,1-2.07-1.74l-1.31-3.37a4.69,4.69,0,0,1,.12-3.24l1.8-3.75a3.11,3.11,0,0,1,2.53-1.61l9.14-.07a1.16,1.16,0,0,1,1.18,1.65l-4.93,14a1.12,1.12,0,0,0,1.18,1.6l6.27-.24c1,0,1.5-.67,1.17-1.41a4.46,4.46,0,0,0-2-1.94,1.23,1.23,0,0,1-.31-2l2.27-2.94a1.18,1.18,0,0,1,2,.09l4.55,7a3.64,3.64,0,0,0,2.73,1.48h4.14a1,1,0,0,0,1-1.57l-.43-.83a3,3,0,0,0-2.38-1.57,2.18,2.18,0,0,1-1.95-1.73l-2.12-9.86a4.48,4.48,0,0,1,.68-3.15l9.74-13.18a4.67,4.67,0,0,1,2.81-1.62l2-.23a5.31,5.31,0,0,0,2.93-1.53l1.41-1.6a5,5,0,0,0,1.17-2.81A1.65,1.65,0,0,0,483.81,134.83Z"/><path id="_Path_15" data-name="&lt;Path&gt;" class="cls-4" d="M520.55,157.9s-.09.15,0,.24a.18.18,0,0,0,.14.06.33.33,0,0,0,.14-.06l.37-.24-.24.63a.25.25,0,0,0,0,.24c.06.08.17.08.29,0l.66-.51.06,0a.79.79,0,0,1-.1.28l-.32.54a.32.32,0,0,0,0,.32.15.15,0,0,0,.09.07.19.19,0,0,1,0,.06,1.73,1.73,0,0,1-.23.34c-.17.2-.22.27-.17.36s.19.09.24.1a.49.49,0,0,0,.26-.14l.1-.08c.1-.06.12,0,.13,0a.15.15,0,0,0,.12.05.6.6,0,0,0,.21-.1l0,0,.1,0a1.56,1.56,0,0,1-.31.19l-.23.13c-.14.1-.13.2-.11.24s.06.15.27.09l.13,0,.09,0,0,0a.14.14,0,0,0,.11,0h0s.09,0,.21-.16a1.13,1.13,0,0,1,.19-.19l0,0a4.81,4.81,0,0,1-.27.44,3.38,3.38,0,0,0-.45.83.37.37,0,0,0,0,.34.16.16,0,0,0,.15.06,1,1,0,0,0,.38-.18l.1-.08a.93.93,0,0,1,.51-.25h.07l0,0-.08,0-.17.07c-.06,0-.14.05-.13.15a.13.13,0,0,0,.14.12l-.08.12-.16.23c-.05.08-.11.19-.06.28a.17.17,0,0,0,.18.06l0,.11a.25.25,0,0,0,0,.22.15.15,0,0,0,.22,0,1,1,0,0,0,.13-.22l.08-.14,0,0a.59.59,0,0,1,.34-.18l.3,0,0,0c-.24.16-.28.25-.3.31a.17.17,0,0,0,0,.15.34.34,0,0,0,.25.08l-.22.09-.12,0c-.07,0-.21.09-.18.21l0,0,0,0c-.09,0-.16.07-.15.17s.15.11.2.11l.13,0,0,0-.16.12c-.16.13-.2.24-.18.33a.65.65,0,0,1-.14.12c-.23.16-.27.19-.26.27a.13.13,0,0,0,.14.11,1.45,1.45,0,0,0,.27-.1l.18-.07h.16a.62.62,0,0,0,.29,0l.24-.09-.2.17c-.23.2-.24.23-.23.29a.13.13,0,0,0,.14.11,1.47,1.47,0,0,0,.27-.09l.6-.26h0a1.58,1.58,0,0,1-.56.5l-.29.2s-.15.12-.11.23.12.12.28,0l.21-.1,0,.06-.21.31s-.1.15,0,.24a.17.17,0,0,0,.14.07.34.34,0,0,0,.14-.06l.18-.11,0,0,0,0s-.12.14-.07.23a.16.16,0,0,0,.14.07.34.34,0,0,0,.15-.06l.53-.35a1.29,1.29,0,0,1-.15.28s-.1.15,0,.24a.18.18,0,0,0,.14.07.33.33,0,0,0,.14-.06l0,0a.17.17,0,0,0,0,.11.18.18,0,0,0,.12,0,.28.28,0,0,0,.19-.15,1.89,1.89,0,0,1,.14-.2l0,0c0,.18,0,.32.17.31a.13.13,0,0,0,.11-.08c0,.27,0,.29,0,.33a.12.12,0,0,0,.1,0,.17.17,0,0,0,.1-.06l.08-.07a.14.14,0,0,0,0,.08.17.17,0,0,0,.12,0,.48.48,0,0,0,.21-.1l.08,0a.06.06,0,0,1,0,.08v0c-.05.27-.05.31,0,.36a.12.12,0,0,0,.1,0s.06,0,.18-.13v.08a.21.21,0,0,0,.36.15s0,0,.05.07a.75.75,0,0,1,0,.27c0,.12,0,.2.06.25a.17.17,0,0,0,.11,0,.2.2,0,0,0,.11-.06l0,0,.05.11,0,0a.6.6,0,0,1,.1.28.3.3,0,0,0,.22.3l0,0a.48.48,0,0,1,.07.16v0c.05.14.16.29.3.28h0c.06.09.18.07.34,0v.08c-.06.28,0,.31,0,.36s.22,0,.22-.11a2.15,2.15,0,0,1,.1-.22l.06-.12c0,.07,0,.15-.05.22a3,3,0,0,0-.08.42c0,.1,0,.29,0,.35a.12.12,0,0,0,.1,0,.14.14,0,0,0,.12-.17l0-.11,0-.21a2.52,2.52,0,0,1,.1-.35l0-.05,0,.08a3.19,3.19,0,0,1,0,1c0,.05,0,.32.07.41a.69.69,0,0,0,.4.12h.4a.5.5,0,0,0,.33-.15l.13,0a2.71,2.71,0,0,0,1.37.31.39.39,0,0,0,.36-.26l.15,0,.15,0,.22,0c.29.08.54.12.65,0a.37.37,0,0,0,.06-.28.34.34,0,0,1,.12-.27.78.78,0,0,0,.19-.26l0,0,.3.32a.55.55,0,0,0,.4.2h0c.15-.05.2-.28.16-.46a2.29,2.29,0,0,0-1.59-1.72,1.72,1.72,0,0,0-.55-.07H533a.57.57,0,0,1-.37-.11l0,0-.11-.12s-.1-.11,0-.18a5.42,5.42,0,0,1,1.09-.93.19.19,0,0,1,.11,0,.3.3,0,0,0,.24-.06l.17-.15c.19,0,1-.08,1.19-.08a1.52,1.52,0,0,0,.32,0c1-.11,4.79-.54,7.54-.86l2.79-.32a.47.47,0,0,0,.37.1,1.39,1.39,0,0,0,.65-.31h0s0,0,0,0c0,1,.12,1.17.2,1.23l.08.23a7.25,7.25,0,0,0,.36.87l.3.43a1.45,1.45,0,0,1,.19.42l0,.09c0,.08,0,.21.17.2a.11.11,0,0,0,.09-.06,3.34,3.34,0,0,0,.37.71c.08.11.22.25.31.2h0l0,.23c0,.24.07.36.2.35s.12-.07.12-.18c.06.21.13.45.19.73s.1.34.21.33l.06,0,0,0a1.32,1.32,0,0,0,0,.22.54.54,0,0,0,.08.35.13.13,0,0,0,.1,0c.09,0,.11-.1.12-.16a1.62,1.62,0,0,1,0-.18l0-.07h0v.21c0,.31,0,.34.06.37a.13.13,0,0,0,.09,0l.1,0,.17-.06h0l.05,0a.05.05,0,0,1,0,.05l-.05.11c-.05.1-.09.19,0,.26a.15.15,0,0,0,.19,0v0a.51.51,0,0,1,0,.13.33.33,0,0,0,.06.29.28.28,0,0,0,.24.09h0l.13,0,.16,0a.18.18,0,0,0,0,.14.19.19,0,0,0,.17.06h0a.22.22,0,0,1,0,.09.32.32,0,0,0,.07.26.18.18,0,0,0,.24,0,.25.25,0,0,0,.39.1s0,.06.06.13,0,.17,0,.25a2.64,2.64,0,0,0,.12.59.28.28,0,0,0,.35.19l0,.06a2,2,0,0,0,1.64,1.16,1,1,0,0,0,.63-.17.58.58,0,0,1,.19-.09h0a1.16,1.16,0,0,1,.52.1,1.38,1.38,0,0,0,.6.12.79.79,0,0,0,.36-.13.26.26,0,0,1,.11,0,.38.38,0,0,0,.34.2h0c.17,0,.19-.28.19-.38v-.07h.15a.67.67,0,0,0,.56-.38l0-.06a.15.15,0,0,1,.11-.06.11.11,0,0,1,.08,0l.12.11.06.06c.11.11.33.22.41.11s.08-.1-.07-.4l-.14-.29c.18.08.37,0,.39-.12a.77.77,0,0,0-.15-.43,1.46,1.46,0,0,0-.93-.61,1.65,1.65,0,0,1-.38-.14H558s.14,0,.18-.11a.16.16,0,0,0,0-.14.81.81,0,0,0-.38-.14l-.14,0c-.7-.1-1.36-.2-1.65-.74a.05.05,0,0,1,0,0l.18.08h0a.82.82,0,0,0,.37,0l.17,0a.9.9,0,0,1,.38,0,2.5,2.5,0,0,0,.57.07,2.44,2.44,0,0,0,1.83-1.08.77.77,0,0,0,.12-.59.86.86,0,0,0-.08-.16.6.6,0,0,0-.51-.27l-.08,0a.23.23,0,0,1-.24-.07l-.13-.14a1.12,1.12,0,0,1-.23-.3h.06a.22.22,0,0,0,.1,0,.18.18,0,0,0,0-.12,1.87,1.87,0,0,0-.11-.34,3.53,3.53,0,0,1-.23-1.36.13.13,0,0,0,.16,0,.13.13,0,0,0,0-.09l.09-.21.06-.13c0,.22,0,.25,0,.29a.12.12,0,0,0,.1,0,.15.15,0,0,0,.12-.17l0-.08.11.1.17.17a4.21,4.21,0,0,0,.33.31.26.26,0,0,0,.19.07.18.18,0,0,0,.12-.08.23.23,0,0,0,0-.23l-.18-.26a3,3,0,0,1-.3-.48h0l.08.06.17.12c.08.06.13.08.18.07a.13.13,0,0,0,.11-.17c.1.06.2,0,.23,0a.14.14,0,0,0,0-.1l.12.09c.08.06.12.09.18.08a.13.13,0,0,0,.1-.08.14.14,0,0,0,0-.13l.12.12a3.18,3.18,0,0,0,.38.33c.13.09.26.07.32,0a.24.24,0,0,0,0-.23,2.59,2.59,0,0,0-.23-.33,1.08,1.08,0,0,1-.11-.17,1.34,1.34,0,0,1,.78.24c.14.08.18.09.22.08a.13.13,0,0,0,.11-.08.14.14,0,0,0-.05-.15l-.1-.09-.2-.2a1.43,1.43,0,0,1,1.18.74s.09.15.2.14a.15.15,0,0,0,.09-.05.25.25,0,0,0,0-.2l-.07-.48a1.41,1.41,0,0,0,.27.22.21.21,0,0,0,.31,0,.26.26,0,0,0,0-.24l-.09-.19.1-.06-.08.09a.32.32,0,0,0,.23.1.16.16,0,0,0,.14-.13l.05,0a1.35,1.35,0,0,1,.12.16c.05.08.1.14.19.13a.13.13,0,0,0,.1-.06c0-.06,0-.12,0-.21l0-.06,0-.08a.42.42,0,0,1,.19.09.74.74,0,0,1,.16.45,3,3,0,0,0,.06.33s.05.2.18.19.14-.05.13-.24a6.81,6.81,0,0,1,0-.93.06.06,0,0,1,0,0l0,0,.15.11a2.85,2.85,0,0,1,.34.31.21.21,0,0,0,.17.1.13.13,0,0,0,.1-.07c0-.06,0-.13,0-.23l0-.09.19.18.13.13a.24.24,0,0,0,.19.09.14.14,0,0,0,.11-.08.23.23,0,0,0-.07-.22l0,0a.93.93,0,0,1-.26-.5.23.23,0,0,1,0-.06.14.14,0,0,0,.11-.05c0-.06,0-.12,0-.22h0l.12.15a2.08,2.08,0,0,0,.26.29.24.24,0,0,0,.19.09.14.14,0,0,0,.11-.08.23.23,0,0,0-.06-.22l-.29-.4v0a.41.41,0,0,1,.14.08l.09.09.11.16c0,.06.07.12.15.11a.12.12,0,0,0,.08,0s0-.06,0-.35l0-.18.1.07a.28.28,0,0,0,.18.06.18.18,0,0,0,.12-.08.24.24,0,0,0,0-.22c.22.09.44.17.68.24a1.23,1.23,0,0,0,.29.05.13.13,0,0,0,.08,0,.13.13,0,0,0,0-.09s0-.06-.17-.29a2.39,2.39,0,0,1-.2-.3h0l.73.23.09,0c.15,0,.25,0,.28-.09s0-.15-.11-.22l-.17-.12-.16-.12c.24.06.46.1.7.14l.18,0a.76.76,0,0,0,.21,0,.14.14,0,0,0,.12-.1.14.14,0,0,0,0-.12.16.16,0,0,0,0-.07c0-.08-.08-.11-.16-.15l0,0h.6a.35.35,0,0,1,.24.1.61.61,0,0,0,.43.23l.39,0,.37,0a4.49,4.49,0,0,0,.53,0h.44a1,1,0,0,1,.43.1l.19.1a1.48,1.48,0,0,0,.54.16H574a2.38,2.38,0,0,1,.39,0l.9.16c.18,0,.18.06.18.08s0,.19.06.24a.16.16,0,0,0,.11,0,.22.22,0,0,0,.11-.06.42.42,0,0,1,.28,0l.28.08a.36.36,0,0,1,.12.06.15.15,0,0,0,0,.12.18.18,0,0,0,.14.05.34.34,0,0,0,.15-.06.43.43,0,0,1,.28,0,.19.19,0,0,1,.12.08.17.17,0,0,0,0,.16.14.14,0,0,0,.11,0,.18.18,0,0,0,.12-.09h.19l.77.21a3.27,3.27,0,0,0,.53.09l.89.06a1.41,1.41,0,0,1,.44.12l.4.2a5.1,5.1,0,0,0,3.06.81,5.4,5.4,0,0,0,1.17-.27,1,1,0,0,0,.4-.34,1.41,1.41,0,0,1,.21-.19,2,2,0,0,0,.21-.19.83.83,0,0,0,.15-.57l-.07-.83a1.67,1.67,0,0,0-.15-.54,7.34,7.34,0,0,0-1-1.4,9,9,0,0,1-.82-1,3.08,3.08,0,0,1-.44-1,.22.22,0,0,1,.05-.15.17.17,0,0,0,0-.1c0-.07-.06-.11-.19-.16a.07.07,0,0,1,0-.06.27.27,0,0,0,0-.24.15.15,0,0,0-.06-.05.16.16,0,0,0,0-.12.18.18,0,0,0-.11-.14.28.28,0,0,0-.06-.34s0-.06,0-.08a.17.17,0,0,0,.06-.2.15.15,0,0,0-.09-.07v0a.35.35,0,0,0-.12-.38.43.43,0,0,1-.06-.22,11.44,11.44,0,0,1,.27-2.6c.05-.24,0-.3,0-.33a.17.17,0,0,0-.09,0,.91.91,0,0,1,.08-.24,5,5,0,0,1,.31-.52l.18-.28a.23.23,0,0,0,0-.24c0-.07-.14-.09-.25,0a2,2,0,0,1,.24-.2l.2-.17c.11-.11.11-.19.08-.24s-.16-.11-.29,0a2.53,2.53,0,0,0-.35.29,1.6,1.6,0,0,1,.27-.46l0,0c.18-.24.17-.29.17-.31s-.07-.11-.15-.12a.15.15,0,0,1,0-.06l.11-.06s.18-.09.15-.21-.06-.14-.27-.07h0l-.15.05h-.13l.08-.07c.07-.06.1-.12.07-.18a.16.16,0,0,0-.15-.08l-.11,0h0l0,0c-.07-.07-.2,0-.35.08l-.09.07a5.44,5.44,0,0,1,.49-.87c.06-.1.13-.23.09-.33l0,0a.31.31,0,0,1,.05-.1l.17-.19.09-.1s.14-.15.08-.26a.14.14,0,0,0-.08-.07c.19-.25.4-.49.6-.73a11.85,11.85,0,0,0,.85-1.07.22.22,0,0,0,0-.24.18.18,0,0,0-.14-.07.31.31,0,0,0-.15.07l-.21.16a2.08,2.08,0,0,1-.52.35l0-.07a8.1,8.1,0,0,1,1.06-1.42,11.91,11.91,0,0,0,.88-1.1s.1-.15,0-.23a.15.15,0,0,0-.13-.06.29.29,0,0,0-.16.09l-.35.3.15-.23c0-.06.1-.15,0-.23a.14.14,0,0,0-.13-.06.29.29,0,0,0-.15.09l-.62.53a.18.18,0,0,1-.1,0h-.09a.25.25,0,0,0-.15.06,1.41,1.41,0,0,0-.33.46,1.18,1.18,0,0,1-.37.48l1.06-2.27.1-.21c0-.08.07-.16,0-.23a.14.14,0,0,0-.12-.05c-.05,0-.09,0-.16.11v0a4.65,4.65,0,0,0,.34-.95.26.26,0,0,0,0-.24.19.19,0,0,0-.13-.05.22.22,0,0,0-.14.08l0,0c-.05,0-.1,0-.2.06l0,0a.16.16,0,0,0-.16,0c-.06,0-.08.09-.12.21l0,.13a2.24,2.24,0,0,1-.62.84l.32-1.09c.08-.28.07-.31,0-.36a.12.12,0,0,0-.11,0s-.06,0-.27.22l0,0,.26-.93.08-.29c.07-.23.06-.29,0-.34a.13.13,0,0,0-.16,0c-.05,0-.07.08-.13.25l0,.08a4,4,0,0,1-.32.65.62.62,0,0,1-.18.15,1.2,1.2,0,0,0-.17.13l0,0a.29.29,0,0,0,0-.21h0s0-.12,0-.21a2.47,2.47,0,0,0,.06-.41.54.54,0,0,0-.07-.31.13.13,0,0,0-.2.1,1.17,1.17,0,0,0-.09.19.1.1,0,0,0-.11-.05.12.12,0,0,0-.11.11l0,.11L582,142l-.08.21a3.46,3.46,0,0,1-.18.41v-.07a4.58,4.58,0,0,0,.1-1.3c0-.34-.15-.32-.19-.32a.12.12,0,0,0-.11.1,1.88,1.88,0,0,1-.12.21l0,0a3,3,0,0,0,0-.53c0-.17-.13-.3-.25-.3,0-.28,0-.57-.06-.85a.26.26,0,0,0-.07-.19.14.14,0,0,0-.1,0c-.11,0-.13.13-.15.2v.05a.4.4,0,0,1-.2.23s0,0,0,0,0-.23-.16-.21-.12.09-.15.18l0,.1q0-.21,0-.43c0-.29,0-.32,0-.35a.12.12,0,0,0-.1,0,.12.12,0,0,0-.1.07l0-.41a.12.12,0,0,0-.24,0,2.06,2.06,0,0,1-.11.21l-.12.21,0,0a.14.14,0,0,0-.09,0l-.09,0,0,0a4.19,4.19,0,0,1,.09-.48l0-.18c.06-.29,0-.33,0-.36a.12.12,0,0,0-.1,0s0,0-.15.06a.16.16,0,0,0,0-.11.17.17,0,0,0-.12,0,.22.22,0,0,0-.12.06l0,0a.2.2,0,0,0-.22,0c0-.11-.07-.22-.18-.21a.13.13,0,0,0-.1.08l-.1.21.1-.42a.25.25,0,0,0,0-.22.18.18,0,0,0-.13,0,.28.28,0,0,0-.17.1l-.1.09-.05,0,0-.16v-.15c0-.29,0-.31,0-.35a.12.12,0,0,0-.1,0,.14.14,0,0,0-.11.08c0-.21,0-.42,0-.63s0-.18,0-.21a.16.16,0,0,0,0,0,.12.12,0,0,0-.13-.11.13.13,0,0,0-.11.11l0,.08-.06.17,0,.13a1.85,1.85,0,0,1-.11.3.55.55,0,0,1-.09.12h0a.64.64,0,0,1,0-.23l.06-.43c0-.27,0-.3,0-.34a.13.13,0,0,0-.16,0s-.05.06-.09.15l-.07.17,0,0,0-.66,0-.19a.24.24,0,0,0,0-.05.12.12,0,0,0-.13-.11.15.15,0,0,0-.11.11l0,.1-.05.14-.08.23a1.26,1.26,0,0,1-.5.8h0a.1.1,0,0,1,0-.07c0-.09,0-.19,0-.28a5.06,5.06,0,0,1,0-1,.27.27,0,0,0-.05-.25.24.24,0,0,0-.29,0l0,0-.13,0h0a.13.13,0,0,0-.1,0c-.1,0-.11.09-.14.2l0,.08a.85.85,0,0,1-.22.43s-.1-.06-.11-.12a1.25,1.25,0,0,1,.1-.57c0-.14,0-.24,0-.3a.16.16,0,0,0-.22,0h0a.13.13,0,0,0-.08,0c-.11,0-.12.1-.16.3a3,3,0,0,1-.22.69L574,136a1,1,0,0,1-.05-.17l-.05-.27a11.2,11.2,0,0,0-.31-1.28c-.05-.15-.14-.18-.2-.17s-.14,0-.15.23v0l-.25-.9c-.05-.19-.11-.3-.22-.29a.14.14,0,0,0-.1.07.78.78,0,0,0,0,.38l.06.59,0,0a.88.88,0,0,1-.18-.54,2.53,2.53,0,0,0-.06-.38c-.05-.19-.17-.19-.21-.19s-.14,0-.18.2l-.18.66c0-.09,0-.2,0-.3a3.43,3.43,0,0,0-.13-.7.22.22,0,0,0-.23-.16.31.31,0,0,0-.23.18,1.41,1.41,0,0,1-.14.23l0,0,0-.13a2.64,2.64,0,0,1-.08-.49c0-.24-.05-.29-.09-.32a.13.13,0,0,0-.14,0s-.09,0-.1.33a.13.13,0,0,0-.08,0c-.09,0-.12.09-.13.17l-.08-.34c0-.06-.05-.21-.18-.19s-.13.16-.14.22v.12c0-.06-.07-.13-.15-.12a.12.12,0,0,0-.09.06s0,.08,0,.35l0,.11a.2.2,0,0,0-.22,0,1,1,0,0,1-.05-.14l0-.06a7.32,7.32,0,0,0-.37-1,.22.22,0,0,0-.22-.15c-.08,0-.17.07-.19.23l-.1.71-.09-.17c-.08-.15-.16-.3-.23-.47a.41.41,0,0,0-.37-.29.69.69,0,0,1-.14-.2l-.11-.19-.13-.24-.06-.14c0-.11-.08-.17-.17-.16s-.11,0-.11.14l-.38-.92c-.1-.25-.14-.32-.24-.31s-.12.13-.1.39c0,.43,0,.76.05,1h0a1.92,1.92,0,0,1-.19-.44c-.09-.29-.11-.34-.21-.33s-.12.08-.17.35l0,.12-.1-.19c-.15-.28-.2-.3-.27-.29s-.14.11-.13.3a.15.15,0,0,0-.2,0,.2.2,0,0,0,0,.14l-.47-.94c-.12-.25-.16-.31-.25-.3a.11.11,0,0,0-.1.09l0-.05c-.11-.25-.14-.32-.24-.31a.12.12,0,0,0-.09.05c-.05.08,0,.27,0,.35a3.91,3.91,0,0,0,.18.48,2.6,2.6,0,0,1,.18.5l-.24-.33-.49-.69c-.17-.24-.21-.27-.28-.26a.12.12,0,0,0-.09.06s0,.08.07.35l.14.38-.28-.33a4.5,4.5,0,0,1-.78-1.14l0-.11c-.06-.15-.09-.21-.18-.2a.12.12,0,0,0-.09.05s0,.06,0,.35l.08.3a.66.66,0,0,1,0,.1l0,0s-.06.09,0,.32l0,.13.32.92a2.25,2.25,0,0,0-.34-.32.61.61,0,0,1-.23-.3l-.12-.6c0-.09,0-.21-.16-.2s-.12.14-.12.23a3.53,3.53,0,0,1-.07.89s0,.05-.08,0l-.17-.17a4.7,4.7,0,0,0-.6-.54c-.14-.1-.21-.09-.23-.09a.16.16,0,0,0-.11.07.15.15,0,0,0,0,.14v0c0,.06,0,.14.08.33a1.27,1.27,0,0,1,.12.26l0,0a2.35,2.35,0,0,1-.53-1.14c-.06-.25-.09-.35-.21-.34s-.12.15-.1.39l.06.54a.4.4,0,0,1,0,.06,1.39,1.39,0,0,1-.67-.78l-.05-.13c0-.13-.08-.19-.17-.18a.12.12,0,0,0-.09.05s0,.06,0,.35l0,.06a.43.43,0,0,1,0,.11.13.13,0,0,0-.07.07c0,.07,0,.16.1.3a.57.57,0,0,1,.13.31v0l-.32-.22-.12-.07c-.25-.16-.27-.16-.31-.15a.15.15,0,0,0-.12.15,1.29,1.29,0,0,0,.16.29l.2.27c.1.14.21.29.3.44a4.44,4.44,0,0,1-.73-.63,3.75,3.75,0,0,0-.73-.62c-.13-.08-.25-.05-.3,0a.24.24,0,0,0,0,.24l.09.13a1.28,1.28,0,0,1-.35-.42,3.2,3.2,0,0,0-.2-.29.23.23,0,0,0-.2-.11.16.16,0,0,0-.11.07.24.24,0,0,0,0,.22c.07.17.15.34.22.5a7.7,7.7,0,0,1,.31.73l-.05-.06-1.17-1.29a.24.24,0,0,0-.19-.11.15.15,0,0,0-.1.06.24.24,0,0,0,0,.22l.13.31-.13-.13-.15-.14a3.76,3.76,0,0,1-.35-.37l-.1-.14c-.06-.08-.09-.13-.17-.12s-.13.06-.12.2a1.12,1.12,0,0,0,.09.24l0,.09c0,.1.08.2.11.3a3.36,3.36,0,0,0,.2.48,2.5,2.5,0,0,0,.15.23l.13.2,0,.07.07.13a.88.88,0,0,1-.24-.08,3.47,3.47,0,0,1-.88-.68,5,5,0,0,0-.54-.47.58.58,0,0,0-.3-.15.12.12,0,0,0-.11.13,2.1,2.1,0,0,0,.09.29l.1.31-.18-.12-.41-.25c-.19-.12-.26-.12-.28-.11a.14.14,0,0,0-.12.14,2,2,0,0,0,.08.26.21.21,0,0,0-.1,0,.18.18,0,0,0-.16.17l-.16-.16-.09-.11c-.14-.16-.27-.19-.35-.11l0,0a.17.17,0,0,0-.12,0,.17.17,0,0,0-.11.08.31.31,0,0,0,0,.27l.17.3a2.89,2.89,0,0,1,.38.85,3.88,3.88,0,0,1-.78-.66l-.35-.34a.25.25,0,0,0-.19-.08.19.19,0,0,0-.11.07.25.25,0,0,0,0,.22l0,.15-.17-.23-.07-.1c-.09-.13-.11-.17-.19-.17a.12.12,0,0,0-.09.06s0,.07,0,.33a1.28,1.28,0,0,1-.2-.19l-.09-.1a.24.24,0,0,0-.19-.09.18.18,0,0,0-.11.07.25.25,0,0,0,0,.23l.05.11-.07-.05-.13-.12c-.15-.13-.21-.14-.26-.14a.14.14,0,0,0-.09.05h-.11a.15.15,0,0,0-.11.07.4.4,0,0,0,0,.31,3.55,3.55,0,0,1-.29-.3l-.25-.26a.25.25,0,0,0-.19-.09.18.18,0,0,0-.11.07.25.25,0,0,0,0,.22h0l-.13-.08a.15.15,0,0,0-.21,0c0,.06,0,.14.06.27l.11.2a1.62,1.62,0,0,1-.5-.36l-.12-.15c0-.06-.08-.1-.15-.1a.12.12,0,0,0-.09,0s0,.06,0,.35l0,.23a.08.08,0,0,1,0,0,3.42,3.42,0,0,1-.64-.53l-.22-.21a.26.26,0,0,0-.2-.09.17.17,0,0,0-.11.07.18.18,0,0,0,0,.11l-.11-.11c-.08-.09-.2-.2-.3-.19a.13.13,0,0,0-.11.14.37.37,0,0,0,0,.08h0a.13.13,0,0,0-.1.07c0,.05,0,.12.09.26l-.15,0c-.14,0-.24,0-.28.07a.25.25,0,0,0,0,.23l0,0a2.29,2.29,0,0,1-.47-.27l-.22-.14c-.13-.08-.25-.06-.3,0a.24.24,0,0,0,0,.23l0,0c-.22-.09-.24-.09-.28-.09a.12.12,0,0,0-.11.13c0,.05.08.15.22.28l.11.12a.16.16,0,0,0-.18.1,4.74,4.74,0,0,0-.79-.35c-.15-.05-.24,0-.27.08s.06.2.1.23l.08.07a.16.16,0,0,0-.12.08v0h0l-1.15-.46-.12,0a.64.64,0,0,0-.26-.06.17.17,0,0,0-.11.06h-.36a.15.15,0,0,0-.13.08.13.13,0,0,0,0,.12,1.63,1.63,0,0,0,.26.21l.19.14a.38.38,0,0,0-.15,0,.16.16,0,0,0-.15.11h0a.2.2,0,0,0-.22.1.26.26,0,0,0,0,.23l-.46-.18c-.24-.09-.27-.09-.29-.09a.12.12,0,0,0-.11.13s0,0,.15.23a4.22,4.22,0,0,0-1.09-.17h0c-.07,0-.3,0-.29.19a.12.12,0,0,0,.14.11l.21.08.46.18H539a1.88,1.88,0,0,1-.47,0l-.36-.07a1.13,1.13,0,0,0-.26,0,.15.15,0,0,0-.11.07.13.13,0,0,0,0,.12s0,0,.12.1l-.15,0c-.21,0-.25.07-.25.1s.09.19.13.21l.09.06a6.24,6.24,0,0,1-1.24-.06l-.55-.06c-.19,0-.24.09-.25.13s0,.14.1.24l.06.05.1.11,0,0c-.06,0-.16.08-.13.18a.13.13,0,0,0,.1.09l.05,0,.17.09-1.44-.11-.19,0a.12.12,0,0,0-.16.11.14.14,0,0,0,.1.12l.22.11,0,0s0,0,0,0a5.86,5.86,0,0,1-1.6.1h-.26a.14.14,0,0,0-.13.14.17.17,0,0,0,.14.12l.22.11.06,0a.17.17,0,0,0-.12.1.14.14,0,0,0,0,.08c-.05,0-.2,0-.22.13a.14.14,0,0,0,.09.15l-.3,0c-.19,0-.27.06-.28.11a.17.17,0,0,0,0,.17h0l-.2,0-.21,0h0c-.11,0-.12.05-.11.13a.12.12,0,0,0,.13.1l.25,0h.08c-.06,0-.18,0-.18.15s.15.16.2.17l.12,0c-.12,0-.16.07-.18.11v0l-.12,0-.4.06a5.51,5.51,0,0,1-1.12.11h-.21a.17.17,0,0,0-.14.07.14.14,0,0,0,0,.12c0,.05.1.11.23.18h-.24a4.8,4.8,0,0,0-.71,0c-.33.06-.32.16-.31.21a.12.12,0,0,0,.1.1l0,0,.19.09.38.12a3,3,0,0,1,.42.14l-.82.09c-.1,0-.2,0-.21.12s.06.13.16.17l-.5.08-.1,0c-.1,0-.2,0-.21.14a.12.12,0,0,0,.07.11h0c-.29,0-.31.1-.33.14a.13.13,0,0,0,0,.12c0,.05.09.07.25.1l.1,0,.17.05-1.26.1h0a.89.89,0,0,0-.32.1c-.08,0-.18.09-.17.18s.13.12.39.1l.24,0-.52.14s-.2.05-.19.18.17.14.22.15h0l-.85.17c-.25.05-.36.08-.35.2s.1.12.29.11h.09a3.46,3.46,0,0,1,.54,0,.11.11,0,0,0-.08.13c0,.1.1.11.15.12l.18,0h0c-.08,0-.17.06-.16.16a.12.12,0,0,0,.09.11l-1.62.48c-.27.08-.29.14-.31.18a.13.13,0,0,0,0,.11.27.27,0,0,0,.21.09h0c0,.08.13.11.32.09H526c-.14.06-.16.1-.17.13a.14.14,0,0,0,.1.18l-.28.12a2.82,2.82,0,0,1-.47.14l-.6.12c-.1,0-.21,0-.2.16s.12.12.22.12l.26,0c-.19.08-.26.12-.25.21s.09.11.16.12l.18,0,.06,0s0,0,0,0a4.64,4.64,0,0,1-1.17.31c-.23,0-.3.06-.33.13a.13.13,0,0,0,0,.12s.05.07.35.13l.21,0a.15.15,0,0,0,0,.12c0,.08.09.15.27.13l.26,0h.11a.46.46,0,0,1-.18.09,3,3,0,0,1-.92,0h-.33a.14.14,0,0,0-.12.14c0,.08.06.11.34.2l.45.13h0l0,0-.87.38c-.25.11-.32.14-.31.24s.09.12.19.12a.13.13,0,0,0,0,0c0,.1.09.14.31.14l-.84.28c-.27.09-.29.15-.3.18a.13.13,0,0,0,0,.11v0c-.11,0-.17.09-.16.17s.16.12.32.11l-.19.09a.13.13,0,0,0,.05.25l.25-.06,1-.29a.28.28,0,0,0,0,.25l-.13.05-.95.34-.44.16c-.25.09-.33.12-.32.23a.15.15,0,0,0,.16.11l.24,0,.19,0h0c-.2.18-.21.27-.17.34a.15.15,0,0,0,.13.06.94.94,0,0,0,.22-.08h0c-.17.12-.21.23-.19.32l-.06,0a.22.22,0,0,0-.15.23.15.15,0,0,0,.07.1l0,0a1.14,1.14,0,0,1-.35.22l-.11,0c-.14.06-.21.09-.2.18a.14.14,0,0,0,.15.11l.25-.06.19,0-1.25.41c-.24.08-.34.11-.33.23s.15.12.39.11l.35,0-.54.43c-.21.16-.21.23-.2.29a.14.14,0,0,0,.1.1.79.79,0,0,0,.34-.08,3.7,3.7,0,0,1,.57-.15h.09a.28.28,0,0,0,.07.29l0,0a.17.17,0,0,0-.07.19h0l-.06,0-.7.27c-.08,0-.23.09-.21.22a.13.13,0,0,0,.07.09l-.06,0,0,0a.41.41,0,0,0-.18.25l0,0a.16.16,0,0,0,0,.17s.12.11.32,0a3.38,3.38,0,0,1,.83-.21h.11l-.31.29a3.2,3.2,0,0,0-.3.3.22.22,0,0,0-.06.26.21.21,0,0,0,.27.07l.07-.12h0l0,.11s0,0,0,0a1.2,1.2,0,0,1-.51.53l-.15.11c-.16.11-.17.21-.14.27a.16.16,0,0,0,.18.09h0l0,.05c.07.07.19.06.36,0l.2-.09,0,.06a2.58,2.58,0,0,1-.34.45,3.69,3.69,0,0,0-.31.39.21.21,0,0,0,.26.33l.07,0a.18.18,0,0,1,.16.06c0,.05,0,.22.13.26l-.13.09a.32.32,0,0,0-.18.21.17.17,0,0,0,0,.1l-.06.08-.08.12c-.07.09-.08.18,0,.24s.16.1.29,0l.14-.09h0l0,0a.23.23,0,0,0,.11.09l0,0-.11.15c-.11.14-.09.23-.06.28a.17.17,0,0,0,.18.08h0l-.08.11-.22.29c0,.05-.11.14-.06.23a.14.14,0,0,0,.13.07.31.31,0,0,0,.15-.07l.06,0,.07-.05v.06A4.2,4.2,0,0,1,520.55,157.9Z"/><path id="_Compound_Path_4" data-name="&lt;Compound Path&gt;" class="cls-4" d="M630.71,159.52c-.08.21-.05.23.12.1a37.54,37.54,0,0,1,5.36-3.53c.19-.1.34,0,.33.21l-.72,13.16a34.75,34.75,0,0,1-4.9,14.87,1.77,1.77,0,0,0-.17.37c-.07.21-.06.43,0,.51s.3,0,.46-.14a15.85,15.85,0,0,0,1.62-1.55,15.44,15.44,0,0,0,2.8-5.79l0-.15a.65.65,0,0,1,.31-.42.39.39,0,0,1,.42.12c1.28,1.14-1.3,5.57-1.92,6.54a.94.94,0,0,0-.12.32.54.54,0,0,0,.05.43c.07.05.26,0,.43-.15a7.88,7.88,0,0,0,.81-.66,19.21,19.21,0,0,0,4.56-8.18,47.54,47.54,0,0,0,1.7-7.7c0-.22.09-.46.1-.54a.68.68,0,0,0,0-.16c0-.16.27.27.27.27a1.88,1.88,0,0,1,0,.87,6.8,6.8,0,0,0-.16,1.41.7.7,0,0,0,1.14.5.69.69,0,0,0,.21-.37v0a68.25,68.25,0,0,0,1.68-9.69.7.7,0,0,1,.41-.53l1.87-.69a.49.49,0,0,1,.57.21,3.08,3.08,0,0,0,.24.33.25.25,0,0,0,.17.1.61.61,0,0,0,.42-.17.3.3,0,0,0,.07-.25,2.42,2.42,0,0,1,0-.37.32.32,0,0,1,.3-.34,1,1,0,0,0,.27,0l5.5-1.63c.21-.06.35.07.27.27v0c-.09.2-.42.41-.42.63h0c0,.22.28.31.35.31h.21l.09,0,.13,0a1.68,1.68,0,0,0,.49-.2l.1-.09a2.65,2.65,0,0,0,.39-.69,1.74,1.74,0,0,0,.09-.3.62.62,0,0,1,.32-.48.46.46,0,0,1,.49.26,2.47,2.47,0,0,1,.17.47.28.28,0,0,0,.07.13c.06.06.11.1.1.13s.06,0,.17,0l.2-.1a1,1,0,0,0,.6-.73,3.45,3.45,0,0,0,.06-.53c0-.08.14-.19.35-.25l4.82-1.43a1,1,0,0,0-.53-1.91l-5.69,1.69a1,1,0,0,1-.71-.11,4.54,4.54,0,0,0-2.29-.66.26.26,0,0,1-.27-.36c.23-.68.44-1.37.65-2.06a7.06,7.06,0,0,1,.28-.74l.64-1.4a2.07,2.07,0,0,1,.47-.61q.38-.32.74-.65a4.79,4.79,0,0,1,.63-.47,8,8,0,0,0,3.63-6.15c0-.07,0-.14,0-.2s.14-.29.33-.4l.7-.41,1.09-.64a2.32,2.32,0,0,0,.34-.22s0,0,0,0h0a1.09,1.09,0,0,0,.25.08,1.17,1.17,0,0,1,.41.16.82.82,0,0,0,.19.09,10.07,10.07,0,0,0,2.88.55H668a1.67,1.67,0,0,1,.48,0l.3,0h.14c.08,0,.09.14,0,.31l-.13.3-.14.3a.57.57,0,0,0-.06.41c0,.06.24,0,.45,0a1.09,1.09,0,0,0,.49-.28,14.36,14.36,0,0,0,1.85-2.55c.43-.86.92-2,.11-2.8l-.15-.12a1.07,1.07,0,0,1-.26-.49l-.1-.4a.74.74,0,0,0,0-.11l-.18-.48a7,7,0,0,0-7.63-4.55,27.81,27.81,0,0,0-10.23,3.51,19.35,19.35,0,0,1-3,.81,21.77,21.77,0,0,0-10.34,7.4,49.86,49.86,0,0,0-5.86,9.33,43.09,43.09,0,0,0-2.08,5.12C631.43,155.89,631.07,158.54,630.71,159.52Zm19-6.16a1.83,1.83,0,0,0,0-.34v-.7a2.19,2.19,0,0,1,.05-.54c0-.08,0-.13,0-.11s-.05,0-.05-.06v-.1s0,0,0,0,.15.13.28.31l.64.93.07.1a4.18,4.18,0,0,1,.25.45l.27.53c.18.34.47.63.61,1a2.13,2.13,0,0,0,.12.25c.08.13.15.27.14.34a.27.27,0,0,1-.18.17,1.15,1.15,0,0,1-.52-.13l-.36-.12a1.92,1.92,0,0,1-.69-.34,2.91,2.91,0,0,1-.67-.89A1.32,1.32,0,0,1,649.76,153.36Zm-4.36,3.82c.09-1.5.13-3,.11-4.52a1.49,1.49,0,0,1,0-.4,2.14,2.14,0,0,1,.12.38,3.25,3.25,0,0,0,.12.35c.08.2.2.52.28.72s.21.51.31.7.13.26.22.4l.83,1.35a.41.41,0,0,1-.07.53,2.49,2.49,0,0,1-.61.39l-1,.36A.24.24,0,0,1,645.4,157.18Z"/><path id="_Compound_Path_5" data-name="&lt;Compound Path&gt;" class="cls-4" d="M716.38,166.36c.62-.73,1.28-1.45,1.85-2.22A13.38,13.38,0,0,0,720,160.9c.44-1.14,1-2.25,1.41-3.38.2-.49.36-1,.52-1.5a1.16,1.16,0,0,1,.69-.7c0,.19,0,.35,0,.5,0,2.37-.06,4.75-.07,7.12a15.21,15.21,0,0,0,.57,3.35c.08.37.19.73.29,1.09a3.58,3.58,0,0,1-.12,2c-.28,1-.53,1.94-.79,2.91-.17.65-.38,1.29-.52,1.95a13.11,13.11,0,0,0,0,4.54,5.37,5.37,0,0,1,0,2.39,3,3,0,0,0-.15,1,1,1,0,0,0,1,1c.56.06,1.12.11,1.69.14.74,0,1.48.08,2.22,0,.89,0,1.77-.16,2.65-.23.25,0,.29-.16.26-.35s-.09-.55-.14-.85l.13-.06a.58.58,0,0,0,.34-.89,7.63,7.63,0,0,0-.78-1c-.26-.28-.58-.51-.81-.81a13.58,13.58,0,0,1-.93-1.44,1.72,1.72,0,0,1-.06-1.36,12.87,12.87,0,0,1,.74-2.15,9.45,9.45,0,0,1,1.3-2c.65-.75,1.41-1.4,2.11-2.09a5.1,5.1,0,0,0,1.44-2.53,12,12,0,0,1,.33-1.15.3.3,0,0,1,.24-.14c.93.06,1.86.16,2.79.2.6,0,1.21,0,1.82-.06h.46c1.22,0,2.44,0,3.65-.15a6.22,6.22,0,0,0,2.28-.8c.52-.27,1-.52,1.58-.79a2.62,2.62,0,0,1,.65,1.27,25.92,25.92,0,0,1,.55,4.51c0,.8.13,1.6.13,2.4s-.1,1.77-.12,2.66c0,.48.07,1,0,1.43-.06.8-.16,1.59-.28,2.38a3.14,3.14,0,0,1-.31.75,1.37,1.37,0,0,0,.22,1.68.57.57,0,0,0,.36.16l3.9-.17c.84,0,1.67,0,2.51,0a.51.51,0,0,1,.33.12,1.38,1.38,0,0,0,1,.29c1,0,2.07,0,3.11,0,.43,0,.87,0,1.29,0a4.66,4.66,0,0,0,.84-.2c.16,0,.3-.13.46-.16.66-.13.67-.27.54-.95a1.93,1.93,0,0,0-.39-.62c-.13-.19-.27-.38-.41-.56s-.15-.07-.21-.13a5.74,5.74,0,0,1-1.33-1.65,1.94,1.94,0,0,1-.13-.53c-.14-1.26-.32-2.52-.4-3.79-.06-1,0-1.93,0-2.89,0-.81,0-1.61,0-2.42s0-1.92.16-2.86a26.23,26.23,0,0,0,.08-4.52c-.07-1.27-.24-2.54-.35-3.81a.4.4,0,0,1,.18-.3q1.46-.87,2.95-1.72l3.44-1.94c.21.24.45.53.71.81s.48.47.71.71.59.62.86,1,.48.45.69.31A.71.71,0,0,0,768,155a1.84,1.84,0,0,0-.24-.3,7.29,7.29,0,0,1-1.37-2.47l-.13-.29,1.24-.58c.29-.13.58-.25.88-.34a3.06,3.06,0,0,0,1.35-1c.23-.27.53-.42.83-.22a5.92,5.92,0,0,0,2.39.65l.13,0c.17.06.35.14.46-.07a1.59,1.59,0,0,0,0-.49c.16-.22.49-.13.78-.17a6.29,6.29,0,0,1,1-.06,2.66,2.66,0,0,1,.69.15,9.13,9.13,0,0,0,4.24.35,6.17,6.17,0,0,0,2.78-.95,2.51,2.51,0,0,0,1.18-1.55,1.16,1.16,0,0,0,0-.51c-1.42,1.32-3.14,1.3-5,1.27.47-.47,1.21-.61,1.16-1.47-.62.23-1.2.45-1.78.65a2.57,2.57,0,0,1-2,.09,6.57,6.57,0,0,1,1.1-.38,4.34,4.34,0,0,0,3-2,6.77,6.77,0,0,0,1.27-4.75,10.47,10.47,0,0,0-.82-3,6.8,6.8,0,0,1-.41-3.07,7.56,7.56,0,0,1,1.08-3.07c.26-.42.49-.86.78-1.26a4.16,4.16,0,0,1,2.21-1.58c.26-.08.51-.18.76-.25a.25.25,0,0,0,.15-.39,2.52,2.52,0,0,1-.17-1.31c0-.44-.29-.69-.63-.44a7,7,0,0,1-1.8.69,9.16,9.16,0,0,0-3.15,2,9.26,9.26,0,0,0-2.26,3.2,16.32,16.32,0,0,0-1.11,3.2,10.47,10.47,0,0,0,.07,3.82,11.72,11.72,0,0,1,.15,1.88.86.86,0,0,1-.21.49c-.32.41-.66.79-.93,1.12-.54-.18-1-.38-1.54-.53a4.08,4.08,0,0,1-1.4-.71c-.34-.27-.73-.47-1.08-.72-.62-.43-1.22-.89-1.85-1.31a15.82,15.82,0,0,0-1.36-.83c-.76-.41-1.53-.81-2.31-1.18a4.31,4.31,0,0,0-2.27-.24,7,7,0,0,0-3,1l-2.46,1.5a2.66,2.66,0,0,1-1.47.34,6.08,6.08,0,0,0-.87,0c-.46.06-.8-.24-1.18-.39a9.64,9.64,0,0,0-2.76-.68c-.76-.07-1.52-.19-2.29-.27a7.22,7.22,0,0,0-3.65.39c-.68.29-1.34.65-2,.94a1.13,1.13,0,0,1-.63,0c-.79-.17-1.58-.38-2.37-.56s-1.42-.29-2.12-.46a6.82,6.82,0,0,0-3.65.4,25.8,25.8,0,0,0-2.54.9,11.82,11.82,0,0,0-1.7.87,19,19,0,0,0-5,4c-.68.72-1.29,1.51-1.9,2.3a16.39,16.39,0,0,0-1.28,1.86,26.13,26.13,0,0,0-1.3,2.61,10.8,10.8,0,0,0-.44,1.63c-.15.58-.27,1.16-.43,1.73q-.39,1.32-.83,2.63-.35,1-.77,2.07c-.24.58-.51,1.14-.78,1.71-.37.78-.72,1.58-1.14,2.34a11.54,11.54,0,0,1-1.24,1.78c-.24.29-.68.4-1,.65a2.31,2.31,0,0,0-.9,1.56c.33-.15.61-.26.86-.4A5.29,5.29,0,0,0,716.38,166.36Zm35.69,10.8a3.93,3.93,0,0,0,.33-1.12c.17-1.07.31-2.14.46-3.21.12-.9.23-1.8.34-2.69h.07c.15.62.3,1.23.45,1.85a8.83,8.83,0,0,1,.16,3.17A3.2,3.2,0,0,0,754,177a3.16,3.16,0,0,1,.12,2.12c-.09.43-.21.84-.34,1.37l-.39-.47c-.33-.43-.64-.87-1-1.29A1.36,1.36,0,0,1,752.07,177.16Z"/></g></g></svg>