<?xml version="1.0" encoding="utf-8"?>
<!-- Generator: Adobe Illustrator 21.0.0, SVG Export Plug-In . SVG Version: 6.00 Build 0)  -->
<svg version="1.1" id="Layer_1" xmlns="http://www.w3.org/2000/svg" xmlns:xlink="http://www.w3.org/1999/xlink" x="0px" y="0px"
	 viewBox="0 0 140.3 23" style="enable-background:new 0 0 140.3 23;" xml:space="preserve">
<style type="text/css">
	.st0{opacity:0.86;enable-background:new    ;}
	.st1{fill:#EFAEA2;}
	.st2{enable-background:new    ;}
</style>
<title>LW-small</title>
<g class="st0">
	<path class="st1" d="M7,11.3c0.4,0,0.6,0.3,0.6,0.6c0,0.3-0.2,0.6-0.6,0.6c-1.4,0-2.4,0-3.2,0c-0.7,0-1.3,0-2,0
		c-0.2,0-0.6,0-0.6-0.6c0-0.3,0.2-0.6,0.6-0.6h0c0.7,0,1.6,0,2.5,0C5.2,11.3,6.2,11.3,7,11.3L7,11.3z"/>
</g>
<g class="st2">
	<path class="st1" d="M27.2,15.1l0,0.8l0,1.1v0.1c0,0.8-0.3,1.9-2.2,1.9c-1.3,0-1.7-0.2-1.7-0.6c0-0.2,0.1-0.5,0.4-0.5
		c0,0,0.1,0,0.1,0c0.4,0.1,0.8,0.1,1.2,0.1c0.7,0,1.2-0.3,1.2-1.1v-1.9l-9.9,0c-0.3,0-0.4-0.2-0.4-0.4c0-0.2,0.1-0.4,0.4-0.4l9.8,0
		v-1c0-0.3,0.2-0.4,0.5-0.4c0.2,0,0.5,0.1,0.5,0.4v1l3.9,0c0.3,0,0.4,0.2,0.4,0.4c0,0.2-0.1,0.4-0.4,0.4L27.2,15.1z M20.4,10.3v1.7
		c0.9-0.1,1.8-0.2,2.5-0.3H23c0.2,0,0.3,0.2,0.3,0.4c0,0.1-0.1,0.3-0.3,0.4c-2.2,0.4-6,0.6-6.2,0.6c-0.3,0-0.4-0.2-0.4-0.4
		c0-0.2,0.1-0.4,0.4-0.4c0.8,0,1.8-0.1,2.7-0.1v-1.7l-2.1,0c-0.3,0-0.4-0.2-0.4-0.4c0-0.2,0.1-0.4,0.4-0.4h5.4
		c0.3,0,0.4,0.2,0.4,0.4c0,0.2-0.1,0.4-0.4,0.4L20.4,10.3z M19.2,6.4c-0.2,0-0.4-0.2-0.4-0.4c0-0.2,0.1-0.4,0.4-0.4H28
		c0-0.6-0.1-1.2-1-1.2c-0.9,0-2.1,0-3.4,0c-1.8,0-3.7,0-4.9,0c-0.2,0-0.4-0.2-0.4-0.4c0-0.2,0.1-0.4,0.4-0.4c7.3,0,8.2,0,8.5,0
		c1.7,0,1.7,1,1.7,2.5c0,1,0,2.2-1.7,2.2c-1.6,0-3.6,0-5.4,0c-1.2,0-2.3,0-3.3,0c-0.2,0-0.4-0.2-0.4-0.4s0.1-0.4,0.4-0.4
		c1.2,0,2.7,0,4.2,0c1.5,0,3.1,0,4.3,0c1,0,1-0.6,1-1.2H19.2z M22,17.7c-0.6-0.6-1.4-0.9-2.2-1.2c-0.2-0.1-0.2-0.2-0.2-0.3
		c0-0.2,0.2-0.5,0.5-0.5c0.4,0,2.7,0.8,2.7,1.5c0,0.3-0.2,0.6-0.5,0.6C22.2,17.8,22.1,17.8,22,17.7z M27.3,12.6
		c-2.2,0-3.2,0-3.2-1.1c0-0.3,0-0.8,0-1.1c0-0.5,0.4-1,1.4-1c0.6,0,1.2,0,1.8,0c2.8,0,3.1,0,3.1,1.6C30.5,12.5,30.4,12.6,27.3,12.6z
		 M29.6,11c0-0.9,0-0.9-2.3-0.9c-2,0-2.2,0-2.3,0.5v0.8c0,0.5,0.1,0.6,2,0.6c2.4,0,2.5,0,2.5-0.5C29.6,11.3,29.6,11.1,29.6,11z"/>
	<path class="st1" d="M37.3,12.4c-1.2,0.6-2.3,1.1-2.5,1.1c-0.3,0-0.5-0.2-0.5-0.5c0-0.2,0.1-0.4,0.3-0.4c0.9-0.4,1.8-0.7,2.7-1.2
		V7.8l-2.4,0c-0.3,0-0.4-0.2-0.4-0.4c0-0.2,0.1-0.4,0.4-0.4h2.4V3.5c0-0.3,0.2-0.5,0.5-0.5c0.2,0,0.5,0.1,0.5,0.5V7H40
		c0.3,0,0.4,0.2,0.4,0.4c0,0.2-0.1,0.4-0.4,0.4l-1.8,0v3.1c0.5-0.3,1-0.5,1.4-0.8c0.1,0,0.1,0,0.2,0c0.2,0,0.4,0.2,0.4,0.4
		c0,0.3-0.1,0.4-2,1.4v2.4c0,0.3,0,2,0,2.7v0.1c0,0.9-0.4,1.8-1.9,1.8c-1.3,0-1.4-0.3-1.4-0.6c0-0.2,0.1-0.5,0.4-0.5h0.1
		c0.3,0.1,0.6,0.1,0.9,0.1c0.6,0,0.9-0.3,0.9-1.1V12.4z M44.2,8.9c0.2,1.8,0.6,3.5,1.2,5.1c0.9-1.2,1.6-2.5,2.1-4
		c0.1-0.2,0.2-0.3,0.4-0.3c0.3,0,0.6,0.2,0.6,0.5c0,0.1-0.9,2.5-2.6,4.7c0.7,1.4,1.6,2.6,2.3,2.6c0.7,0,1.2-0.9,1.5-2.3
		c0-0.3,0.2-0.4,0.4-0.4c0.3,0,0.6,0.2,0.6,0.5c0,0.2-0.6,3.2-2.4,3.2c-0.9,0-1.9-0.5-3-3c-2.4,2.4-5.1,3.1-5.3,3.1
		c-0.3,0-0.5-0.3-0.5-0.5c0-0.2,0.1-0.4,0.4-0.4c2.1-0.6,3.8-1.6,5.1-3.1c-0.7-1.7-1.1-3.7-1.4-5.8l-2.9,0.4h-0.1
		c-0.3,0-0.4-0.2-0.4-0.4c0-0.2,0.1-0.4,0.4-0.5l2.9-0.4c-0.1-1.4-0.2-3-0.2-4.4c0-0.3,0.3-0.4,0.5-0.4c0.3,0,0.5,0.1,0.5,0.5v0.8
		c0,1.1,0,2.2,0.1,3.4l5.3-0.7h0.1c0.3,0,0.4,0.2,0.4,0.4c0,0.2-0.1,0.4-0.4,0.4L44.2,8.9z M47.6,6.1c-0.7-0.7-1.7-1.1-2.2-1.2
		c-0.2-0.1-0.3-0.2-0.3-0.3c0-0.2,0.2-0.4,0.5-0.4c0.1,0,2.8,0.9,2.8,1.7c0,0.3-0.2,0.5-0.4,0.5C47.9,6.2,47.8,6.2,47.6,6.1z"/>
	<path class="st1" d="M63.1,11.1l-9.4,0c-0.3,0-0.4-0.2-0.4-0.4c0-0.2,0.1-0.4,0.4-0.4l9.4,0V7.9c0-0.4,0.3-0.5,0.5-0.5
		c0.2,0,0.5,0.2,0.5,0.5v2.2l4.1,0c0.3,0,0.4,0.2,0.4,0.4c0,0.2-0.1,0.4-0.4,0.4l-4.1,0v3.5l0,2.1v0c0,1.1-0.6,2.3-2.8,2.3
		c-0.5,0-1.1-0.1-1.8-0.2c-0.3-0.1-0.5-0.3-0.5-0.5c0-0.3,0.2-0.5,0.5-0.5c0,0,0.1,0,0.1,0c0.7,0.1,1.2,0.2,1.7,0.2
		c1,0,1.7-0.4,1.7-1.4V11.1z M66.7,7.2c0-0.7-0.3-1.1-1.2-1.1c-1.4,0-3.1,0-4.7,0s-3.3,0-4.6,0c-0.9,0-1.3,0.3-1.3,1.1v1.4
		c0,0.3-0.3,0.4-0.5,0.4c-0.5,0-0.5-0.3-0.5-1.2c0-0.3,0-0.6,0-0.9c0-0.9,0.6-1.6,2-1.7c1.6,0,3.1,0,4.5,0l0-1.9
		c0-0.3,0.3-0.5,0.5-0.5c0.3,0,0.5,0.1,0.5,0.5v1.9c1.4,0,2.8,0,4.4,0c1.3,0,2,0.7,2,1.7c0,0.2,0,0.5,0,0.8c0,0.9,0,1.2-0.6,1.2
		c-0.3,0-0.5-0.1-0.5-0.4V7.2z M59.5,15.3c-0.7-0.9-1.9-1.6-3-2.1c-0.2-0.1-0.2-0.2-0.2-0.4c0-0.2,0.2-0.4,0.5-0.4
		c0.5,0,3.6,1.7,3.6,2.5c0,0.3-0.3,0.6-0.5,0.6C59.7,15.5,59.6,15.4,59.5,15.3z"/>
	<path class="st1" d="M72,7.1c-0.3,0-0.5-0.2-0.5-0.4c0-0.2,0.2-0.4,0.5-0.4h5.1c0.3,0,0.5,0.2,0.5,0.4c0,0.2-0.1,0.4-0.5,0.4H72z
		 M74.4,18.7c-1.2,0-2.2,0-2.3-1.3c0-0.4,0-0.8,0-1.2c0-0.5,0-1,0-1.4c0-0.7,0.4-1.2,1.2-1.2c0.4,0,0.8,0,1.1,0c0.4,0,0.7,0,1.1,0
		c0.7,0,1.3,0.5,1.3,1.1c0,0.4,0,0.9,0,1.4c0,0.4,0,0.9,0,1.3C76.8,18.7,75.5,18.7,74.4,18.7z M72.7,4.5c-0.3,0-0.4-0.2-0.4-0.4
		c0-0.2,0.1-0.4,0.4-0.4h3.7c0.3,0,0.4,0.2,0.4,0.4c0,0.2-0.1,0.4-0.4,0.4H72.7z M72.7,9.5c-0.3,0-0.4-0.2-0.4-0.4s0.1-0.4,0.4-0.4
		h3.7c0.3,0,0.4,0.2,0.4,0.4c0,0.2-0.1,0.4-0.4,0.4H72.7z M72.7,12c-0.3,0-0.4-0.2-0.4-0.4s0.1-0.4,0.4-0.4h3.7
		c0.3,0,0.4,0.2,0.4,0.4c0,0.2-0.1,0.4-0.4,0.4H72.7z M73,16.1c0,0.4,0,0.8,0,1.1c0,0.5,0.2,0.6,1.4,0.6c1,0,1.5,0,1.5-0.7
		c0-0.3,0-0.7,0-1.1c0-0.4,0-0.8,0-1.1c0-0.7-0.5-0.7-1.5-0.7c-0.9,0-1.4,0-1.5,0.7C73,15.3,73,15.7,73,16.1z M78.3,15
		c-0.2,0-0.3-0.2-0.3-0.4c0-0.2,0.1-0.4,0.3-0.4c0,0,5.9,0,6.3,0h0c0.8,0,1.1,0.3,1.1,0.7c0,0.7-1.6,1.9-2.3,2.3
		c1,0.3,2.3,0.6,3.8,0.6c0.2,0,0.4,0.2,0.4,0.4c0,0.2-0.1,0.5-0.5,0.5c-0.1,0-2.6-0.1-4.6-1c-2.1,0.9-4.8,1.2-5,1.2
		c-0.3,0-0.4-0.2-0.4-0.5c0-0.2,0.1-0.4,0.4-0.4c1.7-0.1,3-0.4,4.1-0.8c-0.9-0.6-1.6-1.3-2.1-2.2L78.3,15z M83.2,11.3v1.2
		c1.3,0,2.6,0,3.7,0c0.2,0,0.3,0.2,0.3,0.3c0,0.2-0.1,0.4-0.3,0.4c-1,0-2.2,0-3.4,0s-2.4,0-3.3,0c-1.1,0-1.5-0.5-1.5-1.3
		c0-0.7,0-1.7,0.1-2.5c-0.7,0.9-0.9,1-1.1,1c-0.2,0-0.4-0.2-0.4-0.4c0-0.1,0.1-0.2,0.2-0.3c1-0.9,1.9-1.9,2.5-3.2
		c0.1-0.1,0.2-0.2,0.3-0.2c0.3,0,0.5,0.2,0.5,0.4c0,0.1,0,0.1-0.4,0.7h0.1c0.5,0,1.2,0,1.8,0c0.1-0.3,0.3-0.6,0.5-1.1
		c0.1-0.2,0.3-0.3,0.4-0.3c0.2,0,0.5,0.1,0.5,0.3c0,0.1,0,0.2-0.5,1c1.2,0,2.5,0,3.5,0c0.2,0,0.3,0.2,0.3,0.3c0,0.2-0.1,0.3-0.4,0.3
		c-0.9,0-2.2,0-3.4,0v1.1h2.8c0.2,0,0.3,0.1,0.3,0.3c0,0.1-0.1,0.3-0.3,0.3h-2.8v1.1h2.8c0.2,0,0.3,0.1,0.3,0.3s-0.1,0.3-0.3,0.3
		H83.2z M84.7,5.3v0.6c0,0.3-0.2,0.4-0.4,0.4c-0.2,0-0.4-0.1-0.4-0.4V5.3h-2.5v0.6c0,0.3-0.2,0.4-0.4,0.4c-0.2,0-0.4-0.1-0.4-0.4
		V5.3l-2.4,0c-0.3,0-0.4-0.2-0.4-0.4s0.1-0.4,0.4-0.4l2.4,0V3.6c0-0.3,0.2-0.4,0.4-0.4c0.2,0,0.4,0.1,0.4,0.4v0.9h2.5V3.6
		c0-0.3,0.2-0.4,0.4-0.4c0.2,0,0.4,0.1,0.4,0.4v0.9l2.4,0c0.3,0,0.4,0.2,0.4,0.4s-0.1,0.4-0.4,0.4L84.7,5.3z M82.3,9.6h-2.8
		c0,0.3,0,0.7,0,1.1h2.8V9.6z M82.3,11.3h-2.8v0.4c0,0.6,0.2,0.8,0.9,0.8c0.6,0,1.2,0,2,0V11.3z M82.3,7.9h-1.9
		c-0.5,0-0.8,0.3-0.9,0.8c0,0.1,0,0.2,0,0.3h2.8V7.9z M84.7,15.1c0-0.1-0.1-0.2-0.4-0.2c-0.5,0-2.9,0-3.9,0c0.5,0.7,1.2,1.4,2.2,1.8
		C83.8,16.1,84.7,15.3,84.7,15.1z"/>
	<path class="st1" d="M92.9,11.8c-0.7,1.4-1.5,2.7-2.4,3.6c-0.1,0.1-0.3,0.2-0.4,0.2c-0.3,0-0.5-0.2-0.5-0.4c0-0.1,0-0.2,0.1-0.4
		c1-1.1,2.4-2.9,3.1-4.8V10l-2.4,0c-0.3,0-0.4-0.2-0.4-0.4c0-0.2,0.1-0.4,0.4-0.4l2.4,0l-0.1-5.5c0-0.3,0.2-0.5,0.5-0.5
		c0.2,0,0.5,0.2,0.5,0.5c0,0,0,3.3,0,5.5l2,0c0.3,0,0.4,0.2,0.4,0.4c0,0.2-0.1,0.4-0.4,0.4l-2,0v1.2c0,0.7,0,7.5,0,7.5
		c0,0.3-0.2,0.4-0.5,0.4c-0.2,0-0.5-0.1-0.5-0.4L92.9,11.8z M91.4,7.6c-0.3-0.8-0.8-1.8-1-2.2c0-0.1-0.1-0.1-0.1-0.2
		c0-0.2,0.2-0.4,0.4-0.4c0.6,0,1.5,2.2,1.5,2.5c0,0.3-0.2,0.5-0.5,0.5C91.6,7.9,91.4,7.8,91.4,7.6z M95.6,13.8
		c-0.4-0.7-1-1.4-1.5-1.8c-0.1-0.1-0.1-0.1-0.1-0.2c0-0.2,0.2-0.4,0.4-0.4c0.4,0,2,1.7,2,2.1c0,0.3-0.2,0.5-0.5,0.5
		C95.8,14,95.7,13.9,95.6,13.8z M94.8,7.9c-0.2,0-0.4-0.2-0.4-0.4c0-0.1,0-0.1,0-0.1c0.3-0.5,0.8-1.6,1-2.3c0.1-0.2,0.2-0.3,0.4-0.3
		c0.2,0,0.5,0.2,0.5,0.4c0,0.4-0.7,1.8-1.1,2.5C95,7.8,94.9,7.9,94.8,7.9z M96.8,9.7c-0.3,0-0.4-0.2-0.4-0.4c0-0.2,0.1-0.4,0.4-0.4
		l4.1,0V7.5l-2.9,0c-0.3,0-0.4-0.2-0.4-0.4c0-0.2,0.1-0.4,0.4-0.4l2.9,0V5.5h-3.5c-0.3,0-0.4-0.2-0.4-0.4c0-0.2,0.1-0.4,0.4-0.4
		l3.5,0V3.4c0-0.3,0.2-0.5,0.5-0.5c0.2,0,0.5,0.1,0.5,0.5l0,1.3l3.7,0c0.3,0,0.4,0.2,0.4,0.4c0,0.2-0.1,0.4-0.4,0.4h-3.7v1.3l2.8,0
		c0.3,0,0.4,0.2,0.4,0.4c0,0.2-0.1,0.4-0.4,0.4l-2.8,0V9l4.3,0c0.3,0,0.4,0.2,0.4,0.4c0,0.2-0.1,0.4-0.4,0.4H96.8z M98.7,15.8
		c0,1,0,2.1,0,3v0c0,0.3-0.2,0.4-0.5,0.4s-0.5-0.2-0.5-0.5c0-1,0-2.1,0-3.3s0-2.2,0-3.2c0-0.9,0.5-1.5,1.8-1.5c0.6,0,1.2,0,1.7,0
		s1.1,0,1.7,0c1.2,0,1.7,0.6,1.7,1.4c0,0.3,0,2.8,0,3.3c0,0.6,0,1.2,0,1.7v0.1c0,0.8-0.2,1.7-1.9,1.7c-1.2,0-1.6-0.2-1.6-0.6
		c0-0.2,0.1-0.4,0.4-0.4c0,0,0.1,0,0.1,0c0.4,0.1,0.8,0.1,1,0.1c0.6,0,0.9-0.2,0.9-1c0-0.4,0-0.8,0-1.3H98.7z M103.8,13.7h-5.1v1.4
		h5.1V13.7z M103.8,12.4c0-0.5-0.2-0.8-1-0.8c-0.5,0-1.1,0-1.6,0s-1,0-1.5,0c-0.7,0-1,0.4-1,0.8V13h5.1L103.8,12.4z"/>
	<path class="st1" d="M109.5,18.7c-0.3,0-0.4-0.2-0.4-0.4c0-0.2,0.1-0.4,0.4-0.4l6.7,0v-3.3h-2.5c-0.1,0.2-0.2,0.4-0.4,0.7
		c0.5,0.3,1.7,1.2,1.7,1.6c0,0.2-0.2,0.4-0.4,0.4c-0.1,0-0.2,0-0.3-0.1c-0.4-0.6-1-1.1-1.4-1.4c-0.4,0.6-1.2,1.6-1.6,1.6
		c-0.2,0-0.4-0.2-0.4-0.4c0-0.1,0-0.1,0.1-0.2c0.7-0.5,1.4-1.4,1.8-2.2h-2.4c-0.3,0-0.4-0.2-0.4-0.4c0-0.2,0.1-0.4,0.4-0.4h12.3
		c0.3,0,0.4,0.2,0.4,0.4c0,0.2-0.1,0.4-0.4,0.4h-2.2c-0.1,0.2-0.2,0.4-0.4,0.7c0.6,0.2,1.9,1.3,1.9,1.7c0,0.2-0.2,0.4-0.4,0.4
		c-0.1,0-0.2,0-0.2-0.1c-0.5-0.6-1.2-1.2-1.5-1.4c-0.5,0.7-1.3,1.6-1.6,1.6c-0.2,0-0.4-0.2-0.4-0.4c0-0.1,0-0.2,0.1-0.2
		c0.7-0.5,1.3-1.4,1.8-2.2l-2.7,0v3.3l6.7,0c0.3,0,0.4,0.2,0.4,0.4c0,0.2-0.1,0.4-0.4,0.4H109.5z M123,7.1c0-0.6-0.3-0.9-1.3-0.9
		c-1.2,0-2.9,0-4.6,0v2.9c0,0.3-0.2,0.5-0.5,0.5c-0.3,0-0.5-0.2-0.5-0.5l0-2.9c-1.8,0-3.5,0-4.6,0c-1.1,0-1.3,0.4-1.3,0.9v1.2
		c0,0.3-0.3,0.4-0.5,0.4c-0.5,0-0.5-0.3-0.5-1.1c0-0.2,0-0.5,0-0.8c0-0.7,0.5-1.4,2-1.4c1.4,0,3.2,0,5,0V4.3l-5,0
		c-0.3,0-0.4-0.2-0.4-0.4c0-0.2,0.1-0.4,0.4-0.4h11c0.3,0,0.4,0.2,0.4,0.4c0,0.2-0.1,0.4-0.4,0.4l-5.1,0l0,1.2c1.8,0,3.5,0,5,0
		c2,0,2,1.2,2,2.3c0,0.7-0.1,0.9-0.5,0.9c-0.2,0-0.5-0.1-0.5-0.4V7.1z M112.2,13c-1.5,0-1.8-0.1-1.8-1.1c0-0.3,0-0.7,0-0.9
		c0-0.8,0.6-0.8,1.8-0.8c1.6,0,1.8,0,1.8,1.4C114,12.9,113.8,13,112.2,13z M113.3,11.1c0-0.3-0.1-0.4-0.4-0.4c-0.2,0-0.4,0-0.7,0
		c-0.3,0-0.5,0-0.7,0c-0.2,0-0.4,0.1-0.4,0.4v0.8c0,0.4,0.1,0.4,1.1,0.4c0.8,0,1.1,0,1.1-0.4V11.1z M111.6,9.3
		c-0.2,0-0.4-0.2-0.4-0.3c0-0.1,0.1-0.3,0.4-0.3h3c0.2,0,0.3,0.2,0.3,0.3c0,0.2-0.1,0.3-0.3,0.3H111.6z M111.8,7.8
		c-0.2,0-0.4-0.2-0.4-0.3c0-0.1,0.1-0.3,0.4-0.3h2.8c0.2,0,0.3,0.2,0.3,0.3c0,0.2-0.1,0.3-0.3,0.3H111.8z M116.5,13
		c-1.6,0-1.8-0.1-1.8-1.1c0-0.3,0-0.7,0-0.9c0-0.8,0.6-0.8,1.8-0.8c1.6,0,1.8,0,1.8,1.4C118.3,12.8,118.2,13,116.5,13z M116.5,10.7
		c-0.3,0-0.5,0-0.7,0c-0.2,0-0.4,0.1-0.4,0.4v0.8c0,0.4,0.2,0.4,1.1,0.4c0.9,0,1.1-0.1,1.1-0.4c0-0.1,0-0.7,0-0.8
		c0-0.3-0.2-0.4-0.4-0.4C117,10.7,116.8,10.7,116.5,10.7z M118.6,7.8c-0.2,0-0.3-0.2-0.3-0.3c0-0.1,0.1-0.3,0.3-0.3h2.8
		c0.2,0,0.4,0.2,0.4,0.3c0,0.1-0.1,0.3-0.4,0.3H118.6z M118.6,9.3c-0.2,0-0.3-0.2-0.3-0.3c0-0.1,0.1-0.3,0.3-0.3h3
		c0.2,0,0.4,0.2,0.4,0.3c0,0.1-0.1,0.3-0.4,0.3H118.6z M119.1,11c0-0.8,0.6-0.8,1.8-0.8c1.6,0,1.8,0,1.8,1.4c0,1.3-0.2,1.4-1.8,1.4
		c-1.5,0-1.8-0.1-1.9-0.9V11z M119.8,11.9c0,0.4,0.1,0.4,1.2,0.4c0.9,0,1.1-0.1,1.1-0.4c0-0.1,0-0.7,0-0.8c0-0.3-0.1-0.4-1.1-0.4
		c-0.9,0-1.1,0.1-1.1,0.4V11.9z"/>
</g>
<g class="st2">
	<path class="st1" d="M138.5,11.3c0.4,0,0.6,0.3,0.6,0.6c0,0.3-0.2,0.6-0.6,0.6c-1.4,0-2.4,0-3.2,0c-0.7,0-1.3,0-2,0
		c-0.2,0-0.6,0-0.6-0.6c0-0.3,0.2-0.6,0.6-0.6h0c0.7,0,1.6,0,2.5,0C136.8,11.3,137.7,11.3,138.5,11.3L138.5,11.3z"/>
</g>
</svg>
