<?xml version="1.0" encoding="utf-8"?>
<!-- Generator: Adobe Illustrator 19.0.0, SVG Export Plug-In . SVG Version: 6.00 Build 0)  -->
<svg version="1.1" id="Layer_1" xmlns="http://www.w3.org/2000/svg" xmlns:xlink="http://www.w3.org/1999/xlink" x="0px" y="0px"
	 viewBox="-279 256 400 50" style="enable-background:new -279 256 400 50;" xml:space="preserve">
<style type="text/css">
	.st0{fill:#666666;}
	.st1{fill:#DB4D4D;}
</style>
<g id="fixed_icon">
	<g id="XMLID_38_">
		<g id="XMLID_39_">
			<path id="XMLID_120_" class="st0" d="M-240.4,296.5c-9.9,0.1-19.9-0.2-29.8,0.2c-1.2,0-1.1,1.9,0.1,1.9
				c9.9-0.4,19.9-0.1,29.8-0.2C-239.2,298.4-239.3,296.5-240.4,296.5z"/>
			<path id="XMLID_119_" class="st0" d="M-270.2,286.8c-1.2,0-1.1,1.9,0.1,1.9c9.9-0.4,19.9-0.1,29.8-0.2c1.2,0,1.1-1.9-0.1-1.9
				C-250.4,286.7-260.3,286.4-270.2,286.8z"/>
			<path id="XMLID_118_" class="st0" d="M-240.5,279.1c-9.9,0.1-19.9-0.2-29.8,0.2c-1.2,0-1.1,1.9,0.1,1.9
				c9.9-0.4,19.9-0.1,29.8-0.2C-239.3,280.9-239.3,279-240.5,279.1z"/>
			<path id="XMLID_117_" class="st0" d="M-240.5,282.9c-9.9,0.2-19.8,0-29.8,0.4c-1.2,0-1.1,1.4,0,1.3c9.9-0.4,19.8-0.2,29.8-0.4
				C-239.3,284.2-239.3,282.9-240.5,282.9z"/>
			<path id="XMLID_116_" class="st0" d="M-270.3,263.7c-1.2,0-1.1,1.9,0.1,1.9c9.9-0.4,19.9-0.1,29.8-0.2c1.2,0,1.1-1.9-0.1-1.9
				C-250.4,263.6-260.4,263.3-270.3,263.7z"/>
			<path id="XMLID_115_" class="st0" d="M-270.2,269.1c9.9-0.4,19.8-0.2,29.8-0.4c1.2,0,1.1-1.4,0-1.3c-9.9,0.2-19.8,0-29.8,0.4
				C-271.4,267.8-271.4,269.1-270.2,269.1z"/>
			<path id="XMLID_114_" class="st0" d="M-240.5,290.4c-9.9,0.1-19.9-0.2-29.8,0.2c-1.2,0-1.1,4.3,0.1,4.2
				c9.9-0.4,19.9-0.1,29.8-0.2C-239.2,294.6-239.3,290.4-240.5,290.4z"/>
			<path id="XMLID_113_" class="st0" d="M-240.5,271c-9.9,0.1-19.9-0.2-29.8,0.2c-1.2,0-1.1,6.2,0.1,6.1c9.9-0.4,19.9-0.1,29.8-0.2
				C-239.3,277.2-239.3,271-240.5,271z"/>
			<path id="XMLID_91_" class="st0" d="M-238.3,295.9c-0.8,1.4,4.2,3.3,3.9,0c-0.1-0.9-0.7-1.3-1.4-1.4c-0.1,0-0.3,0-0.4,0
				C-237.2,294.6-237.9,295-238.3,295.9z M-235.8,295.9C-235.8,296-235.7,296-235.8,295.9C-235.7,296-235.7,296-235.8,295.9
				C-235.7,296-235.7,296-235.8,295.9c0,0.1,0,0.1,0,0.1c0,0.1,0,0.1-0.1,0.2c-0.4,0.2-0.8,0.1-1.1-0.1
				C-236.6,296-236.2,295.9-235.8,295.9C-235.8,295.9-235.8,296-235.8,295.9z"/>
			<path id="XMLID_87_" class="st0" d="M-238.3,289.8c-0.8,1.4,4.2,3.3,3.9,0c-0.1-0.9-0.7-1.3-1.4-1.4c-0.1,0-0.3,0-0.4,0
				C-237.2,288.5-237.9,288.9-238.3,289.8z M-235.8,289.9C-235.8,289.9-235.7,289.9-235.8,289.9
				C-235.7,289.9-235.7,289.9-235.8,289.9C-235.7,289.9-235.7,289.9-235.8,289.9c0,0.1,0,0.1,0,0.1c0,0.1,0,0.1-0.1,0.2
				c-0.4,0.2-0.8,0.1-1.1-0.1C-236.6,289.9-236.2,289.8-235.8,289.9C-235.8,289.8-235.8,289.9-235.8,289.9z"/>
			<path id="XMLID_74_" class="st0" d="M-238.3,283.7c-0.8,1.4,4.2,3.3,3.9,0c-0.1-0.9-0.7-1.3-1.4-1.4c-0.1,0-0.3,0-0.4,0
				C-237.2,282.4-237.9,282.8-238.3,283.7z M-235.8,283.8C-235.8,283.8-235.7,283.8-235.8,283.8
				C-235.7,283.8-235.7,283.8-235.8,283.8C-235.7,283.8-235.7,283.8-235.8,283.8c0,0.1,0,0.1,0,0.1c0,0.1,0,0.1-0.1,0.2
				c-0.4,0.2-0.8,0.1-1.1-0.1C-236.6,283.8-236.2,283.7-235.8,283.8C-235.8,283.7-235.8,283.8-235.8,283.8z"/>
			<path id="XMLID_51_" class="st0" d="M-238.3,277.6c-0.8,1.4,4.2,3.3,3.9,0c-0.1-0.9-0.7-1.3-1.4-1.4c-0.1,0-0.3,0-0.4,0
				C-237.2,276.3-237.9,276.8-238.3,277.6z M-235.8,277.7C-235.8,277.7-235.7,277.7-235.8,277.7
				C-235.7,277.7-235.7,277.7-235.8,277.7C-235.7,277.7-235.7,277.8-235.8,277.7C-235.8,277.8-235.8,277.8-235.8,277.7
				c0,0.2,0,0.2-0.1,0.3c-0.4,0.2-0.8,0.1-1.1-0.1C-236.6,277.7-236.2,277.6-235.8,277.7L-235.8,277.7z"/>
			<path id="XMLID_46_" class="st0" d="M-238.3,271.6c-0.8,1.4,4.2,3.3,3.9,0c-0.1-0.9-0.7-1.3-1.4-1.4c-0.1,0-0.3,0-0.4,0
				C-237.2,270.2-237.9,270.7-238.3,271.6z M-235.8,271.6C-235.8,271.6-235.7,271.6-235.8,271.6
				C-235.7,271.7-235.7,271.7-235.8,271.6C-235.7,271.6-235.7,271.7-235.8,271.6c0,0.1,0,0.1,0,0.1c0,0.1,0,0.1-0.1,0.2
				c-0.4,0.2-0.8,0.1-1.1-0.1C-236.6,271.6-236.2,271.5-235.8,271.6L-235.8,271.6z"/>
			<path id="XMLID_40_" class="st0" d="M-238.3,265.5c-0.8,1.4,4.2,3.3,3.9,0c-0.1-0.9-0.7-1.3-1.4-1.4c-0.1,0-0.3,0-0.4,0
				C-237.2,264.1-237.9,264.6-238.3,265.5z M-235.8,265.5C-235.8,265.5-235.7,265.5-235.8,265.5
				C-235.7,265.6-235.7,265.6-235.8,265.5C-235.7,265.6-235.7,265.6-235.8,265.5c0,0.1,0,0.1,0,0.1c0,0.1,0,0.1-0.1,0.2
				c-0.4,0.2-0.8,0.1-1.1-0.1C-236.6,265.5-236.2,265.4-235.8,265.5L-235.8,265.5z"/>
		</g>
	</g>
	<g id="XMLID_42_">
		<path id="XMLID_140_" d="M-142.7,267.5c-2.3-2-5.2-2.8-8.2-3.2c-8-2.5-15,2.7-18.1,10c-3.3,7.8-1.8,16.6,5.5,21.5
			c7.4,5,17.5,2.9,23.2-3.6C-134.1,285-135.6,273.6-142.7,267.5z M-156.3,296c-4.2-0.6-8.3-3.2-10.4-6.9c-1.9-3.3-1.9-7.4-1-11
			c1.3-5.5,5.3-10.5,10.4-11.7l0,0c1.9,0.1,3.8,0.1,5.8,0.3c0.2,0.1,0.4,0.1,0.5,0.2c0.3,0.1,0.6,0.1,0.8,0c2.1,0.3,4.1,1,5.7,2.3
			c3.7,2.9,5.7,8.2,5.6,12.9C-139,290.9-148,297.2-156.3,296z"/>
	</g>
	<g id="XMLID_148_">
		<path id="XMLID_274_" d="M-54.9,272L-54.9,272L-54.9,272c0.3,1.4,1.4,2.5,2.7,3.2c1.4,0.7,3,1,4.3,0.7l0,0l0,0
			c1.1-0.3,2.5-0.9,3.3-2c0.6-0.8,1.1-1.8,1-3.1l0,0l0,0c-0.2-2-0.8-3.3-2-4.2s-2.8-1.2-4.9-1l0,0l0,0c-0.3,0-0.6,0.1-0.9,0.1
			c-1.3,0.3-2.3,1.1-2.9,2.1c-0.6,1-0.9,2.2-0.8,3.4C-55,271.4-55,271.6-54.9,272L-54.9,272L-54.9,272L-54.9,272L-54.9,272z
			 M-56.7,272.3L-56.7,272.3L-56.7,272.3c-0.1-0.4-0.1-0.7-0.2-1.1c-0.1-1.5,0.2-3.1,1.1-4.5c0.8-1.3,2.2-2.4,4-2.8
			c0.4-0.1,0.8-0.1,1.2-0.2l0,0l0,0l0,0c2.5-0.2,4.6,0.3,6.1,1.4c1.6,1.2,2.5,3,2.7,5.5l0,0l0,0l0,0c0.1,1.8-0.4,3.3-1.4,4.4
			c-1.2,1.4-2.9,2.3-4.3,2.6l0,0c-1.8,0.4-3.8,0.1-5.6-0.8C-54.8,275.8-56.2,274.3-56.7,272.3C-56.7,272.4-56.7,272.3-56.7,272.3
			L-56.7,272.3z"/>
		<path id="XMLID_153_" d="M-37.3,290.7c0,0.2,0,0.3,0,0.7l0,0l0,0c0,0.5-0.4,0.9-0.9,0.9c-0.9,0-2,0.1-3.4,0.2
			c-5.2,0.3-13.1,0.9-19.1-0.1c-0.4-0.1-0.7-0.4-0.8-0.8c-0.1-1.4,0-2.8,0.2-4.1c0.2-1.6,0.6-3,1-3.9c0.8-1.8,1.6-3.5,2.9-4.8
			c1.4-1.3,3.2-2.3,6-2.4c3.4-0.2,5.9,0.3,8,1.4c2,1.2,3.5,3,4.7,5.4C-37.6,285.1-37.4,287.9-37.3,290.7L-37.3,290.7z M-39.1,290.6
			c-0.2-2.5-0.4-5-1.2-6.7c-1-2.1-2.3-3.6-4-4.6s-4-1.4-7-1.2c-2.3,0.2-3.8,0.9-4.9,1.9c-1.1,1.1-1.9,2.6-2.5,4.2
			c-0.3,0.8-0.7,2-0.9,3.4c-0.1,1-0.2,2-0.2,3.1c5.7,0.8,13.1,0.3,18,0C-40.6,290.7-39.8,290.6-39.1,290.6L-39.1,290.6z"/>
		<path id="XMLID_152_" d="M-60.7,282.1c-1.8-0.9-3.2-2.5-3.6-4.4l0,0c-0.1-0.4-0.1-0.7-0.2-1.1c-0.1-1.5,0.2-3.1,1.1-4.5
			c0.8-1.3,2.2-2.4,4-2.8c0.4-0.1,0.8-0.1,1.2-0.2l0,0l0,0l0,0c2.5-0.2,4.5,0.2,6,1.3c0,0,0,0,0.1,0c1.6,1.2,2.5,3,2.7,5.5l0,0l0,0
			l0,0c0.1,1.8-0.4,3.3-1.4,4.4c-1.2,1.4-2.9,2.3-4.3,2.6l0,0C-56.9,283.4-59,283-60.7,282.1L-60.7,282.1z"/>
		<path id="XMLID_151_" d="M-62.6,277.3c0.3,1.4,1.4,2.5,2.7,3.2c1.4,0.7,3,1,4.3,0.7l0,0c1.1-0.3,2.5-0.9,3.3-2
			c0.6-0.8,1.1-1.8,1-3.1l0,0l0,0c-0.2-2-0.8-3.3-2-4.2c0,0,0,0-0.1,0c-1.2-0.8-2.8-1.2-4.9-1l0,0l0,0c-0.3,0-0.6,0.1-0.9,0.1
			c-1.3,0.3-2.3,1.1-2.9,2.1c-0.6,1-0.9,2.2-0.8,3.4C-62.7,276.7-62.7,277-62.6,277.3L-62.6,277.3L-62.6,277.3z"/>
		<path id="XMLID_150_" d="M-45,296c0,0.2,0,0.3,0,0.7l0,0l0,0c0,0.5-0.4,0.9-0.9,0.9c-0.9,0-2,0.1-3.4,0.2
			c-5.2,0.3-13.1,0.9-19.1-0.1c-0.4-0.1-0.7-0.4-0.8-0.8c-0.1-1.4,0-2.8,0.2-4.1c0.2-1.6,0.6-3,1-3.9c0.8-1.8,1.6-3.5,2.9-4.8
			c1.4-1.3,3.2-2.3,6-2.4c3.4-0.2,5.9,0.3,8,1.4c2,1.2,3.5,3,4.7,5.4C-45.3,290.5-45.1,293.3-45,296L-45,296z"/>
		<path id="XMLID_149_" d="M-46.7,295.9c-0.2-2.5-0.4-5-1.2-6.7c-1-2.1-2.3-3.6-4-4.6s-4-1.4-7-1.2c-2.3,0.2-3.8,0.9-4.9,1.9
			c-1.1,1.1-1.9,2.6-2.5,4.2c-0.3,0.8-0.7,2-0.9,3.4c-0.1,1-0.2,2-0.2,3.1c5.7,0.8,13.1,0.3,18,0C-48.3,296-47.5,296-46.7,295.9
			L-46.7,295.9z"/>
	</g>
	<g id="XMLID_19_">
		<path id="XMLID_29_" d="M37.9,287.9c0.3,1.1,0.5,1.9,0.7,2.7c0.4,0,0.7,0.1,1.1,0.1c3.4,0,6.8,0.1,10.2,0.1c2.3,0,4.7-0.1,7-0.1
			c1.1,0,3.2,1.3,3.6,2.3c0.6,1.3,0.3,3-0.7,4.1c-1.2,1.2-3.6,1.4-4.8,0.3c-1.2-1.1-1.3-3.1-0.2-4.5c0.1-0.2,0.3-0.4,0.6-0.7
			c-3.6-0.1-6.9-0.1-10.4-0.2c0.2,0.5,0.5,0.8,0.6,1.2c0.9,2.1-0.2,4.5-2.5,5c-2.1,0.5-4.1-1-4.1-3.2c0-1,0.3-1.9,0.5-2.9
			c-0.1,0-0.1-0.1-0.2-0.1c-1.9-0.1-1.8-0.1-2.4-1.9c-1.2-4.2-2.5-8.3-3.6-12.5c-0.8-2.8-1.4-5.7-2.1-8.5c-0.2-0.8-0.4-1.7-0.7-2.5
			c-0.2-0.7-0.6-1.3-1.5-1.5c0,0.2-0.1,0.3-0.1,0.4c-0.1,1.5-1.1,2.5-2.6,2.4c-0.8,0-1.2-0.6-1.5-1.3c-0.3-0.7,0-1.3,0.4-1.9
			c0.8-0.9,1.8-1.1,2.9-1.1c2.4,0.1,3,0.6,3.7,2.9c0,0.1,0.1,0.2,0.1,0.3c0.6,2,0.6,2,2.6,2c4.1,0,8.1,0.1,12.2,0.1
			c2.9,0,5.7-0.1,8.6,0c3.1,0,6.1,0.1,9.2,0.2c0.1,0,0.3,0,0.4,0c1,0.1,1.2,0.4,1.1,1.4c-0.4,3-1,6-1.9,9c-0.6,2.2-1.1,4.5-1.6,6.8
			c-0.1,0.5-0.3,0.9-0.4,1.5C54.3,288.2,46.2,287.3,37.9,287.9z M32.9,270.3c0.2,0.9,0.2,1.5,0.4,2.1c1.3,4.3,2.6,8.7,3.9,13
			c0.3,1,0.5,1.2,1.6,1.2c1.6,0,3.1-0.2,4.7-0.2c3.2,0.1,6.4,0.3,9.6,0.4c2.3,0.1,4.7,0,7-0.1c1.2,0,1.2-0.1,1.4-1.2
			c0.2-1,0.4-2,0.7-3c1.2-3.8,2.1-7.8,2.9-12C54.3,270.1,43.7,269.9,32.9,270.3z M41.4,292.5c-0.8,1-1.3,2-0.6,3.2
			c0.6,1.1,1.4,1.6,2.5,1.2s1.7-1.4,1.4-2.5C44.3,293.2,43.5,292.1,41.4,292.5z M59.4,294.7c0-1.3-0.6-2-1.8-2
			c-1.1,0-2.2,1.1-2.2,2.3c0,1.1,0.9,2,1.9,2C58.7,296.9,59.4,296.1,59.4,294.7z M26,265.8c0.6,0.9,1.2,1.2,2,0.4
			c-0.3-0.4-0.5-0.9-0.9-1C26.9,265.2,26.4,265.6,26,265.8z"/>
		<path id="XMLID_25_" d="M35.4,273.1c0.4-0.1,0.6-0.2,0.9-0.2c5.1,0.1,10.2,0.2,15.3,0.3c2.3,0,4.7,0.1,7,0.1c0.3,0,0.7-0.1,1,0
			c0.5,0,0.8,0.4,0.8,0.9c0,0.2-0.4,0.4-0.7,0.5c-0.3,0.1-0.7,0-1,0c-3.5-0.1-7-0.3-10.5-0.4c-2.7-0.1-5.3-0.1-8-0.1
			c-1.2,0-2.5,0-3.7,0.1C35.7,274.4,35.5,273.9,35.4,273.1z"/>
		<path id="XMLID_24_" d="M60,279.3c-7.8-0.1-15.4-0.2-23.2-0.3c-0.1-0.1-0.2-0.5-0.4-0.9c1.1-0.5,2.2-0.3,3.2-0.3
			c2.5-0.1,5.1-0.1,7.6,0c3,0,6,0.2,9,0.2c0.9,0,1.7,0,2.6-0.1C59.8,277.9,60.1,278.4,60,279.3z"/>
		<path id="XMLID_22_" d="M37.9,282.1c0.8,0,1.4,0.1,2,0.1c5.6,0,11.2,0,16.8,0.1c0.8,0,1.6,0,2.5,0.1c0.5,0,0.8,0.4,0.7,0.9
			c-0.1,0.5-0.5,0.4-0.9,0.4c-5.2-0.1-10.3-0.2-15.5-0.2c-1.4,0-2.8,0-4.2,0C38.5,283.5,38.1,283.1,37.9,282.1z"/>
		<path id="XMLID_21_" d="M41.2,294.9c0.3-0.7,0.6-1.4,1.3-1.2c0.4,0.1,0.8,0.8,0.9,1.3c0.1,0.2-0.4,0.8-0.8,0.9
			C41.9,296.2,41.4,295.7,41.2,294.9z"/>
		<path id="XMLID_20_" d="M58.2,294.8c0,0.7-0.5,1.2-1.1,1.2c-0.5,0-0.8-0.3-0.8-0.8c0-0.6,0.5-1.2,1-1.1
			C57.7,294.2,58,294.6,58.2,294.8z"/>
	</g>
</g>
<g id="icon_hover">
	<g id="XMLID_216_">
		<path id="XMLID_224_" d="M-102.7,271.8c-0.3-0.3-0.6-0.4-0.9-0.4c-0.3,0-0.7,0.1-0.9,0.4l-8.6,7.7c-0.5,0.5-0.5,1.3,0,1.8
			s1.3,0.5,1.8,0l7.7-6.9l7.7,6.9c0.5,0.5,1.3,0.5,1.8,0s0.5-1.3,0-1.8L-102.7,271.8z"/>
		<path id="XMLID_223_" d="M-102.7,280.2c-0.3-0.3-0.6-0.4-0.9-0.4c-0.3,0-0.7,0.1-0.9,0.4l-8.6,7.6c-0.5,0.5-0.5,1.3,0,1.8
			s1.3,0.5,1.8,0l7.7-6.8l7.7,6.8c0.5,0.5,1.3,0.5,1.8,0s0.5-1.3,0-1.8L-102.7,280.2z"/>
		<path id="XMLID_217_" d="M-92.8,267.5c-2.3-2-5.2-2.8-8.2-3.2c-8-2.5-15,2.7-18.1,10c-3.3,7.8-1.8,16.6,5.5,21.5
			c7.4,5,17.5,2.9,23.2-3.6C-84.2,285-85.8,273.6-92.8,267.5z M-106.4,296c-4.2-0.6-8.3-3.2-10.4-6.9c-1.9-3.3-1.9-7.4-1-11
			c1.3-5.5,5.3-10.5,10.4-11.7l0,0c1.9,0.1,3.8,0.1,5.8,0.3c0.2,0.1,0.4,0.1,0.5,0.2c0.3,0.1,0.6,0.1,0.8,0c2.1,0.3,4.1,1,5.7,2.3
			c3.7,2.9,5.7,8.2,5.6,12.9C-89.1,290.9-98.1,297.2-106.4,296z"/>
	</g>
	<g id="XMLID_185_">
		<path id="XMLID_193_" class="st1" d="M-4.8,272L-4.8,272L-4.8,272c0.3,1.4,1.4,2.5,2.7,3.2c1.4,0.7,3,1,4.3,0.7l0,0l0,0
			c1.1-0.3,2.5-0.9,3.3-2c0.6-0.8,1.1-1.8,1-3.1l0,0l0,0c-0.2-2-0.8-3.3-2-4.2s-2.8-1.2-4.9-1l0,0l0,0c-0.3,0-0.6,0.1-0.9,0.1
			c-1.3,0.3-2.3,1.1-2.9,2.1s-0.9,2.2-0.8,3.4C-4.9,271.4-4.9,271.6-4.8,272L-4.8,272L-4.8,272L-4.8,272L-4.8,272z M-6.6,272.3
			L-6.6,272.3L-6.6,272.3c-0.1-0.4-0.1-0.7-0.2-1.1c-0.1-1.5,0.2-3.1,1.1-4.5c0.8-1.3,2.2-2.4,4-2.8c0.4-0.1,0.8-0.1,1.2-0.2l0,0
			l0,0l0,0c2.5-0.2,4.6,0.3,6.1,1.4c1.6,1.2,2.5,3,2.7,5.5l0,0l0,0l0,0c0.1,1.8-0.4,3.3-1.4,4.4c-1.2,1.4-2.9,2.3-4.3,2.6l0,0
			c-1.8,0.4-3.8,0.1-5.6-0.8C-4.7,275.8-6.1,274.3-6.6,272.3C-6.5,272.4-6.6,272.3-6.6,272.3L-6.6,272.3z"/>
		<path id="XMLID_190_" class="st1" d="M12.8,290.7c0,0.2,0,0.3,0,0.7l0,0l0,0c0,0.5-0.4,0.9-0.9,0.9c-0.9,0-2,0.1-3.4,0.2
			c-5.2,0.3-13.1,0.9-19.1-0.1c-0.4-0.1-0.7-0.4-0.8-0.8c-0.1-1.4,0-2.8,0.2-4.1c0.2-1.6,0.6-3,1-3.9c0.8-1.8,1.6-3.5,2.9-4.8
			c1.4-1.3,3.2-2.3,6-2.4c3.4-0.2,5.9,0.3,8,1.4c2,1.2,3.5,3,4.7,5.4C12.5,285.1,12.7,287.9,12.8,290.7L12.8,290.7z M11,290.6
			c-0.2-2.5-0.4-5-1.2-6.7c-1-2.1-2.3-3.6-4-4.6s-4-1.4-7-1.2c-2.3,0.2-3.8,0.9-4.9,1.9c-1.1,1.1-1.9,2.6-2.5,4.2
			c-0.3,0.8-0.7,2-0.9,3.4c-0.1,1-0.2,2-0.2,3.1c5.7,0.8,13.1,0.3,18,0C9.5,290.7,10.3,290.6,11,290.6L11,290.6z"/>
		<path id="XMLID_189_" class="st1" d="M-10.6,282.1c-1.8-0.9-3.2-2.5-3.6-4.4l0,0c-0.1-0.4-0.1-0.7-0.2-1.1
			c-0.1-1.5,0.2-3.1,1.1-4.5c0.8-1.3,2.2-2.4,4-2.8c0.4-0.1,0.8-0.1,1.2-0.2l0,0l0,0l0,0c2.5-0.2,4.5,0.2,6,1.3c0,0,0,0,0.1,0
			c1.6,1.2,2.5,3,2.7,5.5l0,0l0,0l0,0c0.1,1.8-0.4,3.3-1.4,4.4c-1.2,1.4-2.9,2.3-4.3,2.6l0,0C-6.8,283.4-8.9,283-10.6,282.1
			L-10.6,282.1z"/>
		<path id="XMLID_188_" class="st1" d="M-12.5,277.3c0.3,1.4,1.4,2.5,2.7,3.2c1.4,0.7,3,1,4.3,0.7l0,0c1.1-0.3,2.5-0.9,3.3-2
			c0.6-0.8,1.1-1.8,1-3.1l0,0l0,0c-0.2-2-0.8-3.3-2-4.2c0,0,0,0-0.1,0c-1.2-0.8-2.8-1.2-4.9-1l0,0l0,0c-0.3,0-0.6,0.1-0.9,0.1
			c-1.3,0.3-2.3,1.1-2.9,2.1s-0.9,2.2-0.8,3.4C-12.6,276.7-12.6,277-12.5,277.3L-12.5,277.3L-12.5,277.3z"/>
		<path id="XMLID_187_" class="st1" d="M5.1,296c0,0.2,0,0.3,0,0.7l0,0l0,0c0,0.5-0.4,0.9-0.9,0.9c-0.9,0-2,0.1-3.4,0.2
			c-5.2,0.3-13.1,0.9-19.1-0.1c-0.4-0.1-0.7-0.4-0.8-0.8c-0.1-1.4,0-2.8,0.2-4.1c0.2-1.6,0.6-3,1-3.9c0.8-1.8,1.6-3.5,2.9-4.8
			c1.4-1.3,3.2-2.3,6-2.4c3.4-0.2,5.9,0.3,8,1.4c2,1.2,3.5,3,4.7,5.4C4.8,290.5,5,293.3,5.1,296L5.1,296z"/>
		<path id="XMLID_186_" class="st1" d="M3.4,295.9c-0.2-2.5-0.4-5-1.2-6.7c-1-2.1-2.3-3.6-4-4.6s-4-1.4-7-1.2
			c-2.3,0.2-3.8,0.9-4.9,1.9c-1.1,1.1-1.9,2.6-2.5,4.2c-0.3,0.8-0.7,2-0.9,3.4c-0.1,1-0.2,2-0.2,3.1c5.7,0.8,13.1,0.3,18,0
			C1.8,296,2.6,296,3.4,295.9L3.4,295.9z"/>
	</g>
	<g id="XMLID_173_">
		<path id="XMLID_179_" class="st1" d="M87.9,287.9c0.3,1.1,0.5,1.9,0.7,2.7c0.4,0,0.7,0.1,1.1,0.1c3.4,0,6.8,0.1,10.2,0.1
			c2.3,0,4.7-0.1,7-0.1c1.1,0,3.2,1.3,3.6,2.3c0.6,1.3,0.3,3-0.7,4.1c-1.2,1.2-3.6,1.4-4.8,0.3c-1.2-1.1-1.3-3.1-0.2-4.5
			c0.1-0.2,0.3-0.4,0.6-0.7c-3.6-0.1-6.9-0.1-10.4-0.2c0.2,0.5,0.5,0.8,0.6,1.2c0.9,2.1-0.2,4.5-2.5,5c-2.1,0.5-4.1-1-4.1-3.2
			c0-1,0.3-1.9,0.5-2.9c-0.1,0-0.1-0.1-0.2-0.1c-1.9-0.1-1.8-0.1-2.4-1.9c-1.2-4.2-2.5-8.3-3.6-12.5c-0.8-2.8-1.4-5.7-2.1-8.5
			c-0.2-0.8-0.4-1.7-0.7-2.5c-0.2-0.7-0.6-1.3-1.5-1.5c0,0.2-0.1,0.3-0.1,0.4c-0.1,1.5-1.1,2.5-2.6,2.4c-0.8,0-1.2-0.6-1.5-1.3
			c-0.3-0.7,0-1.3,0.4-1.9c0.8-0.9,1.8-1.1,2.9-1.1c2.4,0.1,3,0.6,3.7,2.9c0,0.1,0.1,0.2,0.1,0.3c0.6,2,0.6,2,2.6,2
			c4.1,0,8.1,0.1,12.2,0.1c2.9,0,5.7-0.1,8.6,0c3.1,0,6.1,0.1,9.2,0.2c0.1,0,0.3,0,0.4,0c1,0.1,1.2,0.4,1.1,1.4c-0.4,3-1,6-1.9,9
			c-0.6,2.2-1.1,4.5-1.6,6.8c-0.1,0.5-0.3,0.9-0.4,1.5C104.3,288.2,96.2,287.3,87.9,287.9z M82.9,270.3c0.2,0.9,0.2,1.5,0.4,2.1
			c1.3,4.3,2.6,8.7,3.9,13c0.3,1,0.5,1.2,1.6,1.2c1.6,0,3.1-0.2,4.7-0.2c3.2,0.1,6.4,0.3,9.6,0.4c2.3,0.1,4.7,0,7-0.1
			c1.2,0,1.2-0.1,1.4-1.2c0.2-1,0.4-2,0.7-3c1.2-3.8,2.1-7.8,2.9-12C104.3,270.1,93.8,269.9,82.9,270.3z M91.4,292.5
			c-0.8,1-1.3,2-0.6,3.2c0.6,1.1,1.4,1.6,2.5,1.2s1.7-1.4,1.4-2.5C94.4,293.2,93.6,292.1,91.4,292.5z M109.5,294.7
			c0-1.3-0.6-2-1.8-2c-1.1,0-2.2,1.1-2.2,2.3c0,1.1,0.9,2,1.9,2C108.8,296.9,109.5,296.1,109.5,294.7z M76.1,265.8
			c0.6,0.9,1.2,1.2,2,0.4c-0.3-0.4-0.5-0.9-0.9-1C76.9,265.2,76.5,265.6,76.1,265.8z"/>
		<path id="XMLID_178_" class="st1" d="M85.5,273.1c0.4-0.1,0.6-0.2,0.9-0.2c5.1,0.1,10.2,0.2,15.3,0.3c2.3,0,4.7,0.1,7,0.1
			c0.3,0,0.7-0.1,1,0c0.5,0,0.8,0.4,0.8,0.9c0,0.2-0.4,0.4-0.7,0.5c-0.3,0.1-0.7,0-1,0c-3.5-0.1-7-0.3-10.5-0.4
			c-2.7-0.1-5.3-0.1-8-0.1c-1.2,0-2.5,0-3.7,0.1C85.8,274.4,85.6,273.9,85.5,273.1z"/>
		<path id="XMLID_177_" class="st1" d="M110.1,279.3c-7.8-0.1-15.4-0.2-23.2-0.3c-0.1-0.1-0.2-0.5-0.4-0.9c1.1-0.5,2.2-0.3,3.2-0.3
			c2.5-0.1,5.1-0.1,7.6,0c3,0,6,0.2,9,0.2c0.9,0,1.7,0,2.6-0.1C109.8,277.9,110.1,278.4,110.1,279.3z"/>
		<path id="XMLID_176_" class="st1" d="M88,282.1c0.8,0,1.4,0.1,2,0.1c5.6,0,11.2,0,16.8,0.1c0.8,0,1.6,0,2.5,0.1
			c0.5,0,0.8,0.4,0.7,0.9c-0.1,0.5-0.5,0.4-0.9,0.4c-5.2-0.1-10.3-0.2-15.5-0.2c-1.4,0-2.8,0-4.2,0C88.6,283.5,88.2,283.1,88,282.1z
			"/>
		<path id="XMLID_175_" class="st1" d="M91.3,294.9c0.3-0.7,0.6-1.4,1.3-1.2c0.4,0.1,0.8,0.8,0.9,1.3c0.1,0.2-0.4,0.8-0.8,0.9
			C92,296.2,91.5,295.7,91.3,294.9z"/>
		<path id="XMLID_174_" class="st1" d="M108.3,294.8c0,0.7-0.5,1.2-1.1,1.2c-0.5,0-0.8-0.3-0.8-0.8c0-0.6,0.5-1.2,1-1.1
			C107.7,294.2,108,294.6,108.3,294.8z"/>
	</g>
</g>
</svg>
