<?xml version="1.0" encoding="utf-8"?>
<!-- Generator: Adobe Illustrator 19.0.0, SVG Export Plug-In . SVG Version: 6.00 Build 0)  -->
<svg version="1.1" id="Layer_1" xmlns="http://www.w3.org/2000/svg" xmlns:xlink="http://www.w3.org/1999/xlink" x="0px" y="0px"
	 viewBox="-199 101 560 360" style="enable-background:new -199 101 560 360;" xml:space="preserve">
<style type="text/css">
	.st0{fill:#666666;}
	.st1{fill:#FF9999;}
</style>
<g id="BG">
</g>
<g id="header_x5F_logo">
	<g id="XMLID_41_">
		<path id="XMLID_310_" class="st0" d="M-168.6,165.6l-1.4,0.7c0-0.1-0.2-0.5-0.6-1.3c-0.4-0.8-0.8-1.8-1.4-3.1h-5.2
			c-0.6,1.4-1.1,2.4-1.4,3.2c-0.3,0.8-0.5,1.2-0.6,1.3l-1.2-0.6c0.2-0.3,0.8-1.6,1.9-4s2.3-4.9,3.4-7.5h1.1c1.2,2.6,2.3,5.2,3.5,7.6
			C-169.3,164.3-168.6,165.5-168.6,165.6z M-172.4,160.7c-0.3-0.7-0.6-1.5-1-2.2c-0.3-0.8-0.7-1.6-1.1-2.4l0,0
			c-0.3,0.6-0.7,1.4-1.1,2.4c-0.4,0.9-0.8,1.7-1,2.3l0,0L-172.4,160.7L-172.4,160.7z"/>
		<path id="XMLID_313_" class="st0" d="M-156.3,162.6c0,0.6-0.2,1.1-0.5,1.6c-0.2,0.4-0.7,0.8-1.2,1.1s-1.1,0.5-1.7,0.6
			c-0.6,0.1-1.3,0.2-2.1,0.2c-0.6,0-1.2,0-1.8,0c-0.6,0-1,0-1,0c0-1.1,0-2.2,0-3.2s0-2,0-2.9c0-1.7,0-3.1,0-4.1s0-1.5,0-1.6
			c0.1,0,0.4,0,1,0c0.6,0,1.1,0,1.6,0c0.6,0,1.2,0,1.7,0.1c0.5,0.1,0.9,0.2,1.3,0.3c0.5,0.2,1,0.5,1.3,0.9c0.3,0.4,0.5,0.9,0.5,1.5
			c0,0.6-0.2,1.1-0.6,1.6c-0.4,0.5-0.8,0.8-1.3,1v0.1c0.4,0,0.8,0.1,1.2,0.3c0.4,0.2,0.7,0.4,1,0.7c0.3,0.3,0.4,0.5,0.6,0.8
			S-156.3,162.1-156.3,162.6z M-157.8,162.6c0-0.3-0.1-0.6-0.2-0.8s-0.3-0.5-0.5-0.7c-0.2-0.2-0.5-0.4-0.8-0.5
			c-0.3-0.1-0.7-0.2-1.1-0.2c-0.3,0-0.6,0-0.8,0s-0.3,0-0.4,0l-0.1-1.1c0.4,0,0.8-0.1,1.1-0.2c0.3-0.1,0.6-0.2,0.9-0.4
			c0.2-0.2,0.4-0.4,0.6-0.7c0.2-0.3,0.2-0.6,0.2-0.9c0-0.4-0.1-0.7-0.3-0.9s-0.4-0.5-0.7-0.6c-0.3-0.1-0.6-0.2-0.9-0.3
			c-0.4-0.1-0.8-0.1-1.2-0.1c-0.3,0-0.5,0-0.8,0s-0.4,0-0.4,0c0,0.9,0,1.8,0,2.7c0,0.9,0,1.7,0,2.1c0,1,0,2,0,3s0,1.6,0,1.6
			c0.1,0,0.3,0,0.5,0s0.4,0,0.6,0c0.7,0,1.3,0,1.9-0.1c0.6-0.1,1.1-0.2,1.5-0.4c0.3-0.2,0.6-0.4,0.8-0.7
			C-157.9,163.3-157.8,163-157.8,162.6z"/>
		<path id="XMLID_316_" class="st0" d="M-140.9,160.1c0,0.9-0.2,1.8-0.5,2.6c-0.3,0.8-0.7,1.4-1.3,2c-0.6,0.6-1.2,1-1.8,1.3
			s-1.3,0.4-2.1,0.4c-0.7,0-1.4-0.1-2.1-0.4s-1.2-0.6-1.7-1.1c-0.6-0.5-1-1.2-1.4-2c-0.4-0.8-0.5-1.7-0.5-2.7c0-0.9,0.1-1.7,0.4-2.5
			c0.3-0.7,0.7-1.4,1.2-2c0.5-0.6,1.1-1,1.8-1.3c0.7-0.3,1.4-0.5,2.2-0.5s1.5,0.1,2.2,0.4c0.7,0.3,1.3,0.7,1.7,1.2
			c0.6,0.6,1,1.3,1.3,2.1C-141.1,158.4-140.9,159.2-140.9,160.1z M-142.4,160.3c0-0.8-0.1-1.5-0.4-2.2c-0.3-0.7-0.6-1.4-1.2-1.9
			c-0.4-0.3-0.7-0.6-1.2-0.8c-0.5-0.2-0.9-0.3-1.5-0.3c-0.5,0-1,0.1-1.5,0.3c-0.5,0.2-0.9,0.5-1.2,0.8c-0.5,0.5-0.8,1-1.1,1.7
			c-0.3,0.7-0.4,1.4-0.4,2.2c0,0.8,0.1,1.6,0.4,2.3c0.3,0.7,0.6,1.2,1.1,1.7c0.3,0.3,0.7,0.6,1.2,0.8c0.5,0.2,0.9,0.3,1.5,0.3
			c0.6,0,1-0.1,1.5-0.3c0.5-0.2,0.9-0.5,1.2-0.8c0.4-0.4,0.8-1,1.1-1.6C-142.5,161.8-142.4,161.1-142.4,160.3z"/>
		<path id="XMLID_319_" class="st0" d="M-126.3,154.3c0,1.1,0,2.1,0,2.8c0,0.7,0,1.4,0,1.9c0,0.7,0,1.2,0,1.7s0,0.9,0,1.2
			c0,0.7-0.1,1.3-0.3,1.8s-0.5,1-0.9,1.4c-0.4,0.4-0.9,0.7-1.5,0.9c-0.6,0.2-1.3,0.3-2.1,0.3s-1.5-0.1-2.1-0.3
			c-0.6-0.2-1.1-0.5-1.5-0.9c-0.4-0.4-0.7-0.8-0.9-1.4s-0.4-1.1-0.4-1.8c0-0.3,0-0.8,0-1.2c0-0.4,0-1,0-1.7c0-0.5,0-1.2,0-1.9
			c0-0.7,0-1.7,0-2.8h1.5c0,0.1,0,0.6,0,1.5c0,0.9,0,2,0,3.4c0,0.4,0,0.9,0,1.3s0,0.9,0,1.4c0,1.1,0.3,1.9,0.9,2.4
			c0.6,0.5,1.4,0.8,2.5,0.8c1.1,0,2-0.3,2.6-0.8c0.6-0.5,0.9-1.4,0.9-2.5c0-0.5,0-0.9,0-1.4s0-0.9,0-1.3c0-1.4,0-2.5,0-3.4
			c0-0.9,0-1.4,0-1.5L-126.3,154.3L-126.3,154.3z"/>
		<path id="XMLID_321_" class="st0" d="M-112.4,155.5c-0.1,0-0.5,0-1.2,0s-1.7,0-3.1,0c0,1.2,0,2.1,0,2.7c0,0.6,0,1.5,0,2.5
			s0,2.1,0,3.1c0,1.1,0,1.8,0,2.1h-1.5c0-0.4,0-1.1,0-2.2c0-1.1,0-2.1,0-3.2c0-1,0-1.8,0-2.4c0-0.6,0-1.5,0-2.8c-1.2,0-2.3,0-3,0
			s-1.2,0-1.3,0v-1.2c0.6,0,1.3,0,2.2,0s1.8,0,2.8,0c1.4,0,2.6,0,3.6,0s1.5,0,1.5,0V155.5z"/>
		<path id="XMLID_323_" class="st0" d="M-92.6,154.3c0,1.1,0,2.1,0,2.8c0,0.7,0,1.4,0,1.9c0,0.7,0,1.2,0,1.7s0,0.9,0,1.2
			c0,0.7-0.1,1.3-0.3,1.8s-0.5,1-0.9,1.4c-0.4,0.4-0.9,0.7-1.5,0.9s-1.3,0.3-2.1,0.3s-1.5-0.1-2.1-0.3s-1.1-0.5-1.5-0.9
			c-0.4-0.4-0.7-0.8-0.9-1.4s-0.3-1.1-0.3-1.8c0-0.3,0-0.8,0-1.2s0-1,0-1.7c0-0.5,0-1.2,0-1.9s0-1.7,0-2.8h1.5c0,0.1,0,0.6,0,1.5
			c0,0.9,0,2,0,3.4c0,0.4,0,0.9,0,1.3s0,0.9,0,1.4c0,1.1,0.3,1.9,0.9,2.4s1.4,0.8,2.5,0.8s2-0.3,2.6-0.8s0.9-1.4,0.9-2.5
			c0-0.5,0-0.9,0-1.4s0-0.9,0-1.3c0-1.4,0-2.5,0-3.4s0-1.4,0-1.5h1.2V154.3z"/>
		<path id="XMLID_325_" class="st0" d="M-80.9,162.7c0,0.6-0.1,1.1-0.4,1.6s-0.7,0.8-1.1,1.1c-0.4,0.3-0.9,0.5-1.5,0.6
			s-1.2,0.2-1.9,0.2c-0.4,0-0.8,0-1.2,0s-0.6,0-0.7,0l-0.1-1.3c0.1,0,0.3,0,0.7,0.1c0.4,0.1,0.8,0,1.3,0c0.3,0,0.7,0,1.2-0.1
			c0.5-0.1,0.9-0.2,1.1-0.3c0.3-0.2,0.6-0.4,0.8-0.6s0.3-0.5,0.3-0.9c0-0.4-0.1-0.7-0.3-1c-0.2-0.3-0.5-0.5-0.9-0.8
			c-0.3-0.2-0.6-0.3-1.1-0.6s-0.8-0.4-1.2-0.6c-0.6-0.4-1-0.8-1.3-1.2c-0.3-0.4-0.4-0.9-0.4-1.4s0.1-1,0.3-1.4
			c0.2-0.4,0.5-0.7,0.9-1c0.4-0.3,0.8-0.5,1.4-0.6c0.5-0.1,1.1-0.2,1.8-0.2c0.4,0,0.7,0,1.1,0s0.6,0,0.6,0l0.1,1.3
			c-0.1,0-0.3,0-0.6-0.1s-0.8-0.1-1.4-0.1c-0.3,0-0.7,0-1,0.1s-0.7,0.2-0.9,0.3c-0.2,0.1-0.4,0.3-0.6,0.6c-0.2,0.3-0.2,0.5-0.2,0.8
			s0.1,0.6,0.3,0.8c0.2,0.2,0.5,0.5,1,0.8c0.2,0.1,0.6,0.3,1,0.5c0.4,0.2,0.8,0.4,1.2,0.6c0.6,0.3,1,0.7,1.3,1.2
			S-80.9,162.1-80.9,162.7z"/>
	</g>
	<g id="XMLID_3_">
		<path id="XMLID_291_" class="st0" d="M-30.7,158.1c0,0.9-0.3,1.6-0.8,2.3c-0.6,0.7-1.3,1.2-2.2,1.4c-0.4,0.1-0.8,0.2-1.3,0.2
			s-1,0.1-1.6,0.1v3.7H-38c0-0.4,0-1,0-2s0-2.4,0-4.4c0-0.6,0-1.4,0-2.3c0-0.9,0-1.9,0-3.1c0.3,0,0.5,0,0.7,0s0.4,0,0.6,0
			c1,0,1.9,0.1,2.6,0.2c0.7,0.1,1.3,0.3,1.8,0.7c0.5,0.3,0.9,0.8,1.2,1.3C-30.8,156.8-30.7,157.4-30.7,158.1z M-32.2,158.1
			c0-0.6-0.1-1.1-0.4-1.5c-0.3-0.4-0.7-0.8-1.3-1c-0.4-0.2-0.7-0.2-1.1-0.3c-0.4-0.1-0.8-0.1-1.3-0.1c-0.1,0-0.1,0-0.2,0
			s-0.1,0-0.2,0c0,0.1,0,0.5,0,1.3s0,1.5,0,1.9c0,0.4,0,0.9,0,1.5c0,0.6,0,0.9,0,1c0.1,0,0.1,0,0.2,0s0.1,0,0.2,0
			c0.4,0,0.8,0,1.3-0.1s0.8-0.1,1.1-0.3c0.6-0.2,1-0.6,1.3-1C-32.3,159.1-32.2,158.7-32.2,158.1z"/>
		<path id="XMLID_294_" class="st0" d="M-17,165.1l-1.1,0.9c-0.1-0.1-0.6-0.6-1.4-1.5c-0.8-0.9-2-2.3-3.6-4.1v-0.1
			c0.2-0.1,0.5-0.2,0.9-0.4c0.4-0.2,0.7-0.4,0.9-0.6s0.4-0.4,0.6-0.7c0.2-0.3,0.2-0.7,0.2-1.2s-0.1-0.8-0.4-1.2
			c-0.2-0.3-0.6-0.6-1-0.7c-0.3-0.1-0.7-0.2-1.1-0.2s-0.7,0-1,0c-0.2,0-0.4,0-0.5,0s-0.2,0-0.2,0c0,1.1,0,2.1,0,2.9
			c0,0.9,0,1.5,0,1.8c0,0.8,0,1.9,0,3.3c0,1.4,0,2.2,0,2.6H-26c0-0.4,0-1,0-2s0-2.3,0-3.8c0-0.3,0-0.8,0-1.6c0-0.8,0-2.2,0-4.3
			c0.1,0,0.4,0,0.9,0s1,0,1.5,0s1,0,1.5,0.1s0.9,0.2,1.4,0.4c0.6,0.2,1,0.6,1.4,1.1s0.5,1,0.5,1.7c0,0.8-0.3,1.5-0.8,2.1
			c-0.5,0.6-1,1-1.5,1.2l0,0c0.8,0.9,1.7,1.9,2.6,2.9S-17,165.1-17,165.1z"/>
		<path id="XMLID_296_" class="st0" d="M-2.4,160c0,0.9-0.2,1.8-0.5,2.6c-0.3,0.8-0.7,1.4-1.3,2c-0.6,0.6-1.2,1-1.8,1.3
			c-0.6,0.3-1.3,0.4-2.1,0.4c-0.7,0-1.4-0.1-2.1-0.4c-0.7-0.3-1.2-0.6-1.7-1.1c-0.6-0.5-1-1.2-1.4-2s-0.5-1.7-0.5-2.7
			c0-0.9,0.1-1.7,0.4-2.5c0.3-0.7,0.7-1.4,1.2-2c0.5-0.6,1.1-1,1.8-1.3s1.4-0.5,2.2-0.5s1.5,0.1,2.2,0.4c0.7,0.3,1.3,0.7,1.7,1.2
			c0.6,0.6,1,1.3,1.3,2.1C-2.6,158.2-2.4,159.1-2.4,160z M-3.9,160.1c0-0.8-0.1-1.5-0.4-2.2c-0.3-0.7-0.6-1.4-1.2-1.9
			c-0.4-0.3-0.7-0.6-1.2-0.8s-0.9-0.3-1.5-0.3c-0.5,0-1,0.1-1.5,0.3s-0.9,0.5-1.2,0.8c-0.5,0.5-0.8,1-1.1,1.7s-0.4,1.4-0.4,2.2
			c0,0.8,0.1,1.6,0.4,2.3c0.3,0.7,0.6,1.2,1.1,1.7c0.3,0.3,0.7,0.6,1.2,0.8s0.9,0.3,1.5,0.3s1-0.1,1.5-0.3s0.9-0.5,1.2-0.8
			c0.4-0.4,0.8-1,1.1-1.6C-4.1,161.6-3.9,160.9-3.9,160.1z"/>
		<path id="XMLID_299_" class="st0" d="M12.4,160c0,1-0.3,1.9-0.8,2.7s-1.2,1.4-2,1.9c-0.7,0.4-1.5,0.7-2.3,0.9
			c-0.9,0.2-1.8,0.3-2.9,0.3c-0.4,0-0.8,0-1.2,0s-0.6,0-0.6,0s0-0.7,0-2s0-2.6,0-3.8c0-0.6,0-1.4,0-2.4s0-2.2,0-3.6
			c0.1,0,0.3,0,0.8,0s0.7,0,0.8,0c1.2,0,2.3,0.1,3.2,0.3s1.8,0.6,2.5,1c0.9,0.5,1.5,1.2,1.9,2S12.4,159,12.4,160z M10.9,160
			c0-0.8-0.2-1.5-0.5-2.1c-0.3-0.6-0.8-1.2-1.6-1.6c-0.7-0.4-1.4-0.7-2.2-0.9c-0.8-0.2-1.5-0.2-2.2-0.2c-0.1,0-0.2,0-0.3,0
			s-0.2,0-0.2,0c0,0.9,0,1.7,0,2.3s0,1.1,0,1.5c0,0.3,0,0.9,0,1.8c0,0.9,0,2.3,0,3.9c0.1,0,0.2,0,0.2,0c0.1,0,0.1,0,0.2,0
			c0.8,0,1.5-0.1,2.3-0.3c0.8-0.2,1.4-0.4,1.9-0.7c0.7-0.4,1.2-0.9,1.6-1.5C10.5,161.6,10.9,160.9,10.9,160z"/>
		<path id="XMLID_302_" class="st0" d="M27.1,154.1c0,1.1,0,2.1,0,2.8c0,0.7,0,1.4,0,1.9c0,0.7,0,1.2,0,1.7s0,0.9,0,1.2
			c0,0.7-0.1,1.3-0.3,1.8s-0.5,1-0.9,1.4c-0.4,0.4-0.9,0.7-1.5,0.9s-1.3,0.3-2.1,0.3s-1.5-0.1-2.1-0.3s-1.1-0.5-1.5-0.9
			c-0.4-0.4-0.7-0.8-0.9-1.4s-0.3-1.1-0.3-1.8c0-0.3,0-0.8,0-1.2s0-1,0-1.7c0-0.5,0-1.2,0-1.9c0-0.7,0-1.7,0-2.8H19
			c0,0.1,0,0.6,0,1.5c0,0.9,0,2,0,3.4c0,0.4,0,0.9,0,1.3c0,0.4,0,0.9,0,1.4c0,1.1,0.3,1.9,0.9,2.4s1.4,0.8,2.5,0.8s2-0.3,2.6-0.8
			s0.9-1.4,0.9-2.5c0-0.5,0-0.9,0-1.4s0-0.9,0-1.3c0-1.4,0-2.5,0-3.4s0-1.4,0-1.5h1.2V154.1z"/>
		<path id="XMLID_304_" class="st0" d="M40.7,164.8c0,0.1,0,0.2,0,0.4s-0.1,0.5-0.1,0.8c0,0-0.1,0-0.2,0s-0.1,0-0.2,0
			c-1.4,0-2.7-0.2-3.8-0.5s-2-0.9-2.7-1.6c-0.5-0.5-0.9-1-1.2-1.7s-0.4-1.4-0.4-2.3c0-0.8,0.1-1.5,0.4-2.1s0.7-1.2,1.1-1.6
			c0.7-0.7,1.6-1.2,2.7-1.6s2.4-0.6,3.6-0.6c0.1,0,0.1,0,0.2,0s0.1,0,0.2,0c0,0.1,0,0.3,0,0.5c0,0.2,0,0.5,0.1,0.8
			c-0.1,0-0.1,0-0.1,0h-0.1c-0.7,0-1.5,0.1-2.3,0.2c-0.8,0.1-1.5,0.4-2,0.7c-0.7,0.4-1.3,1-1.7,1.6c-0.4,0.6-0.6,1.4-0.6,2.1
			c0,0.8,0.2,1.5,0.5,2.2s0.9,1.2,1.7,1.6c0.6,0.4,1.3,0.6,2.1,0.8c0.8,0.2,1.6,0.2,2.3,0.2c0,0,0.1,0,0.2,0
			C40.5,164.8,40.6,164.8,40.7,164.8z"/>
		<path id="XMLID_306_" class="st0" d="M53.2,155.3c-0.1,0-0.5,0-1.2,0s-1.7,0-3.1,0c0,1.2,0,2.1,0,2.7s0,1.5,0,2.5s0,2.1,0,3.1
			c0,1.1,0,1.8,0,2.1h-1.5c0-0.4,0-1.1,0-2.2s0-2.1,0-3.2c0-1,0-1.8,0-2.4s0-1.5,0-2.8c-1.2,0-2.3,0-3,0s-1.2,0-1.3,0v-1.2
			c0.6,0,1.3,0,2.2,0s1.8,0,2.8,0c1.4,0,2.6,0,3.6,0s1.5,0,1.5,0V155.3z"/>
		<path id="XMLID_308_" class="st0" d="M63.1,162.5c0,0.6-0.1,1.1-0.4,1.6s-0.7,0.8-1.1,1.1s-0.9,0.5-1.5,0.6
			c-0.6,0.1-1.2,0.2-1.9,0.2c-0.4,0-0.8,0-1.2,0s-0.6,0-0.7,0l-0.1-1.3c0.1,0,0.3,0,0.7,0.1c0.4,0.1,0.8,0,1.3,0
			c0.3,0,0.7,0,1.2-0.1c0.5-0.1,0.9-0.2,1.1-0.3c0.3-0.2,0.6-0.4,0.8-0.6c0.2-0.2,0.3-0.5,0.3-0.9s-0.1-0.7-0.3-1s-0.5-0.5-0.9-0.8
			c-0.3-0.2-0.6-0.3-1.1-0.6c-0.5-0.3-0.8-0.4-1.2-0.6c-0.6-0.4-1-0.8-1.3-1.2s-0.4-0.9-0.4-1.4s0.1-1,0.3-1.4s0.5-0.7,0.9-1
			s0.8-0.5,1.4-0.6c0.5-0.1,1.1-0.2,1.8-0.2c0.4,0,0.7,0,1.1,0s0.6,0,0.6,0l0.1,1.3c-0.1,0-0.3,0-0.6-0.1c-0.3-0.1-0.8-0.1-1.4-0.1
			c-0.3,0-0.7,0-1,0.1c-0.3,0.1-0.7,0.2-0.9,0.3c-0.2,0.1-0.4,0.3-0.6,0.6s-0.2,0.5-0.2,0.8c0,0.3,0.1,0.6,0.3,0.8
			c0.2,0.2,0.5,0.5,1,0.8c0.2,0.1,0.6,0.3,1,0.5s0.8,0.4,1.2,0.6c0.6,0.3,1,0.7,1.3,1.2S63.1,162,63.1,162.5z"/>
	</g>
	<g id="XMLID_3119_">
		<path id="XMLID_278_" class="st0" d="M121.5,164.8c0,0.1,0,0.2,0,0.4s-0.1,0.5-0.1,0.8c0,0-0.1,0-0.2,0s-0.1,0-0.2,0
			c-1.4,0-2.7-0.2-3.8-0.5s-2-0.9-2.7-1.6c-0.5-0.5-0.9-1-1.2-1.7s-0.4-1.4-0.4-2.3c0-0.8,0.1-1.5,0.4-2.1s0.7-1.2,1.1-1.6
			c0.7-0.7,1.6-1.2,2.7-1.6s2.4-0.6,3.6-0.6c0.1,0,0.1,0,0.2,0s0.1,0,0.2,0c0,0.1,0,0.3,0,0.5c0,0.2,0,0.5,0.1,0.8
			c-0.1,0-0.1,0-0.1,0H121c-0.7,0-1.5,0.1-2.3,0.2c-0.8,0.1-1.5,0.4-2,0.7c-0.7,0.4-1.3,1-1.7,1.6c-0.4,0.6-0.6,1.4-0.6,2.1
			c0,0.8,0.2,1.5,0.5,2.2s0.9,1.2,1.7,1.6c0.6,0.4,1.3,0.6,2.1,0.8c0.8,0.2,1.6,0.2,2.3,0.2c0,0,0.1,0,0.2,0
			C121.3,164.8,121.4,164.8,121.5,164.8z"/>
		<path id="XMLID_280_" class="st0" d="M135.5,154.1c0,1.1,0,2.1,0,2.8c0,0.7,0,1.4,0,1.9c0,0.7,0,1.2,0,1.7s0,0.9,0,1.2
			c0,0.7-0.1,1.3-0.3,1.8s-0.5,1-0.9,1.4c-0.4,0.4-0.9,0.7-1.5,0.9s-1.3,0.3-2.1,0.3s-1.5-0.1-2.1-0.3s-1.1-0.5-1.5-0.9
			c-0.4-0.4-0.7-0.8-0.9-1.4s-0.3-1.1-0.3-1.8c0-0.3,0-0.8,0-1.2s0-1,0-1.7c0-0.5,0-1.2,0-1.9c0-0.7,0-1.7,0-2.8h1.5
			c0,0.1,0,0.6,0,1.5c0,0.9,0,2,0,3.4c0,0.4,0,0.9,0,1.3c0,0.4,0,0.9,0,1.4c0,1.1,0.3,1.9,0.9,2.4s1.4,0.8,2.5,0.8s2-0.3,2.6-0.8
			s0.9-1.4,0.9-2.5c0-0.5,0-0.9,0-1.4s0-0.9,0-1.3c0-1.4,0-2.5,0-3.4s0-1.4,0-1.5h1.2V154.1z"/>
		<path id="XMLID_282_" class="st0" d="M147.2,162.5c0,0.6-0.1,1.1-0.4,1.6s-0.7,0.8-1.1,1.1s-0.9,0.5-1.5,0.6
			c-0.6,0.1-1.2,0.2-1.9,0.2c-0.4,0-0.8,0-1.2,0s-0.6,0-0.7,0l-0.1-1.3c0.1,0,0.3,0,0.7,0.1c0.4,0.1,0.8,0,1.3,0
			c0.3,0,0.7,0,1.2-0.1c0.5-0.1,0.9-0.2,1.1-0.3c0.3-0.2,0.6-0.4,0.8-0.6c0.2-0.2,0.3-0.5,0.3-0.9s-0.1-0.7-0.3-1s-0.5-0.5-0.9-0.8
			c-0.3-0.2-0.6-0.3-1.1-0.6c-0.5-0.3-0.8-0.4-1.2-0.6c-0.6-0.4-1-0.8-1.3-1.2s-0.4-0.9-0.4-1.4s0.1-1,0.3-1.4s0.5-0.7,0.9-1
			s0.8-0.5,1.4-0.6c0.5-0.1,1.1-0.2,1.8-0.2c0.4,0,0.7,0,1.1,0s0.6,0,0.6,0l0.1,1.3c-0.1,0-0.3,0-0.6-0.1c-0.3-0.1-0.8-0.1-1.4-0.1
			c-0.3,0-0.7,0-1,0.1c-0.3,0.1-0.7,0.2-0.9,0.3c-0.2,0.1-0.4,0.3-0.6,0.6s-0.2,0.5-0.2,0.8c0,0.3,0.1,0.6,0.3,0.8
			c0.2,0.2,0.5,0.5,1,0.8c0.2,0.1,0.6,0.3,1,0.5s0.8,0.4,1.2,0.6c0.6,0.3,1,0.7,1.3,1.2S147.2,162,147.2,162.5z"/>
		<path id="XMLID_284_" class="st0" d="M160.3,155.3c-0.1,0-0.5,0-1.2,0s-1.7,0-3.1,0c0,1.2,0,2.1,0,2.7s0,1.5,0,2.5s0,2.1,0,3.1
			c0,1.1,0,1.8,0,2.1h-1.5c0-0.4,0-1.1,0-2.2s0-2.1,0-3.2c0-1,0-1.8,0-2.4s0-1.5,0-2.8c-1.2,0-2.3,0-3,0s-1.2,0-1.3,0v-1.2
			c0.6,0,1.3,0,2.2,0s1.8,0,2.8,0c1.4,0,2.6,0,3.6,0s1.5,0,1.5,0V155.3z"/>
		<path id="XMLID_286_" class="st0" d="M174.6,160c0,0.9-0.2,1.8-0.5,2.6c-0.3,0.8-0.7,1.4-1.3,2c-0.6,0.6-1.2,1-1.8,1.3
			c-0.6,0.3-1.3,0.4-2.1,0.4c-0.7,0-1.4-0.1-2.1-0.4c-0.7-0.3-1.2-0.6-1.7-1.1c-0.6-0.5-1-1.2-1.4-2s-0.5-1.7-0.5-2.7
			c0-0.9,0.1-1.7,0.4-2.5c0.3-0.7,0.7-1.4,1.2-2c0.5-0.6,1.1-1,1.8-1.3c0.7-0.3,1.4-0.5,2.2-0.5c0.8,0,1.5,0.1,2.2,0.4
			c0.7,0.3,1.3,0.7,1.7,1.2c0.6,0.6,1,1.3,1.3,2.1C174.5,158.2,174.6,159.1,174.6,160z M173.1,160.1c0-0.8-0.1-1.5-0.4-2.2
			c-0.3-0.7-0.6-1.4-1.2-1.9c-0.4-0.3-0.7-0.6-1.2-0.8s-0.9-0.3-1.5-0.3c-0.5,0-1,0.1-1.5,0.3s-0.9,0.5-1.2,0.8
			c-0.5,0.5-0.8,1-1.1,1.7c-0.3,0.7-0.4,1.4-0.4,2.2c0,0.8,0.1,1.6,0.4,2.3s0.6,1.2,1.1,1.7c0.3,0.3,0.7,0.6,1.2,0.8
			s0.9,0.3,1.5,0.3s1-0.1,1.5-0.3s0.9-0.5,1.2-0.8c0.4-0.4,0.8-1,1.1-1.6C173,161.6,173.1,160.9,173.1,160.1z"/>
		<path id="XMLID_289_" class="st0" d="M193.8,165.7l-1.4,0.3l-1.8-9.9l0,0c-0.2,0.5-0.7,1.6-1.5,3.3c-0.8,1.7-1.6,3.5-2.3,5.2h-1.2
			c-0.7-1.6-1.5-3.4-2.3-5.2c-0.8-1.9-1.3-3-1.5-3.3l0,0c0,0.2-0.3,1.3-0.7,3.4c-0.4,2.1-0.9,4.3-1.3,6.5l-1.3-0.2
			c0.6-2.5,1.1-5,1.6-7.5s0.8-3.8,0.8-4l1.4-0.2c0.1,0.1,0.5,1.1,1.2,2.8c0.7,1.7,1.7,3.8,2.7,6.1h0.1c0.8-1.8,1.6-3.7,2.5-5.7
			s1.4-3.1,1.4-3.2l1.3,0.1c0,0.1,0.3,1.4,0.7,3.9S193.3,162.9,193.8,165.7z"/>
	</g>
	<g id="XMLID_4_">
		<path id="XMLID_263_" class="st0" d="M256.3,165.8h-1.5c0-0.4,0-1,0-1.9c0-0.9,0-2.2,0-3.9c0-0.7,0-1.5,0-2.6c0-1.1,0-2.2,0-3.4
			h1.5c0,0.8,0,1.8,0,2.9c0,1.1,0,2,0,2.7c0,1.8,0,3.2,0,4.1C256.3,164.6,256.3,165.5,256.3,165.8z"/>
		<path id="XMLID_265_" class="st0" d="M272.4,154.1c0,0.9,0,2,0,3.2s0,2,0,2.6c0,1.7,0,3,0,4s0,1.5,0,1.6l-1.2,0.6
			c-1.8-2.4-3.4-4.5-5-6.5c-1.5-1.9-2.4-3-2.7-3.3l0,0c0,1.6,0,3.5,0,5.8c0,2.3,0,3.6,0,4h-1.4c0-0.1,0-0.7,0-1.6s0-2.1,0-3.7
			c0-0.6,0-1.5,0-2.5s0-2.2,0-3.4l1.3-0.6c0.1,0.1,1,1.3,2.7,3.4c1.7,2.1,3.3,4.1,4.8,6l0,0c0-0.9,0-2.4,0-4.6s0-3.7,0-4.7h1.5
			V154.1z"/>
		<path id="XMLID_267_" class="st0" d="M284.1,162.5c0,0.6-0.1,1.1-0.4,1.6s-0.7,0.8-1.1,1.1s-0.9,0.5-1.5,0.6
			c-0.6,0.1-1.2,0.2-1.9,0.2c-0.4,0-0.8,0-1.2,0s-0.6,0-0.7,0l-0.1-1.3c0.1,0,0.3,0,0.7,0.1c0.4,0.1,0.8,0,1.3,0
			c0.3,0,0.7,0,1.2-0.1c0.5-0.1,0.9-0.2,1.1-0.3c0.3-0.2,0.6-0.4,0.8-0.6c0.2-0.2,0.3-0.5,0.3-0.9s-0.1-0.7-0.3-1s-0.5-0.5-0.9-0.8
			c-0.3-0.2-0.6-0.3-1.1-0.6c-0.5-0.3-0.8-0.4-1.2-0.6c-0.6-0.4-1-0.8-1.3-1.2s-0.4-0.9-0.4-1.4s0.1-1,0.3-1.4s0.5-0.7,0.9-1
			s0.8-0.5,1.4-0.6c0.5-0.1,1.1-0.2,1.8-0.2c0.4,0,0.7,0,1.1,0s0.6,0,0.6,0l0.1,1.3c-0.1,0-0.3,0-0.6-0.1c-0.3-0.1-0.8-0.1-1.4-0.1
			c-0.3,0-0.7,0-1,0.1c-0.3,0.1-0.7,0.2-0.9,0.3c-0.2,0.1-0.4,0.3-0.6,0.6s-0.1,0.5-0.1,0.8s0.1,0.6,0.3,0.8s0.5,0.5,1,0.8
			c0.2,0.1,0.6,0.3,1,0.5c0.4,0.2,0.8,0.4,1.2,0.6c0.6,0.3,1,0.7,1.3,1.2S284.1,162,284.1,162.5z"/>
		<path id="XMLID_269_" class="st0" d="M296.5,158.1c0,0.9-0.3,1.6-0.8,2.3c-0.6,0.7-1.3,1.2-2.2,1.4c-0.4,0.1-0.8,0.2-1.3,0.2
			s-1,0.1-1.6,0.1v3.7h-1.5c0-0.4,0-1,0-2s0-2.4,0-4.4c0-0.6,0-1.4,0-2.3c0-0.9,0-1.9,0-3.1c0.3,0,0.5,0,0.7,0s0.4,0,0.6,0
			c1,0,1.9,0.1,2.6,0.2c0.7,0.1,1.3,0.3,1.8,0.7c0.5,0.3,0.9,0.8,1.2,1.3C296.3,156.8,296.5,157.4,296.5,158.1z M295,158.1
			c0-0.6-0.1-1.1-0.4-1.5c-0.3-0.4-0.7-0.8-1.3-1c-0.4-0.2-0.7-0.2-1.1-0.3c-0.4-0.1-0.8-0.1-1.3-0.1c-0.1,0-0.1,0-0.2,0
			s-0.1,0-0.2,0c0,0.1,0,0.5,0,1.3s0,1.5,0,1.9c0,0.4,0,0.9,0,1.5c0,0.6,0,0.9,0,1c0.1,0,0.1,0,0.2,0s0.1,0,0.2,0
			c0.4,0,0.8,0,1.3-0.1s0.8-0.1,1.1-0.3c0.6-0.2,1-0.6,1.3-1C294.9,159.1,295,158.7,295,158.1z"/>
		<path id="XMLID_272_" class="st0" d="M302.6,165.8h-1.5c0-0.4,0-1,0-1.9c0-0.9,0-2.2,0-3.9c0-0.7,0-1.5,0-2.6c0-1.1,0-2.2,0-3.4
			h1.5c0,0.8,0,1.8,0,2.9c0,1.1,0,2,0,2.7c0,1.8,0,3.2,0,4.1C302.6,164.6,302.6,165.5,302.6,165.8z"/>
		<path id="XMLID_274_" class="st0" d="M317.5,165.1l-1.1,0.9c-0.1-0.1-0.6-0.6-1.4-1.5c-0.8-0.9-2-2.3-3.6-4.1v-0.1
			c0.2-0.1,0.5-0.2,0.9-0.4c0.4-0.2,0.7-0.4,0.9-0.6s0.4-0.4,0.6-0.7c0.2-0.3,0.2-0.7,0.2-1.2s-0.1-0.8-0.4-1.2
			c-0.2-0.3-0.6-0.6-1-0.7c-0.3-0.1-0.7-0.2-1.1-0.2s-0.7,0-1,0c-0.2,0-0.4,0-0.5,0s-0.2,0-0.2,0c0,1.1,0,2.1,0,2.9
			c0,0.9,0,1.5,0,1.8c0,0.8,0,1.9,0,3.3c0,1.4,0,2.2,0,2.6h-1.5c0-0.4,0-1,0-2s0-2.3,0-3.8c0-0.3,0-0.8,0-1.6c0-0.8,0-2.2,0-4.3
			c0.1,0,0.4,0,0.9,0s1,0,1.5,0s1,0,1.5,0.1s0.9,0.2,1.4,0.4c0.6,0.2,1,0.6,1.4,1.1c0.3,0.5,0.5,1,0.5,1.7c0,0.8-0.3,1.5-0.8,2.1
			c-0.5,0.6-1,1-1.5,1.2l0,0c0.8,0.9,1.7,1.9,2.6,2.9C317,164.5,317.5,165.1,317.5,165.1z"/>
		<path id="XMLID_276_" class="st0" d="M329.2,165.8c-0.1,0-0.4,0-1.2,0s-1.6,0-2.7,0c-0.7,0-1.4,0-2,0s-1.1,0-1.6,0
			c0-0.3,0-1.1,0-2.2s0-2.3,0-3.5c0-0.7,0-1.5,0-2.6c0-1.1,0-2.2,0-3.4c0.4,0,0.9,0,1.6,0s1.3,0,1.9,0c1.1,0,2,0,2.7,0s1.1,0,1.1,0
			v1.2c-0.1,0-0.4,0-1.1,0s-1.5,0-2.5,0c-0.4,0-0.9,0-1.3,0s-0.8,0-1,0c0,0.7,0,1.3,0,2s0,1.3,0,1.9c0.3,0,0.6,0,0.9,0s0.7,0,1,0
			c1,0,2,0,2.8,0s1.2,0,1.3,0v1.2c0,0-0.5,0-1.5,0s-1.8,0-2.5,0c-0.3,0-0.6,0-1,0s-0.7,0-1,0c0,1.1,0,2,0,2.6c0,0.6,0,1.2,0,1.6
			c0.3,0,0.8,0,1.3,0s1,0,1.6,0c0.9,0,1.6,0,2.2,0s0.9,0,1,0V165.8z"/>
	</g>
</g>
<g id="hover中文">
	<g id="XMLID_262_">
		<path id="XMLID_213_" class="st1" d="M267.7,281c0.7-0.2,1.4-0.4,2.1-0.7c0.1,0,0.1,0.2,0.1,0.2c-0.8,0.5-1.5,1-2.2,1.3v1.5
			c0,2.5,0,3.4,0,4.1c0,0.5-0.1,0.8-0.3,1.1c-0.3,0.4-0.8,0.7-1.7,0.7c-0.2,0-0.3-0.1-0.3-0.4c0-0.7-0.3-0.9-1.7-1.3
			c-0.1,0-0.1-0.2,0-0.2c0.8,0,1.5,0.1,2.2,0.1c0.1,0,0.1-0.1,0.1-0.3v-4.4c-0.4,0.2-0.7,0.3-1.1,0.5c-0.1,0.5-0.2,0.6-0.4,0.6
			c-0.2,0-0.3-0.2-0.9-2.1c0.6-0.1,1.3-0.2,1.9-0.3c0.2,0,0.3-0.1,0.5-0.1v-3.9h-1c-0.3,0-0.6,0-0.9,0.1l-0.2-0.7
			c0.5,0.1,0.8,0.1,1.1,0.1h1V275c0-1.1,0-1.5-0.1-2.1c1.8,0.2,2.3,0.3,2.3,0.6c0,0.2-0.2,0.4-0.6,0.5v3.2h0.2
			c0.6-0.8,0.8-0.9,1-0.9s0.3,0.1,0.9,0.7c0.2,0.2,0.4,0.4,0.4,0.5s-0.1,0.2-0.2,0.2h-2.2L267.7,281L267.7,281z M274.2,278.7
			c0.2,1.4,0.5,2.8,0.9,4.1c0.3-0.4,0.5-0.7,0.7-1.1c0.4-0.7,0.8-1.5,1-2.2c1.5,0.7,2,1,2,1.2c0,0.2-0.2,0.3-0.7,0.3
			c-0.7,1.3-1.5,2.3-2.4,3.3c0.4,0.7,0.9,1.4,1.6,1.9c0.5,0.4,0.9,0.6,1.2,0.6c0.2,0,0.5-0.4,1.3-2.1c0-0.1,0.2,0,0.2,0.1
			c-0.3,1.9-0.4,2.4-0.4,2.6c0,0.2,0,0.2,0.2,0.4c0.2,0.2,0.4,0.5,0.4,0.7c0,0.4-0.4,0.8-0.8,0.8c-0.6,0-1.4-0.3-2.1-0.9
			c-1.1-0.8-2-1.7-2.7-2.8c-1.6,1.3-3.4,2.2-5.8,2.8c-0.1,0-0.2-0.2-0.1-0.2c1.9-0.9,3.7-2.3,5.2-3.9c-0.8-1.8-1.2-3.5-1.4-5.3
			l-1.8,0.2c-0.6,0.1-0.9,0.1-1.2,0.3l-0.3-0.6c0.8,0,1.2,0,1.4,0l1.8-0.2c-0.1-0.9-0.2-1.9-0.2-3c-0.1-1.5-0.1-1.9-0.2-2.5
			c2.1,0.3,2.4,0.4,2.4,0.6c0,0.2-0.1,0.3-0.5,0.5c0,1.6,0.1,3,0.2,4.2l3-0.3c0.8-1.1,0.9-1.2,1.1-1.2s0.4,0.1,1.3,0.7
			c0.4,0.3,0.5,0.4,0.5,0.5s-0.1,0.2-0.2,0.2L274.2,278.7z M277.2,276.9c-0.3,0-0.6-0.2-0.7-0.6c-0.3-0.9-0.6-1.4-1.4-2.1
			c-0.1-0.1,0-0.2,0.1-0.2c1.9,0.4,2.8,1,2.8,1.9C278,276.4,277.6,276.9,277.2,276.9z"/>
		<path id="XMLID_218_" class="st1" d="M290.5,284.1h-5c-0.4,0-0.7,0-1.2,0.1l-0.2-0.7c0.5,0.1,0.9,0.1,1.4,0.1h11.3
			c0.4-0.5,0.6-0.7,0.8-0.8c-0.3,0-0.5-0.1-0.5-0.4l0,0h-1.7v0.2c0,0.3-0.2,0.5-0.7,0.5c-0.4,0-0.5-0.1-0.5-0.4c0-0.2,0-0.5,0-1.4
			c0-0.7,0-1.4-0.1-2.1c0.6,0.3,0.8,0.3,1.4,0.7h1.4c0.5-0.5,0.6-0.6,0.8-0.6c0.2,0,0.3,0.1,0.8,0.5c0.2,0.2,0.3,0.3,0.3,0.4
			c0,0.2-0.1,0.3-0.4,0.5v0.3c0,0.7,0,1.2,0,1.3c0,0.3-0.1,0.4-0.4,0.5c0.2,0.1,0.4,0.3,0.9,0.6c0.3,0.3,0.5,0.4,0.5,0.5
			s-0.1,0.2-0.2,0.2h-6.9v4h5.1c0.8-1,1-1.1,1.2-1.1s0.4,0.1,1.2,0.8c0.4,0.3,0.5,0.5,0.5,0.6s-0.1,0.2-0.2,0.2h-14.7
			c-0.5,0-1,0-1.6,0.1l-0.2-0.7c0.8,0.1,1.3,0.1,1.9,0.1h5.4v-4H290.5z M292.2,275.2h5.1c0.6-0.7,0.8-0.8,0.9-0.8
			c0.2,0,0.3,0.1,1.1,0.8c0.4,0.3,0.5,0.5,0.5,0.6c0,0.3-0.2,0.4-0.8,0.4c-0.3,0-0.4,0-0.5,0.2c-0.4,0.4-0.6,0.6-1.2,0.9
			c-0.1,0.1-0.2,0-0.1-0.1c0.2-0.7,0.3-1.1,0.3-1.7h-5.3c0,1.1,0.1,2.5,0.1,3s-0.4,0.7-1,0.7c-0.5,0-0.7-0.2-0.7-0.6
			c0-0.2,0.1-1,0.1-2.4v-0.7h-5c0.1,1.4-0.4,2.3-1.4,2.3c-0.5,0-0.8-0.4-0.8-0.8c0-0.5,0.1-0.6,0.8-0.9c0.6-0.3,1-0.9,1.1-1.7
			c0-0.1,0.2-0.1,0.2,0c0.1,0.3,0.1,0.5,0.1,0.7h5V274H287c-0.4,0-0.8,0-1.3,0.1l-0.2-0.7c0.6,0.1,1,0.1,1.4,0.1h8.3
			c0.8-0.9,1-1.1,1.2-1.1s0.4,0.1,1.2,0.7c0.4,0.3,0.5,0.4,0.5,0.6c0,0.1-0.1,0.2-0.2,0.2h-5.7L292.2,275.2L292.2,275.2z
			 M285.9,282.3v0.3c0,0.3-0.2,0.5-0.7,0.5c-0.4,0-0.6-0.1-0.6-0.5c0-0.2,0.1-0.6,0.1-1.5c0-0.7,0-1.4-0.1-2.1
			c0.7,0.3,0.8,0.3,1.5,0.7h1.2c0.5-0.5,0.6-0.6,0.8-0.6c0.2,0,0.3,0.1,0.8,0.5c0.2,0.2,0.3,0.3,0.3,0.5c0,0.2-0.1,0.3-0.4,0.5v0.3
			c0,0.8,0,1.4,0,1.6c0,0.4-0.3,0.6-0.7,0.6c-0.4,0-0.6-0.1-0.6-0.4v-0.3h-1.6V282.3z M290.1,287.1c0,0.4-0.3,0.7-0.6,0.7
			c-0.2,0-0.4-0.1-0.6-0.4c-0.3-0.4-0.7-0.8-1.2-1.1c-0.7,0.7-1.5,1.2-2.7,1.6c-0.1,0-0.2-0.1-0.1-0.1c0.9-0.7,1.6-1.4,2-2.2
			c0.2-0.4,0.3-0.7,0.4-1.1c1.6,0.5,1.9,0.6,1.9,0.7c0,0.2-0.2,0.3-0.7,0.4c-0.1,0.2-0.3,0.3-0.4,0.5
			C289.4,286.1,290.1,286.4,290.1,287.1z M287.8,278.2c0.5-0.6,0.8-0.8,0.9-0.8c0.2,0,0.4,0.1,0.9,0.6c0.2,0.2,0.4,0.3,0.4,0.5
			c0,0.1-0.1,0.2-0.2,0.2h-3.5c-0.2,0-0.5,0-0.8,0.1l-0.2-0.7c0.4,0.1,0.6,0.1,0.9,0.1H287.8L287.8,278.2z M287.8,276.7
			c0.5-0.6,0.7-0.7,0.8-0.7c0.2,0,0.4,0.1,0.9,0.5c0.2,0.2,0.4,0.3,0.4,0.5s-0.1,0.2-0.2,0.2h-2.8c-0.3,0-0.5,0-0.8,0.1l-0.2-0.7
			c0.4,0.1,0.7,0.1,1,0.1H287.8L287.8,276.7z M287.5,280.3H286v1.7h1.5V280.3z M290.6,282.3v0.1c0,0.4-0.2,0.6-0.7,0.6
			c-0.4,0-0.5-0.1-0.5-0.5c0-0.2,0-0.5,0-1.4c0-0.7,0-1.4-0.1-2.1c0.7,0.3,0.8,0.3,1.4,0.7h1.2c0.5-0.5,0.6-0.6,0.8-0.6
			c0.2,0,0.3,0.1,0.8,0.5c0.2,0.2,0.3,0.3,0.3,0.5s-0.1,0.3-0.4,0.5v0.3c0,0.8,0,1.4,0,1.5c0,0.4-0.3,0.5-0.7,0.5
			c-0.4,0-0.6-0.1-0.6-0.4v-0.3L290.6,282.3L290.6,282.3z M292.1,280.3h-1.5v1.7h1.5V280.3z M297.4,287.1c0,0.4-0.3,0.7-0.6,0.7
			c-0.2,0-0.4-0.1-0.6-0.4c-0.3-0.4-0.6-0.8-1.2-1.1c-0.7,0.7-1.5,1.2-2.6,1.5c-0.1,0-0.2-0.1-0.1-0.2c0.8-0.6,1.3-1.3,1.8-2
			c0.2-0.4,0.4-0.7,0.5-1.2c1.7,0.5,1.8,0.5,1.8,0.7s-0.2,0.3-0.7,0.4c-0.1,0.2-0.3,0.3-0.4,0.5
			C296.7,286.1,297.4,286.4,297.4,287.1z M294.7,276.7c0.5-0.6,0.7-0.8,0.9-0.8c0.2,0,0.4,0.1,0.9,0.5c0.2,0.2,0.4,0.3,0.4,0.5
			s-0.1,0.2-0.2,0.2h-2.8c-0.2,0-0.4,0-0.8,0.1l-0.2-0.7c0.4,0.1,0.6,0.1,0.9,0.1h0.9V276.7z M295.5,278.2c0.6-0.6,0.8-0.8,0.9-0.8
			c0.2,0,0.4,0.1,0.9,0.6c0.2,0.2,0.4,0.3,0.4,0.5c0,0.1-0.1,0.2-0.2,0.2h-3.7c-0.2,0-0.5,0-0.8,0.1l-0.2-0.7
			c0.4,0.1,0.6,0.1,0.9,0.1H295.5L295.5,278.2z M297,280.3h-1.7v1.7h1.7V280.3z"/>
		<path id="XMLID_235_" class="st1" d="M315.3,279.5c0.1-0.3,0.3-0.5,0.4-0.8c0.4-0.7,0.6-1.4,0.8-2.1c1.8,0.8,1.9,0.8,1.9,1.1
			c0,0.2-0.2,0.2-0.7,0.3c-0.5,1-1.1,1.8-1.7,2.6c0.4,0.5,0.8,0.9,1.2,1.2c0.3,0.3,0.6,0.4,0.9,0.4c0.2,0,0.5-0.3,1.3-1.5
			c0.1-0.1,0.2,0,0.2,0.1c-0.3,1.3-0.3,1.6-0.3,1.7c0,0.1,0,0.2,0.2,0.4c0.2,0.3,0.3,0.5,0.3,0.7c0,0.5-0.3,0.8-0.8,0.8
			c-0.4,0-0.8-0.2-1.3-0.4c-1-0.6-2-1.4-2.7-2.4c-0.9,0.8-2,1.4-3.2,1.9c-0.1,0-0.2-0.2-0.1-0.2c1-0.6,2-1.5,2.8-2.5
			c-0.1-0.2-0.3-0.5-0.4-0.7c-0.6-1.3-1-2.9-1.1-4.8h-6.3c0,0.2,0,0.5,0,0.7c0,2-0.2,3.6-0.6,4.8c-0.5,1.6-1.3,2.7-2.6,3.7
			c-0.1,0.1-0.2,0-0.2-0.1c0.7-1.1,1.2-2.3,1.4-4c0.1-1,0.2-2.2,0.2-3.7c0-1.2,0-1.9-0.1-3c1,0.5,1.5,0.7,2.1,1.1h6.1
			c0-0.3,0-0.5,0-0.8c0-0.5,0-0.8-0.1-1.5c1.9,0.1,2.2,0.3,2.2,0.6c0,0.2-0.2,0.4-0.6,0.5c0,0.4,0,0.8,0,1.2h2.7
			c0.6-0.9,0.8-1,0.9-1c0.2,0,0.3,0.1,0.9,0.7c0.3,0.3,0.4,0.4,0.4,0.5s-0.1,0.2-0.3,0.2h-4.6c0.1,1.9,0.3,2.8,0.9,4L315.3,279.5z
			 M306.3,285.9c0,1.5-0.6,2.7-1.8,2.7c-0.6,0-1-0.4-1-0.9s0.2-0.7,0.8-1c1-0.4,1.4-0.9,1.6-2c0-0.1,0.2-0.1,0.2,0
			C306.3,285.1,306.3,285.5,306.3,285.9z M310.4,277.1c0.6-0.7,0.8-0.9,0.9-0.9c0.2,0,0.4,0.1,1,0.6c0.3,0.2,0.4,0.4,0.4,0.5
			s-0.1,0.2-0.2,0.2h-4.7c-0.2,0-0.5,0-0.8,0.1l-0.2-0.7c0.4,0.1,0.6,0.1,0.9,0.1L310.4,277.1L310.4,277.1z M308.3,282v0.4
			c0,0.4-0.3,0.6-0.8,0.6s-0.6-0.2-0.6-0.5s0.1-0.7,0.1-2c0-0.8,0-1.6-0.1-2.4c0.7,0.3,0.8,0.4,1.6,0.8h2.2c0.5-0.6,0.7-0.7,0.8-0.7
			c0.2,0,0.3,0.1,0.9,0.6c0.3,0.2,0.4,0.3,0.4,0.5s-0.1,0.3-0.5,0.5v0.3c0,0.9,0,1.5,0,1.7c0,0.4-0.3,0.6-0.9,0.6
			c-0.4,0-0.6-0.1-0.6-0.5v0.1H308.3z M315.3,286.6c0,0.3,0.1,0.4,0.2,0.4c0.4,0.2,0.6,0.4,0.6,0.6c0,0.4-0.3,0.8-1,1
			s-1.9,0.3-3.7,0.3c-3.1,0-3.7-0.3-3.7-2c0-0.2,0.1-0.5,0.1-1.5c0-0.5,0-0.9-0.1-1.4c2.1,0.3,2.3,0.3,2.3,0.5
			c0,0.2-0.1,0.3-0.5,0.5v1.9c0,0.5,0.3,0.6,2.2,0.6c1.4,0,2.1,0,2.5-0.4c0.4-0.3,0.6-0.8,0.9-1.8c0-0.1,0.2-0.1,0.2,0V286.6z
			 M310.7,279.4h-2.4v2.1h2.4V279.4z M312.5,286.7c-0.5,0-0.6-0.1-0.9-1c-0.2-0.7-0.5-1.2-1.2-1.7c-0.1-0.1,0-0.2,0.1-0.1
			c1.8,0.2,2.9,1,2.9,1.9C313.4,286.3,313,286.7,312.5,286.7z M316.6,274.7c-0.2,0-0.3,0-0.5-0.4c-0.4-0.6-0.7-0.9-1.2-1.2
			c-0.1-0.1-0.1-0.1,0-0.1c1.4,0,2.3,0.5,2.3,1.1C317.3,274.4,317.1,274.7,316.6,274.7z M318.4,288.4c-0.5,0-0.7-0.2-1-1.2
			c-0.4-1.2-0.7-1.7-1.4-2.3c-0.1-0.1,0-0.2,0.1-0.2c2.1,0.5,3.1,1.4,3.1,2.6C319.3,288,319,288.4,318.4,288.4z"/>
	</g>
	<g id="XMLID_56_">
		<path id="XMLID_200_" class="st1" d="M129,288.4c0,0.5-0.3,0.7-1.1,0.7c-0.5,0-0.7-0.2-0.7-0.6c0-0.5,0.1-1,0.1-3
			c0-0.6,0-1.1,0-1.7c-1,0.3-2.1,0.5-3.3,0.6c-0.1,0-0.1-0.2-0.1-0.2c2.9-0.8,5.3-2,7.2-3.5c-0.6-0.6-1.2-1.4-1.7-2.1
			c-1.3,1.5-2.8,2.5-4.8,3.2c-0.1,0-0.2-0.1-0.1-0.2c1.5-1,3.1-2.7,4-4.2c0.4-0.6,0.6-1.2,0.8-1.7c1.4,0.4,2,0.7,2,1
			c0,0.2-0.2,0.3-0.8,0.4c-0.1,0.1-0.2,0.3-0.3,0.4h3.7c0.5-0.5,0.8-0.8,1-0.8s0.4,0.1,1,0.7c0.3,0.3,0.5,0.4,0.5,0.6
			c0,0.3-0.2,0.4-0.8,0.5c-0.8,1-1.6,1.8-2.5,2.5c0.5,0.3,1.1,0.5,1.7,0.7c1.6,0.5,3.4,0.7,5.6,0.7c0.1,0,0.1,0.2,0,0.2
			c-0.5,0.2-0.8,0.6-1,1.2c-0.1,0.4-0.2,0.5-0.3,0.5c-0.2,0-0.6-0.1-1-0.2c-0.3-0.1-0.7-0.2-1.1-0.3c0.2,0.2,0.3,0.3,0.3,0.4
			c0,0.1-0.1,0.2-0.4,0.5v0.6c0,1.5,0.1,2.6,0.1,3c0,0.5-0.4,0.7-1,0.7c-0.5,0-0.7-0.2-0.7-0.6v-0.3h-6v0.3H129z M131.1,274.9v-0.8
			c0-0.6,0-1.1-0.1-1.5c2.2,0.2,2.4,0.4,2.4,0.6c0,0.2-0.2,0.3-0.6,0.5v1.1h4.5c0.7-0.8,0.9-0.9,1-0.9c0.2,0,0.3,0.1,1.2,0.9
			c0.4,0.4,0.5,0.5,0.5,0.6c0,0.3-0.1,0.4-0.7,0.4c-0.3,0-0.4,0-0.5,0.2c-0.7,0.6-1.1,0.8-1.7,1.2c-0.1,0-0.2,0-0.2-0.1
			c0.3-0.6,0.4-1,0.6-1.8h-11.1c0.2,1.5-0.4,2.6-1.4,2.6c-0.5,0-0.9-0.4-0.9-1c0-0.4,0.1-0.6,0.6-0.9c0.9-0.5,1.2-0.8,1.3-2
			c0-0.1,0.2-0.1,0.2,0c0.1,0.3,0.1,0.5,0.2,0.8h4.7V274.9z M134.9,283.9c0.2-0.2,0.3-0.4,0.5-0.5c-0.2-0.1-0.5-0.2-0.7-0.3
			c-1-0.4-1.8-0.9-2.5-1.4c-1.1,0.8-2.4,1.4-3.7,1.8c0.2,0.1,0.3,0.2,0.6,0.4H134.9z M135.1,284.3h-6v3.4h6V284.3z M129.7,278.3
			c0.6,0.7,1.3,1.4,2.1,1.9c0.8-0.7,1.6-1.5,2.2-2.4h-4L129.7,278.3z"/>
		<path id="XMLID_206_" class="st1" d="M149.9,287.2c1.2-0.1,2.5-0.3,3.6-0.5c0.1,0,0.1,0.1,0.1,0.2c-2,1-4.1,1.7-6.4,2.3
			c-0.2,0.4-0.2,0.5-0.4,0.5c-0.3,0-0.4-0.4-0.8-2.2c0.9,0,1.2,0,1.6,0c0.3,0,0.5,0,0.8-0.1v-1.6c-1.4,0.6-3,0.9-4.7,1.2
			c-0.1,0-0.1-0.2-0.1-0.2c2.4-0.7,4.5-1.8,6-3h-4.1c-0.4,0-0.8,0-1.4,0.1l-0.2-0.7c0.6,0.1,1.1,0.1,1.6,0.1h5.7v-0.5
			c0-0.4,0-0.7-0.1-1.1H151c-0.2,0-0.3-0.1-0.3-0.3c-0.1-0.6-0.3-0.7-1.1-0.9c-0.1,0-0.1-0.2,0-0.2c0.5,0.1,0.9,0.1,1.2,0.1
			c0.3,0,0.3-0.1,0.3-0.3v-1.4h-1.8c0,1.5,0,2.5,0,3s-0.3,0.7-0.9,0.7c-0.5,0-0.7-0.1-0.7-0.6c0-0.4,0-1.4,0-3h-1.5v2.5
			c0,0.5-0.3,0.7-0.9,0.7c-0.5,0-0.7-0.1-0.7-0.6c0-0.3,0.1-0.6,0.1-2c0-0.6,0-1.2-0.1-1.8c0.9,0.3,1,0.4,1.7,0.8h1.3V277H145
			c-0.3,0-0.7,0-1.1,0.1l-0.2-0.7c0.5,0.1,0.9,0.1,1.3,0.1h2.7V275h-1.8c-0.4,0.5-0.9,0.8-1.6,1.3c-0.1,0.1-0.2-0.1-0.2-0.1
			c0.4-0.6,0.8-1.4,1-2.1c0.1-0.4,0.3-0.8,0.3-1.2c1.5,0.4,1.9,0.5,1.9,0.8c0,0.2-0.2,0.3-0.6,0.3c-0.2,0.3-0.3,0.5-0.5,0.7h1.5
			v-0.5c0-0.5,0-0.8-0.1-1.4c1.7,0.2,2.1,0.4,2.1,0.6s-0.1,0.3-0.6,0.4v0.9h1.4c0.5-0.7,0.7-0.9,0.9-0.9c0.2,0,0.3,0.1,0.9,0.6
			c0.2,0.2,0.4,0.4,0.4,0.5s-0.1,0.2-0.2,0.2h-3.2v1.5h1.8c0.6-0.8,0.8-0.9,1-0.9s0.3,0.1,0.9,0.7c0.2,0.2,0.4,0.4,0.4,0.5
			s-0.1,0.2-0.2,0.2h-3.8v1.3h1.6c0.6-0.6,0.7-0.7,0.8-0.7c0.2,0,0.3,0.1,0.9,0.6c0.3,0.2,0.4,0.3,0.4,0.5c0,0.2-0.1,0.3-0.5,0.6
			v0.2c0,0.3,0,0.6,0,0.9c0,0.4-0.1,0.7-0.3,0.9c-0.1,0.1-0.3,0.3-0.5,0.3c1.4,0.2,1.6,0.4,1.6,0.5c0,0.1-0.2,0.3-0.5,0.4v0.8h4.4
			c0.8-0.8,1-1,1.1-1c0.2,0,0.4,0.1,1.1,0.7c0.3,0.3,0.5,0.4,0.5,0.5c0,0.1-0.1,0.2-0.2,0.2h-7.3c0.6,0.8,1.3,1.5,2.1,2
			c0.3-0.3,0.5-0.6,0.8-0.9c0.2-0.3,0.4-0.6,0.7-1c1.3,0.7,1.8,1,1.8,1.2c0,0.2-0.2,0.3-0.8,0.3c-0.9,0.4-1.2,0.5-1.8,0.7
			c0.1,0,0.1,0.1,0.2,0.1c1.3,0.6,3,1,5,1.2c0.1,0,0.1,0.2,0,0.2c-0.6,0.2-0.8,0.4-1,1.2c-0.1,0.4-0.2,0.4-0.4,0.4
			c-0.2,0-0.5-0.1-0.8-0.2c-1.2-0.4-2.4-0.9-3.5-1.7c-1.2-0.9-2-2-2.7-3.5c-0.6,0.5-1.3,1-2,1.3v2.1H149.9z M155.6,275.4
			c0,2.1,0,3.6,0,4.1s-0.3,0.6-0.9,0.6c-0.5,0-0.7-0.2-0.7-0.6c0-0.3,0.1-1.2,0.1-3c0-1.4,0-2.1-0.1-2.9c2.1,0.3,2.1,0.3,2.1,0.5
			s-0.1,0.3-0.5,0.5V275.4z M157.4,274.2c0-0.6,0-0.8-0.1-1.4c2.1,0.3,2.2,0.4,2.2,0.7c0,0.2-0.1,0.2-0.5,0.4v4c0,0.9,0.1,1.9,0.1,3
			c0,0.4-0.1,0.6-0.3,0.9c-0.3,0.4-0.8,0.5-1.5,0.5c-0.2,0-0.3-0.1-0.3-0.3c-0.1-0.6-0.6-0.9-1.4-1.1c-0.1,0-0.1-0.3,0-0.3
			c0.6,0,1.3,0.1,1.8,0.1c0.2,0,0.3-0.1,0.3-0.3v-6.2H157.4z"/>
		<path id="XMLID_210_" class="st1" d="M166.1,279.6c-0.8,0.9-1.7,1.7-2.7,2.5c-0.1,0.1-0.2-0.1-0.2-0.1c1.7-2,3.3-4.7,4.1-7
			c0.3-0.8,0.5-1.6,0.5-2.3c1.6,0.5,2.4,0.8,2.4,1c0,0.2-0.2,0.3-0.6,0.4c-0.7,1.6-1.4,3-2.3,4.1c0.8,0.1,1,0.2,1,0.4
			c0,0.2-0.1,0.3-0.5,0.4v9.5c0,0.5-0.3,0.8-0.9,0.8s-0.8-0.2-0.8-0.7s0.1-1.9,0.1-4.7v-4.3H166.1z M172.7,280.7
			c1.4-1.2,2.6-2.6,3.5-3.8c0.5-0.7,0.8-1.3,1-1.8c1.7,1,2,1.3,2,1.5c0,0.2-0.1,0.3-0.7,0.3c-2.1,2.1-3.8,3.4-5.9,4.2v5.2
			c0,0.9,0.2,1,2.4,1c1.7,0,2.5-0.2,2.8-0.6c0.2-0.3,0.5-0.7,1.1-2.6c0-0.1,0.2-0.1,0.2,0c-0.1,1.5-0.2,1.9-0.2,2.1
			c0,0.3,0,0.4,0.3,0.5c0.5,0.3,0.6,0.3,0.6,0.7c0,0.5-0.4,0.8-1.2,1.1c-0.8,0.2-1.9,0.3-3.4,0.3c-3.6,0-4.3-0.3-4.3-2.2
			c0-0.4,0.1-0.7,0.1-2.3c0-3.8,0-7.7-0.1-11.5c1.9,0.2,2.3,0.3,2.3,0.6c0,0.2-0.1,0.3-0.6,0.5v6.8H172.7z"/>
	</g>
	<g id="XMLID_57_">
		<path id="XMLID_183_" class="st1" d="M-11.2,285.4c0.4,0.8,0.9,1.2,1.8,1.5c0.9,0.3,2.1,0.5,3.9,0.5c2.4,0,4.8-0.1,7.1-0.4
			c0.1,0,0.1,0.1,0,0.2c-0.5,0.3-0.6,0.5-0.7,1.3c0,0.2-0.1,0.3-0.3,0.3c-0.4,0.1-3,0.1-4.5,0.1c-2.9,0-4.7-0.3-5.9-0.9
			c-1-0.5-1.5-1.4-1.9-2.7c-0.3,0.7-1.3,1.9-2.2,2.8c0,0.5,0,0.8-0.3,0.8s-0.4-0.3-1.3-2.3c0.5-0.1,0.9-0.3,1.3-0.5
			c0.5-0.2,0.9-0.5,1.4-0.8v-3.5H-14c-0.3,0-0.6,0-1,0.1l-0.2-0.7c0.5,0.1,0.8,0.2,1.2,0.2h1.1c0.6-0.7,0.8-0.8,0.9-0.8
			c0.2,0,0.3,0.1,1,0.6c0.3,0.3,0.4,0.4,0.4,0.5c0,0.1-0.1,0.2-0.5,0.6v3.1H-11.2z M-11.5,278.8c0,0.5-0.4,0.9-0.8,0.9
			c-0.5,0-0.6-0.1-1-0.9c-0.3-0.7-0.9-1.3-1.4-1.7c-0.1-0.1,0-0.2,0.1-0.2C-12.6,277.2-11.5,277.8-11.5,278.8z M-10.9,275.2
			c0,0.5-0.4,0.9-0.9,0.9c-0.4,0-0.5-0.1-0.9-0.9c-0.3-0.7-0.8-1.3-1.4-1.7c-0.1-0.1,0-0.2,0.1-0.1
			C-11.9,273.6-10.9,274.3-10.9,275.2z M-5.3,274.1c-0.1,0.1-0.3,0.1-0.6,0.1c-0.5,0.7-1,1.4-1.6,1.9c0.9,1.7,1.3,3.7,1.3,6.2
			c0,1.5-0.3,2.6-0.7,3.3c-0.4,0.6-1,0.9-1.7,0.9c-0.2,0-0.2-0.1-0.3-0.3c-0.1-0.7-0.3-0.9-1.3-1.3c-0.1,0-0.1-0.2,0-0.2
			c1.1,0.1,1.2,0.1,1.4,0.1c0.5,0,0.7-0.1,0.8-0.5c0.2-0.5,0.3-1.8,0.3-3c0-0.3,0-0.5,0-0.8c-0.8,1-1.9,1.8-3.1,2.3
			c-0.1,0-0.2-0.1-0.1-0.2c1.4-1.4,2.4-2.9,3-4.6c-0.1-0.5-0.2-1-0.4-1.5c-0.8,0.6-1.7,1.1-2.7,1.6c-0.1,0-0.2-0.1-0.1-0.1
			c0.9-0.7,1.7-1.6,2.4-2.6c-0.3-0.8-0.8-1.6-1.3-2.3c-0.1-0.1,0.1-0.2,0.2-0.1c0.6,0.6,1.1,1.2,1.5,1.8c0.1-0.2,0.2-0.3,0.3-0.5
			c0.3-0.6,0.6-1.2,0.7-1.7c1.7,0.8,2,1,2,1.2c0.5,0.1,0.8,0.1,1.2,0.1h2.7c0.7-0.9,0.9-1.1,1-1.1c0.2,0,0.3,0.1,1,0.7
			c0.3,0.3,0.5,0.4,0.5,0.6s-0.1,0.2-0.2,0.2h-2.7v4.9h0.5c0.6-0.8,0.8-1,0.9-1c0.2,0,0.3,0.1,0.9,0.7c0.2,0.2,0.4,0.4,0.4,0.5
			c0,0.1-0.1,0.2-0.2,0.2h-2.4v5.5h0.6c0.8-1,1-1.2,1.1-1.2c0.2,0,0.3,0.1,1,0.8c0.3,0.3,0.4,0.5,0.4,0.6s-0.1,0.2-0.2,0.2h-5.9
			c-0.4,0-0.7,0-1.2,0.1l-0.2-0.7c0.5,0.1,0.9,0.1,1.3,0.1h1.4v-5.5h-1c-0.3,0-0.6,0-1,0.1l-0.2-0.7c0.5,0.1,0.8,0.1,1.1,0.1h1.1
			v-4.9H-4c-0.4,0-0.7,0-1.2,0.1L-5.3,274.1z"/>
		<path id="XMLID_188_" class="st1" d="M11.8,273.7c0-0.3,0-0.6-0.1-1.1c2.3,0.2,2.5,0.4,2.5,0.6c0,0.2-0.2,0.4-0.6,0.5v1.3h4.5
			c0.9-1.1,1.2-1.2,1.3-1.2c0.2,0,0.4,0.1,1.2,0.8c0.4,0.3,0.5,0.5,0.5,0.6s-0.1,0.2-0.2,0.2H6.3c-0.4,0-0.8,0-1.3,0.1l-0.2-0.7
			c0.6,0.1,1,0.1,1.4,0.1h5.5v-1.2H11.8z M11.8,278.5c-0.2,2.3-1.3,3.3-4.1,3.9c-0.1,0-0.1-0.1-0.1-0.2c1.8-1,2.4-2,2.6-3.7H7.5v10
			c0,0.4-0.3,0.8-1,0.8c-0.5,0-0.8-0.2-0.8-0.7c0-1.1,0.1-2.2,0.1-6.5c0-1.6,0-3.3-0.1-4.9c1,0.4,1.1,0.4,1.9,0.9h2.3
			c-0.2-0.1-0.3-0.4-0.5-1.1c-0.1-0.6-0.3-0.9-0.7-1.4c-0.1-0.1,0-0.2,0.1-0.1c1.5,0.3,2.4,0.9,2.4,1.8c0,0.4-0.2,0.7-0.6,0.9h3.5
			c0.3-0.6,0.4-1.1,0.6-1.6c0.1-0.4,0.2-0.7,0.2-1c1.9,0.7,2,0.8,2,1c0,0.2-0.2,0.3-0.7,0.3c-0.7,0.7-1,0.9-1.5,1.3h3
			c0.7-0.7,0.8-0.8,1-0.8s0.3,0.1,1,0.7c0.3,0.3,0.4,0.4,0.4,0.5c0,0.2-0.1,0.3-0.6,0.6v1.3c0,5.5,0.1,6.4,0.1,7.1
			c0,0.9-0.2,1.2-0.8,1.5c-0.4,0.2-0.8,0.3-1.2,0.3c-0.2,0-0.3-0.1-0.3-0.2c-0.2-1-0.3-1.1-1.5-1.5c-0.1,0-0.1-0.2,0-0.2
			c0.8,0.1,1.3,0.1,1.9,0.1c0.2,0,0.3-0.1,0.3-0.3v-8.6h-3.3v1.6c0,0.4,0.1,0.4,0.9,0.4c0.3,0,0.6,0,0.7-0.1
			c0.3-0.1,0.4-0.5,0.7-1.2c0-0.1,0.2-0.1,0.2,0v0.9c0,0.2,0,0.2,0.3,0.3c0.2,0.1,0.4,0.3,0.4,0.5c0,0.3-0.3,0.6-0.9,0.7
			c-0.4,0.1-0.9,0.2-1.5,0.2c-1.7,0-2.2-0.3-2.2-1.5v-1.7h-1.5V278.5z M11.2,287c0,0.4-0.3,0.6-0.9,0.6c-0.5,0-0.6-0.1-0.6-0.5
			s0.1-1,0.1-2.7c0-0.8,0-1.5-0.1-2.3c0.9,0.3,1,0.4,1.8,0.8h2.9c0.6-0.7,0.8-0.8,0.9-0.8c0.2,0,0.3,0.1,1,0.6
			c0.3,0.2,0.4,0.4,0.4,0.5c0,0.2-0.1,0.3-0.5,0.5v0.5c0,1.2,0,2.1,0,2.4c0,0.4-0.3,0.6-1,0.6c-0.4,0-0.6-0.1-0.6-0.5v-0.3h-3.3
			L11.2,287L11.2,287z M14.4,283.2h-3.3v2.7h3.3V283.2z"/>
		<path id="XMLID_193_" class="st1" d="M27,287.3v0.7c0,0.6-0.3,0.8-1,0.8c-0.5,0-0.8-0.2-0.8-0.6c0-0.7,0.1-1.4,0.1-4.1
			c0-1,0-2.1-0.1-3.1c0.9,0.4,1.1,0.5,1.9,0.9h2.8c0.6-0.7,0.8-0.8,0.9-0.8c0.2,0,0.3,0.1,1,0.6c0.3,0.3,0.4,0.4,0.4,0.5
			s-0.1,0.3-0.5,0.5v0.8c0,2.2,0.1,3.9,0.1,4.4s-0.4,0.7-1,0.7c-0.5,0-0.8-0.2-0.8-0.6v-0.6L27,287.3L27,287.3z M30.1,282.2H27v4.7
			h3.1V282.2z M29.8,278.9v0.4c0,0.6-0.3,0.8-1,0.8c-0.6,0-0.8-0.2-0.8-0.6c0-0.5,0.1-1.1,0.1-3.1c0-1.1,0-2.2-0.1-3.3
			c1,0.4,1.1,0.5,2.1,1h5.3c0.7-0.8,0.8-0.9,1-0.9s0.3,0.1,1,0.7c0.3,0.3,0.4,0.4,0.4,0.5c0,0.2-0.1,0.3-0.5,0.6v0.7
			c0,1.9,0,3.2,0,3.7s-0.3,0.8-1,0.8c-0.5,0-0.8-0.2-0.8-0.6v-0.5h-5.7V278.9z M35.5,274.5h-5.7v4h5.7V274.5z M35.1,287.3v0.6
			c0,0.5-0.3,0.7-1,0.7c-0.5,0-0.8-0.2-0.8-0.6c0-0.6,0.1-1.4,0.1-4.1c0-1,0-2.1-0.1-3.1c0.9,0.4,1.1,0.5,1.9,0.9h3
			c0.7-0.7,0.8-0.8,1-0.8s0.3,0.1,1,0.6c0.3,0.3,0.4,0.4,0.4,0.5c0,0.1-0.1,0.3-0.5,0.5v0.9c0,2.3,0.1,3.8,0.1,4.3s-0.3,0.8-1,0.8
			c-0.5,0-0.7-0.2-0.7-0.6v-0.7h-3.4V287.3z M38.5,282.1h-3.4v4.7h3.4V282.1z"/>
	</g>
	<g id="XMLID_58_">
		<path id="XMLID_156_" class="st1" d="M-164.4,288.7c0,0.5-0.3,0.7-1,0.7c-0.5,0-0.7-0.2-0.7-0.6c0-1.2,0.1-2.5,0.1-7.5
			c0-2.8,0-5.7-0.1-8.5c0.9,0.4,1.1,0.5,1.9,0.9h3.1c0.6-0.7,0.8-0.8,0.9-0.8c0.2,0,0.3,0.1,1,0.6c0.3,0.2,0.4,0.4,0.4,0.5
			c0,0.2-0.1,0.3-0.5,0.5v0.5c0,1.3,0,2.2,0,2.5c0,0.4-0.3,0.6-1,0.6c-0.5,0-0.6-0.1-0.6-0.5v-0.1h-3.5
			C-164.4,277.5-164.4,288.7-164.4,288.7z M-160.9,274.1h-3.5v1.3h3.5V274.1z M-164.4,277.2h3.5v-1.3h-3.5V277.2z M-159.7,282.6
			c-1.1,0.3-2.1,0.6-3.4,0.8c-0.1,0.2-0.2,0.3-0.3,0.3c-0.2,0-0.3-0.3-0.6-1.3c0.4,0,0.6,0,0.8,0s0.5,0,0.8,0c0.7-0.7,1.2-1.4,1.7-2
			c0.2-0.4,0.4-0.8,0.6-1.1c1.1,0.6,1.4,0.8,1.4,1c0,0.2-0.2,0.3-0.6,0.3c-0.8,0.7-1.5,1.3-2.4,1.8c0.6,0,1.2-0.1,1.8-0.1
			c-0.1-0.3-0.2-0.6-0.4-0.8c-0.1-0.1,0-0.1,0.1-0.1c1.1,0.5,1.6,1,1.6,1.5c0,0.4-0.3,0.7-0.6,0.7c-0.4,0-0.6-0.1-0.6-0.6
			L-159.7,282.6z M-161.4,280.9c0,0.4-0.3,0.6-0.7,0.6c-0.3,0-0.4-0.1-0.5-0.5c-0.2-0.6-0.6-1-1-1.3c-0.1-0.1,0-0.1,0.1-0.1
			c0.5,0.1,0.8,0.2,1.2,0.3c0.2-0.3,0.4-0.7,0.6-1.1c0.1-0.3,0.2-0.6,0.3-0.8c1.2,0.4,1.6,0.6,1.6,0.8s-0.2,0.3-0.6,0.3
			c-0.6,0.5-1,0.7-1.5,1C-161.6,280.3-161.4,280.6-161.4,280.9z M-160.2,285.8c0-0.3,0-0.6,0-0.9c0-0.4,0-0.6-0.1-1.1
			c1.7,0.1,1.9,0.2,1.9,0.5c0,0.1-0.1,0.2-0.5,0.3c0,1.3-0.2,2.2-0.7,2.8c-0.7,0.9-1.9,1.4-4,1.7c-0.1,0-0.2-0.2-0.1-0.2
			c2.1-0.6,2.9-1.3,3.2-2.7h-1.4v0.3c0,0.4-0.3,0.5-0.8,0.5c-0.4,0-0.5-0.1-0.5-0.5c0-0.1,0-0.5,0-1.2c0-0.4,0-1.1-0.1-1.7
			c1.4,0.1,1.8,0.2,1.8,0.5c0,0.1-0.1,0.2-0.4,0.3v1.3L-160.2,285.8L-160.2,285.8z M-156,277.6c0,0.2-0.1,0.3-0.3,0.5
			c1.1,0.4,1.4,0.6,1.4,0.7c0,0.1-0.2,0.2-0.6,0.2c-0.4,0.4-0.7,0.7-1.2,1c0.3,0.2,0.5,0.5,0.5,0.7c0,0.4-0.3,0.6-0.6,0.6
			c-0.3,0-0.5-0.1-0.6-0.5c-0.3-0.6-0.5-1-0.9-1.3c-0.1-0.1,0-0.1,0.1-0.1c0.5,0.1,0.9,0.2,1.2,0.3c0.2-0.3,0.3-0.6,0.5-0.9
			c0.1-0.3,0.2-0.5,0.3-0.8c-0.1,0-0.3,0.1-0.4,0.1c-0.5,0-0.7-0.2-0.7-0.5c0-0.5,0-0.9,0-2.8c0-0.7,0-1.4-0.1-2
			c0.9,0.4,1,0.5,1.8,0.9h3.3c0.6-0.7,0.8-0.8,0.9-0.8c0.2,0,0.3,0.1,1,0.6c0.3,0.3,0.4,0.4,0.4,0.5c0,0.2-0.1,0.3-0.5,0.5v2.2
			c0,10,0,10.5,0,11s-0.1,0.7-0.2,1c-0.4,0.4-1,0.6-1.7,0.6c-0.3,0-0.3,0-0.4-0.4c0-0.7-0.3-0.9-1.4-1.2c-0.1,0-0.1-0.2,0-0.2
			c0.7,0.1,1.2,0.1,1.8,0.1c0.2,0,0.2-0.1,0.2-0.3v-9.8h-3.8V277.6z M-157.2,282.4c0.7-0.7,1.2-1.3,1.6-1.9c0.3-0.4,0.5-0.8,0.7-1.3
			c1.2,0.6,1.5,0.8,1.5,1c0,0.1,0,0.2-0.7,0.2c-0.8,0.8-1.7,1.5-2.5,1.9c0.7,0,1.5-0.1,2.3-0.1c-0.1-0.4-0.3-0.6-0.5-0.9
			c-0.1-0.1,0-0.1,0.1-0.1c1.3,0.5,1.9,0.9,1.9,1.5c0,0.5-0.3,0.7-0.7,0.7c-0.4,0-0.5-0.1-0.6-0.7c0-0.1,0-0.2-0.1-0.3
			c-1.3,0.4-2.2,0.6-3.2,0.8c-0.1,0.2-0.1,0.3-0.3,0.3s-0.3-0.2-0.5-1.3c0.2,0,0.6,0,0.9,0h0.1V282.4z M-156.4,286.2
			c0,1.2,0.1,2.1,0.1,2.4c0,0.4-0.3,0.6-0.8,0.6s-0.6-0.1-0.6-0.5c0-0.3,0.1-1.2,0.1-2.8c0-1.2,0-1.5-0.1-2.2
			c1.8,0.2,1.9,0.3,1.9,0.5c0,0.1-0.1,0.2-0.5,0.4v1.2h1.5V285c0-0.2,0-0.5-0.1-1.2c1.4,0.1,1.8,0.2,1.8,0.5c0,0.1-0.1,0.2-0.4,0.4
			v0.3c0,0.8,0,1.5,0,1.7c0,0.4-0.2,0.5-0.8,0.5c-0.4,0-0.6-0.2-0.6-0.5v-0.5H-156.4z M-152.3,274.2h-3.7v1.3h3.7V274.2z
			 M-156,277.2h3.7v-1.3h-3.7V277.2z"/>
		<path id="XMLID_168_" class="st1" d="M-141.6,279.9c0.6-0.7,0.7-0.8,0.9-0.8s0.3,0.1,0.9,0.6l0.1,0.1c1.1-1.3,1.9-2.8,2.4-4.3
			c0.3-0.8,0.5-1.5,0.6-2.2c2.1,0.5,2.3,0.6,2.3,0.9c0,0.2-0.1,0.3-0.6,0.4c0.6,1.2,1.4,2.2,2.4,3c0.8,0.6,1.7,1.2,2.9,1.6
			c0.1,0,0,0.2-0.1,0.2c-0.6,0.2-0.8,0.4-1,1.2c-0.1,0.3-0.1,0.4-0.3,0.4c-0.1,0-0.3-0.1-0.6-0.4c-0.5-0.4-1.2-1.1-1.6-1.7
			c-0.9-1.2-1.6-2.5-2-3.9c-1,2.1-2.4,3.9-4.3,5.2c0,0.1,0.1,0.1,0.1,0.2s-0.1,0.2-0.4,0.5c-0.2,4.9-0.4,6.2-0.9,7.3
			c-0.2,0.5-0.5,0.8-0.9,1c-0.3,0.2-0.7,0.2-1.1,0.2c-0.3,0-0.4-0.1-0.4-0.3c-0.1-0.7-0.3-1-1.5-1.5c-0.1,0-0.1-0.2,0-0.2
			c1,0.2,1.5,0.2,1.9,0.2c0.4,0,0.7-0.5,0.8-1.8c0.3-2.1,0.4-3.5,0.4-5.5h-1.8c-0.4,4.5-1.4,6.9-3.6,9c-0.1,0.1-0.2-0.1-0.2-0.2
			c1.7-2.8,2.3-6,2.3-12.1h-0.8c-0.3,0-0.7,0-1.2,0.1l-0.2-0.7c0.5,0.1,0.9,0.1,1.3,0.1h1.8v-2.1c0-0.4,0-0.9-0.1-1.3
			c2.1,0.2,2.3,0.4,2.3,0.6c0,0.2-0.2,0.3-0.5,0.5v2.4h0.9c0.8-0.9,1-1.1,1.1-1.1c0.2,0,0.3,0.1,1,0.8c0.3,0.3,0.4,0.4,0.4,0.6
			s-0.1,0.2-0.2,0.2h-4v0.3c0,0.8,0,1.7-0.1,2.5H-141.6z M-133.5,289.1c-0.5,0-0.6-0.1-1.4-1.3c-1-1.4-1.9-2.3-3.6-3.2
			c-0.1,0,0-0.2,0.1-0.2c3.7,0.9,5.7,2.2,5.7,3.7C-132.6,288.6-132.9,289.1-133.5,289.1z M-134.5,283.4c-0.5,0-0.6-0.2-1-1.3
			c-0.4-1-0.9-1.8-1.7-2.4c-0.1-0.1,0-0.2,0.1-0.2c2.1,0.5,3.5,1.6,3.5,2.8C-133.6,283-134,283.4-134.5,283.4z"/>
		<path id="XMLID_172_" class="st1" d="M-117.8,278.6c-0.1-1.2-0.2-2.6-0.2-4.2c0-0.3,0-0.7-0.1-1c2.2,0.2,2.4,0.3,2.4,0.6
			c0,0.2-0.2,0.4-0.6,0.6c0,1.5,0,2.9,0.1,4h2.7c0.9-1.1,1-1.2,1.2-1.2s0.3,0.1,1.2,0.8c0.4,0.3,0.5,0.5,0.5,0.6
			c0,0.1-0.1,0.2-0.2,0.2l-5.3,0.1c0.1,1.5,0.4,2.8,0.8,4c0.2-0.3,0.4-0.6,0.5-0.9c0.4-0.7,0.6-1.5,0.8-2.2c1.6,0.6,2.2,0.9,2.2,1.1
			s-0.2,0.3-0.7,0.4c-0.6,1.2-1.3,2.2-2,3.1c0.3,0.5,0.7,1,1.1,1.5c0.5,0.6,1.1,1,1.4,1s0.5-0.4,1.2-1.9c0-0.1,0.2-0.1,0.2,0
			c-0.2,1.6-0.2,1.9-0.2,2c0,0.3,0,0.3,0.3,0.7c0.1,0.2,0.2,0.4,0.2,0.6c0,0.5-0.4,0.9-0.9,0.9c-0.6,0-1.5-0.4-2.3-1.1
			c-0.9-0.7-1.6-1.5-2.2-2.4c-1.4,1.2-3,2.1-5,2.7c-0.1,0-0.2-0.1-0.1-0.2c1.7-0.9,3.3-2.2,4.5-3.7c-0.8-1.7-1.1-3.6-1.2-5.6h-3.6
			v2.9c0.9-0.2,1.8-0.4,2.8-0.6c0.1,0,0.1,0.1,0,0.2c-0.6,0.4-1.6,0.9-2.8,1.3v0.6c0,1.4,0,3,0,4.1c0,0.5-0.1,0.9-0.3,1.2
			c-0.3,0.4-0.8,0.6-1.7,0.6c-0.2,0-0.3-0.1-0.3-0.4c-0.1-0.7-0.3-0.9-1.7-1.3c-0.1,0-0.1-0.3,0-0.3c0.8,0.1,1.5,0.1,2,0.1
			c0.3,0,0.3,0,0.3-0.3v-3.7c-0.8,0.3-1.5,0.5-2.3,0.7c-0.1,0.5-0.2,0.7-0.4,0.7c-0.3,0-0.4-0.2-0.9-2.2c0.7,0,1.4-0.1,2.1-0.2
			c0.5-0.1,1-0.1,1.5-0.2v-3.2h-2.3c-0.4,0-1,0.1-1.3,0.1l-0.2-0.7c0.5,0.1,0.9,0.1,1.5,0.1h2.3V276c-1.1,0.3-2.2,0.4-3.2,0.5
			c-0.1,0-0.2-0.2-0.1-0.2c1.8-0.6,3.3-1.2,4.4-2c0.5-0.4,1-0.7,1.4-1.1c1.5,1.1,1.7,1.2,1.7,1.5c0,0.2-0.2,0.3-1,0.3
			c-0.5,0.2-1,0.5-1.6,0.6v3.1L-117.8,278.6z M-113.2,277.4c-0.4,0-0.6-0.2-1-1s-0.8-1.3-1.3-1.7c-0.1-0.1,0-0.1,0.1-0.1
			c1.8,0.1,3,0.8,3,1.9C-112.5,277-112.8,277.4-113.2,277.4z"/>
		<path id="XMLID_175_" class="st1" d="M-105.7,279.7c-0.5,0.7-1.1,1.4-1.7,2.1c-0.1,0.1-0.2-0.1-0.2-0.1c1-1.8,1.7-3.9,2.2-5.8
			c0.3-1.1,0.4-2.1,0.5-3.1c1.8,0.6,2.3,0.8,2.3,1s-0.2,0.3-0.6,0.4c-0.5,1.7-1.1,3.1-1.7,4.3c1.2,0.2,1.3,0.2,1.3,0.4
			c0,0.2-0.1,0.3-0.5,0.4v1.5c0,4.1,0,6.9,0,7.8c0,0.5-0.3,0.7-1,0.7c-0.6,0-0.8-0.1-0.8-0.7c0-0.5,0.1-1.9,0.1-4.7L-105.7,279.7
			L-105.7,279.7z M-100.9,279.5v9.1c0,0.5-0.3,0.6-1,0.6c-0.5,0-0.6-0.1-0.6-0.6c0-1.3,0.1-2.7,0.1-8c0-2.5,0-5-0.1-7.6
			c0.9,0.4,1,0.5,1.8,0.9h1.6c0.5-0.7,0.7-0.8,0.8-0.8c0.2,0,0.3,0.1,0.9,0.6c0.3,0.2,0.4,0.4,0.4,0.5c0,0.2-0.1,0.3-0.5,0.5v0.8
			c0,2.1,0,3.5,0,4c0,0.4-0.3,0.6-0.8,0.6s-0.7-0.1-0.7-0.5v-0.2L-100.9,279.5L-100.9,279.5z M-99.1,274.5h-1.8v2.1h1.8V274.5z
			 M-99.1,277h-1.8v2.2h1.8V277z M-95,279.5L-95,279.5c0,0.5-0.3,0.6-0.8,0.6s-0.7-0.1-0.7-0.5c0-0.6,0-1.2,0-3.5c0-1,0-1.9-0.1-2.9
			c0.8,0.3,1,0.4,1.7,0.9h1.6c0.6-0.7,0.7-0.8,0.9-0.8c0.2,0,0.3,0.1,1,0.6c0.3,0.2,0.4,0.4,0.4,0.5c0,0.2-0.1,0.2-0.5,0.5v2.1
			c0,9.7,0,10.2,0,10.7c0,0.6-0.2,1.1-0.6,1.3c-0.3,0.2-0.6,0.3-1.2,0.3c-0.4,0-0.5,0-0.5-0.3c-0.1-0.8-0.5-1.1-2-1.5
			c-0.1,0-0.1-0.2,0-0.2c0.9,0.1,1.6,0.1,2.4,0.1c0.2,0,0.2,0,0.2-0.2v-7.6H-95V279.5z M-93.1,274.5H-95v2.1h1.9V274.5z M-93.1,277
			H-95v2.2h1.9V277z"/>
	</g>
</g>
<g id="click變色">
	<g id="XMLID_42_">
		<path id="XMLID_141_" class="st1" d="M256.3,405.8h-1.5c0-0.4,0-1,0-1.9s0-2.2,0-3.9c0-0.7,0-1.5,0-2.6s0-2.2,0-3.4h1.5
			c0,0.8,0,1.8,0,2.9s0,2,0,2.7c0,1.8,0,3.2,0,4.1S256.3,405.5,256.3,405.8z"/>
		<path id="XMLID_143_" class="st1" d="M272.4,394.1c0,0.9,0,2,0,3.2s0,2,0,2.6c0,1.7,0,3,0,4s0,1.5,0,1.6l-1.2,0.6
			c-1.8-2.4-3.4-4.5-5-6.5c-1.5-1.9-2.4-3-2.7-3.3l0,0c0,1.6,0,3.5,0,5.8s0,3.6,0,4h-1.4c0-0.1,0-0.7,0-1.6s0-2.1,0-3.7
			c0-0.6,0-1.5,0-2.5s0-2.2,0-3.4l1.3-0.6c0.1,0.1,1,1.3,2.7,3.4s3.3,4.1,4.8,6l0,0c0-0.9,0-2.4,0-4.6s0-3.7,0-4.7h1.5V394.1z"/>
		<path id="XMLID_145_" class="st1" d="M284.1,402.5c0,0.6-0.1,1.1-0.4,1.6s-0.7,0.8-1.1,1.1c-0.4,0.3-0.9,0.5-1.5,0.6
			s-1.2,0.2-1.9,0.2c-0.4,0-0.8,0-1.2,0s-0.6,0-0.7,0l-0.1-1.3c0.1,0,0.3,0,0.7,0.1s0.8,0,1.3,0c0.3,0,0.7,0,1.2-0.1
			s0.9-0.2,1.1-0.3c0.3-0.2,0.6-0.4,0.8-0.6s0.3-0.5,0.3-0.9s-0.1-0.7-0.3-1s-0.5-0.5-0.9-0.8c-0.3-0.2-0.6-0.3-1.1-0.6
			s-0.8-0.4-1.2-0.6c-0.6-0.4-1-0.8-1.3-1.2s-0.4-0.9-0.4-1.4s0.1-1,0.3-1.4s0.5-0.7,0.9-1s0.8-0.5,1.4-0.6c0.5-0.1,1.1-0.2,1.8-0.2
			c0.4,0,0.7,0,1.1,0s0.6,0,0.6,0l0.1,1.3c-0.1,0-0.3,0-0.6-0.1s-0.8-0.1-1.4-0.1c-0.3,0-0.7,0-1,0.1s-0.7,0.2-0.9,0.3
			c-0.2,0.1-0.4,0.3-0.6,0.6s-0.2,0.5-0.2,0.8s0.1,0.6,0.3,0.8s0.5,0.5,1,0.8c0.2,0.1,0.6,0.3,1,0.5s0.8,0.4,1.2,0.6
			c0.6,0.3,1,0.7,1.3,1.2S284.1,402,284.1,402.5z"/>
		<path id="XMLID_147_" class="st1" d="M296.5,398.1c0,0.9-0.3,1.6-0.8,2.3c-0.6,0.7-1.3,1.2-2.2,1.4c-0.4,0.1-0.8,0.2-1.3,0.2
			s-1,0.1-1.6,0.1v3.7h-1.5c0-0.4,0-1,0-2s0-2.4,0-4.4c0-0.6,0-1.4,0-2.3s0-1.9,0-3.1c0.3,0,0.5,0,0.7,0s0.4,0,0.6,0
			c1,0,1.9,0.1,2.6,0.2s1.3,0.3,1.8,0.7c0.5,0.3,0.9,0.8,1.2,1.3C296.3,396.8,296.5,397.4,296.5,398.1z M295,398.1
			c0-0.6-0.1-1.1-0.4-1.5s-0.7-0.8-1.3-1c-0.4-0.2-0.7-0.2-1.1-0.3s-0.8-0.1-1.3-0.1c-0.1,0-0.1,0-0.2,0s-0.1,0-0.2,0
			c0,0.1,0,0.5,0,1.3s0,1.5,0,1.9s0,0.9,0,1.5s0,0.9,0,1c0.1,0,0.1,0,0.2,0s0.1,0,0.2,0c0.4,0,0.8,0,1.3-0.1s0.8-0.1,1.1-0.3
			c0.6-0.2,1-0.6,1.3-1S295,398.7,295,398.1z"/>
		<path id="XMLID_150_" class="st1" d="M302.6,405.8h-1.5c0-0.4,0-1,0-1.9s0-2.2,0-3.9c0-0.7,0-1.5,0-2.6s0-2.2,0-3.4h1.5
			c0,0.8,0,1.8,0,2.9s0,2,0,2.7c0,1.8,0,3.2,0,4.1S302.6,405.5,302.6,405.8z"/>
		<path id="XMLID_152_" class="st1" d="M317.5,405.1l-1.1,0.9c-0.1-0.1-0.6-0.6-1.4-1.5c-0.8-0.9-2-2.3-3.6-4.1v-0.1
			c0.2-0.1,0.5-0.2,0.9-0.4c0.4-0.2,0.7-0.4,0.9-0.6s0.4-0.4,0.6-0.7c0.2-0.3,0.2-0.7,0.2-1.2s-0.1-0.8-0.4-1.2
			c-0.2-0.3-0.6-0.6-1-0.7c-0.3-0.1-0.7-0.2-1.1-0.2s-0.7,0-1,0c-0.2,0-0.4,0-0.5,0s-0.2,0-0.2,0c0,1.1,0,2.1,0,2.9
			c0,0.9,0,1.5,0,1.8c0,0.8,0,1.9,0,3.3s0,2.2,0,2.6h-1.5c0-0.4,0-1,0-2s0-2.3,0-3.8c0-0.3,0-0.8,0-1.6s0-2.2,0-4.3
			c0.1,0,0.4,0,0.9,0s1,0,1.5,0s1,0,1.5,0.1s0.9,0.2,1.4,0.4c0.6,0.2,1,0.6,1.4,1.1c0.3,0.5,0.5,1,0.5,1.7c0,0.8-0.3,1.5-0.8,2.1
			s-1,1-1.5,1.2l0,0c0.8,0.9,1.7,1.9,2.6,2.9C317,404.5,317.5,405.1,317.5,405.1z"/>
		<path id="XMLID_154_" class="st1" d="M329.2,405.8c-0.1,0-0.4,0-1.2,0s-1.6,0-2.7,0c-0.7,0-1.4,0-2,0s-1.1,0-1.6,0
			c0-0.3,0-1.1,0-2.2s0-2.3,0-3.5c0-0.7,0-1.5,0-2.6s0-2.2,0-3.4c0.4,0,0.9,0,1.6,0s1.3,0,1.9,0c1.1,0,2,0,2.7,0s1.1,0,1.1,0v1.2
			c-0.1,0-0.4,0-1.1,0s-1.5,0-2.5,0c-0.4,0-0.9,0-1.3,0s-0.8,0-1,0c0,0.7,0,1.3,0,2s0,1.3,0,1.9c0.3,0,0.6,0,0.9,0s0.7,0,1,0
			c1,0,2,0,2.8,0s1.2,0,1.3,0v1.2c0,0-0.5,0-1.5,0s-1.8,0-2.5,0c-0.3,0-0.6,0-1,0s-0.7,0-1,0c0,1.1,0,2,0,2.6s0,1.2,0,1.6
			c0.3,0,0.8,0,1.3,0s1,0,1.6,0c0.9,0,1.6,0,2.2,0s0.9,0,1,0V405.8z"/>
	</g>
	<g id="XMLID_40_">
		<path id="XMLID_128_" class="st1" d="M121.5,404.8c0,0.1,0,0.2,0,0.4s-0.1,0.5-0.1,0.8c0,0-0.1,0-0.2,0s-0.1,0-0.2,0
			c-1.4,0-2.7-0.2-3.8-0.5s-2-0.9-2.7-1.6c-0.5-0.5-0.9-1-1.2-1.7s-0.4-1.4-0.4-2.3c0-0.8,0.1-1.5,0.4-2.1s0.7-1.2,1.1-1.6
			c0.7-0.7,1.6-1.2,2.7-1.6s2.4-0.6,3.6-0.6c0.1,0,0.1,0,0.2,0s0.1,0,0.2,0c0,0.1,0,0.3,0,0.5s0,0.5,0.1,0.8c-0.1,0-0.1,0-0.1,0H121
			c-0.7,0-1.5,0.1-2.3,0.2s-1.5,0.4-2,0.7c-0.7,0.4-1.3,1-1.7,1.6s-0.6,1.4-0.6,2.1c0,0.8,0.2,1.5,0.5,2.2s0.9,1.2,1.7,1.6
			c0.6,0.4,1.3,0.6,2.1,0.8s1.6,0.2,2.3,0.2c0,0,0.1,0,0.2,0C121.3,404.8,121.4,404.8,121.5,404.8z"/>
		<path id="XMLID_130_" class="st1" d="M135.5,394.1c0,1.1,0,2.1,0,2.8s0,1.4,0,1.9c0,0.7,0,1.2,0,1.7s0,0.9,0,1.2
			c0,0.7-0.1,1.3-0.3,1.8s-0.5,1-0.9,1.4s-0.9,0.7-1.5,0.9s-1.3,0.3-2.1,0.3s-1.5-0.1-2.1-0.3s-1.1-0.5-1.5-0.9s-0.7-0.8-0.9-1.4
			s-0.3-1.1-0.3-1.8c0-0.3,0-0.8,0-1.2s0-1,0-1.7c0-0.5,0-1.2,0-1.9s0-1.7,0-2.8h1.5c0,0.1,0,0.6,0,1.5s0,2,0,3.4c0,0.4,0,0.9,0,1.3
			s0,0.9,0,1.4c0,1.1,0.3,1.9,0.9,2.4s1.4,0.8,2.5,0.8s2-0.3,2.6-0.8s0.9-1.4,0.9-2.5c0-0.5,0-0.9,0-1.4s0-0.9,0-1.3
			c0-1.4,0-2.5,0-3.4s0-1.4,0-1.5h1.2V394.1z"/>
		<path id="XMLID_132_" class="st1" d="M147.2,402.5c0,0.6-0.1,1.1-0.4,1.6s-0.7,0.8-1.1,1.1c-0.4,0.3-0.9,0.5-1.5,0.6
			s-1.2,0.2-1.9,0.2c-0.4,0-0.8,0-1.2,0s-0.6,0-0.7,0l-0.1-1.3c0.1,0,0.3,0,0.7,0.1s0.8,0,1.3,0c0.3,0,0.7,0,1.2-0.1
			s0.9-0.2,1.1-0.3c0.3-0.2,0.6-0.4,0.8-0.6s0.3-0.5,0.3-0.9s-0.1-0.7-0.3-1s-0.5-0.5-0.9-0.8c-0.3-0.2-0.6-0.3-1.1-0.6
			s-0.8-0.4-1.2-0.6c-0.6-0.4-1-0.8-1.3-1.2s-0.4-0.9-0.4-1.4s0.1-1,0.3-1.4s0.5-0.7,0.9-1s0.8-0.5,1.4-0.6c0.5-0.1,1.1-0.2,1.8-0.2
			c0.4,0,0.7,0,1.1,0s0.6,0,0.6,0l0.1,1.3c-0.1,0-0.3,0-0.6-0.1s-0.8-0.1-1.4-0.1c-0.3,0-0.7,0-1,0.1s-0.7,0.2-0.9,0.3
			c-0.2,0.1-0.4,0.3-0.6,0.6s-0.2,0.5-0.2,0.8s0.1,0.6,0.3,0.8s0.5,0.5,1,0.8c0.2,0.1,0.6,0.3,1,0.5s0.8,0.4,1.2,0.6
			c0.6,0.3,1,0.7,1.3,1.2S147.2,402,147.2,402.5z"/>
		<path id="XMLID_134_" class="st1" d="M160.3,395.3c-0.1,0-0.5,0-1.2,0s-1.7,0-3.1,0c0,1.2,0,2.1,0,2.7s0,1.5,0,2.5s0,2.1,0,3.1
			c0,1.1,0,1.8,0,2.1h-1.5c0-0.4,0-1.1,0-2.2s0-2.1,0-3.2c0-1,0-1.8,0-2.4s0-1.5,0-2.8c-1.2,0-2.3,0-3,0s-1.2,0-1.3,0v-1.2
			c0.6,0,1.3,0,2.2,0s1.8,0,2.8,0c1.4,0,2.6,0,3.6,0s1.5,0,1.5,0V395.3z"/>
		<path id="XMLID_136_" class="st1" d="M174.6,400c0,0.9-0.2,1.8-0.5,2.6c-0.3,0.8-0.7,1.4-1.3,2c-0.6,0.6-1.2,1-1.8,1.3
			c-0.6,0.3-1.3,0.4-2.1,0.4c-0.7,0-1.4-0.1-2.1-0.4s-1.2-0.6-1.7-1.1c-0.6-0.5-1-1.2-1.4-2s-0.5-1.7-0.5-2.7c0-0.9,0.1-1.7,0.4-2.5
			c0.3-0.7,0.7-1.4,1.2-2s1.1-1,1.8-1.3c0.7-0.3,1.4-0.5,2.2-0.5c0.8,0,1.5,0.1,2.2,0.4s1.3,0.7,1.7,1.2c0.6,0.6,1,1.3,1.3,2.1
			C174.5,398.2,174.6,399.1,174.6,400z M173.1,400.1c0-0.8-0.1-1.5-0.4-2.2s-0.6-1.4-1.2-1.9c-0.4-0.3-0.7-0.6-1.2-0.8
			s-0.9-0.3-1.5-0.3c-0.5,0-1,0.1-1.5,0.3s-0.9,0.5-1.2,0.8c-0.5,0.5-0.8,1-1.1,1.7c-0.3,0.7-0.4,1.4-0.4,2.2c0,0.8,0.1,1.6,0.4,2.3
			c0.3,0.7,0.6,1.2,1.1,1.7c0.3,0.3,0.7,0.6,1.2,0.8c0.5,0.2,0.9,0.3,1.5,0.3s1-0.1,1.5-0.3s0.9-0.5,1.2-0.8c0.4-0.4,0.8-1,1.1-1.6
			C173,401.6,173.1,400.9,173.1,400.1z"/>
		<path id="XMLID_139_" class="st1" d="M193.8,405.7l-1.4,0.3l-1.8-9.9l0,0c-0.2,0.5-0.7,1.6-1.5,3.3c-0.8,1.7-1.6,3.5-2.3,5.2h-1.2
			c-0.7-1.6-1.5-3.4-2.3-5.2c-0.8-1.9-1.3-3-1.5-3.3l0,0c0,0.2-0.3,1.3-0.7,3.4c-0.4,2.1-0.9,4.3-1.3,6.5l-1.3-0.2
			c0.6-2.5,1.1-5,1.6-7.5s0.8-3.8,0.8-4l1.4-0.2c0.1,0.1,0.5,1.1,1.2,2.8s1.7,3.8,2.7,6.1h0.1c0.8-1.8,1.6-3.7,2.5-5.7
			s1.4-3.1,1.4-3.2l1.3,0.1c0,0.1,0.3,1.4,0.7,3.9S193.3,402.9,193.8,405.7z"/>
	</g>
	<g id="XMLID_47_">
		<path id="XMLID_109_" class="st1" d="M-30.7,398.1c0,0.9-0.3,1.6-0.8,2.3c-0.6,0.7-1.3,1.2-2.2,1.4c-0.4,0.1-0.8,0.2-1.3,0.2
			s-1,0.1-1.6,0.1v3.7H-38c0-0.4,0-1,0-2s0-2.4,0-4.4c0-0.6,0-1.4,0-2.3s0-1.9,0-3.1c0.3,0,0.5,0,0.7,0s0.4,0,0.6,0
			c1,0,1.9,0.1,2.6,0.2c0.7,0.1,1.3,0.3,1.8,0.7c0.5,0.3,0.9,0.8,1.2,1.3C-30.8,396.8-30.7,397.4-30.7,398.1z M-32.2,398.1
			c0-0.6-0.1-1.1-0.4-1.5s-0.7-0.8-1.3-1c-0.4-0.2-0.7-0.2-1.1-0.3s-0.8-0.1-1.3-0.1c-0.1,0-0.1,0-0.2,0s-0.1,0-0.2,0
			c0,0.1,0,0.5,0,1.3s0,1.5,0,1.9s0,0.9,0,1.5s0,0.9,0,1c0.1,0,0.1,0,0.2,0s0.1,0,0.2,0c0.4,0,0.8,0,1.3-0.1s0.8-0.1,1.1-0.3
			c0.6-0.2,1-0.6,1.3-1S-32.2,398.7-32.2,398.1z"/>
		<path id="XMLID_112_" class="st1" d="M-17,405.1l-1.1,0.9c-0.1-0.1-0.6-0.6-1.4-1.5c-0.8-0.9-2-2.3-3.6-4.1v-0.1
			c0.2-0.1,0.5-0.2,0.9-0.4c0.4-0.2,0.7-0.4,0.9-0.6s0.4-0.4,0.6-0.7c0.2-0.3,0.2-0.7,0.2-1.2s-0.1-0.8-0.4-1.2
			c-0.2-0.3-0.6-0.6-1-0.7c-0.3-0.1-0.7-0.2-1.1-0.2s-0.7,0-1,0c-0.2,0-0.4,0-0.5,0s-0.2,0-0.2,0c0,1.1,0,2.1,0,2.9
			c0,0.9,0,1.5,0,1.8c0,0.8,0,1.9,0,3.3s0,2.2,0,2.6H-26c0-0.4,0-1,0-2s0-2.3,0-3.8c0-0.3,0-0.8,0-1.6s0-2.2,0-4.3
			c0.1,0,0.4,0,0.9,0s1,0,1.5,0s1,0,1.5,0.1s0.9,0.2,1.4,0.4c0.6,0.2,1,0.6,1.4,1.1s0.5,1,0.5,1.7c0,0.8-0.3,1.5-0.8,2.1
			s-1,1-1.5,1.2l0,0c0.8,0.9,1.7,1.9,2.6,2.9S-17,405.1-17,405.1z"/>
		<path id="XMLID_114_" class="st1" d="M-2.4,400c0,0.9-0.2,1.8-0.5,2.6c-0.3,0.8-0.7,1.4-1.3,2s-1.2,1-1.8,1.3s-1.3,0.4-2.1,0.4
			c-0.7,0-1.4-0.1-2.1-0.4s-1.2-0.6-1.7-1.1c-0.6-0.5-1-1.2-1.4-2s-0.5-1.7-0.5-2.7c0-0.9,0.1-1.7,0.4-2.5c0.3-0.7,0.7-1.4,1.2-2
			s1.1-1,1.8-1.3s1.4-0.5,2.2-0.5s1.5,0.1,2.2,0.4s1.3,0.7,1.7,1.2c0.6,0.6,1,1.3,1.3,2.1C-2.6,398.2-2.4,399.1-2.4,400z
			 M-3.9,400.1c0-0.8-0.1-1.5-0.4-2.2c-0.3-0.7-0.6-1.4-1.2-1.9c-0.4-0.3-0.7-0.6-1.2-0.8s-0.9-0.3-1.5-0.3c-0.5,0-1,0.1-1.5,0.3
			s-0.9,0.5-1.2,0.8c-0.5,0.5-0.8,1-1.1,1.7s-0.4,1.4-0.4,2.2c0,0.8,0.1,1.6,0.4,2.3c0.3,0.7,0.6,1.2,1.1,1.7
			c0.3,0.3,0.7,0.6,1.2,0.8c0.5,0.2,0.9,0.3,1.5,0.3s1-0.1,1.5-0.3s0.9-0.5,1.2-0.8c0.4-0.4,0.8-1,1.1-1.6
			C-4.1,401.6-3.9,400.9-3.9,400.1z"/>
		<path id="XMLID_117_" class="st1" d="M12.4,400c0,1-0.3,1.9-0.8,2.7s-1.2,1.4-2,1.9c-0.7,0.4-1.5,0.7-2.3,0.9
			c-0.9,0.2-1.8,0.3-2.9,0.3c-0.4,0-0.8,0-1.2,0s-0.6,0-0.6,0s0-0.7,0-2s0-2.6,0-3.8c0-0.6,0-1.4,0-2.4s0-2.2,0-3.6
			c0.1,0,0.3,0,0.8,0s0.7,0,0.8,0c1.2,0,2.3,0.1,3.2,0.3c0.9,0.2,1.8,0.6,2.5,1c0.9,0.5,1.5,1.2,1.9,2S12.4,399,12.4,400z M10.9,400
			c0-0.8-0.2-1.5-0.5-2.1s-0.8-1.2-1.6-1.6c-0.7-0.4-1.4-0.7-2.2-0.9s-1.5-0.2-2.2-0.2c-0.1,0-0.2,0-0.3,0s-0.2,0-0.2,0
			c0,0.9,0,1.7,0,2.3s0,1.1,0,1.5c0,0.3,0,0.9,0,1.8s0,2.3,0,3.9c0.1,0,0.2,0,0.2,0c0.1,0,0.1,0,0.2,0c0.8,0,1.5-0.1,2.3-0.3
			s1.4-0.4,1.9-0.7c0.7-0.4,1.2-0.9,1.6-1.5S10.9,400.9,10.9,400z"/>
		<path id="XMLID_120_" class="st1" d="M27.1,394.1c0,1.1,0,2.1,0,2.8s0,1.4,0,1.9c0,0.7,0,1.2,0,1.7s0,0.9,0,1.2
			c0,0.7-0.1,1.3-0.3,1.8s-0.5,1-0.9,1.4s-0.9,0.7-1.5,0.9s-1.3,0.3-2.1,0.3s-1.5-0.1-2.1-0.3s-1.1-0.5-1.5-0.9s-0.7-0.8-0.9-1.4
			s-0.3-1.1-0.3-1.8c0-0.3,0-0.8,0-1.2s0-1,0-1.7c0-0.5,0-1.2,0-1.9s0-1.7,0-2.8H19c0,0.1,0,0.6,0,1.5s0,2,0,3.4c0,0.4,0,0.9,0,1.3
			s0,0.9,0,1.4c0,1.1,0.3,1.9,0.9,2.4s1.4,0.8,2.5,0.8s2-0.3,2.6-0.8s0.9-1.4,0.9-2.5c0-0.5,0-0.9,0-1.4s0-0.9,0-1.3
			c0-1.4,0-2.5,0-3.4s0-1.4,0-1.5h1.2V394.1z"/>
		<path id="XMLID_122_" class="st1" d="M40.7,404.8c0,0.1,0,0.2,0,0.4s-0.1,0.5-0.1,0.8c0,0-0.1,0-0.2,0s-0.1,0-0.2,0
			c-1.4,0-2.7-0.2-3.8-0.5s-2-0.9-2.7-1.6c-0.5-0.5-0.9-1-1.2-1.7s-0.4-1.4-0.4-2.3c0-0.8,0.1-1.5,0.4-2.1s0.7-1.2,1.1-1.6
			c0.7-0.7,1.6-1.2,2.7-1.6s2.4-0.6,3.6-0.6c0.1,0,0.1,0,0.2,0s0.1,0,0.2,0c0,0.1,0,0.3,0,0.5s0,0.5,0.1,0.8c-0.1,0-0.1,0-0.1,0
			h-0.1c-0.7,0-1.5,0.1-2.3,0.2s-1.5,0.4-2,0.7c-0.7,0.4-1.3,1-1.7,1.6s-0.6,1.4-0.6,2.1c0,0.8,0.2,1.5,0.5,2.2s0.9,1.2,1.7,1.6
			c0.6,0.4,1.3,0.6,2.1,0.8s1.6,0.2,2.3,0.2c0,0,0.1,0,0.2,0C40.5,404.8,40.6,404.8,40.7,404.8z"/>
		<path id="XMLID_124_" class="st1" d="M53.2,395.3c-0.1,0-0.5,0-1.2,0s-1.7,0-3.1,0c0,1.2,0,2.1,0,2.7s0,1.5,0,2.5s0,2.1,0,3.1
			c0,1.1,0,1.8,0,2.1h-1.5c0-0.4,0-1.1,0-2.2s0-2.1,0-3.2c0-1,0-1.8,0-2.4s0-1.5,0-2.8c-1.2,0-2.3,0-3,0s-1.2,0-1.3,0v-1.2
			c0.6,0,1.3,0,2.2,0s1.8,0,2.8,0c1.4,0,2.6,0,3.6,0s1.5,0,1.5,0V395.3z"/>
		<path id="XMLID_126_" class="st1" d="M63.1,402.5c0,0.6-0.1,1.1-0.4,1.6s-0.7,0.8-1.1,1.1c-0.4,0.3-0.9,0.5-1.5,0.6
			s-1.2,0.2-1.9,0.2c-0.4,0-0.8,0-1.2,0s-0.6,0-0.7,0l-0.1-1.3c0.1,0,0.3,0,0.7,0.1s0.8,0,1.3,0c0.3,0,0.7,0,1.2-0.1
			s0.9-0.2,1.1-0.3c0.3-0.2,0.6-0.4,0.8-0.6s0.3-0.5,0.3-0.9s-0.1-0.7-0.3-1s-0.5-0.5-0.9-0.8c-0.3-0.2-0.6-0.3-1.1-0.6
			s-0.8-0.4-1.2-0.6c-0.6-0.4-1-0.8-1.3-1.2s-0.4-0.9-0.4-1.4s0.1-1,0.3-1.4s0.5-0.7,0.9-1s0.8-0.5,1.4-0.6c0.5-0.1,1.1-0.2,1.8-0.2
			c0.4,0,0.7,0,1.1,0s0.6,0,0.6,0l0.1,1.3c-0.1,0-0.3,0-0.6-0.1s-0.8-0.1-1.4-0.1c-0.3,0-0.7,0-1,0.1s-0.7,0.2-0.9,0.3
			c-0.2,0.1-0.4,0.3-0.6,0.6s-0.2,0.5-0.2,0.8s0.1,0.6,0.3,0.8s0.5,0.5,1,0.8c0.2,0.1,0.6,0.3,1,0.5s0.8,0.4,1.2,0.6
			c0.6,0.3,1,0.7,1.3,1.2S63.1,402,63.1,402.5z"/>
	</g>
	<g id="XMLID_100_">
		<path id="XMLID_38_" class="st1" d="M-168.6,405.5l-1.4,0.7c0-0.1-0.2-0.5-0.6-1.3c-0.4-0.8-0.8-1.8-1.4-3.1h-5.2
			c-0.6,1.4-1.1,2.4-1.4,3.2c-0.3,0.8-0.5,1.2-0.6,1.3l-1.2-0.6c0.2-0.3,0.8-1.6,1.9-4s2.3-4.9,3.4-7.5h1.1c1.2,2.6,2.3,5.2,3.5,7.6
			S-168.6,405.4-168.6,405.5z M-172.4,400.7c-0.3-0.7-0.6-1.5-1-2.2c-0.3-0.8-0.7-1.6-1.1-2.4l0,0c-0.3,0.6-0.7,1.4-1.1,2.4
			c-0.4,0.9-0.8,1.7-1,2.3l0,0L-172.4,400.7L-172.4,400.7z"/>
		<path id="XMLID_46_" class="st1" d="M-156.3,402.6c0,0.6-0.2,1.1-0.5,1.6s-0.7,0.9-1.3,1.2c-0.5,0.3-1.1,0.5-1.7,0.6
			c-0.6,0.1-1.3,0.2-2.1,0.2c-0.6,0-1.2,0-1.8,0s-1,0-1,0c0-1.1,0-2.2,0-3.2s0-2,0-2.9c0-1.7,0-3.1,0-4.1s0-1.5,0-1.6
			c0.1,0,0.4,0,1,0s1.1,0,1.6,0c0.6,0,1.2,0,1.7,0.1s0.9,0.2,1.3,0.3c0.5,0.2,1,0.5,1.3,0.9s0.5,0.9,0.5,1.5s-0.2,1.1-0.6,1.6
			c-0.4,0.5-0.8,0.8-1.3,1v0.1c0.4,0,0.8,0.1,1.2,0.3c0.4,0.2,0.7,0.4,1,0.7c0.3,0.3,0.4,0.5,0.6,0.8S-156.3,402.1-156.3,402.6z
			 M-157.8,402.6c0-0.3-0.1-0.6-0.2-0.8s-0.3-0.5-0.5-0.7s-0.5-0.4-0.8-0.5s-0.7-0.2-1.1-0.2c-0.3,0-0.6,0-0.8,0s-0.3,0-0.4,0
			l-0.1-1.1c0.4,0,0.8-0.1,1.1-0.2c0.3-0.1,0.6-0.2,0.9-0.4c0.2-0.2,0.4-0.4,0.6-0.7c0.2-0.3,0.2-0.6,0.2-0.9c0-0.4-0.1-0.7-0.3-0.9
			s-0.4-0.5-0.7-0.6c-0.3-0.1-0.6-0.2-0.9-0.3c-0.4-0.1-0.8-0.1-1.2-0.1c-0.3,0-0.5,0-0.8,0s-0.4,0-0.4,0c0,0.9,0,1.8,0,2.7
			s0,1.7,0,2.1c0,1,0,2,0,3s0,1.6,0,1.6c0.1,0,0.3,0,0.5,0s0.4,0,0.6,0c0.7,0,1.3,0,1.9-0.1c0.6-0.1,1.1-0.2,1.5-0.4
			c0.3-0.2,0.6-0.4,0.8-0.7C-157.9,403.3-157.8,403-157.8,402.6z"/>
		<path id="XMLID_51_" class="st1" d="M-140.9,400.1c0,0.9-0.2,1.8-0.5,2.6c-0.3,0.8-0.7,1.4-1.3,2c-0.6,0.6-1.2,1-1.8,1.3
			s-1.3,0.4-2.1,0.4c-0.7,0-1.4-0.1-2.1-0.4s-1.2-0.6-1.7-1.1c-0.6-0.5-1-1.2-1.4-2c-0.4-0.8-0.5-1.7-0.5-2.7c0-0.9,0.1-1.7,0.4-2.5
			c0.3-0.7,0.7-1.4,1.2-2s1.1-1,1.8-1.3c0.7-0.3,1.4-0.5,2.2-0.5s1.5,0.1,2.2,0.4c0.7,0.3,1.3,0.7,1.7,1.2c0.6,0.6,1,1.3,1.3,2.1
			C-141.1,398.4-140.9,399.2-140.9,400.1z M-142.4,400.3c0-0.8-0.1-1.5-0.4-2.2s-0.6-1.4-1.2-1.9c-0.4-0.3-0.7-0.6-1.2-0.8
			s-0.9-0.3-1.5-0.3c-0.5,0-1,0.1-1.5,0.3s-0.9,0.5-1.2,0.8c-0.5,0.5-0.8,1-1.1,1.7c-0.3,0.7-0.4,1.4-0.4,2.2c0,0.8,0.1,1.6,0.4,2.3
			c0.3,0.7,0.6,1.2,1.1,1.7c0.3,0.3,0.7,0.6,1.2,0.8c0.5,0.2,0.9,0.3,1.5,0.3c0.6,0,1-0.1,1.5-0.3s0.9-0.5,1.2-0.8
			c0.4-0.4,0.8-1,1.1-1.6C-142.5,401.8-142.4,401.1-142.4,400.3z"/>
		<path id="XMLID_67_" class="st1" d="M-126.3,394.3c0,1.1,0,2.1,0,2.8s0,1.4,0,1.9c0,0.7,0,1.2,0,1.7s0,0.9,0,1.2
			c0,0.7-0.1,1.3-0.3,1.8s-0.5,1-0.9,1.4s-0.9,0.7-1.5,0.9c-0.6,0.2-1.3,0.3-2.1,0.3s-1.5-0.1-2.1-0.3c-0.6-0.2-1.1-0.5-1.5-0.9
			c-0.4-0.4-0.7-0.8-0.9-1.4s-0.3-1.1-0.3-1.8c0-0.3,0-0.8,0-1.2s0-1,0-1.7c0-0.5,0-1.2,0-1.9s0-1.7,0-2.8h1.5c0,0.1,0,0.6,0,1.5
			s0,2,0,3.4c0,0.4,0,0.9,0,1.3s0,0.9,0,1.4c0,1.1,0.3,1.9,0.9,2.4c0.6,0.5,1.4,0.8,2.5,0.8c1.1,0,2-0.3,2.6-0.8
			c0.6-0.5,0.9-1.4,0.9-2.5c0-0.5,0-0.9,0-1.4s0-0.9,0-1.3c0-1.4,0-2.5,0-3.4s0-1.4,0-1.5h1.2V394.3z"/>
		<path id="XMLID_92_" class="st1" d="M-112.4,395.5c-0.1,0-0.5,0-1.2,0s-1.7,0-3.1,0c0,1.2,0,2.1,0,2.7s0,1.5,0,2.5s0,2.1,0,3.1
			c0,1.1,0,1.8,0,2.1h-1.5c0-0.4,0-1.1,0-2.2s0-2.1,0-3.2c0-1,0-1.8,0-2.4s0-1.5,0-2.8c-1.2,0-2.3,0-3,0s-1.2,0-1.3,0v-1.2
			c0.6,0,1.3,0,2.2,0s1.8,0,2.8,0c1.4,0,2.6,0,3.6,0s1.5,0,1.5,0V395.5z"/>
		<path id="XMLID_105_" class="st1" d="M-92.6,394.3c0,1.1,0,2.1,0,2.8s0,1.4,0,1.9c0,0.7,0,1.2,0,1.7s0,0.9,0,1.2
			c0,0.7-0.1,1.3-0.3,1.8s-0.5,1-0.9,1.4s-0.9,0.7-1.5,0.9s-1.3,0.3-2.1,0.3s-1.5-0.1-2.1-0.3s-1.1-0.5-1.5-0.9s-0.7-0.8-0.9-1.4
			s-0.3-1.1-0.3-1.8c0-0.3,0-0.8,0-1.2s0-1,0-1.7c0-0.5,0-1.2,0-1.9s0-1.7,0-2.8h1.5c0,0.1,0,0.6,0,1.5s0,2,0,3.4c0,0.4,0,0.9,0,1.3
			s0,0.9,0,1.4c0,1.1,0.3,1.9,0.9,2.4s1.4,0.8,2.5,0.8s2-0.3,2.6-0.8s0.9-1.4,0.9-2.5c0-0.5,0-0.9,0-1.4s0-0.9,0-1.3
			c0-1.4,0-2.5,0-3.4s0-1.4,0-1.5h1.2V394.3z"/>
		<path id="XMLID_107_" class="st1" d="M-80.9,402.7c0,0.6-0.1,1.1-0.4,1.6s-0.7,0.8-1.1,1.1c-0.4,0.3-0.9,0.5-1.5,0.6
			s-1.2,0.2-1.9,0.2c-0.4,0-0.8,0-1.2,0s-0.6,0-0.7,0l-0.1-1.3c0.1,0,0.3,0,0.7,0.1s0.8,0,1.3,0c0.3,0,0.7,0,1.2-0.1
			s0.9-0.2,1.1-0.3c0.3-0.2,0.6-0.4,0.8-0.6s0.3-0.5,0.3-0.9s-0.1-0.7-0.3-1s-0.5-0.5-0.9-0.8c-0.3-0.2-0.6-0.3-1.1-0.6
			s-0.8-0.4-1.2-0.6c-0.6-0.4-1-0.8-1.3-1.2s-0.4-0.9-0.4-1.4s0.1-1,0.3-1.4s0.5-0.7,0.9-1s0.8-0.5,1.4-0.6c0.5-0.1,1.1-0.2,1.8-0.2
			c0.4,0,0.7,0,1.1,0s0.6,0,0.6,0l0.1,1.3c-0.1,0-0.3,0-0.6-0.1s-0.8-0.1-1.4-0.1c-0.3,0-0.7,0-1,0.1s-0.7,0.2-0.9,0.3
			c-0.2,0.1-0.4,0.3-0.6,0.6s-0.2,0.5-0.2,0.8s0.1,0.6,0.3,0.8s0.5,0.5,1,0.8c0.2,0.1,0.6,0.3,1,0.5s0.8,0.4,1.2,0.6
			c0.6,0.3,1,0.7,1.3,1.2S-80.9,402.1-80.9,402.7z"/>
	</g>
</g>
</svg>
