<?xml version="1.0" encoding="utf-8"?>
<!-- Generator: Adobe Illustrator 16.0.0, SVG Export Plug-In . SVG Version: 6.00 Build 0)  -->
<!DOCTYPE svg PUBLIC "-//W3C//DTD SVG 1.1//EN" "http://www.w3.org/Graphics/SVG/1.1/DTD/svg11.dtd">
<svg version="1.1" id="header_x5F_logo" xmlns="http://www.w3.org/2000/svg" xmlns:xlink="http://www.w3.org/1999/xlink" x="0px"
	 y="0px" width="1280px" height="800px" viewBox="0 0 1280 800" enable-background="new 0 0 1280 800" xml:space="preserve">
<path id="XMLID_14_" fill="#91BAB1" d="M976.688,296.846c-42-124.666-171.334-171.333-288-174.666
	c-74.667-2-161.333-13.333-234.667,17.333C390.688,166.18,334.688,254.847,319.354,324.18c0-2,19.333-34.667,26.667-34.667
	c-24.667,94,42,161.334,94,204c46,36.667,100,57.334,157.333,61.334c15.333,0,30.667,1.999,45.999,1.999
	c-13.333,23.334-26.666,44.001-43.999,65.334c-38.667,45.999-86.667,57.333-146,59.333c-9.333,0,11.333,0,8,0
	c13.333,0,26.667,0,42,0c28.667,0,57.333,0,86.667,0c36.667-2,74.667-4,107.334-21.334c32.666-19.333,56-52,74.666-82.666
	c4-8,8-13.333,11.332-21.334c6,0,11.334-1.999,19.334-1.999C919.354,542.846,1017.354,417.513,976.688,296.846z M621.354,131.513
	c4,2,9.334,2,13.334,4C575.354,140.846,579.354,120.18,621.354,131.513z M867.354,500.18c0,0,26.668-21.334,46-48
	c13.334-21.334,40.668-48,40.668-48C930.688,446.846,913.354,480.847,867.354,500.18z"/>
</svg>
