<?xml version="1.0" encoding="utf-8"?>
<!-- Generator: Adobe Illustrator 19.0.0, SVG Export Plug-In . SVG Version: 6.00 Build 0)  -->
<svg version="1.1" xmlns="http://www.w3.org/2000/svg" xmlns:xlink="http://www.w3.org/1999/xlink" x="0px" y="0px"
	 viewBox="0 0 50 100" style="enable-background:new 0 0 50 100;" xml:space="preserve">
<style type="text/css">
	.st0{fill:#FFFFFF;}
</style>
<g id="fixed_icon">
	<g id="XMLID_42_">
		<path id="XMLID_137_" d="M26.4,15.8c-0.3-0.3-0.6-0.4-0.9-0.4c-0.3,0-0.7,0.1-0.9,0.4l-8.6,7.7c-0.5,0.5-0.5,1.3,0,1.8
			c0.5,0.5,1.3,0.5,1.8,0l7.7-6.9l7.7,6.9c0.5,0.5,1.3,0.5,1.8,0c0.5-0.5,0.5-1.3,0-1.8L26.4,15.8z"/>
		<path id="XMLID_17_" d="M26.4,24.2c-0.3-0.3-0.6-0.4-0.9-0.4c-0.3,0-0.7,0.1-0.9,0.4l-8.6,7.6c-0.5,0.5-0.5,1.3,0,1.8
			c0.5,0.5,1.3,0.5,1.8,0l7.7-6.8l7.7,6.8c0.5,0.5,1.3,0.5,1.8,0c0.5-0.5,0.5-1.3,0-1.8L26.4,24.2z"/>
	</g>
</g>
<g id="icon_hover">
	<g id="XMLID_216_">
		<path id="XMLID_217_" d="M36.4,61.2c-2.3-2-5.2-2.8-8.2-3.2c-8-2.5-15,2.7-18.1,10c-3.3,7.8-1.8,16.6,5.5,21.5
			c7.4,5,17.5,2.9,23.2-3.6C44.9,78.7,43.4,67.3,36.4,61.2z"/>
	</g>
	<g id="XMLID_177_">
		<path id="XMLID_178_" class="st0" d="M16,80.2v-9.3h-2.3v-1.2h7v1.2h-2.3v9.3H16z"/>
		<path id="XMLID_180_" class="st0" d="M24.2,72.1h2.3c0.6,0,1.2,0.2,1.6,0.7c0.5,0.5,0.7,1,0.7,1.6v3.5c0,0.6-0.2,1.2-0.7,1.6
			c-0.5,0.5-1,0.7-1.6,0.7h-2.3c-0.6,0-1.2-0.2-1.6-0.7c-0.5-0.5-0.7-1-0.7-1.7v-3.5c0-0.6,0.2-1.2,0.7-1.6
			C23,72.3,23.5,72.1,24.2,72.1z M24.2,74.4v3.5c0,0.3,0.1,0.6,0.3,0.8c0.2,0.2,0.5,0.4,0.8,0.4c0.3,0,0.6-0.1,0.8-0.4
			c0.2-0.2,0.3-0.5,0.3-0.8v-3.5c0-0.3-0.1-0.6-0.3-0.8c-0.2-0.2-0.5-0.3-0.8-0.3c-0.3,0-0.6,0.1-0.8,0.3
			C24.3,73.8,24.2,74.1,24.2,74.4z"/>
		<path id="XMLID_183_" class="st0" d="M31.2,72.1h2.3v1.2c0-0.4,0.1-0.7,0.3-0.9c0.2-0.2,0.5-0.3,0.9-0.3h1.2
			c0.6,0,1.2,0.2,1.6,0.7c0.5,0.5,0.7,1,0.7,1.6v3.5c0,0.6-0.2,1.2-0.7,1.7c-0.5,0.5-1,0.7-1.6,0.7h-2.3v2.3h-2.3V72.1z M33.5,79.1
			h1.2c0.3,0,0.6-0.1,0.8-0.3c0.2-0.2,0.3-0.5,0.3-0.8v-3.5c0-0.3-0.1-0.6-0.3-0.8c-0.2-0.2-0.5-0.3-0.8-0.3c-0.3,0-0.6,0.1-0.8,0.3
			c-0.2,0.2-0.3,0.5-0.3,0.8V79.1z"/>
	</g>
</g>
</svg>
