<?xml version="1.0" encoding="utf-8"?>
<!-- Generator: Adobe Illustrator 19.0.0, SVG Export Plug-In . SVG Version: 6.00 Build 0)  -->
<svg version="1.1" id="header_x5F_logo" xmlns="http://www.w3.org/2000/svg" xmlns:xlink="http://www.w3.org/1999/xlink" x="0px"
	 y="0px" viewBox="0 0 280 120" style="enable-background:new 0 0 280 120;" xml:space="preserve">
<style type="text/css">
	.st0{fill:#666666;}
	.st1{fill:#91BAB1;}
</style>
<g id="XMLID_8_">
	<path id="XMLID_9_" class="st0" d="M84.9,29.8c-0.4,0-3.5-0.2-3.6,0c-3.1,7.8-6.7,15.5-10.3,23.1c-3,6.4-5.9,14.3-12.1,18.3
		c-1.6,1-3.3,1.7-5.1,2c-0.1,0-0.2,0-0.3,0c-0.6-0.1-1.3-0.2-1.9-0.3c-3.8-0.7-7.1-2.2-9.6-5.3c-1.8-2.2-2.4-4.6-2-7.3
		c0.5-4,2-8,3.4-11.8c2.8-7.1,6.7-13.6,9.6-20.5c-0.1,0.2-3.3,0-3.6,0c-0.4,0-3.5-0.3-3.6,0c-2.8,6.6-6.5,12.7-9.2,19.4
		c-1.6,4-3.1,8.2-3.8,12.4C32.3,63,33,65.6,35,68c2.8,3.3,6.6,4.6,10.8,5.2c1.8,0.3,3.6,0.4,5.5,0.5c0.4,0.2,3.7,0.1,4.7,0
		c1.3-0.1,2.5-0.1,3.7-0.3c8.4-1,12.7-8.4,16.1-15.3c4.4-9.3,8.9-18.7,12.7-28.3C88.4,30,85.2,29.8,84.9,29.8z"/>
	<path id="XMLID_37_" class="st0" d="M126.4,47.4c-1.6-0.1-3.2-0.3-4.7-0.3c-0.2,0-1.6-0.2-2.4-0.2c-0.1,0-0.1,0-0.2,0
		c0,0,0.1,0.2,0.1,0.2c-0.3,0.1-0.4,0.3-0.3,0.5c0,0.1,0.2,0.2,0.4,0.2c-0.1,0.9-1,2.5-1.1,2.7c-0.5,1.2-1.1,2.4-1.6,3.6
		c-1,2.3-2.1,4.6-3.1,6.8c-1,2.3-2.1,4.6-3.1,6.8c0,0,0,0.1,0,0.1c-0.1-0.1-0.1-0.2-0.2-0.3c-1.2-2-2.3-4.1-3.4-6.2
		c-2.3-4.3-4.3-8.7-6.2-13.1c-0.1-0.2-7.1-0.3-7.2,0c-4.7,8.3-9,16.9-12.8,25.6c0.1-0.2,3.3,0.2,3.6,0.2c0.4,0,3.5,0.4,3.6,0.1
		c2.8-6.3,5.8-12.4,9-18.4c1.2,2.7,2.6,5.5,3.9,8c1.3,2.4,2.6,4.6,4.1,6.9c0.5,0.8,1.1,2.3,2.1,2.6c1,0.3,2.5,0,3.5,0
		c1.2,0,2.9,0.3,4-0.1c1-0.3,1.4-1.3,1.8-2.2c1.2-2.6,2.3-5.2,3.5-7.8c1.2-2.6,2.3-5.2,3.5-7.8c0.6-1.3,1.2-2.6,1.8-3.9
		c0.5-1,1.8-3,1.5-4.2C126.5,47.4,126.4,47.4,126.4,47.4z"/>
	<path id="XMLID_48_" class="st0" d="M142.3,47.5c-0.4,0-3.5-0.4-3.6,0c-3.5,8-7.1,17.3-10.6,24.1c-0.7,0-1.3,0-1.3,0
		c0.2,0.6,0.4,1.2,0.5,1.8c0,0.1,7.1,0.2,7.2,0c3.8-8.6,7.6-17.2,11.4-25.8C145.8,47.8,142.6,47.5,142.3,47.5z"/>
	<path id="XMLID_50_" class="st0" d="M173.9,47.6c-1.7,0-3.4,0-5.1,0c-4.4,0.1-12.2,0.4-13.3,5.9c-1.3,6.1,5.5,10.7,4,17
		c-1.2,4.9-5.1,8.3-9.3,10.8c-2.2,1.3-4.5,2.4-7,3.3c-1.2,0.4-2.5,0.8-3.7,1.1c-0.8,0.2-2.2,0.3-3,0.3c-0.1,0-0.1,0-0.2,0
		c-0.1,0-0.2,0-0.3,0c-0.2,0-0.4,0-0.7,0.1c-0.4,0.1,0.4,0,0.4,0c0.7,0,1.4,0,2.2,0c2.8,0,5.6,0.1,8.4-0.4c2.6-0.5,5.1-1.4,7.5-2.5
		c4.3-2,9-4.9,11.4-9.2c1.6-2.8,2.2-5.9,1.1-9c-1-2.8-2.9-5.3-3.6-8.2c-0.6-2.8,0-5.4,2.5-7C167.7,48.3,171,47.7,173.9,47.6
		c-0.2,0.1,1.1,0,1.1,0S173.7,47.6,173.9,47.6z"/>
	<path id="XMLID_52_" class="st0" d="M198.8,73.5c0.1,0.6,7.1-0.4,7.2,0.1c-2.2-9-4.9-17.7-8.4-26.2c0,0-0.1,0-0.2-0.1
		c0.1-0.1,0.1-0.3,0.2-0.3c-2.4,0-4.8,0-7.2,0c0,0,0.1,0.2,0.1,0.4c-0.1,0-0.1,0-0.1,0.1c-6,8.1-9.3,17.8-15,26.1
		c0.2-0.3,3.2-0.1,3.6-0.1c0.5,0,3.3,0.3,3.6-0.1c4.1-5.9,6.9-12.7,10.4-19.1C195.3,60.7,197.2,67,198.8,73.5z"/>
	<path id="XMLID_53_" class="st0" d="M236.9,47.4c-0.4,0-3.5-0.3-3.6,0c-2.6,5.4-5.5,10.9-8.6,16.1c-2-5.5-4-10.9-6-16.4
		c-0.1-0.2-3.3,0-3.6,0c-0.3,0-3.6,0.2-3.6,0c2.9,7.8,5.7,15.5,8.6,23.3c0,0,0.1,0.1,0.3,0.1c-0.2,0.3-0.4,0.6-0.6,0.9
		c-0.1,0-0.2,0-0.2,0c0,0,0.1,0,0.2,0c-0.7,1-1.4,2-2.2,3c-4.8,6.5-11.9,14.7-20.7,14.8c-1.4,0,1.2,0,1.3,0c1.7,0,3.3,0,5,0
		c9.1-0.1,16-7.3,21.1-14c2.6-3.5,5-7.2,7.2-11c3.3-5.5,6.4-11.1,9.2-16.9C240.4,47.6,237.2,47.4,236.9,47.4z"/>
</g>
<path id="XMLID_14_" class="st1" d="M272.1,32.6c-2.2-6.5-8.9-8.9-15-9.1c-3.9-0.1-8.4-0.7-12.2,0.9c-3.3,1.4-6.2,6-7,9.6
	c0-0.1,1-1.8,1.4-1.8c-1.3,4.9,2.2,8.4,4.9,10.6c2.4,1.9,5.2,3,8.2,3.2c0.8,0,1.6,0.1,2.4,0.1c-0.7,1.2-1.4,2.3-2.3,3.4
	c-2,2.4-4.5,3-7.6,3.1c-0.5,0,0.6,0,0.4,0c0.7,0,1.4,0,2.2,0c1.5,0,3,0,4.5,0c1.9-0.1,3.9-0.2,5.6-1.1c1.7-1,2.9-2.7,3.9-4.3
	c0.2-0.4,0.4-0.7,0.6-1.1c0.3,0,0.6-0.1,1-0.1C269.1,45.4,274.2,38.9,272.1,32.6z M253.6,24c0.2,0.1,0.5,0.1,0.7,0.2
	C251.2,24.5,251.4,23.4,253.6,24z M266.4,43.2c0,0,1.4-1.1,2.4-2.5c0.7-1.1,2.1-2.5,2.1-2.5C269.7,40.4,268.8,42.2,266.4,43.2z"/>
</svg>
