<?xml version="1.0" encoding="utf-8"?>
<!-- Generator: Adobe Illustrator 16.0.0, SVG Export Plug-In . SVG Version: 6.00 Build 0)  -->
<!DOCTYPE svg PUBLIC "-//W3C//DTD SVG 1.1//EN" "http://www.w3.org/Graphics/SVG/1.1/DTD/svg11.dtd">
<svg version="1.1" id="header_x5F_logo" xmlns="http://www.w3.org/2000/svg" xmlns:xlink="http://www.w3.org/1999/xlink" x="0px"
	 y="0px" width="407.5px" height="23.915px" viewBox="-407.5 397.584 407.5 23.915"
	 enable-background="new -407.5 397.584 407.5 23.915" xml:space="preserve">
<g id="XMLID_8_">
	<path id="XMLID_9_" fill="#666666" d="M205.518,290.117c-2.498,0-21.854-1.249-22.479,0
		c-19.356,48.704-41.835,96.783-64.314,144.238c-18.731,39.961-36.84,89.289-75.553,114.266
		c-9.991,6.244-20.605,10.615-31.845,12.488c-0.625,0-1.249,0-1.874,0c-3.746-0.624-8.117-1.249-11.864-1.873
		c-23.728-4.371-44.333-13.737-59.943-33.093c-11.239-13.738-14.986-28.725-12.488-45.583c3.123-24.976,12.488-49.952,21.23-73.68
		c17.484-44.332,41.835-84.919,59.943-128.003c-0.624,1.249-20.605,0-22.479,0c-2.498,0-21.854-1.874-22.479,0
		c-17.483,41.211-40.586,79.3-57.445,121.136c-9.991,24.975-19.356,51.2-23.728,77.426c-3.122,19.979,1.249,36.215,13.737,51.2
		c17.483,20.606,41.211,28.723,67.436,32.47c11.239,1.873,22.479,2.498,34.342,3.122c2.498,1.249,23.103,0.625,29.347,0
		c8.117-0.624,15.61-0.624,23.103-1.874c52.451-6.243,79.3-52.449,100.53-95.533c27.474-58.07,55.572-116.764,79.299-176.707
		C227.373,291.366,207.392,290.117,205.518,290.117z"/>
	<path id="XMLID_37_" fill="#666666" d="M464.646,400.014c-9.99-0.626-19.98-1.875-29.347-1.875c-1.249,0-9.991-1.248-14.986-1.248
		c-0.624,0-0.624,0-1.249,0l0.625,1.248c-1.873,0.625-2.497,1.875-1.873,3.123c0,0.624,1.248,1.248,2.497,1.248
		c-0.624,5.62-6.244,15.611-6.868,16.859c-3.121,7.492-6.868,14.986-9.99,22.479c-6.244,14.361-13.112,28.722-19.356,42.46
		c-6.244,14.361-13.113,28.722-19.357,42.46v0.624c-0.625-0.624-0.625-1.248-1.249-1.873c-7.493-12.489-14.362-25.601-21.23-38.714
		c-14.361-26.849-26.85-54.322-38.713-81.797c-0.624-1.249-44.333-1.873-44.957,0c-29.347,51.826-56.197,105.524-79.925,159.849
		c0.625-1.249,20.606,1.248,22.479,1.248c2.498,0,21.854,2.497,22.478,0.624c17.484-39.337,36.216-77.426,56.198-114.891
		c7.492,16.859,16.234,34.343,24.351,49.952c8.118,14.986,16.234,28.723,25.601,43.085c3.121,4.995,6.868,14.361,13.112,16.234
		c6.244,1.873,15.61,0,21.854,0c7.494,0,18.109,1.873,24.977-0.624c6.243-1.873,8.74-8.118,11.239-13.738
		c7.492-16.234,14.361-32.469,21.854-48.703c7.493-16.235,14.362-32.468,21.854-48.703c3.747-8.117,7.492-16.234,11.239-24.353
		c3.122-6.244,11.239-18.731,9.366-26.225C465.271,400.014,464.646,400.014,464.646,400.014z"/>
	<path id="XMLID_48_" fill="#666666" d="M563.928,400.637c-2.498,0-21.854-2.498-22.479,0
		c-21.854,49.953-44.333,108.021-66.188,150.481c-4.369,0-8.116,0-8.116,0c1.248,3.747,2.497,7.494,3.121,11.239
		c0,0.625,44.334,1.25,44.958,0c23.728-53.699,47.454-107.396,71.183-161.096C585.782,402.51,565.801,400.637,563.928,400.637z"/>
	<path id="XMLID_50_" fill="#666666" d="M761.24,401.262c-10.615,0-21.23,0-31.846,0c-27.474,0.624-76.177,2.497-83.045,36.84
		c-8.118,38.089,34.342,66.812,24.976,106.148c-7.493,30.597-31.846,51.825-58.069,67.436c-13.737,8.118-28.1,14.986-43.708,20.606
		c-7.494,2.498-15.61,4.995-23.104,6.867c-4.995,1.25-13.736,1.875-18.731,1.875c-0.624,0-0.624,0-1.249,0c-0.624,0-1.248,0-1.874,0
		c-1.248,0-2.497,0-4.369,0.624c-2.499,0.624,2.497,0,2.497,0c4.371,0,8.742,0,13.737,0c17.483,0,34.966,0.624,52.449-2.499
		c16.234-3.121,31.845-8.74,46.831-15.61c26.85-12.487,56.196-30.595,71.182-57.444c9.991-17.483,13.736-36.84,6.869-56.196
		c-6.244-17.484-18.107-33.093-22.479-51.202c-3.747-17.482,0-33.718,15.609-43.708C722.527,405.633,743.133,401.886,761.24,401.262
		c-1.25,0.624,6.868,0,6.868,0S759.99,401.262,761.24,401.262z"/>
	<path id="XMLID_52_" fill="#666666" d="M916.717,562.982c0.624,3.746,44.332-2.497,44.958,0.625
		c-13.737-56.197-30.597-110.521-52.45-163.594c0,0-0.625,0-1.249-0.626c0.624-0.624,0.624-1.873,1.249-1.873
		c-14.986,0-29.973,0-44.957,0c0,0,0.624,1.249,0.624,2.499c-0.624,0-0.624,0-0.624,0.623
		c-37.465,50.577-58.07,111.145-93.662,162.971c1.25-1.874,19.981-0.625,22.479-0.625c3.121,0,20.604,1.874,22.479-0.625
		c25.601-36.839,43.084-79.299,64.938-119.262C894.862,483.059,906.726,522.396,916.717,562.982z"/>
	<path id="XMLID_53_" fill="#666666" d="M1154.615,400.014c-2.498,0-21.854-1.875-22.478,0
		c-16.235,33.717-34.344,68.06-53.699,100.528c-12.489-34.342-24.978-68.06-37.465-102.403c-0.624-1.248-20.605,0-22.479,0
		c-1.874,0-22.479,1.249-22.479,0c18.107,48.704,35.591,96.784,53.699,145.487c0,0,0.624,0.624,1.873,0.624
		c-1.249,1.873-2.499,3.747-3.747,5.62c-0.624,0-1.248,0-1.248,0s0.624,0,1.248,0c-4.371,6.244-8.741,12.487-13.736,18.731
		c-29.973,40.587-74.305,91.788-129.252,92.412c-8.743,0,7.492,0,8.116,0c10.615,0,20.605,0,31.221,0
		c56.821-0.624,99.904-45.581,131.749-87.417c16.235-21.854,31.221-44.957,44.957-68.684c20.605-34.344,39.963-69.31,57.446-105.525
		C1176.47,401.262,1156.488,400.014,1154.615,400.014z"/>
</g>
</svg>
