<?xml version="1.0" encoding="utf-8"?>
<!-- Generator: Adobe Illustrator 19.0.0, SVG Export Plug-In . SVG Version: 6.00 Build 0)  -->
<svg version="1.1" id="header_x5F_logo" xmlns="http://www.w3.org/2000/svg" xmlns:xlink="http://www.w3.org/1999/xlink" x="0px"
	 y="0px" viewBox="-179 221 120 120" style="enable-background:new -179 221 120 120;" xml:space="preserve">
<style type="text/css">
	.st0{fill:#91BAB1;}
</style>
<path id="XMLID_14_" class="st0" d="M-72.7,265.6c-6.3-18.7-25.7-25.7-43.2-26.2c-11.2-0.3-24.2-2-35.2,2.6
	c-9.5,4-17.9,17.3-20.2,27.7c0-0.3,2.9-5.2,4-5.2c-3.7,14.1,6.3,24.2,14.1,30.6c6.9,5.5,15,8.6,23.6,9.2c2.3,0,4.6,0.3,6.9,0.3
	c-2,3.5-4,6.6-6.6,9.8c-5.8,6.9-13,8.6-21.9,8.9c-1.4,0,1.7,0,1.2,0c2,0,4,0,6.3,0c4.3,0,8.6,0,13,0c5.5-0.3,11.2-0.6,16.1-3.2
	c4.9-2.9,8.4-7.8,11.2-12.4c0.6-1.2,1.2-2,1.7-3.2c0.9,0,1.7-0.3,2.9-0.3C-81.3,302.5-66.6,283.7-72.7,265.6z M-126,240.8
	c0.6,0.3,1.4,0.3,2,0.6C-132.9,242.2-132.3,239.1-126,240.8z M-89.1,296.1c0,0,4-3.2,6.9-7.2c2-3.2,6.1-7.2,6.1-7.2
	C-79.6,288.1-82.2,293.2-89.1,296.1z"/>
</svg>
