<svg id="Layer_1" data-name="Layer 1" xmlns="http://www.w3.org/2000/svg" viewBox="0 0 546.3 470"><defs><style>.cls-1{fill:#a2d7c9;}.cls-2{fill:#d8c621;}</style></defs><title>friend_icon-03</title><path class="cls-1" d="M1,450.1c-.6-.1-1-.6-1.5-1a4.62,4.62,0,0,0-.7-.7c-1.4-1-2.8-2.1-4.3-3.1-1.8-1.3-3.6-2.7-5.4-4a6,6,0,0,0-1.3-.9,11.56,11.56,0,0,1-2.5-2,3.13,3.13,0,0,0-1.1-.9,13.66,13.66,0,0,1-2.3-1.9,10.59,10.59,0,0,0-1.2-1,.1.1,0,0,1-.1-.1c-.9-.6-1.6-1.6-2.5-2.3a26.5,26.5,0,0,1-2.6-2.1c-.4-.4-.8-.7-1.2-1.1-.1-.1-.2-.1-.3-.2a27.24,27.24,0,0,0-2.5-2.3,17.83,17.83,0,0,1-2.6-2.2c-.3-.3-.7-.6-1-.9a.1.1,0,0,1-.1-.1c-1.7-1.5-3.4-2.9-5.1-4.4-.4-.3-.7-.6-1.1-.9-.1-.1-.3-.2-.4-.3-1.5-1.5-3.2-2.6-4.8-4.1-.3-.3-.6-.5-.9-.8a.31.31,0,0,0-.2-.1c-1.7-1.4-3.4-2.8-5.2-4.2a10.63,10.63,0,0,1-1.1-.9c-.1-.1-.2-.1-.3-.2-.8-.7-1.6-1.5-2.4-2.1a23.48,23.48,0,0,1-2.5-1.9c-1.4-1.2-2.8-2.2-4.2-3.3a.1.1,0,0,1-.1-.1c-.9-.6-1.7-1.3-2.6-1.8s-1.7-1.2-2.6-1.8c-1.3-.9-2.7-1.8-4-2.7-.8-.6-1.7-1.1-2.5-1.7-1.4-1-2.8-1.8-4.3-2.7l-1.5-.9a4,4,0,0,1,0-1.1c.5-2.9.9-5.8,1.2-8.8.2-2.4.6-4.7.8-7.1.3-2.6.5-5.3.7-7.9s.4-5.3.6-7.9.4-5.2.5-7.8c.1-2.3.2-4.7.4-7a3,3,0,0,1,.2-1c.7-2.1,1.5-4.3,2.3-6.4a27.69,27.69,0,0,0,1.2-4.1,16.62,16.62,0,0,1,1-2.9,3.61,3.61,0,0,0,.3-1.8,7.84,7.84,0,0,1,.2-1.4c.8-3.4,1.7-6.7,2.4-10.1.6-2.7,1-5.5,1.6-8.2l.3-.9c1.1.7,2,1.5,3.1,2.1a21.48,21.48,0,0,0,2.6,1.4c2.2,1.1,4.3,2.1,6.5,3.2l4.2,2.1c1.4.8,2.8,1.6,4.3,2.4l6.3,3.6a10.09,10.09,0,0,0,1.5.7c1.8.5,3.4,1.7,5.2,2.5.8.4,1.6.7,2.3,1a19.23,19.23,0,0,1,2.5,1.2c2,1.1,4,2.3,6,3.4s4,2.5,5.9,3.8c1.2.8,2.3,1.7,3.4,2.5,1.4,1,2.7,1.9,4.1,2.8.7.5,1.4,1,2.2,1.5s1.4.7,2.2,1.1c.6.3,1.3.6,2,.9C.2,377,.6,413.6,1,450.1Z"/><path class="cls-1" d="M1,331.9a19.67,19.67,0,0,1,2.4-.3,54.14,54.14,0,0,0,5.8-1.2c1.9-.4,3.9-.8,5.8-1.3s4-1,6-1.7c1.2-.5,2.4-.8,3.6-1.2s2.4-.9,3.6-1.3a30.31,30.31,0,0,1,4.3-1.2c1.8-.4,3.6-.9,5.4-1.2,2.2-.4,4.4-.8,6.7-1.2,1.1-.2,2.3-.2,3.4-.3a30.38,30.38,0,0,0,6-1.2c2.3-.7,4.5-1.2,6.8-1.9l3.9-1.2,5.4-1.8c1.9-.6,3.9-1.3,5.8-1.9,2.6-.8,5.1-1.7,7.7-2.3s5.3-1.3,7.9-2c1.2-.3,2.5-.5,3.7-.8.7-.2,1.4-.4,2.2-.6l5.5-1.5c1.4-.4,2.9-.8,4.3-1.3l3.6-1.2v1.5c0,2.4.2,4.7.4,7,.2,3.4.6,6.7,1,10.1.2,1.3.3,2.6.4,3.9.1,1.1.1,2.3.1,3.4v12.4c0,5.8-.1,11.7-.1,17.5V365c.1,2,.2,4.1.3,6.1.2,2.5.5,5,.7,7.5.4,3.6.8,7.1,1.3,10.7.4,2.8.8,5.7,1.2,8.5v.5a12.67,12.67,0,0,1-1.8.6l-4.3,1.2c-1.7.5-3.5,1.1-5.2,1.7a39.32,39.32,0,0,0-5.6,2.4,34.89,34.89,0,0,1-4.4,2c-1.3.6-2.6,1.1-3.9,1.8a44.58,44.58,0,0,1-5,2.2c-2.2.9-4.3,1.8-6.5,2.9a46.56,46.56,0,0,1-6.1,2.6c-1.6.6-3.1,1.2-4.7,1.8a35.69,35.69,0,0,1-4.6,1.6,17.23,17.23,0,0,0-2.1.7c-2,.8-4,1.6-6.1,2.4-1.3.5-2.6.8-3.9,1.3s-2.8,1.1-4.2,1.7c-1.6.7-3.2,1.4-4.9,2-2,.8-4.1,1.6-6.1,2.4a62.08,62.08,0,0,0-5.9,2.6c-1.2.6-2.3,1.2-3.5,1.9-1.4.8-2.8,1.7-4.2,2.5s-2.8,1.5-4.2,2.2a16.64,16.64,0,0,1-2.7,1.3A48.72,48.72,0,0,0,8.7,444c-1.3.8-2.6,1.5-3.9,2.2-.4.2-.7.4-1.1.6s-1,.7-1.6.5C1.9,409,1.4,370.5,1,331.9Z"/><path class="cls-1" d="M546.3,450.1c-.6-.1-1-.6-1.5-1a4.62,4.62,0,0,0-.7-.7c-1.4-1-2.8-2.1-4.3-3.1-1.8-1.3-3.6-2.7-5.4-4a6,6,0,0,0-1.3-.9,11.56,11.56,0,0,1-2.5-2,3.13,3.13,0,0,0-1.1-.9,13.66,13.66,0,0,1-2.3-1.9,10.59,10.59,0,0,0-1.2-1,.1.1,0,0,1-.1-.1c-.9-.6-1.6-1.6-2.5-2.3a26.5,26.5,0,0,1-2.6-2.1c-.4-.4-.8-.7-1.2-1.1-.1-.1-.2-.1-.3-.2a27.24,27.24,0,0,0-2.5-2.3,17.83,17.83,0,0,1-2.6-2.2c-.3-.3-.7-.6-1-.9a.1.1,0,0,1-.1-.1c-1.7-1.5-3.4-2.9-5.1-4.4-.4-.3-.7-.6-1.1-.9-.1-.1-.3-.2-.4-.3-1.5-1.5-3.2-2.6-4.8-4.1-.3-.3-.6-.5-.9-.8a.31.31,0,0,0-.2-.1c-1.7-1.4-3.4-2.8-5.2-4.2a10.63,10.63,0,0,1-1.1-.9c-.1-.1-.2-.1-.3-.2-.8-.7-1.6-1.5-2.4-2.1a23.48,23.48,0,0,1-2.5-1.9c-1.4-1.2-2.8-2.2-4.2-3.3a.1.1,0,0,1-.1-.1c-.9-.6-1.7-1.3-2.6-1.8s-1.7-1.2-2.6-1.8c-1.3-.9-2.7-1.8-4-2.7-.8-.6-1.7-1.1-2.5-1.7-1.4-1-2.8-1.8-4.3-2.7l-1.5-.9a4,4,0,0,1,0-1.1c.5-2.9.9-5.8,1.2-8.8.2-2.4.6-4.7.8-7.1.3-2.6.5-5.3.7-7.9s.4-5.3.6-7.9.4-5.2.5-7.8c.1-2.3.2-4.7.4-7a3,3,0,0,1,.2-1c.7-2.1,1.5-4.3,2.3-6.4a27.69,27.69,0,0,0,1.2-4.1,16.62,16.62,0,0,1,1-2.9,3.61,3.61,0,0,0,.3-1.8,7.84,7.84,0,0,1,.2-1.4c.8-3.4,1.7-6.7,2.4-10.1.6-2.7,1-5.5,1.6-8.2l.3-.9c1.1.7,2,1.5,3.1,2.1a21.48,21.48,0,0,0,2.6,1.4c2.2,1.1,4.3,2.1,6.5,3.2l4.2,2.1c1.4.8,2.8,1.6,4.3,2.4l6.3,3.6a10.09,10.09,0,0,0,1.5.7c1.8.5,3.4,1.7,5.2,2.5.8.4,1.6.7,2.3,1a19.23,19.23,0,0,1,2.5,1.2c2,1.1,4,2.3,6,3.4s4,2.5,5.9,3.8c1.2.8,2.3,1.7,3.4,2.5,1.4,1,2.7,1.9,4.1,2.8.7.5,1.4,1,2.2,1.5s1.4.7,2.2,1.1c.6.3,1.3.6,2,.9C545.5,377,545.9,413.6,546.3,450.1Z"/><path class="cls-1" d="M304.9,400.8c0-1-.1-2.1,0-3.1a5.78,5.78,0,0,1,1.9-4.3,1.46,1.46,0,0,0,.6-.9,8.12,8.12,0,0,1,2.4-3.5,18.05,18.05,0,0,1,7.1-4c.4-.1.8-.3,1.2-.4a14.09,14.09,0,0,1,5-.7c1.9.1,3.8,0,5.8.1a17.85,17.85,0,0,1,2.3.2c1,.1,2,.3,3,.4l2.3.3a9.47,9.47,0,0,0,2.9.2,19.67,19.67,0,0,1,4.2-.1.9.9,0,0,1,.5.1c1.6.6,3.2.5,4.9.9a3.79,3.79,0,0,0,1.5,0,2.5,2.5,0,0,1,1.7.1.39.39,0,0,0,.6-.3.35.35,0,0,0-.1-.2,12.86,12.86,0,0,0-1.9-.4c-1.4-.3-2.7-.5-4.1-.8l-3.6-.6c-.7-.1-1.5-.3-2.2-.4-1.2-.2-2.3-.5-3.5-.7l-3.6-.6c-.8-.1-1.6-.3-2.4-.4-1.1-.2-2.3-.5-3.4-.7a24.37,24.37,0,0,0-2.7-.1c-.3,0-.6.1-.9.1a29.07,29.07,0,0,0-6.5.9,30.23,30.23,0,0,0-7.2,2.3c-1.3.6-2.6,1.1-4,1.6a6.87,6.87,0,0,1-2.4.5c-2.3,0-4.6,0-6.9-.2a18.16,18.16,0,0,1-4.6-1.1c-1.2-.4-2.3-.7-3.5-1.1a14.34,14.34,0,0,1-3.4-1.4,6.73,6.73,0,0,1-1.1-.7c-.1-.1-.3-.2-.4-.3a10.76,10.76,0,0,1-3-4.2c-.2-.4-.3-.8-.5-1.3a8.74,8.74,0,0,1-.5-2.2,5.23,5.23,0,0,0-.3-1.8,39.84,39.84,0,0,1-1.2-6.9,22.39,22.39,0,0,1,.5-5.2c.4-.9.7-1.8,1.1-2.8.2-.4.3-.7.5-1.1a5.71,5.71,0,0,1,1.3-2.1,2.22,2.22,0,0,0,.8-1.3,4,4,0,0,1,1-1.5,6.15,6.15,0,0,0,1.2-1.9,10.24,10.24,0,0,1,3.1-3.7,16.32,16.32,0,0,0,2-1.7,4.23,4.23,0,0,0,.5-.7l.6-1.2a21.93,21.93,0,0,0-.9-5c-.2-1-.5-2-.7-3a19.53,19.53,0,0,1-.3-3.4c-.1-2.1-.1-4.3,0-6.4a16.06,16.06,0,0,1,1-5.3,9.56,9.56,0,0,1,2.2-3.2c1-.9,2.1-1.9,3.1-2.7a22.58,22.58,0,0,0,3.4-3.5c.8-1,1.5-2.1,2.3-3a2.7,2.7,0,0,0,.6-1.9,6.15,6.15,0,0,1,.1-1.4,3.93,3.93,0,0,0-.6-3.2,12.31,12.31,0,0,1-1.4-4.6,4.87,4.87,0,0,1-.1-1.2c0-1.1-.1-2.3,0-3.4a10.56,10.56,0,0,1,1.6-5.8c.7-.9,1.2-2,2.1-2.5.2-.1.3-.5.4-.7a5.83,5.83,0,0,0,.1-3.2,23.25,23.25,0,0,1-.5-5.3v-3.3a15.39,15.39,0,0,1,.5-4.8,36.54,36.54,0,0,1,1.8-5.6,9.06,9.06,0,0,1,2.6-3.4,3.14,3.14,0,0,0,1.1-1.4,4,4,0,0,1,1.7-1.9,25.35,25.35,0,0,1,5.1-2.2,20.62,20.62,0,0,0,2.6-1.2,1.49,1.49,0,0,1,.7-.3c1.7-.4,3.4-.8,5-1.2h.1c1.6-.4,3.2-.3,4.9-.6.2,0,.5-.1.7-.1a23.18,23.18,0,0,0,3.7-.1,2.77,2.77,0,0,0,.9-.1,27.24,27.24,0,0,1,6.4-.3,48.07,48.07,0,0,1,6.5.8,10.41,10.41,0,0,1,2.2.6c3,1,5.9,2.1,8.9,3.1,1.3.4,2.6.9,3.9,1.2s2.8.5,4.2.8c1.1.2,2.2.6,3.3.9,1.9.7,3.9,1.3,5.8,2.1a8.87,8.87,0,0,0,2.8.7h.1c1.6.5,3.2.9,4.8,1.4,1.1.3,2.2.6,3.2.9s2.2.7,3.3,1a5.73,5.73,0,0,1,1.4.4c.6.2,1.1.3,1.7.5a54.86,54.86,0,0,0,5.1,2.1c.9.4,1.9.6,2.8,1,1.3.4,2.7.9,4,1.4,1.1.4,2.1.7,3.2,1.2,1.4.6,2.8,1.1,4.2,1.7,1,.5,2,.9,3,1.3,1.4.6,2.8,1.3,4.1,2,.9.5,1.9.9,2.8,1.4,1.4.8,2.8,1.4,4.2,2.3.9.5,1.7.9,2.6,1.4,1.5.9,3,1.7,4.4,2.7.8.5,1.6,1,2.4,1.6,1.3.9,2.7,1.8,4,2.6a2.18,2.18,0,0,1,.5.4,16.06,16.06,0,0,0,2.9,2.4,8.45,8.45,0,0,0,3.3,1.6,6.47,6.47,0,0,1,1.3.4c.2.1.3.2.5.3,0,1.7,0,3.4-.1,5.1-.1,4.2-.1,8.3-.3,12.5-.1,3.6-.4,7.3-.7,10.9-.4,4.4-.7,8.7-1.2,13a106,106,0,0,1-1.6,11.1c-.6,3-1.3,5.9-2,8.9-.9,3.6-1.8,7.1-2.8,10.7-.6,2.4-1.4,4.7-2.1,7a3.55,3.55,0,0,1-.4.9c-.4-.1-.7-.2-1-.3-2.3-1.1-4.5-2.2-6.8-3.3a11.11,11.11,0,0,0-1.6-.7,3.1,3.1,0,0,0-1.9-.1,15.16,15.16,0,0,1-2.1.3,1.27,1.27,0,0,0-.9.7c-.6.8-1.2,1.6-1.7,2.4-1.4,2.1-2.9,4.2-4.3,6.4a65.12,65.12,0,0,0-5.5,10.1,9.46,9.46,0,0,0-.5,1.8,18.06,18.06,0,0,1-1.4,4.5,3.77,3.77,0,0,1-1.2,1.6,18.72,18.72,0,0,1-2.9,2,13,13,0,0,1-3.2,1.4c-.5.2-1.1.3-1.7.5a41.4,41.4,0,0,0-4.9,1.9c-1.3.5-2.6.9-3.9,1.4s-2.7,1-4,1.5c-1.5.6-3,1.1-4.4,1.7a18.25,18.25,0,0,0-3.2,1.4,14.76,14.76,0,0,1-2.9,1.2,12.55,12.55,0,0,0-4.3,2.2,18.19,18.19,0,0,1-2.3,1.5,3.36,3.36,0,0,1-1.4.5,36.38,36.38,0,0,0-7.9,1.9c-1.2.4-2.5.7-3.7,1a1.73,1.73,0,0,1-1,.1,17.61,17.61,0,0,1-3.9-1.2,15.36,15.36,0,0,0-3.4-1.2c-1.3-.3-2.6-.7-4-1.1l-4.2-1.2a15.65,15.65,0,0,0-5.3-.3l-5.4.6a17.7,17.7,0,0,1-2.3.1h-5.9c-3.4,0-6.7.1-10.1,0a7.9,7.9,0,0,1-5.8-2.7,7.71,7.71,0,0,1-1.9-3A2,2,0,0,0,304.9,400.8Z"/><path class="cls-1" d="M224.1,338.9a7.88,7.88,0,0,0-2.6,3.8,16.16,16.16,0,0,1-2.1,3.6,16,16,0,0,0-2,3.4,10.09,10.09,0,0,1-.7,1.5,7.73,7.73,0,0,0-.8,3.4v2.7a2,2,0,0,0,.3,1.1c.4.6.7,1.1,1.1,1.7a20.31,20.31,0,0,0,4,4.7c.6.6,1.2,1.1,1.8,1.7a12.65,12.65,0,0,0,6.3,3.8,16.13,16.13,0,0,1,3.6,1.5c1.5.7,2.9,1.6,4.5,2.2a6.69,6.69,0,0,1,2.5,1.6,13.59,13.59,0,0,1,2.8,3,4.83,4.83,0,0,1,3.4,2.9,8.69,8.69,0,0,1,.5,5.3c.4.3.7.5,1,.7a1.81,1.81,0,0,0,2.1.2,3.19,3.19,0,0,1,1.4-.3,4.8,4.8,0,0,1,1.2,0c.1-.4.3-.8.4-1.2a7.25,7.25,0,0,1,1.2-2.5,2.86,2.86,0,0,0,.5-2.6c-.5-2.2-1.6-3.2-3.4-2.9a1.47,1.47,0,0,1-1.1-.2,39.09,39.09,0,0,0-9.8-4.9c-1.5-.5-3-1.2-4.4-1.8-.4-.2-.8-.3-1.2-.5a17.1,17.1,0,0,1-4.2-2.6l-3.3-2.4c-.2-.2-.5-.2-.8-.3a8.21,8.21,0,0,1-2.9-1.8,9.28,9.28,0,0,1-1.9-2.7c-.2-.4-.3-.7-.5-1.1-1.4-.6-1.4-.6-1.4-2.4a26.2,26.2,0,0,0-.1-2.8,4,4,0,0,1,.3-1.5c.4-.7.6-1.5,1-2.1s.7-1.2,1-1.7a22.56,22.56,0,0,0,2.8-5.6,5.94,5.94,0,0,1,.8-.4c1.1-.4,2.3-.9,3.4-1.3a22.68,22.68,0,0,1,2.5-.6c1.2-.3,2.5-.4,3.8-.6a14.77,14.77,0,0,1,2.1-.1c1.2,0,2.4-.1,3.7,0a5.26,5.26,0,0,1,1.7.4,2.3,2.3,0,0,0,1.4.2,4.68,4.68,0,0,1,1.7.2c2.9.9,5.8,1.7,8.7,2.6,1.6.5,3.2,1.1,4.9,1.6a1.85,1.85,0,0,0,.7.2,12.52,12.52,0,0,1,5.1,1.8.35.35,0,0,1,.2.1,10.08,10.08,0,0,1,1.8.9,19.2,19.2,0,0,1,1.5,1.4,10.91,10.91,0,0,1,2.7,4.4,21,21,0,0,1,.9,6.1v2.5a17.59,17.59,0,0,1-.6,4.6,5.66,5.66,0,0,0-.3,1.8,4.1,4.1,0,0,1-.1,1.1,20.24,20.24,0,0,0-.4,2.6,23.81,23.81,0,0,1-.5,2.6c-.2,1.1-.4,2.2-.7,3.3a7,7,0,0,1-.6,1.9,35.79,35.79,0,0,0-2.3,6.5,3.77,3.77,0,0,1-.9,1.5,20.81,20.81,0,0,1-2.1,2.1,3.11,3.11,0,0,0-.7.9,5.53,5.53,0,0,1-3.2,3,20.61,20.61,0,0,0-2.6,1.2,3.39,3.39,0,0,1-2.1.6,1.39,1.39,0,0,0-1,.5c-.7.6-1.4,1.3-2.1,1.8a3.18,3.18,0,0,1-2,.8,11.68,11.68,0,0,0-3.6.8c-1.2.5-2.5.7-3.7,1.1-.9.3-1.8.4-2.8.7a22.1,22.1,0,0,1-5.1,1.1c-1.6.1-3.3.2-4.9.2a54.81,54.81,0,0,1-5.7-.5,46.88,46.88,0,0,0-5.3-.1,17.85,17.85,0,0,1-2.3-.2l-2.3-.3a8.75,8.75,0,0,0-1.6-.2,45.51,45.51,0,0,1-6.3-.9l-4.9-.6a27,27,0,0,1-2.8-.4l-4.7-.9c-1.1-.2-2.3-.5-3.4-.7s-2.4-.5-3.6-.7c-2.2-.5-4.4-.9-6.6-1.5a42.75,42.75,0,0,0-6.1-.9l-5.1-.6c-1.5-.2-3.1-.5-4.6-.8-1.9-.5-3.8-1-5.8-1.6a76.79,76.79,0,0,1-7.9-3.2,11.91,11.91,0,0,1-1.5-.9c-.6-2.1-1.1-4.3-1.7-6.4-1.6-6-2.9-12.2-4.2-18.3-2-8.7-3.5-17.5-5.2-26.3-.7-3.7-1.3-7.4-2-11.1a15,15,0,0,1-.3-2.9c-.4-4.3-.8-8.5-1-12.8-.3-3.8-.4-7.6-.6-11.4a6.6,6.6,0,0,1,.1-1.4c.3-1.5.6-2.9.9-4.4a1.59,1.59,0,0,1,.9-1.2c2.2-1.2,4.3-2.5,6.5-3.7,1.2-.7,2.4-1.2,3.7-1.8a2.13,2.13,0,0,0,1-.9,32.84,32.84,0,0,0,2-3.1,14.72,14.72,0,0,0,1-2.2,44.36,44.36,0,0,1,2.8-5.3c1.1-2,2.3-4,3.4-5.9a37.81,37.81,0,0,1,4.4-6.1c.9-1,1.7-2.1,2.6-3.1,1.5-1.7,3-3.5,4.6-5.1,1.4-1.5,2.9-2.8,4.2-4.2a12.45,12.45,0,0,0,1.6-2.2c1.1-1.5,2.2-3.1,3.3-4.6s2.2-2.9,3.3-4.3,2.4-2.9,3.6-4.4l1.8-2.1c.7-.8,1.5-1.6,2.3-2.4,1.8-1.8,3.5-3.5,5.3-5.2.6-.6,1.3-1.2,2-1.8l6.6-5.1c.8-.6,1.6-.9,2.4-1.4a7.49,7.49,0,0,1,4.3-1.1,13.32,13.32,0,0,0,3.4-.5,32.94,32.94,0,0,1,8.3-.8h1.5a17.29,17.29,0,0,1,7.7,1.7,25.57,25.57,0,0,1,2.4,1.1c.6.2,1.2.5,1.8.7.2.1.4.1.6.2,2.2,1.4,4.6,2.2,6.9,3.4a15.11,15.11,0,0,1,1.8.9,10.09,10.09,0,0,0,4.3,1.5c1.7.3,3.5.6,5.2,1a7.8,7.8,0,0,0,2.2.4,4.32,4.32,0,0,1,2.5,1.1,9.32,9.32,0,0,1,2.5,3c.5.8.9,1.6,1.4,2.4a3,3,0,0,1,.4,1,26.78,26.78,0,0,1,1.1,6.4v.3a24.73,24.73,0,0,1,.5,3.8l.3,1.8c.5,2.5,1.1,5,1.7,7.5.2,1,.3,2,.6,3,.2.7.3,1.5.5,2.3s.5,1.4.8,2.3c-.2,0-.4.1-.6.1s-.5-.1-.7-.1a6.25,6.25,0,0,0-5,1.5c-.5.4-1.1.8-1.6,1.2a10.14,10.14,0,0,0-3.6,5.1c-.3.8-.5,1.6-.8,2.5a15.83,15.83,0,0,0-.5,3.8,37.5,37.5,0,0,0,.2,5.8,5.92,5.92,0,0,0,.5,1.9c.5,1.2,1,2.3,1.5,3.4a.1.1,0,0,0,.1.1c.3.6.8.8,1.2.5a1.32,1.32,0,0,0,.3-1.5.1.1,0,0,0-.1-.1c-.8-1.1-.7-2.5-.7-3.9v-5.3a16.82,16.82,0,0,1,1.5-6.7,6,6,0,0,1,1.8-2.3c.6-.5,1.2-1,1.9-1.5,2.3-2,4.5-1.6,6.5.6a2.09,2.09,0,0,1,.4.6c.9,1.2,1.7,2.4,2.5,3.6.5.8.9,1.7,1.4,2.6.8,1.6,1.7,3.2,2.4,4.9a51.39,51.39,0,0,1,2.7,5.8,6.82,6.82,0,0,1,.5,2.9V288a7,7,0,0,1-.5,3.2,7.59,7.59,0,0,0-.4,1.1,11,11,0,0,1-3.3,4.3,20.71,20.71,0,0,1-5.1,2.2h-.2c-1.4.8-2.8.6-4.2.6s-2.8.1-4.2,0a4.88,4.88,0,0,1-2.7-1.1,13,13,0,0,0-1.5-1c-1.2-.7-2.4-1.4-3.5-2.1a3.81,3.81,0,0,1-1.3-1.9c-.8-2.1-1.6-4.1-2.4-6.2a10.53,10.53,0,0,0-1.7-2.9c-1.2-1.6-2.3-3.4-3.5-5.1a2.1,2.1,0,0,1-.4-1.1,13.4,13.4,0,0,0-1.2-3.7,37.8,37.8,0,0,0-3.4-5.9,24.89,24.89,0,0,0-3.4-3.8,4.36,4.36,0,0,1-.8-1,11.27,11.27,0,0,0-1.2-1.8c-1.3-1.7-2.6-3.4-3.8-5.1-.2-.3-.5-.6-.7-.9s-.6-.2-.9.1a1.1,1.1,0,0,0-.1,1.1,8.34,8.34,0,0,1,.8,1.2c.6.9,1.2,1.8,1.8,2.8.1.1.1.3.2.6a16.2,16.2,0,0,1-3.8-.9,3.54,3.54,0,0,0-1.1-.3,38.94,38.94,0,0,1-4.9-1.2c-.3-.1-.6-.3-.9.1a.3.3,0,0,1-.4,0c-.3-.2-.7-.4-1-.6-.9-.6-1.7-1.2-2.6-1.8a4.05,4.05,0,0,0-.9-.5c-.6-.2-1,.4-.9,1.2a6.89,6.89,0,0,0,.3.8,4.31,4.31,0,0,0,.7,1,13.82,13.82,0,0,0,5.7,3.6c.3.1.6.2.8,0a2.8,2.8,0,0,1,2.2,0,14.13,14.13,0,0,0,2.2.6c.9.2,1.9.3,2.8.5.2,0,.3.1.6.1a5.82,5.82,0,0,1-.5,1.1,10.23,10.23,0,0,0-.6,6.9,6,6,0,0,0,1.8,3.2,38.39,38.39,0,0,1,3,2.8,4.05,4.05,0,0,0-.5.9c-.1.2-.3.4-.2.5.3.8-.2,1.1-.5,1.6-.5.7-1,1.3-1.5,1.9a14.52,14.52,0,0,0-1.9,2.9c-.4.9-.9,1.7-1.3,2.6a7.39,7.39,0,0,0-.9,3.3,18.46,18.46,0,0,1-.4,2.3,2.77,2.77,0,0,0-.1.9c0,1.6.1,3.2.2,4.8a4.07,4.07,0,0,0,.5,1.8,11.11,11.11,0,0,1,.7,1.6,3,3,0,0,1-1.8,1.7c-1.2.5-2.3.9-3.5,1.4-1.9.8-1.7.2-2.5,2.7a5,5,0,0,1-1.3,2,23.32,23.32,0,0,0-3.1,3.8,6.09,6.09,0,0,0-1,3.6c.1,1.9,0,3.9.1,5.8a13.51,13.51,0,0,0,.4,2.8c.2.8.5,1.5,1.2,1.6a.66.66,0,0,1,.5.4c.9,1,1.7,2,2.6,2.9l.5.5a38.76,38.76,0,0,0,3.1,2.6,1.85,1.85,0,0,1,.7,1.2A7.35,7.35,0,0,0,224.1,338.9Z"/><path class="cls-1" d="M271,346.8a20,20,0,0,1-3.5-.2,7.18,7.18,0,0,1-3.6-1.3,2.11,2.11,0,0,0-1-.4,4.24,4.24,0,0,1-1.9-.6,14.79,14.79,0,0,0-3.6-1,12.44,12.44,0,0,1-3.1-1,26.4,26.4,0,0,0-4.5-1.5c-1.1-.3-2.2-.8-3.3-1.1l-3-.9c-.5-.1-1-.3-1.4-.4a1.42,1.42,0,0,0-.6-.2,11.8,11.8,0,0,1-2-.4,26.71,26.71,0,0,1-4-1.3c-.1,0-.2-.1-.4-.1a7.49,7.49,0,0,1-3.6-1.7,31.31,31.31,0,0,0-3.4-2.1,23.57,23.57,0,0,1-5.7-4.4,5,5,0,0,1-1.7-2.7c-.2-.9-.6-1.7-.8-2.6a1.91,1.91,0,0,0-.3-.8,2.46,2.46,0,0,1-.5-1.7v-.5c0-2-.1-2,1-3.4a17.87,17.87,0,0,1,1.3-1.4l.9-.9a3.46,3.46,0,0,1,3-1.4,5.76,5.76,0,0,0,2.9-.5,3,3,0,0,1,1-.2,4.51,4.51,0,0,0,2.5-.7,6.12,6.12,0,0,1,1.2-.5,8.87,8.87,0,0,1,1.4-.3c.8-.1,1.6,0,2.3-.1a6.61,6.61,0,0,1,2.4.3,3.08,3.08,0,0,0,1,.1h1.7a5.08,5.08,0,0,0,1.7-.3,3.59,3.59,0,0,1,2.5-.1c.6.1,1.1.1,1.7.2a4.49,4.49,0,0,1,1.9.5,2.34,2.34,0,0,0,1.2.2,24.91,24.91,0,0,1,6,.9,15.51,15.51,0,0,0,2.9.4,2.6,2.6,0,0,1,1.5.4,3.09,3.09,0,0,0,1.8.5c1.6.1,3.3.1,4.9.2a3.53,3.53,0,0,1,1.7.4,5.79,5.79,0,0,0,2.1.7.86.86,0,0,1,.6.3c.8,1,1.9,1.3,2.8,1.9,1.8,1.1,3.6,2,5.4,3.1a19.25,19.25,0,0,1,2.3,1.9c.1.1.3.3.3.4a11.79,11.79,0,0,1,1.6,5c.1,1.9.2,3.9.3,5.8a8.83,8.83,0,0,1-.2,2.8c-.1.4-.1.8-.2,1.2a5.73,5.73,0,0,1-.4,1.4,12.48,12.48,0,0,1-2.5,3.4,37.47,37.47,0,0,1-3.3,2.6,15.93,15.93,0,0,1-2.9,1.5A14.88,14.88,0,0,1,271,346.8Z"/><path class="cls-1" d="M238.1,281c1.2.1,2.5.1,3.7.2a2.1,2.1,0,0,1,1.9,1.4c1.5,3.3,3.5,6.2,5.2,9.4.8,1.6,1.8,3.1,2.6,4.7.5,1,1,2,1.5,3.1a2.21,2.21,0,0,0,1,1.3c1.1.6,2.2,1.1,3.3,1.7.2.1.4.1.6.3.8.9,1.8.8,2.8.8,1.4,0,2.9,0,4.3.1h.5l2.1.3c1.5-.6,3.2-.6,4.6-1.5a7,7,0,0,1,2.7-.8,8.48,8.48,0,0,0,5.4-3.6,5.46,5.46,0,0,0,1.2-2.8,1.45,1.45,0,0,1,.2-.7,5.39,5.39,0,0,0,.5-2.8c0-1.3-.1-2.6,0-3.9a5.66,5.66,0,0,0-.3-1.8c-.2-.6-.4-1.2-.6-1.9a7.93,7.93,0,0,0-.4-.9,22.38,22.38,0,0,1-2.7-4.5c-.7-1.3-1.3-2.8-1.9-4.2a1.85,1.85,0,0,1-.2-.7c-.3-1.1-.6-2.3-.9-3.5a3.29,3.29,0,0,1,.7-1.3c.2-.2.4-.4.6-.4a12.5,12.5,0,0,1,1.9-.3c1.2-.1,2.5,0,3.7,0a9.76,9.76,0,0,1,3.3.7l2.4.9a19.44,19.44,0,0,0,2,.5c.6.2,1.1.3,1.7.5a6.47,6.47,0,0,0,1.3.4,3.82,3.82,0,0,1,2.5,2,38.86,38.86,0,0,1,2.5,5,4.58,4.58,0,0,1,0,3.8,5.23,5.23,0,0,0-.3,1.8v1.1a13.27,13.27,0,0,1-.3,4,5.8,5.8,0,0,0,.3,3.9c.3.7.6,1.5.9,2.2a9.72,9.72,0,0,1,.9,3.9v2.8a2,2,0,0,1-.5,1.5,31.55,31.55,0,0,0-2.2,2.9c-.3.3-.5.6-1,.6a1,1,0,0,0-.7.4,8.74,8.74,0,0,0-.8,1h-.6a1,1,0,0,0-1,.7,18.53,18.53,0,0,1-2.9,3.3c-.1.1-.3.2-.4.3a5.86,5.86,0,0,1-2.8,1.9,10.88,10.88,0,0,1-2.4.7,1.24,1.24,0,0,1-1.5-.8,2.26,2.26,0,0,0-1.9-1.5,14.46,14.46,0,0,1-2.9-1.1l-.6-.3a13.09,13.09,0,0,1-2.8-.9,6.2,6.2,0,0,0-2.3-.4,4,4,0,0,1-1.9-.3,3.13,3.13,0,0,0-1.9-.2l-4.2.3a6.2,6.2,0,0,1-2.7-.2,3.66,3.66,0,0,0-1.8,0,19.67,19.67,0,0,1-4.2-.1,35.35,35.35,0,0,1-5.5-1,7.58,7.58,0,0,1-1.6-.6,4.42,4.42,0,0,0-1.5-.5,24.82,24.82,0,0,1-5.4-1.2,6.11,6.11,0,0,0-1.3-.3,11.57,11.57,0,0,1-5-1.5c-.2-.1-.3-.1-.4-.3-.7-1.2-1.7-2.2-1.9-3.8a10.55,10.55,0,0,0-.5-1.9,12.55,12.55,0,0,1-.7-6.1,11.73,11.73,0,0,1,.9-2.4,18.4,18.4,0,0,1,2.4-4.1,4.9,4.9,0,0,0,1.1-2,2.81,2.81,0,0,1,1-1.4A3.15,3.15,0,0,1,238.1,281Z"/><path class="cls-1" d="M270,233.8a4.14,4.14,0,0,1,3-1.1,19.42,19.42,0,0,1,2.4-.2,34,34,0,0,0,4.6-.7,17.89,17.89,0,0,1,8.9.1,2.38,2.38,0,0,1,1.1.6,6.78,6.78,0,0,0,2.2,1.2c1,.4,2,.9,3,1.3a7.41,7.41,0,0,1,2.8,2.2,31.25,31.25,0,0,1,3.2,4.6,6.56,6.56,0,0,1,.8,2.1,23.78,23.78,0,0,1,.5,9.6,14.16,14.16,0,0,1-.4,2c-.7,3.4-1.5,6.7-2.5,10a1.27,1.27,0,0,0-.1.6,7.94,7.94,0,0,1-1.1,3.6c-1.3-1.2-2.9-1.5-4.4-2.4-.4-.3-.9-.4-1.4-.7a5.38,5.38,0,0,0-3.2-.9,1.7,1.7,0,0,1-.7-.1,8.68,8.68,0,0,0-2.8-.5c-1.5-.2-3.1-.1-4.6-.4a6.62,6.62,0,0,0-2.8.1,6.73,6.73,0,0,1-4.4-.8,3.09,3.09,0,0,1-1.7-1.5c-.1-.1-.1-.3-.2-.4-1.2-1-1.7-2.6-2.4-4.1a13.36,13.36,0,0,1-.7-1.8c-.7-1.9-1-4-1.5-5.9-.3-1.3-.6-2.7-1-4a15.44,15.44,0,0,1-.5-3.1c-.1-2.3-.1-4.7-.2-7a2.54,2.54,0,0,1,.5-1.6,2.09,2.09,0,0,1,2.5-.8A1.07,1.07,0,0,1,270,233.8Z"/><path class="cls-1" d="M453.3,289.8a4,4,0,0,1,2.8.7,5.23,5.23,0,0,0,1.6.6,7.2,7.2,0,0,1,2.4,1c.2.1.4.4.7.4,1.6.4,2.9,1.5,4.4,2.1.1,0,.1.1.3.2,0,.5.1,1,.1,1.6.2,5.3.4,10.6.5,16,.1,6.3.2,12.6.2,18.9,0,2.1-.1,4.2-.2,6.3a3.65,3.65,0,0,1-.3,1.5c-.9,2.4-1.8,4.8-2.8,7.1a56.6,56.6,0,0,1-4,8.2c-1.5,2.5-2.9,5.1-4.4,7.7-2.1,3.6-4.1,7.2-6.4,10.6a4.6,4.6,0,0,1-1.6,1.6c-1.4-.4-2.4-1.7-3.6-2.4.4-1.2.7-2.4,1.1-3.5.8-2.6,1.6-5.3,2.3-7.9,1-3.7,1.9-7.4,2.8-11.2.7-2.9,1.3-5.9,1.8-8.9.4-2.2.6-4.5.8-6.8.4-4.2.8-8.5,1.2-12.7.1-1.3.2-2.7.2-4.1.1-3.6.4-7.3.4-10.9,0-4.4-.1-8.8-.2-13.1C453.4,291.8,453.4,290.9,453.3,289.8Z"/><path class="cls-1" d="M119.5,300.7a1.76,1.76,0,0,1,.5-.4,18,18,0,0,1,2.1-.8c2.5-.8,5-1.7,7.6-2.8-.1.9-.2,1.5-.3,2.2-.3,2.6-.7,5.2-1,7.9-.4,4.1-.7,8.2-1,12.3-.1,1.7-.2,3.4-.2,5.1-.1,2.1-.2,4.3-.2,6.4v6.6c0,2.6,0,5.2.1,7.8,0,3.1.1,6.2.1,9.4a56.83,56.83,0,0,0,.3,5.9,2.81,2.81,0,0,1-.1.8,1.55,1.55,0,0,1-.3-.6c-1.7-5.3-3.3-10.7-5-16a89.2,89.2,0,0,1-2.9-11.3c-.4-2.3-.7-4.6-1-6.9a33.79,33.79,0,0,1,0-4.5c.1-3.5.2-7,.5-10.5C118.8,307.7,119.2,304.2,119.5,300.7Z"/><path class="cls-1" d="M131.9,392.7c-1.9.6-3.8,1.1-5.6,1.7-1.2.4-2.3.9-3.5,1.4-.5.2-1,.4-1.6.6a7,7,0,0,1-.3-1.2c-.7-5.6-1.3-11.1-2-16.7a113,113,0,0,1-1-11.7c-.1-2.9-.1-5.8-.1-8.8v-7.7a4.5,4.5,0,0,1,.2-.8l.4.8c1.2,3.9,2.4,7.8,3.6,11.6,1.6,5,3.1,10.1,5.1,14.9,1.2,3.1,2.2,6.4,3.2,9.7.6,1.8,1.1,3.6,1.6,5.4Z"/><path class="cls-1" d="M144,388.2a29.92,29.92,0,0,0-3.2,1c-1,.4-2,.9-3,1.4-.1-.4-.3-.6-.3-.9-.5-2.4-.9-4.8-1.3-7.2-.7-4.2-1.5-8.5-2.1-12.7-.4-2.5-.7-5-1-7.6-.2-1.4-.4-2.9-.5-4.3-.1-1.7-.1-3.4-.1-5.2-.1-6.1-.1-12.1-.2-18.2a11.48,11.48,0,0,1,.1-1.8c.1.5.3,1,.4,1.5,1.7,9,3.3,18,5,27,.5,2.7,1.2,5.4,1.8,8.1.7,3.3,1.4,6.5,2.2,9.8.6,2.3,1.2,4.7,1.8,7A15.52,15.52,0,0,0,144,388.2Z"/><path class="cls-1" d="M462,385.2a6.41,6.41,0,0,1-1.9-1.3c-.5-.4-1-.7-1.5-1.1-1.5-1.1-3-2.2-4.6-3.3-.2-.1-.4-.4-.6-.6a8.79,8.79,0,0,1,.6-1,49.89,49.89,0,0,0,4-7.6c1.6-3.3,3.2-6.5,4.7-9.8.6-1.3,1.3-2.7,1.9-4,.4.1.3.5.3.7-.2,3-.5,5.9-.7,8.9-.2,3.5-.6,6.9-1.1,10.4-.2,1.9-.5,3.9-.7,5.9-.1.8-.2,1.5-.3,2.3C462.2,384.9,462.1,385,462,385.2Z"/><path class="cls-1" d="M470.6,297.7c2,.7,3.6,2.1,5.4,3.1-.2,3.1-3,15.3-4.3,19.1a1.49,1.49,0,0,1-.1-.6c-.1-2.9-.2-5.7-.3-8.6-.1-1.9-.2-3.8-.3-5.8-.1-2.3-.3-4.6-.4-6.9C470.5,298,470.6,297.9,470.6,297.7Z"/><path class="cls-1" d="M232.7,266.5a5.45,5.45,0,0,1,4.5,3.7,16.18,16.18,0,0,0,1,1.8,3,3,0,0,1-.5,3.7c-.1.1-.4.1-.6.1-.4,0-.7-.2-1.1-.2a2.29,2.29,0,0,1-1.7-.8l-1.7-1.7a2.67,2.67,0,0,1-.7-1.4,9.39,9.39,0,0,1,.5-4.7A2.19,2.19,0,0,1,232.7,266.5Z"/><path class="cls-1" d="M326.1,409.2h.5v.1h-.5Z"/><path class="cls-2" d="M273.4,193.4a74,74,0,0,0-5.1-10.6c-3.2-5-12-5.5-11.6,2.4.1,2.7,2,4,3.6,3.6l.6.6c1.3,1.4,2,4.1,2.7,6.2,1.8,4.9,4.7,13.4,10,12.5a3.29,3.29,0,0,0,2.9-2.9C277.2,200.7,275,197.2,273.4,193.4Z"/><path class="cls-2" d="M305.8,166.4c-.8-3.4-4.7-3.4-5.4.1-1.8,9-.9,18.7-2.5,27.8-.7,4,3.8,6.6,5.3,2.8A55.21,55.21,0,0,0,305.8,166.4Z"/><path class="cls-2" d="M348.4,179.4c-3,4.4-6.3,8.4-9.4,12.6-1.7,2.3-3.3,4.7-4.9,7.1-1.1,1.7-2.6,5.8-4.3,6.6-3.9,1.8-3.4,9.9,1.1,9.7,5.6-.2,8.8-7.1,12-11.9,4-6,7.5-12.4,11-18.8C356.1,180.6,350.9,175.7,348.4,179.4Z"/><path class="cls-2" d="M380.4,218.6a22.28,22.28,0,0,0-7.9,3.5c-2.8,1.9-5.4,3.5-8.6,4.2-4.5,1-2.8,9,1.1,9.4s7-.8,10.4-2.9c3.2-2,5.3-5.1,7.7-8.3C385.3,221.8,383.1,218,380.4,218.6Z"/></svg>