<?xml version="1.0" encoding="utf-8"?>
<!-- Generator: Adobe Illustrator 21.0.0, SVG Export Plug-In . SVG Version: 6.00 Build 0)  -->
<svg version="1.1" id="Layer_1" xmlns="http://www.w3.org/2000/svg" xmlns:xlink="http://www.w3.org/1999/xlink" x="0px" y="0px"
	 viewBox="0 0 544.3 470" style="enable-background:new 0 0 544.3 470;" xml:space="preserve">
<style type="text/css">
	.st0{fill:#A2D7C9;}
	.st1{fill:#D8C621;}
	.st2{display:none;}
	.st3{display:inline;}
	.st4{clip-path:url(#SVGID_2_);}
	.st5{clip-path:url(#SVGID_4_);}
</style>
<g id="Layer_1_1_">
	<g>
		<g>
			<g>
				<path class="st0" d="M0,331.9c0.8-0.1,1.6-0.3,2.4-0.3c2-0.2,3.9-0.8,5.8-1.2c1.9-0.4,3.9-0.8,5.8-1.3c2-0.5,4-1,6-1.7
					c1.2-0.5,2.4-0.8,3.6-1.2c1.2-0.4,2.4-0.9,3.6-1.3c1.4-0.5,2.8-0.9,4.3-1.2c1.8-0.4,3.6-0.9,5.4-1.2c2.2-0.4,4.4-0.8,6.7-1.2
					c1.1-0.2,2.3-0.2,3.4-0.3c2-0.3,4.1-0.5,6-1.2c2.3-0.7,4.5-1.2,6.8-1.9c1.3-0.4,2.6-0.8,3.9-1.2c1.8-0.6,3.6-1.2,5.4-1.8
					c1.9-0.6,3.9-1.3,5.8-1.9c2.6-0.8,5.1-1.7,7.7-2.3c2.6-0.6,5.3-1.3,7.9-2c1.2-0.3,2.5-0.5,3.7-0.8c0.7-0.2,1.4-0.4,2.2-0.6
					c1.8-0.5,3.7-1,5.5-1.5c1.4-0.4,2.9-0.8,4.3-1.3c1.2-0.4,2.4-0.8,3.6-1.2c0,0.6,0,1.1,0,1.5c0,2.4,0.2,4.7,0.4,7
					c0.2,3.4,0.6,6.7,1,10.1c0.2,1.3,0.3,2.6,0.4,3.9c0.1,1.1,0.1,2.3,0.1,3.4c0,4.1,0,8.2,0,12.4c0,5.8-0.1,11.7-0.1,17.5
					c0,2,0,4,0,5.9c0.1,2,0.2,4.1,0.3,6.1c0.2,2.5,0.5,5,0.7,7.5c0.4,3.6,0.8,7.1,1.3,10.7c0.4,2.8,0.8,5.7,1.2,8.5
					c0,0.1,0,0.3,0,0.5c-0.6,0.3-1.2,0.4-1.8,0.6c-1.4,0.4-2.9,0.8-4.3,1.2c-1.7,0.5-3.5,1.1-5.2,1.7c-1.9,0.7-3.8,1.4-5.6,2.4
					c-1.4,0.8-2.9,1.4-4.4,2c-1.3,0.6-2.6,1.1-3.9,1.8c-1.6,0.9-3.3,1.5-5,2.2c-2.2,0.9-4.3,1.8-6.5,2.9c-2,1-4,1.9-6.1,2.6
					c-1.6,0.6-3.1,1.2-4.7,1.8c-1.5,0.6-3,1.2-4.6,1.6c-0.7,0.2-1.4,0.4-2.1,0.7c-2,0.8-4,1.6-6.1,2.4c-1.3,0.5-2.6,0.8-3.9,1.3
					c-1.4,0.5-2.8,1.1-4.2,1.7c-1.6,0.7-3.2,1.4-4.9,2c-2,0.8-4.1,1.6-6.1,2.4s-4,1.6-5.9,2.6c-1.2,0.6-2.3,1.2-3.5,1.9
					c-1.4,0.8-2.8,1.7-4.2,2.5s-2.8,1.5-4.2,2.2c-0.9,0.5-1.8,1-2.7,1.3c-2.6,1-5,2.4-7.5,3.9c-1.3,0.8-2.6,1.5-3.9,2.2
					c-0.4,0.2-0.7,0.4-1.1,0.6c-0.5,0.2-1,0.7-1.6,0.5C0.9,409,0.4,370.5,0,331.9z"/>
				<path class="st0" d="M545.3,450.1c-0.6-0.1-1-0.6-1.5-1c-0.2-0.2-0.4-0.5-0.7-0.7c-1.4-1-2.8-2.1-4.3-3.1
					c-1.8-1.3-3.6-2.7-5.4-4c-0.4-0.3-0.8-0.7-1.3-0.9c-0.9-0.5-1.7-1.2-2.5-2c-0.3-0.4-0.7-0.7-1.1-0.9c-0.8-0.5-1.6-1.2-2.3-1.9
					c-0.4-0.4-0.8-0.7-1.2-1c0,0-0.1,0-0.1-0.1c-0.9-0.6-1.6-1.6-2.5-2.3c-0.9-0.7-1.8-1.3-2.6-2.1c-0.4-0.4-0.8-0.7-1.2-1.1
					c-0.1-0.1-0.2-0.1-0.3-0.2c-0.8-0.8-1.6-1.6-2.5-2.3c-0.9-0.7-1.8-1.3-2.6-2.2c-0.3-0.3-0.7-0.6-1-0.9c0,0-0.1,0-0.1-0.1
					c-1.7-1.5-3.4-2.9-5.1-4.4c-0.4-0.3-0.7-0.6-1.1-0.9c-0.1-0.1-0.3-0.2-0.4-0.3c-1.5-1.5-3.2-2.6-4.8-4.1
					c-0.3-0.3-0.6-0.5-0.9-0.8c-0.1-0.1-0.2-0.1-0.2-0.1c-1.7-1.4-3.4-2.8-5.2-4.2c-0.4-0.3-0.8-0.6-1.1-0.9
					c-0.1-0.1-0.2-0.1-0.3-0.2c-0.8-0.7-1.6-1.5-2.4-2.1c-0.9-0.6-1.7-1.2-2.5-1.9c-1.4-1.2-2.8-2.2-4.2-3.3c0,0-0.1,0-0.1-0.1
					c-0.9-0.6-1.7-1.3-2.6-1.8s-1.7-1.2-2.6-1.8c-1.3-0.9-2.7-1.8-4-2.7c-0.8-0.6-1.7-1.1-2.5-1.7c-1.4-1-2.8-1.8-4.3-2.7
					c-0.5-0.3-1-0.6-1.5-0.9c0-0.4-0.1-0.8,0-1.1c0.5-2.9,0.9-5.8,1.2-8.8c0.2-2.4,0.6-4.7,0.8-7.1c0.3-2.6,0.5-5.3,0.7-7.9
					c0.2-2.6,0.4-5.3,0.6-7.9c0.2-2.6,0.4-5.2,0.5-7.8c0.1-2.3,0.2-4.7,0.4-7c0-0.4,0.1-0.7,0.2-1c0.7-2.1,1.5-4.3,2.3-6.4
					c0.5-1.3,0.9-2.7,1.2-4.1c0.2-1,0.6-1.9,1-2.9c0.2-0.6,0.4-1.1,0.3-1.8c0-0.4,0.1-0.9,0.2-1.4c0.8-3.4,1.7-6.7,2.4-10.1
					c0.6-2.7,1-5.5,1.6-8.2c0.1-0.3,0.2-0.6,0.3-0.9c1.1,0.7,2,1.5,3.1,2.1c0.8,0.5,1.7,1,2.6,1.4c2.2,1.1,4.3,2.1,6.5,3.2
					c1.4,0.7,2.8,1.4,4.2,2.1c1.4,0.8,2.8,1.6,4.3,2.4c2.1,1.2,4.2,2.4,6.3,3.6c0.5,0.3,1,0.5,1.5,0.7c1.8,0.5,3.4,1.7,5.2,2.5
					c0.8,0.4,1.6,0.7,2.3,1c0.9,0.4,1.7,0.7,2.5,1.2c2,1.1,4,2.3,6,3.4s4,2.5,5.9,3.8c1.2,0.8,2.3,1.7,3.4,2.5
					c1.4,1,2.7,1.9,4.1,2.8c0.7,0.5,1.4,1,2.2,1.5c0.7,0.4,1.4,0.7,2.2,1.1c0.6,0.3,1.3,0.6,2,0.9
					C544.5,377,544.9,413.6,545.3,450.1z"/>
				<path class="st0" d="M303.9,400.8c0-1-0.1-2.1,0-3.1c0.1-1.8,0.7-3.3,1.9-4.3c0.3-0.2,0.5-0.5,0.6-0.9c0.5-1.5,1.4-2.6,2.4-3.5
					c2.2-1.9,4.5-3.3,7.1-4c0.4-0.1,0.8-0.3,1.2-0.4c1.6-0.5,3.3-0.8,5-0.7c1.9,0.1,3.8,0,5.8,0.1c0.8,0,1.5,0.1,2.3,0.2
					c1,0.1,2,0.3,3,0.4c0.8,0.1,1.6,0.2,2.3,0.3c1,0.2,1.9,0.3,2.9,0.2c1.4-0.1,2.8-0.3,4.2-0.1c0.2,0,0.3,0,0.5,0.1
					c1.6,0.6,3.2,0.5,4.9,0.9c0.5,0.1,1,0.1,1.5,0c0.6-0.1,1.1-0.2,1.7,0.1c0.2,0.1,0.5,0.1,0.6-0.3c0-0.1-0.1-0.2-0.1-0.2
					c-0.6-0.2-1.3-0.3-1.9-0.4c-1.4-0.3-2.7-0.5-4.1-0.8c-1.2-0.2-2.4-0.4-3.6-0.6c-0.7-0.1-1.5-0.3-2.2-0.4
					c-1.2-0.2-2.3-0.5-3.5-0.7c-1.2-0.2-2.4-0.4-3.6-0.6c-0.8-0.1-1.6-0.3-2.4-0.4c-1.1-0.2-2.3-0.5-3.4-0.7
					c-0.9-0.1-1.8-0.1-2.7-0.1c-0.3,0-0.6,0.1-0.9,0.1c-2.2-0.1-4.3,0.5-6.5,0.9c-2.5,0.4-4.9,1.3-7.2,2.3c-1.3,0.6-2.6,1.1-4,1.6
					c-0.8,0.3-1.6,0.5-2.4,0.5c-2.3,0-4.6,0-6.9-0.2c-1.6-0.1-3.1-0.6-4.6-1.1c-1.2-0.4-2.3-0.7-3.5-1.1c-1.2-0.3-2.3-0.8-3.4-1.4
					c-0.4-0.2-0.7-0.4-1.1-0.7c-0.1-0.1-0.3-0.2-0.4-0.3c-1.2-1.2-2.4-2.4-3-4.2c-0.2-0.4-0.3-0.8-0.5-1.3c-0.3-0.7-0.4-1.5-0.5-2.2
					c0-0.6-0.1-1.3-0.3-1.8c-0.7-2.2-0.9-4.6-1.2-6.9c-0.1-1,0.2-4.3,0.5-5.2c0.4-0.9,0.7-1.8,1.1-2.8c0.2-0.4,0.3-0.7,0.5-1.1
					c0.3-0.8,0.7-1.5,1.3-2.1c0.4-0.4,0.7-0.7,0.8-1.3c0.2-0.6,0.6-1.1,1-1.5c0.5-0.5,0.9-1.2,1.2-1.9c0.8-1.5,1.8-2.8,3.1-3.7
					c0.7-0.5,1.4-1.1,2-1.7c0.2-0.2,0.3-0.4,0.5-0.7c0.2-0.4,0.4-0.8,0.6-1.2c0-1.7-0.5-3.3-0.9-5c-0.2-1-0.5-2-0.7-3
					c-0.2-1.1-0.3-2.3-0.3-3.4c-0.1-2.1-0.1-4.3,0-6.4c0.1-1.8,0.3-3.6,1-5.3c0.6-1.3,1.3-2.4,2.2-3.2c1-0.9,2.1-1.9,3.1-2.7
					c1.2-1,2.4-2.2,3.4-3.5c0.8-1,1.5-2.1,2.3-3c0.5-0.6,0.6-1.2,0.6-1.9c0-0.5,0-1,0.1-1.4c0.3-1.2,0-2.3-0.6-3.2
					c-0.9-1.4-1.1-3-1.4-4.6c-0.1-0.4-0.1-0.8-0.1-1.2c0-1.1-0.1-2.3,0-3.4c0.1-2.1,0.4-4.1,1.6-5.8c0.7-0.9,1.2-2,2.1-2.5
					c0.2-0.1,0.3-0.5,0.4-0.7c0.3-1.1,0.4-2.2,0.1-3.2c-0.4-1.7-0.5-3.5-0.5-5.3c0-1.1,0-2.2,0-3.3c-0.1-1.7,0.1-3.2,0.5-4.8
					c0.5-1.9,1-3.8,1.8-5.6c0.6-1.5,1.6-2.5,2.6-3.4c0.4-0.4,0.9-0.7,1.1-1.4c0.4-0.9,1-1.5,1.7-1.9c1.7-0.9,3.3-1.7,5.1-2.2
					c0.9-0.3,1.8-0.8,2.6-1.2c0.2-0.1,0.4-0.3,0.7-0.3c1.7-0.4,3.4-0.8,5-1.2h0.1c1.6-0.4,3.2-0.3,4.9-0.6c0.2,0,0.5-0.1,0.7-0.1
					c1.2,0.2,2.4-0.1,3.7-0.1c0.3,0,0.6,0,0.9-0.1c2.1-0.4,4.2-0.4,6.4-0.3c2.2,0.1,4.3,0.4,6.5,0.8c0.7,0.1,1.4,0.3,2.2,0.6
					c3,1,5.9,2.1,8.9,3.1c1.3,0.4,2.6,0.9,3.9,1.2c1.4,0.3,2.8,0.5,4.2,0.8c1.1,0.2,2.2,0.6,3.3,0.9c1.9,0.7,3.9,1.3,5.8,2.1
					c0.9,0.4,1.8,0.6,2.8,0.7h0.1c1.6,0.5,3.2,0.9,4.8,1.4c1.1,0.3,2.2,0.6,3.2,0.9c1.1,0.3,2.2,0.7,3.3,1c0.5,0.1,1,0.2,1.4,0.4
					c0.6,0.2,1.1,0.3,1.7,0.5c1.7,0.8,3.4,1.5,5.1,2.1c0.9,0.4,1.9,0.6,2.8,1c1.3,0.4,2.7,0.9,4,1.4c1.1,0.4,2.1,0.7,3.2,1.2
					c1.4,0.6,2.8,1.1,4.2,1.7c1,0.5,2,0.9,3,1.3c1.4,0.6,2.8,1.3,4.1,2c0.9,0.5,1.9,0.9,2.8,1.4c1.4,0.8,2.8,1.4,4.2,2.3
					c0.9,0.5,1.7,0.9,2.6,1.4c1.5,0.9,3,1.7,4.4,2.7c0.8,0.5,1.6,1,2.4,1.6c1.3,0.9,2.7,1.8,4,2.6c0.2,0.1,0.4,0.3,0.5,0.4
					c0.9,1,1.9,1.7,2.9,2.4c1,0.8,2.1,1.3,3.3,1.6c0.4,0.1,0.9,0.2,1.3,0.4c0.2,0.1,0.3,0.2,0.5,0.3c0,1.7,0,3.4-0.1,5.1
					c-0.1,4.2-0.1,8.3-0.3,12.5c-0.1,3.6-0.4,7.3-0.7,10.9c-0.4,4.4-0.7,8.7-1.2,13c-0.4,3.7-0.8,7.4-1.6,11.1c-0.6,3-1.3,5.9-2,8.9
					c-0.9,3.6-1.8,7.1-2.8,10.7c-0.6,2.4-1.4,4.7-2.1,7c-0.1,0.3-0.2,0.6-0.4,0.9c-0.4-0.1-0.7-0.2-1-0.3c-2.3-1.1-4.5-2.2-6.8-3.3
					c-0.5-0.3-1.1-0.5-1.6-0.7c-0.6-0.2-1.3-0.3-1.9-0.1c-0.7,0.2-1.4,0.2-2.1,0.3c-0.4,0.1-0.7,0.3-0.9,0.7
					c-0.6,0.8-1.2,1.6-1.7,2.4c-1.4,2.1-2.9,4.2-4.3,6.4c-2,3.2-4,6.4-5.5,10.1c-0.2,0.5-0.4,1.2-0.5,1.8c-0.2,1.6-0.8,3-1.4,4.5
					c-0.2,0.6-0.7,1.2-1.2,1.6c-0.9,0.8-1.9,1.4-2.9,2c-1,0.7-2.1,1-3.2,1.4c-0.5,0.2-1.1,0.3-1.7,0.5c-1.7,0.5-3.3,1.2-4.9,1.9
					c-1.3,0.5-2.6,0.9-3.9,1.4s-2.7,1-4,1.5c-1.5,0.6-3,1.1-4.4,1.7c-1.1,0.4-2.2,0.8-3.2,1.4c-0.9,0.5-1.9,0.9-2.9,1.2
					c-1.6,0.4-2.9,1.2-4.3,2.2c-0.7,0.5-1.5,1.1-2.3,1.5c-0.4,0.3-0.9,0.4-1.4,0.5c-2.7,0.3-5.3,1-7.9,1.9c-1.2,0.4-2.5,0.7-3.7,1
					c-0.3,0.1-0.7,0.2-1,0.1c-1.3-0.4-2.7-0.5-3.9-1.2c-1.1-0.6-2.3-0.9-3.4-1.2c-1.3-0.3-2.6-0.7-4-1.1c-1.4-0.4-2.8-0.8-4.2-1.2
					c-1.7-0.5-3.5-0.4-5.3-0.3c-1.8,0.2-3.6,0.4-5.4,0.6c-0.8,0.1-1.5,0.1-2.3,0.1c-2,0-3.9,0-5.9,0c-3.4,0-6.7,0.1-10.1,0
					c-2.1,0-4.1-0.9-5.8-2.7c-0.8-0.9-1.5-1.7-1.9-3C304.4,401.6,304.1,401.3,303.9,400.8z"/>
				<path class="st0" d="M223.1,338.9c-1.3,0.9-2,2.3-2.6,3.8c-0.5,1.3-1.3,2.5-2.1,3.6c-0.8,1-1.4,2.1-2,3.4
					c-0.2,0.5-0.4,1-0.7,1.5c-0.6,1-0.7,2.2-0.8,3.4c0,0.9,0,1.8,0,2.7c0,0.4,0.1,0.8,0.3,1.1c0.4,0.6,0.7,1.1,1.1,1.7
					c1.1,1.9,2.5,3.3,4,4.7c0.6,0.6,1.2,1.1,1.8,1.7c1.9,1.9,3.9,3.3,6.3,3.8c1.3,0.3,2.4,0.9,3.6,1.5c1.5,0.7,2.9,1.6,4.5,2.2
					c0.9,0.4,1.8,0.8,2.5,1.6c0.9,0.9,2,1.6,2.8,3c1.4,0.3,2.6,1.2,3.4,2.9c0.8,1.7,0.8,3.4,0.5,5.3c0.4,0.3,0.7,0.5,1,0.7
					c0.7,0.5,1.3,0.6,2.1,0.2c0.4-0.2,0.9-0.3,1.4-0.3c0.4-0.1,0.7,0,1.2,0c0.1-0.4,0.3-0.8,0.4-1.2c0.3-0.9,0.6-1.8,1.2-2.5
					s0.7-1.5,0.5-2.6c-0.5-2.2-1.6-3.2-3.4-2.9c-0.4,0.1-0.7,0-1.1-0.2c-3.1-2.2-6.4-3.7-9.8-4.9c-1.5-0.5-3-1.2-4.4-1.8
					c-0.4-0.2-0.8-0.3-1.2-0.5c-1.5-0.5-2.8-1.6-4.2-2.6c-1.1-0.8-2.2-1.6-3.3-2.4c-0.2-0.2-0.5-0.2-0.8-0.3c-1-0.4-2-0.9-2.9-1.8
					c-0.7-0.7-1.4-1.6-1.9-2.7c-0.2-0.4-0.3-0.7-0.5-1.1c-1.4-0.6-1.4-0.6-1.4-2.4c0-0.9,0-1.9-0.1-2.8c0-0.5,0.1-1,0.3-1.5
					c0.4-0.7,0.6-1.5,1-2.1c0.3-0.6,0.7-1.2,1-1.7c1.1-1.7,2.1-3.4,2.8-5.6c0.2-0.1,0.5-0.3,0.8-0.4c1.1-0.4,2.3-0.9,3.4-1.3
					c0.8-0.3,1.7-0.4,2.5-0.6c1.2-0.3,2.5-0.4,3.8-0.6c0.7-0.1,1.4-0.1,2.1-0.1c1.2,0,2.4-0.1,3.7,0c0.6,0,1.1,0.2,1.7,0.4
					c0.5,0.2,0.9,0.3,1.4,0.2c0.6,0,1.2,0,1.7,0.2c2.9,0.9,5.8,1.7,8.7,2.6c1.6,0.5,3.2,1.1,4.9,1.6c0.2,0.1,0.5,0.2,0.7,0.2
					c1.8,0.1,3.4,0.9,5.1,1.8c0.1,0,0.2,0.1,0.2,0.1c0.6,0.3,1.3,0.5,1.8,0.9s1,0.9,1.5,1.4c1.1,1.3,2.2,2.5,2.7,4.4
					c0.5,2,1,4,0.9,6.1c0,0.8,0,1.7,0,2.5c0,1.6-0.2,3.1-0.6,4.6c-0.2,0.6-0.3,1.2-0.3,1.8c0,0.4,0,0.7-0.1,1.1
					c-0.2,0.8-0.3,1.7-0.4,2.6s-0.3,1.7-0.5,2.6c-0.2,1.1-0.4,2.2-0.7,3.3c-0.1,0.6-0.3,1.3-0.6,1.9c-1,2.1-1.7,4.2-2.3,6.5
					c-0.2,0.6-0.5,1.1-0.9,1.5c-0.7,0.7-1.3,1.5-2.1,2.1c-0.3,0.2-0.5,0.6-0.7,0.9c-0.7,1.5-1.8,2.5-3.2,3c-0.9,0.3-1.8,0.8-2.6,1.2
					c-0.7,0.4-1.4,0.7-2.1,0.6c-0.4,0-0.7,0.2-1,0.5c-0.7,0.6-1.4,1.3-2.1,1.8c-0.6,0.5-1.3,0.8-2,0.8c-1.2,0-2.4,0.4-3.6,0.8
					c-1.2,0.5-2.5,0.7-3.7,1.1c-0.9,0.3-1.8,0.4-2.8,0.7c-1.7,0.5-3.3,1-5.1,1.1c-1.6,0.1-3.3,0.2-4.9,0.2c-1.9,0.1-3.8-0.4-5.7-0.5
					c-1.8-0.1-3.5-0.2-5.3-0.1c-0.8,0-1.5-0.1-2.3-0.2s-1.5-0.2-2.3-0.3c-0.5-0.1-1.1-0.2-1.6-0.2c-2.1,0-4.2-0.6-6.3-0.9
					c-1.6-0.2-3.3-0.4-4.9-0.6c-0.9-0.1-1.9-0.2-2.8-0.4c-1.6-0.3-3.1-0.6-4.7-0.9c-1.1-0.2-2.3-0.5-3.4-0.7
					c-1.2-0.2-2.4-0.5-3.6-0.7c-2.2-0.5-4.4-0.9-6.6-1.5c-2-0.5-4.1-0.7-6.1-0.9c-1.7-0.2-3.4-0.4-5.1-0.6c-1.5-0.2-3.1-0.5-4.6-0.8
					c-1.9-0.5-3.8-1-5.8-1.6c-2.7-0.8-5.3-2.1-7.9-3.2c-0.5-0.2-1-0.6-1.5-0.9c-0.6-2.1-1.1-4.3-1.7-6.4c-1.6-6-2.9-12.2-4.2-18.3
					c-2-8.7-3.5-17.5-5.2-26.3c-0.7-3.7-1.3-7.4-2-11.1c-0.2-1-0.3-2-0.3-2.9c-0.4-4.3-0.8-8.5-1-12.8c-0.3-3.8-0.4-7.6-0.6-11.4
					c0-0.5,0-0.9,0.1-1.4c0.3-1.5,0.6-2.9,0.9-4.4c0.1-0.6,0.4-0.9,0.9-1.2c2.2-1.2,4.3-2.5,6.5-3.7c1.2-0.7,2.4-1.2,3.7-1.8
					c0.4-0.2,0.7-0.4,1-0.9c0.7-1,1.4-2,2-3.1c0.4-0.7,0.7-1.4,1-2.2c0.8-1.9,1.8-3.6,2.8-5.3c1.1-2,2.3-4,3.4-5.9
					c1.3-2.1,2.7-4.3,4.4-6.1c0.9-1,1.7-2.1,2.6-3.1c1.5-1.7,3-3.5,4.6-5.1c1.4-1.5,2.9-2.8,4.2-4.2c0.6-0.6,1.1-1.4,1.6-2.2
					c1.1-1.5,2.2-3.1,3.3-4.6s2.2-2.9,3.3-4.3c1.2-1.5,2.4-2.9,3.6-4.4c0.6-0.7,1.2-1.4,1.8-2.1c0.7-0.8,1.5-1.6,2.3-2.4
					c1.8-1.8,3.5-3.5,5.3-5.2c0.6-0.6,1.3-1.2,2-1.8c2.2-1.7,4.4-3.4,6.6-5.1c0.8-0.6,1.6-0.9,2.4-1.4c1.4-0.8,2.8-1.2,4.3-1.1
					c1.1,0.1,2.3-0.3,3.4-0.5c2.7-0.7,5.5-0.8,8.3-0.8c0.5,0,1,0,1.5,0c2.7-0.1,5.2,0.6,7.7,1.7c0.8,0.3,1.6,0.7,2.4,1.1
					c0.6,0.2,1.2,0.5,1.8,0.7c0.2,0.1,0.4,0.1,0.6,0.2c2.2,1.4,4.6,2.2,6.9,3.4c0.6,0.3,1.2,0.5,1.8,0.9c1.4,0.9,2.8,1.3,4.3,1.5
					c1.7,0.3,3.5,0.6,5.2,1c0.7,0.2,1.4,0.4,2.2,0.4c0.9,0,1.7,0.5,2.5,1.1c1,0.7,1.8,1.8,2.5,3c0.5,0.8,0.9,1.6,1.4,2.4
					c0.2,0.3,0.3,0.6,0.4,1c0.5,2.1,1.1,4.1,1.1,6.4c0,0.1,0,0.2,0,0.3c0.4,1.2,0.3,2.6,0.5,3.8c0.1,0.6,0.2,1.2,0.3,1.8
					c0.5,2.5,1.1,5,1.7,7.5c0.2,1,0.3,2,0.6,3c0.2,0.7,0.3,1.5,0.5,2.3c0.2,0.7,0.5,1.4,0.8,2.3c-0.2,0-0.4,0.1-0.6,0.1
					s-0.5-0.1-0.7-0.1c-1.8-0.3-3.5,0.3-5,1.5c-0.5,0.4-1.1,0.8-1.6,1.2c-1.6,1.2-2.9,2.9-3.6,5.1c-0.3,0.8-0.5,1.6-0.8,2.5
					c-0.3,1.2-0.5,2.5-0.5,3.8c0,1.9-0.1,3.9,0.2,5.8c0.1,0.7,0.2,1.3,0.5,1.9c0.5,1.2,1,2.3,1.5,3.4c0,0,0,0.1,0.1,0.1
					c0.3,0.6,0.8,0.8,1.2,0.5c0.4-0.3,0.5-0.9,0.3-1.5c0,0,0-0.1-0.1-0.1c-0.8-1.1-0.7-2.5-0.7-3.9c0-1.8,0-3.6,0-5.3
					c0-2.4,0.6-4.6,1.5-6.7c0.4-1,1.1-1.7,1.8-2.3c0.6-0.5,1.2-1,1.9-1.5c2.3-2,4.5-1.6,6.5,0.6c0.2,0.2,0.3,0.4,0.4,0.6
					c0.9,1.2,1.7,2.4,2.5,3.6c0.5,0.8,0.9,1.7,1.4,2.6c0.8,1.6,1.7,3.2,2.4,4.9c0.9,1.9,2,3.7,2.7,5.8c0.3,0.9,0.6,1.8,0.5,2.9
					c0,0.4,0,0.8,0,1.3c0.1,1.1-0.1,2.2-0.5,3.2c-0.2,0.4-0.3,0.8-0.4,1.1c-0.5,1.5-2.2,3.5-3.3,4.3c-1.6,1.1-3.4,1.6-5.1,2.2
					c-0.1,0-0.2,0-0.2,0c-1.4,0.8-2.8,0.6-4.2,0.6c-1.4,0-2.8,0.1-4.2,0c-0.9-0.1-1.9-0.4-2.7-1.1c-0.5-0.4-1-0.7-1.5-1
					c-1.2-0.7-2.4-1.4-3.5-2.1c-0.6-0.4-1-1.1-1.3-1.9c-0.8-2.1-1.6-4.1-2.4-6.2c-0.4-1.1-1-2-1.7-2.9c-1.2-1.6-2.3-3.4-3.5-5.1
					c-0.2-0.3-0.4-0.7-0.4-1.1c-0.2-1.4-0.7-2.6-1.2-3.7c-1-2.1-2.1-4.1-3.4-5.9c-1.1-1.4-2.1-2.7-3.4-3.8c-0.3-0.2-0.5-0.6-0.8-1
					c-0.4-0.6-0.7-1.3-1.2-1.8c-1.3-1.7-2.6-3.4-3.8-5.1c-0.2-0.3-0.5-0.6-0.7-0.9c-0.3-0.3-0.6-0.2-0.9,0.1
					c-0.2,0.3-0.3,0.8-0.1,1.1c0.3,0.4,0.6,0.8,0.8,1.2c0.6,0.9,1.2,1.8,1.8,2.8c0.1,0.1,0.1,0.3,0.2,0.6c-1.3-0.3-2.6-0.3-3.8-0.9
					c-0.3-0.2-0.7-0.2-1.1-0.3c-1.7-0.3-3.3-0.7-4.9-1.2c-0.3-0.1-0.6-0.3-0.9,0.1c-0.1,0.1-0.3,0.1-0.4,0c-0.3-0.2-0.7-0.4-1-0.6
					c-0.9-0.6-1.7-1.2-2.6-1.8c-0.3-0.2-0.6-0.4-0.9-0.5c-0.6-0.2-1,0.4-0.9,1.2c0.1,0.3,0.2,0.6,0.3,0.8c0.2,0.4,0.5,0.8,0.7,1
					c1.7,1.6,3.5,3,5.7,3.6c0.3,0.1,0.6,0.2,0.8,0c0.7-0.4,1.5-0.2,2.2,0s1.4,0.5,2.2,0.6c0.9,0.2,1.9,0.3,2.8,0.5
					c0.2,0,0.3,0.1,0.6,0.1c-0.2,0.5-0.3,0.8-0.5,1.1c-1.1,2.2-1.1,4.5-0.6,6.9c0.3,1.3,0.9,2.4,1.8,3.2c1,0.8,2,1.8,3,2.8
					c-0.2,0.3-0.4,0.6-0.5,0.9c-0.1,0.2-0.3,0.4-0.2,0.5c0.3,0.8-0.2,1.1-0.5,1.6c-0.5,0.7-1,1.3-1.5,1.9c-0.7,0.9-1.4,1.8-1.9,2.9
					c-0.4,0.9-0.9,1.7-1.3,2.6c-0.5,1-0.9,2.1-0.9,3.3c0,0.8-0.3,1.5-0.4,2.3c-0.1,0.3-0.1,0.6-0.1,0.9c0,1.6,0.1,3.2,0.2,4.8
					c0,0.6,0.2,1.2,0.5,1.8c0.3,0.5,0.5,1.1,0.7,1.6c-0.4,0.9-1,1.4-1.8,1.7c-1.2,0.5-2.3,0.9-3.5,1.4c-1.9,0.8-1.7,0.2-2.5,2.7
					c-0.3,0.9-0.8,1.5-1.3,2c-1.2,1.1-2.1,2.4-3.1,3.8c-0.7,1-1,2.2-1,3.6c0.1,1.9,0,3.9,0.1,5.8c0,0.9,0.2,1.9,0.4,2.8
					c0.2,0.8,0.5,1.5,1.2,1.6c0.2,0,0.4,0.2,0.5,0.4c0.9,1,1.7,2,2.6,2.9c0.2,0.2,0.3,0.3,0.5,0.5c1,0.9,2,1.8,3.1,2.6
					c0.4,0.3,0.6,0.7,0.7,1.2C222.9,337.6,223,338.2,223.1,338.9z"/>
				<path class="st0" d="M270,346.8c-1.2,0-2.4,0-3.5-0.2c-1.2-0.2-2.5-0.4-3.6-1.3c-0.3-0.2-0.7-0.4-1-0.4c-0.7,0-1.3-0.3-1.9-0.6
					c-1.2-0.4-2.3-0.9-3.6-1c-1-0.1-2.1-0.6-3.1-1c-1.5-0.7-3-1.1-4.5-1.5c-1.1-0.3-2.2-0.8-3.3-1.1c-1-0.3-2-0.6-3-0.9
					c-0.5-0.1-1-0.3-1.4-0.4c-0.2-0.1-0.4-0.2-0.6-0.2c-0.7,0-1.4-0.3-2-0.4c-1.4-0.3-2.7-0.8-4-1.3c-0.1,0-0.2-0.1-0.4-0.1
					c-1.3-0.1-2.5-0.9-3.6-1.7c-1.1-0.8-2.3-1.5-3.4-2.1c-2.1-1-3.9-2.7-5.7-4.4c-0.8-0.7-1.4-1.5-1.7-2.7c-0.2-0.9-0.6-1.7-0.8-2.6
					c0-0.3-0.2-0.6-0.3-0.8c-0.4-0.5-0.5-1-0.5-1.7c0-0.2,0-0.3,0-0.5c0-2-0.1-2,1-3.4c0.4-0.5,0.9-1,1.3-1.4
					c0.3-0.3,0.6-0.6,0.9-0.9c0.9-1,1.8-1.5,3-1.4c1,0,2,0,2.9-0.5c0.3-0.1,0.6-0.2,1-0.2c0.9,0.1,1.7-0.3,2.5-0.7
					c0.4-0.2,0.8-0.4,1.2-0.5c0.5-0.1,1-0.3,1.4-0.3c0.8-0.1,1.6,0,2.3-0.1c0.8,0,1.6,0,2.4,0.3c0.3,0.1,0.6,0.1,1,0.1
					c0.6,0,1.1,0,1.7,0s1.1-0.1,1.7-0.3c0.8-0.3,1.7-0.4,2.5-0.1c0.6,0.1,1.1,0.1,1.7,0.2s1.3,0.1,1.9,0.5c0.3,0.2,0.8,0.2,1.2,0.2
					c2,0.1,4,0.3,6,0.9c1,0.3,2,0.3,2.9,0.4c0.5,0,1.1,0.1,1.5,0.4c0.6,0.4,1.2,0.5,1.8,0.5c1.6,0.1,3.3,0.1,4.9,0.2
					c0.6,0,1.1,0.1,1.7,0.4c0.7,0.3,1.4,0.7,2.1,0.7c0.2,0,0.4,0.1,0.6,0.3c0.8,1,1.9,1.3,2.8,1.9c1.8,1.1,3.6,2,5.4,3.1
					c0.8,0.5,1.5,1.2,2.3,1.9c0.1,0.1,0.3,0.3,0.3,0.4c0.8,1.5,1.5,3.1,1.6,5s0.2,3.9,0.3,5.8c0.1,0.9,0,1.9-0.2,2.8
					c-0.1,0.4-0.1,0.8-0.2,1.2c-0.1,0.5-0.2,1-0.4,1.4c-0.7,1.3-1.5,2.5-2.5,3.4c-1.1,1-2.2,1.8-3.3,2.6c-0.9,0.6-1.9,1.1-2.9,1.5
					C272.7,346.8,271.3,346.7,270,346.8z"/>
				<path class="st0" d="M237.1,281c1.2,0.1,2.5,0.1,3.7,0.2c0.8,0,1.5,0.5,1.9,1.4c1.5,3.3,3.5,6.2,5.2,9.4
					c0.8,1.6,1.8,3.1,2.6,4.7c0.5,1,1,2,1.5,3.1c0.2,0.6,0.5,1,1,1.3c1.1,0.6,2.2,1.1,3.3,1.7c0.2,0.1,0.4,0.1,0.6,0.3
					c0.8,0.9,1.8,0.8,2.8,0.8c1.4,0,2.9,0,4.3,0.1c0.2,0,0.3,0,0.5,0c0.7,0.1,1.4,0.2,2.1,0.3c1.5-0.6,3.2-0.6,4.6-1.5
					c0.9-0.6,1.8-0.6,2.7-0.8c2.1-0.5,4-1.5,5.4-3.6c0.6-0.8,1.1-1.7,1.2-2.8c0-0.3,0.1-0.5,0.2-0.7c0.5-0.9,0.5-1.8,0.5-2.8
					c0-1.3-0.1-2.6,0-3.9c0-0.6-0.1-1.2-0.3-1.8c-0.2-0.6-0.4-1.2-0.6-1.9c-0.1-0.3-0.3-0.7-0.4-0.9c-1.1-1.3-1.9-2.9-2.7-4.5
					c-0.7-1.3-1.3-2.8-1.9-4.2c-0.1-0.2-0.2-0.5-0.2-0.7c-0.3-1.1-0.6-2.3-0.9-3.5c0.1-0.5,0.4-0.9,0.7-1.3c0.2-0.2,0.4-0.4,0.6-0.4
					c0.6-0.1,1.3-0.3,1.9-0.3c1.2-0.1,2.5,0,3.7,0c1.1,0,2.2,0.3,3.3,0.7c0.8,0.3,1.6,0.6,2.4,0.9c0.7,0.2,1.4,0.4,2,0.5
					c0.6,0.2,1.1,0.3,1.7,0.5c0.4,0.1,0.9,0.4,1.3,0.4c1.1,0.2,1.9,1,2.5,2c1,1.5,1.7,3.3,2.5,5c0.6,1.2,0.5,2.5,0,3.8
					c-0.2,0.6-0.3,1.1-0.3,1.8c0,0.4,0,0.7,0,1.1c0,1.4,0.1,2.7-0.3,4s-0.2,2.7,0.3,3.9c0.3,0.7,0.6,1.5,0.9,2.2
					c0.5,1.2,0.9,2.4,0.9,3.9c0,0.9,0,1.9,0,2.8c0,0.6-0.1,1.1-0.5,1.5c-0.8,0.9-1.5,1.9-2.2,2.9c-0.3,0.3-0.5,0.6-1,0.6
					c-0.3,0-0.5,0.2-0.7,0.4c-0.3,0.3-0.5,0.6-0.8,1c-0.2,0-0.4,0-0.6,0c-0.4,0-0.8,0.2-1,0.7c-0.8,1.4-1.9,2.2-2.9,3.3
					c-0.1,0.1-0.3,0.2-0.4,0.3c-0.8,1-1.7,1.5-2.8,1.9c-0.8,0.3-1.6,0.6-2.4,0.7c-0.5,0.1-1.2,0-1.5-0.8c-0.4-1-1-1.3-1.9-1.5
					c-1-0.2-2-0.7-2.9-1.1c-0.2-0.1-0.4-0.2-0.6-0.3c-1-0.1-1.9-0.6-2.8-0.9c-0.8-0.3-1.5-0.4-2.3-0.4c-0.7,0-1.3,0-1.9-0.3
					s-1.3-0.3-1.9-0.2c-1.4,0.1-2.8,0.2-4.2,0.3c-0.9,0.1-1.8,0.1-2.7-0.2c-0.6-0.2-1.2-0.1-1.8,0c-1.4,0.2-2.8,0-4.2-0.1
					c-1.8-0.2-3.7-0.5-5.5-1c-0.6-0.2-1.1-0.3-1.6-0.6c-0.5-0.3-1-0.4-1.5-0.5c-1.9-0.1-3.6-0.7-5.4-1.2c-0.4-0.1-0.9-0.3-1.3-0.3
					c-1.7,0-3.4-0.7-5-1.5c-0.2-0.1-0.3-0.1-0.4-0.3c-0.7-1.2-1.7-2.2-1.9-3.8c-0.1-0.7-0.3-1.3-0.5-1.9c-0.7-1.9-1-4-0.7-6.1
					c0.1-0.8,0.6-1.6,0.9-2.4c0.6-1.6,1.5-2.8,2.4-4.1c0.5-0.6,0.9-1.2,1.1-2c0.2-0.6,0.5-1,1-1.4C236.1,282,236.5,281.5,237.1,281z
					"/>
				<path class="st0" d="M269,233.8c0.8-0.9,1.9-1,3-1.1c0.8-0.1,1.6-0.2,2.4-0.2c1.6-0.1,3.1-0.4,4.6-0.7c3-0.7,5.9-0.7,8.9,0.1
					c0.4,0.1,0.8,0.3,1.1,0.6c0.7,0.6,1.4,0.9,2.2,1.2c1,0.4,2,0.9,3,1.3c1.1,0.5,2,1.2,2.8,2.2c1.1,1.4,2.3,2.9,3.2,4.6
					c0.4,0.6,0.6,1.3,0.8,2.1c0.9,3.1,0.9,6.3,0.5,9.6c-0.1,0.7-0.2,1.3-0.4,2c-0.7,3.4-1.5,6.7-2.5,10c-0.1,0.2-0.1,0.4-0.1,0.6
					c0,1.1-0.5,2.6-1.1,3.6c-1.3-1.2-2.9-1.5-4.4-2.4c-0.4-0.3-0.9-0.4-1.4-0.7c-1-0.7-2.1-0.9-3.2-0.9c-0.2,0-0.5,0-0.7-0.1
					c-0.9-0.4-1.8-0.4-2.8-0.5c-1.5-0.2-3.1-0.1-4.6-0.4c-0.9-0.2-1.9-0.1-2.8,0.1c-1.6,0.3-3-0.1-4.4-0.8c-0.7-0.3-1.3-0.7-1.7-1.5
					c-0.1-0.1-0.1-0.3-0.2-0.4c-1.2-1-1.7-2.6-2.4-4.1c-0.3-0.6-0.5-1.2-0.7-1.8c-0.7-1.9-1-4-1.5-5.9c-0.3-1.3-0.6-2.7-1-4
					c-0.3-1-0.4-2-0.5-3.1c-0.1-2.3-0.1-4.7-0.2-7c0-0.7,0.2-1.2,0.5-1.6c0.7-0.8,1.5-1.2,2.5-0.8
					C268.4,233.5,268.7,233.7,269,233.8z"/>
				<path class="st0" d="M452.3,289.8c1.1-0.2,1.9,0.2,2.8,0.7c0.5,0.3,1.1,0.5,1.6,0.6c0.8,0.2,1.7,0.5,2.4,1
					c0.2,0.1,0.4,0.4,0.7,0.4c1.6,0.4,2.9,1.5,4.4,2.1c0.1,0,0.1,0.1,0.3,0.2c0,0.5,0.1,1,0.1,1.6c0.2,5.3,0.4,10.6,0.5,16
					c0.1,6.3,0.2,12.6,0.2,18.9c0,2.1-0.1,4.2-0.2,6.3c0,0.5-0.1,1.1-0.3,1.5c-0.9,2.4-1.8,4.8-2.8,7.1c-1.1,2.9-2.5,5.6-4,8.2
					c-1.5,2.5-2.9,5.1-4.4,7.7c-2.1,3.6-4.1,7.2-6.4,10.6c-0.2,0.3-0.4,0.6-0.7,0.9c-0.3,0.3-0.6,0.5-0.9,0.7
					c-1.4-0.4-2.4-1.7-3.6-2.4c0.4-1.2,0.7-2.4,1.1-3.5c0.8-2.6,1.6-5.3,2.3-7.9c1-3.7,1.9-7.4,2.8-11.2c0.7-2.9,1.3-5.9,1.8-8.9
					c0.4-2.2,0.6-4.5,0.8-6.8c0.4-4.2,0.8-8.5,1.2-12.7c0.1-1.3,0.2-2.7,0.2-4.1c0.1-3.6,0.4-7.3,0.4-10.9c0-4.4-0.1-8.8-0.2-13.1
					C452.4,291.8,452.4,290.9,452.3,289.8z"/>
				<path class="st0" d="M118.5,300.7c0.2-0.2,0.3-0.3,0.5-0.4c0.7-0.3,1.4-0.6,2.1-0.8c2.5-0.8,5-1.7,7.6-2.8
					c-0.1,0.9-0.2,1.5-0.3,2.2c-0.3,2.6-0.7,5.2-1,7.9c-0.4,4.1-0.7,8.2-1,12.3c-0.1,1.7-0.2,3.4-0.2,5.1c-0.1,2.1-0.2,4.3-0.2,6.4
					c0,2.2,0,4.4,0,6.6c0,2.6,0,5.2,0.1,7.8c0,3.1,0.1,6.2,0.1,9.4c0,2,0.1,4,0.3,5.9c0,0.2,0,0.4-0.1,0.8c-0.2-0.3-0.3-0.5-0.3-0.6
					c-1.7-5.3-3.3-10.7-5-16c-1.2-3.7-2.2-7.5-2.9-11.3c-0.4-2.3-0.7-4.6-1-6.9c-0.2-1.5,0-3,0-4.5c0.1-3.5,0.2-7,0.5-10.5
					C117.8,307.7,118.2,304.2,118.5,300.7z"/>
				<path class="st0" d="M130.9,392.7c-1.9,0.6-3.8,1.1-5.6,1.7c-1.2,0.4-2.3,0.9-3.5,1.4c-0.5,0.2-1,0.4-1.6,0.6
					c-0.1-0.5-0.3-0.8-0.3-1.2c-0.7-5.6-1.3-11.1-2-16.7c-0.5-3.9-0.9-7.7-1-11.7c-0.1-2.9-0.1-5.8-0.1-8.8c0-2.6,0-5.1,0-7.7
					c0-0.2,0.1-0.4,0.2-0.8c0.2,0.4,0.3,0.6,0.4,0.8c1.2,3.9,2.4,7.8,3.6,11.6c1.6,5,3.1,10.1,5.1,14.9c1.2,3.1,2.2,6.4,3.2,9.7
					c0.6,1.8,1.1,3.6,1.6,5.4C130.9,392.3,130.9,392.5,130.9,392.7z"/>
				<path class="st0" d="M143,388.2c-1.1,0.3-2.2,0.6-3.2,1s-2,0.9-3,1.4c-0.1-0.4-0.3-0.6-0.3-0.9c-0.5-2.4-0.9-4.8-1.3-7.2
					c-0.7-4.2-1.5-8.5-2.1-12.7c-0.4-2.5-0.7-5-1-7.6c-0.2-1.4-0.4-2.9-0.5-4.3c-0.1-1.7-0.1-3.4-0.1-5.2
					c-0.1-6.1-0.1-12.1-0.2-18.2c0-0.6,0-1.1,0.1-1.8c0.1,0.5,0.3,1,0.4,1.5c1.7,9,3.3,18,5,27c0.5,2.7,1.2,5.4,1.8,8.1
					c0.7,3.3,1.4,6.5,2.2,9.8c0.6,2.3,1.2,4.7,1.8,7C142.7,386.8,142.8,387.5,143,388.2z"/>
				<path class="st0" d="M461,385.2c-0.8-0.3-1.3-0.8-1.9-1.3c-0.5-0.4-1-0.7-1.5-1.1c-1.5-1.1-3-2.2-4.6-3.3
					c-0.2-0.1-0.4-0.4-0.6-0.6c0.2-0.4,0.4-0.7,0.6-1c1.6-2.3,2.8-5,4-7.6c1.6-3.3,3.2-6.5,4.7-9.8c0.6-1.3,1.3-2.7,1.9-4
					c0.4,0.1,0.3,0.5,0.3,0.7c-0.2,3-0.5,5.9-0.7,8.9c-0.2,3.5-0.6,6.9-1.1,10.4c-0.2,1.9-0.5,3.9-0.7,5.9c-0.1,0.8-0.2,1.5-0.3,2.3
					C461.2,384.9,461.1,385,461,385.2z"/>
				<path class="st0" d="M469.6,297.7c2,0.7,3.6,2.1,5.4,3.1c-0.2,3.1-3,15.3-4.3,19.1c-0.1-0.3-0.1-0.4-0.1-0.6
					c-0.1-2.9-0.2-5.7-0.3-8.6c-0.1-1.9-0.2-3.8-0.3-5.8c-0.1-2.3-0.3-4.6-0.4-6.9C469.5,298,469.6,297.9,469.6,297.7z"/>
				<path class="st0" d="M231.7,266.5c2,0.2,3.6,1.5,4.5,3.7c0.3,0.6,0.6,1.2,1,1.8c0.7,1.1,0.5,2.9-0.5,3.7
					c-0.1,0.1-0.4,0.1-0.6,0.1c-0.4,0-0.7-0.2-1.1-0.2c-0.7,0-1.2-0.3-1.7-0.8c-0.6-0.6-1.2-1.2-1.7-1.7c-0.4-0.4-0.6-0.9-0.7-1.4
					c-0.1-1.6-0.2-3.2,0.5-4.7C231.5,266.8,231.6,266.6,231.7,266.5z"/>
				<path class="st0" d="M325.1,409.2c0.2,0,0.3,0,0.5,0v0.1c-0.2,0-0.3,0-0.5,0C325.1,409.2,325.1,409.2,325.1,409.2z"/>
			</g>
		</g>
		<g>
			<g>
				<path class="st0" d="M272.4,193.4c-1.6-3.7-3-7.3-5.1-10.6c-3.2-5-12-5.5-11.6,2.4c0.1,2.7,2,4,3.6,3.6c0.2,0.2,0.4,0.4,0.6,0.6
					c1.3,1.4,2,4.1,2.7,6.2c1.8,4.9,4.7,13.4,10,12.5c1.3-0.2,2.7-1.1,2.9-2.9C276.2,200.7,274,197.2,272.4,193.4z"/>
				<path class="st0" d="M304.8,166.4c-0.8-3.4-4.7-3.4-5.4,0.1c-1.8,9-0.9,18.7-2.5,27.8c-0.7,4,3.8,6.6,5.3,2.8
					C305.8,187.9,307,176.4,304.8,166.4z"/>
				<path class="st0" d="M347.4,179.4c-3,4.4-6.3,8.4-9.4,12.6c-1.7,2.3-3.3,4.7-4.9,7.1c-1.1,1.7-2.6,5.8-4.3,6.6
					c-3.9,1.8-3.4,9.9,1.1,9.7c5.6-0.2,8.8-7.1,12-11.9c4-6,7.5-12.4,11-18.8C355.1,180.6,349.9,175.7,347.4,179.4z"/>
				<path class="st0" d="M379.4,218.6c-2.9,0.7-5.3,1.7-7.9,3.5c-2.8,1.9-5.4,3.5-8.6,4.2c-4.5,1-2.8,9,1.1,9.4
					c3.8,0.4,7-0.8,10.4-2.9c3.2-2,5.3-5.1,7.7-8.3C384.3,221.8,382.1,218,379.4,218.6z"/>
			</g>
		</g>
	</g>
	<g>
		<g>
			<g>
				<path class="st0" d="M545.3,331.9c0.8-0.1,1.6-0.3,2.4-0.3c2-0.2,3.9-0.8,5.8-1.2c1.9-0.4,3.9-0.8,5.8-1.3c2-0.5,4-1,6-1.7
					c1.2-0.5,2.4-0.8,3.6-1.2c1.2-0.4,2.4-0.9,3.6-1.3c1.4-0.5,2.8-0.9,4.3-1.2c1.8-0.4,3.6-0.9,5.4-1.2c2.2-0.4,4.4-0.8,6.7-1.2
					c1.1-0.2,2.3-0.2,3.4-0.3c2-0.3,4.1-0.5,6-1.2c2.3-0.7,4.5-1.2,6.8-1.9c1.3-0.4,2.6-0.8,3.9-1.2c1.8-0.6,3.6-1.2,5.4-1.8
					c1.9-0.6,3.9-1.3,5.8-1.9c2.6-0.8,5.1-1.7,7.7-2.3c2.6-0.6,5.3-1.3,7.9-2c1.2-0.3,2.5-0.5,3.7-0.8c0.7-0.2,1.4-0.4,2.2-0.6
					c1.8-0.5,3.7-1,5.5-1.5c1.4-0.4,2.9-0.8,4.3-1.3c1.2-0.4,2.4-0.8,3.6-1.2c0,0.6,0,1.1,0,1.5c0,2.4,0.2,4.7,0.4,7
					c0.2,3.4,0.6,6.7,1,10.1c0.2,1.3,0.3,2.6,0.4,3.9c0.1,1.1,0.1,2.3,0.1,3.4c0,4.1,0,8.2,0,12.4c0,5.8-0.1,11.7-0.1,17.5
					c0,2,0,4,0,5.9c0.1,2,0.2,4.1,0.3,6.1c0.2,2.5,0.5,5,0.7,7.5c0.4,3.6,0.8,7.1,1.3,10.7c0.4,2.8,0.8,5.7,1.2,8.5
					c0,0.1,0,0.3,0,0.5c-0.6,0.3-1.2,0.4-1.8,0.6c-1.4,0.4-2.9,0.8-4.3,1.2c-1.7,0.5-3.5,1.1-5.2,1.7c-1.9,0.7-3.8,1.4-5.6,2.4
					c-1.4,0.8-2.9,1.4-4.4,2c-1.3,0.6-2.6,1.1-3.9,1.8c-1.6,0.9-3.3,1.5-5,2.2c-2.2,0.9-4.3,1.8-6.5,2.9c-2,1-4,1.9-6.1,2.6
					c-1.6,0.6-3.1,1.2-4.7,1.8c-1.5,0.6-3,1.2-4.6,1.6c-0.7,0.2-1.4,0.4-2.1,0.7c-2,0.8-4,1.6-6.1,2.4c-1.3,0.5-2.6,0.8-3.9,1.3
					c-1.4,0.5-2.8,1.1-4.2,1.7c-1.6,0.7-3.2,1.4-4.9,2c-2,0.8-4.1,1.6-6.1,2.4s-4,1.6-5.9,2.6c-1.2,0.6-2.3,1.2-3.5,1.9
					c-1.4,0.8-2.8,1.7-4.2,2.5c-1.4,0.8-2.8,1.5-4.2,2.2c-0.9,0.5-1.8,1-2.7,1.3c-2.6,1-5,2.4-7.5,3.9c-1.3,0.8-2.6,1.5-3.9,2.2
					c-0.4,0.2-0.7,0.4-1.1,0.6c-0.5,0.2-1,0.7-1.6,0.5C546.2,409,545.7,370.5,545.3,331.9z"/>
				<path class="st0" d="M1090.6,450.1c-0.6-0.1-1-0.6-1.5-1c-0.2-0.2-0.4-0.5-0.7-0.7c-1.4-1-2.8-2.1-4.3-3.1
					c-1.8-1.3-3.6-2.7-5.4-4c-0.4-0.3-0.8-0.7-1.3-0.9c-0.9-0.5-1.7-1.2-2.5-2c-0.3-0.4-0.7-0.7-1.1-0.9c-0.8-0.5-1.6-1.2-2.3-1.9
					c-0.4-0.4-0.8-0.7-1.2-1c0,0-0.1,0-0.1-0.1c-0.9-0.6-1.6-1.6-2.5-2.3c-0.9-0.7-1.8-1.3-2.6-2.1c-0.4-0.4-0.8-0.7-1.2-1.1
					c-0.1-0.1-0.2-0.1-0.3-0.2c-0.8-0.8-1.6-1.6-2.5-2.3c-0.9-0.7-1.8-1.3-2.6-2.2c-0.3-0.3-0.7-0.6-1-0.9c0,0-0.1,0-0.1-0.1
					c-1.7-1.5-3.4-2.9-5.1-4.4c-0.4-0.3-0.7-0.6-1.1-0.9c-0.1-0.1-0.3-0.2-0.4-0.3c-1.5-1.5-3.2-2.6-4.8-4.1
					c-0.3-0.3-0.6-0.5-0.9-0.8c-0.1-0.1-0.2-0.1-0.2-0.1c-1.7-1.4-3.4-2.8-5.2-4.2c-0.4-0.3-0.8-0.6-1.1-0.9
					c-0.1-0.1-0.2-0.1-0.3-0.2c-0.8-0.7-1.6-1.5-2.4-2.1c-0.9-0.6-1.7-1.2-2.5-1.9c-1.4-1.2-2.8-2.2-4.2-3.3c0,0-0.1,0-0.1-0.1
					c-0.9-0.6-1.7-1.3-2.6-1.8c-0.9-0.5-1.7-1.2-2.6-1.8c-1.3-0.9-2.7-1.8-4-2.7c-0.8-0.6-1.7-1.1-2.5-1.7c-1.4-1-2.8-1.8-4.3-2.7
					c-0.5-0.3-1-0.6-1.5-0.9c0-0.4-0.1-0.8,0-1.1c0.5-2.9,0.9-5.8,1.2-8.8c0.2-2.4,0.6-4.7,0.8-7.1c0.3-2.6,0.5-5.3,0.7-7.9
					c0.2-2.6,0.4-5.3,0.6-7.9s0.4-5.2,0.5-7.8c0.1-2.3,0.2-4.7,0.4-7c0-0.4,0.1-0.7,0.2-1c0.7-2.1,1.5-4.3,2.3-6.4
					c0.5-1.3,0.9-2.7,1.2-4.1c0.2-1,0.6-1.9,1-2.9c0.2-0.6,0.4-1.1,0.3-1.8c0-0.4,0.1-0.9,0.2-1.4c0.8-3.4,1.7-6.7,2.4-10.1
					c0.6-2.7,1-5.5,1.6-8.2c0.1-0.3,0.2-0.6,0.3-0.9c1.1,0.7,2,1.5,3.1,2.1c0.8,0.5,1.7,1,2.6,1.4c2.2,1.1,4.3,2.1,6.5,3.2
					c1.4,0.7,2.8,1.4,4.2,2.1c1.4,0.8,2.8,1.6,4.3,2.4c2.1,1.2,4.2,2.4,6.3,3.6c0.5,0.3,1,0.5,1.5,0.7c1.8,0.5,3.4,1.7,5.2,2.5
					c0.8,0.4,1.6,0.7,2.3,1c0.9,0.4,1.7,0.7,2.5,1.2c2,1.1,4,2.3,6,3.4s4,2.5,5.9,3.8c1.2,0.8,2.3,1.7,3.4,2.5
					c1.4,1,2.7,1.9,4.1,2.8c0.7,0.5,1.4,1,2.2,1.5c0.7,0.4,1.4,0.7,2.2,1.1c0.6,0.3,1.3,0.6,2,0.9
					C1089.8,377,1090.2,413.6,1090.6,450.1z"/>
				<path class="st0" d="M849.2,400.8c0-1-0.1-2.1,0-3.1c0.1-1.8,0.7-3.3,1.9-4.3c0.3-0.2,0.5-0.5,0.6-0.9c0.5-1.5,1.4-2.6,2.4-3.5
					c2.2-1.9,4.5-3.3,7.1-4c0.4-0.1,0.8-0.3,1.2-0.4c1.6-0.5,3.3-0.8,5-0.7c1.9,0.1,3.8,0,5.8,0.1c0.8,0,1.5,0.1,2.3,0.2
					c1,0.1,2,0.3,3,0.4c0.8,0.1,1.6,0.2,2.3,0.3c1,0.2,1.9,0.3,2.9,0.2c1.4-0.1,2.8-0.3,4.2-0.1c0.2,0,0.3,0,0.5,0.1
					c1.6,0.6,3.2,0.5,4.9,0.9c0.5,0.1,1,0.1,1.5,0c0.6-0.1,1.1-0.2,1.7,0.1c0.2,0.1,0.5,0.1,0.6-0.3c0-0.1-0.1-0.2-0.1-0.2
					c-0.6-0.2-1.3-0.3-1.9-0.4c-1.4-0.3-2.7-0.5-4.1-0.8c-1.2-0.2-2.4-0.4-3.6-0.6c-0.7-0.1-1.5-0.3-2.2-0.4
					c-1.2-0.2-2.3-0.5-3.5-0.7s-2.4-0.4-3.6-0.6c-0.8-0.1-1.6-0.3-2.4-0.4c-1.1-0.2-2.3-0.5-3.4-0.7c-0.9-0.1-1.8-0.1-2.7-0.1
					c-0.3,0-0.6,0.1-0.9,0.1c-2.2-0.1-4.3,0.5-6.5,0.9c-2.5,0.4-4.9,1.3-7.2,2.3c-1.3,0.6-2.6,1.1-4,1.6c-0.8,0.3-1.6,0.5-2.4,0.5
					c-2.3,0-4.6,0-6.9-0.2c-1.6-0.1-3.1-0.6-4.6-1.1c-1.2-0.4-2.3-0.7-3.5-1.1c-1.2-0.3-2.3-0.8-3.4-1.4c-0.4-0.2-0.7-0.4-1.1-0.7
					c-0.1-0.1-0.3-0.2-0.4-0.3c-1.2-1.2-2.4-2.4-3-4.2c-0.2-0.4-0.3-0.8-0.5-1.3c-0.3-0.7-0.4-1.5-0.5-2.2c0-0.6-0.1-1.3-0.3-1.8
					c-0.7-2.2-0.9-4.6-1.2-6.9c-0.1-1,0.2-4.3,0.5-5.2c0.4-0.9,0.7-1.8,1.1-2.8c0.2-0.4,0.3-0.7,0.5-1.1c0.3-0.8,0.7-1.5,1.3-2.1
					c0.4-0.4,0.7-0.7,0.8-1.3c0.2-0.6,0.6-1.1,1-1.5c0.5-0.5,0.9-1.2,1.2-1.9c0.8-1.5,1.8-2.8,3.1-3.7c0.7-0.5,1.4-1.1,2-1.7
					c0.2-0.2,0.3-0.4,0.5-0.7c0.2-0.4,0.4-0.8,0.6-1.2c0-1.7-0.5-3.3-0.9-5c-0.2-1-0.5-2-0.7-3c-0.2-1.1-0.3-2.3-0.3-3.4
					c-0.1-2.1-0.1-4.3,0-6.4c0.1-1.8,0.3-3.6,1-5.3c0.6-1.3,1.3-2.4,2.2-3.2c1-0.9,2.1-1.9,3.1-2.7c1.2-1,2.4-2.2,3.4-3.5
					c0.8-1,1.5-2.1,2.3-3c0.5-0.6,0.6-1.2,0.6-1.9c0-0.5,0-1,0.1-1.4c0.3-1.2,0-2.3-0.6-3.2c-0.9-1.4-1.1-3-1.4-4.6
					c-0.1-0.4-0.1-0.8-0.1-1.2c0-1.1-0.1-2.3,0-3.4c0.1-2.1,0.4-4.1,1.6-5.8c0.7-0.9,1.2-2,2.1-2.5c0.2-0.1,0.3-0.5,0.4-0.7
					c0.3-1.1,0.4-2.2,0.1-3.2c-0.4-1.7-0.5-3.5-0.5-5.3c0-1.1,0-2.2,0-3.3c-0.1-1.7,0.1-3.2,0.5-4.8c0.5-1.9,1-3.8,1.8-5.6
					c0.6-1.5,1.6-2.5,2.6-3.4c0.4-0.4,0.9-0.7,1.1-1.4c0.4-0.9,1-1.5,1.7-1.9c1.7-0.9,3.3-1.7,5.1-2.2c0.9-0.3,1.8-0.8,2.6-1.2
					c0.2-0.1,0.4-0.3,0.7-0.3c1.7-0.4,3.4-0.8,5-1.2h0.1c1.6-0.4,3.2-0.3,4.9-0.6c0.2,0,0.5-0.1,0.7-0.1c1.2,0.2,2.4-0.1,3.7-0.1
					c0.3,0,0.6,0,0.9-0.1c2.1-0.4,4.2-0.4,6.4-0.3c2.2,0.1,4.3,0.4,6.5,0.8c0.7,0.1,1.4,0.3,2.2,0.6c3,1,5.9,2.1,8.9,3.1
					c1.3,0.4,2.6,0.9,3.9,1.2c1.4,0.3,2.8,0.5,4.2,0.8c1.1,0.2,2.2,0.6,3.3,0.9c1.9,0.7,3.9,1.3,5.8,2.1c0.9,0.4,1.8,0.6,2.8,0.7
					h0.1c1.6,0.5,3.2,0.9,4.8,1.4c1.1,0.3,2.2,0.6,3.2,0.9c1.1,0.3,2.2,0.7,3.3,1c0.5,0.1,1,0.2,1.4,0.4c0.6,0.2,1.1,0.3,1.7,0.5
					c1.7,0.8,3.4,1.5,5.1,2.1c0.9,0.4,1.9,0.6,2.8,1c1.3,0.4,2.7,0.9,4,1.4c1.1,0.4,2.1,0.7,3.2,1.2c1.4,0.6,2.8,1.1,4.2,1.7
					c1,0.5,2,0.9,3,1.3c1.4,0.6,2.8,1.3,4.1,2c0.9,0.5,1.9,0.9,2.8,1.4c1.4,0.8,2.8,1.4,4.2,2.3c0.9,0.5,1.7,0.9,2.6,1.4
					c1.5,0.9,3,1.7,4.4,2.7c0.8,0.5,1.6,1,2.4,1.6c1.3,0.9,2.7,1.8,4,2.6c0.2,0.1,0.4,0.3,0.5,0.4c0.9,1,1.9,1.7,2.9,2.4
					c1,0.8,2.1,1.3,3.3,1.6c0.4,0.1,0.9,0.2,1.3,0.4c0.2,0.1,0.3,0.2,0.5,0.3c0,1.7,0,3.4-0.1,5.1c-0.1,4.2-0.1,8.3-0.3,12.5
					c-0.1,3.6-0.4,7.3-0.7,10.9c-0.4,4.4-0.7,8.7-1.2,13c-0.4,3.7-0.8,7.4-1.6,11.1c-0.6,3-1.3,5.9-2,8.9c-0.9,3.6-1.8,7.1-2.8,10.7
					c-0.6,2.4-1.4,4.7-2.1,7c-0.1,0.3-0.2,0.6-0.4,0.9c-0.4-0.1-0.7-0.2-1-0.3c-2.3-1.1-4.5-2.2-6.8-3.3c-0.5-0.3-1.1-0.5-1.6-0.7
					c-0.6-0.2-1.3-0.3-1.9-0.1c-0.7,0.2-1.4,0.2-2.1,0.3c-0.4,0.1-0.7,0.3-0.9,0.7c-0.6,0.8-1.2,1.6-1.7,2.4
					c-1.4,2.1-2.9,4.2-4.3,6.4c-2,3.2-4,6.4-5.5,10.1c-0.2,0.5-0.4,1.2-0.5,1.8c-0.2,1.6-0.8,3-1.4,4.5c-0.2,0.6-0.7,1.2-1.2,1.6
					c-0.9,0.8-1.9,1.4-2.9,2c-1,0.7-2.1,1-3.2,1.4c-0.5,0.2-1.1,0.3-1.7,0.5c-1.7,0.5-3.3,1.2-4.9,1.9c-1.3,0.5-2.6,0.9-3.9,1.4
					c-1.3,0.5-2.7,1-4,1.5c-1.5,0.6-3,1.1-4.4,1.7c-1.1,0.4-2.2,0.8-3.2,1.4c-0.9,0.5-1.9,0.9-2.9,1.2c-1.6,0.4-2.9,1.2-4.3,2.2
					c-0.7,0.5-1.5,1.1-2.3,1.5c-0.4,0.3-0.9,0.4-1.4,0.5c-2.7,0.3-5.3,1-7.9,1.9c-1.2,0.4-2.5,0.7-3.7,1c-0.3,0.1-0.7,0.2-1,0.1
					c-1.3-0.4-2.7-0.5-3.9-1.2c-1.1-0.6-2.3-0.9-3.4-1.2c-1.3-0.3-2.6-0.7-4-1.1c-1.4-0.4-2.8-0.8-4.2-1.2c-1.7-0.5-3.5-0.4-5.3-0.3
					c-1.8,0.2-3.6,0.4-5.4,0.6c-0.8,0.1-1.5,0.1-2.3,0.1c-2,0-3.9,0-5.9,0c-3.4,0-6.7,0.1-10.1,0c-2.1,0-4.1-0.9-5.8-2.7
					c-0.8-0.9-1.5-1.7-1.9-3C849.7,401.6,849.4,401.3,849.2,400.8z"/>
				<path class="st0" d="M768.4,338.9c-1.3,0.9-2,2.3-2.6,3.8c-0.5,1.3-1.3,2.5-2.1,3.6c-0.8,1-1.4,2.1-2,3.4
					c-0.2,0.5-0.4,1-0.7,1.5c-0.6,1-0.7,2.2-0.8,3.4c0,0.9,0,1.8,0,2.7c0,0.4,0.1,0.8,0.3,1.1c0.4,0.6,0.7,1.1,1.1,1.7
					c1.1,1.9,2.5,3.3,4,4.7c0.6,0.6,1.2,1.1,1.8,1.7c1.9,1.9,3.9,3.3,6.3,3.8c1.3,0.3,2.4,0.9,3.6,1.5c1.5,0.7,2.9,1.6,4.5,2.2
					c0.9,0.4,1.8,0.8,2.5,1.6c0.9,0.9,2,1.6,2.8,3c1.4,0.3,2.6,1.2,3.4,2.9c0.8,1.7,0.8,3.4,0.5,5.3c0.4,0.3,0.7,0.5,1,0.7
					c0.7,0.5,1.3,0.6,2.1,0.2c0.4-0.2,0.9-0.3,1.4-0.3c0.4-0.1,0.7,0,1.2,0c0.1-0.4,0.3-0.8,0.4-1.2c0.3-0.9,0.6-1.8,1.2-2.5
					c0.6-0.7,0.7-1.5,0.5-2.6c-0.5-2.2-1.6-3.2-3.4-2.9c-0.4,0.1-0.7,0-1.1-0.2c-3.1-2.2-6.4-3.7-9.8-4.9c-1.5-0.5-3-1.2-4.4-1.8
					c-0.4-0.2-0.8-0.3-1.2-0.5c-1.5-0.5-2.8-1.6-4.2-2.6c-1.1-0.8-2.2-1.6-3.3-2.4c-0.2-0.2-0.5-0.2-0.8-0.3c-1-0.4-2-0.9-2.9-1.8
					c-0.7-0.7-1.4-1.6-1.9-2.7c-0.2-0.4-0.3-0.7-0.5-1.1c-1.4-0.6-1.4-0.6-1.4-2.4c0-0.9,0-1.9-0.1-2.8c0-0.5,0.1-1,0.3-1.5
					c0.4-0.7,0.6-1.5,1-2.1c0.3-0.6,0.7-1.2,1-1.7c1.1-1.7,2.1-3.4,2.8-5.6c0.2-0.1,0.5-0.3,0.8-0.4c1.1-0.4,2.3-0.9,3.4-1.3
					c0.8-0.3,1.7-0.4,2.5-0.6c1.2-0.3,2.5-0.4,3.8-0.6c0.7-0.1,1.4-0.1,2.1-0.1c1.2,0,2.4-0.1,3.7,0c0.6,0,1.1,0.2,1.7,0.4
					c0.5,0.2,0.9,0.3,1.4,0.2c0.6,0,1.2,0,1.7,0.2c2.9,0.9,5.8,1.7,8.7,2.6c1.6,0.5,3.2,1.1,4.9,1.6c0.2,0.1,0.5,0.2,0.7,0.2
					c1.8,0.1,3.4,0.9,5.1,1.8c0.1,0,0.2,0.1,0.2,0.1c0.6,0.3,1.3,0.5,1.8,0.9s1,0.9,1.5,1.4c1.1,1.3,2.2,2.5,2.7,4.4
					c0.5,2,1,4,0.9,6.1c0,0.8,0,1.7,0,2.5c0,1.6-0.2,3.1-0.6,4.6c-0.2,0.6-0.3,1.2-0.3,1.8c0,0.4,0,0.7-0.1,1.1
					c-0.2,0.8-0.3,1.7-0.4,2.6s-0.3,1.7-0.5,2.6c-0.2,1.1-0.4,2.2-0.7,3.3c-0.1,0.6-0.3,1.3-0.6,1.9c-1,2.1-1.7,4.2-2.3,6.5
					c-0.2,0.6-0.5,1.1-0.9,1.5c-0.7,0.7-1.3,1.5-2.1,2.1c-0.3,0.2-0.5,0.6-0.7,0.9c-0.7,1.5-1.8,2.5-3.2,3c-0.9,0.3-1.8,0.8-2.6,1.2
					c-0.7,0.4-1.4,0.7-2.1,0.6c-0.4,0-0.7,0.2-1,0.5c-0.7,0.6-1.4,1.3-2.1,1.8c-0.6,0.5-1.3,0.8-2,0.8c-1.2,0-2.4,0.4-3.6,0.8
					c-1.2,0.5-2.5,0.7-3.7,1.1c-0.9,0.3-1.8,0.4-2.8,0.7c-1.7,0.5-3.3,1-5.1,1.1c-1.6,0.1-3.3,0.2-4.9,0.2c-1.9,0.1-3.8-0.4-5.7-0.5
					c-1.8-0.1-3.5-0.2-5.3-0.1c-0.8,0-1.5-0.1-2.3-0.2s-1.5-0.2-2.3-0.3c-0.5-0.1-1.1-0.2-1.6-0.2c-2.1,0-4.2-0.6-6.3-0.9
					c-1.6-0.2-3.3-0.4-4.9-0.6c-0.9-0.1-1.9-0.2-2.8-0.4c-1.6-0.3-3.1-0.6-4.7-0.9c-1.1-0.2-2.3-0.5-3.4-0.7
					c-1.2-0.2-2.4-0.5-3.6-0.7c-2.2-0.5-4.4-0.9-6.6-1.5c-2-0.5-4.1-0.7-6.1-0.9c-1.7-0.2-3.4-0.4-5.1-0.6c-1.5-0.2-3.1-0.5-4.6-0.8
					c-1.9-0.5-3.8-1-5.8-1.6c-2.7-0.8-5.3-2.1-7.9-3.2c-0.5-0.2-1-0.6-1.5-0.9c-0.6-2.1-1.1-4.3-1.7-6.4c-1.6-6-2.9-12.2-4.2-18.3
					c-2-8.7-3.5-17.5-5.2-26.3c-0.7-3.7-1.3-7.4-2-11.1c-0.2-1-0.3-2-0.3-2.9c-0.4-4.3-0.8-8.5-1-12.8c-0.3-3.8-0.4-7.6-0.6-11.4
					c0-0.5,0-0.9,0.1-1.4c0.3-1.5,0.6-2.9,0.9-4.4c0.1-0.6,0.4-0.9,0.9-1.2c2.2-1.2,4.3-2.5,6.5-3.7c1.2-0.7,2.4-1.2,3.7-1.8
					c0.4-0.2,0.7-0.4,1-0.9c0.7-1,1.4-2,2-3.1c0.4-0.7,0.7-1.4,1-2.2c0.8-1.9,1.8-3.6,2.8-5.3c1.1-2,2.3-4,3.4-5.9
					c1.3-2.1,2.7-4.3,4.4-6.1c0.9-1,1.7-2.1,2.6-3.1c1.5-1.7,3-3.5,4.6-5.1c1.4-1.5,2.9-2.8,4.2-4.2c0.6-0.6,1.1-1.4,1.6-2.2
					c1.1-1.5,2.2-3.1,3.3-4.6s2.2-2.9,3.3-4.3c1.2-1.5,2.4-2.9,3.6-4.4c0.6-0.7,1.2-1.4,1.8-2.1c0.7-0.8,1.5-1.6,2.3-2.4
					c1.8-1.8,3.5-3.5,5.3-5.2c0.6-0.6,1.3-1.2,2-1.8c2.2-1.7,4.4-3.4,6.6-5.1c0.8-0.6,1.6-0.9,2.4-1.4c1.4-0.8,2.8-1.2,4.3-1.1
					c1.1,0.1,2.3-0.3,3.4-0.5c2.7-0.7,5.5-0.8,8.3-0.8c0.5,0,1,0,1.5,0c2.7-0.1,5.2,0.6,7.7,1.7c0.8,0.3,1.6,0.7,2.4,1.1
					c0.6,0.2,1.2,0.5,1.8,0.7c0.2,0.1,0.4,0.1,0.6,0.2c2.2,1.4,4.6,2.2,6.9,3.4c0.6,0.3,1.2,0.5,1.8,0.9c1.4,0.9,2.8,1.3,4.3,1.5
					c1.7,0.3,3.5,0.6,5.2,1c0.7,0.2,1.4,0.4,2.2,0.4c0.9,0,1.7,0.5,2.5,1.1c1,0.7,1.8,1.8,2.5,3c0.5,0.8,0.9,1.6,1.4,2.4
					c0.2,0.3,0.3,0.6,0.4,1c0.5,2.1,1.1,4.1,1.1,6.4c0,0.1,0,0.2,0,0.3c0.4,1.2,0.3,2.6,0.5,3.8c0.1,0.6,0.2,1.2,0.3,1.8
					c0.5,2.5,1.1,5,1.7,7.5c0.2,1,0.3,2,0.6,3c0.2,0.7,0.3,1.5,0.5,2.3c0.2,0.7,0.5,1.4,0.8,2.3c-0.2,0-0.4,0.1-0.6,0.1
					c-0.2,0-0.5-0.1-0.7-0.1c-1.8-0.3-3.5,0.3-5,1.5c-0.5,0.4-1.1,0.8-1.6,1.2c-1.6,1.2-2.9,2.9-3.6,5.1c-0.3,0.8-0.5,1.6-0.8,2.5
					c-0.3,1.2-0.5,2.5-0.5,3.8c0,1.9-0.1,3.9,0.2,5.8c0.1,0.7,0.2,1.3,0.5,1.9c0.5,1.2,1,2.3,1.5,3.4c0,0,0,0.1,0.1,0.1
					c0.3,0.6,0.8,0.8,1.2,0.5s0.5-0.9,0.3-1.5c0,0,0-0.1-0.1-0.1c-0.8-1.1-0.7-2.5-0.7-3.9c0-1.8,0-3.6,0-5.3c0-2.4,0.6-4.6,1.5-6.7
					c0.4-1,1.1-1.7,1.8-2.3c0.6-0.5,1.2-1,1.9-1.5c2.3-2,4.5-1.6,6.5,0.6c0.2,0.2,0.3,0.4,0.4,0.6c0.9,1.2,1.7,2.4,2.5,3.6
					c0.5,0.8,0.9,1.7,1.4,2.6c0.8,1.6,1.7,3.2,2.4,4.9c0.9,1.9,2,3.7,2.7,5.8c0.3,0.9,0.6,1.8,0.5,2.9c0,0.4,0,0.8,0,1.3
					c0.1,1.1-0.1,2.2-0.5,3.2c-0.2,0.4-0.3,0.8-0.4,1.1c-0.5,1.5-2.2,3.5-3.3,4.3c-1.6,1.1-3.4,1.6-5.1,2.2c-0.1,0-0.2,0-0.2,0
					c-1.4,0.8-2.8,0.6-4.2,0.6c-1.4,0-2.8,0.1-4.2,0c-0.9-0.1-1.9-0.4-2.7-1.1c-0.5-0.4-1-0.7-1.5-1c-1.2-0.7-2.4-1.4-3.5-2.1
					c-0.6-0.4-1-1.1-1.3-1.9c-0.8-2.1-1.6-4.1-2.4-6.2c-0.4-1.1-1-2-1.7-2.9c-1.2-1.6-2.3-3.4-3.5-5.1c-0.2-0.3-0.4-0.7-0.4-1.1
					c-0.2-1.4-0.7-2.6-1.2-3.7c-1-2.1-2.1-4.1-3.4-5.9c-1.1-1.4-2.1-2.7-3.4-3.8c-0.3-0.2-0.5-0.6-0.8-1c-0.4-0.6-0.7-1.3-1.2-1.8
					c-1.3-1.7-2.6-3.4-3.8-5.1c-0.2-0.3-0.5-0.6-0.7-0.9c-0.3-0.3-0.6-0.2-0.9,0.1c-0.2,0.3-0.3,0.8-0.1,1.1
					c0.3,0.4,0.6,0.8,0.8,1.2c0.6,0.9,1.2,1.8,1.8,2.8c0.1,0.1,0.1,0.3,0.2,0.6c-1.3-0.3-2.6-0.3-3.8-0.9c-0.3-0.2-0.7-0.2-1.1-0.3
					c-1.7-0.3-3.3-0.7-4.9-1.2c-0.3-0.1-0.6-0.3-0.9,0.1c-0.1,0.1-0.3,0.1-0.4,0c-0.3-0.2-0.7-0.4-1-0.6c-0.9-0.6-1.7-1.2-2.6-1.8
					c-0.3-0.2-0.6-0.4-0.9-0.5c-0.6-0.2-1,0.4-0.9,1.2c0.1,0.3,0.2,0.6,0.3,0.8c0.2,0.4,0.5,0.8,0.7,1c1.7,1.6,3.5,3,5.7,3.6
					c0.3,0.1,0.6,0.2,0.8,0c0.7-0.4,1.5-0.2,2.2,0c0.7,0.2,1.4,0.5,2.2,0.6c0.9,0.2,1.9,0.3,2.8,0.5c0.2,0,0.3,0.1,0.6,0.1
					c-0.2,0.5-0.3,0.8-0.5,1.1c-1.1,2.2-1.1,4.5-0.6,6.9c0.3,1.3,0.9,2.4,1.8,3.2c1,0.8,2,1.8,3,2.8c-0.2,0.3-0.4,0.6-0.5,0.9
					c-0.1,0.2-0.3,0.4-0.2,0.5c0.3,0.8-0.2,1.1-0.5,1.6c-0.5,0.7-1,1.3-1.5,1.9c-0.7,0.9-1.4,1.8-1.9,2.9c-0.4,0.9-0.9,1.7-1.3,2.6
					c-0.5,1-0.9,2.1-0.9,3.3c0,0.8-0.3,1.5-0.4,2.3c-0.1,0.3-0.1,0.6-0.1,0.9c0,1.6,0.1,3.2,0.2,4.8c0,0.6,0.2,1.2,0.5,1.8
					c0.3,0.5,0.5,1.1,0.7,1.6c-0.4,0.9-1,1.4-1.8,1.7c-1.2,0.5-2.3,0.9-3.5,1.4c-1.9,0.8-1.7,0.2-2.5,2.7c-0.3,0.9-0.8,1.5-1.3,2
					c-1.2,1.1-2.1,2.4-3.1,3.8c-0.7,1-1,2.2-1,3.6c0.1,1.9,0,3.9,0.1,5.8c0,0.9,0.2,1.9,0.4,2.8c0.2,0.8,0.5,1.5,1.2,1.6
					c0.2,0,0.4,0.2,0.5,0.4c0.9,1,1.7,2,2.6,2.9c0.2,0.2,0.3,0.3,0.5,0.5c1,0.9,2,1.8,3.1,2.6c0.4,0.3,0.6,0.7,0.7,1.2
					C768.2,337.6,768.3,338.2,768.4,338.9z"/>
				<path class="st0" d="M815.3,346.8c-1.2,0-2.4,0-3.5-0.2c-1.2-0.2-2.5-0.4-3.6-1.3c-0.3-0.2-0.7-0.4-1-0.4
					c-0.7,0-1.3-0.3-1.9-0.6c-1.2-0.4-2.3-0.9-3.6-1c-1-0.1-2.1-0.6-3.1-1c-1.5-0.7-3-1.1-4.5-1.5c-1.1-0.3-2.2-0.8-3.3-1.1
					c-1-0.3-2-0.6-3-0.9c-0.5-0.1-1-0.3-1.4-0.4c-0.2-0.1-0.4-0.2-0.6-0.2c-0.7,0-1.4-0.3-2-0.4c-1.4-0.3-2.7-0.8-4-1.3
					c-0.1,0-0.2-0.1-0.4-0.1c-1.3-0.1-2.5-0.9-3.6-1.7c-1.1-0.8-2.3-1.5-3.4-2.1c-2.1-1-3.9-2.7-5.7-4.4c-0.8-0.7-1.4-1.5-1.7-2.7
					c-0.2-0.9-0.6-1.7-0.8-2.6c0-0.3-0.2-0.6-0.3-0.8c-0.4-0.5-0.5-1-0.5-1.7c0-0.2,0-0.3,0-0.5c0-2-0.1-2,1-3.4
					c0.4-0.5,0.9-1,1.3-1.4c0.3-0.3,0.6-0.6,0.9-0.9c0.9-1,1.8-1.5,3-1.4c1,0,2,0,2.9-0.5c0.3-0.1,0.6-0.2,1-0.2
					c0.9,0.1,1.7-0.3,2.5-0.7c0.4-0.2,0.8-0.4,1.2-0.5c0.5-0.1,1-0.3,1.4-0.3c0.8-0.1,1.6,0,2.3-0.1c0.8,0,1.6,0,2.4,0.3
					c0.3,0.1,0.6,0.1,1,0.1c0.6,0,1.1,0,1.7,0c0.6,0,1.1-0.1,1.7-0.3c0.8-0.3,1.7-0.4,2.5-0.1c0.6,0.1,1.1,0.1,1.7,0.2
					c0.6,0.1,1.3,0.1,1.9,0.5c0.3,0.2,0.8,0.2,1.2,0.2c2,0.1,4,0.3,6,0.9c1,0.3,2,0.3,2.9,0.4c0.5,0,1.1,0.1,1.5,0.4
					c0.6,0.4,1.2,0.5,1.8,0.5c1.6,0.1,3.3,0.1,4.9,0.2c0.6,0,1.1,0.1,1.7,0.4c0.7,0.3,1.4,0.7,2.1,0.7c0.2,0,0.4,0.1,0.6,0.3
					c0.8,1,1.9,1.3,2.8,1.9c1.8,1.1,3.6,2,5.4,3.1c0.8,0.5,1.5,1.2,2.3,1.9c0.1,0.1,0.3,0.3,0.3,0.4c0.8,1.5,1.5,3.1,1.6,5
					s0.2,3.9,0.3,5.8c0.1,0.9,0,1.9-0.2,2.8c-0.1,0.4-0.1,0.8-0.2,1.2c-0.1,0.5-0.2,1-0.4,1.4c-0.7,1.3-1.5,2.5-2.5,3.4
					c-1.1,1-2.2,1.8-3.3,2.6c-0.9,0.6-1.9,1.1-2.9,1.5C818,346.8,816.6,346.7,815.3,346.8z"/>
				<path class="st0" d="M782.4,281c1.2,0.1,2.5,0.1,3.7,0.2c0.8,0,1.5,0.5,1.9,1.4c1.5,3.3,3.5,6.2,5.2,9.4
					c0.8,1.6,1.8,3.1,2.6,4.7c0.5,1,1,2,1.5,3.1c0.2,0.6,0.5,1,1,1.3c1.1,0.6,2.2,1.1,3.3,1.7c0.2,0.1,0.4,0.1,0.6,0.3
					c0.8,0.9,1.8,0.8,2.8,0.8c1.4,0,2.9,0,4.3,0.1c0.2,0,0.3,0,0.5,0c0.7,0.1,1.4,0.2,2.1,0.3c1.5-0.6,3.2-0.6,4.6-1.5
					c0.9-0.6,1.8-0.6,2.7-0.8c2.1-0.5,4-1.5,5.4-3.6c0.6-0.8,1.1-1.7,1.2-2.8c0-0.3,0.1-0.5,0.2-0.7c0.5-0.9,0.5-1.8,0.5-2.8
					c0-1.3-0.1-2.6,0-3.9c0-0.6-0.1-1.2-0.3-1.8c-0.2-0.6-0.4-1.2-0.6-1.9c-0.1-0.3-0.3-0.7-0.4-0.9c-1.1-1.3-1.9-2.9-2.7-4.5
					c-0.7-1.3-1.3-2.8-1.9-4.2c-0.1-0.2-0.2-0.5-0.2-0.7c-0.3-1.1-0.6-2.3-0.9-3.5c0.1-0.5,0.4-0.9,0.7-1.3c0.2-0.2,0.4-0.4,0.6-0.4
					c0.6-0.1,1.3-0.3,1.9-0.3c1.2-0.1,2.5,0,3.7,0c1.1,0,2.2,0.3,3.3,0.7c0.8,0.3,1.6,0.6,2.4,0.9c0.7,0.2,1.4,0.4,2,0.5
					c0.6,0.2,1.1,0.3,1.7,0.5c0.4,0.1,0.9,0.4,1.3,0.4c1.1,0.2,1.9,1,2.5,2c1,1.5,1.7,3.3,2.5,5c0.6,1.2,0.5,2.5,0,3.8
					c-0.2,0.6-0.3,1.1-0.3,1.8c0,0.4,0,0.7,0,1.1c0,1.4,0.1,2.7-0.3,4c-0.4,1.3-0.2,2.7,0.3,3.9c0.3,0.7,0.6,1.5,0.9,2.2
					c0.5,1.2,0.9,2.4,0.9,3.9c0,0.9,0,1.9,0,2.8c0,0.6-0.1,1.1-0.5,1.5c-0.8,0.9-1.5,1.9-2.2,2.9c-0.3,0.3-0.5,0.6-1,0.6
					c-0.3,0-0.5,0.2-0.7,0.4c-0.3,0.3-0.5,0.6-0.8,1c-0.2,0-0.4,0-0.6,0c-0.4,0-0.8,0.2-1,0.7c-0.8,1.4-1.9,2.2-2.9,3.3
					c-0.1,0.1-0.3,0.2-0.4,0.3c-0.8,1-1.7,1.5-2.8,1.9c-0.8,0.3-1.6,0.6-2.4,0.7c-0.5,0.1-1.2,0-1.5-0.8c-0.4-1-1-1.3-1.9-1.5
					c-1-0.2-2-0.7-2.9-1.1c-0.2-0.1-0.4-0.2-0.6-0.3c-1-0.1-1.9-0.6-2.8-0.9c-0.8-0.3-1.5-0.4-2.3-0.4c-0.7,0-1.3,0-1.9-0.3
					c-0.6-0.3-1.3-0.3-1.9-0.2c-1.4,0.1-2.8,0.2-4.2,0.3c-0.9,0.1-1.8,0.1-2.7-0.2c-0.6-0.2-1.2-0.1-1.8,0c-1.4,0.2-2.8,0-4.2-0.1
					c-1.8-0.2-3.7-0.5-5.5-1c-0.6-0.2-1.1-0.3-1.6-0.6c-0.5-0.3-1-0.4-1.5-0.5c-1.9-0.1-3.6-0.7-5.4-1.2c-0.4-0.1-0.9-0.3-1.3-0.3
					c-1.7,0-3.4-0.7-5-1.5c-0.2-0.1-0.3-0.1-0.4-0.3c-0.7-1.2-1.7-2.2-1.9-3.8c-0.1-0.7-0.3-1.3-0.5-1.9c-0.7-1.9-1-4-0.7-6.1
					c0.1-0.8,0.6-1.6,0.9-2.4c0.6-1.6,1.5-2.8,2.4-4.1c0.5-0.6,0.9-1.2,1.1-2c0.2-0.6,0.5-1,1-1.4C781.4,282,781.8,281.5,782.4,281z
					"/>
				<path class="st0" d="M814.3,233.8c0.8-0.9,1.9-1,3-1.1c0.8-0.1,1.6-0.2,2.4-0.2c1.6-0.1,3.1-0.4,4.6-0.7c3-0.7,5.9-0.7,8.9,0.1
					c0.4,0.1,0.8,0.3,1.1,0.6c0.7,0.6,1.4,0.9,2.2,1.2c1,0.4,2,0.9,3,1.3c1.1,0.5,2,1.2,2.8,2.2c1.1,1.4,2.3,2.9,3.2,4.6
					c0.4,0.6,0.6,1.3,0.8,2.1c0.9,3.1,0.9,6.3,0.5,9.6c-0.1,0.7-0.2,1.3-0.4,2c-0.7,3.4-1.5,6.7-2.5,10c-0.1,0.2-0.1,0.4-0.1,0.6
					c0,1.1-0.5,2.6-1.1,3.6c-1.3-1.2-2.9-1.5-4.4-2.4c-0.4-0.3-0.9-0.4-1.4-0.7c-1-0.7-2.1-0.9-3.2-0.9c-0.2,0-0.5,0-0.7-0.1
					c-0.9-0.4-1.8-0.4-2.8-0.5c-1.5-0.2-3.1-0.1-4.6-0.4c-0.9-0.2-1.9-0.1-2.8,0.1c-1.6,0.3-3-0.1-4.4-0.8c-0.7-0.3-1.3-0.7-1.7-1.5
					c-0.1-0.1-0.1-0.3-0.2-0.4c-1.2-1-1.7-2.6-2.4-4.1c-0.3-0.6-0.5-1.2-0.7-1.8c-0.7-1.9-1-4-1.5-5.9c-0.3-1.3-0.6-2.7-1-4
					c-0.3-1-0.4-2-0.5-3.1c-0.1-2.3-0.1-4.7-0.2-7c0-0.7,0.2-1.2,0.5-1.6c0.7-0.8,1.5-1.2,2.5-0.8
					C813.7,233.5,814,233.7,814.3,233.8z"/>
				<path class="st0" d="M997.6,289.8c1.1-0.2,1.9,0.2,2.8,0.7c0.5,0.3,1.1,0.5,1.6,0.6c0.8,0.2,1.7,0.5,2.4,1
					c0.2,0.1,0.4,0.4,0.7,0.4c1.6,0.4,2.9,1.5,4.4,2.1c0.1,0,0.1,0.1,0.3,0.2c0,0.5,0.1,1,0.1,1.6c0.2,5.3,0.4,10.6,0.5,16
					c0.1,6.3,0.2,12.6,0.2,18.9c0,2.1-0.1,4.2-0.2,6.3c0,0.5-0.1,1.1-0.3,1.5c-0.9,2.4-1.8,4.8-2.8,7.1c-1.1,2.9-2.5,5.6-4,8.2
					c-1.5,2.5-2.9,5.1-4.4,7.7c-2.1,3.6-4.1,7.2-6.4,10.6c-0.2,0.3-0.4,0.6-0.7,0.9s-0.6,0.5-0.9,0.7c-1.4-0.4-2.4-1.7-3.6-2.4
					c0.4-1.2,0.7-2.4,1.1-3.5c0.8-2.6,1.6-5.3,2.3-7.9c1-3.7,1.9-7.4,2.8-11.2c0.7-2.9,1.3-5.9,1.8-8.9c0.4-2.2,0.6-4.5,0.8-6.8
					c0.4-4.2,0.8-8.5,1.2-12.7c0.1-1.3,0.2-2.7,0.2-4.1c0.1-3.6,0.4-7.3,0.4-10.9c0-4.4-0.1-8.8-0.2-13.1
					C997.7,291.8,997.7,290.9,997.6,289.8z"/>
				<path class="st0" d="M663.8,300.7c0.2-0.2,0.3-0.3,0.5-0.4c0.7-0.3,1.4-0.6,2.1-0.8c2.5-0.8,5-1.7,7.6-2.8
					c-0.1,0.9-0.2,1.5-0.3,2.2c-0.3,2.6-0.7,5.2-1,7.9c-0.4,4.1-0.7,8.2-1,12.3c-0.1,1.7-0.2,3.4-0.2,5.1c-0.1,2.1-0.2,4.3-0.2,6.4
					c0,2.2,0,4.4,0,6.6c0,2.6,0,5.2,0.1,7.8c0,3.1,0.1,6.2,0.1,9.4c0,2,0.1,4,0.3,5.9c0,0.2,0,0.4-0.1,0.8c-0.2-0.3-0.3-0.5-0.3-0.6
					c-1.7-5.3-3.3-10.7-5-16c-1.2-3.7-2.2-7.5-2.9-11.3c-0.4-2.3-0.7-4.6-1-6.9c-0.2-1.5,0-3,0-4.5c0.1-3.5,0.2-7,0.5-10.5
					C663.1,307.7,663.5,304.2,663.8,300.7z"/>
				<path class="st0" d="M676.2,392.7c-1.9,0.6-3.8,1.1-5.6,1.7c-1.2,0.4-2.3,0.9-3.5,1.4c-0.5,0.2-1,0.4-1.6,0.6
					c-0.1-0.5-0.3-0.8-0.3-1.2c-0.7-5.6-1.3-11.1-2-16.7c-0.5-3.9-0.9-7.7-1-11.7c-0.1-2.9-0.1-5.8-0.1-8.8c0-2.6,0-5.1,0-7.7
					c0-0.2,0.1-0.4,0.2-0.8c0.2,0.4,0.3,0.6,0.4,0.8c1.2,3.9,2.4,7.8,3.6,11.6c1.6,5,3.1,10.1,5.1,14.9c1.2,3.1,2.2,6.4,3.2,9.7
					c0.6,1.8,1.1,3.6,1.6,5.4C676.2,392.3,676.2,392.5,676.2,392.7z"/>
				<path class="st0" d="M688.3,388.2c-1.1,0.3-2.2,0.6-3.2,1s-2,0.9-3,1.4c-0.1-0.4-0.3-0.6-0.3-0.9c-0.5-2.4-0.9-4.8-1.3-7.2
					c-0.7-4.2-1.5-8.5-2.1-12.7c-0.4-2.5-0.7-5-1-7.6c-0.2-1.4-0.4-2.9-0.5-4.3c-0.1-1.7-0.1-3.4-0.1-5.2
					c-0.1-6.1-0.1-12.1-0.2-18.2c0-0.6,0-1.1,0.1-1.8c0.1,0.5,0.3,1,0.4,1.5c1.7,9,3.3,18,5,27c0.5,2.7,1.2,5.4,1.8,8.1
					c0.7,3.3,1.4,6.5,2.2,9.8c0.6,2.3,1.2,4.7,1.8,7C688,386.8,688.1,387.5,688.3,388.2z"/>
				<path class="st0" d="M1006.3,385.2c-0.8-0.3-1.3-0.8-1.9-1.3c-0.5-0.4-1-0.7-1.5-1.1c-1.5-1.1-3-2.2-4.6-3.3
					c-0.2-0.1-0.4-0.4-0.6-0.6c0.2-0.4,0.4-0.7,0.6-1c1.6-2.3,2.8-5,4-7.6c1.6-3.3,3.2-6.5,4.7-9.8c0.6-1.3,1.3-2.7,1.9-4
					c0.4,0.1,0.3,0.5,0.3,0.7c-0.2,3-0.5,5.9-0.7,8.9c-0.2,3.5-0.6,6.9-1.1,10.4c-0.2,1.9-0.5,3.9-0.7,5.9c-0.1,0.8-0.2,1.5-0.3,2.3
					C1006.5,384.9,1006.4,385,1006.3,385.2z"/>
				<path class="st0" d="M1014.9,297.7c2,0.7,3.6,2.1,5.4,3.1c-0.2,3.1-3,15.3-4.3,19.1c-0.1-0.3-0.1-0.4-0.1-0.6
					c-0.1-2.9-0.2-5.7-0.3-8.6c-0.1-1.9-0.2-3.8-0.3-5.8c-0.1-2.3-0.3-4.6-0.4-6.9C1014.8,298,1014.9,297.9,1014.9,297.7z"/>
				<path class="st0" d="M777,266.5c2,0.2,3.6,1.5,4.5,3.7c0.3,0.6,0.6,1.2,1,1.8c0.7,1.1,0.5,2.9-0.5,3.7c-0.1,0.1-0.4,0.1-0.6,0.1
					c-0.4,0-0.7-0.2-1.1-0.2c-0.7,0-1.2-0.3-1.7-0.8c-0.6-0.6-1.2-1.2-1.7-1.7c-0.4-0.4-0.6-0.9-0.7-1.4c-0.1-1.6-0.2-3.2,0.5-4.7
					C776.8,266.8,776.9,266.6,777,266.5z"/>
				<path class="st0" d="M870.4,409.2c0.2,0,0.3,0,0.5,0v0.1c-0.2,0-0.3,0-0.5,0C870.4,409.2,870.4,409.2,870.4,409.2z"/>
			</g>
		</g>
		<g>
			<g>
				<path class="st1" d="M817.7,193.4c-1.6-3.7-3-7.3-5.1-10.6c-3.2-5-12-5.5-11.6,2.4c0.1,2.7,2,4,3.6,3.6c0.2,0.2,0.4,0.4,0.6,0.6
					c1.3,1.4,2,4.1,2.7,6.2c1.8,4.9,4.7,13.4,10,12.5c1.3-0.2,2.7-1.1,2.9-2.9C821.5,200.7,819.3,197.2,817.7,193.4z"/>
				<path class="st1" d="M850.1,166.4c-0.8-3.4-4.7-3.4-5.4,0.1c-1.8,9-0.9,18.7-2.5,27.8c-0.7,4,3.8,6.6,5.3,2.8
					C851.1,187.9,852.3,176.4,850.1,166.4z"/>
				<path class="st1" d="M892.7,179.4c-3,4.4-6.3,8.4-9.4,12.6c-1.7,2.3-3.3,4.7-4.9,7.1c-1.1,1.7-2.6,5.8-4.3,6.6
					c-3.9,1.8-3.4,9.9,1.1,9.7c5.6-0.2,8.8-7.1,12-11.9c4-6,7.5-12.4,11-18.8C900.4,180.6,895.2,175.7,892.7,179.4z"/>
				<path class="st1" d="M924.7,218.6c-2.9,0.7-5.3,1.7-7.9,3.5c-2.8,1.9-5.4,3.5-8.6,4.2c-4.5,1-2.8,9,1.1,9.4
					c3.8,0.4,7-0.8,10.4-2.9c3.2-2,5.3-5.1,7.7-8.3C929.6,221.8,927.4,218,924.7,218.6z"/>
			</g>
		</g>
	</g>
</g>
<g id="Layer_2" class="st2">
	<g class="st3">
		<g>
			<g>
				<defs>
					<polygon id="SVGID_1_" points="1353,533.7 433,629.4 360.3,-69.7 916.8,-127.5 					"/>
				</defs>
				<clipPath id="SVGID_2_">
					<use xlink:href="#SVGID_1_"  style="overflow:visible;"/>
				</clipPath>
				<g class="st4">
					<path class="st0" d="M544.7,331.9c0.8-0.1,1.6-0.3,2.4-0.3c2-0.2,3.9-0.8,5.8-1.2c1.9-0.4,3.9-0.8,5.8-1.3c2-0.5,4-1,6-1.7
						c1.2-0.5,2.4-0.8,3.6-1.2c1.2-0.4,2.4-0.9,3.6-1.3c1.4-0.5,2.8-0.9,4.3-1.2c1.8-0.4,3.6-0.9,5.4-1.2c2.2-0.4,4.4-0.8,6.7-1.2
						c1.1-0.2,2.3-0.2,3.4-0.3c2-0.3,4.1-0.5,6-1.2c2.3-0.7,4.5-1.2,6.8-1.9c1.3-0.4,2.6-0.8,3.9-1.2c1.8-0.6,3.6-1.2,5.4-1.8
						c1.9-0.6,3.9-1.3,5.8-1.9c2.6-0.8,5.1-1.7,7.7-2.3c2.6-0.6,5.3-1.3,7.9-2c1.2-0.3,2.5-0.5,3.7-0.8c0.7-0.2,1.4-0.4,2.2-0.6
						c1.8-0.5,3.7-1,5.5-1.5c1.4-0.4,2.9-0.8,4.3-1.3c1.2-0.4,2.4-0.8,3.6-1.2c0,0.6,0,1.1,0,1.5c0,2.4,0.2,4.7,0.4,7
						c0.2,3.4,0.6,6.7,1,10.1c0.2,1.3,0.3,2.6,0.4,3.9c0.1,1.1,0.1,2.3,0.1,3.4c0,4.1,0,8.2,0,12.4c0,5.8-0.1,11.7-0.1,17.5
						c0,2,0,4,0,5.9c0.1,2,0.2,4.1,0.3,6.1c0.2,2.5,0.5,5,0.7,7.5c0.4,3.6,0.8,7.1,1.3,10.7c0.4,2.8,0.8,5.7,1.2,8.5
						c0,0.1,0,0.3,0,0.5c-0.6,0.3-1.2,0.4-1.8,0.6c-1.4,0.4-2.9,0.8-4.3,1.2c-1.7,0.5-3.5,1.1-5.2,1.7c-1.9,0.7-3.8,1.4-5.6,2.4
						c-1.4,0.8-2.9,1.4-4.4,2c-1.3,0.6-2.6,1.1-3.9,1.8c-1.6,0.9-3.3,1.5-5,2.2c-2.2,0.9-4.3,1.8-6.5,2.9c-2,1-4,1.9-6.1,2.6
						c-1.6,0.6-3.1,1.2-4.7,1.8c-1.5,0.6-3,1.2-4.6,1.6c-0.7,0.2-1.4,0.4-2.1,0.7c-2,0.8-4,1.6-6.1,2.4c-1.3,0.5-2.6,0.8-3.9,1.3
						c-1.4,0.5-2.8,1.1-4.2,1.7c-1.6,0.7-3.2,1.4-4.9,2c-2,0.8-4.1,1.6-6.1,2.4s-4,1.6-5.9,2.6c-1.2,0.6-2.3,1.2-3.5,1.9
						c-1.4,0.8-2.8,1.7-4.2,2.5c-1.4,0.8-2.8,1.5-4.2,2.2c-0.9,0.5-1.8,1-2.7,1.3c-2.6,1-5,2.4-7.5,3.9c-1.3,0.8-2.6,1.5-3.9,2.2
						c-0.4,0.2-0.7,0.4-1.1,0.6c-0.5,0.2-1,0.7-1.6,0.5C545.6,409,545.1,370.5,544.7,331.9z"/>
					<path class="st0" d="M1090,450.1c-0.6-0.1-1-0.6-1.5-1c-0.2-0.2-0.4-0.5-0.7-0.7c-1.4-1-2.8-2.1-4.3-3.1
						c-1.8-1.3-3.6-2.7-5.4-4c-0.4-0.3-0.8-0.7-1.3-0.9c-0.9-0.5-1.7-1.2-2.5-2c-0.3-0.4-0.7-0.7-1.1-0.9c-0.8-0.5-1.6-1.2-2.3-1.9
						c-0.4-0.4-0.8-0.7-1.2-1c0,0-0.1,0-0.1-0.1c-0.9-0.6-1.6-1.6-2.5-2.3c-0.9-0.7-1.8-1.3-2.6-2.1c-0.4-0.4-0.8-0.7-1.2-1.1
						c-0.1-0.1-0.2-0.1-0.3-0.2c-0.8-0.8-1.6-1.6-2.5-2.3c-0.9-0.7-1.8-1.3-2.6-2.2c-0.3-0.3-0.7-0.6-1-0.9c0,0-0.1,0-0.1-0.1
						c-1.7-1.5-3.4-2.9-5.1-4.4c-0.4-0.3-0.7-0.6-1.1-0.9c-0.1-0.1-0.3-0.2-0.4-0.3c-1.5-1.5-3.2-2.6-4.8-4.1
						c-0.3-0.3-0.6-0.5-0.9-0.8c-0.1-0.1-0.2-0.1-0.2-0.1c-1.7-1.4-3.4-2.8-5.2-4.2c-0.4-0.3-0.8-0.6-1.1-0.9
						c-0.1-0.1-0.2-0.1-0.3-0.2c-0.8-0.7-1.6-1.5-2.4-2.1c-0.9-0.6-1.7-1.2-2.5-1.9c-1.4-1.2-2.8-2.2-4.2-3.3c0,0-0.1,0-0.1-0.1
						c-0.9-0.6-1.7-1.3-2.6-1.8c-0.9-0.5-1.7-1.2-2.6-1.8c-1.3-0.9-2.7-1.8-4-2.7c-0.8-0.6-1.7-1.1-2.5-1.7c-1.4-1-2.8-1.8-4.3-2.7
						c-0.5-0.3-1-0.6-1.5-0.9c0-0.4-0.1-0.8,0-1.1c0.5-2.9,0.9-5.8,1.2-8.8c0.2-2.4,0.6-4.7,0.8-7.1c0.3-2.6,0.5-5.3,0.7-7.9
						c0.2-2.6,0.4-5.3,0.6-7.9s0.4-5.2,0.5-7.8c0.1-2.3,0.2-4.7,0.4-7c0-0.4,0.1-0.7,0.2-1c0.7-2.1,1.5-4.3,2.3-6.4
						c0.5-1.3,0.9-2.7,1.2-4.1c0.2-1,0.6-1.9,1-2.9c0.2-0.6,0.4-1.1,0.3-1.8c0-0.4,0.1-0.9,0.2-1.4c0.8-3.4,1.7-6.7,2.4-10.1
						c0.6-2.7,1-5.5,1.6-8.2c0.1-0.3,0.2-0.6,0.3-0.9c1.1,0.7,2,1.5,3.1,2.1c0.8,0.5,1.7,1,2.6,1.4c2.2,1.1,4.3,2.1,6.5,3.2
						c1.4,0.7,2.8,1.4,4.2,2.1c1.4,0.8,2.8,1.6,4.3,2.4c2.1,1.2,4.2,2.4,6.3,3.6c0.5,0.3,1,0.5,1.5,0.7c1.8,0.5,3.4,1.7,5.2,2.5
						c0.8,0.4,1.6,0.7,2.3,1c0.9,0.4,1.7,0.7,2.5,1.2c2,1.1,4,2.3,6,3.4s4,2.5,5.9,3.8c1.2,0.8,2.3,1.7,3.4,2.5
						c1.4,1,2.7,1.9,4.1,2.8c0.7,0.5,1.4,1,2.2,1.5c0.7,0.4,1.4,0.7,2.2,1.1c0.6,0.3,1.3,0.6,2,0.9
						C1089.2,377,1089.6,413.6,1090,450.1z"/>
					<path class="st0" d="M848.6,400.8c0-1-0.1-2.1,0-3.1c0.1-1.8,0.7-3.3,1.9-4.3c0.3-0.2,0.5-0.5,0.6-0.9c0.5-1.5,1.4-2.6,2.4-3.5
						c2.2-1.9,4.5-3.3,7.1-4c0.4-0.1,0.8-0.3,1.2-0.4c1.6-0.5,3.3-0.8,5-0.7c1.9,0.1,3.8,0,5.8,0.1c0.8,0,1.5,0.1,2.3,0.2
						c1,0.1,2,0.3,3,0.4c0.8,0.1,1.6,0.2,2.3,0.3c1,0.2,1.9,0.3,2.9,0.2c1.4-0.1,2.8-0.3,4.2-0.1c0.2,0,0.3,0,0.5,0.1
						c1.6,0.6,3.2,0.5,4.9,0.9c0.5,0.1,1,0.1,1.5,0c0.6-0.1,1.1-0.2,1.7,0.1c0.2,0.1,0.5,0.1,0.6-0.3c0-0.1-0.1-0.2-0.1-0.2
						c-0.6-0.2-1.3-0.3-1.9-0.4c-1.4-0.3-2.7-0.5-4.1-0.8c-1.2-0.2-2.4-0.4-3.6-0.6c-0.7-0.1-1.5-0.3-2.2-0.4
						c-1.2-0.2-2.3-0.5-3.5-0.7c-1.2-0.2-2.4-0.4-3.6-0.6c-0.8-0.1-1.6-0.3-2.4-0.4c-1.1-0.2-2.3-0.5-3.4-0.7
						c-0.9-0.1-1.8-0.1-2.7-0.1c-0.3,0-0.6,0.1-0.9,0.1c-2.2-0.1-4.3,0.5-6.5,0.9c-2.5,0.4-4.9,1.3-7.2,2.3c-1.3,0.6-2.6,1.1-4,1.6
						c-0.8,0.3-1.6,0.5-2.4,0.5c-2.3,0-4.6,0-6.9-0.2c-1.6-0.1-3.1-0.6-4.6-1.1c-1.2-0.4-2.3-0.7-3.5-1.1c-1.2-0.3-2.3-0.8-3.4-1.4
						c-0.4-0.2-0.7-0.4-1.1-0.7c-0.1-0.1-0.3-0.2-0.4-0.3c-1.2-1.2-2.4-2.4-3-4.2c-0.2-0.4-0.3-0.8-0.5-1.3
						c-0.3-0.7-0.4-1.5-0.5-2.2c0-0.6-0.1-1.3-0.3-1.8c-0.7-2.2-0.9-4.6-1.2-6.9c-0.1-1,0.2-4.3,0.5-5.2c0.4-0.9,0.7-1.8,1.1-2.8
						c0.2-0.4,0.3-0.7,0.5-1.1c0.3-0.8,0.7-1.5,1.3-2.1c0.4-0.4,0.7-0.7,0.8-1.3c0.2-0.6,0.6-1.1,1-1.5c0.5-0.5,0.9-1.2,1.2-1.9
						c0.8-1.5,1.8-2.8,3.1-3.7c0.7-0.5,1.4-1.1,2-1.7c0.2-0.2,0.3-0.4,0.5-0.7c0.2-0.4,0.4-0.8,0.6-1.2c0-1.7-0.5-3.3-0.9-5
						c-0.2-1-0.5-2-0.7-3c-0.2-1.1-0.3-2.3-0.3-3.4c-0.1-2.1-0.1-4.3,0-6.4c0.1-1.8,0.3-3.6,1-5.3c0.6-1.3,1.3-2.4,2.2-3.2
						c1-0.9,2.1-1.9,3.1-2.7c1.2-1,2.4-2.2,3.4-3.5c0.8-1,1.5-2.1,2.3-3c0.5-0.6,0.6-1.2,0.6-1.9c0-0.5,0-1,0.1-1.4
						c0.3-1.2,0-2.3-0.6-3.2c-0.9-1.4-1.1-3-1.4-4.6c-0.1-0.4-0.1-0.8-0.1-1.2c0-1.1-0.1-2.3,0-3.4c0.1-2.1,0.4-4.1,1.6-5.8
						c0.7-0.9,1.2-2,2.1-2.5c0.2-0.1,0.3-0.5,0.4-0.7c0.3-1.1,0.4-2.2,0.1-3.2c-0.4-1.7-0.5-3.5-0.5-5.3c0-1.1,0-2.2,0-3.3
						c-0.1-1.7,0.1-3.2,0.5-4.8c0.5-1.9,1-3.8,1.8-5.6c0.6-1.5,1.6-2.5,2.6-3.4c0.4-0.4,0.9-0.7,1.1-1.4c0.4-0.9,1-1.5,1.7-1.9
						c1.7-0.9,3.3-1.7,5.1-2.2c0.9-0.3,1.8-0.8,2.6-1.2c0.2-0.1,0.4-0.3,0.7-0.3c1.7-0.4,3.4-0.8,5-1.2h0.1c1.6-0.4,3.2-0.3,4.9-0.6
						c0.2,0,0.5-0.1,0.7-0.1c1.2,0.2,2.4-0.1,3.7-0.1c0.3,0,0.6,0,0.9-0.1c2.1-0.4,4.2-0.4,6.4-0.3c2.2,0.1,4.3,0.4,6.5,0.8
						c0.7,0.1,1.4,0.3,2.2,0.6c3,1,5.9,2.1,8.9,3.1c1.3,0.4,2.6,0.9,3.9,1.2c1.4,0.3,2.8,0.5,4.2,0.8c1.1,0.2,2.2,0.6,3.3,0.9
						c1.9,0.7,3.9,1.3,5.8,2.1c0.9,0.4,1.8,0.6,2.8,0.7h0.1c1.6,0.5,3.2,0.9,4.8,1.4c1.1,0.3,2.2,0.6,3.2,0.9c1.1,0.3,2.2,0.7,3.3,1
						c0.5,0.1,1,0.2,1.4,0.4c0.6,0.2,1.1,0.3,1.7,0.5c1.7,0.8,3.4,1.5,5.1,2.1c0.9,0.4,1.9,0.6,2.8,1c1.3,0.4,2.7,0.9,4,1.4
						c1.1,0.4,2.1,0.7,3.2,1.2c1.4,0.6,2.8,1.1,4.2,1.7c1,0.5,2,0.9,3,1.3c1.4,0.6,2.8,1.3,4.1,2c0.9,0.5,1.9,0.9,2.8,1.4
						c1.4,0.8,2.8,1.4,4.2,2.3c0.9,0.5,1.7,0.9,2.6,1.4c1.5,0.9,3,1.7,4.4,2.7c0.8,0.5,1.6,1,2.4,1.6c1.3,0.9,2.7,1.8,4,2.6
						c0.2,0.1,0.4,0.3,0.5,0.4c0.9,1,1.9,1.7,2.9,2.4c1,0.8,2.1,1.3,3.3,1.6c0.4,0.1,0.9,0.2,1.3,0.4c0.2,0.1,0.3,0.2,0.5,0.3
						c0,1.7,0,3.4-0.1,5.1c-0.1,4.2-0.1,8.3-0.3,12.5c-0.1,3.6-0.4,7.3-0.7,10.9c-0.4,4.4-0.7,8.7-1.2,13c-0.4,3.7-0.8,7.4-1.6,11.1
						c-0.6,3-1.3,5.9-2,8.9c-0.9,3.6-1.8,7.1-2.8,10.7c-0.6,2.4-1.4,4.7-2.1,7c-0.1,0.3-0.2,0.6-0.4,0.9c-0.4-0.1-0.7-0.2-1-0.3
						c-2.3-1.1-4.5-2.2-6.8-3.3c-0.5-0.3-1.1-0.5-1.6-0.7c-0.6-0.2-1.3-0.3-1.9-0.1c-0.7,0.2-1.4,0.2-2.1,0.3
						c-0.4,0.1-0.7,0.3-0.9,0.7c-0.6,0.8-1.2,1.6-1.7,2.4c-1.4,2.1-2.9,4.2-4.3,6.4c-2,3.2-4,6.4-5.5,10.1c-0.2,0.5-0.4,1.2-0.5,1.8
						c-0.2,1.6-0.8,3-1.4,4.5c-0.2,0.6-0.7,1.2-1.2,1.6c-0.9,0.8-1.9,1.4-2.9,2c-1,0.7-2.1,1-3.2,1.4c-0.5,0.2-1.1,0.3-1.7,0.5
						c-1.7,0.5-3.3,1.2-4.9,1.9c-1.3,0.5-2.6,0.9-3.9,1.4s-2.7,1-4,1.5c-1.5,0.6-3,1.1-4.4,1.7c-1.1,0.4-2.2,0.8-3.2,1.4
						c-0.9,0.5-1.9,0.9-2.9,1.2c-1.6,0.4-2.9,1.2-4.3,2.2c-0.7,0.5-1.5,1.1-2.3,1.5c-0.4,0.3-0.9,0.4-1.4,0.5
						c-2.7,0.3-5.3,1-7.9,1.9c-1.2,0.4-2.5,0.7-3.7,1c-0.3,0.1-0.7,0.2-1,0.1c-1.3-0.4-2.7-0.5-3.9-1.2c-1.1-0.6-2.3-0.9-3.4-1.2
						c-1.3-0.3-2.6-0.7-4-1.1s-2.8-0.8-4.2-1.2c-1.7-0.5-3.5-0.4-5.3-0.3c-1.8,0.2-3.6,0.4-5.4,0.6c-0.8,0.1-1.5,0.1-2.3,0.1
						c-2,0-3.9,0-5.9,0c-3.4,0-6.7,0.1-10.1,0c-2.1,0-4.1-0.9-5.8-2.7c-0.8-0.9-1.5-1.7-1.9-3C849.1,401.6,848.8,401.3,848.6,400.8z
						"/>
					<path class="st0" d="M767.8,338.9c-1.3,0.9-2,2.3-2.6,3.8c-0.5,1.3-1.3,2.5-2.1,3.6c-0.8,1-1.4,2.1-2,3.4
						c-0.2,0.5-0.4,1-0.7,1.5c-0.6,1-0.7,2.2-0.8,3.4c0,0.9,0,1.8,0,2.7c0,0.4,0.1,0.8,0.3,1.1c0.4,0.6,0.7,1.1,1.1,1.7
						c1.1,1.9,2.5,3.3,4,4.7c0.6,0.6,1.2,1.1,1.8,1.7c1.9,1.9,3.9,3.3,6.3,3.8c1.3,0.3,2.4,0.9,3.6,1.5c1.5,0.7,2.9,1.6,4.5,2.2
						c0.9,0.4,1.8,0.8,2.5,1.6c0.9,0.9,2,1.6,2.8,3c1.4,0.3,2.6,1.2,3.4,2.9c0.8,1.7,0.8,3.4,0.5,5.3c0.4,0.3,0.7,0.5,1,0.7
						c0.7,0.5,1.3,0.6,2.1,0.2c0.4-0.2,0.9-0.3,1.4-0.3c0.4-0.1,0.7,0,1.2,0c0.1-0.4,0.3-0.8,0.4-1.2c0.3-0.9,0.6-1.8,1.2-2.5
						c0.6-0.7,0.7-1.5,0.5-2.6c-0.5-2.2-1.6-3.2-3.4-2.9c-0.4,0.1-0.7,0-1.1-0.2c-3.1-2.2-6.4-3.7-9.8-4.9c-1.5-0.5-3-1.2-4.4-1.8
						c-0.4-0.2-0.8-0.3-1.2-0.5c-1.5-0.5-2.8-1.6-4.2-2.6c-1.1-0.8-2.2-1.6-3.3-2.4c-0.2-0.2-0.5-0.2-0.8-0.3c-1-0.4-2-0.9-2.9-1.8
						c-0.7-0.7-1.4-1.6-1.9-2.7c-0.2-0.4-0.3-0.7-0.5-1.1c-1.4-0.6-1.4-0.6-1.4-2.4c0-0.9,0-1.9-0.1-2.8c0-0.5,0.1-1,0.3-1.5
						c0.4-0.7,0.6-1.5,1-2.1c0.3-0.6,0.7-1.2,1-1.7c1.1-1.7,2.1-3.4,2.8-5.6c0.2-0.1,0.5-0.3,0.8-0.4c1.1-0.4,2.3-0.9,3.4-1.3
						c0.8-0.3,1.7-0.4,2.5-0.6c1.2-0.3,2.5-0.4,3.8-0.6c0.7-0.1,1.4-0.1,2.1-0.1c1.2,0,2.4-0.1,3.7,0c0.6,0,1.1,0.2,1.7,0.4
						c0.5,0.2,0.9,0.3,1.4,0.2c0.6,0,1.2,0,1.7,0.2c2.9,0.9,5.8,1.7,8.7,2.6c1.6,0.5,3.2,1.1,4.9,1.6c0.2,0.1,0.5,0.2,0.7,0.2
						c1.8,0.1,3.4,0.9,5.1,1.8c0.1,0,0.2,0.1,0.2,0.1c0.6,0.3,1.3,0.5,1.8,0.9s1,0.9,1.5,1.4c1.1,1.3,2.2,2.5,2.7,4.4
						c0.5,2,1,4,0.9,6.1c0,0.8,0,1.7,0,2.5c0,1.6-0.2,3.1-0.6,4.6c-0.2,0.6-0.3,1.2-0.3,1.8c0,0.4,0,0.7-0.1,1.1
						c-0.2,0.8-0.3,1.7-0.4,2.6c-0.1,0.9-0.3,1.7-0.5,2.6c-0.2,1.1-0.4,2.2-0.7,3.3c-0.1,0.6-0.3,1.3-0.6,1.9
						c-1,2.1-1.7,4.2-2.3,6.5c-0.2,0.6-0.5,1.1-0.9,1.5c-0.7,0.7-1.3,1.5-2.1,2.1c-0.3,0.2-0.5,0.6-0.7,0.9c-0.7,1.5-1.8,2.5-3.2,3
						c-0.9,0.3-1.8,0.8-2.6,1.2c-0.7,0.4-1.4,0.7-2.1,0.6c-0.4,0-0.7,0.2-1,0.5c-0.7,0.6-1.4,1.3-2.1,1.8c-0.6,0.5-1.3,0.8-2,0.8
						c-1.2,0-2.4,0.4-3.6,0.8c-1.2,0.5-2.5,0.7-3.7,1.1c-0.9,0.3-1.8,0.4-2.8,0.7c-1.7,0.5-3.3,1-5.1,1.1c-1.6,0.1-3.3,0.2-4.9,0.2
						c-1.9,0.1-3.8-0.4-5.7-0.5c-1.8-0.1-3.5-0.2-5.3-0.1c-0.8,0-1.5-0.1-2.3-0.2s-1.5-0.2-2.3-0.3c-0.5-0.1-1.1-0.2-1.6-0.2
						c-2.1,0-4.2-0.6-6.3-0.9c-1.6-0.2-3.3-0.4-4.9-0.6c-0.9-0.1-1.9-0.2-2.8-0.4c-1.6-0.3-3.1-0.6-4.7-0.9
						c-1.1-0.2-2.3-0.5-3.4-0.7c-1.2-0.2-2.4-0.5-3.6-0.7c-2.2-0.5-4.4-0.9-6.6-1.5c-2-0.5-4.1-0.7-6.1-0.9
						c-1.7-0.2-3.4-0.4-5.1-0.6c-1.5-0.2-3.1-0.5-4.6-0.8c-1.9-0.5-3.8-1-5.8-1.6c-2.7-0.8-5.3-2.1-7.9-3.2c-0.5-0.2-1-0.6-1.5-0.9
						c-0.6-2.1-1.1-4.3-1.7-6.4c-1.6-6-2.9-12.2-4.2-18.3c-2-8.7-3.5-17.5-5.2-26.3c-0.7-3.7-1.3-7.4-2-11.1c-0.2-1-0.3-2-0.3-2.9
						c-0.4-4.3-0.8-8.5-1-12.8c-0.3-3.8-0.4-7.6-0.6-11.4c0-0.5,0-0.9,0.1-1.4c0.3-1.5,0.6-2.9,0.9-4.4c0.1-0.6,0.4-0.9,0.9-1.2
						c2.2-1.2,4.3-2.5,6.5-3.7c1.2-0.7,2.4-1.2,3.7-1.8c0.4-0.2,0.7-0.4,1-0.9c0.7-1,1.4-2,2-3.1c0.4-0.7,0.7-1.4,1-2.2
						c0.8-1.9,1.8-3.6,2.8-5.3c1.1-2,2.3-4,3.4-5.9c1.3-2.1,2.7-4.3,4.4-6.1c0.9-1,1.7-2.1,2.6-3.1c1.5-1.7,3-3.5,4.6-5.1
						c1.4-1.5,2.9-2.8,4.2-4.2c0.6-0.6,1.1-1.4,1.6-2.2c1.1-1.5,2.2-3.1,3.3-4.6c1.1-1.5,2.2-2.9,3.3-4.3c1.2-1.5,2.4-2.9,3.6-4.4
						c0.6-0.7,1.2-1.4,1.8-2.1c0.7-0.8,1.5-1.6,2.3-2.4c1.8-1.8,3.5-3.5,5.3-5.2c0.6-0.6,1.3-1.2,2-1.8c2.2-1.7,4.4-3.4,6.6-5.1
						c0.8-0.6,1.6-0.9,2.4-1.4c1.4-0.8,2.8-1.2,4.3-1.1c1.1,0.1,2.3-0.3,3.4-0.5c2.7-0.7,5.5-0.8,8.3-0.8c0.5,0,1,0,1.5,0
						c2.7-0.1,5.2,0.6,7.7,1.7c0.8,0.3,1.6,0.7,2.4,1.1c0.6,0.2,1.2,0.5,1.8,0.7c0.2,0.1,0.4,0.1,0.6,0.2c2.2,1.4,4.6,2.2,6.9,3.4
						c0.6,0.3,1.2,0.5,1.8,0.9c1.4,0.9,2.8,1.3,4.3,1.5c1.7,0.3,3.5,0.6,5.2,1c0.7,0.2,1.4,0.4,2.2,0.4c0.9,0,1.7,0.5,2.5,1.1
						c1,0.7,1.8,1.8,2.5,3c0.5,0.8,0.9,1.6,1.4,2.4c0.2,0.3,0.3,0.6,0.4,1c0.5,2.1,1.1,4.1,1.1,6.4c0,0.1,0,0.2,0,0.3
						c0.4,1.2,0.3,2.6,0.5,3.8c0.1,0.6,0.2,1.2,0.3,1.8c0.5,2.5,1.1,5,1.7,7.5c0.2,1,0.3,2,0.6,3c0.2,0.7,0.3,1.5,0.5,2.3
						c0.2,0.7,0.5,1.4,0.8,2.3c-0.2,0-0.4,0.1-0.6,0.1s-0.5-0.1-0.7-0.1c-1.8-0.3-3.5,0.3-5,1.5c-0.5,0.4-1.1,0.8-1.6,1.2
						c-1.6,1.2-2.9,2.9-3.6,5.1c-0.3,0.8-0.5,1.6-0.8,2.5c-0.3,1.2-0.5,2.5-0.5,3.8c0,1.9-0.1,3.9,0.2,5.8c0.1,0.7,0.2,1.3,0.5,1.9
						c0.5,1.2,1,2.3,1.5,3.4c0,0,0,0.1,0.1,0.1c0.3,0.6,0.8,0.8,1.2,0.5s0.5-0.9,0.3-1.5c0,0,0-0.1-0.1-0.1
						c-0.8-1.1-0.7-2.5-0.7-3.9c0-1.8,0-3.6,0-5.3c0-2.4,0.6-4.6,1.5-6.7c0.4-1,1.1-1.7,1.8-2.3c0.6-0.5,1.2-1,1.9-1.5
						c2.3-2,4.5-1.6,6.5,0.6c0.2,0.2,0.3,0.4,0.4,0.6c0.9,1.2,1.7,2.4,2.5,3.6c0.5,0.8,0.9,1.7,1.4,2.6c0.8,1.6,1.7,3.2,2.4,4.9
						c0.9,1.9,2,3.7,2.7,5.8c0.3,0.9,0.6,1.8,0.5,2.9c0,0.4,0,0.8,0,1.3c0.1,1.1-0.1,2.2-0.5,3.2c-0.2,0.4-0.3,0.8-0.4,1.1
						c-0.5,1.5-2.2,3.5-3.3,4.3c-1.6,1.1-3.4,1.6-5.1,2.2c-0.1,0-0.2,0-0.2,0c-1.4,0.8-2.8,0.6-4.2,0.6c-1.4,0-2.8,0.1-4.2,0
						c-0.9-0.1-1.9-0.4-2.7-1.1c-0.5-0.4-1-0.7-1.5-1c-1.2-0.7-2.4-1.4-3.5-2.1c-0.6-0.4-1-1.1-1.3-1.9c-0.8-2.1-1.6-4.1-2.4-6.2
						c-0.4-1.1-1-2-1.7-2.9c-1.2-1.6-2.3-3.4-3.5-5.1c-0.2-0.3-0.4-0.7-0.4-1.1c-0.2-1.4-0.7-2.6-1.2-3.7c-1-2.1-2.1-4.1-3.4-5.9
						c-1.1-1.4-2.1-2.7-3.4-3.8c-0.3-0.2-0.5-0.6-0.8-1c-0.4-0.6-0.7-1.3-1.2-1.8c-1.3-1.7-2.6-3.4-3.8-5.1
						c-0.2-0.3-0.5-0.6-0.7-0.9c-0.3-0.3-0.6-0.2-0.9,0.1c-0.2,0.3-0.3,0.8-0.1,1.1c0.3,0.4,0.6,0.8,0.8,1.2
						c0.6,0.9,1.2,1.8,1.8,2.8c0.1,0.1,0.1,0.3,0.2,0.6c-1.3-0.3-2.6-0.3-3.8-0.9c-0.3-0.2-0.7-0.2-1.1-0.3
						c-1.7-0.3-3.3-0.7-4.9-1.2c-0.3-0.1-0.6-0.3-0.9,0.1c-0.1,0.1-0.3,0.1-0.4,0c-0.3-0.2-0.7-0.4-1-0.6c-0.9-0.6-1.7-1.2-2.6-1.8
						c-0.3-0.2-0.6-0.4-0.9-0.5c-0.6-0.2-1,0.4-0.9,1.2c0.1,0.3,0.2,0.6,0.3,0.8c0.2,0.4,0.5,0.8,0.7,1c1.7,1.6,3.5,3,5.7,3.6
						c0.3,0.1,0.6,0.2,0.8,0c0.7-0.4,1.5-0.2,2.2,0s1.4,0.5,2.2,0.6c0.9,0.2,1.9,0.3,2.8,0.5c0.2,0,0.3,0.1,0.6,0.1
						c-0.2,0.5-0.3,0.8-0.5,1.1c-1.1,2.2-1.1,4.5-0.6,6.9c0.3,1.3,0.9,2.4,1.8,3.2c1,0.8,2,1.8,3,2.8c-0.2,0.3-0.4,0.6-0.5,0.9
						c-0.1,0.2-0.3,0.4-0.2,0.5c0.3,0.8-0.2,1.1-0.5,1.6c-0.5,0.7-1,1.3-1.5,1.9c-0.7,0.9-1.4,1.8-1.9,2.9c-0.4,0.9-0.9,1.7-1.3,2.6
						c-0.5,1-0.9,2.1-0.9,3.3c0,0.8-0.3,1.5-0.4,2.3c-0.1,0.3-0.1,0.6-0.1,0.9c0,1.6,0.1,3.2,0.2,4.8c0,0.6,0.2,1.2,0.5,1.8
						c0.3,0.5,0.5,1.1,0.7,1.6c-0.4,0.9-1,1.4-1.8,1.7c-1.2,0.5-2.3,0.9-3.5,1.4c-1.9,0.8-1.7,0.2-2.5,2.7c-0.3,0.9-0.8,1.5-1.3,2
						c-1.2,1.1-2.1,2.4-3.1,3.8c-0.7,1-1,2.2-1,3.6c0.1,1.9,0,3.9,0.1,5.8c0,0.9,0.2,1.9,0.4,2.8c0.2,0.8,0.5,1.5,1.2,1.6
						c0.2,0,0.4,0.2,0.5,0.4c0.9,1,1.7,2,2.6,2.9c0.2,0.2,0.3,0.3,0.5,0.5c1,0.9,2,1.8,3.1,2.6c0.4,0.3,0.6,0.7,0.7,1.2
						C767.6,337.6,767.7,338.2,767.8,338.9z"/>
					<path class="st0" d="M814.7,346.8c-1.2,0-2.4,0-3.5-0.2c-1.2-0.2-2.5-0.4-3.6-1.3c-0.3-0.2-0.7-0.4-1-0.4
						c-0.7,0-1.3-0.3-1.9-0.6c-1.2-0.4-2.3-0.9-3.6-1c-1-0.1-2.1-0.6-3.1-1c-1.5-0.7-3-1.1-4.5-1.5c-1.1-0.3-2.2-0.8-3.3-1.1
						c-1-0.3-2-0.6-3-0.9c-0.5-0.1-1-0.3-1.4-0.4c-0.2-0.1-0.4-0.2-0.6-0.2c-0.7,0-1.4-0.3-2-0.4c-1.4-0.3-2.7-0.8-4-1.3
						c-0.1,0-0.2-0.1-0.4-0.1c-1.3-0.1-2.5-0.9-3.6-1.7c-1.1-0.8-2.3-1.5-3.4-2.1c-2.1-1-3.9-2.7-5.7-4.4c-0.8-0.7-1.4-1.5-1.7-2.7
						c-0.2-0.9-0.6-1.7-0.8-2.6c0-0.3-0.2-0.6-0.3-0.8c-0.4-0.5-0.5-1-0.5-1.7c0-0.2,0-0.3,0-0.5c0-2-0.1-2,1-3.4
						c0.4-0.5,0.9-1,1.3-1.4c0.3-0.3,0.6-0.6,0.9-0.9c0.9-1,1.8-1.5,3-1.4c1,0,2,0,2.9-0.5c0.3-0.1,0.6-0.2,1-0.2
						c0.9,0.1,1.7-0.3,2.5-0.7c0.4-0.2,0.8-0.4,1.2-0.5c0.5-0.1,1-0.3,1.4-0.3c0.8-0.1,1.6,0,2.3-0.1c0.8,0,1.6,0,2.4,0.3
						c0.3,0.1,0.6,0.1,1,0.1c0.6,0,1.1,0,1.7,0c0.6,0,1.1-0.1,1.7-0.3c0.8-0.3,1.7-0.4,2.5-0.1c0.6,0.1,1.1,0.1,1.7,0.2
						c0.6,0.1,1.3,0.1,1.9,0.5c0.3,0.2,0.8,0.2,1.2,0.2c2,0.1,4,0.3,6,0.9c1,0.3,2,0.3,2.9,0.4c0.5,0,1.1,0.1,1.5,0.4
						c0.6,0.4,1.2,0.5,1.8,0.5c1.6,0.1,3.3,0.1,4.9,0.2c0.6,0,1.1,0.1,1.7,0.4c0.7,0.3,1.4,0.7,2.1,0.7c0.2,0,0.4,0.1,0.6,0.3
						c0.8,1,1.9,1.3,2.8,1.9c1.8,1.1,3.6,2,5.4,3.1c0.8,0.5,1.5,1.2,2.3,1.9c0.1,0.1,0.3,0.3,0.3,0.4c0.8,1.5,1.5,3.1,1.6,5
						c0.1,1.9,0.2,3.9,0.3,5.8c0.1,0.9,0,1.9-0.2,2.8c-0.1,0.4-0.1,0.8-0.2,1.2c-0.1,0.5-0.2,1-0.4,1.4c-0.7,1.3-1.5,2.5-2.5,3.4
						c-1.1,1-2.2,1.8-3.3,2.6c-0.9,0.6-1.9,1.1-2.9,1.5C817.4,346.8,816,346.7,814.7,346.8z"/>
					<path class="st0" d="M781.8,281c1.2,0.1,2.5,0.1,3.7,0.2c0.8,0,1.5,0.5,1.9,1.4c1.5,3.3,3.5,6.2,5.2,9.4
						c0.8,1.6,1.8,3.1,2.6,4.7c0.5,1,1,2,1.5,3.1c0.2,0.6,0.5,1,1,1.3c1.1,0.6,2.2,1.1,3.3,1.7c0.2,0.1,0.4,0.1,0.6,0.3
						c0.8,0.9,1.8,0.8,2.8,0.8c1.4,0,2.9,0,4.3,0.1c0.2,0,0.3,0,0.5,0c0.7,0.1,1.4,0.2,2.1,0.3c1.5-0.6,3.2-0.6,4.6-1.5
						c0.9-0.6,1.8-0.6,2.7-0.8c2.1-0.5,4-1.5,5.4-3.6c0.6-0.8,1.1-1.7,1.2-2.8c0-0.3,0.1-0.5,0.2-0.7c0.5-0.9,0.5-1.8,0.5-2.8
						c0-1.3-0.1-2.6,0-3.9c0-0.6-0.1-1.2-0.3-1.8c-0.2-0.6-0.4-1.2-0.6-1.9c-0.1-0.3-0.3-0.7-0.4-0.9c-1.1-1.3-1.9-2.9-2.7-4.5
						c-0.7-1.3-1.3-2.8-1.9-4.2c-0.1-0.2-0.2-0.5-0.2-0.7c-0.3-1.1-0.6-2.3-0.9-3.5c0.1-0.5,0.4-0.9,0.7-1.3
						c0.2-0.2,0.4-0.4,0.6-0.4c0.6-0.1,1.3-0.3,1.9-0.3c1.2-0.1,2.5,0,3.7,0c1.1,0,2.2,0.3,3.3,0.7c0.8,0.3,1.6,0.6,2.4,0.9
						c0.7,0.2,1.4,0.4,2,0.5c0.6,0.2,1.1,0.3,1.7,0.5c0.4,0.1,0.9,0.4,1.3,0.4c1.1,0.2,1.9,1,2.5,2c1,1.5,1.7,3.3,2.5,5
						c0.6,1.2,0.5,2.5,0,3.8c-0.2,0.6-0.3,1.1-0.3,1.8c0,0.4,0,0.7,0,1.1c0,1.4,0.1,2.7-0.3,4s-0.2,2.7,0.3,3.9
						c0.3,0.7,0.6,1.5,0.9,2.2c0.5,1.2,0.9,2.4,0.9,3.9c0,0.9,0,1.9,0,2.8c0,0.6-0.1,1.1-0.5,1.5c-0.8,0.9-1.5,1.9-2.2,2.9
						c-0.3,0.3-0.5,0.6-1,0.6c-0.3,0-0.5,0.2-0.7,0.4c-0.3,0.3-0.5,0.6-0.8,1c-0.2,0-0.4,0-0.6,0c-0.4,0-0.8,0.2-1,0.7
						c-0.8,1.4-1.9,2.2-2.9,3.3c-0.1,0.1-0.3,0.2-0.4,0.3c-0.8,1-1.7,1.5-2.8,1.9c-0.8,0.3-1.6,0.6-2.4,0.7c-0.5,0.1-1.2,0-1.5-0.8
						c-0.4-1-1-1.3-1.9-1.5c-1-0.2-2-0.7-2.9-1.1c-0.2-0.1-0.4-0.2-0.6-0.3c-1-0.1-1.9-0.6-2.8-0.9c-0.8-0.3-1.5-0.4-2.3-0.4
						c-0.7,0-1.3,0-1.9-0.3s-1.3-0.3-1.9-0.2c-1.4,0.1-2.8,0.2-4.2,0.3c-0.9,0.1-1.8,0.1-2.7-0.2c-0.6-0.2-1.2-0.1-1.8,0
						c-1.4,0.2-2.8,0-4.2-0.1c-1.8-0.2-3.7-0.5-5.5-1c-0.6-0.2-1.1-0.3-1.6-0.6c-0.5-0.3-1-0.4-1.5-0.5c-1.9-0.1-3.6-0.7-5.4-1.2
						c-0.4-0.1-0.9-0.3-1.3-0.3c-1.7,0-3.4-0.7-5-1.5c-0.2-0.1-0.3-0.1-0.4-0.3c-0.7-1.2-1.7-2.2-1.9-3.8c-0.1-0.7-0.3-1.3-0.5-1.9
						c-0.7-1.9-1-4-0.7-6.1c0.1-0.8,0.6-1.6,0.9-2.4c0.6-1.6,1.5-2.8,2.4-4.1c0.5-0.6,0.9-1.2,1.1-2c0.2-0.6,0.5-1,1-1.4
						C780.8,282,781.2,281.5,781.8,281z"/>
					<path class="st0" d="M813.7,233.8c0.8-0.9,1.9-1,3-1.1c0.8-0.1,1.6-0.2,2.4-0.2c1.6-0.1,3.1-0.4,4.6-0.7c3-0.7,5.9-0.7,8.9,0.1
						c0.4,0.1,0.8,0.3,1.1,0.6c0.7,0.6,1.4,0.9,2.2,1.2c1,0.4,2,0.9,3,1.3c1.1,0.5,2,1.2,2.8,2.2c1.1,1.4,2.3,2.9,3.2,4.6
						c0.4,0.6,0.6,1.3,0.8,2.1c0.9,3.1,0.9,6.3,0.5,9.6c-0.1,0.7-0.2,1.3-0.4,2c-0.7,3.4-1.5,6.7-2.5,10c-0.1,0.2-0.1,0.4-0.1,0.6
						c0,1.1-0.5,2.6-1.1,3.6c-1.3-1.2-2.9-1.5-4.4-2.4c-0.4-0.3-0.9-0.4-1.4-0.7c-1-0.7-2.1-0.9-3.2-0.9c-0.2,0-0.5,0-0.7-0.1
						c-0.9-0.4-1.8-0.4-2.8-0.5c-1.5-0.2-3.1-0.1-4.6-0.4c-0.9-0.2-1.9-0.1-2.8,0.1c-1.6,0.3-3-0.1-4.4-0.8
						c-0.7-0.3-1.3-0.7-1.7-1.5c-0.1-0.1-0.1-0.3-0.2-0.4c-1.2-1-1.7-2.6-2.4-4.1c-0.3-0.6-0.5-1.2-0.7-1.8c-0.7-1.9-1-4-1.5-5.9
						c-0.3-1.3-0.6-2.7-1-4c-0.3-1-0.4-2-0.5-3.1c-0.1-2.3-0.1-4.7-0.2-7c0-0.7,0.2-1.2,0.5-1.6c0.7-0.8,1.5-1.2,2.5-0.8
						C813.1,233.5,813.4,233.7,813.7,233.8z"/>
					<path class="st0" d="M997,289.8c1.1-0.2,1.9,0.2,2.8,0.7c0.5,0.3,1.1,0.5,1.6,0.6c0.8,0.2,1.7,0.5,2.4,1
						c0.2,0.1,0.4,0.4,0.7,0.4c1.6,0.4,2.9,1.5,4.4,2.1c0.1,0,0.1,0.1,0.3,0.2c0,0.5,0.1,1,0.1,1.6c0.2,5.3,0.4,10.6,0.5,16
						c0.1,6.3,0.2,12.6,0.2,18.9c0,2.1-0.1,4.2-0.2,6.3c0,0.5-0.1,1.1-0.3,1.5c-0.9,2.4-1.8,4.8-2.8,7.1c-1.1,2.9-2.5,5.6-4,8.2
						c-1.5,2.5-2.9,5.1-4.4,7.7c-2.1,3.6-4.1,7.2-6.4,10.6c-0.2,0.3-0.4,0.6-0.7,0.9s-0.6,0.5-0.9,0.7c-1.4-0.4-2.4-1.7-3.6-2.4
						c0.4-1.2,0.7-2.4,1.1-3.5c0.8-2.6,1.6-5.3,2.3-7.9c1-3.7,1.9-7.4,2.8-11.2c0.7-2.9,1.3-5.9,1.8-8.9c0.4-2.2,0.6-4.5,0.8-6.8
						c0.4-4.2,0.8-8.5,1.2-12.7c0.1-1.3,0.2-2.7,0.2-4.1c0.1-3.6,0.4-7.3,0.4-10.9c0-4.4-0.1-8.8-0.2-13.1
						C997.1,291.8,997.1,290.9,997,289.8z"/>
					<path class="st0" d="M663.2,300.7c0.2-0.2,0.3-0.3,0.5-0.4c0.7-0.3,1.4-0.6,2.1-0.8c2.5-0.8,5-1.7,7.6-2.8
						c-0.1,0.9-0.2,1.5-0.3,2.2c-0.3,2.6-0.7,5.2-1,7.9c-0.4,4.1-0.7,8.2-1,12.3c-0.1,1.7-0.2,3.4-0.2,5.1c-0.1,2.1-0.2,4.3-0.2,6.4
						c0,2.2,0,4.4,0,6.6c0,2.6,0,5.2,0.1,7.8c0,3.1,0.1,6.2,0.1,9.4c0,2,0.1,4,0.3,5.9c0,0.2,0,0.4-0.1,0.8
						c-0.2-0.3-0.3-0.5-0.3-0.6c-1.7-5.3-3.3-10.7-5-16c-1.2-3.7-2.2-7.5-2.9-11.3c-0.4-2.3-0.7-4.6-1-6.9c-0.2-1.5,0-3,0-4.5
						c0.1-3.5,0.2-7,0.5-10.5C662.5,307.7,662.9,304.2,663.2,300.7z"/>
					<path class="st0" d="M675.6,392.7c-1.9,0.6-3.8,1.1-5.6,1.7c-1.2,0.4-2.3,0.9-3.5,1.4c-0.5,0.2-1,0.4-1.6,0.6
						c-0.1-0.5-0.3-0.8-0.3-1.2c-0.7-5.6-1.3-11.1-2-16.7c-0.5-3.9-0.9-7.7-1-11.7c-0.1-2.9-0.1-5.8-0.1-8.8c0-2.6,0-5.1,0-7.7
						c0-0.2,0.1-0.4,0.2-0.8c0.2,0.4,0.3,0.6,0.4,0.8c1.2,3.9,2.4,7.8,3.6,11.6c1.6,5,3.1,10.1,5.1,14.9c1.2,3.1,2.2,6.4,3.2,9.7
						c0.6,1.8,1.1,3.6,1.6,5.4C675.6,392.3,675.6,392.5,675.6,392.7z"/>
					<path class="st0" d="M687.7,388.2c-1.1,0.3-2.2,0.6-3.2,1s-2,0.9-3,1.4c-0.1-0.4-0.3-0.6-0.3-0.9c-0.5-2.4-0.9-4.8-1.3-7.2
						c-0.7-4.2-1.5-8.5-2.1-12.7c-0.4-2.5-0.7-5-1-7.6c-0.2-1.4-0.4-2.9-0.5-4.3c-0.1-1.7-0.1-3.4-0.1-5.2
						c-0.1-6.1-0.1-12.1-0.2-18.2c0-0.6,0-1.1,0.1-1.8c0.1,0.5,0.3,1,0.4,1.5c1.7,9,3.3,18,5,27c0.5,2.7,1.2,5.4,1.8,8.1
						c0.7,3.3,1.4,6.5,2.2,9.8c0.6,2.3,1.2,4.7,1.8,7C687.4,386.8,687.5,387.5,687.7,388.2z"/>
					<path class="st0" d="M1005.7,385.2c-0.8-0.3-1.3-0.8-1.9-1.3c-0.5-0.4-1-0.7-1.5-1.1c-1.5-1.1-3-2.2-4.6-3.3
						c-0.2-0.1-0.4-0.4-0.6-0.6c0.2-0.4,0.4-0.7,0.6-1c1.6-2.3,2.8-5,4-7.6c1.6-3.3,3.2-6.5,4.7-9.8c0.6-1.3,1.3-2.7,1.9-4
						c0.4,0.1,0.3,0.5,0.3,0.7c-0.2,3-0.5,5.9-0.7,8.9c-0.2,3.5-0.6,6.9-1.1,10.4c-0.2,1.9-0.5,3.9-0.7,5.9
						c-0.1,0.8-0.2,1.5-0.3,2.3C1005.9,384.9,1005.8,385,1005.7,385.2z"/>
					<path class="st0" d="M1014.3,297.7c2,0.7,3.6,2.1,5.4,3.1c-0.2,3.1-3,15.3-4.3,19.1c-0.1-0.3-0.1-0.4-0.1-0.6
						c-0.1-2.9-0.2-5.7-0.3-8.6c-0.1-1.9-0.2-3.8-0.3-5.8c-0.1-2.3-0.3-4.6-0.4-6.9C1014.2,298,1014.3,297.9,1014.3,297.7z"/>
					<path class="st0" d="M776.4,266.5c2,0.2,3.6,1.5,4.5,3.7c0.3,0.6,0.6,1.2,1,1.8c0.7,1.1,0.5,2.9-0.5,3.7
						c-0.1,0.1-0.4,0.1-0.6,0.1c-0.4,0-0.7-0.2-1.1-0.2c-0.7,0-1.2-0.3-1.7-0.8c-0.6-0.6-1.2-1.2-1.7-1.7c-0.4-0.4-0.6-0.9-0.7-1.4
						c-0.1-1.6-0.2-3.2,0.5-4.7C776.2,266.8,776.3,266.6,776.4,266.5z"/>
					<path class="st0" d="M869.8,409.2c0.2,0,0.3,0,0.5,0v0.1c-0.2,0-0.3,0-0.5,0C869.8,409.2,869.8,409.2,869.8,409.2z"/>
				</g>
			</g>
		</g>
		<g>
			<g>
				<defs>
					<polygon id="SVGID_3_" points="1353,533.7 433,629.4 360.3,-69.7 916.8,-127.5 					"/>
				</defs>
				<clipPath id="SVGID_4_">
					<use xlink:href="#SVGID_3_"  style="overflow:visible;"/>
				</clipPath>
				<g class="st5">
					<path class="st0" d="M817.1,193.4c-1.6-3.7-3-7.3-5.1-10.6c-3.2-5-12-5.5-11.6,2.4c0.1,2.7,2,4,3.6,3.6
						c0.2,0.2,0.4,0.4,0.6,0.6c1.3,1.4,2,4.1,2.7,6.2c1.8,4.9,4.7,13.4,10,12.5c1.3-0.2,2.7-1.1,2.9-2.9
						C820.9,200.7,818.7,197.2,817.1,193.4z"/>
					<path class="st0" d="M849.5,166.4c-0.8-3.4-4.7-3.4-5.4,0.1c-1.8,9-0.9,18.7-2.5,27.8c-0.7,4,3.8,6.6,5.3,2.8
						C850.5,187.9,851.7,176.4,849.5,166.4z"/>
					<path class="st0" d="M892.1,179.4c-3,4.4-6.3,8.4-9.4,12.6c-1.7,2.3-3.3,4.7-4.9,7.1c-1.1,1.7-2.6,5.8-4.3,6.6
						c-3.9,1.8-3.4,9.9,1.1,9.7c5.6-0.2,8.8-7.1,12-11.9c4-6,7.5-12.4,11-18.8C899.8,180.6,894.6,175.7,892.1,179.4z"/>
					<path class="st0" d="M924.1,218.6c-2.9,0.7-5.3,1.7-7.9,3.5c-2.8,1.9-5.4,3.5-8.6,4.2c-4.5,1-2.8,9,1.1,9.4
						c3.8,0.4,7-0.8,10.4-2.9c3.2-2,5.3-5.1,7.7-8.3C929,221.8,926.8,218,924.1,218.6z"/>
				</g>
			</g>
		</g>
	</g>
</g>
</svg>
