<svg id="Layer_13" data-name="Layer 13" xmlns="http://www.w3.org/2000/svg" xmlns:xlink="http://www.w3.org/1999/xlink" viewBox="0 0 400.06 484.31"><defs><style>.cls-1{fill:none;}.cls-2{clip-path:url(#clip-path);}.cls-3{clip-path:url(#clip-path-2);}.cls-4{fill:#ffd9bd;}.cls-5{fill:#ffa985;}.cls-6{fill:#f28f6d;}</style><clipPath id="clip-path"><polygon class="cls-1" points="-216.61 510.46 450.22 510.46 450.22 -23.41 46.78 -23.41 -216.61 510.46"/></clipPath><clipPath id="clip-path-2"><polygon class="cls-1" points="376.85 526.46 -15.5 494 18.47 119.01 410.81 151.48 376.85 526.46"/></clipPath></defs><title>love_icon</title><g class="cls-2"><g class="cls-3"><g id="_Group_" data-name="&lt;Group&gt;"><path class="cls-4" d="M267.1,316.17h0c-.65.09-.95.5-1.3,1.06h0a37.73,37.73,0,0,0-3.75,9.16c-4.92,15.8-8.11,34.34,4.16,48a1.09,1.09,0,0,1,.21,1.37c-.77,1.32-1.09,2.8-1.75,4.17-3.29,6.75-6.58,13.57-9.24,20.57a1,1,0,0,1-.73.65c-3.51,1-9.64-1.21-13-2.11-7.31-1.94-13.61-5.35-20-9.14-1.32-.78-7.58-5.65-8.59-3.94-.22.37.14.57.35.79s.48.43.72.64a68.37,68.37,0,0,0,32,15c1.75.3,6.58,1.71,8.1.53a1.47,1.47,0,0,1-.48.8c-7.34,8.65-12,17.38-11.43,28.74a2,2,0,0,1-.78,1.88c-8.22,6.35-17.23,11.52-25.83,17.39a1.4,1.4,0,0,1-.5.25c-2.48.44-4.95.94-7.44,1.29-4.43.62-8.9,1-13.31,1.84A70.73,70.73,0,0,0,182.92,458c-2.16.78-4.33,1.54-6.52,2.26a1.14,1.14,0,0,1-1.08-.09c-6.06-3.84-3.44-10.74,1.56-14.13,6.83-4.64,15.09-7.24,22.33-11.24,6.87-3.8,13.09-8.53,19.71-12.68,4.41-2.76,7.53-7.82,10.91-11.61a.75.75,0,0,1,1.09-.2,1.64,1.64,0,0,0,2.32-.44c.37-.41-4.84-3.88-6-2.37-.29.37-.08.63.2.87a2.6,2.6,0,0,0,.57.45c.57.27.51.53.13.95-2,2.26-4,4.53-6,6.85-3.64,4.35-8.78,7.07-13.46,10.25-5,3.42-10,7.13-15.83,9.26a75.67,75.67,0,0,0-16.4,8.25,20.79,20.79,0,0,0-6.24,6.42c-.27.46-.39,1.06-1,1.3-.46.18-.92.35-1.37.5-2.34.77-4.41.9-5.71-1.84a9.15,9.15,0,0,1,.32-7.7c4.83-8.8,12.89-13.34,22.14-17.12,3.84-1.57,6.62-4,10.18-6.08,3.83-2.2,7.83-4.28,10.91-7.46.93-1,2.07-1.85,2.34-3.19.69-3.42,2.86-6.23,4.84-9.06a.53.53,0,0,1,.29-.25.56.56,0,0,1,.41.15c3.29,2.42,1.5-2.82-.74-3.4a2.89,2.89,0,0,0-2,0c0,.66.36.95.86,1.38.28.24.32.46,0,.73a23.21,23.21,0,0,0-2.54,3.21c-2.73,3.55-3.17,8.4-6.89,11.28a87.64,87.64,0,0,1-8.14,5.05c-3.44,2.11-6.53,4.75-10.36,6.23a48.68,48.68,0,0,0-10,4.82c-5.74,3.93-9.37,8.1-13.45,13.47-.19.25-.27.6-.67.63a10.21,10.21,0,0,1-2.8-.14c-3-.63-1.9-8.38-.59-10,2.18-2.66,5.05-4.62,7.55-7a1.68,1.68,0,0,1,1.26-.47,2.16,2.16,0,0,0,1.48-.41,13.72,13.72,0,0,0,2.78-2.67,82.73,82.73,0,0,1,18.64-19,11.64,11.64,0,0,0,3.32-3.69,32.81,32.81,0,0,1,6.71-8.55c.3-.27.51-.46.87-.11a2.14,2.14,0,0,0,.5.27c1.74.93.64-1.25.42-1.63a5.13,5.13,0,0,0-2.87-1.9c-.77-.08-1.58-.06-.68.8.45.44.92.87,1.34,1.26-.55.58-1.3.23-1.89.52a14.21,14.21,0,0,0-2.18,1.42c-8.75,6.4-18.24,10.79-27.62,16-.4.22-.68,0-1-.2-3.73-3-7-5.45-11.79-6.48a1.54,1.54,0,0,1-1.1-.87c-.19-.42.37-.58.61-.83,2.77-2.79,7.49-4.3,10.94-6.19,7.19-4,13.47-9.95,18.71-16s12.09-10.85,17.49-16.6a72.73,72.73,0,0,0,12.09-18.61c2.27-4.81,3.76-9.89,6.48-14.5,3.83-6.5,7.95-12.8,13.25-18.32,6.47-6.72,17.25-8.25,24.86-13.21a135.35,135.35,0,0,1,16.16-8.88c8.17-3.86,16.65-7.2,24.93-10.65,15.87-6.61,31.48-13.8,47.38-20.35,8.29-3.39,16.91-6,25.27-9.22,8.91-3.42,24.92-9.82,34-12.69L415,303.54c-.17-.7-73.87,15.81-80.55,17.47-2.64.65-5.26,1.35-7.84,2.19-1.62.53-3.24,1-5,1.59.86-.27,2.83-6.46,3.74-7.53,1.42-1.67,4.17-2.63,5.06-4.63-.78-.48-1.42-.2-2.16.37-8.76,6.74-9.83,15.56-11.37,25.59A85.37,85.37,0,0,1,313,353.41c-2.44,7-6.09,13.6-8.36,20.67-2,6.18-3.77,12.43-6.5,18.36a42.58,42.58,0,0,1-7.48,11.41c-3,3.18-6.83,5.52-9.91,8.63-4.25,4.29-8.72,8.47-12.34,13.27a44.31,44.31,0,0,0-4.42,6.83c-.14.29-2.58,1.2-3.25,1.84a18,18,0,0,0-2.94,3.6c-1.43,2.34-2.6,5.83.78,7.17.31.12.7.12.57.58s.07,1.29-.71,1.62c-11.89,5.08-13.53-13.34-13.13-20.5.37-6.59,2.75-14.48,7.37-19.57,2-2.17,4-3.64,5.38-6.34,1.24-2.4,2.06-5,3.15-7.45,2.4-5.41,4.69-10.86,6.81-16.38.14-.38.3-.52.69-.19,1.63,1.36,3.31,2.67,5.07,3.88a1.46,1.46,0,0,0,1.64.11c-.16-.17-.28-.31-.42-.43a31.57,31.57,0,0,1-4.51-4.81c-.95-1.29-1.72-2.7-2.7-4a35.51,35.51,0,0,1-7.39-24c.1-2.41,5.15-31.07,6.71-31.56ZM258.54,410c.1-.16,0-.29-.11-.42a8.58,8.58,0,0,1-1.71-4.45c-.71.48-1,.88-.89,1.43a6.75,6.75,0,0,0,1.29,3.09,1.28,1.28,0,0,0,1,.49C258.27,410.19,258.45,410.21,258.54,410Zm-6.63-30.93c.25-.26.18-.53-.19-.68s-.6-.25-.92-.35c-2.28-.68-4.52-1.47-6.74-2.34a15,15,0,0,0-3.5-1.11,3.86,3.86,0,0,0-1.4.18c-.13,0-.27.11-.28.26s.15.21.26.26a10.51,10.51,0,0,1,1.51.64,35.44,35.44,0,0,0,5.92,2.74,12.21,12.21,0,0,1,3.16,1.3.91.91,0,0,0,1.16,0A4.26,4.26,0,0,0,251.91,379.12Zm-43.21,62c.53-.3.33-.83.08-1.26a1.84,1.84,0,0,0-.3-.47,11.47,11.47,0,0,0-6.76-2.58l-.1.26c.82.35,1.66.64,2.44,1.06,1.29.7,2.83,1.06,3.68,2.39C208,440.86,208.16,441.43,208.7,441.12Zm-16.34-9.7a1.34,1.34,0,0,0-.42-1.08,8.7,8.7,0,0,0-3.47-2.46,1.07,1.07,0,0,0-1,0c-.34.22-.45.47,0,.74a15.28,15.28,0,0,1,3.52,3.28.79.79,0,0,0,.92.36A.9.9,0,0,0,192.35,431.42Zm-15.2-8.34a.44.44,0,0,0,0-.59,3.63,3.63,0,0,0-1.77-1.09,1.06,1.06,0,0,0-.87.19c-.17.15-.22.38,0,.43a8.88,8.88,0,0,1,2.05,1.14C176.78,423.27,177,423.34,177.16,423.09Z"/><path class="cls-5" d="M389.34,238.72c2.57-.8,13.81-4.77,16.41-4.07-9.12,2.87-26.62,9.22-35.54,12.64-8.36,3.21-17,5.83-25.27,9.22-15.9,6.55-31.51,13.74-47.38,20.35-8.28,3.45-16.77,6.78-24.93,10.65l-.32-.92c1.09-.51,2.16-1.08,3.22-1.65,9.85-5.31,20.8-9.15,31.13-13.53C334,259.85,360.83,247.54,389.34,238.72Z"/><path class="cls-5" d="M263.42,433.53a14,14,0,0,0-1.45,1.1,32.22,32.22,0,0,0-2.74,3,5.2,5.2,0,0,0-.28,6c.1.15.15.4.37.38s.23-.25.3-.42ZM202.22,467a2.53,2.53,0,0,0,2.86-1.8,15.49,15.49,0,0,0,.45-3.19,3.64,3.64,0,0,0-.9-2.91,34.29,34.29,0,0,0-2.87-2.8,1.52,1.52,0,0,0-1.4-.43c-3.72.44-7.41,1.05-11.07,1.76a15.06,15.06,0,0,0-2.92.75,7.63,7.63,0,0,1,1.56,2.62c.2.61-.3,1.41.21,1.79s1.32.21,2,.41c2.14.62,4.14,1.57,6.25,2.25C198.29,466.08,200.12,467,202.22,467Zm6.17-6.74c-.58-.1-.82,0-.91.63-.72,4.53-2,8.28-7.85,7.22-3.65-.66-7.24-2.55-10.69-3.88-1.45-.56-2.83,1.12-3.85,2.46l-.71-.3c1.45-1.78,2-3.7,1-5.87a2,2,0,0,0-2.74-1.19L177.35,461a4.45,4.45,0,0,0-1.52.76,1.6,1.6,0,0,1-1.79.11,22.34,22.34,0,0,1-4.4-3.53,2.33,2.33,0,0,1-.61-1.35,12.44,12.44,0,0,1,.17-3.22c.05-.67-.14-.75-.7-.47l-.23.11-.44-.82c.45-.15.91-.32,1.37-.5.61-.24.73-.84,1-1.3a20.79,20.79,0,0,1,6.24-6.42,75.67,75.67,0,0,1,16.4-8.25c5.83-2.13,10.78-5.84,15.83-9.26,4.68-3.18,9.82-5.9,13.46-10.25,1.94-2.32,4-4.59,6-6.85.37-.42.43-.68-.13-.95a2.6,2.6,0,0,1-.57-.45c-.28-.24-.49-.5-.2-.87,1.21-1.51,6.41,2,6,2.37a1.64,1.64,0,0,1-2.32.44.75.75,0,0,0-1.09.2c-3.38,3.8-6.5,8.85-10.91,11.61-6.63,4.15-12.84,8.89-19.71,12.68-7.24,4-15.5,6.59-22.33,11.24-5,3.4-7.62,10.3-1.56,14.13a1.14,1.14,0,0,0,1.08.09c2.19-.71,4.36-1.47,6.52-2.26a70.73,70.73,0,0,1,11.46-2.83c4.4-.82,8.87-1.21,13.31-1.84,2.49-.35,5-.84,7.44-1.29a1.4,1.4,0,0,0,.5-.25c8.59-5.86,17.6-11,25.83-17.39a2,2,0,0,0,.78-1.88c-.57-11.36,4.09-20.08,11.43-28.74a1.47,1.47,0,0,0,.48-.8c-1.52,1.18-6.35-.23-8.1-.53a68.37,68.37,0,0,1-32-15c-.24-.21-.5-.41-.72-.64s-.57-.41-.35-.79c1-1.71,7.27,3.16,8.59,3.94,6.41,3.8,12.71,7.21,20,9.14,3.4.9,9.53,3.14,13,2.11a1,1,0,0,0,.73-.65c2.66-7,5.95-13.82,9.24-20.57.66-1.36,1-2.84,1.75-4.17a1.09,1.09,0,0,0-.21-1.37c-12.27-13.66-9.08-32.2-4.16-48a37.73,37.73,0,0,1,3.75-9.16h0c.36-.56.66-1,1.3-1.06-1.56.49-6.61,29.15-6.71,31.56a35.51,35.51,0,0,0,7.39,24c1,1.26,1.76,2.67,2.7,4a31.57,31.57,0,0,0,4.51,4.81c.14.12.26.26.42.43a1.46,1.46,0,0,1-1.64-.11c-1.76-1.21-3.43-2.52-5.07-3.88-.39-.33-.54-.19-.69.19-2.11,5.51-4.41,11-6.81,16.38-1.09,2.46-1.91,5-3.15,7.45-1.39,2.7-3.41,4.17-5.38,6.34-4.61,5.09-7,13-7.37,19.57-.4,7.16,1.24,25.57,13.13,20.5.78-.33.55-1.06.71-1.62s-.26-.46-.57-.58c-3.39-1.33-2.21-4.83-.78-7.17a18,18,0,0,1,2.94-3.6c.67-.64,3.11-1.55,3.25-1.84a44.31,44.31,0,0,1,4.42-6.83c3.62-4.8,8.09-9,12.34-13.27,3.08-3.11,6.9-5.45,9.91-8.63a42.58,42.58,0,0,0,7.48-11.41c2.73-5.93,4.52-12.18,6.5-18.36,2.27-7.07,5.92-13.65,8.36-20.67a85.37,85.37,0,0,0,3.93-14.81c1.54-10,2.61-18.85,11.37-25.59.74-.57,1.38-.85,2.16-.37-.88,2-3.63,3-5.06,4.63-.91,1.07-2.88,7.26-3.74,7.53,1.77-.56,3.4-1.06,5-1.59,2.58-.84,5.2-1.54,7.84-2.19,6.68-1.66,80.37-18.17,80.55-17.47.49,2-14.16,4.33-16.52,4.86q-10,2.25-20,4.44c-14.13,3.09-28.43,5.84-42.38,9.42-4.84,1.32-9.75,3.38-14.66,4.33-.42.08-.49.44-.51.8-.07,1-.11,2.1-.24,3.14-2.46,19.51-12,36.47-17.9,55a54.46,54.46,0,0,1-13.81,22c-8.88,8.46-19.52,15.9-24,27.56-.86,2.24-2,4.38-2.8,6.64a29.14,29.14,0,0,0-1.7,5.32c-.18,1.2-1.12,1.74-1.94,2.27a9.11,9.11,0,0,1-6.7,1.28,8.11,8.11,0,0,1-4.38-3c-2.48-3.2-3.73-7.34-4.81-11.12-.05-.2-.12-.39-.22-.71-3.93,3.23-7.92,6.4-12.14,9.29s-8.79,4.88-12.83,7.81c-.91.66-2.52,1.27-2.77,2.31-.34,1.39-.72,5.18-3.13,5A8.81,8.81,0,0,1,208.39,460.29Zm-.75-1a20.84,20.84,0,0,0,3.7-.17,1.22,1.22,0,0,0,1-.82c.34-.88.19-1.83.45-2.53.08-1.22.08-1.18-1-1.11-2.31.14-4.58.53-6.87.74-.19,0-.43,0-.51.17s.14.31.26.44A11,11,0,0,1,207,459,.59.59,0,0,0,207.63,459.3Z"/><path class="cls-4" d="M258.95,443.65a5.2,5.2,0,0,1,.28-6,32.22,32.22,0,0,1,2.74-3,14,14,0,0,1,1.45-1.1l-3.8,10.06c-.06.17-.08.41-.3.42S259,443.79,258.95,443.65Z"/><path d="M267.1,316.17h0Z"/><path class="cls-5" d="M258.44,409.63c.09.13.21.26.11.42s-.27.15-.44.14a1.28,1.28,0,0,1-1-.49,6.75,6.75,0,0,1-1.29-3.09c-.1-.55.18-.95.89-1.43A8.58,8.58,0,0,0,258.44,409.63Z"/><path class="cls-5" d="M251.72,378.44c.37.15.44.42.19.68a4.26,4.26,0,0,1-1,.93.91.91,0,0,1-1.16,0,12.21,12.21,0,0,0-3.16-1.3,35.44,35.44,0,0,1-5.92-2.74,10.51,10.51,0,0,0-1.51-.64c-.12,0-.28-.09-.26-.26s.15-.22.28-.26a3.86,3.86,0,0,1,1.4-.18,15,15,0,0,1,3.5,1.11c2.21.86,4.45,1.66,6.74,2.34C251.12,378.18,251.42,378.32,251.72,378.44Z"/><path class="cls-4" d="M212.78,455.78c-.26.71-.12,1.65-.45,2.53a1.22,1.22,0,0,1-1,.82,20.84,20.84,0,0,1-3.7.17A.59.59,0,0,1,207,459a11,11,0,0,0-2.42-2.94c-.12-.13-.35-.25-.26-.44s.32-.15.51-.17c2.29-.2,4.57-.6,6.87-.74C212.86,454.61,212.86,454.56,212.78,455.78Z"/><path class="cls-4" d="M204.63,459.12a3.64,3.64,0,0,1,.9,2.91,15.49,15.49,0,0,1-.45,3.19,2.53,2.53,0,0,1-2.86,1.8c-2.1-.06-3.93-.94-5.85-1.55-2.11-.67-4.11-1.63-6.25-2.25-.67-.19-1.49,0-2-.41s0-1.17-.21-1.79a7.63,7.63,0,0,0-1.56-2.62,15.06,15.06,0,0,1,2.92-.75c3.67-.71,7.35-1.32,11.07-1.76a1.52,1.52,0,0,1,1.4.43A34.29,34.29,0,0,1,204.63,459.12Z"/><path class="cls-5" d="M201.71,436.82a11.47,11.47,0,0,1,6.76,2.58,1.84,1.84,0,0,1,.3.47c.25.44.45,1-.08,1.26s-.74-.26-1-.6c-.86-1.33-2.39-1.69-3.68-2.39-.78-.42-1.63-.72-2.44-1.06Z"/><path class="cls-5" d="M191.93,430.35a1.34,1.34,0,0,1,.42,1.08.9.9,0,0,1-.52.84.79.79,0,0,1-.92-.36,15.28,15.28,0,0,0-3.52-3.28c-.4-.26-.29-.52,0-.74a1.07,1.07,0,0,1,1,0A8.7,8.7,0,0,1,191.93,430.35Z"/><path class="cls-5" d="M169.66,409.24a12.07,12.07,0,0,0,1.48,2.44c.73.78,1.55,1.48,2.2,2.31.41.53.65.54,1.06.08a78.11,78.11,0,0,1,7-6.25c1.07-.94,1.14-1.42.31-2.61a3,3,0,0,1-.45-.84c-.16-.54.21-.87.64-1.06s.69.11.8.52a2.66,2.66,0,0,0,.61.92c.47.55.82.5,1.33,0a31.52,31.52,0,0,1,3.23-2.83,1.3,1.3,0,0,0,.33-.44,34.59,34.59,0,0,1,5-7.27c.12-.13.31-.23.23-.53-.45.34-.89.65-1.3,1a53.6,53.6,0,0,1-7.57,5.6c-1.58.86-3.09,1.83-4.65,2.71-3.35,1.86-6.6,3.9-10.32,5.08a25.34,25.34,0,0,0-2.46,1.12c-.49.21-.52.44-.17.82a6,6,0,0,1,1,1.28c.5,1,1.42,1.86,1.49,3a15.29,15.29,0,0,1-.14,4.33,11.71,11.71,0,0,0-.14,1.38c.64-.74,1.1-1.31,1.61-1.85a.83.83,0,0,0,.2-.93c-.68-2.08-1.15-4.22-1.95-6.27a4.61,4.61,0,0,1-.24-1.39.62.62,0,0,1,.53-.63C169.55,408.91,169.58,409.1,169.66,409.24Zm14.49,58.67c-3.06,3.29-6,2.17-9.49.34-6-3.14-12.12-6.9-17.92-10.67-2.66-1.73-5.23-3.61-8.06-5.08-3-1.59-6.39-2.62-9.09-4.76-8.34-6.59-16.77-13.66-23.56-21.89a68.83,68.83,0,0,1-8.89-13.59,45.56,45.56,0,0,1-2.93-7.33c-.71-2.49-.87-5.24-2.55-7.37-1-1.27-2.27-2.32-3.28-3.57-2-2.5-2.9-5.66-3.73-8.72-2.72-10-6.07-21.15-4.26-31.56,1.9-10.93,6.44-21.44,6.74-32.61,0-1.24-.12-2.47-.09-3.71a1.82,1.82,0,0,0-1.1-1.69,30.36,30.36,0,0,1-3.58-2.51c-1.21-.91-2.61-1.58-3.81-2.49-4-3-8.49-5.16-12.69-7.8-2.2-1.38-4.69-2.22-7-3.42a420.88,420.88,0,0,0-44.11-19.85c-3.08-1.18-17.93-8.43-21-9.56-3.26-1.19-6.6-2.2-9.9-3.28-.7-.23-1.41-.43-2.11-.65l.23-2.52c2.61,1.14,5.38,1.85,8.08,2.75,19.22,6.41,48.61,21.5,67,29.62a44,44,0,0,1,4.08,2.24c2.12,1.22,4.48,2,6.6,3.25,2.54,1.52,5,3.16,7.56,4.63s5,2.67,7.38,4.18c1.1.69,2.1,1.53,3.17,2.27.87.6.82.54,1-.66a6.79,6.79,0,0,0,0-1.18.58.58,0,0,1,.54-.63c.44,0,.38.3.46.59.92,3.24.91,6.6,1.24,9.91A43.12,43.12,0,0,1,95.33,343c-4,8.82-3.41,19-1.46,28.31,1.6,7.69,2.62,17.16,8.47,23.15,3.39,3.47,8.05,5.54,11.93,8.47,5.37,4.07,9.68,8.92,14.13,13.86a2.78,2.78,0,0,0,1.79.88c5.68.74,11.4,1.24,17.11,1.79a26.35,26.35,0,0,1,5,.8c.19.05.42.1.55,0a.46.46,0,0,0,.08-.31,2.49,2.49,0,0,1,.25-1.36,1,1,0,0,1,1-.38c.76,1.88-.51,2.4,1.73,3.16,1.89.64,3.82,1.18,5.71,1.83.76.26.84,0,.82-.61a3.77,3.77,0,0,0-1-2.37,13.63,13.63,0,0,0-4.17-3.31c-.24-.12-.54-.21-.53-.53s.29-.5.55-.64a1.27,1.27,0,0,1,1.12,0c2.34,1.06,4.58,2.25,5.8,4.59a4.21,4.21,0,0,1,.13,3.23c0,.15-.35.26-.09.45s.35,0,.55,0a2.6,2.6,0,0,0,2-2.54c.37-3.82,1-6.7-1.66-9.89s-7.42-7.67-12.1-8-7.25-7-9.51-10.21c-4-5.61-8.19-11.29-13.29-16-.35-.32-1-.53-.66-1.19,2-4.15,7.23,3.92,8.19,5.44.05.08.16.13.34.28l1.26-3.16c6.66-16.66,8-37,2.71-54.12-.17-.55-.27-1.12-.4-1.68a.49.49,0,0,1,.34-.63c.3-.11.46.07.61.28a13,13,0,0,1,1.43,2.82c4,9.4,4.62,19.71,3.39,29.69-1.11,9-3.09,20.19-7.7,28.27a.87.87,0,0,0,.1,1c2.8,4.69,7.45,8.21,9.81,13.12a2.78,2.78,0,0,0,.17.35c1,1.46,1,1.41,2.44.35,5.9-4.25,12.83-7,18.54-11.53,4.34-3.41,8.26-8.11,12.08-12.08,1.13-1.18,2.29-2.34,3.58-3.66-1,0-1-.53-1.18-1.06-5-13.4-4.36-27.84-7.1-41.67-2.93-14.83-11.32-26.89-23.74-36.17-1.31-1-2.66-1.92-4-2.85-6.24-4.13-12.27-8.56-18.33-12.9-2-1.46-4.14-2.85-6.24-4.24-13-8.6-26.3-16.58-39.63-24.62q-23.87-14.4-48-28.41c-2.88-1.68-5.77-3.36-8.68-5-2.32-1.31-4.52-2.8-6.79-4.2C21.33,208.8,8,202,6.47,201.12a2.13,2.13,0,0,1-.84-.61c1.92.16,15.68,6.19,17.61,6.35a27.73,27.73,0,0,0,4,2.6c4.2,2.56,8.4,5.12,12.62,7.64,3.78,2.25,7.6,4.44,11.41,6.65,4.27,2.49,8.57,4.93,12.81,7.48,4.54,2.73,9.1,5.41,13.57,8.26,3.13,2,6.35,3.86,9.48,5.86C100.68,254,114.61,262,128,270.84c2.46,1.62,4.83,3.37,7.19,5.13,4.94,3.67,9.76,7.51,15.16,10.59,2.57,1.46,4.66,3.5,7,5.28,13,10.08,21.64,22.66,24.5,38.45,1.87,10.3,2.59,20.83,4.07,31.18a33.93,33.93,0,0,0,1.72,7.55c.17.42.31.35.56.15,9.21-7.13,17.76-17.23,22.42-27.67,6.18-13.84,13.76-30.38,27.91-38.58a24.49,24.49,0,0,1,6.83-2.71,27.42,27.42,0,0,0,7.37-3.12c5.94-3.36,11.1-7.14,17.57-9.63.68-.26,1.35-.55,2-.86l.32.92a135.35,135.35,0,0,0-16.16,8.88c-7.6,5-18.39,6.49-24.86,13.21-5.3,5.52-9.42,11.82-13.25,18.32-2.72,4.61-4.21,9.69-6.48,14.5A72.73,72.73,0,0,1,199.79,361c-5.4,5.75-12.24,10.55-17.49,16.6s-11.53,12.05-18.71,16c-3.45,1.9-8.18,3.4-10.94,6.19-.24.25-.8.41-.61.83a1.54,1.54,0,0,0,1.1.87c4.77,1,8.06,3.49,11.79,6.48.28.22.56.42,1,.2,9.38-5.21,18.87-9.61,27.62-16a14.21,14.21,0,0,1,2.18-1.42c.59-.29,1.34.06,1.89-.52-.42-.4-.89-.82-1.34-1.26-.9-.86-.08-.88.68-.8a5.13,5.13,0,0,1,2.87,1.9c.22.38,1.32,2.56-.42,1.63a2.14,2.14,0,0,1-.5-.27c-.36-.36-.58-.16-.87.11a32.81,32.81,0,0,0-6.71,8.55,11.64,11.64,0,0,1-3.32,3.69,82.73,82.73,0,0,0-18.64,19,13.72,13.72,0,0,1-2.78,2.67,2.16,2.16,0,0,1-1.48.41,1.68,1.68,0,0,0-1.26.47c-2.49,2.34-5.37,4.29-7.55,7-1.31,1.61-2.38,9.36.59,10a10.21,10.21,0,0,0,2.8.14c.4,0,.48-.38.67-.63,4.08-5.37,7.71-9.54,13.45-13.47a48.68,48.68,0,0,1,10-4.82c3.82-1.49,6.92-4.13,10.36-6.23a87.64,87.64,0,0,0,8.14-5.05c3.72-2.88,4.16-7.73,6.89-11.28a23.21,23.21,0,0,1,2.54-3.21c.29-.27.25-.49,0-.73-.5-.43-.87-.72-.86-1.38a2.89,2.89,0,0,1,2,0c2.24.58,4,5.82.74,3.4a.56.56,0,0,0-.41-.15.53.53,0,0,0-.29.25c-2,2.83-4.15,5.64-4.84,9.06-.27,1.34-1.42,2.24-2.34,3.19-3.08,3.17-7.07,5.25-10.91,7.46-3.55,2-6.33,4.51-10.18,6.08-9.24,3.78-17.31,8.33-22.14,17.12a9.15,9.15,0,0,0-.32,7.7c1.3,2.75,3.37,2.62,5.71,1.84l.44.82-1.53.76a8.07,8.07,0,0,1-2,.73c-4.5.94-6.27-6.59-5.49-9.54.14-.53-.08-.64-.59-.57a8.39,8.39,0,0,1-2.41,0c-.88,0-1.88,0-2.33-1.06-1.09-2.61-2-7.35.06-9.93.56-.7.26-.93-.38-1.11-1.58-.45-6.65-9.89-6-10.34a.35.35,0,0,1,.23-.07c.19,0,.33.21.45.34a19.76,19.76,0,0,1,1.44,1.9c1.1,1.59,2.09,3.25,3.11,4.89a4.92,4.92,0,0,0,2.37,2.2.75.75,0,0,0,.93-.16c1.68-1.52,3.38-3,5.07-4.54.4-.35,1.13-.65,1.07-1.09s-.88-.35-1.35-.54a83.48,83.48,0,0,0-12.17-3.67c-.26-.06-.54-.11-.81-.15-.79-.1-1.6-.12-2.39-.19q-8.43-.73-16.82-1.82a4,4,0,0,1-2.66-1.25c-2-2.22-3.93-4.44-5.94-6.63-3-3.25-6.61-5.82-10.12-8.5a32.59,32.59,0,0,0-3.77-2.4c-.14-.08-.29-.21-.46-.13s-.12.23-.09.36a43.59,43.59,0,0,0,1.25,4.69c4.93,13.06,15,20.84,23.93,31.09a42,42,0,0,0,7.28,6.7c7.59,5.39,15.83,9.6,23.47,14.87,4.34,3,9.28,5,13.71,7.87a32.91,32.91,0,0,0,3.92,2.19c2,.92,2.75.76,4.08-.65.35-.37.72-.73,1-1.13l.71.3C184.72,467.2,184.41,467.63,184.15,467.91ZM172.21,416.5a3.75,3.75,0,0,0,.8-1,4.4,4.4,0,0,0-1.41-1.72c-.23,0-.31.1-.28.28.17.77.35,1.53.54,2.29C171.9,416.48,172.06,416.66,172.21,416.5Z"/><path class="cls-5" d="M177.13,422.5a.44.44,0,0,1,0,.59c-.15.25-.38.18-.58.08a8.88,8.88,0,0,0-2.05-1.14c-.25-.05-.2-.28,0-.43a1.06,1.06,0,0,1,.87-.19A3.63,3.63,0,0,1,177.13,422.5Z"/><path class="cls-4" d="M193.25,394.24a34.59,34.59,0,0,0-5,7.27,1.3,1.3,0,0,1-.33.44,31.52,31.52,0,0,0-3.23,2.83c-.51.47-.87.53-1.33,0a2.66,2.66,0,0,1-.61-.92c-.12-.41-.34-.73-.8-.52s-.8.53-.64,1.06a3,3,0,0,0,.45.84c.84,1.19.76,1.67-.31,2.61a78.11,78.11,0,0,0-7,6.25c-.4.45-.65.44-1.06-.08-.65-.83-1.48-1.53-2.2-2.31a12.07,12.07,0,0,1-1.48-2.44c-.08-.14-.11-.33-.32-.28a.62.62,0,0,0-.53.63A4.61,4.61,0,0,0,169,411c.79,2,1.27,4.18,1.95,6.27a.83.83,0,0,1-.2.93c-.51.54-1,1.11-1.61,1.85a11.71,11.71,0,0,1,.14-1.38,15.29,15.29,0,0,0,.14-4.33c-.07-1.18-1-2-1.49-3a6,6,0,0,0-1-1.28c-.35-.38-.32-.61.17-.82a25.34,25.34,0,0,1,2.46-1.12c3.73-1.17,7-3.22,10.32-5.08,1.57-.87,3.07-1.85,4.65-2.71a53.6,53.6,0,0,0,7.57-5.6c.41-.33.85-.64,1.3-1C193.56,394,193.37,394.11,193.25,394.24Z"/><path class="cls-5" d="M169.08,384.37c-2.84,1.75-6.08,2.57-9.24,3.57-3,.93-5.92,2-9,2.73-1.12.27-2.24.51-3.16.72-.37-.06-.57,0-.65-.2s.07-.3.17-.41a2,2,0,0,1,1.09-.67,133.73,133.73,0,0,0,13.22-3.92c2.31-.77,4.58-1.66,6.93-2.35l.32-.09c.28-.09.67-.27.81,0S169.33,384.21,169.08,384.37Z"/><path class="cls-4" d="M166.83,421.43a2.6,2.6,0,0,1-2,2.54c-.19.05-.38.14-.55,0s0-.3.09-.45a4.21,4.21,0,0,0-.13-3.23c-1.23-2.34-3.47-3.52-5.8-4.59a1.27,1.27,0,0,0-1.12,0c-.26.14-.54.32-.55.64s.29.41.53.53a13.63,13.63,0,0,1,4.17,3.31,3.77,3.77,0,0,1,1,2.37c0,.61-.06.88-.82.61-1.88-.65-3.81-1.19-5.71-1.83-2.24-.76-1-1.28-1.73-3.16a1,1,0,0,0-1,.38,2.49,2.49,0,0,0-.25,1.36.46.46,0,0,1-.08.31c-.13.14-.36.09-.55,0a26.35,26.35,0,0,0-5-.8c-5.71-.55-11.43-1-17.11-1.79a2.78,2.78,0,0,1-1.79-.88C124,411.88,119.65,407,114.28,403c-3.88-2.94-8.54-5-11.93-8.47-5.85-6-6.87-15.47-8.47-23.15C91.93,362,91.31,351.85,95.33,343a43.12,43.12,0,0,0,3.73-22.43c-.33-3.31-.31-6.66-1.24-9.91-.08-.28,0-.62-.46-.59a.58.58,0,0,0-.54.63,6.79,6.79,0,0,1,0,1.18c-.19,1.2-.14,1.26-1,.66-1.07-.74-2.07-1.58-3.17-2.27-2.39-1.51-4.92-2.78-7.38-4.18s-5-3.11-7.56-4.63c-2.12-1.26-4.47-2-6.6-3.25A44,44,0,0,0,67,296c-18.37-8.12-47.76-23.2-67-29.62-2.7-.9-5.47-1.61-8.08-2.75L6.47,201.12c1.51.91,14.86,7.68,16.36,8.61,2.27,1.4,4.47,2.89,6.79,4.2,2.91,1.65,5.79,3.33,8.68,5q24.09,14,48,28.41c13.33,8,26.68,16,39.63,24.62,2.1,1.39,4.2,2.77,6.24,4.24,6.05,4.34,12.09,8.78,18.33,12.9,1.34.93,2.69,1.87,4,2.85,12.43,9.28,20.81,21.34,23.74,36.17,2.73,13.83,2.12,28.27,7.1,41.67.2.53.22,1.1,1.18,1.06-1.29,1.31-2.44,2.48-3.58,3.66-3.81,4-7.73,8.67-12.08,12.08-5.72,4.49-12.64,7.28-18.54,11.53-1.47,1.06-1.43,1.11-2.44-.35a2.78,2.78,0,0,1-.17-.35c-2.36-4.92-7-8.44-9.81-13.12a.87.87,0,0,1-.1-1c4.61-8.07,6.59-19.23,7.7-28.27,1.23-10,.58-20.29-3.39-29.69a13,13,0,0,0-1.43-2.82c-.15-.2-.31-.39-.61-.28a.49.49,0,0,0-.34.63c.14.56.23,1.13.4,1.68,5.33,17.1,3.95,37.46-2.71,54.12l-1.26,3.16c-.18-.14-.29-.19-.34-.28-1-1.52-6.21-9.59-8.19-5.44-.31.66.32.87.66,1.19,5.1,4.73,9.32,10.41,13.29,16,2.26,3.19,4.79,9.9,9.51,10.21s9.37,4.66,12.1,8S167.2,417.61,166.83,421.43Zm2.25-37.07c.25-.15.67-.29.53-.59s-.52-.12-.81,0l-.32.09c-2.34.69-4.62,1.57-6.93,2.35a133.73,133.73,0,0,1-13.22,3.92,2,2,0,0,0-1.09.67c-.1.12-.24.24-.17.41s.27.13.65.2c.92-.21,2-.45,3.16-.72,3-.73,6-1.79,9-2.73C163,386.94,166.24,386.11,169.08,384.37Z"/><path class="cls-4" d="M162.26,425.73c.06.45-.68.74-1.07,1.09-1.68,1.52-3.39,3-5.07,4.54a.75.75,0,0,1-.93.16,4.92,4.92,0,0,1-2.37-2.2c-1-1.64-2-3.3-3.11-4.89a19.76,19.76,0,0,0-1.44-1.9c-.12-.14-.27-.33-.45-.34l.11-.82c.28,0,.55.09.81.15a83.48,83.48,0,0,1,12.17,3.67C161.38,425.38,162.2,425.32,162.26,425.73Z"/><path class="cls-4" d="M147.59,422.25c-.63.45,4.43,9.89,6,10.34.64.18.95.42.38,1.11-2.1,2.58-1.14,7.32-.06,9.93.45,1.08,1.45,1.07,2.33,1.06a8.39,8.39,0,0,0,2.41,0c.51-.06.73,0,.59.57-.78,2.95,1,10.48,5.49,9.54a8.07,8.07,0,0,0,2-.73l1.53-.76.23-.11c.56-.28.76-.2.7.47a12.44,12.44,0,0,0-.17,3.22,2.33,2.33,0,0,0,.61,1.35,22.34,22.34,0,0,0,4.4,3.53,1.6,1.6,0,0,0,1.79-.11,4.45,4.45,0,0,1,1.52-.76l5.27-1.59a2,2,0,0,1,2.74,1.19c1,2.17.45,4.09-1,5.87-.32.4-.69.75-1,1.13-1.33,1.41-2.09,1.57-4.08.65a32.91,32.91,0,0,1-3.92-2.19c-4.43-2.84-9.36-4.88-13.71-7.87-7.65-5.27-15.88-9.48-23.47-14.87a42,42,0,0,1-7.28-6.7c-9-10.25-19-18-23.93-31.09a43.59,43.59,0,0,1-1.25-4.69c0-.12,0-.29.09-.36s.32,0,.46.13A32.59,32.59,0,0,1,110,403c3.51,2.69,7.14,5.25,10.12,8.5,2,2.19,4,4.41,5.94,6.63a4,4,0,0,0,2.66,1.25q8.39,1.1,16.82,1.82c.79.07,1.6.09,2.39.19l-.11.82A.35.35,0,0,0,147.59,422.25Z"/></g><path class="cls-6" d="M229.83,382.27c.9-9.95-6.72-18.7-17-19.56s-19.37,6.52-20.28,16.47c.9-9.95-6.72-18.7-17-19.56s-19.38,6.52-20.28,16.47c0,0-6.54,22.71,33.18,48.47C232.19,405.72,229.83,382.27,229.83,382.27Z"/></g></g></svg>