<?xml version="1.0" encoding="utf-8"?>
<!-- Generator: Adobe Illustrator 21.0.0, SVG Export Plug-In . SVG Version: 6.00 Build 0)  -->
<svg version="1.1" id="Layer_1" xmlns="http://www.w3.org/2000/svg" xmlns:xlink="http://www.w3.org/1999/xlink" x="0px" y="0px"
	 viewBox="0 0 182 20" style="enable-background:new 0 0 182 20;" xml:space="preserve">
<style type="text/css">
	.st0{fill:#FFFFFF;}
	.st1{enable-background:new    ;}
</style>
<title>playagain-02</title>
<polygon class="st0" points="2.3,9.7 0.3,13 3,13 4.4,13 7.3,13 17.4,13 17.4,6.5 7.4,6.4 4.4,6.4 3,6.4 0.3,6.4 "/>
<polygon class="st0" points="178,9.7 180,13 177.3,13 175.9,13 172.9,13 162.9,13 162.9,6.5 172.9,6.4 175.8,6.4 177.2,6.4 
	179.9,6.4 "/>
<g class="st1">
	<path class="st0" d="M23.8,16.5V1.4h6.7c0.9,0,1.7,0.3,2.4,1c0.7,0.7,1,1.4,1,2.4v1.7c0,0.9-0.3,1.7-1,2.4c-0.7,0.7-1.4,1-2.4,1
		h-3.4v6.7H23.8z M27.1,8.1h1.7c0.5,0,0.8-0.2,1.2-0.5c0.3-0.3,0.5-0.7,0.5-1.2V4.7c0-0.5-0.2-0.8-0.5-1.2c-0.3-0.3-0.7-0.5-1.2-0.5
		h-1.7V8.1z"/>
	<path class="st0" d="M38.8,16.5V1.4h3.3v13.4h5v1.7H38.8z"/>
	<path class="st0" d="M52.1,16.5V4.7c0-0.9,0.3-1.7,1-2.4c0.7-0.7,1.4-1,2.4-1h3.4c0.9,0,1.7,0.3,2.4,1c0.7,0.7,1,1.4,1,2.4v11.7
		h-3.3V9.8h-3.4v6.7H52.1z M55.4,8.1h3.4V4.7c0-0.5-0.2-0.8-0.5-1.2c-0.3-0.3-0.7-0.5-1.2-0.5c-0.5,0-0.9,0.2-1.2,0.5
		s-0.5,0.7-0.5,1.2V8.1z"/>
	<path class="st0" d="M70.4,16.5V9.8c-2.2-0.3-3.3-1.4-3.3-3.3v-5h3.3v5c0,0.5,0.2,0.8,0.5,1.2c0.3,0.3,0.7,0.5,1.2,0.5
		c0.5,0,0.8-0.2,1.2-0.5c0.3-0.3,0.5-0.7,0.5-1.2v-5h3.3v5c0,2-1.1,3.1-3.3,3.3v6.7H70.4z"/>
	<path class="st0" d="M88.6,16.5V4.7c0-0.9,0.3-1.7,1-2.4c0.7-0.7,1.4-1,2.4-1h3.4c0.9,0,1.7,0.3,2.4,1c0.7,0.7,1,1.4,1,2.4v11.7
		h-3.3V9.8h-3.4v6.7H88.6z M91.9,8.1h3.4V4.7c0-0.5-0.2-0.8-0.5-1.2c-0.3-0.3-0.7-0.5-1.2-0.5c-0.5,0-0.9,0.2-1.2,0.5
		c-0.3,0.3-0.5,0.7-0.5,1.2V8.1z"/>
	<path class="st0" d="M108.6,8.1h5v5c0,1.1-0.4,1.9-1.1,2.5s-1.5,0.8-2.3,0.8h-3.4c-0.9,0-1.7-0.3-2.4-1c-0.7-0.7-1-1.4-1-2.4V4.7
		c0-0.9,0.3-1.7,1-2.3c0.6-0.7,1.4-1,2.4-1h3.4c2.1,0,3.2,1.1,3.3,3.3h-1.7c-0.1-1.1-0.7-1.7-1.7-1.7h-1.7c-0.5,0-0.9,0.2-1.2,0.5
		c-0.3,0.3-0.5,0.7-0.5,1.2v8.4c0,0.5,0.2,0.9,0.5,1.2c0.3,0.3,0.7,0.5,1.2,0.5c1.1-0.1,1.6-0.6,1.7-1.7V9.8h-1.7V8.1z"/>
	<path class="st0" d="M118.6,16.5V4.7c0-0.9,0.3-1.7,1-2.4c0.7-0.7,1.4-1,2.4-1h3.4c0.9,0,1.7,0.3,2.4,1c0.7,0.7,1,1.4,1,2.4v11.7
		h-3.3V9.8h-3.4v6.7H118.6z M121.9,8.1h3.4V4.7c0-0.5-0.2-0.8-0.5-1.2c-0.3-0.3-0.7-0.5-1.2-0.5c-0.5,0-0.9,0.2-1.2,0.5
		c-0.3,0.3-0.5,0.7-0.5,1.2V8.1z"/>
	<path class="st0" d="M135.2,16.5V1.4h3.4v15.1H135.2z"/>
	<path class="st0" d="M145.2,16.5V1.4h0.8l9.3,8.4V1.4h1.7v15.1h-0.8l-9.3-8.4v8.4H145.2z"/>
</g>
</svg>
