<?xml version="1.0" encoding="utf-8"?>
<!-- Generator: Adobe Illustrator 21.0.0, SVG Export Plug-In . SVG Version: 6.00 Build 0)  -->
<svg version="1.1" id="Layer_1" xmlns="http://www.w3.org/2000/svg" xmlns:xlink="http://www.w3.org/1999/xlink" x="0px" y="0px"
	 viewBox="0 0 61 484" style="enable-background:new 0 0 61 484;" xml:space="preserve">
<style type="text/css">
	.st0{fill:#988CA0;}
	.st1{fill:#C3BACE;}
	.st2{enable-background:new    ;}
	.st3{fill:#FFFFFF;}
</style>
<title>title-encourage</title>
<g id="Layer_11">
	<rect class="st0" width="61" height="483.9"/>
</g>
<g id="勵志">
	<g>
		<rect x="29.5" class="st1" width="1" height="170"/>
	</g>
	<g>
		<rect x="29.5" y="311" class="st1" width="1" height="171"/>
	</g>
	<g class="st2">
		<path class="st3" d="M18.8,236.5c-0.4,0-0.7-0.3-0.7-0.7c0-0.1,0-0.2,0.1-0.4c1.9-3,2.2-7.8,2.2-12.1c0-1.4-0.1-2.8-0.1-4v-0.1
			c0-1.7,1.1-2.9,3.2-2.9h2.6c2.2,0,4.5,0,6.7,0c0.4,0,0.6,0.3,0.6,0.6c0,0.3-0.2,0.6-0.7,0.6c-1.5,0-3.2,0-4.8,0s-3.1,0-4.3,0
			c-1.4,0-2,0.6-2,1.8c0,1,0,2.1,0,3.3c0,4.5-0.2,10-2.3,13.3C19.3,236.3,19,236.5,18.8,236.5z M30,220.6v0.8c0,0.4-0.3,0.5-0.6,0.5
			c-0.3,0-0.6-0.2-0.6-0.5v-0.8h-2.5v0.8c0,0.4-0.3,0.5-0.6,0.5c-0.3,0-0.6-0.2-0.6-0.5v-0.8l-2.3,0c-0.3,0-0.5-0.3-0.5-0.5
			c0-0.3,0.2-0.5,0.5-0.5l2.3,0v-1c0-0.3,0.3-0.5,0.6-0.5c0.3,0,0.6,0.2,0.6,0.5v1h2.5v-1c0-0.3,0.3-0.5,0.6-0.5
			c0.3,0,0.6,0.2,0.6,0.5v1l2.4,0c0.4,0,0.5,0.2,0.5,0.5c0,0.2-0.2,0.5-0.5,0.5L30,220.6z M23.7,237.1c0,0.4-0.3,0.6-0.6,0.6
			c-0.3,0-0.6-0.2-0.6-0.6c0-2,0-4.2,0-5.9c0-1.1,0.5-1.7,1.9-1.8c0.4,0,1.4,0,2.5,0v-1.2c-2.5,0-3.6,0-3.7-1.4c0-0.4,0-1,0-1.5
			c0-0.5,0-1.1,0-1.6c0.1-1.5,1.1-1.5,4.4-1.5c0.9,0,1.7,0,2.6,0.1c1.1,0,1.6,0.6,1.6,1.3c0,0.5,0.1,1,0.1,1.6c0,2.9-0.1,3-3.8,3
			v1.2c1.1,0,2.2,0,2.6,0c1.2,0.1,1.8,0.6,1.9,1.8c0,0.9,0,1.9,0.1,2.8v0.1c0,1.1-0.3,2.3-2.1,2.3c-0.6,0-1.7,0-1.7-0.7
			c0-0.3,0.2-0.6,0.5-0.6c0.1,0,0.1,0,0.1,0c0.4,0.1,0.8,0.2,1,0.2c0.7,0,0.9-0.4,0.9-1.4c0-0.8,0-1.7,0-2.5c0-0.6-0.2-1.1-1-1.1H28
			v2.2c0.5-0.1,1-0.2,1.4-0.3c-0.1-0.2-0.2-0.4-0.4-0.6c-0.1-0.1-0.1-0.1-0.1-0.2c0-0.2,0.2-0.3,0.4-0.3c0.6,0,1.5,2.3,1.5,2.5
			c0,0.3-0.2,0.5-0.5,0.5c-0.2,0-0.3-0.1-0.4-0.3c-0.1-0.2-0.1-0.5-0.2-0.7c-1.3,0.4-4.7,1.2-5,1.2c-0.4,0-0.5-0.3-0.5-0.6
			c0-0.2,0.1-0.5,0.4-0.5c0.6-0.1,1.4-0.2,2.3-0.4v-2.4h-2.2c-0.8,0-1,0.4-1,1.1c0,1-0.1,2.5-0.1,3.9
			C23.7,235.9,23.7,236.5,23.7,237.1L23.7,237.1z M26.9,223.2c-0.6,0-1.2,0-1.7,0c-1,0.1-1,0.6-1,1.6h2.6V223.2z M26.9,225.7h-2.6
			c0,0.4,0,0.7,0,1c0.1,0.7,0.6,0.7,2.6,0.7V225.7z M30.7,224.9c0-0.3,0-0.6,0-0.9c0-0.5-0.3-0.7-0.9-0.7c-0.5,0-1.1,0-1.7,0v1.6
			H30.7z M28,225.7v1.7c2.3,0,2.6,0,2.6-0.7c0-0.3,0-0.6,0-1H28z M36.1,216.1c0-0.4,0.4-0.7,0.7-0.7c0.3,0,0.7,0.2,0.7,0.7l-0.1,4.9
			c0.6,0,1.2,0,1.8,0c1.4,0,2.4,1,2.5,2.5c0,1.4,0.1,2.8,0.1,4.2c0,5.1-0.5,9.9-4.3,9.9c-0.6,0-1.3-0.1-2-0.4
			c-0.3-0.1-0.4-0.4-0.4-0.7c0-0.4,0.2-0.8,0.6-0.8c0.1,0,0.2,0,0.3,0.1c0.5,0.2,1.1,0.4,1.6,0.4c2.4,0,2.9-3.8,2.9-8.8
			c0-1.3,0-2.5-0.1-3.7c0-1.5-1.1-1.5-2.4-1.5h-0.5c-0.1,5.6-0.8,11.7-5.2,15.9c-0.2,0.2-0.4,0.3-0.6,0.3c-0.4,0-0.7-0.3-0.7-0.7
			c0-0.2,0.1-0.4,0.2-0.5c4.3-4.1,4.8-9.7,4.9-14.9c-1,0-2,0.1-3,0.1c-0.4,0-0.6-0.3-0.6-0.6c0-0.3,0.2-0.6,0.6-0.6c1,0,2-0.1,3-0.1
			V216.1z"/>
	</g>
	<g class="st2">
		<path class="st3" d="M19.2,269.4c0-0.2,0.1-0.4,0.4-0.6c1-0.6,2.5-2.3,2.9-3.7c0.1-0.3,0.4-0.5,0.6-0.5c0.4,0,0.8,0.3,0.8,0.7
			c0,1.1-2.5,4.8-3.9,4.8C19.5,270.1,19.2,269.8,19.2,269.4z M21.8,259.5c-0.4,0-0.7-0.3-0.7-0.7c0-0.3,0.2-0.7,0.7-0.7l8.1,0v-4.5
			h-9.6c-0.4,0-0.7-0.3-0.7-0.7c0-0.3,0.2-0.6,0.7-0.6h9.6v-3.5c0-0.5,0.4-0.7,0.8-0.7c0.4,0,0.8,0.2,0.8,0.7v3.5H41
			c0.4,0,0.6,0.3,0.6,0.6c0,0.3-0.2,0.7-0.6,0.7h-9.5l0,4.5l8,0c0.4,0,0.6,0.3,0.6,0.7c0,0.3-0.2,0.7-0.6,0.7H21.8z M27.5,263.6
			c0,1-0.1,2.7-0.1,3.8c0,2.1,0.4,2.4,3.5,2.4c3.1,0,4.1-0.6,4.1-2.6c0-0.4,0.4-0.7,0.7-0.7c0.4,0,0.8,0.2,0.8,0.7
			c0,3.6-2.9,3.8-5.9,3.8c-2.3,0-4.6-0.1-4.6-2.9c0-1.2,0-3.3,0.1-4.6c0-0.4,0.4-0.6,0.7-0.6C27.2,263,27.5,263.2,27.5,263.6
			L27.5,263.6z M32.7,264.5c-0.9-1-2.2-1.9-3.3-2.3c-0.3-0.1-0.4-0.3-0.4-0.5c0-0.3,0.2-0.6,0.7-0.6c0.5,0,4.2,1.8,4.2,2.9
			c0,0.4-0.4,0.8-0.7,0.8C33,264.8,32.9,264.7,32.7,264.5z M41.1,268.8c-1-1.5-2.2-2.7-3.8-3.6c-0.2-0.1-0.3-0.3-0.3-0.4
			c0-0.4,0.3-0.7,0.7-0.7c0.8,0,4.8,3,4.8,4.2c0,0.5-0.4,0.8-0.8,0.8C41.5,269.2,41.3,269.1,41.1,268.8z"/>
	</g>
</g>
</svg>
