<?xml version="1.0" encoding="utf-8"?>
<!-- Generator: Adobe Illustrator 21.0.0, SVG Export Plug-In . SVG Version: 6.00 Build 0)  -->
<svg version="1.1" id="Layer_1" xmlns="http://www.w3.org/2000/svg" xmlns:xlink="http://www.w3.org/1999/xlink" x="0px" y="0px"
	 viewBox="0 0 600 83" style="enable-background:new 0 0 600 83;" xml:space="preserve">
<style type="text/css">
	.st0{fill:#76A99D;}
	.st1{fill:none;stroke:#A2D7C9;stroke-miterlimit:10;}
	.st2{enable-background:new    ;}
	.st3{fill:#FFFFFF;}
</style>
<title>title-friend-small</title>
<rect x="-0.5" y="0.5" class="st0" width="600.5" height="83"/>
<line class="st1" x1="-0.5" y1="42.9" x2="225.9" y2="42.9"/>
<line class="st1" x1="372.1" y1="42.9" x2="600.5" y2="42.9"/>
<g class="st2">
	<path class="st3" d="M284,38.2c-0.2,0.9-0.3,1.8-0.6,2.6c1.5,0,4.1,0,5.1,0h0.1c1,0,1.6,0.5,1.6,1.2s-0.9,3-2.9,5
		c1.7,1.4,3.8,2.5,6,3c0.3,0.1,0.5,0.3,0.5,0.5c0,0.3-0.2,0.6-0.6,0.6c-0.4,0-3.5-0.6-6.6-3.4c-2.9,2.7-5.9,3.5-6.3,3.5
		c-0.3,0-0.6-0.3-0.6-0.6c0-0.2,0.1-0.4,0.4-0.5c2.2-0.5,4.2-1.6,5.8-3.1c-1.3-1.3-2.4-2.9-3.1-4.4c-1.1,3.2-2.9,5.9-5.2,7.7
		c-0.2,0.1-0.3,0.2-0.5,0.2c-0.3,0-0.6-0.2-0.6-0.5c0-0.2,0.1-0.3,0.3-0.5c3.5-2.6,5.4-6.9,6.1-11.4h-5.3c-0.3,0-0.5-0.2-0.5-0.5
		c0-0.3,0.2-0.5,0.5-0.5h5.4c0.1-1,0.2-1.9,0.2-2.9c0-0.3,0.3-0.5,0.6-0.5s0.6,0.2,0.6,0.5c0,0.4-0.2,2.5-0.3,2.9h8.8
		c0.3,0,0.5,0.2,0.5,0.5s-0.2,0.5-0.5,0.5H284z M289,42.3c0-0.3-0.2-0.5-0.6-0.5h-5c0.7,1.7,1.8,3.3,3.2,4.6
		C288.3,44.6,289,42.6,289,42.3z"/>
	<path class="st3" d="M308.4,42.1c0-0.1,0-0.2,0.1-0.4c0.6-0.9,0.9-2.2,0.9-3.3c0-0.3,0.2-0.5,0.4-0.5c0.2,0,0.5,0.1,0.5,0.6
		c0,0.9-0.5,4-1.5,4C308.6,42.6,308.4,42.4,308.4,42.1z M311.5,34.6c0-0.3,0.3-0.5,0.5-0.5c0.3,0,0.5,0.2,0.5,0.5v16.2
		c0,0.3-0.3,0.5-0.5,0.5c-0.3,0-0.5-0.2-0.5-0.5V34.6z M314.3,39.3c-0.3-0.7-1-1.5-1.2-1.7c-0.1-0.1-0.1-0.2-0.1-0.2
		c0-0.2,0.2-0.4,0.5-0.4c0.5,0,1.8,1.6,1.8,2.1c0,0.3-0.3,0.6-0.5,0.6C314.5,39.6,314.4,39.5,314.3,39.3z M315,41
		c-0.3,0-0.5-0.2-0.5-0.4c0-0.2,0.2-0.4,0.4-0.4l4.8,0v-1.5l-3.4,0c-0.3,0-0.4-0.2-0.4-0.4s0.2-0.4,0.4-0.4l3.4,0v-1.3h-4.1
		c-0.3,0-0.4-0.2-0.4-0.4c0-0.2,0.2-0.5,0.5-0.5h4.1v-1.3c0-0.3,0.3-0.5,0.5-0.5s0.5,0.2,0.5,0.5v1.3h4.3c0.3,0,0.4,0.2,0.4,0.4
		c0,0.2-0.1,0.4-0.4,0.4h-4.3v1.3l3.3,0c0.3,0,0.4,0.2,0.4,0.4c0,0.2-0.1,0.4-0.4,0.4l-3.4,0v1.5l5.1,0c0.3,0,0.4,0.2,0.4,0.4
		c0,0.2-0.1,0.4-0.4,0.4H315z M323.3,47.8h-6c0,1.1,0,2.3,0,3.2v0c0,0.3-0.2,0.5-0.5,0.5c-0.3,0-0.5-0.2-0.5-0.5c0-1.1,0-2.3,0-3.6
		s0-2.5,0-3.5c0-1,0.5-1.6,1.9-1.6c0.7,0,1.3,0,2,0c0.7,0,1.4,0,2.1,0c1.3,0,1.9,0.6,1.9,1.5c0,0.3,0,3.2,0,3.8c0,0.7,0,1.1,0,1.7
		v0.1c0,0.9-0.3,1.8-2.1,1.8c-1,0-1.8-0.1-1.8-0.6c0-0.2,0.2-0.5,0.5-0.5c0,0,0.1,0,0.1,0c0.4,0.1,0.8,0.1,1.2,0.1
		c0.7,0,1.1-0.3,1.1-1.1V47.8z M317.4,45.4V47h6c0-0.5,0-1,0-1.6H317.4z M323.3,44.6c0-0.2,0-0.5,0-0.7c0-0.5-0.3-0.9-1.1-0.9
		c-0.6,0-1.3,0-1.9,0s-1.3,0-1.8,0c-0.8,0-1.1,0.4-1.1,0.9l0,0.7H323.3z"/>
</g>
</svg>
