<?xml version="1.0" encoding="utf-8"?>
<!-- Generator: Adobe Illustrator 21.0.0, SVG Export Plug-In . SVG Version: 6.00 Build 0)  -->
<svg version="1.1" id="Layer_1" xmlns="http://www.w3.org/2000/svg" xmlns:xlink="http://www.w3.org/1999/xlink" x="0px" y="0px"
	 viewBox="0 0 600 83" style="enable-background:new 0 0 600 83;" xml:space="preserve">
<style type="text/css">
	.st0{fill:#988CA0;}
	.st1{fill:none;stroke:#C3BACE;stroke-miterlimit:10;}
	.st2{enable-background:new    ;}
	.st3{fill:#FFFFFF;}
</style>
<title>title-encourage-small</title>
<rect x="-0.5" y="0.5" class="st0" width="600.5" height="83"/>
<line class="st1" x1="-0.5" y1="42.9" x2="225.9" y2="42.9"/>
<line class="st1" x1="372.1" y1="42.9" x2="600.5" y2="42.9"/>
<g class="st2">
	<path class="st3" d="M276.6,49.7c-0.3,0-0.5-0.2-0.5-0.5c0-0.1,0-0.2,0.1-0.3c1.4-2.2,1.6-5.8,1.6-8.9c0-1,0-2,0-2.9v0
		c0-1.3,0.8-2.1,2.4-2.1h1.9c1.6,0,3.3,0,4.9,0c0.3,0,0.5,0.2,0.5,0.4c0,0.2-0.2,0.5-0.5,0.5c-1.1,0-2.3,0-3.5,0s-2.3,0-3.2,0
		c-1,0-1.5,0.5-1.5,1.3c0,0.7,0,1.5,0,2.4c0,3.4-0.2,7.4-1.7,9.8C276.9,49.6,276.7,49.7,276.6,49.7z M284.8,38.1v0.6
		c0,0.3-0.2,0.4-0.4,0.4c-0.2,0-0.4-0.1-0.4-0.4v-0.6h-1.8v0.6c0,0.3-0.2,0.4-0.4,0.4c-0.2,0-0.4-0.1-0.4-0.4v-0.6l-1.7,0
		c-0.2,0-0.4-0.2-0.4-0.4c0-0.2,0.1-0.4,0.4-0.4l1.7,0v-0.8c0-0.2,0.2-0.4,0.4-0.4c0.2,0,0.4,0.1,0.4,0.4v0.8h1.8v-0.8
		c0-0.2,0.2-0.4,0.4-0.4c0.2,0,0.4,0.1,0.4,0.4v0.8l1.8,0c0.3,0,0.4,0.2,0.4,0.4c0,0.2-0.1,0.4-0.4,0.4L284.8,38.1z M280.2,50.2
		c0,0.3-0.2,0.4-0.5,0.4c-0.2,0-0.5-0.1-0.5-0.4c0-1.5,0-3.1,0-4.4c0-0.8,0.4-1.2,1.4-1.3c0.3,0,1,0,1.8,0v-0.9c-1.8,0-2.7,0-2.7-1
		c0-0.3,0-0.7,0-1.1c0-0.4,0-0.8,0-1.1c0-1.1,0.8-1.1,3.2-1.1c0.6,0,1.3,0,1.9,0c0.8,0,1.2,0.5,1.2,1c0,0.3,0,0.7,0,1.1
		c0,2.2-0.1,2.2-2.8,2.2v0.9c0.8,0,1.6,0,1.9,0c0.9,0,1.3,0.4,1.4,1.3c0,0.7,0,1.4,0,2.1v0.1c0,0.8-0.2,1.7-1.5,1.7
		c-0.4,0-1.2,0-1.2-0.5c0-0.2,0.2-0.5,0.4-0.5c0,0,0.1,0,0.1,0c0.3,0.1,0.6,0.1,0.7,0.1c0.5,0,0.6-0.3,0.6-1c0-0.6,0-1.2,0-1.8
		c0-0.4-0.2-0.8-0.7-0.8h-1.7v1.6c0.4-0.1,0.7-0.2,1-0.2c-0.1-0.2-0.2-0.3-0.3-0.4c0-0.1,0-0.1,0-0.2c0-0.1,0.1-0.2,0.3-0.2
		c0.5,0,1.1,1.7,1.1,1.8c0,0.2-0.2,0.4-0.3,0.4c-0.1,0-0.2-0.1-0.3-0.2c0-0.2-0.1-0.3-0.2-0.5c-1,0.3-3.5,0.9-3.7,0.9
		c-0.3,0-0.4-0.2-0.4-0.4c0-0.2,0.1-0.3,0.3-0.4c0.4-0.1,1-0.2,1.7-0.3v-1.8H281c-0.6,0-0.7,0.3-0.7,0.8c0,0.8,0,1.8,0,2.9
		C280.2,49.3,280.2,49.8,280.2,50.2L280.2,50.2z M282.6,40c-0.5,0-0.9,0-1.2,0c-0.7,0-0.7,0.5-0.7,1.2h1.9V40z M282.6,41.8h-1.9
		c0,0.3,0,0.5,0,0.7c0,0.5,0.5,0.5,1.9,0.5V41.8z M285.4,41.2c0-0.2,0-0.5,0-0.7c0-0.4-0.2-0.5-0.7-0.5c-0.3,0-0.8,0-1.3,0v1.2
		H285.4z M283.4,41.8V43c1.7,0,1.9,0,1.9-0.5c0-0.2,0-0.5,0-0.7H283.4z M289.3,34.7c0-0.3,0.3-0.5,0.5-0.5c0.2,0,0.5,0.2,0.5,0.5
		l0,3.6c0.4,0,0.9,0,1.3,0c1.1,0,1.8,0.7,1.8,1.9c0,1,0,2.1,0,3.1c0,3.7-0.4,7.3-3.2,7.3c-0.5,0-1-0.1-1.5-0.3
		c-0.2-0.1-0.3-0.3-0.3-0.5c0-0.3,0.2-0.6,0.4-0.6c0.1,0,0.2,0,0.2,0.1c0.4,0.2,0.8,0.3,1.1,0.3c1.8,0,2.2-2.8,2.2-6.5
		c0-0.9,0-1.9,0-2.7c0-1.1-0.8-1.1-1.7-1.1h-0.4c-0.1,4.1-0.6,8.6-3.9,11.7c-0.1,0.1-0.3,0.2-0.4,0.2c-0.3,0-0.5-0.2-0.5-0.5
		c0-0.1,0.1-0.3,0.2-0.4c3.2-3,3.5-7.2,3.6-11c-0.7,0-1.5,0.1-2.2,0.1c-0.3,0-0.4-0.2-0.4-0.4c0-0.2,0.1-0.5,0.4-0.5
		c0.7,0,1.5,0,2.2-0.1V34.7z"/>
	<path class="st3" d="M309,49.7c0-0.2,0.1-0.3,0.3-0.4c0.8-0.4,1.9-1.7,2.2-2.7c0.1-0.2,0.3-0.3,0.4-0.3c0.3,0,0.6,0.2,0.6,0.5
		c0,0.8-1.9,3.6-2.9,3.6C309.2,50.2,309,49.9,309,49.7z M310.9,42.4c-0.3,0-0.5-0.2-0.5-0.5s0.2-0.5,0.5-0.5l6,0v-3.4h-7.1
		c-0.3,0-0.5-0.2-0.5-0.5c0-0.2,0.2-0.5,0.5-0.5h7.1v-2.6c0-0.3,0.3-0.5,0.6-0.5s0.6,0.2,0.6,0.5v2.6h7c0.3,0,0.5,0.2,0.5,0.5
		c0,0.2-0.2,0.5-0.5,0.5h-7l0,3.4l5.9,0c0.3,0,0.5,0.2,0.5,0.5s-0.2,0.5-0.5,0.5H310.9z M315.2,45.4c0,0.7,0,2,0,2.8
		c0,1.5,0.3,1.8,2.6,1.8c2.3,0,3-0.5,3.1-1.9c0-0.3,0.3-0.5,0.5-0.5c0.3,0,0.6,0.2,0.6,0.5c0,2.6-2.1,2.8-4.4,2.8
		c-1.7,0-3.4-0.1-3.4-2.1c0-0.9,0-2.5,0-3.4c0-0.3,0.3-0.4,0.5-0.4C314.9,45,315.2,45.1,315.2,45.4L315.2,45.4z M319,46.1
		c-0.6-0.7-1.6-1.4-2.4-1.7c-0.2-0.1-0.3-0.2-0.3-0.4c0-0.2,0.2-0.4,0.5-0.4c0.4,0,3.1,1.3,3.1,2.2c0,0.3-0.3,0.6-0.5,0.6
		C319.2,46.3,319.1,46.2,319,46.1z M325.2,49.2c-0.7-1.1-1.6-2-2.8-2.7c-0.1-0.1-0.2-0.2-0.2-0.3c0-0.3,0.2-0.5,0.5-0.5
		c0.6,0,3.5,2.2,3.5,3.1c0,0.3-0.3,0.6-0.6,0.6C325.5,49.5,325.3,49.4,325.2,49.2z"/>
</g>
</svg>
