<?xml version="1.0" encoding="utf-8"?>
<!-- Generator: Adobe Illustrator 21.0.0, SVG Export Plug-In . SVG Version: 6.00 Build 0)  -->
<svg version="1.1" id="Layer_1" xmlns="http://www.w3.org/2000/svg" xmlns:xlink="http://www.w3.org/1999/xlink" x="0px" y="0px"
	 viewBox="0 0 61 484" style="enable-background:new 0 0 61 484;" xml:space="preserve">
<style type="text/css">
	.st0{fill:#FFC0A2;}
	.st1{fill:#F7E6DF;}
	.st2{enable-background:new    ;}
	.st3{fill:#FFFFFF;}
</style>
<title>title-love</title>
<g id="Layer_11">
	<rect x="-1" class="st0" width="62" height="483.9"/>
</g>
<g id="愛情">
	<g>
		<rect x="27.5" class="st1" width="1" height="229"/>
	</g>
	<g>
		<rect x="27.5" y="373" class="st1" width="1" height="109"/>
	</g>
	<g class="st2">
		<path class="st3" d="M39.5,299.2c0,0.7-0.7,0.8-1.5,0.8c-3.5,0-6.5-0.8-8.9-2c-4.2,2.2-8.5,2.5-8.5,2.5c-0.4,0-0.7-0.3-0.7-0.7
			c0-0.3,0.2-0.6,0.7-0.6c2.5-0.2,5.1-0.9,7.3-2c-1.3-0.9-2.3-1.9-3.1-3c-3.4,3-6.3,4.4-6.8,4.4c-0.4,0-0.6-0.3-0.6-0.6
			c0-0.2,0.1-0.4,0.4-0.6c2.6-1.1,5.7-3.3,8.4-6.3c0.2-0.2,0.4-0.3,0.6-0.3c0.4,0,0.7,0.3,0.7,0.6c0,0.2-0.1,0.4-0.9,1.1
			c1.8,0,4.8-0.1,5.3-0.1H32c1.2,0,1.8,0.6,1.8,1.3c0,1-1.4,2.3-3.4,3.5c2,0.9,4.5,1.4,7.7,1.4h0.8
			C39.3,298.6,39.5,298.9,39.5,299.2z M37.9,285.2c0-0.8-0.5-1.3-2.2-1.3c-2,0-4.6-0.1-7.2-0.1c-2.6,0-5.2,0-7,0.1
			c-1.8,0-2.2,0.5-2.2,1.4v1.8c0,0.4-0.4,0.6-0.7,0.6c-0.7,0-0.7-0.3-0.7-1.7c0-1.7,0.1-3.2,3-3.2c0.9,0,1.8,0,2.7,0
			c-0.1-0.1-0.1-0.1-0.2-0.3c-0.3-0.8-0.7-1.4-1.1-2c-0.1-0.1-0.1-0.2-0.1-0.2c0-0.3,0.4-0.5,0.7-0.5c0.9,0,1.7,2.3,1.7,2.4
			c0,0.3-0.2,0.5-0.4,0.6c1.3,0,2.8,0,4.1,0c-0.1-0.1-0.3-0.2-0.3-0.4c-0.2-0.8-0.6-1.5-0.8-2.1c0-0.1-0.1-0.2-0.1-0.2
			c0-0.3,0.3-0.5,0.7-0.5c1,0,1.5,2.5,1.5,2.5c0,0.3-0.3,0.6-0.5,0.7c1.1,0,2.1,0,3.2,0l0-0.1c0.5-0.9,1.1-2.2,1.3-3.4
			c0.1-0.3,0.3-0.4,0.6-0.4c0.4,0,0.8,0.2,0.8,0.6c0,0.2-0.5,1.8-1.4,3.3c1,0,1.9,0,2.8,0c2.2,0,3.2,0.8,3.3,2.1c0,0.2,0,0.6,0,1
			c0,1.4-0.1,1.7-0.8,1.7c-0.4,0-0.7-0.2-0.7-0.6V285.2z M19,290.2c0-0.2,0.1-0.4,0.4-0.6c1.1-0.6,2.1-1.8,2.5-2.9
			c0.1-0.3,0.4-0.5,0.6-0.5c0.3,0,0.7,0.2,0.7,0.6c0,1.1-2.3,4-3.5,4C19.2,290.9,19,290.6,19,290.2z M20.2,279.5
			c-0.4,0-0.7-0.3-0.7-0.6s0.2-0.6,0.6-0.6c4.9-0.1,10.3-0.4,15.6-1.2c0.1,0,0.1,0,0.2,0c0.4,0,0.7,0.3,0.7,0.6
			c0,0.3-0.2,0.5-0.5,0.6C29.6,279.3,20.3,279.5,20.2,279.5z M25.8,288.1c0,1,0.4,1.3,2.6,1.3c2.7,0,3.6,0,3.7-1.9
			c0-0.4,0.3-0.5,0.6-0.5c0.4,0,0.7,0.2,0.7,0.6c0,2.6-1.2,3-5.1,3c-2.5,0-3.8-0.3-3.8-2.3c0-2.8,0-3.1,0.7-3.1
			c0.3,0,0.6,0.2,0.6,0.5V288.1z M32.2,293.9c0-0.2-0.3-0.4-0.7-0.4c-0.8,0-3.8,0.1-5.6,0.1c0.8,1.1,1.9,2.2,3.3,3
			C30.5,295.8,32.2,294.5,32.2,293.9z M29.6,287.4c-0.8-1-1.9-1.7-2.3-2c-0.1-0.1-0.2-0.2-0.2-0.3c0-0.3,0.3-0.6,0.7-0.6
			c0.5,0,3,1.7,3,2.4c0,0.4-0.4,0.7-0.7,0.7C29.9,287.6,29.7,287.5,29.6,287.4z M36.7,289.8c-0.7-1.1-1.7-2-2.5-2.8
			c-0.2-0.1-0.2-0.3-0.2-0.4c0-0.3,0.3-0.6,0.7-0.6c0.7,0,3.4,2.6,3.4,3.5c0,0.4-0.3,0.7-0.7,0.7C37.1,290.3,36.9,290.1,36.7,289.8z
			"/>
	</g>
	<g class="st2">
		<path class="st3" d="M16.3,321.1c0-0.1,0.1-0.3,0.2-0.5c0.8-1.3,1.2-3,1.2-4.5c0-0.4,0.3-0.6,0.6-0.6c0.3,0,0.7,0.1,0.7,0.8
			c0,1.2-0.7,5.4-2,5.4C16.7,321.7,16.3,321.5,16.3,321.1z M20.6,310.9c0-0.5,0.4-0.7,0.7-0.7c0.4,0,0.7,0.2,0.7,0.7v22
			c0,0.4-0.4,0.7-0.7,0.7c-0.4,0-0.7-0.2-0.7-0.7V310.9z M24.3,317.3c-0.5-1-1.3-2-1.7-2.3c-0.1-0.1-0.1-0.2-0.1-0.3
			c0-0.3,0.3-0.6,0.7-0.6c0.7,0,2.4,2.2,2.4,2.9c0,0.4-0.4,0.8-0.7,0.8C24.7,317.7,24.5,317.6,24.3,317.3z M25.4,319.7
			c-0.4,0-0.6-0.3-0.6-0.6c0-0.3,0.2-0.6,0.6-0.6l6.5,0v-2.1l-4.6,0c-0.4,0-0.6-0.3-0.6-0.5c0-0.3,0.2-0.6,0.6-0.6l4.6,0v-1.8h-5.6
			c-0.4,0-0.6-0.3-0.6-0.5c0-0.3,0.2-0.6,0.6-0.6h5.6v-1.8c0-0.5,0.4-0.7,0.7-0.7c0.4,0,0.7,0.2,0.7,0.7v1.8h5.9
			c0.4,0,0.6,0.3,0.6,0.6c0,0.3-0.2,0.6-0.6,0.6h-5.9v1.8l4.5,0c0.4,0,0.6,0.3,0.6,0.5c0,0.3-0.2,0.6-0.6,0.6l-4.5,0v2.1l6.9,0
			c0.4,0,0.6,0.3,0.6,0.6c0,0.3-0.2,0.6-0.6,0.6H25.4z M36.6,328.8h-8.1c0,1.5,0,3.1,0.1,4.3v0c0,0.4-0.3,0.6-0.7,0.6
			s-0.7-0.2-0.7-0.7c0-1.5,0-3.2,0-4.8s0-3.3,0-4.8c0-1.3,0.7-2.1,2.6-2.2c0.9,0,1.8-0.1,2.8-0.1s1.9,0,2.8,0.1
			c1.7,0.1,2.6,0.8,2.6,2c0,0.4,0,4.3,0.1,5.2c0,0.9,0,1.5,0,2.3v0.1c0,1.2-0.4,2.5-2.9,2.5c-1.4,0-2.4-0.2-2.4-0.9
			c0-0.3,0.2-0.7,0.6-0.7c0.1,0,0.1,0,0.2,0c0.6,0.1,1.1,0.2,1.6,0.2c0.9,0,1.5-0.4,1.5-1.5V328.8z M28.5,325.6v2.1h8.1
			c0-0.7,0-1.4,0-2.1H28.5z M36.5,324.5c0-0.3,0-0.6,0-0.9c0-0.7-0.4-1.2-1.5-1.2c-0.8,0-1.7,0-2.6,0s-1.8,0-2.4,0
			c-1.1,0-1.4,0.6-1.4,1.2l0,0.9H36.5z"/>
	</g>
</g>
</svg>
