<?xml version="1.0" encoding="utf-8"?>
<!-- Generator: Adobe Illustrator 21.0.0, SVG Export Plug-In . SVG Version: 6.00 Build 0)  -->
<svg version="1.1" id="Layer_1" xmlns="http://www.w3.org/2000/svg" xmlns:xlink="http://www.w3.org/1999/xlink" x="0px" y="0px"
	 viewBox="0 0 61 484" style="enable-background:new 0 0 61 484;" xml:space="preserve">
<style type="text/css">
	.st0{fill:#76A99D;}
	.st1{fill:#A2D7C9;}
	.st2{enable-background:new    ;}
	.st3{fill:#FFFFFF;}
</style>
<title>title-friend</title>
<g id="Layer_11">
	<rect class="st0" width="61" height="483.9"/>
</g>
<g id="勵志">
	<g>
		<rect x="29.5" class="st1" width="1" height="96"/>
	</g>
	<g>
		<rect x="29.5" y="237" class="st1" width="1" height="245"/>
	</g>
	<g class="st2">
		<path class="st3" d="M28.9,140.9c-0.2,1.2-0.5,2.4-0.8,3.6c2,0,5.6,0,6.9-0.1h0.1c1.3,0,2.1,0.6,2.1,1.7s-1.3,4-3.9,6.8
			c2.3,2,5.1,3.4,8.2,4c0.4,0.1,0.6,0.4,0.6,0.7c0,0.4-0.3,0.8-0.9,0.8c-0.5,0-4.7-0.8-8.9-4.6c-3.9,3.6-8,4.7-8.6,4.7
			c-0.5,0-0.8-0.4-0.8-0.8c0-0.3,0.2-0.5,0.6-0.6c3-0.7,5.7-2.2,7.8-4.2c-1.8-1.8-3.3-3.9-4.1-6c-1.6,4.3-3.9,8-7.1,10.5
			c-0.2,0.2-0.5,0.3-0.7,0.3c-0.4,0-0.8-0.3-0.8-0.7c0-0.2,0.1-0.5,0.4-0.7c4.8-3.5,7.3-9.4,8.3-15.4h-7.2c-0.5,0-0.7-0.3-0.7-0.6
			c0-0.4,0.2-0.7,0.7-0.7h7.4c0.2-1.3,0.3-2.6,0.3-3.9c0-0.5,0.4-0.7,0.8-0.7s0.8,0.2,0.8,0.6c0,0.5-0.3,3.4-0.4,3.9h12
			c0.4,0,0.6,0.3,0.6,0.7c0,0.3-0.2,0.7-0.6,0.7H28.9z M35.6,146.4c0-0.4-0.3-0.7-0.8-0.7h-6.7c0.9,2.3,2.4,4.5,4.3,6.3
			C34.7,149.5,35.6,146.7,35.6,146.4z"/>
	</g>
	<g class="st2">
		<path class="st3" d="M18.3,179.1c0-0.1,0.1-0.3,0.2-0.5c0.8-1.3,1.2-3,1.2-4.5c0-0.4,0.3-0.6,0.6-0.6c0.3,0,0.7,0.1,0.7,0.8
			c0,1.2-0.7,5.4-2,5.4C18.7,179.7,18.3,179.5,18.3,179.1z M22.6,168.9c0-0.5,0.4-0.7,0.7-0.7c0.4,0,0.7,0.2,0.7,0.7v22
			c0,0.4-0.4,0.7-0.7,0.7c-0.4,0-0.7-0.2-0.7-0.7V168.9z M26.3,175.3c-0.5-1-1.3-2-1.7-2.3c-0.1-0.1-0.1-0.2-0.1-0.3
			c0-0.3,0.3-0.6,0.7-0.6c0.7,0,2.4,2.2,2.4,2.9c0,0.4-0.4,0.8-0.7,0.8C26.7,175.7,26.5,175.6,26.3,175.3z M27.4,177.7
			c-0.4,0-0.6-0.3-0.6-0.6c0-0.3,0.2-0.6,0.6-0.6l6.5,0v-2.1l-4.6,0c-0.4,0-0.6-0.3-0.6-0.5c0-0.3,0.2-0.6,0.6-0.6l4.6,0v-1.8h-5.6
			c-0.4,0-0.6-0.3-0.6-0.5c0-0.3,0.2-0.6,0.6-0.6h5.6v-1.8c0-0.5,0.4-0.7,0.7-0.7c0.4,0,0.7,0.2,0.7,0.7v1.8h5.9
			c0.4,0,0.6,0.3,0.6,0.6c0,0.3-0.2,0.6-0.6,0.6h-5.9v1.8l4.5,0c0.4,0,0.6,0.3,0.6,0.5c0,0.3-0.2,0.6-0.6,0.6l-4.5,0v2.1l6.9,0
			c0.4,0,0.6,0.3,0.6,0.6c0,0.3-0.2,0.6-0.6,0.6H27.4z M38.6,186.8h-8.1c0,1.5,0,3.1,0.1,4.3v0c0,0.4-0.3,0.6-0.7,0.6
			s-0.7-0.2-0.7-0.7c0-1.5,0-3.2,0-4.8s0-3.3,0-4.8c0-1.3,0.7-2.1,2.6-2.2c0.9,0,1.8-0.1,2.8-0.1s1.9,0,2.8,0.1
			c1.7,0.1,2.6,0.8,2.6,2c0,0.4,0,4.3,0.1,5.2c0,0.9,0,1.5,0,2.3v0.1c0,1.2-0.4,2.5-2.9,2.5c-1.4,0-2.4-0.2-2.4-0.9
			c0-0.3,0.2-0.7,0.6-0.7c0.1,0,0.1,0,0.2,0c0.6,0.1,1.1,0.2,1.6,0.2c0.9,0,1.5-0.4,1.5-1.5V186.8z M30.5,183.6v2.1h8.1
			c0-0.7,0-1.4,0-2.1H30.5z M38.5,182.5c0-0.3,0-0.6,0-0.9c0-0.7-0.4-1.2-1.5-1.2c-0.8,0-1.7,0-2.6,0s-1.8,0-2.4,0
			c-1.1,0-1.4,0.6-1.4,1.2l0,0.9H38.5z"/>
	</g>
</g>
</svg>
