<?xml version="1.0" encoding="utf-8"?>
<!-- Generator: Adobe Illustrator 19.0.0, SVG Export Plug-In . SVG Version: 6.00 Build 0)  -->
<svg version="1.1" xmlns="http://www.w3.org/2000/svg" xmlns:xlink="http://www.w3.org/1999/xlink" x="0px" y="0px"
	 viewBox="0 0 800 200" style="enable-background:new 0 0 800 200;" xml:space="preserve">
<style type="text/css">
	.st0{fill:#666666;}
	.st1{filter:url(#Adobe_OpacityMaskFilter);}
	.st2{fill:#FFFFFF;}
	.st3{mask:url(#XMLID_2_);fill:#666666;}
</style>
<g id="參考線">
</g>
<g id="動物分類按鈕">
	<path id="XMLID_71_" class="st0" d="M32,56.9c0,0.2,0,0.4,0.1,0.5c0.1,0,0.3-0.1,0.4-0.2c0,0,0,0,0.1-0.1c0.2-0.2,0.3-0.1,0.2,0.1
		c-0.1,0.8-0.2,1.5-0.3,2.3c0,0.2,0.1,0.3,0.3,0.2c0.2-0.1,0.3,0,0.3,0.2c-0.1,3.9,0.1,7.8,1.2,11.7c0.4,1.3,0.9,2.7,1.5,3.9
		c0.4,0.9,0.5,1.7,0.3,2.6c-0.3,1.7-0.5,3.5-0.8,5.5c0,0.2,0.1,0.4,0.4,0.4c1.1,0,2.1,0,3,0c0.9,0,1.6-0.5,2.1-1.2
		c0.9-1.2,1.9-2.4,2.8-3.5c0.1-0.2,0.3-0.1,0.3,0.1c0,0.6,0,1.3,0,2c0.1,1.7,0.5,2.1,2.2,2c0.2,0,0.3-0.1,0.1-0.2
		c-0.2-0.1-0.3-0.2-0.5-0.3c-0.2-0.1-0.3-0.2-0.5-0.4c-0.2-0.1-0.2-0.4,0-0.5c0.2-0.1,0.3-0.2,0.5-0.2c0.9-0.2,1.3-0.8,1.5-1.6
		c0.3-1.3,1.4-1.5,2.5-1.8c0.9-0.2,1.5,0.4,1.9,1.1c0.4,0.6,0.7,1.2,1.1,1.8c0.3,0.5,0.7,0.9,1.2,0.5c0.2-0.1,0.4-0.1,0.4,0.1
		c0.2,1-0.1,1.7-0.6,2.4c-0.1,0.2-0.1,0.3,0,0.3c0.1,0,0.2,0,0.2,0c1.8-1.2,2.3-3.2,1.5-5.2c-0.1-0.1-0.1-0.3-0.2-0.4
		c-0.1-0.2,0-0.3,0.2-0.1c0.3,0.3,0.6,0.6,0.9,0.9c0.3,0.3,0.6,0.6,1,1c0.2,0.2,0.4,0.1,0.5-0.1c0.1-0.2,0.2-0.3,0.3-0.5
		c0.1-0.2,0.2-0.2,0.2,0.1v1.1c0,0.2,0.1,0.4,0.1,0.5s0.2-0.1,0.3-0.3c0.2-0.2,0.3-0.5,0.5-0.8c0.1-0.2,0.4-0.3,0.6-0.2
		c0.3,0.1,0.7,0.2,1,0.3c1,0.3,1.3,0.3,1.5-0.5c0.1-0.2,0.3-0.3,0.4-0.2c0.7,0.5,0.7,1.1-0.1,2.2c-0.1,0.2-0.1,0.3,0.2,0.2
		c1.1-0.3,1.5-0.8,1.6-1.6c0.1-1.2-0.7-2.3-1.8-2.6c-1-0.3-2-0.5-2.9-1c-1.3-0.7-1.4-1.7-0.2-2.5c2-1.2,3-3.2,4.4-4.8
		c1.5-1.8,1.8-4.1,1.7-6.5c-0.1-1.1,0-2.1,0.5-3.1c0.5-0.9,0.2-2.2,0.4-3.3c0.4-2.1,1-4.2,1.3-6.2c0.4-2.1,0.7-4.1,0.9-6.2
		c0.2-2,0.1-3.9,0-5.9c-0.1-1.2-0.3-2.5-0.7-3.7c-0.5-1.4-0.9-2.7-0.6-4.3c0.3-2,0.2-4-0.4-5.9c-0.3-1.1-0.6-2.4,0.6-3.3
		c0.2-0.2,0.4-0.6,0.4-0.8c-0.5-1.2,0.4-1.8,1-2.6c0.1-0.2,0.2-0.5,0.3-0.7c0.1-0.2,0.1-0.4-0.1-0.4s-0.4,0.1-0.6,0.2
		c-2.1,1.2-4.2,2.5-6.3,3.7c-0.4,0.2-1,0.2-1.4,0.1c-2.2-0.7-4.4-0.8-6.6-0.1c-1.3,0.4-2.4,0-3.6-0.8c-1.7-1.2-3.8-1.9-5.7-2.8
		c-0.1,0-0.2,0-0.4,0c-0.2,0.1-0.4,0.3-0.3,0.5c0,0.1,0,0.3,0.1,0.4c0.5,0.6,0.9,1.1,0.7,2.1c-0.1,0.7,0.6,1.5,0.9,2.3
		c0.1,0.3,0.1,0.8,0,1c-1,2.4-1.6,4.8-1.9,7.4c-0.4,2.6-1.3,5.1-2.9,7.3c-0.8,1.1-1.6,2.2-2.4,3.2c-3.1,3.8-5,8.2-6.5,12.8
		C32.2,55.1,32.1,56,32,56.9z"/>
	<path id="XMLID_11_" class="st0" d="M177.3,41.5c0.8-0.2,2.8,0.9,4.7-0.1c3-1.6,1.4-2.2,0.2-2.7c-1.2-0.5-4.3-1.6-4.6-4.4
		c-0.3-2.8-2.6-3.6-2.6-3.6s1.1-5.6,0.1-5.9c-1-0.3-4.7,3.5-5.7,4.3c-3.4,0-6.9,4.4-7,9.6c-0.1,5.2-2.8,9-5.5,10.2
		c-15.7,5.1-16.7,14.6-16.7,21.7c0,1.9,0.2,3.5,0.5,4.8c-1.7-1.6-4.1-6.4-2.5-15.1c2-10.9-3.9-21.7-20.6-18.9c6.2,3,8,10.9,6.9,15.4
		c-2.6,9.7-3.3,23.9,15.3,23.9c2.2,0,4,0,5.4,0c0.9,0,3.2,0,5.6,0c3.6,0,7.5,0,7.5,0c1.5,0,3.4,0,3.4-1.4c0-1.5-5.4-2-5.8-2.4
		c0,0,9-0.7,9.7-9.4c0,0,7.5,13.1,9.8,13.1c2.4,0,4,0,5.5,0c1.3,0,1.8-0.7,1.8-1.8c0-1-1.5-1.5-2.3-1.5c-0.8,0-2.5,0.2-3.5-1.2
		c-5.1-6.6-4.9-11.6-4.9-14.2c0-1.3,0.4-2.2,0.9-3.1c3.7-6.6,4.2-7.7,4.2-10.1c0-2.5-1.8-4.9-2.2-5.4
		C174.5,42.7,175.6,41.8,177.3,41.5z"/>
	<path id="XMLID_73_" class="st0" d="M272.6,46c-0.6-1.5-1.1-2.9-1.8-4.4c-0.6-1.2-1.5-2-2.6-2.6c-0.6-0.4-1.3-0.6-2-0.9
		c-0.2-0.1-0.3-0.3-0.3-0.5c0.1-0.5,0.2-1.1,0.3-1.7c0-0.4,0-0.7,0-1.1c0-0.5,0-1,0-1.5c0-0.8-0.2-1.7-0.4-2.5
		c-0.1-0.5,0-1.1-0.2-1.6c-0.2-0.5,0-1.2-0.5-1.6c0,0,0,0,0,0c0.1-0.8-0.5-1.4-0.8-2.1c-0.3-0.7-0.7-1.4-1.5-1.7
		c-0.3-0.1-0.5-0.3-0.8-0.5c-0.2-0.1-0.4,0-0.5,0.2c-0.2,0.7-0.5,1.4-0.6,2c-0.1,0.7-0.5,1.3-0.4,2c0.1,0.5-0.3,1.1-0.4,1.7
		c-0.1,0.3-0.1,0.6-0.1,0.9c0,0.2-0.2,0.3-0.3,0.1c-0.3-0.4-0.6-0.8-1-1.1c-0.7-0.4-1.2-1-1.8-1.4c-1-0.6-2.1-1.2-3.2-1.6
		c-1.1-0.4-2.3-0.5-3.5-0.7c-0.3,0-0.6,0.1-1,0.2c-0.2,0.1-0.3,0.3-0.2,0.5c0.3,0.7,0.7,1.3,1,1.9c0.6,1,1.2,2,1.8,2.9
		c0.4,0.5,0.8,1,1.2,1.6c0.4,0.5,0.8,1.1,1.2,1.6c0.3,0.4,0.6,0.7,1,1c0.3,0.4,0.7,0.8,1,1.2c0.9,1.1,1.2,2.4,1.4,3.8
		c0,0.1,0,0.1,0,0.2c0.4,0.9,0,1.4-0.6,1.9c-0.1,0.1-0.1,0.2-0.1,0.4c-0.1,0.2-0.1,0.4-0.3,0.6c-0.4,0.5-0.5,1.1-0.5,1.7
		c0,0.4-0.1,0.8-0.2,1.1c0,0.1,0,0.1,0,0.2c0,0.1-0.1,0.3-0.1,0.5c-0.3,0.7-0.6,1.5-1.3,2c-0.2,0.1-0.2,0.2-0.1,0.2s0.3,0,0.3,0
		c0,0-0.2,0.1-0.4,0.2c0,0-0.1,0-0.1,0c-0.2,0.1-0.3,0.2-0.2,0.2c0.1,0,0,0.1-0.2,0.2c-0.2,0.1-0.4,0.1-0.5,0.2
		c-0.2,0.1-0.3,0.2-0.2,0.2c0.1,0,0,0.1-0.2,0.2c-0.2,0-0.3,0.1-0.3,0.2c0,0.1-0.1,0.1-0.3,0.2c-0.4,0.1-0.8,0.2-1.2,0.2
		c-0.1,0-0.3,0-0.4,0c-0.2-0.1-0.5-0.2-0.8-0.2c-1.3,0-3.4,0.4-4.3,0.6c-0.2,0-0.6,0.1-0.8,0.1c-0.3,0-0.6,0.1-0.9,0.1
		c-0.2,0-0.4,0.1-0.3,0.1c0,0-0.1,0.1-0.3,0.2c-0.9,0.3-1.9,0.6-2.9,1c-0.2,0.1-0.3,0.2-0.2,0.2c0.1,0,0,0.1-0.2,0.2
		c-0.5,0.2-1.1,0.4-1.5,0.7c-0.5,0.3-1,0.6-1.4,1c-0.5,0.4-1.2,0.6-1.9,0.8c-0.1,0-0.1,0.1-0.2,0.1c-0.1,0-0.1,0.1,0,0.2
		c0.1,0,0.1,0.2-0.1,0.3c-0.4,0.3-0.8,0.6-1.1,0.8c-0.2,0.1-0.3,0.3-0.2,0.3c0.1,0,0,0.2-0.2,0.3c-0.1,0.1-0.3,0.1-0.4,0.2
		c-0.2,0.1-0.3,0.2-0.3,0.2c0,0,0.1,0,0.3,0c0.1,0,0.1,0.1,0,0.2c-0.7,0.7-1.4,1.3-2,1.9c-0.1,0.1-0.1,0.1-0.2,0.2
		c-0.1,0.1-0.1,0.2,0.1,0.1c0.2,0,0.2,0.1,0.1,0.2c-0.3,0.5-0.7,1-1,1.5c-0.2,0.3-0.5,0.6-0.8,0.9c0,0,0,0,0,0c0,0,0.1,0,0.2,0
		s0.1,0.1-0.1,0.3c-0.2,0.3-0.4,0.6-0.6,0.9c-0.1,0.2-0.1,0.2,0.1,0.1c0.2-0.1,0.2,0,0.1,0.2c-0.3,0.7-0.7,1.4-0.7,2.1
		c0,0.4-0.2,0.7-0.4,1.1c-0.1,0.2-0.1,0.3,0,0.2s0.1,0.1,0.1,0.3c-0.2,1-0.3,2-0.5,3c0,0.2,0,0.4,0.1,0.3s0.1,0.1,0,0.3
		c0,0.2-0.1,0.3-0.1,0.5c-0.1,0.2,0,0.4,0,0.3c0.1,0,0.1,0.1,0,0.3c-0.1,0.6,0,1.1-0.4,1.6c-0.1,0.2-0.2,0.3-0.1,0.3s0.1,0.1,0,0.3
		c0,0-0.1,0.1-0.1,0.1c-0.1,0.2-0.2,0.3-0.1,0.3c0.1,0,0.2,0,0.2,0c0,0,0,0,0,0c0,0.1,0,0.1,0,0.2c-0.1,0.9,0.2,1.7,1.1,2.1
		c0.6,0.3,1.1,1,2,0.9c0.3,0,0.6,0.3,0.8,0.4c0,0,0,0,0,0c0,0,0-0.1,0-0.1c0-0.1,0.1-0.1,0.3,0c0.2,0,0.3,0.1,0.5,0.1
		c0.2,0,0.4,0,0.3-0.1c0-0.1,0.1-0.1,0.3,0c1.8,0.6,3.6,0.3,5.4,0.4c0.2,0,0.4,0,0.3-0.1c0,0,0.1-0.1,0.3-0.1c0.6,0,1.2,0,1.9,0
		c0.3,0,0.6,0,0.9-0.1c0.6-0.1,1.3-0.2,1.9-0.3c0.7-0.1,1.4,0.2,2.1-0.3c0.4-0.2,0.8-0.4,0.9-0.8c0.1-0.2,0.2-0.4,0.4-0.5
		c0.4-0.1,0.8-0.2,1.1-0.3c0.5-0.2,0.9-0.3,1.1-1c0.1-0.5,0-0.9-0.4-1.2c0,0-0.1-0.1-0.1-0.1c0-0.1-0.2-0.2-0.4-0.2c0,0-0.1,0-0.1,0
		c-0.2,0-0.3-0.2-0.2-0.4c0.1-0.1,0.1-0.2,0.2-0.3c0.1-0.2,0.2-0.3,0.3-0.3c0,0,0.1,0.2,0.1,0.3s0.1,0.1,0.2-0.1
		c0-0.1,0.1-0.2,0.1-0.3c0.1-0.2,0.2-0.3,0.2-0.3c0,0,0.1,0.1,0.1,0.3c0,0.2,0.1,0.1,0.2-0.1c0-0.1,0.1-0.1,0.1-0.2
		c0.1-0.2,0.2-0.2,0.2,0s0.1,0.2,0.2,0c0.2-0.4,0.5-0.7,0.9-0.9c0.6-0.3,1.2-0.6,1.8-0.8c0.1,0,0.3,0,0.4,0.1
		c0.3,0.4,0.5,0.7,0.8,1.1c0.3,0.4,0.6,0.8,0.9,1.1c0.4,0.5,0.8,0.9,1.2,1.4c0,0,0,0.1,0.1,0.1c0,0,0.1,0,0.1,0s0.1,0.1,0.2,0.2
		c0,0.1,0.1,0.1,0.1,0.2c0.1,0.2,0.2,0.3,0.2,0.1c0-0.1,0.1-0.1,0.3,0.1c0.3,0.5,0.6,0.9,1,1.4c0.1,0.2,0.2,0.2,0.2,0.1
		c0-0.1,0.1-0.1,0.2,0.1c0.2,0.3,0.4,0.5,0.5,0.8c0.1,0.2,0.2,0.2,0.2,0c0-0.2,0-0.3,0-0.4c0,0,0.2,0.1,0.3,0.3
		c0.1,0.1,0.1,0.2,0.2,0.3c0.1,0.2,0.3,0.3,0.3,0.2c0-0.1,0-0.1,0.1-0.1c0,0,0,0,0-0.1c0,0,0,0,0,0c0,0,0.2,0.1,0.3,0.2
		c0.1,0.1,0.2,0.2,0.4,0.3c0.2,0.1,0.3,0.2,0.3,0.1c0-0.1,0.1-0.1,0.3,0c0.2,0.1,0.3,0.1,0.5,0.2c0.4,0.1,0.9,0,1.3,0.1
		c0.8,0.2,1.5-0.1,2.1-0.6c0.3-0.3,0.7-0.4,1-0.4c0.2,0,0.5-0.1,0.7-0.3c0.2-0.2,0.4-0.4,0.6-0.6c0.2-0.1,0.2-0.4,0.1-0.6
		c-0.2-0.5-0.5-0.9-1-1.1c-0.2-0.1-0.3-0.1-0.2-0.2c0.1-0.1,0-0.2-0.2-0.2c-0.1,0-0.1,0-0.2,0c-0.2,0-0.4,0-0.4,0c0,0,0.1,0,0.2-0.1
		c0.1,0,0-0.1-0.2-0.2c-0.1,0-0.1-0.1-0.2-0.1c-0.2-0.1-0.3-0.2-0.2-0.2c0.1,0,0-0.1-0.2-0.2c-0.4-0.2-0.7-0.4-1.1-0.6
		c-0.1,0-0.2-0.1-0.3-0.1c-0.1,0-0.2-0.1-0.1-0.1c0.1,0,0.1-0.1,0-0.2c-0.1-0.1-0.1-0.1,0-0.1c0.1,0,0.1-0.1-0.1-0.2
		c-0.2-0.1-0.3-0.1-0.5-0.2c-0.2-0.1-0.3-0.2-0.2-0.4c0.1-0.1,0.1-0.2,0.1-0.2c0-0.1-0.1-0.2-0.2-0.3c-0.1-0.2-0.2-0.3-0.1-0.3
		c0.1,0,0.1-0.1,0.1-0.2c0-0.1,0-0.1-0.1-0.2c-0.1-0.4-0.1-0.9-0.3-1.3c-0.3-0.5-0.2-0.9,0.1-1.3c0.1-0.2,0.3-0.2,0.3-0.2
		c0,0.1,0.1,0,0.2-0.2c0.1-0.2,0.2-0.2,0.2-0.2c0,0.1,0.2,0,0.3-0.2c0.1-0.1,0.2-0.3,0.4-0.4c0.1-0.2,0.3-0.2,0.3-0.2
		c0,0.1,0.1,0,0.2-0.2c0.5-1,1.3-1.7,1.5-2.8c0,0,0,0,0,0c0,0,0.1,0,0.1,0.1c0.1,0.1,0.2-0.1,0.2-0.3c0.3-1.2,0.7-2.3,1-3.4
		c0.1-0.2,0.2-0.5,0.3-0.7c0.6-0.9,0.8-1.4,0.8-1.8c0-0.2-0.2-0.5-0.3-0.7c-0.2-0.4-0.2-0.7-0.2-1.1c0-0.5,0-1,0.1-1.5
		c0-0.2,0.1-0.4,0.1-0.4c0,0,0-0.1,0-0.4c0-0.9,0.8-1.2,1.5-1.5c0.2-0.1,0.5-0.2,0.7-0.3c0.1,0,0.2-0.1,0.3-0.2
		c0.2-0.2,0.4-0.5,0.6-0.8c0.2-0.2,0.4-0.4,0.7-0.6c0.4-0.3,0.7-0.8,1.1-1.2c0.3-0.3,0.6-0.6,1-0.9c0.5-0.3,0.6-1,0.2-1.4
		C273.1,47,272.8,46.5,272.6,46z"/>
	<path id="XMLID_77_" class="st0" d="M386.8,35.3c-3-1.7-1.9-3.2-3.1-4.1c-1.2-0.9-1.9-0.9-1.9-0.9s0.6-2.6-2.4-2.6
		c0,0-3.9-7-11.6-0.2c0,0,1-0.3,1.7,0c0.7,0.3-5.6,1.3-8.3,6.1c1.8-0.8,2-0.2,2,0.6c0,3-3.5,7-10.2,7.4c-3,0.2-5-1.4-12-1.4
		c-7,0-11.5,5.9-13.6,14.5c-2.2,8.6-3.3,9.8-5.4,9.8c-2.2,0-4.3-2.8-4.2-5.5c0.1-2.8,0.6-5.4,2-6.4c1.4-1,0.1-3.6-2.2-2.3
		c-2.3,1.3-3,4.9-2.9,8.7c0,3.8,1.6,9,7,9c5.4,0,7.6-5.6,7.6-5.6s-0.5,6.1,1.3,15.4c-0.2,1.2-0.7,3.2,2.7,3.1c3.4,0,4.3-0.2,4.2-2.1
		c-0.1-1.9-1.2-2.1-2-2.1c-0.9,0-2.2,0.2-2.1-1.4c0.1-1.7,1.5-12.8,10-17.4c4.3,1.6,7,4.1,15.6,1.6c0.5-0.1,1.4,2.5,1.4,5.7
		c0,3.2,3.6,6.9,4.3,10.6c0.2,1.6-1.6,5.1,1.6,5.1s5,0.5,4.9-1.7c-0.1-2.2-0.7-2.8-2-2.8c-1.3,0-2.6-0.7-2.3-3.5
		c0.3-2.8-0.5-9.9,1.5-12.7c0.4-0.5,6.2,0.1,9.6-5.6c0.2,1.7-0.5,3.9-0.5,3.9s6.5-5.1,4.3-12.6c-0.3-0.6,0.6-0.7,1-0.1
		c0-1.9-1.6-4.3-1.6-4.3s0-1.1,1.1-0.2c1.1,0.9,4.8,3.1,5.3-2.5C388.3,38.6,389.8,37,386.8,35.3z"/>
	<path id="XMLID_86_" class="st0" d="M475.1,16.5c-0.1-0.5-0.4-0.8-0.9-1c0.5,0.9,0.3,1.8-0.2,2.6c-0.5,0.9-0.7,1.1-1.6,0.9
		c1.1-2.1,0.8-4.1-1-5.7c-0.1,0.2-0.1,0.4,0,0.6c0.1,0.4,0.2,0.7,0.3,1.1c0.2,0.7,0.2,1.4-0.2,2.1c-0.3,0.6-0.8,0.7-1.4,0.2
		c-0.3-0.2-0.5-0.5-0.8-0.7c-1-0.7-2-1.3-2.7-2.3c-0.1-0.1-0.2-0.2-0.3-0.3c0,0-0.1,0.1-0.1,0.1c0.2,0.6,0.5,1.2,0.7,1.9
		c-0.2,0-0.4-0.1-0.5-0.1c0,0.2,0.1,0.3,0.2,0.5c0.3,0.3,0.6,0.6,1,0.9c1.2,1,2,2.2,2.2,3.8c0.1,0.6,0.1,1.3,0.1,1.9
		c0,0.5,0,1.1-0.2,1.6c-0.7,1.5-1.5,2.9-2.2,4.4c0,0.1-0.2,0.2-0.3,0.4c0-1.1,0.1-2,0-2.9c-0.1-0.9-0.2-1.8-0.7-2.7
		c-0.1,0.1-0.1,0.2-0.1,0.3c0,1.3,0,2.6-0.1,4c-0.1,1.4-0.5,2.8-1.6,3.9c-0.7,0.7-1.5,1.4-2.2,2c-0.1,0.1-0.3,0.1-0.4,0.1
		c0-0.1-0.1-0.3,0-0.4c0.1-0.6,0.2-1.2,0.3-1.8c0.1-1.2,0.2-2.4,0.3-3.7c0-0.1,0-0.2-0.1-0.4c-0.5,1.1-0.9,2-1,3
		c-0.1,1.3-0.4,2.6-1.2,3.8c-0.2,0.2-0.2,0.5-0.2,0.8c0,0.4-0.2,0.7-0.6,0.8c-0.9,0.4-1.9,0.5-2.9,0.3c-0.5-0.1-0.8-0.3-1-0.7
		c-0.3-0.6-0.7-1.2-1.1-1.7c-0.6-0.7-1.1-1.3-1.3-2.2c0-0.2-0.1-0.4-0.2-0.7c-0.3-1-0.6-2-0.9-2.9c-0.1,0-0.1,0-0.2,0
		c0,1.7,0.2,3.4,0.5,5.2c-0.3-0.2-0.5-0.4-0.7-0.5c-1-0.8-1.9-1.7-2.2-3c-0.2-0.6-0.3-1.2-0.5-1.8c-0.2-0.7-0.3-1.4-0.5-2.1
		c-0.5,1.2-0.1,2.4-0.2,3.7c-0.7-1.2-1.4-2.4-1.9-3.6c-0.6-1.6-0.8-3.2-0.1-4.9c0.3-0.8,0.9-1.4,1.4-2c0.3-0.3,0.4-0.8,0.7-1.3
		c-0.3,0-0.4,0-0.6,0c0.2-1,0.5-2,0.5-3.1c-0.2,0.1-0.3,0.2-0.3,0.3c-0.6,0.9-1.1,1.8-1.7,2.6c-0.4,0.7-0.9,1.4-1.3,2
		c-0.3,0.5-0.7,0.6-1.1,0.4c0.1-0.3,0.3-0.5,0.4-0.8c0,0-0.1,0-0.1-0.1c-0.3,0.2-0.5,0.4-0.8,0.6c-0.4-0.6-0.5-1.2-0.4-1.9
		c0.1-0.9,0.3-1.9,0.5-2.8c0-0.3,0-0.5,0-0.8c-0.1,0-0.1,0-0.2,0c-0.1,0.1-0.2,0.3-0.3,0.4c-0.4,0.8-0.7,1.6-1,2.3
		c-0.6,1.3-0.5,2.5,0.2,3.7c0.1,0.2,0.2,0.6,0.3,0.8c0.2,0.5,0.4,1,0.6,1.5c0.3,0.7,0.8,1.4,0.7,2.3c-0.1,1.6,0.3,3,1.5,4.2
		c1.1,1,2.1,2.1,3.2,3c1.2,1.1,2.5,2.1,3.8,3.1c0.3,0.3,0.6,0.6,0.8,0.8c-0.9-0.2-1.8-0.6-2.7-0.9c-0.9-0.3-1.7-0.7-2.2-1.5
		c-0.1-0.1-0.2-0.1-0.3-0.2c-0.1,0.1-0.2,0.2-0.2,0.3c0.1,0.3,0.1,0.6,0.3,0.9c0.7,1.1,1.5,2.2,2.3,3.3c0.3,0.5,0.8,1,1.3,1.2
		c0.4,0.2,0.8,0.3,1.1,0.7c0.2,0.3,0.3,0.6,0.5,0.8c0.4,0.7,0.4,1.4,0,2c0,0.1-0.1,0.1-0.1,0.2c-0.4,1.6-0.8,3.2-1.1,4.8
		c0,0.2-0.1,0.3-0.3,0.4c-0.6,0.5-1.4,0.8-2.2,0.9c-1.8,0.1-3.6,0.2-5.4,0.3c-0.4,0-0.8-0.1-1.1-0.2c-0.3,0-0.5-0.2-0.8-0.1
		c-1,0.1-2.1,0.3-3.1,0.5c-0.4,0.1-0.8,0-1.1,0.2c-0.8,0.4-1.6,0.7-2.3,1.2c-0.9,0.6-2.1,0.9-2.6,2c0,0.1-0.1,0.1-0.1,0.1
		c-1,0.7-1.5,1.8-1.8,3c-0.3,1.3,0.1,2.6,0.2,3.9c0,0,0,0,0,0c0.4,1.8,0.9,3.5,1.1,5.3c0.2,1.6,0.3,3.2,0.3,4.8
		c0.1,1.4,0.1,2.8,0.1,4.1c0,0.2,0,0.4,0,0.6c-0.4,1.2-0.7,2.4-1.2,3.4c-0.4,0.8-0.6,1.6-0.5,2.5c0.1,1-0.1,2.1-0.1,3.1
		c0,0.7,0,1.3,0,2c-0.2,1.2-0.1,1.8,1.6,1.5c1.7-0.3,2.4,0.9,2.2-0.5c-0.2-1.4-1.7-2-1.7-2c-0.1-0.1-0.3-0.3-0.2-0.4
		c0.1-0.4,0.2-0.7,0.3-1.1c0.3-1.1,0.7-2.2,1-3.2c0.2-0.7,0.5-1.4,0.8-2.1c0.8-1.9,1.6-3.8,2.5-5.7c0.4-1,0.8-2.1,1.6-3
		c0.5,0.7,0.7-0.2,1.1-0.1c0.8,0.5,0.4,1.4,0.5,2c0.1,0.7,0.1,1.5-0.3,2.2c-0.7,1.3-1.4,2.6-2.1,3.9c-0.4,0.7-0.4,1.3-0.1,2
		c0.7,1.3,1.4,2.7,1.8,4.1c0.3,0.7,0.8,1.3,1,2c0.1,0.3-0.4,1.6,0.4,1.4c0.9-0.2,2.9,0.3,2.9,0c0-0.3-0.3-1.8-1.4-2.5
		c-1-0.7-1-2.9-1-2.9c-0.3-1.5,0.1-2.7,1.1-3.8c0.5-0.6,1.1-1.3,1.5-2c0.5-0.8,0.8-1.6,1.2-2.4c0.1-0.2,0.2-0.5,0.3-0.7
		c0.1-0.3,0.4-0.5,0.7-0.4c0,0,0.1,0,0.1,0c0.8-0.2,1.5-0.1,2.3,0.1c0.4,0.1,0.8,0,1.1,0c0.2,0,0.4,0.1,0.4,0.3
		c0.6,2.2,1.3,4.3,1.5,6.6c0,0.5,0.3,1,0.5,1.5c0.1,0.5,0,0.9,0,1.4l0.1,1.4c0,0-0.5,2.7-0.2,2.8c0.4,0.1,1.3-0.2,1.8,0.1
		c0.5,0.3,1.8-0.1,1.8-0.1c0.1-0.9-1.3-2-1.3-2c0-1.1-0.1-2.2,0-3.3c0-0.5,0.3-0.9,0.3-1.4c0-0.5-0.1-1-0.2-1.6c-0.2-1-0.5-2-0.6-3
		c-0.1-0.9-0.1-1.8-0.1-2.8c0-0.4,0.1-0.6,0.5-0.9c0.9-0.7,2.9-0.7,3.8,0.2c0.1,0.1,0.5,0.1,0.8,0.1c0,0,0.1,0,0.1,0.1
		c0.3,2.7,0.7,5.4,1.1,8.2c0,0.1,0.6,2.2,0.3,2.5c-0.1,0.2-0.1,0.5,0,0.9c0,0.1-0.6,1.3,0.2,2.2c0.8,0.9,3.4,0.8,3.4,0.8
		s-0.1-0.5-0.3-1.5c-0.2-1.1-0.6-1.1-0.6-1.1c-0.3-0.5-0.3-1,0.1-1.4c0-0.1,0-0.2,0-0.2c-0.4-0.4-0.3-0.8-0.3-1.3c0-0.6,0-1.2,0-1.8
		c-0.1-1.7-0.3-3.3-0.2-5c0.1-1.4,0.5-2.7,0.7-4.1c0.1-0.9,0.2-1.9,0.2-2.8c0-0.7,0.2-1.2,0.7-1.7c0.3-0.3,0.6-0.8,0.8-1.2
		c0.2-0.4,0.3-0.8,0.4-1.1c0.6-1.1,1.1-2.2,0.6-3.5c0,0,0-0.1,0-0.1c-0.1-1.2-0.2-2.5-0.4-3.7c0-0.4-0.1-0.8-0.1-1.2
		c0-0.7,0.2-1.3,0.2-2c0-1.1,0-2.3-0.3-3.4c-0.3-1.2-0.7-2.4-1.2-3.6c-0.5-1.2-1.1-2.3-1.7-3.4c-0.4-0.7-0.4-1.5-0.2-2.2
		c0-0.2,0.2-0.4,0.3-0.5c0.6-0.6,1.4-1.1,1.6-2c0.1-0.2,0.2-0.5,0.3-0.7c0.6-0.7,1.2-1.4,1.9-2.1c0.2-0.3,0.5-0.6,0.6-0.9
		c0.1-0.1,0-0.4,0.1-0.5c-0.2,0-0.3,0.1-0.3,0.1c-0.4,0.7-1,1-1.8,1.3c-0.9,0.3-1.8,0.7-2.7,1.1c-0.1,0-0.2,0-0.4,0.1
		c0.2-0.3,0.4-0.5,0.6-0.7c0.6-0.6,1.3-1.2,1.9-1.8c0.9-0.8,1.8-1.6,2.7-2.4c0.9-0.9,1.8-1.8,2.8-2.6c1.5-1.3,2.1-2.9,1.8-4.8
		c-0.2-1.1,0.4-2,1-2.8c0.3-0.3,0.5-0.6,0.9-0.9c0.2-0.2,0.4-0.3,0.6-0.3c0.4,0,0.5-0.2,0.3-0.6c-0.1-0.2-0.1-0.5,0-0.7
		C475.1,18.1,475.4,17.3,475.1,16.5z"/>
	<path id="XMLID_13_" class="st0" d="M581.3,68c-0.1-0.1-0.1-0.3-0.1-0.4c0-0.1,0-0.2,0.1-0.3c0.1-0.3,0.1-0.5,0-0.7
		c0-0.1-0.1-0.3-0.1-0.4c0-0.3,0-0.7-0.1-1c-0.4-1.7-1.1-3.2-2.9-3.7c-1-0.3-2.1-0.7-3.1-1c-1.9-0.6-3.9-1.3-5.5-2.5
		c-0.8-0.6-1.5-1.3-1.8-2.3c-0.6-2.1,1.5-4.8,3.8-4.9c1,0,2,0.2,3,0.5c0.1,0,0.1,0,0-0.1c-0.1-0.1-0.1-0.1-0.2-0.2
		c-0.1-0.1-0.1-0.2-0.1-0.2c0,0,0.1,0,0.2,0c0.1,0,0.1,0,0.2,0.1c0.8,0.4,1.6,0.9,2.4,1.3c0.1,0.1,0.4,0.1,0.5,0.1
		c0.5-0.3,0.9-0.7,1.4-1.1c0.1-0.1,0.1-0.2,0.1-0.3c-0.3-0.6-0.6-1.2-0.8-1.7c-0.9-2.4-1.4-5-1.7-7.5c-0.4-3.2-0.5-6.5,0.1-9.7
		c0.9-4.2,2.5-8.2,4.6-11.9c0.4-0.8,0.9-1.5,1.4-2.3c0.1-0.1,0.1-0.2,0-0.3c0,0-0.1,0-0.2,0.1c-0.9,0.8-1.8,1.6-2.5,2.5
		c-0.8,1-1.5,2.1-2.1,3.1c-0.4,0.6-0.7,1.2-1.1,1.8c-0.1,0.1-0.2,0.3-0.3,0.3c-0.1,0.1-0.2,0.2-0.3,0.3c-0.1,0.1-0.1,0.1,0,0
		c0.4-0.7,0.3-2.4,0.3-3.2c0-0.1,0-0.1,0,0c-0.4,2.3-1.7,4.4-3.5,5.8c-0.1,0.1-0.2,0-0.1-0.1c0.5-2.7,1.1-5.4,1.6-8
		c0-0.1,0-0.1-0.1,0c-1.8,3.8-3.7,7.6-5.5,11.4c-0.1,0.1-0.1,0.1-0.1,0c-0.4-2.3-0.2-4.8,0-7.1c0-0.1,0-0.1-0.1,0
		c-1.1,2.3-1.7,4.7-2,7.2c-0.1,0.7-0.1,1.4-0.4,2c-0.3,0.6-0.8,0.9-1.3,1c-0.1,0-0.2-0.1-0.3-0.2c-0.3-1.7-0.8-4.6-0.3-6.3
		c0-0.1,0-0.1,0,0c-1,3-1.4,5.9-1.3,9c0,0.1-0.1,0.3-0.1,0.4c-0.3,0.3-0.6,0.7-0.8,1.1c-0.1,0.1-0.2,0.1-0.2,0
		c-0.4-1.5-0.9-3-1.3-4.6c-0.1-0.3-0.1-0.6-0.1-0.8c0-0.1-0.1-0.2-0.1-0.2c-0.1,0-0.1,0.1-0.1,0.2c-0.2,2.5-0.1,4.9,0.3,7.3
		c0,0.1,0,0.3-0.1,0.4c-0.2,0.4-0.5,0.7-0.7,1.1c-0.1,0.1-0.1,0.1-0.2,0c-0.5-1.4-1-2.8-1.5-4.3c0-0.1-0.1-0.1-0.1,0
		c0,0.5,0,1,0,1.5c0.1,1.5,0.3,2.9,0.6,4.4c0,0.1,0,0.3-0.1,0.4c-0.3,0.6-0.6,1.1-0.9,1.7c-0.1,0.1-0.1,0.1-0.2,0
		c-0.6-1.3-1.3-2.7-1.9-4.1c-0.1-0.2-0.2-0.4-0.2-0.7c0-0.1-0.1-0.2-0.1-0.2c0,0-0.1,0.1,0,0.2c0.3,2.2,0.8,4.3,1.5,6.4
		c0,0.1,0,0.3,0,0.4c-0.1,0.3-0.3,0.6-0.4,1c0,0.1-0.1,0.1-0.2,0c-0.7-1-1.3-2.1-2-3.1c-0.1-0.1-0.1-0.3-0.2-0.4
		c0-0.1-0.1-0.2-0.1-0.2c0,0,0,0.1,0,0.2c0.4,1.7,1,3.4,1.8,4.9c0.1,0.1,0.1,0.3,0,0.4c-0.1,0.3-0.2,0.6-0.3,0.8
		c0,0.1-0.1,0.1-0.2,0c-0.5-0.6-1-1.2-1.3-1.9c0,0,0,0-0.1,0c0,0-0.1,0.1-0.1,0.2c0.2,1,0.5,1.8,0.9,2.7c0,0.1,0,0.1-0.1,0
		c-1.3-1.2-2.6-2.2-4.1-3.2c-3.9-2.9-8-5.4-12.4-7.6c-1.3-0.7-2.6-1.4-3.9-2.1c-2.4-1.3-4.1-3.3-5.7-5.5c-0.9-1.3-1.8-2.6-2.2-4.2
		c-0.7-3-0.3-5.9,0.4-8.8c0.2-0.7,0.4-1.4,0.6-2.1c0-0.1,0-0.1-0.1-0.1c-0.2,0.2-0.4,0.5-0.6,0.7c-1.2,1.9-2.3,3.8-2.5,6.1
		c-0.1,1.2,0.3,2.5-0.2,3.7c0,0.1,0,0.2,0.1,0.3c0.8,2.3,1.8,4.6,3,6.7c0.1,0.1,0.2,0.3,0.2,0.4c0.6,1.3,1.3,2.5,2.1,3.7
		c0.1,0.1,0.1,0.2,0,0.3c0,0-0.2,0.1-0.3,0c-0.2-0.1-0.4-0.1-0.5-0.2c-0.1-0.1-0.3-0.2-0.3-0.3c-2.1-2-3.8-4.4-5.3-6.9
		c-0.8-1.3-1.5-2.7-2.3-4.2c-0.1-0.1-0.1-0.1-0.1,0c0.5,4.1,1.9,7.8,4.4,10.9c0.1,0.1,0.2,0.3,0.2,0.4c0.5,0.9,1.3,1.8,2.1,2.5
		c0.1,0.1,0.2,0.2,0.3,0.3c0.2,0.3,0.4,0.5,0.6,0.8c0.1,0.1,0.1,0.2,0.1,0.3c0,0,0,0.1,0,0.1c0,0.2,0.1,0.3,0.1,0.5
		c0,0.1,0,0.2-0.1,0.1c-2.3-1.4-4.4-3-6.4-4.8c-0.6-0.6-1.2-1.1-1.9-1.7c-0.1-0.1-0.2-0.1-0.2-0.1s0,0.1,0.1,0.2
		c1.4,2,2.8,4.2,4.5,6c0.5,0.5,1,0.9,1.5,1.3c0.8,0.7,1.6,1.4,2.4,2.1c0.4,0.4,1,0.8,1.2,1.4c0.2,0.6-1.7,0-1.9-0.1
		c-1.1-0.4-2.2-1-3.2-1.6c-0.3-0.2-0.6-0.3-0.9-0.5c-0.1-0.1-0.2-0.1-0.2,0c0,0,0,0.1,0.1,0.2c2.1,2,4.2,4.1,7.1,5
		c0.3,0.1,0.6,0.2,0.9,0.3c0.1,0,0.3,0.2,0.3,0.3c0.2,0.3,0.4,0.7,0.6,1c0.1,0.1,0,0.2-0.1,0.1c-2.2-0.6-4.3-1.4-6.3-2.4
		c-0.3-0.1-0.6-0.3-0.9-0.4c-0.1,0-0.1,0,0,0.1c2.6,2.4,5.6,3.9,8.8,4.7c0.1,0,0.3,0.1,0.3,0.2c0.2,0.2,0.4,0.5,0.6,0.7
		c0.1,0.1,0.1,0.2,0,0.2c-0.1,0-0.2,0-0.3,0c-1.9-0.2-3.9-0.6-5.8-1.1c-0.1,0-0.1,0,0,0c1.8,0.9,3.5,1.9,5.4,2.4
		c0.3,0.1,0.6,0.2,0.9,0.2c0.1,0,0.3,0.1,0.4,0.1c0.3,0.1,0.5,0.2,0.8,0.4c0.2,0.1,0.4,0.3,0.6,0.4c0,0,0,0,0,0c0,0,0,0.1-0.1,0.2
		c0,0.1-0.2,0.2-0.3,0.2c-0.7,0-1.4,0-2.1,0c-1.1,0-2.1-0.2-3.2-0.3c-0.1,0-0.1,0,0,0.1c2.5,1.1,5.1,2,7.8,2c0.1,0,0.3,0,0.4,0.1
		c0.2,0.1,0.5,0.2,0.7,0.3c0.2,0.1,0.5,0.1,0.7,0.3c0.1,0.1,0,0.2-0.1,0.2c-0.6,0-1.1,0-1.7,0c-1.4,0-2.7-0.2-4.2-0.3
		c-0.1,0-0.1,0,0,0.1c2,0.7,4,1.1,6,1.3c0.1,0,0.1,0.1,0,0.1c-0.9,0.4-1.7,0.9-2.4,1.4c-0.1,0.1-0.3,0.2-0.4,0.2
		c-0.6,0.3-1.2,0.7-1.8,1.1c-0.1,0.1-0.2,0.1-0.2,0.2c-0.1,0.1-0.2,0.3-0.3,0.3c-0.2,0.3-0.5,0.5-0.7,0.8c-0.1,0.1-0.2,0.3-0.3,0.3
		c-0.6,0.6-1,1.3-1.3,2c0,0.1-0.1,0.3-0.2,0.4c-0.2,0.4-0.3,0.8-0.4,1.3c-0.2,0.9-0.6,1.8-1.3,2.5c-0.4,0.4-0.8,0.9-1.2,1.3
		c-0.1,0.1-0.1,0.2,0.1,0.2c1.2,0.4,2.2,0.5,3.1-0.6c0.1-0.1,0.1-0.1,0.1,0c0,0.2,0,0.4-0.1,0.5c-0.6,0.7-1,1.5-1.7,2.1
		c-0.9,0.7-2,1.1-3.2,0.7c-1.5-0.5-2.3-1.8-2.2-3.1c0-0.3,0.1-0.6,0.3-0.9c0-0.1,0-0.2-0.1-0.1c0,0-0.1,0.1-0.1,0.1
		c-0.1,0.2-0.3,0.3-0.4,0.5c-0.7,1.2-0.9,2.5-0.6,3.8c0.4,1.7,2.6,3.5,4.5,3.6c2.2,0.1,3.9-0.8,5.5-2.2c1-0.9,1.6-2.1,1.6-3.4
		c0-0.1,0-0.2,0.1-0.3c0-0.1,0.1-0.1,0.1,0c0.8,1.8,1.9,1.8,2.9,1.4c0.1,0,0.1-0.1,0-0.2c-0.6-0.4-1-0.9-1.2-1.6
		c-0.5-1.3-0.5-2.5-0.1-3.8c0.3-1,0.6-1.5,1.3-1.7c0.7-0.2,1.4-0.2,2,0c0.1,0,0.2,0.1,0.2,0.1c0,0,0,0,0,0c0.6,1.3,0.4,2.4-0.5,3.3
		c0,0,0,0,0,0c0,0,0.1,0.1,0.2,0.1c0.5,0.1,0.9,0.1,1.3-0.3c0.1-0.1,0.2-0.1,0.2,0.1c0.1,0.7-0.2,1.2-0.5,1.7
		c-0.1,0.1,0,0.2,0.1,0.2c0.7,0,1.4,0.1,2.1,0.1c0.1,0,0.2,0.1,0.1,0.2c-0.3,0.4-0.5,0.9-0.8,1.1c-0.6,0.4-1.3,0.7-2,1
		c-0.3,0.1-0.4,0.3-0.2,0.6c0.3,0.7,0.8,1.2,1.4,1.7c0.1,0.1,0.2,0,0.1-0.1c0-0.4-0.1-0.8-0.1-1.1c0-0.2,0.1-0.4,0.3-0.4
		c0.2-0.1,0.3-0.2,0.5-0.2c0.1,0,0.2,0,0.2,0.1c0,1,0,2,0,3c0,0.1-0.2,0.3-0.4,0.4c-0.4,0.1-0.8,0.1-1.2,0.1c-0.1,0-0.1,0.1,0,0.1
		c0.5,0.4,0.9,0.7,1.4,1c0.1,0.1,0.2,0.1,0.3,0.1c0.8-0.1,1-0.4,1.1-1.2c0-0.1,0-0.3,0-0.4c0.1-0.7,0.2-1.5,0.2-2.2
		c0-0.1,0.1-0.2,0.2-0.1c1.1,0.4,1.2,0.6,0.8,1.7c0,0,0,0.1,0,0.2c0,0.1,0,0.1,0.2,0.1c0.3-0.1,0.5-0.2,0.7-0.3
		c0.1-0.1,0.3,0,0.4,0.1c0.5,0.5,0.5,0.7,0.4,1.4c-0.1,0.4-0.2,0.7-0.3,1.2c0,0.1,0,0.1,0.1,0.1c0.2-0.2,0.4-0.4,0.6-0.6
		c1-1,1-1,0.5-2.3c-0.1-0.1-0.1-0.4,0-0.5c0.4-0.7,0.4-1-0.1-1.6c-0.5-0.4-1-0.7-1.5-1c-0.4-0.2-0.8-0.4-0.7-0.9c0-0.8,0.2-1.6,1-2
		c0.7-0.3,1.3-0.7,2-0.9c0.1-0.1,0.3-0.1,0.4-0.1c0.2-0.1,0.4-0.2,0.6-0.3c0.1-0.1,0.2-0.1,0.3,0c0.1,0.2,0.2,0.3,0.3,0.5
		c0.1,0.1,0.1,0.2,0.1,0.2c0,0,0,0.1,0.1,0.1c0,0,0.1,0.1,0.1,0.1c0,0.1,0.1,0.1,0.1,0.2c0.2,0.2,0.3,0.5,0.5,0.7
		c0.1,0.1,0,0.2-0.1,0.3c-0.4,0.2-0.8,0.4-1.2,0.7c-0.1,0.1-0.1,0.2-0.1,0.3c0.4,0.6,0.8,1.3,1.5,1.6c0.1,0,0.2,0,0.2-0.1
		c-0.1-0.3-0.1-0.7-0.2-1c0-0.1,0.1-0.2,0.2-0.2c0.3,0,0.5-0.1,0.8-0.1c0.1,0,0.3,0.1,0.3,0.2c0.1,0.5,0.1,1.1,0.1,1.6
		c0,0.1-0.1,0.2-0.2,0.2c-0.6-0.1-1.2-0.2-1.8-0.3c-0.1,0-0.1,0-0.1,0.1c0.7,0.6,1.3,1.2,1.9,1.8c0.1,0.1,0.2,0.1,0.3,0
		c0.2-0.2,0.5-0.3,0.7-0.5c0.1-0.1,0.2,0,0.3,0.1c0.2,0.3,0.4,0.7,0.6,0.8c0.3,0.1,0.7-0.1,1-0.2c0.1,0,0.2-0.2,0.2-0.3
		c-0.1-0.5-0.2-0.9-0.2-1.4c0-0.2,0-0.4,0.1-0.5c0.5-0.4,0.4-0.8,0.1-1.2c-0.1-0.2-0.2-0.3-0.3-0.5c-0.4-0.8-0.8-1.5-1.7-1.7
		c-0.1,0-0.2-0.1-0.2-0.2c0.1-0.3,0.1-0.5,0.1-0.8c0-0.1,0.1-0.2,0.2-0.2c0.7,0.1,1.4,0.2,2.1,0.2c3,0.2,6,0,8.8-1.2
		c1.9-0.8,3.7-1.7,5.5-2.6c0.9-0.4,1.7-0.6,2.6-0.3c1,0.3,2,0.7,3,1c0.1,0,0.3,0.1,0.4,0.2c0.2,0.1,0.3,0.1,0.5,0.2
		c0.1,0,0.3,0.1,0.3,0.2c0.3,0.6,0.3,1.4-0.1,2.4c0,0.1,0,0.2,0.1,0.1c0.5-0.2,1-0.4,1.5-0.7c0.9-0.6,1.8-1.2,2.3-2.2
		c0.3-0.5,0.3-1.1-0.1-1.6c-0.3-0.4-0.6-0.9-0.9-1.3C581.4,68.2,581.4,68.1,581.3,68z"/>
	<path id="XMLID_15_" class="st0" d="M667.9,76.3c-0.3-2.3-2.8-2.6-4.3-2.4c-1.6-5.9,3.9-14.7,4.2-16.8c0.3-2.2-1.6-15.3-1.8-21.9
		c-0.2-6.8-10-14.3-11.7-13.1c-1.6,1.8,2.3,4.2,0.3,6.3c-2,2-2.5,3.4-4,5.6c-3.8,5.8,6.6,5.9,6.6,5.9s-8.1,6-10,9.1
		c-1.7,2.8-2.4,5.9-4.4,8.6c-4.6,6-3.6,16.5-3.6,16.5s-8.7-2.8-3.9-12.8c3.6-7.6,5.4-18.7-2.8-15.8c-3.2,1.1,0.7,3.4,1.4,4.2
		c2.2,2.5,0.3,6.7-1,9.1c-3.6,6.5-4.9,13.3,2.7,17.5c3.4,1.9,7.9,2.3,12.5,2.4l11.7,0C663.7,79.1,668.1,78.4,667.9,76.3z"/>
	<path id="XMLID_36_" class="st0" d="M777.5,44.8c-1.1-0.1-2.2-0.2-3.3-0.3c-0.4-0.1-0.9-0.2-1.3-0.3c0-0.1-0.1-0.1-0.1-0.2
		c0.8-0.3,1.7-0.6,2.5-0.9c0.5,0,1.1,0,1.6,0c0.1,0,0.2,0.1,0.3,0.1c0.2,0.1,0.4-0.1,0.3-0.3c0-0.1-0.1-0.2-0.2-0.2c0,0,0,0,0,0
		c-0.1-0.1-0.2-0.2-0.3-0.2c0,0,0,0,0,0c-0.3-0.2-0.6-0.4-1-0.5c-0.2-0.1-0.4-0.1-0.6-0.2c-2.3-1.1-5.1-2.1-7.6-1.8
		c-2,0.1-3.8,1-5.3,2.8c-1,1.2-1.8,2.6-2.8,3.8c-0.4,0.5-1.1,1-1.7,1.3c-2,0.9-4.1,1.6-6.1,2.5c-1.5,0.7-2.8,1.7-4.3,2.4
		c-2.8,1.3-5.5,2.9-8,4.7c-1.5,1.1-3.2,2.1-4.7,3.1c-0.8,0.5-1.9,0.6-2,1.8c0,0.1-0.2,0.2-0.3,0.3c-1.8,0.7-3.5,1.3-5.4,1.9
		c-2.9,0.9-5.8,2.1-8.5,3.6c-0.3,0.2-0.5,0.4-0.7,0.6c0,0.1,0.1,0.1,0.1,0.2c1.5-0.6,3-1.2,4.5-1.8c0,0.1,0.1,0.1,0.1,0.2
		c-1.5,0.9-3,1.9-4.5,2.8c0,0.1,0.1,0.1,0.1,0.2c1.1-0.6,2.3-1.2,3.4-1.8c0,0.1,0.1,0.1,0.1,0.2l-0.3,0.6c0,0,0.1,0.1,0.1,0.1
		c1.1-0.6,2.2-1.2,3.2-1.8l0.1,0.2l-1.9,1.8c0.1,0.1,0.1,0.2,0.2,0.3c0.7-0.4,1.4-0.7,2.1-1.1c1.8-0.9,3.6-2,5.5-2.5
		c1.7-0.5,3.6-0.3,5.4-0.3c0.9,0,1.8,0.1,2.6,0.2c0.8,0,1.8,0.3,2.5,0c1.4-0.6,2.7-0.2,4.1,0.1c0.2,0,0.4,0.4,0.5,0.6
		c0.4,0.7,0.6,1.5,1.1,2.2c1.1,1.4,2.4,2.8,3.6,4.2c0,0,1.2,1.2,0.3,1.9c-0.9,0.7-0.5,0.6-0.3,0.7c0,0,1.3-0.7,2.3-0.2
		c1.3,0.6,3.7-0.6,4.5-0.1c0.7,0.5,2.1-0.1,2.8,0.1c0.7,0.2,0.9,0.8,0.8,0c-0.1-0.8-2.3-1-2.3-1c-0.9-0.2-1.8-0.4-2.5-1
		c-1-0.8-1.8-1.8-2.7-2.8c-0.9-1-2.1-1.8-1.2-3.5c0-0.1,0-0.2,0-0.3c0.1-0.1,0.2-0.3,0.2-0.3c0.6-0.1,1.2-0.1,1.7-0.1
		c0.2,0,0.4,0.1,0.6,0c1-0.3,1.9-0.7,2.8-1c2.7-0.7,5.2-1.8,7.2-3.7c1-1,2-1.9,3.1-2.8c0.9-0.8,1.8-1.7,2-2.9c0.2-1,0.3-1.9,0.4-2.9
		c0.2-1.9,1.2-3.6,2-5.3c0.7-1.4,1.9-2.3,3.6-2.5c0.3,0,0.7-0.2,1-0.3v0c0,0,0,0,0,0c0.1,0,0.2-0.1,0.4-0.1
		C777.8,45.1,777.8,44.8,777.5,44.8z M754.2,73.5c0.1,0.1,0.2,0.4,0.1,0.5c-0.1,0.1-0.4,0.2-0.5,0.2c-0.3-0.1-0.7-0.1-0.8-0.3
		c-1.3-1.5-2.6-3-3.9-4.5c-0.4-0.5-0.4-0.9,0-1.3c0.5,0.5,1.1,0.9,1.5,1.4C751.9,70.8,753.1,72.1,754.2,73.5z"/>
	<defs>
		<filter id="Adobe_OpacityMaskFilter" filterUnits="userSpaceOnUse" x="2.7" y="115.8" width="93.8" height="96.9">
			<feColorMatrix  type="matrix" values="1 0 0 0 0  0 1 0 0 0  0 0 1 0 0  0 0 0 1 0"/>
		</filter>
	</defs>
	<mask maskUnits="userSpaceOnUse" x="2.7" y="115.8" width="93.8" height="96.9" id="XMLID_2_">
		<g id="XMLID_39_" class="st1">
			<circle id="XMLID_40_" class="st2" cx="50.1" cy="151.1" r="49.1"/>
		</g>
	</mask>
	<path id="XMLID_100_" class="st3" d="M91.3,191c-3.6-3-5.2-7.8-9.1-10c-3.7-2.1-3.7-2.7-4.3-6.4c-0.4-2.6-2.1-2.4-4-3.8
		c-1.9-1.3-2.9-1.6-5.2-2.1c-1.7-0.4-2.2-0.5-2.8-0.1c-0.2-0.6-0.5-1.2-0.6-1.8c-0.1-0.8-0.1-1.8,0-2.7c0.1-1.2,0.5-2.7,0.8-3.9
		c0.3-1.4,0.6-2.2,1.6-3.3c0.6-0.6,1.5-1.7,0.9-2.5c0.4-0.3,0.2-1.4,0.4-1.9c0.4,0.3,0.7,0.9,1.2,1.1c0-0.7,0.1-2.8,1.2-1.6
		c0-0.5,0.1-1.9,0.9-1.6c0-0.3,0-0.7,0.1-1c0.1,0.1,0.4,0.3,0.6,0.4c0.1-0.5-0.2-1-0.1-1.5c0.3,0,0.6,0.3,1,0.3c0-0.6,0-1.2-0.2-1.8
		c0.4,0,0.8,0.3,1.2,0.4c0-0.8-0.9-1.5-1.1-2.2c0.6,0,1.1,0.5,1.7,0.4c0.1-0.7-1.1-1.6-1.5-2c0.3,0,0.6,0.1,0.8,0.2
		c-0.2-0.2-1.1-0.9-1-1.2c0.1-0.5,1.3-0.2,1.4-0.8c0-0.5-0.8-0.5-0.8-0.9c0-0.4,0.6-0.5,0.8-0.7c-0.3-0.1-1.4-0.5-1.3-0.9
		c0.2-0.4,1.2,0,1.3-0.6c-1.1-0.5-1.1-0.5-0.2-1.1c-0.4-0.2-0.9-0.2-1.1-0.5c0.2-0.1,0.5-0.3,0.6-0.5c-0.2-0.1-0.3-0.3-0.5-0.4
		c0.2,0.2,0.5,0.3,0.7,0.3l-0.8-0.6c0.3-0.5,1-0.7,1.4-1.1c-0.3,0-0.6,0-0.9,0c0.1-0.1,0.4-0.5,0.4-0.6c0-0.5-0.2-0.2-0.3-0.5
		c-0.1-0.3-0.2-0.4,0.1-0.8c-1.4,0.1-0.3-0.6,0.1-0.9c-0.1-0.1-0.1,0-0.2-0.1c0.1-0.2,0.1-0.5,0.1-0.7c-0.4,0-1-0.6-1.4-1.1
		c-0.1-1.8,0.1-3.6,0-5.4c-0.1-1-0.1-1.9,0.1-2.9c0.2-1,0.4-1.7-0.1-2.6c-0.4,0-0.8,0.5-1.1,0.6c-0.3-0.7,0.1-1.7-0.2-2.1
		c-0.2-0.4-1.6-1.4-2.1-1.3c-0.5,1.2-1,2.3-1.8,3.2c-0.8,0.9-0.9,2-1.7,2.9c-1.6,1.8-2.8,2-3.4,3.1c-0.7,1.1-0.9,2.3-1.7,3.3
		c-0.4,0.5-1.3,1.2-1.6,1.7c-0.3,0.5-1.1,1-1.4,1.6c0.6,0.2,2.4-0.7,2.9-0.5c0.8,0.2,0.4,0.9,0.1,1.5c-0.4,0.6-0.7,1.1-1.3,1.4
		c-0.2,0.1-0.5,0.2-0.7,0.4c-0.2,0.3,0,0.6-0.1,0.9c-0.2,0.6-1,0.8-1.5,1.2c-0.5,0.4-0.8,0.8-1.4,1.1c-1.2,0.7-2.2,1.5-3.4,2.1
		c-1.6,0.8-3,1.8-4.2,3.1c-0.5,0.6-1,1-1.8,1.4c-0.7,0.4-2.6,0.2-3,0.7l0.1,0.1c-2.4,0-5.4,0.4-7.4,1.9c-1.1,0.8-2,1.7-3.2,2.4
		c-1.2,0.7-2.4,1.4-3.6,2c-0.2,0.1-0.9,0.2-1,0.4c-0.3,0.5,0.3,0.4,0.4,0.8c0.1,0.4-0.1,0.4-0.2,0.7c0,0.1-0.3,0.2-0.3,0.3
		c-0.1,0.1,0.1,0.4,0,0.5c-0.7,1.1-2.1,2.2-3.1,3.1c-0.9,0.8-1.9,1.6-2.9,2.2c-1,0.6-1.9,1.5-3,2.1c-2.5,1.3-4.8-0.2-7.2-0.5
		l-0.9,0.1c0.8,0.2,2.4,1.3,1.2,1.6c0.6,0.3,3.1,1.1,2.1,2.2c0.7,0.3,1.6-0.2,1.5,1c1.2,0.3,3,0.4,4.1-0.3c-0.4,0.4-0.8,0.8-1.2,1.1
		c0.7-0.2,1.5-0.4,2.2-0.7c0.1,0.2,0.1,0.5,0.1,0.8c0.8-0.2,1.7-0.9,2.5-1.2c0,0.1,0,0.3,0,0.4c0.8-0.1,1.7-0.9,2.3-1.4
		c-0.2,0.2-0.5,0.5-0.6,0.8c0.7-0.6,1.3-1.6,2.3-1.9c0,0.3,0,0.6,0,0.9c0.1-0.8,1.1-1.2,1.6-1.7c-0.1,0.2-0.1,0.4-0.1,0.6
		c0.4-0.6,1.1-1.2,1.7-1.7c0.1,1.1-1.5,2.7-2.1,3.7c-0.5,0.8-1,2.5-2.1,2.5c0.4,3.1,1.4,9.7-2.5,11c0.6,0.7,1,1.5,1.1,2.4
		c-1.4-0.3-2.5-0.8-3.8,0c-2.4,1.4-2.5,4.7-3.5,6.9c-0.6,1.4-1.7,4-2.7,5.1c-0.6,0.7-1.9,0.9-2.7,1.4c-1.8,1-2.6,1.8-3.8,3.5
		c-1.5,2.2-2.6,4.6-4,6.8c-1,1.5-3.5,3-2.1,4.9c1,1.4,5.1,1.9,6.6,2.2c4.6,0.8,9.6,0.5,14.3,0.7c10.6,0.4,20.7,0.2,31.1-1.8
		c7.1-1.4,13.8-3.1,19.9-7.1c1.6-1,0.8,4.3,2.7,4c1.6-0.2,4.2-1.3,5.7-2.1c4-2.1,10.1,1.8,9.6-2.3c0,0.2,3.5-2.1,3.4-1.8L91.3,191z
		 M73.2,129.4c0-0.1,0-0.1,0-0.2L73.2,129.4z M38.7,165.8l-0.1-0.1c0,0,0,0,0,0C38.6,165.7,38.7,165.7,38.7,165.8z M28.6,181.3
		c0-0.5,0-0.9,0-1.4c-0.1-0.8,0.1-1,0.4-1.9c0.7-1.8,1.3-3.8,1.8-5.7c0.1-0.5-0.1-1.6,0.2-2c0.2-0.2,0.8-0.3,1.1-0.4
		c0.5-0.2,1.1-0.4,1.6-0.7c1.1-0.6,4.5-1.8,5-3.3c0,1.1,0.2,2.3,0,3.4c-0.1,0.5-0.3,1-0.8,1.4c-0.4,0.3-0.9,0.3-1.1,0.6
		c0.8,1.1,1.5,1.8,1.8,3.3c0.2,1.1-0.1,2.2-0.3,3.2c-2,0.5-3.3,0.6-5.1,2C31.3,181.2,30.3,181.3,28.6,181.3z M54.7,173.7
		c-0.8,0.4-1.7,0.5-2.5,1c-1.1,0.7-1.7,2-2.7,2.7c-2.1,1.5-3.5-0.2-5.9-0.7c-1.4-0.3-2.4,0.1-3.5,0.5c-0.1-0.5-0.1-1.1-0.1-1.6
		c0-0.8,0-1.9,0.4-2.6c0.4-0.8,1.4-1.2,2.1-1.8c0.9-0.7,1.7-1.5,2.4-2.3c0.8-1,1.3-1.8,1.7-3.1c0.5-1.5,0.9-3,1.6-4.4
		c0.4-0.8,0.6-2,1.3-2.7c0.5-0.5,1.2-0.7,1.9-0.9c0,0.1,0.1,0.2,0.1,0.2c0.1,0,0.2,0,0.2-0.1l0.1-0.2c0.2,0.5-0.2,0.8-0.4,1.2
		c0.5,0.1,1-0.2,1.4-0.5c-0.1,0.1-0.2,0.3-0.3,0.4c0.5,0.1,1.1-0.4,1.6,0.1c0.3,0.3,0.2,1,0.2,1.4c0,0.5,0.1,1,0.1,1.5
		c0,0.6-0.4,0.9-0.4,1.4c0.2-0.1,0.5-0.1,0.7-0.1c-0.2,0.6-0.8,1-0.9,1.7c0.3-0.1,0.6-0.2,0.8-0.3c0,0.4-0.2,0.8-0.4,1.1
		c0.1,0,0.2,0,0.3,0c0,0.7,0.3,1.2,0.3,1.9c0,0.6-0.1,1.4,0,2c0.1,0.6,0,0.3,0.5,0.6c0.4,0.3,0.6,0.5,0.9,1c0.2,0.3,0.5,0.7,0.6,1
		C56.2,172.8,55.5,173.4,54.7,173.7z M59.5,170.9c-0.3,0-0.5,0.1-0.7,0.2c-0.2-0.4-0.5-0.7-0.6-1.1c-0.4-1.1-0.5-2.3-0.3-3.5
		c0.4-2.5,0.3-5.1,0.6-7.6c0.2,0.4,0.8,1.5,1.1,0.4c0.2,0.4,0.5,0.3,0.8,0c0.9,1.1,0.5,2.9,0.5,4.4c0.1-0.1,0.2-0.3,0.2-0.4
		c0,0.4-0.2,0.9-0.3,1.3c0.3-0.3,0.7-0.6,1-0.9c-0.4,0.3-0.6,0.7-0.7,1.1c0.2-0.1,0.6-0.4,0.8-0.5c0,0.7-0.4,1.4-0.4,2.2
		c0.1-0.2,0.3-0.3,0.5-0.5c0,0.5-0.3,0.9-0.4,1.4c0.2-0.2,0.4-0.3,0.6-0.4c0,0.5-0.3,0.9-0.3,1.4c0.9,0.4,1.1,1.6,1.6,2.4
		C62.1,172.3,61.8,170.8,59.5,170.9z"/>
	<path id="XMLID_97_" class="st0" d="M187.7,173.1c0-0.2-0.1-0.3-0.2-0.5c-0.4-0.4-0.9-0.8-1.3-1.3c-0.2-0.2-0.3-0.2-0.5-0.3
		c-0.1,0-0.3-0.1-0.4-0.1c-1.4-0.4-2.8-0.9-4.3-1.1c-0.1,0-0.2-0.1-0.3-0.1c-0.5-0.4-1.1-0.7-1.6-1.1c-0.1-0.1-0.2-0.1-0.2-0.2
		c-0.2-0.3-0.4-0.6-0.6-0.9c-0.3-0.7-0.6-1.4-1-2c-0.7-1.2-1.4-2.4-2-3.7c-0.1-0.1-0.1-0.3-0.2-0.4c-0.1-0.2-0.2-0.4-0.2-0.5
		c-0.3-0.8-0.5-1.7-0.8-2.5c-0.2-0.5-0.3-1.1-0.5-1.6c-0.5-1.2-1.1-2.4-1.6-3.6c0-0.1-0.1-0.2-0.1-0.3c-0.1-0.4-0.1-0.8-0.1-1.3
		c0-0.8,0-1.6,0.1-2.4c0.1-1.2,0-2.3-0.2-3.5c-0.1-0.6-0.3-1.1-0.5-1.7c-0.1-0.2-0.1-0.4-0.1-0.5c0-0.4,0-0.9,0-1.3
		c0-0.9-0.2-1.9-0.5-2.7c0-0.1-0.1-0.2-0.2-0.3c-0.2-0.3-0.4-0.6-0.7-0.7c0-0.2,0.1-0.3,0.2-0.4c0.3-0.2,0.3-0.2,0.6,0
		c0.1,0,0.1,0.1,0.3,0.1c0-0.3,0.1-0.5,0.1-0.8c0,0,0,0,0.1,0c0,0.1,0.1,0.2,0.1,0.3c0.1-0.1,0.2-0.2,0.2-0.3
		c0.2-0.3,0.4-0.6,0.6-0.9c0.5-0.7,0.8-1.5,0.8-2.3c0-0.3,0.1-0.4,0.3-0.6c0.3-0.2,0.4-0.4,0.5-0.7c0.1-0.3,0.2-0.7,0.2-1.1
		c0-0.3,0-0.7,0.1-1c0.1-0.4,0.2-0.8,0.4-1.2c0-0.1,0.1-0.2,0.1-0.3c0-0.1,0.1-0.2,0.1-0.4c0-0.2,0.1-0.3,0.1-0.5
		c0-0.3-0.3-0.8-0.6-0.9c-0.4-0.1-0.9-0.1-1.3,0.1c-0.2,0.1-0.4,0.2-0.6,0.3c-0.1-0.2-0.2-0.4-0.3-0.5c0.1-0.1,0.2-0.2,0.3-0.3
		c-0.1-0.1-0.2-0.1-0.3-0.2c-0.3-0.2-0.6-0.4-0.9-0.6c-0.4-0.3-0.8-0.7-1.1-1.1c-0.3-0.3-0.7-0.4-1.1-0.6c0,0,0,0-0.1,0
		c0,0.1-0.1,0.1-0.1,0.2c-0.4-0.2-0.8-0.3-1.2-0.2c-0.4,0.1-0.9,0.1-1.3-0.1c-0.2-0.1-0.4-0.1-0.7-0.1c0,0,0,0.1-0.1,0.1
		c0,0,0,0.1,0,0.2c-0.3-0.1-0.6-0.3-1-0.3c0,0.3-0.2,0.4-0.4,0.4c-0.1,0-0.3,0.1-0.4,0.1c-0.1,0-0.2,0-0.3,0.1c-0.5,0.3-1,0.6-1.4,1
		c-0.1,0.1-0.2,0.2-0.2,0.3c-0.1-0.1-0.2-0.2-0.3-0.3c-0.2,0.3-0.4,0.6-0.6,0.8c-0.1-0.1-0.1-0.1-0.2-0.2c-0.6,0.4-0.8,1.1-1.1,1.8
		c-0.2-0.2-0.5-0.3-0.7-0.5c-0.2-0.2-0.4-0.2-0.7-0.3c-0.3-0.1-0.5,0.1-0.5,0.4c0,0.1,0,0.2,0,0.3c0,0,0,0.1,0,0.1c0,0,0,0.1,0,0.1
		c0.2,0.4,0.4,0.7,0.6,1.1c0,0,0,0.1,0,0.1c0,0,0,0,0,0c0.2,0.5,0.2,0.9,0.2,1.4c0,0.1,0,0.2,0.1,0.3c0,0.1,0,0.2,0,0.2
		c0,0.5,0,1,0.3,1.4c0.1,0.1,0,0.2-0.1,0.2c-0.1,0.1-0.3,0.1-0.4,0.2c-0.8,0.4-1.6,0.7-2.4,1.1c-0.5,0.2-1,0.4-1.4,0.8
		c-0.1,0.1-0.2,0.2-0.3,0.2c-0.3,0.2-0.6,0.4-1,0.5c-1.3,0.4-2.6,0.7-3.9,1.1c-1.1,0.3-2.2,0.6-3.2,1.1c-0.4,0.2-0.8,0.4-1.2,0.5
		c-0.1,0-0.2,0.1-0.3,0.1c-0.8,0.5-1.5,1-2.2,1.5c-0.3,0.3-0.6,0.5-1,0.7c-1.2,0.7-2.4,1.6-3.6,2.4c-0.4,0.3-0.8,0.6-1.1,0.8
		c-0.1,0.1-0.2,0.2-0.4,0.2c-0.9,0.2-1.7,0.6-2.5,1.1c-0.7,0.4-1.3,0.8-2,1.2c-0.1,0.1-0.3,0.1-0.4,0.2c-1.6,0.3-3.2,0.7-4.8,1.2
		c-0.8,0.3-1.6,0.6-2.3,0.9c-0.9,0.5-1.8,1-2.6,1.7c-0.5,0.4-1,0.9-1.4,1.4c-0.5,0.6-0.9,1.2-1.3,1.9c-0.5,1-0.9,2.1-1.2,3.2
		c-0.3,1-0.5,2-0.5,3c0,0.4-0.1,0.9-0.1,1.3c0,0.5,0.1,0.9,0.1,1.4c0,0.2,0,0.4,0.1,0.6c0.2,0.9,0.3,1.7,0.7,2.5
		c0.1,0.3,0.2,0.6,0.3,0.9c0.4,0.9,1,1.7,1.6,2.5c0.1,0.1,0.2,0.2,0.3,0.4c0.2,0.2,0.4,0.4,0.6,0.6c0.6,0.5,1.1,1.1,1.7,1.6
		c0,0,0,0.1-0.1,0.1c-0.3,0.3-0.6,0.6-1,0.8c-0.6,0.4-1.1,0.8-1.7,1.2c-0.4,0.3-0.7,0.6-0.8,1.2c0,0.4,0,0.7,0.2,1
		c0.3,0.4,0.7,0.6,1.2,0.9c1.3,0.6,2.5,1.3,3.8,1.9c0.5,0.2,0.9,0.5,1.2,1c0.4,0.6,0.9,1.1,1.3,1.7c0.2,0.2,0.4,0.3,0.6,0.5
		c0.2,0.2,0.5,0.1,0.7,0.1c0.1,0,0.2-0.2,0.2-0.3c0-0.1,0-0.2-0.1-0.3c-0.1-0.3-0.2-0.6-0.3-0.9c0-0.1,0-0.2,0.1-0.2
		c0,0.1,0.1,0.2,0.1,0.2c0.2,0.5,0.5,1.1,0.7,1.6c0,0.1,0.1,0.2,0.2,0.2c0.2,0.1,0.5,0.2,0.7,0.1c0.3-0.1,0.4-0.2,0.4-0.6
		c0,0,0-0.1,0-0.1c0.2,0.1,0.3,0.1,0.5,0.2c0.4,0.1,0.8-0.2,0.7-0.6c-0.1-0.2-0.1-0.4-0.1-0.6c-0.1-0.6-0.2-1.2-0.3-1.8
		c0-0.6,0-1.2-0.1-1.8c0-0.4-0.2-0.7-0.6-0.9c-0.1,0-0.2-0.1-0.4-0.1c-0.4-0.1-0.7-0.3-1.1-0.4c-0.8-0.2-1.5-0.5-2.1-1
		c-0.1-0.1-0.2-0.1-0.2-0.2c0.3-0.3,0.3-0.3,0.7-0.2c0.1,0,0.1,0,0.2,0.1c0.8,0.2,1.6,0.4,2.4,0.5c0.7,0.1,1.4,0.2,2.1,0.2
		c0.5,0,1-0.1,1.4-0.1c0.7-0.1,1.4-0.2,2.1-0.4c0.5-0.2,1-0.4,1.6-0.6c0.9-0.4,1.8-1,2.6-1.6c0.5-0.4,1-0.9,1.4-1.4
		c0.9-1,1.7-2,2.5-3c0.4-0.5,0.8-0.9,1.3-1.3c0.2-0.1,0.3-0.2,0.5-0.3c0,0.1-0.1,0.2-0.1,0.3c-0.3,0.6-0.7,1.1-0.9,1.7
		c-0.3,0.8-0.6,1.6-0.9,2.4c-0.2,0.7-0.3,1.4-0.1,2.1c0,0.1,0.1,0.2,0.2,0.2c0.1,0.1,0.3,0.2,0.5,0.3c0.3,0.1,0.7,0,1,0
		c0.8-0.2,1.6-0.3,2.3-0.5c0.3-0.1,0.7-0.1,1-0.1c0.5,0,1.1,0.1,1.6,0.2c0.8,0.1,1.6,0.2,2.4,0.3c0.6,0,1.1-0.2,1.6-0.5
		c0.3-0.2,0.3-0.6,0.1-0.7c-0.2-0.1-0.4-0.2-0.6-0.2c-0.4-0.1-0.7-0.1-1.1-0.2c-0.3-0.1-0.7-0.2-1-0.3c-0.2-0.1-0.2-0.3,0-0.3
		c0.1,0,0.2-0.1,0.3-0.1c0.3,0,0.6-0.1,0.9-0.1c0.7,0,1.5-0.1,2.2-0.1c0.3,0,0.5,0.1,0.8,0.3c0.6,0.5,1.2,1,1.7,1.6
		c0.3,0.2,0.6,0.3,0.9,0.3c0.4,0,0.7-0.3,0.5-0.7c-0.1-0.2-0.1-0.4-0.2-0.5c0.5-0.1,0.7-0.7,0.4-1.1c-0.6-0.8-1.3-1.6-2.1-2.3
		c-0.2-0.2-0.5-0.3-0.7-0.3c-0.4,0-0.8,0-1.1,0.1c-1,0.3-2.1,0.5-3.1,0.7c-0.1,0-0.2,0-0.3,0c-0.3,0-0.3-0.1-0.3-0.4
		c0.1-0.3,0.2-0.5,0.3-0.8c0.4-0.9,0.8-1.8,1.5-2.5c0.5-0.6,1-1.3,1.4-1.9c0.3-0.5,0.7-1,1.1-1.4c0.3-0.3,0.4-0.6,0.6-0.9
		c0-0.1,0.1-0.2,0.1-0.4c0.1,0,0.1,0.1,0.1,0.1c0.4,0.4,0.9,0.8,1.2,1.3c0.2,0.3,0.5,0.6,0.8,0.9c0.5,0.6,0.9,1.3,1.3,2
		c0.2,0.4,0.4,0.8,0.6,1.2c0.2,0.4,0.5,0.7,0.8,0.9c0.1,0.1,0.2,0.2,0.3,0.3c0.1,0.3,0.3,0.7,0.4,1c0,0.1,0.1,0.2,0.1,0.3
		c0.1-0.1,0.1-0.1,0.2-0.1c0.1,0.2,0.2,0.4,0.3,0.6c0.3,0.5,0.6,0.8,1.1,1.1c0.4,0.2,0.8,0.3,1.3,0.5c0.8,0.2,1.6,0.5,2.4,0.7
		c0.2,0.1,0.3,0.1,0.4,0.3c0.2,0.7,0.6,1.3,1,1.9c0.2,0.3,0.4,0.5,0.7,0.6c0.3,0.1,0.6-0.1,0.6-0.5c0-0.2,0-0.3-0.1-0.5
		c-0.2-0.6-0.3-1.2-0.5-1.8c0-0.1,0-0.2-0.1-0.3c0,0,0,0,0.1,0c0.1,0.1,0.1,0.2,0.2,0.3c0.3,0.8,0.6,1.5,0.9,2.3
		c0.1,0.2,0.2,0.3,0.3,0.4c0.3,0.3,0.9,0.3,1.2-0.1c0.1-0.1,0.2-0.2,0.3-0.2c0.2,0,0.4-0.1,0.4-0.3c0-0.2,0.1-0.4,0.1-0.6
		c0-0.1,0-0.3,0.1-0.4c0.1-0.1,0.2-0.3,0.2-0.4c0-0.3,0-0.5,0-0.8c-0.1-0.8-0.2-1.5-0.4-2.3c0-0.1-0.1-0.2-0.1-0.3
		c-0.2-0.3-0.4-0.5-0.7-0.6c-1.6-0.7-3.2-1.4-4.7-2.1c-0.1-0.1-0.2-0.1-0.3-0.2c-0.4-0.3-0.9-0.6-1.3-0.9c-0.1-0.1-0.2-0.1-0.2-0.2
		c-0.4-0.5-0.7-1-1-1.6c-0.5-0.9-0.9-1.9-1.2-2.8c-0.7-1.8-1.3-3.7-2.1-5.4c-0.1-0.1-0.1-0.3-0.2-0.4c-0.4-0.8-0.9-1.6-1.3-2.4
		c0-0.1-0.1-0.1-0.1-0.2c0.4-0.2,0.8-0.4,1.2-0.6c1.1-0.5,2.3-1,3.3-1.7c0.1,0,0.1-0.1,0.2-0.1c0,0.1,0.1,0.2,0.1,0.2
		c0.3,1,0.7,2,0.9,3c0,0.2,0.1,0.4,0.1,0.5c0.1,0.6,0.1,1.2,0.1,1.8c0,0.4,0,0.9-0.2,1.3c0,0.1-0.1,0.2-0.1,0.3c0,0,0,0.1,0,0.2
		c0.3-0.1,0.5-0.4,0.8-0.5v1c0.2,0,0.3-0.1,0.5-0.1c0.1,0.5,0.2,0.9,0.3,1.4c0.1,0.5,0.3,0.9,0.6,1.3c0,0,0.1,0,0.1,0.1
		c0.1-0.2,0-0.5,0.2-0.7c0.1,0.2,0.2,0.4,0.3,0.6c0.5,0.9,1,1.7,1.8,2.4c0.1,0.1,0.1,0.2,0.2,0.2c0.5,0.6,1,1.3,1.5,1.9
		c0.8,1,1.6,2.1,2.3,3.2c0.7,1.1,1.4,2.1,2.1,3.2c0.4,0.3,0.4,0.8,0.3,1.2c0,0.5,0,1,0,1.5c0,0.3,0.1,0.6,0.3,0.8
		c0.1,0.1,0.2,0.2,0.3,0.2c0.9,0.6,1.8,1.1,2.7,1.7c0.3,0.2,0.7,0.4,1,0.7c0.3,0.3,0.6,0.3,1,0.4c0.4,0.1,0.8-0.5,0.7-0.8
		c-0.1-0.2-0.2-0.5-0.3-0.7c-0.2-0.2-0.4-0.5-0.7-0.7c-0.3-0.2-0.6-0.4-0.8-0.6c-0.2-0.1-0.3-0.2-0.4-0.5c0.1,0,0.2-0.1,0.2-0.1
		c0.2,0,0.3,0,0.5,0c0.9,0.2,1.9,0.4,2.8,0.7c0.1,0,0.2,0.1,0.3,0.2c0.5,0.3,0.9,0.6,1.4,0.9c0.3,0.2,0.6,0.3,0.9,0.5
		c0.2,0.1,0.4,0.1,0.6,0.1c0.4-0.1,0.6-0.4,0.4-0.7c0-0.1-0.1-0.2-0.2-0.3c0.2,0.1,0.4,0.2,0.6,0.2c0.5,0.1,0.8-0.2,0.8-0.6
		c0-0.1,0-0.1,0.1-0.2c0.2-0.1,0.3-0.3,0.3-0.4v-0.2c-0.1-0.2-0.1-0.4-0.3-0.5C187.7,173.3,187.7,173.2,187.7,173.1z M127.3,166.4
		c-0.6,0.6-1.3,1.3-1.8,2c-0.4,0.5-0.7,1-1.1,1.5c-0.1,0.1-0.1,0.1-0.2,0.2c-0.4-0.3-0.7-0.6-1.1-1c-0.5-0.5-0.9-1-1.4-1.6
		c0,0-0.1-0.1-0.1-0.1c-0.6-0.9-1-1.8-1.3-2.8c-0.1-0.4-0.1-0.7-0.2-1.1c-0.2-1.1-0.1-2.2,0-3.3c0.1-1.2,0.4-2.3,0.6-3.4
		c0.1-0.3,0.2-0.6,0.4-0.9c0.3-0.8,0.7-1.5,1.1-2.2c0-0.1,0.1-0.1,0.1-0.2c0.4-0.4,0.8-0.8,1.2-1.2c0.1-0.1,0.2-0.1,0.2-0.2
		c0.6-0.3,1.1-0.6,1.7-0.9c0.1-0.1,0.3-0.1,0.4-0.2c0.5-0.1,1-0.3,1.5-0.4c0.5-0.1,1-0.1,1.4-0.2c0.6-0.1,1.1,0,1.7,0.1
		c-0.1,0.3-0.2,0.6-0.4,0.8c-0.1,0.1-0.2,0.2-0.3,0.3c0,0-0.1,0.1-0.1,0.2c0.3,0,0.4-0.2,0.7-0.3c-0.2,0.5-0.4,1-0.6,1.6
		c0.3-0.2,0.4-0.4,0.7-0.6c-0.1,0.4-0.3,0.8-0.2,1.3c0.1,0,0.2,0,0.3,0c0,0.3,0,0.6-0.1,1c0.2,0,0.3,0,0.4-0.1
		c-0.1,0.7-0.2,1.3-0.3,1.9c0,0,0,0,0.1,0c0.1,0,0.2-0.1,0.3-0.1c0.1,0.3,0,0.6,0,0.9c0,0.3,0.1,0.6,0.1,0.8c0.2,0,0.2-0.2,0.4-0.2
		c0.2,0.5,0,1,0,1.5c0.1,0,0.3-0.1,0.4-0.1c-0.1,0.3-0.2,0.5-0.3,0.7c0.3,0,0.4-0.2,0.6-0.2c0,0.1,0.1,0.2,0.1,0.3
		c0.1,0.5,0.2,1,0.2,1.6c0,0.4-0.2,0.7-0.4,1c-0.3,0.4-0.7,0.7-1.1,1c-0.6,0.4-1.3,0.8-1.9,1.2c-0.6,0.3-1.1,0.7-1.6,1.1
		C127.4,166.3,127.4,166.4,127.3,166.4z M147.6,162.2c-0.3,0.6-0.6,1.2-1,1.7c-0.1,0.1-0.2,0.2-0.3,0.2c-0.4,0.1-0.8,0.2-1.2,0.3
		c-0.1,0-0.1,0-0.2,0.1c-0.8,0.4-1.5,0.9-2.2,1.5c-0.1,0.1-0.1,0.1-0.2,0.2c-0.8,1-1.6,1.9-2.4,2.9c-0.1,0.2-0.3,0.3-0.5,0.5
		c-0.1,0.1-0.3,0.2-0.4,0.4c-0.8,0.8-1.7,1.4-2.6,2.1c-0.4,0.3-0.9,0.5-1.4,0.7c-0.8,0.3-1.5,0.5-2.3,0.5c-0.8,0.1-1.6,0.1-2.4,0
		c-0.6,0-1.2-0.2-1.8-0.4c-0.1,0-0.1,0-0.2-0.1c0,0,0-0.1,0-0.1c0.5-0.4,0.9-0.8,1.4-1.1c1.9-1.2,3.8-2.2,5.8-3.2
		c0.4-0.2,0.7-0.3,1.1-0.5c0.4-0.2,0.8-0.5,1.1-0.8c0.3-0.3,0.4-0.7,0.5-1.1c0.3-1,0.6-1.9,0.8-2.9c0.1-0.6,0.2-1.1,0.3-1.7
		c0.2-1.3,0.3-2.5,0.3-3.8c0,0,0-0.1,0-0.2c0.1,0.1,0.1,0.1,0.2,0.1c0.5,0.5,0.7,1.1,0.7,1.8c0,0.1,0,0.1,0.1,0.3
		c0.1-0.2,0.2-0.3,0.3-0.5c0.1,0.1,0.1,0.2,0.2,0.2c0.2,0.2,0.3,0.3,0.5,0.5c0.2,0.2,0.2,0.1,0.3,0c0,0,0.1-0.1,0.1-0.1
		c0.1,0,0.2,0.1,0.2,0.1c0.4,0.3,0.9,0.5,1.4,0.7c0.3,0.2,0.7,0.2,1.1,0.1c0.2,0,0.5-0.1,0.7-0.1c0,0,0.1,0,0.1,0
		c-0.1,0.2-0.3,0.2-0.4,0.4c0.2,0,0.3,0,0.4,0c0.3-0.1,0.7,0,1,0.1c0.2,0,0.4,0.2,0.4,0.4C147.8,161.8,147.8,162,147.6,162.2z"/>
	<g id="XMLID_23_">
		<path id="XMLID_37_" class="st0" d="M261.8,184.5l-2.4-3.5c0.4-0.3,0.5-0.8,0.4-1.2c-0.2-0.8-0.6-2.1-0.9-3.5
			c-3.4,0.8-6.3,0.9-8.8,0.7c4.1,3.8,6.9,4.6,8.4,4.3l3.4,3.5l0,0l0.5,0.5l-0.2-0.3L261.8,184.5z"/>
		<path id="XMLID_98_" class="st0" d="M259,174.4c-0.1-0.7-0.2-1.4-0.2-2c0-0.5,0-1.2,0.1-2c-7.9,0.2-12.8-2-15.8-4.5
			c0.1,2.4,1,5.1,3.3,7.9C249.1,175,253.2,175.7,259,174.4z"/>
		<path id="XMLID_107_" class="st0" d="M261.9,151.1c-0.4-0.9-0.6-1.7-0.7-2.5c-1.5-0.1-4.5-0.1-7,0.7c-1.9-1.6-5-4.8-5.8-7.8
			c-1.5-5.8-1.8-9.9-2.4-12.5c-0.3-1.1-0.8-2.8-1.3-4.5c-1-3.2-1.7-7.4-3.5-7.9c-1.1-0.3-2.8,0.5-4.4,2.4c-2.7,3.1-3.4,8.1-1.7,12.1
			c-0.9,0.8-3.8,4.2-1,10.1c0.2,0.3,0.4,0.7,0.6,1c1.7,3.2,5.3,6.2,9,8.5c-0.8-0.3-1.7-0.8-2.4-1.3c-4.8-3.6-7.5-6.6-9.6-8.3
			c-0.9-0.7-2.4-1.7-3.8-2.7c-2.8-1.9-5.9-4.8-7.7-4c-1,0.5-1.9,2.2-1.9,4.6c-0.2,4.1,2.3,8.4,6.1,10.5c-0.2,1.2-0.4,5.7,5.5,8.5
			c0.3,0.2,0.7,0.3,1.1,0.4c4,1.8,10.1,1.5,15,0.7c-0.9,1.1-1.7,2.5-2.3,4c2,2.3,6.4,5.5,15.2,5.2c0-1.5-0.2-3-0.6-4.3
			c-1.8-0.4-4-1.7-6.2-4.8c-0.3-0.4-0.7-0.8-1-1.2c0,0,0,0,0,0c0,0,0,0,0,0c-0.2-0.2-0.4-0.4-0.6-0.7c-0.4-0.5-0.8-1-1-1.7
			c-0.1-0.4,0-1,0.4-1.8c-0.2,2.3,1.5,3.3,2.8,5c1.4,2,5.9,7.2,11,3.4c4-3,3.6-5.2,2.9-6.7C264.5,154.8,262.8,153.3,261.9,151.1z"/>
		<path id="XMLID_108_" class="st0" d="M274.7,146.6c-0.6-2-2.1-4.9-5.3-4.9c-0.2,0-0.5,0-0.8,0c0-0.9,0.2-2.7,1.3-4.4
			c0.4,0.1,0.9,0,1.1-0.4c0.3-0.5,0.2-1.1-0.3-1.4c-0.5-0.3-1.1-0.2-1.4,0.3c-0.2,0.3-0.2,0.8,0,1.1c-1.3,2-1.5,4.1-1.5,5
			c-0.4,0.1-0.9,0.2-1.3,0.4c-0.2-0.9-0.4-2.6,0.2-4.4c0.4,0,0.8-0.3,1-0.7c0.2-0.6-0.1-1.1-0.7-1.3c-0.6-0.2-1.1,0.1-1.3,0.7
			c-0.1,0.4,0,0.8,0.3,1.1c-0.7,2.1-0.4,4.1-0.2,5c-2.8,1.3-5.2,4-3.3,8.4c2.8,6.4,11.8,5.8,14.4-0.8
			C276.9,150.1,275.3,148.6,274.7,146.6z"/>
	</g>
	<path id="XMLID_110_" class="st0" d="M382,153.1c-0.4-0.5-0.7-1.1-1.2-1.6c-0.5-0.5-0.8-1.1-1-1.7c-0.5-1.7-1.5-3.1-3-4
		c-0.3-0.2-0.7-0.4-1-0.5c-0.3-0.1-0.6-0.3-0.8-0.4c-0.4-0.2-0.8-0.4-1.2-0.6c-0.3-0.2-0.5-0.6-0.6-0.9c-0.4-0.8-0.8-1.7-1.3-2.5
		c-0.2-0.4-0.5-0.5-0.8-0.2c-0.5,0.5-0.9,0.9-1.3,1.5c-0.3,0.5-0.4,1-0.3,1.6c0.1,0.3,0,0.5-0.4,0.6c-0.8,0.2-1.6,0.4-2.2,1.1
		c-0.3,0.4-0.6,0.7-0.9,1.1c-0.5,0.7-0.9,1.4-1.5,2c-0.7,0.7-1.9,1-2.9,0.2c-0.8-0.7-1.8-1.2-2.9-1.4c-1.1-0.2-2.3-0.4-3.4-0.6
		c-0.3,0-0.6-0.1-0.8-0.2c0,0,0.1,0.1,0.2,0.3c-0.2,0-0.3,0.1-0.4,0.1c-0.8,0-1.6,0-2.3,0c-0.5,0-1.1,0-1.3,0.7
		c0,0.1-0.1,0.1-0.2,0.1c-0.9,0.3-1.7,0.8-2.4,1.4c-0.6,0.6-1.3,1.2-2,1.8c0.4,0.1,0.4,0.3,0.1,0.5c-0.2,0.2-0.4,0.5-0.6,0.7
		c-0.2,0.2-0.3,0.4-0.5,0.7c-0.5-0.5,0.1-0.7,0.2-1c-0.4-0.3-0.4-0.4-0.1-0.9c0.2-0.3,0.5-0.6,0.7-1c0.2-0.2,0.2-0.5,0-0.7
		c-0.1-0.1,0-0.3,0-0.4c0-0.1,0.1-0.3,0.2-0.4c0.2-0.3,0.2-0.5-0.2-0.7c-0.2-0.1-0.3-0.3-0.2-0.5c0.2-0.3,0.3-0.6,0.4-0.9
		c0-0.2,0-0.4,0-0.5c0-0.2-0.1-0.3-0.1-0.5c0-0.4,0.1-0.8,0.2-1.3c-0.1,0-0.2,0-0.3,0c-0.6,0-0.6,0-0.6-0.6c0-0.4,0.1-0.8,0.1-1.2
		c0-0.1-0.1-0.3-0.1-0.3c-0.3,0-0.3-0.2-0.3-0.5c0-0.1-0.1-0.3-0.2-0.4c-0.2-0.1-0.3-0.2-0.4-0.5c0-0.2,0-0.6-0.5-0.6
		c-0.3,0-0.4-0.1-0.4-0.4c-0.1-0.6-0.2-1.1-0.3-1.7c-0.3,0.3-0.4,0.1-0.5,0c-0.2-0.3-0.4-0.6-0.6-1c-0.1-0.2-0.2-0.2-0.5-0.1
		c-0.1,0.1-0.4,0.1-0.4,0c-0.4-0.5-0.8-0.9-1.3-1.3c0,0-0.1-0.1-0.1-0.1c-0.1-0.1-0.2-0.3-0.4-0.4c-0.6-0.3-1.2-0.7-1.8-1
		c-0.1,0.1-0.1,0.2-0.2,0.3c0,0-0.2,0-0.2-0.1c-0.4-0.5-1.1-0.8-1.6-1.1c0,0.2,0,0.3-0.1,0.4c0,0.1-0.2,0.1-0.3,0
		c-0.6-0.2-1.2-0.4-1.9-0.6c0,0.2,0,0.3,0,0.4c0,0.1-0.1,0.2-0.2,0.2c-0.4-0.1-0.8-0.2-1.2-0.2c-0.4-0.1-0.8-0.2-1.2-0.2
		c0.1,0.6-0.1,0.6-0.5,0.6c-0.6,0-1.3,0-1.9,0c0.1,0.5-0.3,0.5-0.6,0.5c0.1,0.4,0,0.5-0.4,0.5c-0.2,0-0.4-0.1-0.6-0.1
		c0.2,0.5,0.2,0.6-0.3,0.7c-0.5,0.1-1.1,0.2-1.6,0.4c-0.1,0-0.3,0.2-0.3,0.3c0,0.4-0.2,0.5-0.5,0.5c-0.1,0-0.2,0.1-0.4,0.1
		c-0.2,0.1-0.2,0.2-0.2,0.4c0.1,0.4,0.1,0.5-0.3,0.7c-0.3,0.1-0.6,0.3-0.9,0.4c-0.1,0.1-0.2,0.2-0.3,0.4c-0.1,0.1-0.1,0.2-0.2,0.3
		c-0.4,0.3-0.8,0.6-1.2,0.9c0.1,0.1,0.2,0.2,0.3,0.3c0.3,0.3,0.4,0.3,0,0.6c-0.3,0.3-0.6,0.5-0.9,0.7c-0.2,0.1-0.2,0.3,0,0.4
		c0.1,0,0,0.3-0.1,0.4c-0.1,0.2-0.2,0.3,0,0.5c0.1,0.1,0.1,0.3,0,0.5c-0.1,0.2-0.3,0.5-0.5,0.7c-0.2,0.3-0.5,0.7-0.7,1
		c0,0,0,0,0.1,0.1c0.3-0.1,0.6-0.1,0.9-0.2c0,0,0.1,0.1,0.1,0.1c-0.3,0.6-0.6,1.2-0.9,1.9c0.2,0,0.2-0.1,0.3-0.1
		c0.1,0,0.2,0,0.2,0.1c0,0.1,0,0.2,0,0.3c-0.3,0.6-0.3,1.2-0.2,1.9c0.1-0.1,0.1-0.3,0.2-0.4c0.1-0.1,0.2-0.1,0.3-0.2
		c0,0.1,0.1,0.2,0.1,0.3c0,0.7,0,1.5,0,2.2c0.5,0.1,0.8,0.4,1,0.8c0.2,0.3,0.3,0.6,0.5,0.9c0.1,0.1,0.2,0.3,0.3,0.3
		c0.4,0,0.5,0.3,0.5,0.5c0.1,0.5,0.3,0.4,0.7,0.3c0.5-0.2,0.7-0.1,0.9,0.4c0.1,0.1,0.1,0.2,0.2,0.3c0.1-0.1,0.2-0.2,0.3-0.3
		c0.4-0.4,0.6-0.4,0.9,0.1c0.2,0.3,0.3,0.5,0.5,0.8c0.2-0.4,0.4-0.7,0.5-1.1c0.1-0.1,0.2-0.2,0.3-0.3c0.1,0.1,0.3,0.2,0.3,0.4
		c0.1,0.3,0.2,0.6,0.3,1c0.1-0.2,0.2-0.4,0.2-0.6c0.1-0.3,0.2-0.3,0.5-0.1c0.2,0.2,0.4,0.3,0.6,0.5c0.4-0.4,0.7-0.8,1.1-1.1
		c0.2-0.2,0.3-0.2,0.5,0c0.1,0.1,0.2,0.3,0.4,0.5c0-0.2,0-0.4,0.1-0.5c0.1-0.2,0.2-0.6,0.4-0.6c0.3,0,0.2,0.3,0.2,0.5c0,0,0,0,0,0
		c0.4-0.2,0.5-0.1,0.5,0.2c0,0.3,0.1,0.6,0.1,1c0,0.5-0.1,0.6-0.6,0.5c0,0.2-0.1,0.4-0.1,0.5c0,0.3,0,0.6,0,0.8c0,0.1,0,0.3-0.1,0.4
		c-0.1,0.3-0.2,0.6-0.3,0.8c0,0.3-0.1,0.5-0.3,0.5c0,0.4,0,0.8,0.1,1.1c0.1,0.8,0.7,1.4,1.3,1.9c0.1,0.1,0.2,0.3,0.2,0.4
		c0,0.1-0.2,0.2-0.3,0.2c-0.3,0-0.6,0-0.9,0c0.3,0.3,0.6,0.7,1,1c-0.2,0-0.2-0.1-0.3-0.1c0,0,0,0,0,0.1c0.1,0,0.2,0.1,0.3,0.1
		c-0.1,0.1-0.2,0.1-0.3,0c-0.1,0-0.2-0.1-0.4-0.1c0.1,0.2,0.1,0.3,0.2,0.4c0.3,0.6,0.8,1,1.4,1.2c0.2,0.1,0.3,0.2,0.1,0.4
		c-0.3,0.2-0.1,0.3,0,0.5c0.1,0.1,0.2,0.3,0.2,0.4c0,0.1-0.2,0.1-0.4,0.2c0.2,0.2,0.5,0.5,0.7,0.7c0.1,0.1,0.2,0.2,0.2,0.4
		c0,0.1-0.1,0.3-0.2,0.5c0.3,0.3,0.8,0.8,1.3,1.2c0.1,0.1,0.1,0.2,0.2,0.2c-0.1,0.1-0.2,0.1-0.2,0.2c-0.1,0-0.1,0.1-0.1,0.1
		c0.2,0.2,0.4,0.4,0.6,0.6c0.3,0.3,0.7,0.6,1,0.9c0.1,0.1,0.1,0.2,0.1,0.3c0.1,0.1,0.3,0.2,0.5,0.3c0.6,0.4,1.1,0.8,1.9,0.6
		c0.3,0,0.3,0.2,0.2,0.3c0,0.2-0.1,0.5-0.2,0.8c0.2,0.1,0.5,0.1,0.7,0.2c0.1,0,0.2,0.1,0.3,0.2c-0.1,0.1-0.1,0.2-0.2,0.2
		c-0.1,0.1-0.2,0.2-0.3,0.2c0.5,0.1,0.9,0.2,1.3,0.2c0.3,0.1,0.3,0.2,0.3,0.5c0,0.1,0.1,0.4,0.2,0.4c0.2,0.1,0.5,0.2,0.7,0.2
		c0.2,0,0.3,0.1,0.5,0.1c-0.1,0.2-0.2,0.3-0.3,0.5c0,0,0,0,0,0c0.4,0,0.8-0.1,1.2-0.1c0.3,0,0.7,0.1,0.9,0.5
		c0.1,0.2,0.2,0.1,0.4,0.1c0.2,0,0.4-0.1,0.6,0c0.1,0,0.1,0.3,0.2,0.4c0.5-0.1,1-0.2,1.5-0.3c0.2,0,0.6,0,0.6,0.3
		c0,0.4,0.2,0.3,0.4,0.3c0.2,0,0.3-0.1,0.5-0.1c0.3-0.1,0.4,0,0.4,0.4c0.1-0.1,0.3-0.1,0.4-0.2c0.7-0.2,1.5-0.5,2.2-0.7
		c0.3-0.1,0.5-0.3,0.9-0.2c0.4,0.1,0.9,0.3,1.3,0.4c0.8,0,1.6,0,2.4-0.1c0.7-0.1,1.5-0.4,2.2-0.7c0.6-0.2,1.1-0.2,1.5,0.3
		c0.1,0.1,0.4,0.3,0.5,0.3c0.9,0,1.7,0,2.6,0c0.7,0,1.3-0.1,2-0.1c0.8,0,1.6,0.1,2.4,0.2c0.2,0,0.5-0.1,0.5-0.3
		c0.1-0.2,0-0.4-0.1-0.6c-0.3-0.5-0.8-0.7-1.3-0.9c-0.1,0-0.2-0.1-0.3-0.2c0.1-0.1,0.1-0.3,0.2-0.3c0.6-0.5,1.3-1,1.8-1.5
		c0.9-0.9,1.6-1.9,1.4-3.3c-0.1-0.7-0.2-1.4-0.3-2c-0.2-0.5-0.4-1.1-0.9-1.4c-0.2-0.2-0.1-0.3,0.1-0.4c0.6-0.3,1.3-0.5,1.9-0.9
		c0.6-0.4,1.3-0.7,1.8-1.2c0.4-0.3,0.6-0.3,1-0.1c0.4,0.2,0.9,0.4,1.3,0.6c1.1,0.3,2.2,0,3.2-0.6c2-1.1,3.6-2.6,5-4.4
		c-0.1-0.1-0.2-0.2-0.2-0.3c-0.1-0.5-0.5-0.6-1-0.5c-0.2,0.1-0.5,0.1-0.8,0.2c-0.1,0-0.3,0-0.3-0.1c0,0,0.1-0.2,0.1-0.4
		c-0.5,0.3-1.1,0.4-1.5,0.8c-0.6,0.4-1.1,0.8-1.8,1c-0.4,0.1-0.6,0-0.9-0.3c-0.1-0.1-0.2-0.2-0.3-0.3c-0.2-0.2-0.2-0.4,0.1-0.5
		c0.3-0.1,0.6-0.2,0.9-0.3c0.9-0.3,1.8-0.7,2.2-1.6c0.4-0.7,0.9-0.9,1.6-0.9c0.7-0.1,1.4-0.3,1.7-1c0.1-0.2,0.3-0.4,0.4-0.6
		c0-0.1,0.1-0.2,0-0.2C382.1,153.3,382,153.2,382,153.1z"/>
	<path id="XMLID_112_" class="st0" d="M483.8,135H480c-0.9,0-2-0.8-2.5-1.7l-0.1-0.2c-0.4-0.9-1.5-1.7-2.5-1.7h-4
		c-0.9,0-2.3,0.6-3,1.2l-8.4,8.1c-0.7,0.7-2,1.2-3,1.2h-13.4c-5.1-0.1-9,2.1-9,2.1c-0.9,0.4-2.3,0.5-3.2,0.3c0,0-5.7-1-13.1-8.7
		c0,0,2.9,8.6,8.7,14.1c1.2,1.1,1.3,1.4,1,2.4l-4.5,12.6c-0.3,1-0.5,2.6-0.3,3.6l1.8,9c0.2,1,1.1,1.9,2.1,1.9h3.6
		c0.9,0,1.7-0.8,1.7-1.8c0-1-0.7-2-1.6-2.2c-0.9-0.2-1.7-1.2-1.8-2.3l-0.2-1.9c-0.1-1,0.4-2.5,1.1-3.2l5.6-5.9
		c0.7-0.7,1.1-0.5,0.9,0.6l-0.9,4.7c-0.2,1,0,2.6,0.5,3.5l3.1,6.4c0.4,0.9,1.6,1.6,2.5,1.6l3.7-0.1c0.9,0,1.5-0.7,1.2-1.6
		c-0.3-0.8-1.1-1.6-1.9-1.6c-0.8-0.1-1.6-0.9-2-1.9l-1.3-3.6c-0.3-1-0.3-2.5,0.1-3.5l1.7-4c0.4-0.9,1.5-1.7,2.4-1.7l8.7-0.1
		c0.9,0,1.4,0.8,1.1,1.8l-4.7,15c-0.3,1,0.2,1.8,1.1,1.7l6-0.3c0.9,0,1.4-0.7,1.1-1.5c-0.3-0.8-1.2-1.7-1.9-2.1
		c-0.7-0.4-0.9-1.3-0.3-2.1l2.2-3.2c0.6-0.8,1.4-0.8,2,0.1l4.4,7.5c0.5,0.9,1.7,1.6,2.6,1.6h4c0.9,0,1.3-0.8,0.9-1.7l-0.4-0.9
		c-0.4-0.9-1.4-1.7-2.3-1.7c-0.8,0-1.7-0.8-1.9-1.9l-2-10.6c-0.2-1,0.1-2.5,0.6-3.4l9.3-14.2c0.6-0.8,1.8-1.6,2.7-1.7l1.9-0.2
		c0.9-0.1,2.2-0.9,2.8-1.6l1.3-1.7c0.6-0.8,1.1-2.1,1.1-3C485.5,135.7,484.7,135,483.8,135z"/>
	<path id="XMLID_115_" class="st0" d="M523.3,161.4c0,0-0.1,0.1,0,0.2c0,0,0.1,0.1,0.1,0.1c0,0,0.1,0,0.1,0c0.1-0.1,0.2-0.1,0.3-0.2
		l-0.3,0.5c0,0-0.1,0.1,0,0.2c0,0.1,0.1,0.1,0.3,0c0.2-0.1,0.4-0.3,0.6-0.4c0,0,0,0,0.1,0c0,0.1-0.1,0.2-0.1,0.2
		c-0.1,0.1-0.2,0.3-0.3,0.4c-0.1,0.1-0.1,0.2-0.1,0.3c0,0,0,0.1,0.1,0.1c0,0,0,0,0,0.1c-0.1,0.1-0.1,0.2-0.2,0.3
		c-0.2,0.2-0.2,0.2-0.2,0.3c0,0.1,0.2,0.1,0.2,0.1c0.1,0,0.2,0,0.2-0.1c0,0,0.1,0,0.1-0.1c0.1,0,0.1,0,0.1,0c0,0,0.1,0.1,0.1,0.1
		c0,0,0.1,0,0.2-0.1l0,0c0,0,0.1,0,0.1,0c-0.1,0.1-0.2,0.1-0.3,0.1c-0.1,0-0.1,0.1-0.2,0.1c-0.1,0.1-0.1,0.2-0.1,0.2
		c0,0,0,0.1,0.2,0.1l0.1,0c0,0,0.1,0,0.1,0c0,0,0,0,0,0c0,0,0.1,0,0.1,0h0c0,0,0.1,0,0.2-0.1c0.1-0.1,0.1-0.1,0.2-0.2c0,0,0,0,0,0
		c-0.1,0.1-0.2,0.2-0.3,0.4c-0.2,0.2-0.3,0.4-0.5,0.7c0,0.1-0.1,0.2,0,0.3c0,0,0.1,0.1,0.1,0.1c0.1,0,0.2-0.1,0.3-0.1l0.1-0.1
		c0.2-0.1,0.3-0.2,0.5-0.2h0c0,0,0,0,0.1,0c0,0,0,0,0,0c0,0,0,0-0.1,0c-0.1,0-0.1,0-0.2,0c-0.1,0-0.1,0-0.1,0.1
		c0,0.1,0.1,0.1,0.1,0.1c0,0-0.1,0.1-0.1,0.1l-0.2,0.2c-0.1,0.1-0.1,0.2-0.1,0.2c0,0,0.1,0.1,0.2,0.1c0,0,0,0.1,0,0.1
		c0,0.1,0,0.1,0,0.2c0,0.1,0.1,0.1,0.2,0c0,0,0.1-0.1,0.1-0.2c0,0,0.1-0.1,0.1-0.1l0,0c0.1-0.1,0.2-0.1,0.3-0.1l0.3,0c0,0,0,0,0,0
		c-0.2,0.1-0.3,0.2-0.3,0.2c0,0,0,0.1,0,0.1c0,0.1,0.1,0.1,0.2,0.1c-0.1,0-0.1,0-0.2,0.1l-0.1,0c-0.1,0-0.2,0.1-0.2,0.2c0,0,0,0,0,0
		c0,0,0,0,0,0c-0.1,0-0.1,0.1-0.1,0.1c0,0.1,0.1,0.1,0.2,0.1c0,0,0.1,0,0.1,0c0,0,0,0,0,0l-0.1,0.1c-0.2,0.1-0.2,0.2-0.2,0.3
		c0,0-0.1,0.1-0.1,0.1c-0.2,0.1-0.2,0.1-0.2,0.2c0,0.1,0.1,0.1,0.1,0.1c0.1,0,0.2-0.1,0.2-0.1c0.1,0,0.1,0,0.2,0c0.1,0,0.1,0,0.1,0
		c0.1,0,0.2,0,0.3,0l0.2-0.1l-0.2,0.1c-0.2,0.2-0.2,0.2-0.2,0.2c0,0.1,0.1,0.1,0.1,0.1c0,0,0.2,0,0.2-0.1l0.5-0.2l0,0
		c-0.1,0.2-0.3,0.3-0.5,0.4c-0.1,0-0.2,0.1-0.3,0.1c0,0-0.1,0.1-0.1,0.2c0,0.1,0.1,0.1,0.2,0.1l0.2-0.1c0,0,0,0,0,0.1
		c-0.1,0.1-0.1,0.2-0.2,0.2c0,0-0.1,0.1-0.1,0.2c0,0,0.1,0.1,0.1,0.1c0,0,0.1,0,0.1,0c0.1,0,0.1-0.1,0.2-0.1c0,0,0,0,0,0l0,0
		c0,0-0.1,0.1-0.1,0.2c0,0,0.1,0.1,0.1,0.1c0,0,0.1,0,0.1,0l0.5-0.3c0,0.1-0.1,0.1-0.2,0.2c0,0-0.1,0.1-0.1,0.2c0,0,0.1,0.1,0.1,0.1
		c0,0,0.1,0,0.1,0c0,0,0,0,0,0c0,0,0,0.1,0,0.1c0,0,0.1,0,0.1,0c0.1,0,0.1,0,0.2-0.1c0.1-0.1,0.1-0.1,0.1-0.2c0,0,0,0,0,0
		c0,0.2,0,0.3,0.1,0.3c0,0,0.1,0,0.1-0.1c0,0.2,0,0.3,0,0.3c0,0,0.1,0,0.1,0c0,0,0.1,0,0.1,0c0,0,0,0,0.1-0.1c0,0,0,0.1,0,0.1
		c0,0,0.1,0,0.1,0c0,0,0.1,0,0.2-0.1c0,0,0,0,0.1,0c0,0,0,0,0,0.1l0,0c-0.1,0.2-0.1,0.3,0,0.3c0,0,0.1,0,0.1,0s0.1,0,0.2-0.1
		c0,0,0,0,0,0.1c0,0.2,0.2,0.2,0.3,0.2c0,0,0,0,0,0.1c0,0.1,0,0.2,0,0.2c0,0.1,0,0.2,0,0.2c0,0,0.1,0,0.1,0c0,0,0.1,0,0.1,0
		c0,0,0,0,0,0c0,0,0,0.1,0,0.1l0,0c0,0.1,0.1,0.2,0.1,0.3c0,0.2,0.1,0.2,0.2,0.3l0,0c0,0,0,0.1,0,0.1l0,0c0,0.1,0.1,0.3,0.2,0.3
		c0,0,0,0,0,0c0,0.1,0.1,0.1,0.3,0c0,0,0,0,0,0l0,0c-0.1,0.2-0.1,0.3,0,0.3c0.1,0.1,0.2,0,0.2-0.1c0,0,0-0.1,0.1-0.2l0.1-0.1
		c0,0.1,0,0.1-0.1,0.2c0,0.1-0.1,0.2-0.1,0.4c0,0.1,0,0.3,0,0.3c0,0,0.1,0,0.1,0c0.1,0,0.1-0.1,0.1-0.1c0,0,0,0,0-0.1l0.1-0.2
		c0-0.1,0.1-0.2,0.1-0.3c0,0,0,0,0,0c0,0,0,0,0,0.1c0,0.3,0,0.6-0.1,0.9c0,0,0,0.3,0,0.4c0.1,0.1,0.2,0.1,0.3,0.1c0.1,0,0.2,0,0.3,0
		c0,0,0,0,0.1,0c0.1,0,0.2,0,0.3-0.1c0,0,0.1,0,0.1,0c0.4,0.3,0.8,0.4,1.2,0.4c0.2,0,0.3-0.1,0.3-0.2c0,0,0.1,0,0.1,0
		c0,0,0.1,0,0.1,0c0.1,0,0.2,0,0.2,0c0.2,0.1,0.5,0.2,0.6,0c0.1-0.1,0.1-0.1,0.1-0.2c0-0.1,0-0.2,0.1-0.2c0.1-0.1,0.1-0.1,0.2-0.2
		c0,0,0,0,0,0c0.1,0.1,0.2,0.2,0.2,0.3c0.1,0.1,0.2,0.2,0.3,0.2c0,0,0,0,0,0c0.1,0,0.2-0.2,0.2-0.4c-0.1-0.7-0.5-1.3-1.2-1.6
		c-0.1-0.1-0.3-0.1-0.5-0.1l-0.1,0c-0.1,0-0.3-0.1-0.3-0.1l0,0c0,0-0.1-0.1-0.1-0.1c0,0-0.1-0.1,0-0.2c0.3-0.3,0.7-0.5,1-0.7
		c0,0,0.1,0,0.1,0c0.1,0,0.2,0,0.2,0c0.1-0.1,0.1-0.1,0.2-0.1c0.2,0,0.9,0,1,0c0,0,0.1,0,0.3,0c0.9,0,4.2,0,6.6-0.1
		c1.2,0,2.2,0,2.5,0c0.1,0.1,0.2,0.1,0.3,0.1c0.2,0,0.4-0.1,0.6-0.2l0,0c0,0,0,0,0,0c-0.1,0.8,0,1,0.1,1.1c0,0,0,0.1,0.1,0.2
		c0.1,0.3,0.2,0.6,0.2,0.8l0.2,0.4c0.1,0.1,0.1,0.3,0.1,0.4l0,0.1c0,0.1,0,0.2,0.1,0.2c0,0,0.1,0,0.1,0c0.1,0.2,0.1,0.5,0.3,0.7
		c0.1,0.1,0.2,0.2,0.3,0.2c0,0,0,0,0,0l0,0.2c0,0.2,0,0.3,0.1,0.3c0.1,0,0.1-0.1,0.1-0.1c0,0.2,0.1,0.4,0.1,0.7
		c0,0.2,0.1,0.3,0.2,0.3c0,0,0,0,0.1,0c0,0,0,0,0,0c0,0.1,0,0.1,0,0.2c0,0.1,0,0.3,0,0.3c0,0,0.1,0,0.1,0c0.1,0,0.1-0.1,0.1-0.1
		c0,0,0-0.1,0.1-0.2c0,0,0,0,0-0.1l0,0l0,0.2c0,0.3,0,0.3,0,0.3c0,0,0.1,0,0.1,0c0,0,0,0,0.1,0c0,0,0.1,0,0.2,0l0,0c0,0,0,0,0,0
		c0,0,0,0,0,0c0,0,0,0.1-0.1,0.1c-0.1,0.1-0.1,0.2-0.1,0.2c0,0.1,0.1,0.1,0.2,0c0,0,0,0,0,0c0,0,0,0.1,0,0.1c0,0.1,0,0.2,0,0.3
		c0,0.1,0.1,0.1,0.2,0.1l0,0c0,0,0.1,0,0.1,0c0,0,0.1,0,0.1,0c0,0.1,0,0.1,0,0.1c0,0,0.1,0.1,0.1,0.1c0,0,0,0,0,0c0,0,0,0,0,0.1
		c0,0.1,0,0.2,0,0.2c0,0.1,0.1,0.1,0.2,0c0,0.1,0.2,0.2,0.3,0.1c0,0,0,0.1,0,0.1c0,0.1,0,0.1,0,0.2c0,0.2,0,0.4,0.1,0.5
		c0,0.2,0.2,0.2,0.3,0.2c0,0,0,0,0,0.1c0.2,0.6,0.8,1.1,1.3,1.2c0.2,0,0.4,0,0.6-0.1c0.1,0,0.1-0.1,0.2-0.1c0,0,0,0,0,0
		c0.2,0,0.3,0.1,0.4,0.1c0.2,0.1,0.3,0.2,0.5,0.2c0.1,0,0.2,0,0.3-0.1c0.1,0,0.1,0,0.1,0c0,0.1,0.1,0.2,0.3,0.2c0,0,0,0,0,0
		c0.2,0,0.2-0.2,0.2-0.3l0-0.1c0,0,0.1,0,0.1,0l0,0c0.3,0,0.4-0.1,0.5-0.3l0-0.1c0,0,0.1,0,0.1,0c0,0,0,0,0.1,0c0,0,0.1,0.1,0.1,0.1
		l0,0.1c0.1,0.1,0.3,0.2,0.3,0.1c0,0,0.1-0.1,0-0.4l-0.1-0.3c0.2,0.1,0.3,0,0.3-0.1c0-0.1,0-0.3-0.1-0.4c-0.2-0.4-0.5-0.5-0.7-0.6
		c-0.1,0-0.2-0.1-0.3-0.2h0c0.1,0,0.1,0,0.1,0c0,0,0.1,0,0.2-0.1c0,0,0-0.1,0-0.1c-0.1-0.1-0.2-0.1-0.3-0.2l-0.1,0
		c-0.6-0.2-1.2-0.3-1.4-0.8c0,0,0,0,0,0c0.1,0,0.1,0.1,0.2,0.1l0,0c0.1,0.1,0.3,0.1,0.3,0.1c0.1,0,0.1,0,0.1,0c0.1,0,0.2,0,0.3,0
		c0.1,0,0.3,0.1,0.5,0.1c0.7,0,1.4-0.4,1.7-0.8c0.1-0.1,0.2-0.3,0.2-0.5c0,0,0-0.1-0.1-0.1c-0.1-0.1-0.2-0.3-0.4-0.3
		c0,0-0.1,0-0.1,0c-0.1,0-0.2,0-0.2-0.1c0,0-0.1-0.1-0.1-0.1c-0.1-0.1-0.1-0.2-0.2-0.3c0,0,0,0,0,0c0,0,0.1,0,0.1,0c0,0,0-0.1,0-0.1
		c0,0,0-0.1-0.1-0.3c-0.1-0.4-0.1-0.8-0.1-1.2c0,0,0.1,0,0.1,0c0,0,0,0,0-0.1c0,0,0-0.1,0.1-0.2c0,0,0-0.1,0.1-0.1
		c0,0.2,0,0.2,0,0.3c0,0,0.1,0,0.1,0c0.1,0,0.1-0.1,0.1-0.1c0,0,0,0,0-0.1l0.1,0.1c0,0.1,0.1,0.1,0.1,0.2c0.1,0.1,0.2,0.2,0.3,0.3
		c0.1,0.1,0.1,0.1,0.2,0.1c0,0,0.1,0,0.1-0.1c0-0.1,0-0.1,0-0.2c0-0.1-0.1-0.2-0.1-0.2c-0.1-0.1-0.2-0.3-0.2-0.4c0,0,0,0,0,0
		c0,0,0,0,0.1,0.1l0.1,0.1c0.1,0.1,0.1,0.1,0.1,0.1c0,0,0.1,0,0.1-0.1c0,0,0-0.1,0-0.1c0.1,0.1,0.2,0,0.2,0c0,0,0-0.1,0-0.1l0.1,0.1
		c0.1,0.1,0.1,0.1,0.1,0.1c0,0,0.1,0,0.1-0.1c0,0,0-0.1,0-0.1c0,0,0.1,0.1,0.1,0.1c0.1,0.1,0.2,0.2,0.3,0.3c0.1,0.1,0.2,0.1,0.3,0
		c0,0,0-0.1,0-0.2c0-0.1-0.1-0.2-0.2-0.3c0-0.1-0.1-0.1-0.1-0.2c0.3,0,0.5,0.1,0.7,0.3c0.1,0.1,0.2,0.1,0.2,0.1c0,0,0.1,0,0.1-0.1
		c0,0,0-0.1,0-0.1c0,0-0.1-0.1-0.1-0.1l-0.2-0.2c0.5,0.2,0.7,0.3,1,0.8c0,0,0.1,0.1,0.2,0.1c0,0,0.1,0,0.1,0c0,0,0-0.1,0-0.2l0-0.4
		c0.1,0.1,0.1,0.2,0.2,0.2c0.1,0.1,0.2,0.1,0.3,0c0-0.1,0-0.1,0-0.2c0-0.1,0-0.1-0.1-0.2l0.1,0l-0.1,0.1c0.1,0.1,0.1,0.1,0.2,0.1
		c0.1,0,0.1,0,0.1-0.1c0,0,0,0,0,0c0,0,0.1,0.1,0.1,0.1c0,0.1,0.1,0.1,0.1,0.1c0,0,0.1,0,0.1,0c0,0,0-0.1,0-0.2l0-0.1
		c0,0,0-0.1,0-0.1c0.1,0,0.1,0,0.2,0.1c0.1,0.1,0.1,0.2,0.1,0.4c0,0.1,0,0.2,0,0.3c0,0,0,0.2,0.1,0.2c0.1,0,0.1,0,0.1-0.2
		c0-0.3,0-0.6,0.1-0.8c0,0,0,0,0,0c0,0,0,0,0,0l0.1,0.1c0.1,0.1,0.2,0.2,0.3,0.3c0,0.1,0.1,0.1,0.1,0.1c0,0,0.1,0,0.1,0
		c0-0.1,0-0.1,0-0.2l0-0.1c0,0.1,0.1,0.1,0.1,0.2c0,0,0.1,0.1,0.1,0.1c0.1,0.1,0.1,0.1,0.2,0.1c0,0,0.1,0,0.1-0.1c0-0.1,0-0.1,0-0.2
		l0,0c-0.1-0.1-0.2-0.3-0.2-0.5c0,0,0,0,0-0.1c0,0,0.1,0,0.1,0c0,0,0-0.1,0-0.2c0,0,0,0,0,0c0,0,0,0.1,0.1,0.1
		c0.1,0.1,0.1,0.2,0.2,0.3c0.1,0.1,0.1,0.1,0.2,0.1c0,0,0.1,0,0.1-0.1c0-0.1,0-0.1,0-0.2l-0.2-0.4c0,0,0,0,0,0c0,0,0.1,0,0.1,0.1
		c0,0,0,0.1,0.1,0.1c0,0.1,0.1,0.1,0.1,0.1c0,0.1,0.1,0.1,0.1,0.1c0,0,0.1,0,0.1,0c0,0,0,0,0-0.3l0-0.2l0.1,0.1
		c0.1,0,0.1,0.1,0.1,0.1c0,0,0.1,0,0.1-0.1c0-0.1,0-0.1,0-0.2c0.2,0.1,0.4,0.2,0.6,0.3c0,0,0.2,0.1,0.2,0.1c0,0,0.1,0,0.1,0
		c0,0,0,0,0-0.1c0,0,0-0.1-0.1-0.3c0-0.1-0.1-0.2-0.1-0.3l0,0c0.2,0.1,0.4,0.2,0.6,0.3l0.1,0c0.1,0.1,0.2,0,0.3-0.1
		c0-0.1,0-0.1-0.1-0.2c0,0-0.1-0.1-0.1-0.1c0,0-0.1-0.1-0.1-0.1c0.2,0.1,0.4,0.1,0.6,0.2l0.2,0c0.1,0,0.2,0,0.2,0c0,0,0.1,0,0.1-0.1
		c0,0,0-0.1,0-0.1c0,0,0,0,0-0.1c0-0.1-0.1-0.1-0.1-0.1c0,0,0,0,0,0c0,0,0.1,0,0.1,0c0.1,0,0.2,0,0.3,0l0.1,0c0.1,0,0.2,0.1,0.2,0.1
		c0.1,0.1,0.2,0.2,0.4,0.2c0.1,0,0.2,0.1,0.3,0.1c0.1,0,0.2,0,0.3,0.1c0.1,0,0.3,0.1,0.5,0.1l0.4,0c0.1,0,0.3,0.1,0.4,0.1l0.2,0.1
		c0.1,0.1,0.3,0.2,0.5,0.2c0.1,0,0.1,0,0.2,0c0.1,0,0.2,0,0.3,0c0.1,0,0.7,0.2,0.8,0.2c0.1,0.1,0.1,0.1,0.1,0.1c0,0.1,0,0.2,0,0.2
		c0,0,0.1,0,0.1,0c0,0,0.1,0,0.1,0c0,0,0.2,0,0.2,0l0.2,0.1c0.1,0,0.1,0,0.1,0.1c0,0,0,0.1,0,0.1c0,0,0.1,0.1,0.1,0.1
		c0,0,0.1,0,0.1,0c0,0,0.2,0,0.2,0c0.1,0,0.1,0.1,0.1,0.1c0,0,0,0.1,0,0.1c0,0,0.1,0,0.1,0c0.1,0,0.1,0,0.1-0.1c0,0,0,0,0,0
		c0,0,0.1,0,0.1,0l0.7,0.3c0.1,0,0.3,0.1,0.5,0.1l0.8,0.1c0.1,0,0.3,0.1,0.4,0.1c0.1,0.1,0.2,0.1,0.3,0.2c0.8,0.5,1.5,1,2.6,1
		c0.3,0,0.7,0,1-0.1c0.1,0,0.3-0.2,0.4-0.3c0.1-0.1,0.1-0.1,0.2-0.1c0.1,0,0.1-0.1,0.2-0.1c0.1-0.1,0.2-0.3,0.2-0.5l0-0.7
		c0-0.1,0-0.3-0.1-0.5c-0.2-0.5-0.5-0.9-0.8-1.3c-0.2-0.3-0.4-0.6-0.6-1c-0.1-0.2-0.3-0.7-0.3-0.9c0-0.1,0-0.1,0.1-0.1
		c0,0,0-0.1,0-0.1c0-0.1,0-0.1-0.1-0.2c0,0,0,0,0-0.1c0-0.1,0.1-0.1,0-0.2c0,0,0,0,0,0c0,0,0.1-0.1,0.1-0.1c0-0.1,0-0.1-0.1-0.1
		c0.1-0.1,0.1-0.2,0-0.3c0,0,0-0.1,0-0.1c0.1-0.1,0.1-0.1,0.1-0.2c0,0,0-0.1-0.1-0.1c0,0,0,0,0,0c0-0.1,0-0.3-0.1-0.3
		c0,0,0-0.1,0-0.2c0-0.8,0.3-1.7,0.5-2.2c0.1-0.2,0-0.3,0-0.3c0,0,0,0-0.1,0c0,0,0-0.1,0.1-0.2c0.1-0.2,0.2-0.3,0.3-0.4
		c0.1-0.1,0.1-0.1,0.2-0.2c0,0,0.1-0.1,0-0.2c0-0.1-0.1-0.1-0.2,0c0.1-0.1,0.1-0.1,0.2-0.2c0.1,0,0.1-0.1,0.2-0.1
		c0.1-0.1,0.1-0.2,0.1-0.2c0-0.1-0.1-0.1-0.3,0c-0.1,0.1-0.2,0.1-0.3,0.2c0.1-0.2,0.2-0.3,0.3-0.4l0,0c0.2-0.2,0.2-0.2,0.2-0.3
		c0-0.1-0.1-0.1-0.1-0.1c0,0,0,0,0,0c0,0,0.1,0,0.1,0c0,0,0.2-0.1,0.1-0.2c0,0,0-0.1-0.2-0.1l0,0c0,0-0.1,0-0.1,0c0,0-0.1,0-0.1,0
		l0.1-0.1c0.1,0,0.1-0.1,0.1-0.2c0,0-0.1-0.1-0.1-0.1c0,0-0.1,0-0.1,0c0,0,0,0,0,0c0,0,0,0,0,0c-0.1-0.1-0.2-0.1-0.3,0l-0.1,0.1
		c0.2-0.3,0.4-0.5,0.5-0.7c0.1-0.1,0.1-0.2,0.1-0.3c0,0,0,0,0,0c0,0,0-0.1,0.1-0.1c0.1-0.1,0.1-0.1,0.2-0.1l0.1-0.1
		c0,0,0.1-0.1,0.1-0.2c0,0,0-0.1-0.1-0.1c0.2-0.2,0.4-0.4,0.6-0.6c0.3-0.3,0.6-0.6,0.8-0.9c0.1-0.1,0.1-0.1,0.1-0.2
		c0,0-0.1-0.1-0.1-0.1c0,0-0.1,0-0.1,0c-0.1,0-0.1,0.1-0.2,0.1c-0.2,0.1-0.3,0.2-0.5,0.3c0,0,0,0,0-0.1c0.2-0.4,0.6-0.8,1.1-1.1
		c0.3-0.3,0.6-0.6,0.9-0.9c0,0,0.1-0.1,0.1-0.2c0,0-0.1-0.1-0.1-0.1c0,0-0.1,0-0.1,0.1l-0.3,0.2l0.2-0.2c0,0,0.1-0.1,0.1-0.2
		c0,0-0.1-0.1-0.1-0.1c0,0-0.1,0-0.1,0.1l-0.6,0.4c0,0-0.1,0-0.1,0l-0.1,0c0,0-0.1,0-0.1,0c-0.2,0.1-0.2,0.2-0.3,0.4
		c-0.1,0.1-0.2,0.3-0.4,0.4c0.4-0.6,0.8-1.3,1.1-1.9l0.1-0.2c0-0.1,0.1-0.1,0-0.2c0,0-0.1-0.1-0.1-0.1c0,0-0.1,0-0.1,0.1
		c0,0,0,0,0,0c0.1-0.2,0.3-0.5,0.4-0.8c0-0.1,0-0.2,0-0.2c0,0-0.1-0.1-0.1-0.1c0,0-0.1,0-0.1,0.1c0,0,0,0,0,0c0,0-0.1,0-0.2,0
		c0,0,0,0,0,0c0,0-0.1,0-0.1,0c-0.1,0-0.1,0.1-0.1,0.2c0,0,0,0.1,0,0.1c-0.1,0.2-0.4,0.5-0.6,0.7c0.1-0.3,0.3-0.6,0.4-0.9
		c0.1-0.2,0.1-0.3,0.1-0.3c0,0-0.1,0-0.1,0c0,0-0.1,0-0.3,0.2c0,0,0,0,0,0c0.1-0.3,0.2-0.5,0.3-0.8l0.1-0.2c0.1-0.2,0.1-0.2,0-0.3
		c0,0-0.1-0.1-0.1,0c-0.1,0-0.1,0.1-0.1,0.2l0,0.1c-0.1,0.2-0.2,0.4-0.3,0.5c0,0-0.1,0.1-0.2,0.1c-0.1,0-0.1,0.1-0.2,0.1
		c0,0,0,0,0,0c0-0.1,0-0.1,0-0.2c0,0,0,0,0,0c0,0,0-0.1,0-0.2c0-0.1,0.1-0.3,0.1-0.4c0-0.1,0-0.2,0-0.3c-0.1-0.1-0.2,0-0.2,0.1
		c0,0,0,0.1-0.1,0.2c0,0,0-0.1-0.1-0.1c0,0-0.1,0-0.1,0.1c0,0,0,0,0,0.1l-0.1,0.1c0,0.1-0.1,0.1-0.1,0.2c-0.1,0.1-0.1,0.2-0.2,0.3
		l0-0.1c0.1-0.4,0.2-0.8,0.2-1.1c0-0.3-0.1-0.3-0.1-0.3c0,0-0.1,0-0.1,0.1c0,0,0,0.1-0.1,0.2l0,0c0-0.2,0-0.3,0-0.5
		c0-0.2-0.1-0.3-0.2-0.3c0-0.2,0-0.5,0-0.7c0-0.1,0-0.1,0-0.2c0,0-0.1,0-0.1,0c-0.1,0-0.1,0.1-0.1,0.2l0,0c0,0.1-0.1,0.2-0.2,0.2
		c0,0,0,0,0,0c0-0.1,0-0.2-0.1-0.2c-0.1,0-0.1,0.1-0.1,0.1c0,0,0,0.1,0,0.1c0-0.1,0-0.2,0-0.4c0-0.3,0-0.3,0-0.3c0,0,0,0-0.1,0
		c0,0-0.1,0-0.1,0v-0.4c0-0.1,0-0.1-0.1-0.1c-0.1,0-0.1,0-0.1,0.1c0,0-0.1,0.1-0.1,0.2l-0.1,0.2c0,0,0,0,0,0c0,0,0,0-0.1,0
		c0,0-0.1,0-0.1,0c0,0,0,0,0,0c0-0.1,0.1-0.3,0.1-0.4c0-0.1,0-0.1,0.1-0.2c0.1-0.2,0.1-0.3,0-0.3c0,0-0.1,0-0.1,0c0,0,0,0-0.1,0
		c0,0,0-0.1,0-0.1c0,0-0.1-0.1-0.1-0.1c0,0-0.1,0-0.1,0c0,0,0,0,0,0c0,0-0.1,0-0.2,0c0-0.1,0-0.2-0.1-0.2c0,0-0.1,0-0.1,0.1
		c0,0-0.1,0.1-0.1,0.2l0.1-0.4c0-0.1,0-0.1,0-0.2c0,0-0.1-0.1-0.1-0.1c0,0-0.1,0-0.2,0.1c0,0-0.1,0.1-0.1,0.1c0,0,0,0,0,0
		c0,0,0-0.1,0-0.1l0-0.1c0.1-0.2,0-0.3,0-0.3c0,0-0.1,0-0.1,0c-0.1,0-0.1,0-0.1,0.1c0-0.2,0-0.4,0-0.6c0-0.1,0-0.2,0-0.2
		c0,0,0,0,0,0c0-0.1,0-0.1-0.1-0.1c0,0-0.1,0-0.1,0.1c0,0,0,0,0,0.1c0,0,0,0.1-0.1,0.1c0,0,0,0.1,0,0.1c0,0.1-0.1,0.2-0.1,0.3
		c0,0-0.1,0.1-0.1,0.1c0,0,0,0,0,0c0,0,0-0.1,0-0.2l0.1-0.4c0.1-0.2,0-0.3,0-0.3c0,0-0.1-0.1-0.1,0c0,0-0.1,0-0.1,0.1
		c0,0,0,0.1-0.1,0.1c0,0,0,0,0,0l0.1-0.6c0-0.1,0-0.1,0-0.2c0,0,0,0,0,0c0-0.1,0-0.1-0.1-0.1c0,0-0.1,0-0.1,0.1c0,0,0,0.1,0,0.1
		l-0.1,0.1c0,0.1-0.1,0.1-0.1,0.2c-0.1,0.3-0.2,0.5-0.5,0.7l0,0c0,0,0,0,0-0.1c0-0.1,0-0.2,0-0.2c0-0.3,0-0.6,0.1-0.9
		c0-0.1,0-0.2,0-0.2c0-0.1-0.1-0.1-0.2-0.1l0,0c0,0-0.1,0-0.1,0c0,0,0,0,0,0c0,0-0.1,0-0.1,0c-0.1,0-0.1,0.1-0.1,0.2l0,0.1
		c-0.1,0.2-0.1,0.3-0.2,0.4c0,0-0.1-0.1-0.1-0.1c0-0.2,0.1-0.3,0.1-0.5c0.1-0.1,0.1-0.2,0-0.3c0-0.1-0.1-0.1-0.2,0c0,0,0,0,0,0
		c0,0,0,0-0.1,0c-0.1,0-0.1,0.1-0.2,0.2c-0.1,0.2-0.2,0.4-0.3,0.6c0,0,0,0-0.1,0.1c0,0,0-0.1,0-0.2l0-0.2c0-0.4-0.1-0.8-0.2-1.1
		c0-0.1-0.1-0.2-0.2-0.2c0,0-0.1,0-0.2,0.2l0,0c0-0.3-0.1-0.5-0.1-0.8c0-0.2-0.1-0.3-0.2-0.3c0,0-0.1,0-0.1,0c0,0,0,0.2,0,0.3v0.5
		c0,0,0,0,0,0c-0.1-0.2-0.1-0.3-0.1-0.5c0-0.1,0-0.2,0-0.3c0-0.2-0.1-0.2-0.2-0.2c0,0-0.1,0-0.2,0.2l-0.2,0.6c0-0.1,0-0.2,0-0.3
		c0-0.2,0-0.5,0-0.6c0-0.1-0.1-0.2-0.2-0.2c-0.1,0-0.2,0.1-0.2,0.1c0,0.1-0.1,0.1-0.1,0.2c0,0,0,0,0,0c0,0,0-0.1,0-0.1
		c0-0.1,0-0.2,0-0.4c0-0.2,0-0.3,0-0.3c0,0-0.1,0-0.1,0c0,0-0.1,0-0.1,0.3c0,0-0.1,0-0.1,0c-0.1,0-0.1,0.1-0.1,0.1l0-0.3
		c0-0.1,0-0.2-0.1-0.2c-0.1,0-0.1,0.1-0.1,0.2l0,0.1c0,0,0,0,0,0c0-0.1,0-0.1-0.1-0.1c0,0-0.1,0-0.1,0c0,0-0.1,0.1,0,0.3
		c0,0,0,0.1,0,0.1c-0.1,0-0.1,0-0.2,0c0,0,0-0.1,0-0.1l0-0.1c-0.1-0.3-0.1-0.7-0.2-0.9c-0.1-0.1-0.1-0.1-0.2-0.1
		c-0.1,0-0.2,0-0.2,0.2l-0.1,0.6l-0.1-0.2c-0.1-0.1-0.1-0.3-0.2-0.4c-0.1-0.2-0.2-0.3-0.3-0.3c0,0-0.1-0.1-0.1-0.2
		c0-0.1,0-0.1-0.1-0.2c0-0.1-0.1-0.1-0.1-0.2c0,0,0-0.1,0-0.1c0-0.1-0.1-0.2-0.1-0.2c0,0-0.1,0-0.1,0.1l-0.2-0.8
		c-0.1-0.2-0.1-0.3-0.2-0.3c-0.1,0-0.1,0.1-0.1,0.3c0,0.4,0,0.7,0,0.9v0c0-0.1-0.1-0.2-0.1-0.4c-0.1-0.3-0.1-0.3-0.2-0.3
		c-0.1,0-0.1,0.1-0.2,0.3l0,0.1l-0.1-0.2c-0.1-0.3-0.1-0.3-0.2-0.3c-0.1,0-0.1,0.1-0.1,0.3c0,0-0.1-0.1-0.2,0c0,0,0,0.1,0,0.1
		c-0.1-0.3-0.2-0.6-0.3-0.9c-0.1-0.2-0.1-0.3-0.2-0.3c-0.1,0-0.1,0-0.1,0.1l0,0c-0.1-0.2-0.1-0.3-0.2-0.3c0,0-0.1,0-0.1,0
		c-0.1,0.1,0,0.2,0,0.3c0,0.2,0.1,0.3,0.1,0.4c0,0.2,0.1,0.3,0.1,0.5l-0.2-0.3c-0.1-0.2-0.2-0.4-0.4-0.6c-0.1-0.2-0.2-0.3-0.2-0.3
		c0,0-0.1,0-0.1,0c0,0,0,0.1,0,0.3l0.1,0.3c-0.1-0.1-0.1-0.2-0.2-0.3c-0.2-0.3-0.4-0.7-0.6-1.1l0-0.1c0-0.1-0.1-0.2-0.1-0.2
		c0,0-0.1,0-0.1,0c0,0,0,0.1,0,0.3l0,0.3c0,0,0,0.1,0,0.1c0,0,0,0,0,0c0,0-0.1,0.1,0,0.3l0,0.1c0.1,0.3,0.1,0.6,0.2,0.8
		c-0.1-0.1-0.2-0.2-0.3-0.3c-0.1-0.1-0.2-0.2-0.2-0.3l0-0.5c0-0.1,0-0.2-0.1-0.2c-0.1,0-0.1,0.1-0.1,0.2c0,0.3-0.1,0.6-0.1,0.8
		c0,0,0,0-0.1,0c0-0.1-0.1-0.1-0.1-0.2c-0.1-0.2-0.3-0.4-0.5-0.5c-0.1-0.1-0.2-0.1-0.2-0.1c0,0-0.1,0-0.1,0.1c0,0,0,0.1,0,0.1
		c0,0,0,0,0,0c0,0,0,0.1,0,0.3c0,0.1,0.1,0.2,0.1,0.2c0,0,0,0,0,0c-0.2-0.2-0.3-0.6-0.4-1c0-0.2,0-0.3-0.2-0.3
		c-0.1,0-0.1,0.1-0.1,0.3v0.5c0,0,0,0,0,0.1c-0.2-0.1-0.4-0.4-0.5-0.7l0-0.1c0-0.1,0-0.2-0.1-0.2c0,0-0.1,0-0.1,0c0,0,0,0.1,0,0.3
		l0,0.1c0,0,0,0.1,0,0.1c0,0-0.1,0-0.1,0.1c0,0.1,0,0.1,0.1,0.3c0.1,0.1,0.1,0.2,0.1,0.3c0,0,0,0,0,0c-0.1-0.1-0.2-0.2-0.3-0.2
		l-0.1-0.1c-0.2-0.2-0.2-0.2-0.3-0.2c-0.1,0-0.1,0.1-0.1,0.1c0,0.1,0.1,0.2,0.1,0.3c0,0.1,0.1,0.2,0.1,0.3c0.1,0.1,0.2,0.3,0.2,0.4
		c-0.2-0.2-0.4-0.4-0.6-0.6c-0.2-0.2-0.4-0.4-0.6-0.6c-0.1-0.1-0.2-0.1-0.3,0c0,0,0,0.1,0,0.2l0.1,0.1c-0.1-0.1-0.2-0.2-0.3-0.4
		c0-0.1-0.1-0.2-0.1-0.3c0-0.1-0.1-0.1-0.2-0.1c0,0-0.1,0-0.1,0c0,0,0,0.1,0,0.2c0,0.2,0.1,0.3,0.1,0.5c0.1,0.2,0.1,0.4,0.2,0.7
		l0-0.1c-0.3-0.4-0.6-0.8-0.9-1.2c0-0.1-0.1-0.1-0.2-0.1c0,0-0.1,0-0.1,0c0,0.1,0,0.1,0,0.2c0,0.1,0.1,0.2,0.1,0.3
		c0,0-0.1-0.1-0.1-0.1c0,0-0.1-0.1-0.1-0.1c-0.1-0.1-0.2-0.2-0.3-0.4c0,0-0.1-0.1-0.1-0.1c0-0.1-0.1-0.1-0.1-0.1
		c-0.1,0-0.1,0-0.1,0.2c0,0,0,0.1,0.1,0.2l0,0.1c0,0.1,0,0.2,0.1,0.3c0,0.2,0.1,0.3,0.1,0.4c0,0.1,0.1,0.1,0.1,0.2
		c0,0.1,0.1,0.1,0.1,0.2l0,0.1c0,0,0,0.1,0,0.1c0,0-0.1,0-0.2-0.1c-0.3-0.2-0.5-0.4-0.7-0.7c-0.1-0.2-0.3-0.3-0.4-0.5
		c-0.1-0.1-0.2-0.2-0.2-0.2c-0.1,0-0.1,0-0.1,0.1c0,0,0,0,0.1,0.3l0.1,0.3c0,0-0.1-0.1-0.1-0.1l-0.3-0.3c-0.2-0.1-0.2-0.1-0.2-0.1
		c-0.1,0-0.1,0.1-0.1,0.1c0,0,0,0.2,0,0.2c0,0-0.1,0-0.1,0c-0.1,0-0.1,0-0.2,0.1c0,0-0.1-0.1-0.1-0.2l-0.1-0.1
		c-0.1-0.2-0.2-0.2-0.3-0.1c0,0,0,0,0,0c0,0-0.1,0-0.1,0c0,0-0.1,0-0.1,0.1c0,0.1,0,0.2,0,0.2c0,0.1,0.1,0.2,0.1,0.3
		c0.1,0.2,0.2,0.5,0.3,0.8c-0.3-0.2-0.4-0.4-0.6-0.6c-0.1-0.1-0.2-0.2-0.3-0.3c-0.1-0.1-0.1-0.1-0.2-0.1c0,0-0.1,0-0.1,0
		c0,0,0,0.1,0,0.2l0,0.1c-0.1-0.1-0.1-0.2-0.1-0.2l-0.1-0.1c-0.1-0.1-0.1-0.2-0.2-0.2c0,0-0.1,0-0.1,0c0,0,0,0.1,0,0.3
		c-0.1-0.1-0.1-0.1-0.2-0.2c0,0,0-0.1-0.1-0.1c-0.1-0.1-0.1-0.1-0.2-0.1c0,0-0.1,0-0.1,0.1c0,0,0,0.1,0,0.2l0,0.1c0,0,0,0-0.1-0.1
		l-0.1-0.1c-0.1-0.1-0.2-0.1-0.2-0.1c0,0-0.1,0-0.1,0c0,0,0,0,0,0c0,0,0,0,0,0c0,0,0,0-0.1,0c0,0-0.1,0-0.1,0.1
		c-0.1,0.1,0,0.2,0,0.3c-0.1-0.1-0.2-0.2-0.2-0.3c-0.1-0.1-0.1-0.2-0.2-0.3c-0.1-0.1-0.1-0.1-0.2-0.1c0,0-0.1,0-0.1,0.1
		c0,0,0,0.1,0,0.2l0,0l-0.1-0.1c-0.1-0.1-0.2,0-0.2,0c0,0.1,0,0.1,0,0.2l0.1,0.2c-0.2-0.1-0.3-0.2-0.4-0.4c0-0.1-0.1-0.1-0.1-0.1
		c0-0.1-0.1-0.1-0.1-0.1c0,0-0.1,0-0.1,0c0,0,0,0,0,0.3l0,0.2c0,0,0,0,0,0c-0.2-0.1-0.4-0.3-0.5-0.5c-0.1-0.1-0.1-0.1-0.2-0.2
		c-0.1-0.1-0.1-0.1-0.2-0.1c0,0-0.1,0-0.1,0.1c0,0,0,0.1,0,0.1c0,0-0.1-0.1-0.1-0.1c-0.1-0.1-0.2-0.2-0.2-0.2
		c-0.1,0-0.1,0.1-0.1,0.1c0,0,0,0,0,0.1l0,0c0,0-0.1,0-0.1,0.1c0,0,0,0.1,0.1,0.2c-0.1,0-0.1,0-0.1,0c-0.1,0-0.2,0-0.2,0
		c0,0.1,0,0.2,0,0.2l0,0c-0.2-0.1-0.3-0.2-0.4-0.3c-0.1,0-0.1-0.1-0.2-0.1c-0.1-0.1-0.2-0.1-0.3,0c0,0.1,0,0.1,0,0.2l0,0
		c-0.2-0.1-0.2-0.1-0.2-0.1c-0.1,0-0.1,0-0.1,0.1c0,0,0.1,0.1,0.2,0.3c0,0,0.1,0.1,0.1,0.1c-0.1,0-0.1,0-0.2,0.1
		c-0.2-0.2-0.5-0.3-0.7-0.4c-0.1-0.1-0.2,0-0.2,0c0,0.1,0,0.2,0.1,0.2l0.1,0.1c0,0-0.1,0-0.1,0.1c0,0,0,0,0,0c0,0,0,0,0,0
		c-0.3-0.2-0.6-0.3-1-0.5l-0.1-0.1c-0.1,0-0.2-0.1-0.2-0.1c0,0-0.1,0-0.1,0c0,0-0.1,0-0.1,0c-0.1,0-0.1,0-0.2,0c0,0-0.1,0-0.1,0.1
		c0,0,0,0.1,0,0.1c0,0,0.1,0.1,0.2,0.2l0.2,0.1c0,0-0.1,0-0.1,0c-0.1,0-0.1,0-0.1,0.1c0,0,0,0,0,0c-0.1,0-0.2,0-0.2,0.1
		c0,0.1,0,0.1,0,0.2l-0.4-0.2c-0.2-0.1-0.2-0.1-0.2-0.1c-0.1,0-0.1,0-0.1,0.1c0,0,0,0,0.1,0.2c-0.4-0.2-0.7-0.2-0.9-0.3c0,0,0,0,0,0
		c-0.1,0-0.3,0-0.3,0.1c0,0,0,0.1,0,0.1c0,0,0,0,0.1,0c0,0,0.1,0,0.2,0.1l0.4,0.2c0,0,0,0-0.1,0h-0.1c-0.1,0-0.3,0-0.4-0.1l-0.3-0.1
		c-0.1,0-0.2,0-0.2,0c0,0-0.1,0-0.1,0.1c0,0,0,0.1,0,0.1c0,0,0,0,0.1,0.1c0,0-0.1,0-0.1,0c-0.2,0-0.2,0-0.2,0.1
		c0,0.1,0.1,0.2,0.1,0.2l0.1,0.1c-0.4,0-0.7-0.1-1.1-0.2c-0.2,0-0.3-0.1-0.5-0.1c-0.2,0-0.2,0.1-0.2,0.1c0,0,0,0.1,0.1,0.2l0,0.1
		c0,0,0.1,0.1,0.1,0.1c0,0,0,0,0,0c-0.1,0-0.1,0.1-0.1,0.1c0,0,0,0.1,0.1,0.1c0,0,0,0,0,0c0,0,0.1,0.1,0.1,0.1
		c-0.4-0.1-0.8-0.2-1.2-0.2c-0.1,0-0.1,0-0.2,0c-0.1,0-0.1,0-0.2,0.1c0,0,0,0.1,0.1,0.1c0,0,0.1,0.1,0.2,0.1l0,0c0,0,0,0,0,0
		c-0.5,0.1-1,0-1.4-0.1c-0.1,0-0.2,0-0.2,0c-0.1,0-0.1,0.1-0.1,0.1c0,0,0.1,0.1,0.1,0.1c0,0,0.1,0,0.2,0.1l0,0c-0.1,0-0.1,0-0.1,0.1
		c0,0,0,0,0,0.1c0,0-0.2,0-0.2,0.1c0,0.1,0,0.1,0.1,0.1l-0.3-0.1c-0.2,0-0.2,0-0.3,0.1c0,0,0,0.1,0,0.2c0,0,0,0,0,0l-0.2,0
		c-0.1,0-0.1,0-0.2,0c0,0,0,0,0,0v0c-0.1,0-0.1,0-0.1,0.1c0,0.1,0,0.1,0.1,0.1c0,0,0.1,0,0.2,0.1c0,0,0,0,0.1,0
		c-0.1,0-0.2,0-0.2,0.1c0,0.1,0.1,0.2,0.2,0.2c0,0,0.1,0,0.1,0c-0.1,0-0.1,0.1-0.2,0.1c0,0,0,0,0,0c0,0-0.1,0-0.1,0
		c-0.1,0-0.2,0-0.4,0c-0.4,0-0.7,0-1,0c-0.1,0-0.1,0-0.2,0c0,0-0.1,0-0.1,0.1c0,0,0,0.1,0,0.1c0,0,0.1,0.1,0.2,0.2
		c-0.1,0-0.1,0-0.2,0c-0.2,0-0.4,0-0.6,0c-0.3,0-0.3,0.1-0.3,0.2c0,0,0,0.1,0.1,0.1c0,0,0,0,0,0c0,0,0.1,0.1,0.2,0.1
		c0.1,0.1,0.2,0.1,0.3,0.1c0.1,0,0.2,0.1,0.3,0.2h-0.7c-0.1,0-0.2,0-0.2,0.1c0,0.1,0,0.1,0.1,0.2c-0.1,0-0.3,0-0.4,0l-0.1,0
		c-0.1,0-0.2,0-0.2,0.1c0,0.1,0,0.1,0,0.1l0,0c-0.3,0-0.3,0.1-0.3,0.1c0,0,0,0.1,0,0.1c0,0,0.1,0.1,0.2,0.1l0.1,0c0,0,0.1,0,0.1,0.1
		c-0.4,0-0.8,0-1.1,0h0c-0.1,0-0.2,0-0.3,0.1c-0.1,0-0.2,0.1-0.2,0.1c0,0.1,0.1,0.1,0.3,0.1c0.1,0,0.1,0,0.2,0l-0.5,0.1
		c0,0-0.2,0-0.2,0.1c0,0.1,0.1,0.1,0.2,0.1l0,0c-0.3,0-0.5,0-0.8,0.1c-0.2,0-0.3,0-0.3,0.1c0,0.1,0.1,0.1,0.2,0.1l0.1,0
		c0.2,0,0.3,0,0.5,0.1c-0.1,0-0.1,0-0.1,0.1c0,0.1,0.1,0.1,0.1,0.1c0,0,0.1,0,0.2,0.1c0,0,0,0,0,0c-0.1,0-0.2,0-0.2,0.1
		c0,0,0,0.1,0.1,0.1c-0.5,0.1-1,0.2-1.5,0.3c-0.2,0-0.3,0.1-0.3,0.1c0,0,0,0.1,0,0.1c0,0,0.1,0.1,0.2,0.1c0,0,0,0,0,0
		c0,0.1,0.1,0.1,0.3,0.1l0.1,0c0,0,0.1,0,0.1,0c-0.1,0-0.1,0.1-0.2,0.1c0,0,0,0.1,0,0.1c0,0,0,0,0.1,0.1c-0.1,0-0.2,0.1-0.3,0.1
		c-0.1,0-0.3,0.1-0.4,0.1l-0.5,0c-0.1,0-0.2,0-0.2,0.1c0,0.1,0.1,0.1,0.2,0.1c0.1,0,0.2,0,0.2,0.1c-0.2,0.1-0.2,0.1-0.2,0.2
		c0,0.1,0.1,0.1,0.1,0.1c0,0,0.1,0,0.2,0.1c0,0,0,0,0.1,0c0,0,0,0,0,0c-0.4,0.1-0.7,0.2-1,0.2c-0.2,0-0.3,0-0.3,0.1c0,0,0,0.1,0,0.1
		c0,0,0,0.1,0.3,0.1c0.1,0,0.1,0,0.2,0.1c0,0,0,0.1,0,0.1c0,0.1,0.1,0.1,0.2,0.1h0.2c0,0,0.1,0,0.1,0c0,0-0.1,0.1-0.2,0.1
		c-0.2,0-0.5,0-0.8-0.1l-0.1,0c-0.1,0-0.2,0-0.2,0c-0.1,0-0.1,0.1-0.1,0.1c0,0.1,0,0.1,0.3,0.2c0.1,0.1,0.3,0.1,0.4,0.2c0,0,0,0,0,0
		c0,0,0,0,0,0c-0.3,0.1-0.5,0.2-0.8,0.3c-0.2,0.1-0.3,0.1-0.3,0.2c0,0.1,0.1,0.1,0.2,0.1c0,0,0,0,0,0c0,0.1,0.1,0.1,0.3,0.2
		c-0.3,0.1-0.5,0.1-0.8,0.2c-0.2,0.1-0.3,0.1-0.3,0.1c0,0,0,0.1,0,0.1c0,0,0,0,0,0c-0.1,0-0.2,0.1-0.2,0.1c0,0.1,0.1,0.1,0.3,0.1
		c-0.1,0-0.1,0-0.2,0.1c0,0-0.1,0-0.1,0.1c0,0.1,0.1,0.1,0.1,0.1c0.1,0,0.2,0,0.2,0c0.3-0.1,0.6-0.1,0.9-0.2c0,0.1,0,0.2,0,0.2
		c0,0-0.1,0-0.1,0c-0.3,0.1-0.6,0.1-0.9,0.2l-0.4,0.1c-0.2,0.1-0.3,0.1-0.3,0.2c0,0.1,0.1,0.1,0.1,0.1c0,0,0.1,0,0.2,0l0.2,0
		c0,0,0,0,0,0c-0.2,0.1-0.2,0.2-0.2,0.3c0,0,0.1,0.1,0.1,0.1c0,0,0.1,0,0.2,0l0,0l0,0c-0.2,0.1-0.2,0.2-0.2,0.3c0,0,0,0-0.1,0
		c-0.1,0-0.2,0.1-0.1,0.2c0,0,0,0.1,0.1,0.1c0,0,0,0,0,0c-0.1,0.1-0.2,0.1-0.3,0.2l-0.1,0c-0.1,0-0.2,0.1-0.2,0.1
		c0,0.1,0.1,0.1,0.1,0.1c0.1,0,0.1,0,0.2,0c0,0,0.1,0,0.2,0c-0.4,0.1-0.8,0.2-1.1,0.2c-0.2,0-0.3,0.1-0.3,0.2c0,0.1,0.1,0.1,0.3,0.1
		l0.3,0c-0.2,0.1-0.3,0.2-0.5,0.3c-0.2,0.1-0.2,0.2-0.2,0.2c0,0,0,0.1,0.1,0.1c0.1,0,0.1,0,0.3,0c0.2,0,0.3-0.1,0.5-0.1
		c0.1,0,0.1,0,0.1,0c0,0.1,0,0.2,0,0.3c0,0,0,0,0,0c-0.1,0.1-0.1,0.1-0.1,0.2c0,0,0,0,0,0c0,0,0,0-0.1,0c-0.2,0.1-0.4,0.1-0.6,0.2
		c-0.1,0-0.2,0.1-0.2,0.2c0,0,0,0.1,0.1,0.1c0,0,0,0-0.1,0l0,0c-0.1,0.1-0.2,0.1-0.2,0.2c0,0,0,0,0,0c-0.1,0.1,0,0.1,0,0.1
		c0,0,0.1,0.1,0.3,0.1c0.2,0,0.5-0.1,0.7-0.1l0.1,0c0,0,0,0,0,0c-0.1,0.1-0.2,0.2-0.3,0.2c-0.1,0.1-0.2,0.1-0.3,0.2
		c-0.1,0.1-0.1,0.2-0.1,0.2c0,0.1,0.1,0.1,0.2,0.1l0.1-0.1l0,0l0,0.1c0,0,0,0,0,0c-0.1,0.2-0.3,0.3-0.5,0.4c0,0-0.1,0.1-0.1,0.1
		c-0.1,0.1-0.2,0.2-0.1,0.2c0,0,0.1,0.1,0.1,0.1c0,0,0,0,0,0c0,0,0,0,0,0c0.1,0.1,0.2,0.1,0.3,0l0.2-0.1c0,0,0,0,0,0
		c-0.1,0.1-0.2,0.2-0.3,0.4c-0.1,0.1-0.2,0.2-0.3,0.3c-0.1,0.1-0.1,0.2,0,0.2c0,0.1,0.1,0.1,0.2,0.1c0,0,0,0,0.1,0
		c0.1,0,0.1,0,0.1,0.1c0,0,0,0.2,0.1,0.2c0,0-0.1,0-0.1,0.1c-0.1,0-0.2,0.1-0.2,0.2c0,0,0,0.1,0,0.1l-0.1,0.1c0,0-0.1,0.1-0.1,0.1
		c-0.1,0.1-0.1,0.1-0.1,0.2c0,0.1,0.1,0.1,0.2,0l0.1-0.1c0,0,0,0,0,0c0,0,0,0,0,0c0,0,0.1,0.1,0.1,0.1c0,0,0,0,0,0l-0.1,0.1
		c-0.1,0.1-0.1,0.2-0.1,0.2c0,0,0,0.1,0.2,0.1c0,0,0,0,0,0c0,0,0,0.1-0.1,0.1l-0.2,0.2c0,0-0.1,0.1-0.1,0.2c0,0,0.1,0.1,0.1,0.1
		c0,0,0.1,0,0.1-0.1l0.1,0c0,0,0,0,0.1,0c0,0,0,0,0,0.1C523.8,160.8,523.5,161.1,523.3,161.4z"/>
	<path id="XMLID_124_" class="st0" d="M625.5,157.9c-0.1,0.3-0.1,0.3,0.2,0.1c2.2-1.7,4.4-3.2,6.7-4.4c0.2-0.1,0.4,0,0.4,0.3
		c-0.3,5.5-0.6,11-0.9,16.5c-0.8,6.6-2.5,12.9-6.1,18.6c-0.1,0.1-0.2,0.3-0.2,0.5c-0.1,0.3-0.1,0.5,0,0.6c0.1,0.1,0.4,0,0.6-0.2
		c0.7-0.6,1.4-1.2,2-1.9c1.8-2.1,2.8-4.6,3.5-7.3c0-0.1,0-0.1,0.1-0.2c0-0.1,0.1-0.4,0.4-0.5c0.1-0.1,0.3,0,0.5,0.2
		c1.6,1.4-1.6,7-2.4,8.2c-0.1,0.1-0.1,0.3-0.1,0.4c0,0.2,0,0.5,0.1,0.5c0.1,0.1,0.3,0,0.5-0.2c0.4-0.3,0.7-0.5,1-0.8
		c2.9-2.9,4.5-6.4,5.7-10.3c1-3.2,1.7-6.4,2.1-9.6c0-0.3,0.1-0.6,0.1-0.7c0-0.1,0-0.1,0-0.2c0-0.2,0.3,0.3,0.3,0.3
		c0.1,0.3,0,0.8,0,1.1c-0.1,0.6-0.2,1.2-0.2,1.8c0,0.8,1,1,1.4,0.6c0.2-0.2,0.3-0.4,0.3-0.5c0,0,0,0,0,0c1-4,1.7-8.1,2.1-12.1
		c0-0.3,0.3-0.6,0.5-0.7c0.6-0.2,1.7-0.6,2.3-0.9c0.3-0.1,0.6,0,0.7,0.3c0.1,0.1,0.2,0.3,0.3,0.4c0.1,0.1,0.1,0.1,0.2,0.1
		c0.1,0,0.4-0.1,0.5-0.2c0.1-0.1,0.1-0.2,0.1-0.3c0-0.2,0-0.3,0-0.5c0-0.3,0.2-0.4,0.4-0.4c0.1,0,0.2,0,0.3-0.1
		c2.3-0.7,4.6-1.4,6.9-2c0.3-0.1,0.4,0.1,0.3,0.3c0,0,0,0,0,0c-0.1,0.3-0.5,0.5-0.5,0.8c0,0,0,0,0,0c0,0.3,0.4,0.4,0.4,0.4
		c0.1,0,0.2,0,0.3,0c0,0,0.1,0,0.1,0c0.1,0,0.1,0,0.2-0.1c0.1,0,0.4-0.1,0.6-0.3c0,0,0.1-0.1,0.1-0.1c0.2-0.2,0.4-0.6,0.5-0.9
		c0-0.1,0.1-0.3,0.1-0.4c0.1-0.3,0.2-0.5,0.4-0.6c0.2-0.1,0.5,0.1,0.6,0.3c0.1,0.2,0.2,0.4,0.2,0.6c0,0.1,0,0.1,0.1,0.2
		c0.1,0.1,0.1,0.1,0.1,0.2c0,0,0.1,0,0.2,0c0.1-0.1,0.2-0.1,0.2-0.1c0.4-0.2,0.7-0.5,0.7-0.9c0.1-0.3,0.1-0.6,0.1-0.7
		c0-0.1,0.2-0.2,0.4-0.3c2-0.6,4-1.2,6-1.8c1.5-0.5,0.9-2.9-0.7-2.4c-2.4,0.7-4.8,1.4-7.1,2.1c-0.3,0.1-0.7,0-0.9-0.1
		c-0.9-0.5-1.8-0.8-2.9-0.8c-0.3,0-0.4-0.2-0.3-0.5c0.3-0.9,0.6-1.7,0.8-2.6c0.1-0.3,0.2-0.7,0.4-0.9c0.3-0.6,0.5-1.2,0.8-1.8
		c0.1-0.3,0.4-0.6,0.6-0.8c0.3-0.3,0.6-0.5,0.9-0.8c0.2-0.2,0.6-0.4,0.8-0.6c2.5-1.6,4.5-4.9,4.5-7.7c0-0.1,0-0.2,0-0.3
		c0-0.1,0.2-0.4,0.4-0.5c0.3-0.2,0.6-0.3,0.9-0.5c0.4-0.3,0.9-0.5,1.4-0.8c0.2-0.1,0.4-0.3,0.4-0.3c0,0,0,0,0,0c0,0,0,0,0,0
		c0.1,0,0.2,0.1,0.3,0.1c0.2,0,0.4,0.1,0.5,0.2c0.1,0,0.1,0.1,0.2,0.1c1.1,0.4,2.4,0.6,3.6,0.7c0.1,0,0.2,0,0.2,0c0.1,0,0.4,0,0.6,0
		c0.1,0,0.3,0,0.4,0.1c0.1,0,0.1,0,0.2,0c0.1,0,0.1,0.2,0,0.4c0,0.1-0.1,0.2-0.2,0.4c-0.1,0.1-0.1,0.2-0.2,0.4
		c-0.1,0.2-0.1,0.4-0.1,0.5s0.3,0.1,0.6,0c0.2-0.1,0.5-0.2,0.6-0.4c0.8-1,1.7-2,2.3-3.2c0.5-1.1,1.2-2.5,0.1-3.5
		c-0.1-0.1-0.1-0.1-0.2-0.2c-0.1-0.1-0.3-0.4-0.3-0.6l-0.1-0.5c0,0,0-0.1,0-0.1c0-0.1-0.1-0.3-0.2-0.6c-1.5-3.9-5.3-6.3-9.6-5.7
		c-4.6,0.6-8.9,2.1-12.8,4.4c-1,0.6-2.7,0.6-3.7,1c-5.4,1.9-9.4,4.8-12.9,9.3c-2.9,3.6-5.3,7.5-7.3,11.7c-1,2.1-1.9,4.2-2.6,6.4
		C626.4,153.4,626,156.7,625.5,157.9z M649.4,150.2c0-0.1,0-0.3,0-0.4v-0.9c0-0.3,0-0.6,0.1-0.7c0-0.1,0-0.2,0-0.1
		c0,0-0.1,0-0.1-0.1c0-0.1,0-0.1,0-0.1c0,0,0,0,0,0c0,0,0,0,0.1,0c0,0,0.2,0.2,0.3,0.4l0.8,1.2c0,0,0.1,0.1,0.1,0.1
		c0.1,0.1,0.2,0.3,0.3,0.6c0.1,0.2,0.2,0.4,0.3,0.7c0.2,0.4,0.6,0.8,0.8,1.2c0,0.1,0.1,0.2,0.2,0.3c0.1,0.2,0.2,0.3,0.2,0.4
		c0,0.1-0.1,0.2-0.2,0.2c-0.1,0-0.4-0.1-0.6-0.2c-0.1-0.1-0.3-0.1-0.5-0.2c-0.3-0.1-0.7-0.2-0.9-0.4c-0.4-0.3-0.6-0.7-0.8-1.1
		C649.3,150.8,649.3,150.4,649.4,150.2z M643.9,155c0.1-1.9,0.2-3.8,0.1-5.7c0-0.3,0-0.5,0-0.5c0,0,0.1,0.2,0.1,0.5
		c0,0.1,0.1,0.3,0.2,0.4c0.1,0.3,0.3,0.7,0.3,0.9c0.1,0.2,0.3,0.6,0.4,0.9c0.1,0.2,0.2,0.3,0.3,0.5c0.3,0.6,0.7,1.1,1,1.7
		c0.1,0.2,0.1,0.5-0.1,0.7c-0.2,0.2-0.5,0.4-0.8,0.5c-0.4,0.2-0.8,0.3-1.2,0.5C644.1,155.4,643.9,155.3,643.9,155z"/>
	<path id="XMLID_145_" class="st0" d="M716.8,162.7c0.6-0.8,1.3-1.5,1.9-2.3c0.8-1,1.4-2.2,1.8-3.4c0.5-1.2,1-2.3,1.5-3.5
		c0.2-0.5,0.4-1,0.5-1.6c0.1-0.3,0.3-0.5,0.7-0.7c0,0.2,0,0.4,0,0.5c0,2.5-0.1,4.9-0.1,7.4c0,1.2,0.3,2.3,0.6,3.5
		c0.1,0.4,0.2,0.8,0.3,1.1c0.2,0.7,0.1,1.4-0.1,2c-0.3,1-0.5,2-0.8,3c-0.2,0.7-0.4,1.3-0.5,2c-0.3,1.6-0.3,3.1,0,4.7
		c0.1,0.8,0.2,1.7,0,2.5c-0.1,0.3-0.2,0.7-0.2,1c0,0.6,0.4,1,1,1.1c0.6,0.1,1.2,0.1,1.8,0.1c0.8,0,1.5,0.1,2.3,0
		c0.9,0,1.8-0.2,2.8-0.2c0.3,0,0.3-0.2,0.3-0.4c0-0.3-0.1-0.6-0.1-0.9c0,0,0.1,0,0.1-0.1c0.4-0.2,0.6-0.5,0.4-0.9
		c-0.2-0.4-0.5-0.7-0.8-1c-0.3-0.3-0.6-0.5-0.8-0.8c-0.4-0.5-0.7-1-1-1.5c-0.3-0.4-0.2-1-0.1-1.4c0.2-0.8,0.4-1.5,0.8-2.2
		c0.4-0.7,0.8-1.4,1.4-2c0.7-0.8,1.5-1.4,2.2-2.2c0.7-0.7,1.3-1.6,1.5-2.6c0.1-0.4,0.2-0.8,0.3-1.2c0-0.1,0.2-0.1,0.3-0.1
		c1,0.1,1.9,0.2,2.9,0.2c0.6,0,1.3,0,1.9-0.1c0.2,0,0.3,0,0.5,0c1.3,0,2.5,0,3.8-0.2c0.8-0.1,1.6-0.4,2.4-0.8
		c0.5-0.3,1.1-0.5,1.6-0.8c0.4,0.4,0.6,0.8,0.7,1.3c0.4,1.5,0.5,3.1,0.6,4.7c0,0.8,0.1,1.7,0.1,2.5c0,0.9-0.1,1.8-0.1,2.8
		c0,0.5,0.1,1,0,1.5c-0.1,0.8-0.2,1.7-0.3,2.5c0,0.3-0.2,0.5-0.3,0.8c-0.3,0.7-0.2,1.3,0.2,1.7c0.1,0.1,0.3,0.2,0.4,0.2
		c1.3-0.1,2.7-0.1,4-0.2c0.9,0,1.7,0,2.6,0c0.1,0,0.3,0,0.3,0.1c0.3,0.3,0.7,0.3,1.1,0.3c1.1,0,2.1,0,3.2,0c0.4,0,0.9,0,1.3,0
		c0.3,0,0.6-0.1,0.9-0.2c0.2,0,0.3-0.1,0.5-0.2c0.7-0.1,0.7-0.3,0.6-1c0-0.2-0.3-0.4-0.4-0.6c-0.1-0.2-0.3-0.4-0.4-0.6
		c-0.1-0.1-0.2-0.1-0.2-0.1c-0.5-0.5-1.1-1-1.4-1.7c-0.1-0.2-0.1-0.4-0.1-0.6c-0.1-1.3-0.3-2.6-0.4-3.9c-0.1-1,0-2,0.1-3
		c0-0.8,0-1.7,0-2.5c0-1,0-2,0.2-3c0.2-1.6,0.2-3.1,0.1-4.7c-0.1-1.3-0.2-2.6-0.4-4c0-0.1,0.1-0.3,0.2-0.3c1-0.6,2-1.2,3.1-1.8
		c1.1-0.7,2.3-1.3,3.6-2c0.2,0.3,0.5,0.6,0.7,0.8c0.2,0.3,0.5,0.5,0.7,0.7c0.3,0.3,0.6,0.6,0.9,1c0.3,0.3,0.5,0.5,0.7,0.3
		c0.2-0.2,0.3-0.6,0.1-0.9c-0.1-0.1-0.2-0.2-0.2-0.3c-0.7-0.7-1-1.7-1.4-2.6c0-0.1-0.1-0.2-0.1-0.3c0.4-0.2,0.9-0.4,1.3-0.6
		c0.3-0.1,0.6-0.3,0.9-0.4c0.6-0.2,1-0.6,1.4-1c0.2-0.3,0.6-0.4,0.9-0.2c0.8,0.5,1.6,0.5,2.5,0.7c0,0,0.1,0,0.1,0
		c0.2,0.1,0.4,0.1,0.5-0.1c0.1-0.1,0-0.3,0-0.5c0.2-0.2,0.5-0.1,0.8-0.2c0.3,0,0.7-0.1,1-0.1c0.2,0,0.5,0.1,0.7,0.2
		c1.4,0.5,2.9,0.6,4.4,0.4c1-0.2,2-0.4,2.9-1c0.6-0.4,1.1-0.9,1.2-1.6c0-0.2,0-0.3-0.1-0.5c-1.5,1.4-3.3,1.4-5.1,1.3
		c0.5-0.5,1.3-0.6,1.2-1.5c-0.6,0.2-1.2,0.5-1.9,0.7c-0.7,0.2-1.3,0.4-2.1,0.1c0.4-0.1,0.7-0.3,1.1-0.4c1.4-0.2,2.3-1,3.1-2.1
		c0.5-0.7,0.9-1.5,1.1-2.3c0.3-0.9,0.2-1.8,0.2-2.6c0-1.1-0.5-2.1-0.9-3.1c-0.4-1-0.6-2.1-0.4-3.2c0.1-1.1,0.5-2.2,1.1-3.2
		c0.3-0.4,0.5-0.9,0.8-1.3c0.6-0.8,1.3-1.3,2.3-1.6c0.3-0.1,0.5-0.2,0.8-0.3c0.2-0.1,0.2-0.3,0.2-0.4c-0.3-0.4-0.2-0.9-0.2-1.4
		c0-0.5-0.3-0.7-0.7-0.5c-0.6,0.4-1.2,0.5-1.9,0.7c-1.2,0.5-2.3,1.2-3.3,2.1c-1,1-1.8,2-2.3,3.3c-0.4,1.1-1,2.2-1.2,3.3
		c-0.2,1.3-0.2,2.6,0.1,4c0.1,0.6,0.1,1.3,0.2,2c0,0.2-0.1,0.4-0.2,0.5c-0.3,0.4-0.7,0.8-1,1.2c-0.6-0.2-1.1-0.4-1.6-0.5
		c-0.5-0.2-1-0.4-1.5-0.7c-0.3-0.3-0.8-0.5-1.1-0.7c-0.6-0.4-1.3-0.9-1.9-1.4c-0.5-0.3-0.9-0.6-1.4-0.9c-0.8-0.4-1.6-0.8-2.4-1.2
		c-0.7-0.4-1.6-0.3-2.4-0.2c-1.1,0.1-2.2,0.4-3.1,1c-0.9,0.5-1.7,1-2.6,1.6c-0.5,0.3-1,0.4-1.5,0.4c-0.3,0-0.6,0-0.9,0
		c-0.5,0.1-0.8-0.2-1.2-0.4c-0.9-0.4-1.9-0.6-2.9-0.7c-0.8-0.1-1.6-0.2-2.4-0.3c-1.3-0.1-2.6-0.1-3.8,0.4c-0.7,0.3-1.4,0.7-2.1,1
		c-0.2,0.1-0.4,0-0.7,0c-0.8-0.2-1.6-0.4-2.5-0.6c-0.7-0.2-1.5-0.3-2.2-0.5c-1.3-0.3-2.6,0.1-3.8,0.4c-0.9,0.3-1.8,0.6-2.6,0.9
		c-0.6,0.3-1.2,0.6-1.8,0.9c-0.9,0.6-1.8,1.1-2.7,1.8c-0.9,0.7-1.7,1.5-2.5,2.4c-0.7,0.7-1.3,1.6-2,2.4c-0.5,0.6-0.9,1.3-1.3,1.9
		c-0.5,0.9-1,1.8-1.3,2.7c-0.2,0.5-0.3,1.1-0.5,1.7c-0.2,0.6-0.3,1.2-0.5,1.8c-0.3,0.9-0.6,1.8-0.9,2.7c-0.2,0.7-0.5,1.4-0.8,2.1
		c-0.2,0.6-0.5,1.2-0.8,1.8c-0.4,0.8-0.7,1.6-1.2,2.4c-0.4,0.7-0.8,1.3-1.3,1.8c-0.3,0.3-0.7,0.4-1,0.7c-0.5,0.4-0.8,0.9-0.9,1.6
		c0.3-0.2,0.6-0.3,0.9-0.4C715.9,163.7,716.3,163.2,716.8,162.7z M753.8,173.9c0.2-0.4,0.3-0.8,0.3-1.2c0.2-1.1,0.3-2.2,0.5-3.3
		c0.1-0.9,0.2-1.9,0.4-2.8c0,0,0,0,0.1,0c0.2,0.6,0.3,1.3,0.5,1.9c0.3,1.1,0.3,2.2,0.2,3.3c-0.1,0.6-0.2,1.3,0.1,1.9
		c0.4,0.7,0.3,1.5,0.1,2.2c-0.1,0.4-0.2,0.9-0.4,1.4c-0.2-0.2-0.3-0.4-0.4-0.5c-0.3-0.4-0.7-0.9-1-1.3
		C753.8,175.1,753.5,174.6,753.8,173.9z"/>
</g>
</svg>
