<?xml version="1.0" encoding="utf-8"?>
<!-- Generator: Adobe Illustrator 19.0.0, SVG Export Plug-In . SVG Version: 6.00 Build 0)  -->
<svg version="1.1" xmlns="http://www.w3.org/2000/svg" xmlns:xlink="http://www.w3.org/1999/xlink" x="0px" y="0px"
	 viewBox="0 0 200 50" style="enable-background:new 0 0 200 50;" xml:space="preserve">
<style type="text/css">
	.st0{fill:#DB4D4D;fill-opacity:0.75;}
	.st1{fill:#EFAEA2;fill-opacity:0.5;}
	.st2{fill:#DB4D4D;}
	.st3{fill:#EFAEA2;}
</style>
<g id="fixed_icon">
	<path id="XMLID_18_" class="st0" d="M84.1,14.5c-0.4,0-0.8-0.1-1.1-0.1c-2.2,0-3.1,0.7-4.9,2.8l-2.8,3.3l-2.8-3.3
		c-1.8-2.1-2.7-2.8-4.9-2.8c-0.4,0-1,0-1.5,0.1c-1.5,0.1-3.6,1.8-4.5,5.6v1.6C62.6,26.5,66.8,32,75,38.1
		c8.2-6.1,13.3-11.6,13.3-16.4v-1.6C88.3,16.3,85.6,14.7,84.1,14.5z"/>
	<path id="XMLID_35_" class="st1" d="M34.1,14.5c-0.4,0-0.8-0.1-1.1-0.1c-2.2,0-3.1,0.7-4.8,2.8l-2.8,3.3l-2.8-3.3
		c-1.8-2.1-2.7-2.8-4.8-2.8c-0.4,0-1,0-1.5,0.1c-1.5,0.1-3.6,1.7-4.5,5.5v1.6C12.6,26.4,16.8,31.9,25,38
		c8.2-6.1,13.2-11.6,13.2-16.3v-1.6C38.2,16.3,35.6,14.7,34.1,14.5z"/>
</g>
<g id="icon_hover">
	<g id="XMLID_173_">
		<path id="XMLID_179_" class="st2" d="M167.7,31c0.3,1,0.4,1.7,0.6,2.4c0.3,0,0.6,0.1,0.9,0.1c3,0,5.9,0.1,8.9,0.1
			c2,0,4.1,0,6.1-0.1c1,0,2.7,1.1,3.2,2c0.5,1.1,0.2,2.6-0.6,3.5c-1,1.1-3.1,1.2-4.2,0.2c-1-0.9-1.1-2.7-0.1-3.9
			c0.1-0.2,0.3-0.3,0.5-0.7c-3.1-0.1-6-0.1-9-0.1c0.2,0.4,0.4,0.7,0.6,1c0.8,1.9-0.2,3.9-2.1,4.4c-1.8,0.5-3.6-0.8-3.5-2.7
			c0-0.8,0.3-1.6,0.4-2.5c-0.1,0-0.1-0.1-0.2-0.1c-1.6-0.1-1.6-0.1-2.1-1.7c-1-3.6-2.1-7.2-3.1-10.8c-0.7-2.4-1.2-4.9-1.8-7.4
			c-0.2-0.7-0.3-1.5-0.6-2.2c-0.2-0.6-0.5-1.2-1.3-1.3c0,0.1-0.1,0.2-0.1,0.3c0,1.3-0.9,2.2-2.2,2.1c-0.7,0-1-0.6-1.3-1.1
			c-0.3-0.6,0-1.2,0.4-1.6c0.7-0.8,1.6-1,2.5-0.9c2,0.1,2.6,0.5,3.2,2.6c0,0.1,0.1,0.2,0.1,0.2c0.5,1.8,0.5,1.7,2.2,1.7
			c3.5,0,7.1,0.1,10.6,0.1c2.5,0,5-0.1,7.5,0c2.6,0,5.3,0.1,7.9,0.2c0.1,0,0.3,0,0.4,0c0.9,0.1,1.1,0.4,1,1.2
			c-0.3,2.6-0.9,5.2-1.6,7.8c-0.6,1.9-0.9,3.9-1.4,5.9c-0.1,0.4-0.2,0.8-0.4,1.3C181.9,31.2,174.9,30.5,167.7,31z M163.3,15.7
			c0.1,0.7,0.2,1.3,0.3,1.8c1.1,3.8,2.2,7.5,3.4,11.3c0.3,0.9,0.5,1,1.4,1c1.3,0,2.7-0.2,4-0.1c2.8,0.1,5.6,0.2,8.3,0.3
			c2,0,4.1,0,6.1-0.1c1,0,1-0.1,1.2-1c0.2-0.9,0.4-1.7,0.6-2.6c1-3.3,1.8-6.7,2.5-10.4C181.9,15.6,172.8,15.4,163.3,15.7z M170.7,35
			c-0.7,0.9-1.1,1.7-0.5,2.8c0.5,1,1.2,1.4,2.1,1.1c0.9-0.3,1.5-1.2,1.2-2.2C173.3,35.5,172.6,34.6,170.7,35z M186.4,36.9
			c0-1.1-0.5-1.7-1.5-1.7c-1,0-1.9,1-1.9,2c0,0.9,0.7,1.7,1.6,1.7C185.8,38.8,186.4,38.1,186.4,36.9z M157.4,11.8
			c0.6,0.8,1,1,1.7,0.4c-0.3-0.3-0.5-0.7-0.8-0.9C158.1,11.2,157.8,11.6,157.4,11.8z"/>
		<path id="XMLID_178_" class="st2" d="M165.6,18.2c0.3-0.1,0.5-0.2,0.8-0.2c4.4,0.1,8.8,0.2,13.3,0.2c2,0,4,0.1,6.1,0.1
			c0.3,0,0.6,0,0.9,0c0.5,0,0.7,0.3,0.7,0.7c0,0.2-0.4,0.4-0.6,0.5c-0.3,0.1-0.6,0-0.9,0c-3-0.1-6.1-0.2-9.1-0.3
			c-2.3-0.1-4.6,0-6.9,0c-1.1,0-2.2,0-3.2,0.1C165.8,19.2,165.7,18.8,165.6,18.2z"/>
		<path id="XMLID_177_" class="st2" d="M186.9,23.5c-6.7-0.1-13.3-0.2-20.1-0.3c-0.1-0.1-0.2-0.4-0.3-0.7c1-0.4,1.9-0.3,2.8-0.3
			c2.2,0,4.4,0,6.6,0c2.6,0,5.2,0.2,7.8,0.2c0.8,0,1.5,0,2.3-0.1C186.7,22.3,186.9,22.7,186.9,23.5z"/>
		<path id="XMLID_176_" class="st2" d="M167.7,25.9c0.7,0,1.2,0.1,1.7,0.1c4.9,0,9.7,0,14.6,0.1c0.7,0,1.4,0,2.1,0.1
			c0.5,0,0.7,0.3,0.6,0.8c-0.1,0.5-0.4,0.4-0.8,0.4c-4.5-0.1-8.9-0.1-13.4-0.2c-1.2,0-2.4,0-3.7,0C168.2,27.1,167.9,26.8,167.7,25.9
			z"/>
		<path id="XMLID_175_" class="st2" d="M170.6,37c0.3-0.6,0.5-1.2,1.2-1c0.4,0.1,0.7,0.7,0.8,1.1c0.1,0.2-0.4,0.7-0.7,0.8
			C171.2,38.2,170.8,37.7,170.6,37z"/>
		<path id="XMLID_174_" class="st2" d="M185.3,36.9c0,0.6-0.5,1.1-1,1.1c-0.5,0-0.7-0.3-0.7-0.7c0-0.6,0.4-1.1,0.9-1
			C184.9,36.4,185.1,36.8,185.3,36.9z"/>
	</g>
	<g id="XMLID_19_">
		<path id="XMLID_25_" class="st3" d="M117.7,31c0.3,1,0.4,1.7,0.6,2.4c0.3,0,0.6,0.1,0.9,0.1c3,0,5.9,0.1,8.9,0.1
			c2,0,4.1,0,6.1-0.1c1,0,2.7,1.1,3.2,2c0.5,1.1,0.2,2.6-0.6,3.5c-1,1.1-3.1,1.2-4.2,0.2c-1-0.9-1.1-2.7-0.1-3.9
			c0.1-0.2,0.3-0.3,0.5-0.7c-3.1-0.1-6-0.1-9-0.1c0.2,0.4,0.4,0.7,0.6,1c0.8,1.9-0.2,3.9-2.1,4.4c-1.8,0.5-3.6-0.8-3.5-2.7
			c0-0.8,0.3-1.6,0.4-2.5c-0.1,0-0.1-0.1-0.2-0.1c-1.6-0.1-1.6-0.1-2.1-1.7c-1-3.6-2.1-7.2-3.1-10.8c-0.7-2.4-1.2-4.9-1.8-7.4
			c-0.2-0.7-0.3-1.5-0.6-2.2c-0.2-0.6-0.5-1.2-1.3-1.3c0,0.1-0.1,0.2-0.1,0.3c0,1.3-0.9,2.2-2.2,2.1c-0.7,0-1-0.6-1.3-1.1
			c-0.3-0.6,0-1.2,0.4-1.6c0.7-0.8,1.6-1,2.5-0.9c2,0.1,2.6,0.5,3.2,2.6c0,0.1,0.1,0.2,0.1,0.2c0.5,1.8,0.5,1.7,2.2,1.7
			c3.5,0,7.1,0.1,10.6,0.1c2.5,0,5-0.1,7.5,0c2.6,0,5.3,0.1,7.9,0.2c0.1,0,0.3,0,0.4,0c0.9,0.1,1.1,0.4,1,1.2
			c-0.3,2.6-0.9,5.2-1.6,7.8c-0.6,1.9-0.9,3.9-1.4,5.9c-0.1,0.4-0.2,0.8-0.4,1.3C131.9,31.3,124.9,30.5,117.7,31z M113.4,15.7
			c0.1,0.7,0.2,1.3,0.3,1.8c1.1,3.8,2.2,7.5,3.4,11.3c0.3,0.9,0.5,1,1.4,1c1.3,0,2.7-0.2,4-0.1c2.8,0.1,5.6,0.2,8.3,0.3
			c2,0,4.1,0,6.1-0.1c1,0,1-0.1,1.2-1c0.2-0.9,0.4-1.7,0.6-2.6c1-3.3,1.8-6.7,2.5-10.4C132,15.6,122.8,15.4,113.4,15.7z M120.8,35
			c-0.7,0.9-1.1,1.7-0.5,2.8c0.5,1,1.2,1.4,2.1,1.1c0.9-0.3,1.5-1.2,1.2-2.2C123.3,35.5,122.7,34.6,120.8,35z M136.4,36.9
			c0-1.1-0.5-1.7-1.5-1.7c-1,0-1.9,1-1.9,2c0,0.9,0.7,1.7,1.6,1.7C135.8,38.8,136.4,38.1,136.4,36.9z M107.4,11.8
			c0.6,0.8,1,1,1.7,0.4c-0.3-0.3-0.5-0.7-0.8-0.9C108.2,11.3,107.8,11.6,107.4,11.8z"/>
		<path id="XMLID_24_" class="st3" d="M115.6,18.2c0.3-0.1,0.5-0.2,0.8-0.2c4.4,0.1,8.8,0.2,13.3,0.2c2,0,4,0.1,6.1,0.1
			c0.3,0,0.6,0,0.9,0c0.5,0,0.7,0.3,0.7,0.7c0,0.2-0.4,0.4-0.6,0.5c-0.3,0.1-0.6,0-0.9,0c-3-0.1-6.1-0.2-9.1-0.3
			c-2.3-0.1-4.6,0-6.9,0c-1.1,0-2.2,0-3.2,0.1C115.9,19.2,115.7,18.8,115.6,18.2z"/>
		<path id="XMLID_23_" class="st3" d="M136.9,23.5c-6.7-0.1-13.3-0.2-20.1-0.3c-0.1-0.1-0.2-0.4-0.3-0.7c1-0.4,1.9-0.3,2.8-0.3
			c2.2,0,4.4,0,6.6,0c2.6,0,5.2,0.2,7.8,0.2c0.8,0,1.5,0,2.3-0.1C136.7,22.3,137,22.7,136.9,23.5z"/>
		<path id="XMLID_22_" class="st3" d="M117.8,25.9c0.7,0,1.2,0.1,1.7,0.1c4.9,0,9.7,0,14.6,0.1c0.7,0,1.4,0,2.1,0.1
			c0.5,0,0.7,0.3,0.6,0.8c-0.1,0.5-0.4,0.4-0.8,0.4c-4.5-0.1-8.9-0.1-13.4-0.2c-1.2,0-2.4,0-3.7,0C118.3,27.1,117.9,26.8,117.8,25.9
			z"/>
		<path id="XMLID_21_" class="st3" d="M120.6,37c0.3-0.6,0.5-1.2,1.2-1c0.4,0.1,0.7,0.7,0.8,1.1c0.1,0.2-0.4,0.7-0.7,0.8
			C121.2,38.2,120.8,37.7,120.6,37z"/>
		<path id="XMLID_20_" class="st3" d="M135.4,36.9c0,0.6-0.5,1.1-1,1.1c-0.5,0-0.7-0.3-0.7-0.7c0-0.6,0.4-1.1,0.9-1
			C134.9,36.5,135.2,36.8,135.4,36.9z"/>
	</g>
</g>
</svg>
