<?xml version="1.0" encoding="utf-8"?>
<!-- Generator: Adobe Illustrator 19.0.0, SVG Export Plug-In . SVG Version: 6.00 Build 0)  -->
<svg version="1.1" id="Objects" xmlns="http://www.w3.org/2000/svg" xmlns:xlink="http://www.w3.org/1999/xlink" x="0px" y="0px"
	 viewBox="0 0 400 100" style="enable-background:new 0 0 400 100;" xml:space="preserve">
<style type="text/css">
	.st0{fill:#5D574A;}
	.st1{fill:#FFFFFF;}
	.st2{fill:#91BAB1;}
	.st3{fill:#F4F0F0;}
</style>
<g>
	<g>
		<g>
			<path class="st0" d="M184.9,30.1c6.5,5,8,14.2,7.9,21.9c-0.1,7.8-3,16.1-9.8,20.5c-7.1,4.5-16.2,3-23.9,0.7c0,0,0,0.1,0.1,0.1
				c1.6,4.4-1.7,8.4-5.7,9.9c-5.4,2.1-12.2,1.9-17.9,1.5c-12-0.9-28.3-6.2-35.8,6.8c0,0,0,0,0,0c0,0,0,0.1,0,0.1
				c0.1,0.8-1.1,0.8-1.2,0c-0.9-8.2-11.8-8-17.9-7.6c-6.6,0.4-13.1,1.6-19.7,2c-5.4,0.3-11.4,0-16-3.2c-2-1.4-6.2-5.7-5.4-8.7
				c-0.3-0.2-0.6-0.5-0.7-0.9l-0.2-0.7c0.2-0.1,0.4-0.1,0.6-0.2c0.2,0,0.3,0,0.3,0.2c0.1,0,0.1,0,0.2,0.1c0.1,0.2,0.2,0.4,0.2,0.6
				c0,0,0,0,0,0c0.2,0.2,0.3,0.4,0.4,0.6c0.3,0.6,0.3,1.4,0.6,2.1c0.5,1.5,1.4,2.8,2.5,4c2.2,2.4,5.3,3.8,8.4,4.5
				c6.6,1.3,13.5,0.1,20.1-0.7c7.6-0.9,24.6-3.8,27.5,6.3c4.6-8.6,16.4-9,24.9-7.9c5.5,0.7,10.9,1.5,16.4,1.5c1.1,0,2.2,0,3.4-0.1
				c3-0.2,6.2-0.4,9.1-1.5c3.4-1.3,6.2-4.7,4.8-8.4c0-0.1-0.1-0.2,0-0.3c0.1-0.3,0.4-0.5,0.7-0.4c-0.3-0.4,0.1-1.1,0.7-0.9
				c7.2,2.1,15.5,3.8,22.3-0.1c7-4,9.8-12.2,9.9-19.8c0-1.6,0-3.2-0.2-4.8c-0.5-6.3-2.5-12.8-7.8-16.5c-6.9-4.9-15.6-3.9-23.3-2.2
				l-0.2-0.9C168.2,25.2,177.8,24.6,184.9,30.1z"/>
			<path class="st1" d="M191.4,47.2c0.1,1.6,0.2,3.3,0.2,4.8c-0.1,7.6-2.9,15.8-9.9,19.8c-6.9,3.9-15.2,2.2-22.3,0.1
				c-0.6-0.2-0.9,0.5-0.7,0.9c-0.3-0.1-0.7,0.1-0.7,0.4l-1.2-0.4c0.1-0.5,0.2-1,0.3-1.5c0.1-1.5-0.5-3.4,1.7-2.1
				c0,0.1,0.1,0.3,0.3,0.3c7.6,1.8,16.5,3.5,23.5-1.2c6.3-4.2,8.4-13.3,8-20.5c0-0.2,0-0.4-0.1-0.7L191.4,47.2z"/>
			<path class="st1" d="M191.4,47.2l-1,0.1c-0.6-6.9-4.3-13.4-10.8-16.3c-7-3.1-15.4-2.7-22.3,0.3c0.3-1,0.5-2.1,0.4-3.1l1-0.1
				c0,0.5,0.7,0.8,1.1,0.4c0.2,0,0.3-0.1,0.5-0.1c7.8-1.7,16.5-2.6,23.3,2.2C188.9,34.4,190.9,40.9,191.4,47.2z"/>
			<path class="st0" d="M190.5,47.9c0.4,7.1-1.8,16.3-8,20.5c-7,4.7-15.8,3.1-23.5,1.2c-0.2,0-0.3-0.2-0.3-0.3
				c-2.1-1.2-1.5,0.6-1.7,2.1c0,0.5-0.1,1-0.3,1.5c-0.1,0.5-0.3,1-0.5,1.4c-0.8,1.8-2.1,3.4-3.7,4.6c-3.4,2.5-7.6,3.2-11.8,3.2
				c-1.5,0-3.1-0.1-4.5-0.2c-12.1-1.2-25.5-5.8-35.6,3.5c0,0,0,0,0,0.1c0.2,0.5-0.5,0.9-0.7,0.4c-3.5-6.5-11.5-5.6-17.7-5
				c-6.6,0.6-13.1,1.5-19.7,1.7c-5.3,0.2-10.9-0.3-15.5-3.3c-2.1-1.4-4.1-3.3-5.3-5.7c-0.6-1.2-1-2.5-1-3.9c0,0,0-0.1,0-0.1
				c-7.3,3.5-15.7,5.3-22.6,0c-0.2-0.1-0.3-0.3-0.5-0.4C12,64.6,9.7,57.2,10,50c0.2-4.6,1.4-9.2,3.1-13.5c1.1-2.8,2.7-5.6,5.3-7.3
				c1-0.6,2-1,3-1.3c2.6-0.6,5.5-0.3,8.1,0.1c4.2,0.7,8.2,2.1,12,3.9c-0.4-1.1-0.5-2.3-0.4-3.4c0.2-2.8,1.8-5.6,4-7.5
				c4.1-3.6,9.9-4.1,15.1-3.6c7,0.7,13.8,2.7,20.9,3.2c6.6,0.4,15,0.3,18.1-6.8c0.2-0.4,1-0.1,0.8,0.3c0,0,0,0.1-0.1,0.1
				c4.1,4.9,9.5,6.4,15.8,6.8c7.3,0.5,14.2-0.6,21.4-2c5.1-1,10.8-1.7,15.4,1c2.9,1.7,5,4.7,5.2,7.9c0.1,1-0.1,2.1-0.4,3.1
				c6.9-3,15.3-3.4,22.3-0.3c6.5,2.9,10.2,9.4,10.8,16.3C190.5,47.5,190.5,47.7,190.5,47.9z M181.4,68c6.3-3.8,8.5-12.7,8.2-19.6
				c-0.3-7.2-4.1-14.2-11-17c-6.8-2.7-14.4-2.1-21.1,0.5c-0.2,0.1-0.3-0.1-0.4-0.2c-0.3,0.1-0.8-0.1-0.6-0.5c2.6-7.6-5.7-12-12.1-12
				c-6,0-11.9,2.1-17.9,2.6c-5.6,0.5-11.5,0.6-16.9-0.6c-3.7-0.9-8-2.7-9.8-6.2c-4.6,9.5-19.2,7-27.6,5.6
				c-6.5-1.1-13.1-3.2-19.6-1.9c-6.6,1.4-11.8,6.9-10,13.9c0,0,0,0.1,0,0.1c0,0,0,0,0,0c0,0.1,0,0.2-0.1,0.3
				c-0.1,0.2-0.3,0.3-0.5,0.1c-3.4-1.7-7-3-10.7-3.8c-3.9-0.8-8.7-1.5-12.3,0.7c-3.1,1.9-4.7,5.7-5.8,9c-1.3,3.7-2.1,7.5-2.3,11.4
				c-0.3,7.2,2.3,14.7,8.3,19c6.7,4.8,14.6,2.5,21.6-0.3c0.3-0.1,0.4,0.3,0.2,0.4c0,0-0.1,0-0.1,0c0.1,0,0.2,0,0.2,0.1
				c1.7,5.9,5.8,9.9,11.8,11.4c6.1,1.6,12.6,0.6,18.7,0c6.2-0.6,12.9-2,19.1-1.5c3.8,0.3,7.6,1.8,9.6,5.2c5.9-7.1,16.9-6.7,25.2-5.5
				c6.1,0.9,12.4,2.3,18.6,1.6c6.2-0.7,13.4-5,11.8-12.2c-0.1-0.2,0.1-0.5,0.3-0.6c1.3-0.2,2.3-0.1,3.4,0.6
				C166.6,70.5,174.7,72.1,181.4,68z"/>
			<path class="st2" d="M189.6,48.4c0.3,7-1.9,15.8-8.2,19.6c-6.6,4-14.7,2.4-21.8,0.7c-1.1-0.7-2.1-0.9-3.4-0.6
				c-0.3,0.1-0.4,0.4-0.3,0.6c1.6,7.2-5.6,11.5-11.8,12.2c-6.2,0.7-12.5-0.7-18.6-1.6c-8.3-1.2-19.2-1.6-25.2,5.5
				c-1.9-3.4-5.8-4.9-9.6-5.2c-6.3-0.5-12.9,0.9-19.1,1.5c-6.2,0.6-12.6,1.6-18.7,0c-6-1.5-10.1-5.5-11.8-11.4
				c0-0.1-0.1-0.1-0.2-0.1c0,0,0.1,0,0.1,0c0.2-0.1,0.1-0.5-0.2-0.4c-7,2.9-14.9,5.1-21.6,0.3c-6.1-4.3-8.6-11.8-8.3-19
				c0.1-3.9,1-7.7,2.3-11.4c1.1-3.3,2.7-7.1,5.8-9c3.6-2.2,8.3-1.5,12.3-0.7c3.7,0.8,7.3,2.1,10.7,3.8c0.2,0.1,0.4,0,0.5-0.1
				c0.1-0.1,0.1-0.2,0.1-0.3c0,0,0,0,0,0c0,0,0-0.1,0-0.1c-1.8-7,3.4-12.5,10-13.9c6.6-1.4,13.2,0.8,19.6,1.9
				c8.4,1.4,23,3.9,27.6-5.6c1.9,3.5,6.1,5.3,9.8,6.2c5.5,1.3,11.4,1.2,16.9,0.6c6-0.6,11.9-2.6,17.9-2.6c6.4,0,14.6,4.4,12.1,12
				c-0.1,0.4,0.3,0.7,0.6,0.5c0.1,0.2,0.2,0.3,0.4,0.2c6.7-2.5,14.4-3.2,21.1-0.5C185.5,34.2,189.3,41.2,189.6,48.4z"/>
			<path class="st0" d="M160.1,27.6l0.2,0.9c-0.2,0-0.3,0.1-0.5,0.1c-0.3,0.3-1.1,0.1-1.1-0.4c0-0.1,0-0.1,0-0.2
				c2.1-8.3-7.5-11.8-14-11.8c-6.6,0-13.1,1.5-19.6,2.4c-5.9,0.8-12.5,1.2-18.2-1.2c-2.9-1.2-6-3.4-7-6.5c-0.6,1-1.2,1.9-1.9,2.6
				c-6.1,6.6-16.9,6.1-25.2,4.5c-6.8-1.3-13.9-3.1-20.8-1.6C46.2,17.7,40.9,22,40,28.1c0.1,0.1,0.1,0.3,0.1,0.4
				c0,0.2-0.1,0.4-0.3,0.5c-0.1,0.5-0.9,0.5-0.9-0.1c0,0,0-0.1,0-0.1c-5-2-11.9-3.3-17.7-2c-2.2,0.5-4.3,1.4-6,2.9
				c-2.9,2.5-4.2,6.8-5.3,10.4C8.9,44.1,8.2,48,8.3,51.9c0.2,7,2.8,13.8,8.1,18.3c0.5,0.5,1.1,0.9,1.7,1.3c2.8,1.9,6.1,3.2,9.5,3.4
				c3.8,0.2,7.3-1.3,10.9-2.4l0.2,0.7c-6.1,3.2-12.8,4-19,0.8C7.5,67.5,5.2,52.6,8.7,40.4c1.7-6,4-11.8,10.4-13.9
				c6.4-2.1,13.8-1.3,20,1.2c0.5-4.2,3.2-7.7,6.8-9.9c5-3.2,11.1-3.4,16.8-2.7c11.7,1.4,29.5,8.1,36.8-5.4c0.1-0.2,0.2-0.3,0.3-0.3
				c0-0.1,0-0.1,0-0.2c0-0.4,0.5-0.4,0.6-0.1c2.3,6.8,9.4,8.7,15.9,8.9c6.9,0.2,13.8-1.5,20.6-2.4c5.7-0.8,12.3-1.4,17.6,1.5
				C158.3,19.1,160.8,23.2,160.1,27.6z"/>
			<path class="st1" d="M144.8,16.1c6.5,0,16.1,3.5,14,11.8c0,0.1,0,0.1,0,0.2l-1,0.1c-0.2-3.3-2.2-6.2-5.2-7.9
				c-4.7-2.7-10.4-2-15.4-1c-7.1,1.4-14.1,2.4-21.4,2c-6.3-0.4-11.7-1.9-15.8-6.8c0,0,0-0.1,0.1-0.1c0.2-0.4-0.6-0.8-0.8-0.3
				l-1.2-0.4c0.7-0.8,1.4-1.7,1.9-2.6c1,3.1,4,5.3,7,6.5c5.7,2.3,12.2,1.9,18.2,1.2C131.7,17.7,138.2,16.1,144.8,16.1z"/>
			<path class="st1" d="M158,73.6c1.4,3.8-1.4,7.1-4.8,8.4c-2.8,1.1-6,1.3-9.1,1.5c-1.1,0.1-2.3,0.1-3.4,0.1l0-1.5
				c4.2,0,8.4-0.7,11.8-3.2c1.6-1.2,2.9-2.7,3.7-4.6c0.2-0.5,0.4-0.9,0.5-1.4l1.2,0.4C157.9,73.4,157.9,73.5,158,73.6z"/>
			<path class="st1" d="M140.7,82.1l0,1.5c-5.5,0-10.9-0.8-16.4-1.5c-8.5-1.1-20.3-0.7-24.9,7.9c-2.9-10.2-19.8-7.2-27.5-6.3
				c-6.6,0.8-13.5,2-20.1,0.7c-3.2-0.6-6.2-2.1-8.4-4.5c-1.1-1.2-2-2.5-2.5-4c-0.3-0.7-0.3-1.4-0.6-2.1l1.3-0.1
				c1.2,2.3,3.2,4.3,5.3,5.7c4.6,3,10.1,3.5,15.5,3.3c6.6-0.3,13.2-1.1,19.7-1.7c6.2-0.6,14.2-1.5,17.7,5c0.3,0.5,0.9,0.1,0.7-0.4
				c0,0,0,0,0-0.1c10.2-9.4,23.5-4.7,35.6-3.5C137.6,82,139.2,82.1,140.7,82.1z"/>
			<path class="st1" d="M98.1,13.5l1.2,0.4c-3,7.1-11.5,7.2-18.1,6.8c-7.1-0.5-13.9-2.4-20.9-3.2c-5.2-0.5-11,0-15.1,3.6
				c-2.2,1.9-3.7,4.6-4,7.5l-1.2-0.1c0-0.1,0-0.3-0.1-0.4c1-6.1,6.2-10.4,12.1-11.7c6.9-1.5,14,0.4,20.8,1.6
				C81.2,19.6,92,20.1,98.1,13.5z"/>
			<path class="st1" d="M41.7,73.7l-1.3,0.1c-0.1-0.2-0.2-0.4-0.4-0.6c0,0,0,0,0,0c0-0.2-0.1-0.4-0.2-0.6c0-0.1-0.1-0.1-0.2-0.1
				c-0.1-0.1-0.2-0.2-0.3-0.2c-0.2,0.1-0.4,0.1-0.6,0.2c-3.6,1.1-7.1,2.6-10.9,2.4c-3.4-0.1-6.7-1.4-9.5-3.4
				c-0.6-0.4-1.2-0.9-1.7-1.3l1.2-1c0.2,0.1,0.3,0.3,0.5,0.4c6.9,5.3,15.3,3.5,22.6,0c0,0,0,0.1,0,0.1C40.7,71.2,41,72.5,41.7,73.7z
				"/>
			<path class="st1" d="M40.1,28.5l1.2,0.1c-0.1,1.2,0,2.3,0.4,3.4c-3.8-1.9-7.8-3.2-12-3.9c-2.6-0.4-5.5-0.8-8.1-0.1l-0.2-1.1
				c5.8-1.4,12.7,0,17.7,2c0,0,0,0.1,0,0.1c0,0.6,0.8,0.6,0.9,0.1C40,29,40.1,28.7,40.1,28.5z"/>
			<path class="st1" d="M21.2,26.9l0.2,1.1c-1.1,0.3-2.1,0.7-3,1.3c-2.6,1.7-4.2,4.5-5.3,7.3c-1.7,4.3-2.9,8.9-3.1,13.5
				c-0.4,7.2,2,14.6,7.6,19.3l-1.2,1c-5.3-4.5-8-11.3-8.1-18.3c-0.1-4,0.5-7.9,1.6-11.7c1-3.6,2.3-7.9,5.3-10.4
				C16.9,28.4,19,27.4,21.2,26.9z"/>
		</g>
	</g>
</g>
<g>
	<g>
		<g>
			<path class="st0" d="M384.9,30.1c6.5,5,8,14.2,7.9,21.9c-0.1,7.8-3,16.1-9.8,20.5c-7.1,4.5-16.2,3-23.9,0.7c0,0,0,0.1,0.1,0.1
				c1.6,4.4-1.7,8.4-5.7,9.9c-5.4,2.1-12.2,1.9-17.9,1.5c-12-0.9-28.3-6.2-35.8,6.8c0,0,0,0,0,0c0,0,0,0.1,0,0.1
				c0.1,0.8-1.1,0.8-1.2,0c-0.9-8.2-11.8-8-17.9-7.6c-6.6,0.4-13.1,1.6-19.7,2c-5.4,0.3-11.4,0-16-3.2c-2-1.4-6.2-5.7-5.4-8.7
				c-0.3-0.2-0.6-0.5-0.7-0.9l-0.2-0.7c0.2-0.1,0.4-0.1,0.6-0.2c0.2,0,0.3,0,0.3,0.2c0.1,0,0.1,0,0.2,0.1c0.1,0.2,0.2,0.4,0.2,0.6
				c0,0,0,0,0,0c0.2,0.2,0.3,0.4,0.4,0.6c0.3,0.6,0.3,1.4,0.6,2.1c0.5,1.5,1.4,2.8,2.5,4c2.2,2.4,5.3,3.8,8.4,4.5
				c6.6,1.3,13.5,0.1,20.1-0.7c7.6-0.9,24.6-3.8,27.5,6.3c4.6-8.6,16.4-9,24.9-7.9c5.5,0.7,10.9,1.5,16.4,1.5c1.1,0,2.2,0,3.4-0.1
				c3-0.2,6.2-0.4,9.1-1.5c3.4-1.3,6.2-4.7,4.8-8.4c0-0.1-0.1-0.2,0-0.3c0.1-0.3,0.4-0.5,0.7-0.4c-0.3-0.4,0.1-1.1,0.7-0.9
				c7.2,2.1,15.5,3.8,22.3-0.1c7-4,9.8-12.2,9.9-19.8c0-1.6,0-3.2-0.2-4.8c-0.5-6.3-2.5-12.8-7.8-16.5c-6.9-4.9-15.6-3.9-23.3-2.2
				l-0.2-0.9C368.2,25.2,377.8,24.6,384.9,30.1z"/>
			<path class="st1" d="M391.4,47.2c0.1,1.6,0.2,3.3,0.2,4.8c-0.1,7.6-2.9,15.8-9.9,19.8c-6.9,3.9-15.2,2.2-22.3,0.1
				c-0.6-0.2-0.9,0.5-0.7,0.9c-0.3-0.1-0.7,0.1-0.7,0.4l-1.2-0.4c0.1-0.5,0.2-1,0.3-1.5c0.1-1.5-0.5-3.4,1.7-2.1
				c0,0.1,0.1,0.3,0.3,0.3c7.6,1.8,16.5,3.5,23.5-1.2c6.3-4.2,8.4-13.3,8-20.5c0-0.2,0-0.4-0.1-0.7L391.4,47.2z"/>
			<path class="st1" d="M391.4,47.2l-1,0.1c-0.6-6.9-4.3-13.4-10.8-16.3c-7-3.1-15.4-2.7-22.3,0.3c0.3-1,0.5-2.1,0.4-3.1l1-0.1
				c0,0.5,0.7,0.8,1.1,0.4c0.2,0,0.3-0.1,0.5-0.1c7.8-1.7,16.5-2.6,23.3,2.2C388.9,34.4,390.9,40.9,391.4,47.2z"/>
			<path class="st0" d="M390.5,47.9c0.4,7.1-1.8,16.3-8,20.5c-7,4.7-15.8,3.1-23.5,1.2c-0.2,0-0.3-0.2-0.3-0.3
				c-2.1-1.2-1.5,0.6-1.7,2.1c0,0.5-0.1,1-0.3,1.5c-0.1,0.5-0.3,1-0.5,1.4c-0.8,1.8-2.1,3.4-3.7,4.6c-3.4,2.5-7.6,3.2-11.8,3.2
				c-1.5,0-3.1-0.1-4.5-0.2c-12.1-1.2-25.5-5.8-35.6,3.5c0,0,0,0,0,0.1c0.2,0.5-0.5,0.9-0.7,0.4c-3.5-6.5-11.5-5.6-17.7-5
				c-6.6,0.6-13.1,1.5-19.7,1.7c-5.3,0.2-10.9-0.3-15.5-3.3c-2.1-1.4-4.1-3.3-5.3-5.7c-0.6-1.2-1-2.5-1-3.9c0,0,0-0.1,0-0.1
				c-7.3,3.5-15.7,5.3-22.6,0c-0.2-0.1-0.3-0.3-0.5-0.4c-5.6-4.7-8-12.1-7.6-19.3c0.2-4.6,1.4-9.2,3.1-13.5c1.1-2.8,2.7-5.6,5.3-7.3
				c1-0.6,2-1,3-1.3c2.6-0.6,5.5-0.3,8.1,0.1c4.2,0.7,8.2,2.1,12,3.9c-0.4-1.1-0.5-2.3-0.4-3.4c0.2-2.8,1.8-5.6,4-7.5
				c4.1-3.6,9.9-4.1,15.1-3.6c7,0.7,13.8,2.7,20.9,3.2c6.6,0.4,15,0.3,18.1-6.8c0.2-0.4,1-0.1,0.8,0.3c0,0,0,0.1-0.1,0.1
				c4.1,4.9,9.5,6.4,15.8,6.8c7.3,0.5,14.2-0.6,21.4-2c5.1-1,10.8-1.7,15.4,1c2.9,1.7,5,4.7,5.2,7.9c0.1,1-0.1,2.1-0.4,3.1
				c6.9-3,15.3-3.4,22.3-0.3c6.5,2.9,10.2,9.4,10.8,16.3C390.5,47.5,390.5,47.7,390.5,47.9z M381.4,68c6.3-3.8,8.5-12.7,8.2-19.6
				c-0.3-7.2-4.1-14.2-11-17c-6.8-2.7-14.4-2.1-21.1,0.5c-0.2,0.1-0.3-0.1-0.4-0.2c-0.3,0.1-0.8-0.1-0.6-0.5c2.6-7.6-5.7-12-12.1-12
				c-6,0-11.9,2.1-17.9,2.6c-5.6,0.5-11.5,0.6-16.9-0.6c-3.7-0.9-8-2.7-9.8-6.2c-4.6,9.5-19.2,7-27.6,5.6
				c-6.5-1.1-13.1-3.2-19.6-1.9c-6.6,1.4-11.8,6.9-10,13.9c0,0,0,0.1,0,0.1c0,0,0,0,0,0c0,0.1,0,0.2-0.1,0.3
				c-0.1,0.2-0.3,0.3-0.5,0.1c-3.4-1.7-7-3-10.7-3.8c-3.9-0.8-8.7-1.5-12.3,0.7c-3.1,1.9-4.7,5.7-5.8,9c-1.3,3.7-2.1,7.5-2.3,11.4
				c-0.3,7.2,2.3,14.7,8.3,19c6.7,4.8,14.6,2.5,21.6-0.3c0.3-0.1,0.4,0.3,0.2,0.4c0,0-0.1,0-0.1,0c0.1,0,0.2,0,0.2,0.1
				c1.7,5.9,5.8,9.9,11.8,11.4c6.1,1.6,12.6,0.6,18.7,0c6.2-0.6,12.9-2,19.1-1.5c3.8,0.3,7.6,1.8,9.6,5.2c5.9-7.1,16.9-6.7,25.2-5.5
				c6.1,0.9,12.4,2.3,18.6,1.6c6.2-0.7,13.4-5,11.8-12.2c-0.1-0.2,0.1-0.5,0.3-0.6c1.3-0.2,2.3-0.1,3.4,0.6
				C366.6,70.5,374.7,72.1,381.4,68z"/>
			<path class="st3" d="M389.6,48.4c0.3,7-1.9,15.8-8.2,19.6c-6.6,4-14.7,2.4-21.8,0.7c-1.1-0.7-2.1-0.9-3.4-0.6
				c-0.3,0.1-0.4,0.4-0.3,0.6c1.6,7.2-5.6,11.5-11.8,12.2c-6.2,0.7-12.5-0.7-18.6-1.6c-8.3-1.2-19.2-1.6-25.2,5.5
				c-1.9-3.4-5.8-4.9-9.6-5.2c-6.3-0.5-12.9,0.9-19.1,1.5c-6.2,0.6-12.6,1.6-18.7,0c-6-1.5-10.1-5.5-11.8-11.4
				c0-0.1-0.1-0.1-0.2-0.1c0,0,0.1,0,0.1,0c0.2-0.1,0.1-0.5-0.2-0.4c-7,2.9-14.9,5.1-21.6,0.3c-6.1-4.3-8.6-11.8-8.3-19
				c0.1-3.9,1-7.7,2.3-11.4c1.1-3.3,2.7-7.1,5.8-9c3.6-2.2,8.3-1.5,12.3-0.7c3.7,0.8,7.3,2.1,10.7,3.8c0.2,0.1,0.4,0,0.5-0.1
				c0.1-0.1,0.1-0.2,0.1-0.3c0,0,0,0,0,0c0,0,0-0.1,0-0.1c-1.8-7,3.4-12.5,10-13.9c6.6-1.4,13.2,0.8,19.6,1.9
				c8.4,1.4,23,3.9,27.6-5.6c1.9,3.5,6.1,5.3,9.8,6.2c5.5,1.3,11.4,1.2,16.9,0.6c6-0.6,11.9-2.6,17.9-2.6c6.4,0,14.6,4.4,12.1,12
				c-0.1,0.4,0.3,0.7,0.6,0.5c0.1,0.2,0.2,0.3,0.4,0.2c6.7-2.5,14.4-3.2,21.1-0.5C385.5,34.2,389.3,41.2,389.6,48.4z"/>
			<path class="st0" d="M360.1,27.6l0.2,0.9c-0.2,0-0.3,0.1-0.5,0.1c-0.3,0.3-1.1,0.1-1.1-0.4c0-0.1,0-0.1,0-0.2
				c2.1-8.3-7.5-11.8-14-11.8c-6.6,0-13.1,1.5-19.6,2.4c-5.9,0.8-12.5,1.2-18.2-1.2c-2.9-1.2-6-3.4-7-6.5c-0.6,1-1.2,1.9-1.9,2.6
				c-6.1,6.6-16.9,6.1-25.2,4.5c-6.8-1.3-13.9-3.1-20.8-1.6c-5.9,1.3-11.2,5.6-12.1,11.7c0.1,0.1,0.1,0.3,0.1,0.4
				c0,0.2-0.1,0.4-0.3,0.5c-0.1,0.5-0.9,0.5-0.9-0.1c0,0,0-0.1,0-0.1c-5-2-11.9-3.3-17.7-2c-2.2,0.5-4.3,1.4-6,2.9
				c-2.9,2.5-4.2,6.8-5.3,10.4c-1.1,3.8-1.7,7.7-1.6,11.7c0.2,7,2.8,13.8,8.1,18.3c0.5,0.5,1.1,0.9,1.7,1.3c2.8,1.9,6.1,3.2,9.5,3.4
				c3.8,0.2,7.3-1.3,10.9-2.4l0.2,0.7c-6.1,3.2-12.8,4-19,0.8c-12.3-6.4-14.5-21.3-11.1-33.6c1.7-6,4-11.8,10.4-13.9
				c6.4-2.1,13.8-1.3,20,1.2c0.5-4.2,3.2-7.7,6.8-9.9c5-3.2,11.1-3.4,16.8-2.7c11.7,1.4,29.5,8.1,36.8-5.4c0.1-0.2,0.2-0.3,0.3-0.3
				c0-0.1,0-0.1,0-0.2c0-0.4,0.5-0.4,0.6-0.1c2.3,6.8,9.4,8.7,15.9,8.9c6.9,0.2,13.8-1.5,20.6-2.4c5.7-0.8,12.3-1.4,17.6,1.5
				C358.3,19.1,360.8,23.2,360.1,27.6z"/>
			<path class="st1" d="M344.8,16.1c6.5,0,16.1,3.5,14,11.8c0,0.1,0,0.1,0,0.2l-1,0.1c-0.2-3.3-2.2-6.2-5.2-7.9
				c-4.7-2.7-10.4-2-15.4-1c-7.1,1.4-14.1,2.4-21.4,2c-6.3-0.4-11.7-1.9-15.8-6.8c0,0,0-0.1,0.1-0.1c0.2-0.4-0.6-0.8-0.8-0.3
				l-1.2-0.4c0.7-0.8,1.4-1.7,1.9-2.6c1,3.1,4,5.3,7,6.5c5.7,2.3,12.2,1.9,18.2,1.2C331.7,17.7,338.2,16.1,344.8,16.1z"/>
			<path class="st1" d="M358,73.6c1.4,3.8-1.4,7.1-4.8,8.4c-2.8,1.1-6,1.3-9.1,1.5c-1.1,0.1-2.3,0.1-3.4,0.1l0-1.5
				c4.2,0,8.4-0.7,11.8-3.2c1.6-1.2,2.9-2.7,3.7-4.6c0.2-0.5,0.4-0.9,0.5-1.4l1.2,0.4C357.9,73.4,357.9,73.5,358,73.6z"/>
			<path class="st1" d="M340.7,82.1l0,1.5c-5.5,0-10.9-0.8-16.4-1.5c-8.5-1.1-20.3-0.7-24.9,7.9c-2.9-10.2-19.8-7.2-27.5-6.3
				c-6.6,0.8-13.5,2-20.1,0.7c-3.2-0.6-6.2-2.1-8.4-4.5c-1.1-1.2-2-2.5-2.5-4c-0.3-0.7-0.3-1.4-0.6-2.1l1.3-0.1
				c1.2,2.3,3.2,4.3,5.3,5.7c4.6,3,10.1,3.5,15.5,3.3c6.6-0.3,13.2-1.1,19.7-1.7c6.2-0.6,14.2-1.5,17.7,5c0.3,0.5,0.9,0.1,0.7-0.4
				c0,0,0,0,0-0.1c10.2-9.4,23.5-4.7,35.6-3.5C337.6,82,339.2,82.1,340.7,82.1z"/>
			<path class="st1" d="M298.1,13.5l1.2,0.4c-3,7.1-11.5,7.2-18.1,6.8c-7.1-0.5-13.9-2.4-20.9-3.2c-5.2-0.5-11,0-15.1,3.6
				c-2.2,1.9-3.7,4.6-4,7.5l-1.2-0.1c0-0.1,0-0.3-0.1-0.4c1-6.1,6.2-10.4,12.1-11.7c6.9-1.5,14,0.4,20.8,1.6
				C281.2,19.6,292,20.1,298.1,13.5z"/>
			<path class="st1" d="M241.7,73.7l-1.3,0.1c-0.1-0.2-0.2-0.4-0.4-0.6c0,0,0,0,0,0c0-0.2-0.1-0.4-0.2-0.6c0-0.1-0.1-0.1-0.2-0.1
				c-0.1-0.1-0.2-0.2-0.3-0.2c-0.2,0.1-0.4,0.1-0.6,0.2c-3.6,1.1-7.1,2.6-10.9,2.4c-3.4-0.1-6.7-1.4-9.5-3.4
				c-0.6-0.4-1.2-0.9-1.7-1.3l1.2-1c0.2,0.1,0.3,0.3,0.5,0.4c6.9,5.3,15.3,3.5,22.6,0c0,0,0,0.1,0,0.1
				C240.7,71.2,241,72.5,241.7,73.7z"/>
			<path class="st1" d="M240.1,28.5l1.2,0.1c-0.1,1.2,0,2.3,0.4,3.4c-3.8-1.9-7.8-3.2-12-3.9c-2.6-0.4-5.5-0.8-8.1-0.1l-0.2-1.1
				c5.8-1.4,12.7,0,17.7,2c0,0,0,0.1,0,0.1c0,0.6,0.8,0.6,0.9,0.1C240,29,240.1,28.7,240.1,28.5z"/>
			<path class="st1" d="M221.2,26.9l0.2,1.1c-1.1,0.3-2.1,0.7-3,1.3c-2.6,1.7-4.2,4.5-5.3,7.3c-1.7,4.3-2.9,8.9-3.1,13.5
				c-0.4,7.2,2,14.6,7.6,19.3l-1.2,1c-5.3-4.5-8-11.3-8.1-18.3c-0.1-4,0.5-7.9,1.6-11.7c1-3.6,2.3-7.9,5.3-10.4
				C216.9,28.4,219,27.4,221.2,26.9z"/>
		</g>
	</g>
</g>
</svg>
