<?xml version="1.0" encoding="utf-8"?>
<!-- Generator: Adobe Illustrator 19.0.0, SVG Export Plug-In . SVG Version: 6.00 Build 0)  -->
<svg version="1.1" id="Layer_1" xmlns="http://www.w3.org/2000/svg" xmlns:xlink="http://www.w3.org/1999/xlink" x="0px" y="0px"
	 viewBox="-223 25 512 512" style="enable-background:new -223 25 512 512;" xml:space="preserve">
<style type="text/css">
	.st0{fill:#333333;}
</style>
<g>
	<polyline class="st0" points="-18.8,471.7 -20.2,471.7 -22.1,471.6 -54.2,518.8 -56.8,522.6 -58.2,525 -54.5,521.4 -54.3,521.1 
		-13.2,479.1 	"/>
	<path class="st0" d="M77.6,388.1c-21.3,17.2-56.1,33.3-111.3,31.6c0.3,5.5,0.5,10.3,0.4,14c-0.1,4.1-0.7,8.9-1.5,13.9
		C6,457,35,452,54.4,443.7C70.4,423.9,76.9,405.1,77.6,388.1z"/>
	<path class="st0" d="M-33.7,461.2c-2.6,10.1-5.2,19.2-6.6,24.6c-2.8,10.7,19.1,26,68.7-19.5C10.7,467.7-9.9,466.6-33.7,461.2z"/>
	<path class="st0" d="M32.3,316.2c-2.5,6.7-7.1,11.9-11.5,16.8c-2.4,2.7-5,5.5-7.1,8.5C-1.7,362.8-16.8,372-29.8,375
		c-2.8,9.2-3.7,19.7-3.9,30c61.2,2.1,92.2-20.3,106.5-36.5C63.1,343.1,42.8,324.5,32.3,316.2z"/>
	<path class="st0" d="M27.5,295.2c-10.4-29.4-60.5-29.5-78.1-28.6c-0.6,5.7-2.2,11.7-4.8,17.8c-6.5,14.9-17.9,25.7-32.3,30.9
		c-4.7,10.1-7.2,26.1,20.6,47c35.6,26.8,67.2-9.8,77.1-23.6C20,325.1,35.4,317.5,27.5,295.2z"/>
	<path class="st0" d="M32.3,316.2c-2.3,7.4-6.6,11.1-6.6,11.1c-1.5,1.9-3.2,3.7-4.7,5.4c33.8,9.5,101.2,21,140.8,3
		c2.7-1,5.2-2,7.5-3.1c41.4-20,40.2-51.6,38.8-60c26.8-14.8,44.1-45.5,43-74.1c-0.5-16.8-6.5-28.6-13.6-32
		c-12.2-5.4-34.3,14.4-53.9,28c-9.9,7.2-20.4,14.4-26.5,19.1c-15.1,11.6-34.1,32.9-67.8,58.3c-5,3.8-10.7,6.9-16.6,9.3
		c25.7-16,51.4-36.7,63.1-59.4c1.5-2.4,2.8-4.8,4-7c20-41.4-0.4-65.4-6.7-71.1c11.9-28.2,6.5-63-12.2-84.8
		C110,45.9,97.9,40.3,90.3,42.1c-12.9,3.4-17.9,32.6-24.9,55.3c-3.3,11.7-7.1,23.9-8.9,31.5c-4.7,18.5-6.4,47-17.1,87.8
		c-5.6,21.7-28.6,45.7-41.9,56.1C23.1,286.6,34.7,308.8,32.3,316.2z"/>
	<path class="st0" d="M-59.5,282.7c19.7-45.3-26.2-65.4-48.5-64.8c-22.3,0.5-32.9,20.6-37.1,34.7c-4.2,14.1-15.9,24.2-15.9,24.2
		C-142.2,323.7-79.1,328-59.5,282.7z"/>
	<path class="st0" d="M-107.6,183.7c1.4-2.3,1.5-5.3-0.1-7.7c-2.2-3.4-6.8-4.3-10.1-2.1c-3.4,2.2-4.3,6.8-2.1,10.1
		c1.8,2.7,5,3.8,8,3c10.7,16,9.3,34.3,9.3,34.5c0,0-0.1,2.5,2.5,2.3c2.5-0.2,2.9-1.9,2.9-1.9C-97.1,221-95.6,201.2-107.6,183.7z"/>
	<path class="st0" d="M-84.2,188.3c1.9-1.9,2.8-4.8,1.9-7.5c-1.3-3.8-5.4-5.9-9.3-4.6c-3.8,1.3-5.9,5.4-4.6,9.3
		c1,3.1,3.9,4.9,6.9,4.9c6.3,18.2,0.2,35.5,0.2,35.7c0,0-0.7,2.4,1.9,2.9c2.5,0.5,3.2-1.1,3.2-1.1C-83.7,227-77.2,208.2-84.2,188.3z
		"/>
</g>
</svg>
