<?xml version="1.0" encoding="iso-8859-1"?>
<!-- Generator: Adobe Illustrator 16.0.0, SVG Export Plug-In . SVG Version: 6.00 Build 0)  -->
<!DOCTYPE svg PUBLIC "-//W3C//DTD SVG 1.1//EN" "http://www.w3.org/Graphics/SVG/1.1/DTD/svg11.dtd">
<svg xmlns="http://www.w3.org/2000/svg" xmlns:xlink="http://www.w3.org/1999/xlink" version="1.1" id="Capa_1" x="0px" y="0px" width="512px" height="512px" viewBox="0 0 590.782 590.782" style="enable-background:new 0 0 590.782 590.782;" xml:space="preserve">
<g>
	<g>
		<path d="M588.797,165.346c-10.734-1.134-21.469-2.265-32.203-3.398c-4.264-0.841-8.531-1.681-12.795-2.521    c-0.322-0.625-0.645-1.253-0.967-1.877c8.16-3.072,16.394-6.173,24.749-9.319c5.345-0.44,10.734-0.461,16.186-0.057    c0.975,0.388,1.958,0.722,2.921,1.171c2.053,0.959,4.031-1.375,2.51-3.142c-0.159-0.877-0.768-1.705-1.881-1.824    c-0.029-0.004-0.058-0.004-0.086-0.008c-1.057-0.877-2.15-1.661-3.313-2.289c0.094-0.037,0.184-0.069,0.277-0.106    c-3.186-1.571-6.267-3.55-9.628-4.672c-2.02-0.673-4.056-1.31-6.079-1.971c-23.016-10.648-49.887-21.195-74.701-17.74    c-20.196,1.273-38.025,9.551-52.204,27.528c-9.6,12.179-17.956,25.353-27.801,37.316c-4.395,5.34-10.489,10.126-16.806,12.889    c-20.024,8.755-40.869,15.684-60.723,24.786c-14.818,6.797-28.127,16.875-42.926,23.721    c-28.025,12.962-54.402,28.319-79.18,46.786c-14.941,11.138-31.167,20.539-46.696,30.906c-7.519,5.018-18.976,5.765-20.061,18.106    c-0.086,0.983-2.024,2.15-3.321,2.628c-17.593,6.434-35.043,13.329-52.885,18.984c-29.127,9.232-57.373,20.334-83.795,35.794    c-2.692,1.574-4.937,3.921-7.389,5.907c0.4,0.502,0.804,1.008,1.204,1.51c14.814-5.773,29.633-11.546,44.447-17.323    c0.27,0.501,0.539,0.999,0.808,1.501C31.783,398,17.104,407.371,2.428,416.739c0.412,0.571,0.824,1.138,1.236,1.709    c11.236-5.965,22.477-11.934,33.713-17.898c0.298,0.604,0.6,1.203,0.897,1.808l-3.354,5.72c0.404,0.449,0.808,0.894,1.208,1.343    c10.62-5.847,21.24-11.693,31.861-17.54l1.134,1.848l-18.47,17.495c0.657,1.057,1.313,2.113,1.966,3.17    c6.957-3.464,13.86-7.037,20.877-10.375c18.111-8.613,35.574-19.686,54.627-24.9c16.838-4.61,35.472-3.007,53.326-3.419    c8.654-0.2,17.336,1.481,26.022,1.918c8.364,0.416,17.809,2.864,24.9-0.09c14.097-5.871,26.973-2.302,40.237,0.677    c2.016,0.453,3.778,3.591,4.978,5.847c3.746,7.047,6.087,15.116,10.926,21.249c11.114,14.08,23.382,27.246,35.398,41.036    c0,0,12.244,11.567,3.436,18.613s-4.843,6.165-3.085,7.046c0,0,13.212-6.605,22.461-2.203c12.428,5.916,36.989-6.165,44.035-1.321    c7.046,4.843,20.698-0.882,27.744,1.321s9.249,7.928,8.368,0c-0.882-7.927-22.257-9.633-22.257-9.633    c-8.531-1.848-17.838-4.386-24.508-9.575c-10.065-7.83-18.246-18.12-27.03-27.545c-8.943-9.592-20.996-18.204-12.167-34.206    c0.384-0.693-0.122-1.865,0.245-2.583c0.616-1.208,1.506-3.093,2.436-3.19c5.708-0.596,11.461-0.853,17.205-1.045    c2.094-0.069,4.428,1.037,6.268,0.433c9.384-3.088,18.47-7.177,27.968-9.779c26.333-7.218,50.895-17.572,71.054-36.68    c9.987-9.465,19.931-19.013,30.404-27.927c9.376-7.981,17.475-16.626,19.686-29.136c1.682-9.502,2.688-19.127,3.803-28.723    c2.207-19.07,11.697-35.325,20.237-51.861c7.348-14.227,18.882-23.036,35.471-24.407c3.407-0.281,6.688-2.089,10.029-3.195v-0.028    c0.032-0.012,0.061-0.004,0.094-0.016c1.175-0.445,2.35-0.89,3.524-1.334C591.547,168.516,591.11,165.59,588.797,165.346z     M358.636,448.905c1.135,1.306,2.118,4.08,1.478,5.231c-0.693,1.252-3.505,2.174-5.149,1.881c-2.938-0.531-6.564-1.298-8.38-3.325    c-13.032-14.574-25.762-29.426-38.405-44.346c-3.872-4.57-4.019-9.319-0.094-12.779c5.39,4.692,10.804,8.609,15.234,13.428    C335.348,422.071,346.996,435.486,358.636,448.905z" fill="#292829"/>
	</g>
</g>
<g>
</g>
<g>
</g>
<g>
</g>
<g>
</g>
<g>
</g>
<g>
</g>
<g>
</g>
<g>
</g>
<g>
</g>
<g>
</g>
<g>
</g>
<g>
</g>
<g>
</g>
<g>
</g>
<g>
</g>
</svg>
