<?xml version="1.0" encoding="iso-8859-1"?>
<!-- Generator: Adobe Illustrator 18.0.0, SVG Export Plug-In . SVG Version: 6.00 Build 0)  -->
<!DOCTYPE svg PUBLIC "-//W3C//DTD SVG 1.1//EN" "http://www.w3.org/Graphics/SVG/1.1/DTD/svg11.dtd">
<svg xmlns="http://www.w3.org/2000/svg" xmlns:xlink="http://www.w3.org/1999/xlink" version="1.1" id="Capa_1" x="0px" y="0px" viewBox="0 0 279.757 279.757" style="enable-background:new 0 0 279.757 279.757;" xml:space="preserve" width="512px" height="512px">
<path d="M272.755,65.006h-15.652c-3.85,0-8.473-2.783-10.265-6.187l-0.424-0.801c-1.796-3.4-6.414-6.183-10.264-6.183h-16.393  c-3.846,0-9.389,2.045-12.313,4.546l-34.759,29.707c-2.924,2.505-8.473,4.553-12.313,4.553H104.79  c-20.925-0.534-37.121,7.581-37.121,7.581c-3.559,1.462-9.552,2.005-13.315,1.201c0,0-23.603-3.576-54.354-31.905  c0,0,11.928,31.709,35.947,51.857c4.808,4.029,5.405,5.308,3.973,8.874l-18.588,46.318c-1.428,3.571-1.932,9.572-1.107,13.336  l7.262,33.184c0.816,3.764,4.645,6.835,8.489,6.835h14.931c3.844,0,6.998-3.047,6.998-6.766c0-3.734-3.051-7.434-6.775-8.243  c-3.725-0.809-7.104-4.593-7.506-8.426l-0.732-6.941c-0.407-3.835,1.578-9.109,4.387-11.734l23.173-21.583  c2.814-2.625,4.461-1.693,3.648,2.071l-3.747,17.441c-0.809,3.758,0.052,9.593,1.908,12.966l13.019,23.621  c1.855,3.372,6.521,6.049,10.362,5.954l15.303-0.385c3.844-0.094,6.094-2.724,4.983-5.842c-1.103-3.121-4.569-5.838-7.686-6.047  c-3.122-0.198-6.817-3.293-8.212-6.882l-5.179-13.319c-1.395-3.592-1.173-9.356,0.487-12.834l7.13-14.84  c1.658-3.46,6.174-6.326,10.02-6.361l36.165-0.265c3.844-0.024,5.949,2.921,4.663,6.549l-19.5,55.265  c-1.282,3.635,0.818,6.484,4.667,6.338l24.817-0.938c3.846-0.149,5.924-2.654,4.615-5.573c-1.309-2.919-4.85-6.376-7.873-7.69  c-3.025-1.309-3.568-4.865-1.21-7.912l9.003-11.628c2.36-3.045,6-2.895,8.095,0.338l18.015,27.799  c2.091,3.224,6.955,5.865,10.802,5.865h16.391c3.847,0,5.559-2.802,3.81-6.232l-1.683-3.28c-1.753-3.429-5.987-6.231-9.408-6.231  c-3.422,0-6.885-3.072-7.699-6.839l-8.403-39.038c-0.809-3.764,0.401-9.374,2.687-12.468l38.542-52.173  c2.284-3.095,7.292-5.978,11.116-6.418l7.873-0.891c3.824-0.432,9.037-3.152,11.577-6.042l5.583-6.331  c2.544-2.886,4.622-7.89,4.622-11.114C279.757,67.646,276.606,65.006,272.755,65.006z" fill="#292829"/>
<g>
</g>
<g>
</g>
<g>
</g>
<g>
</g>
<g>
</g>
<g>
</g>
<g>
</g>
<g>
</g>
<g>
</g>
<g>
</g>
<g>
</g>
<g>
</g>
<g>
</g>
<g>
</g>
<g>
</g>
</svg>
