<?xml version="1.0" encoding="iso-8859-1"?>
<!-- Generator: Adobe Illustrator 16.0.0, SVG Export Plug-In . SVG Version: 6.00 Build 0)  -->
<!DOCTYPE svg PUBLIC "-//W3C//DTD SVG 1.1//EN" "http://www.w3.org/Graphics/SVG/1.1/DTD/svg11.dtd">
<svg xmlns="http://www.w3.org/2000/svg" xmlns:xlink="http://www.w3.org/1999/xlink" version="1.1" id="Capa_1" x="0px" y="0px" width="512px" height="512px" viewBox="0 0 559.992 559.992" style="enable-background:new 0 0 559.992 559.992;" xml:space="preserve">
<g>
	<g>
		<path d="M553.516,289.424c-0.053-0.17-0.09-0.338-0.121-0.492c0.195,0.105,0.416,0.232,0.656,0.375l0.562,0.334    c0.588,0.352,0.973,0.494,1.322,0.49c0.408,0,0.869-0.285,1.029-0.662c0.334-0.775-0.322-1.469-0.715-1.885l-2.143-2.268    c-0.305-0.326-0.562-0.629-0.758-0.873c0.064,0.004,0.143,0.008,0.236,0.016c0.975,0,1.338-0.596,1.449-0.857    c0.203-0.469,0.236-1.252-0.764-2.305l-1.061-1.125c-0.131-0.14-0.225-0.262-0.295-0.368c0.389-0.2,0.699-0.502,0.877-0.881    c0.051-0.102,0.086-0.212,0.115-0.323c0.004,0.004,0.008,0.008,0.016,0.008l1.258,0.625c1.191,0.596,2.068,0.375,2.41-0.375    c0.262-0.571,0.07-1.236-0.574-1.967c-0.266-0.31-0.539-0.612-0.816-0.918l-0.555-0.624c0.086-0.265,0.09-0.555,0.008-0.836    c-0.184-0.653-0.82-1.257-1.697-1.607c-0.518-0.212-0.971-0.51-1.191-0.641c1.195-0.437,0.963-1.836,0.869-2.269    c0.068-0.192,0.539-0.592,1.289-0.624c0.188,0.032,0.379,0.077,0.572,0.114c1.084,0.257,2.006-0.086,2.365-0.845    c0.143-0.302,0.379-1.114-0.457-2.126c-0.906-1.097-1.963-2.064-2.982-3.002c-1.248-1.146-2.428-2.232-3.279-3.468    c-0.104-0.147-0.201-0.298-0.291-0.449l1.783,0.563c1.412,0.437,2.494,0.379,2.99-0.245c0.094-0.119,0.168-0.29,0.209-0.469    c0.045-0.008,0.098-0.012,0.158-0.012c0.846,0,1.273-0.486,1.393-0.935c0.139-0.522,0-1.318-1.445-2.134    c-0.457-0.261-0.914-0.506-1.357-0.75c-2.02-1.089-3.762-2.028-4.77-3.958c-0.078-0.143-0.086-0.225-0.16-0.139l-0.404-0.893    c0,0,0.004-0.004,0.008-0.004l0.666,0.906c1.057,0.229,1.906-0.114,2.203-0.861c0.127-0.31,0.311-1.138-0.689-2.105    c-0.865-0.836-1.848-1.563-2.803-2.265c-0.918-0.677-1.865-1.379-2.881-2.175c0.021-0.012,0.115-0.057,0.293-0.061l0.65-0.012    c2.732,0,5.234,0.559,7.107,1.041c1.713,0.433,2.455-0.176,2.639-0.559c0.105-0.212,0.299-0.775-0.203-1.44    c-0.053-0.073-0.127-0.224-0.191-0.371c-0.254-0.551-0.629-1.375-1.723-1.897l-0.348-0.164c-0.188-0.09-0.363-0.175-0.525-0.257    c0.42-0.27,0.498-0.682,0.51-0.836c0.086-1.081-1.229-1.436-1.934-1.624c-2.031-0.555-4.051-1.122-6.066-1.689    c-0.193-0.057-0.377-0.135-0.535-0.22c0.012-0.041,0.025-0.078,0.033-0.102c0.064-0.265,0.125-0.951-0.76-1.55    c-0.135-0.086-0.266-0.188-0.379-0.282c0.539-0.547,0.689-1.505,0.334-2.493c0.029-0.025,0.217-0.11,0.715-0.123    c1.75,0.135,3.346,0.371,4.904,0.743c1.586,0.371,2.373,0.579,2.916,0.4c0.375-0.123,0.689-0.51,0.734-0.902    c0.053-0.478-0.053-1.044-1.949-2.224c-1.641-1.024-3.285-2.061-4.912-3.101l2.916-0.086c2.041-0.069,3.166-0.106,3.166-1.24    c0-0.955-0.852-1.15-2.926-1.616c-3.609-0.8-7.225-1.604-10.863-2.378c0.559,0.028,1.129,0.114,1.594,0.196    c0.723,0.122,1.666,0.253,2.15,0.253c0.564,0,1.188-0.486,1.188-1.049c0-0.808-0.566-0.983-1.811-1.363l-1.004-0.31    c-1.363-0.437-2.424-0.958-3.146-1.554c-0.139-0.11-0.225-0.225-0.281-0.314c0.281-0.212,0.469-0.526,0.502-0.894    c0.074-0.754-0.506-1.473-1.436-1.791c-0.232-0.082-0.404-0.159-0.523-0.224c0.094-0.747-0.359-1.681-1.867-2.509l-0.119-0.069    l0.18,0.057c1.023,0.306,1.533,0.453,1.93,0.453s0.889-0.273,1.057-0.636c0.293-0.628,0.105-1.33-1.742-2.685    c-0.041-0.033-0.082-0.062-0.119-0.09l1.666,0.224c0.893,0.119,1.672,0.184,2.051,0.184c0.564,0,1.262-0.494,1.262-1.057    c0-0.906-0.742-1.13-2.893-1.661l-3.852-0.938c-2.754-0.673-5.504-1.347-8.25-2.028c-0.461-0.11-0.854-0.229-1.162-0.327    c0.35-0.583,0.363-1.363,0.057-2.085c3.023,0.494,6.029,1.008,9.029,1.53c0.367,0.065,1.604,0.265,2.174,0.265    c0.564,0,1.172-0.486,1.172-1.049c0-0.726-0.617-0.963-0.951-1.093c-0.338-0.13-0.898-0.347-1.641-0.596    c1.334,0,2.592,0,2.592-1.163c0-0.698-0.502-1.004-1.465-1.31c0.033-0.049,0.061-0.098,0.086-0.151    c0.131-0.277,0.121-0.648-0.018-0.926c-0.135-0.277-0.363-0.738-2.695-1.252c-2.42-0.53-4.848-1.073-7.271-1.616    c1.84-0.261,2.48-0.657,2.48-1.473c0-0.147-0.023-0.273-0.068-0.396c0.824-0.134,1.492-0.404,1.492-1.204    c0-0.849-0.623-1.085-2.799-1.771c-2.521-0.788-5.051-1.6-7.592-2.411c-0.111-0.037-0.217-0.069-0.318-0.102    c0.02-0.008,0.045-0.017,0.068-0.029c1.232-0.498,2.461-1,3.689-1.505c2.248-0.93,2.643-1.216,2.643-1.93    c0-0.563-0.6-1.049-1.162-1.049c-0.434,0-1.322,0.126-2.211,0.318l-0.572,0.118c-2.443,0.531-5.287,1.143-7.695,0.861    c-0.615-0.077-1.24-0.367-1.574-0.6c0.213-0.09,0.543-0.175,0.947-0.175h2.203c1.51,0,2.105-0.702,2.162-1.359    c0.012-0.126,0.02-0.604-0.379-0.987c0.582-0.167,1.162-0.338,1.736-0.506c2.469-0.726,2.723-1.175,2.844-1.391    c0.176-0.314,0.176-0.739,0-1.049c-0.316-0.563-0.885-0.714-2.879-0.767c-3.379-0.085-6.488-0.583-10.078-1.604    c-0.262-0.077-0.383-0.273-0.307-0.196c0.164-0.085,0.336-0.167,0.502-0.236c0.572-0.237,1.105-0.404,1.469-0.514    c0.588-0.184,1.248-0.388,1.248-1.175c0-0.833-0.635-1.069-2.309-1.575c0.678-0.225,1.396-0.392,2.146-0.502    c0.84-0.118,1.791-0.253,1.766-1.236c-0.023-0.983-0.979-1.069-1.822-1.146l-5.096-0.469c-1.131-0.102-2.943-0.465-4.031-0.8    c-0.812-0.253-1.625-0.506-2.441-0.755c0.516-0.232,0.633-0.494,0.699-0.649c0.125-0.281,0.113-0.653-0.025-0.934    c-0.109-0.216-0.285-0.551-1.506-0.918c0.4-0.012,0.801-0.021,1.201-0.033l0.848-0.021c1.619-0.045,2.375-0.351,2.604-1.057    c0.008-0.028,0.016-0.057,0.02-0.085c0.895-0.164,1.461-0.465,1.701-0.914c0.152-0.286,0.156-0.677,0.014-0.967    c-0.139-0.286-0.373-0.767-2.715-1.212c-4.674-0.881-9.338-1.746-13.994-2.607c0.426-0.228,0.629-0.514,0.629-0.971    c0-0.82-0.73-1.089-1.457-1.216c0.004-0.004,0.014-0.008,0.018-0.008c0.574-0.257,1.113-0.408,1.451-0.498    c0.43-0.119,1.15-0.318,1.15-1.126c0-0.576-0.289-0.865-0.799-1.016c1.297-0.306,2.885-0.542,4.545-0.657l0.76-0.049    c1.623-0.106,2.365-0.155,2.365-1.163c0-1.044-0.9-1.134-3.084-1.363c-2.412-0.245-4.826-0.473-7.238-0.702l0.195-0.045    c0.426-0.086,1.711-0.363,1.686-1.444c-0.023-1.081-1.322-1.289-1.746-1.363l-4.447-0.734c0.682-0.024,1.359-0.033,2.016-0.041    c2.184-0.029,3.182-0.045,3.182-1.175c0-0.84-0.855-1.134-1.594-1.396c-0.506-0.188-1.445-0.542-2.779-0.542    c-0.004,0-0.012,0-0.016,0c-3.191,0.11-6.691,0.216-10.648,0.225c0.439-0.212,0.9-0.408,1.369-0.576l0.816-0.29    c1.293-0.453,1.734-0.604,1.988-1.085c0.162-0.306,0.154-0.723-0.018-1.024c-0.18-0.314-0.424-0.747-2.859-0.877l-0.352-0.017    c0.326-0.216,0.531-0.518,0.475-1c-0.111-0.934-0.996-0.979-1.854-1.032l-0.852-0.049c-1.412-0.078-2.82-0.155-4.232-0.249    c0.793-0.408,1.389-0.763,1.191-1.571c-0.203-0.861-1.023-0.861-1.889-0.861h-6.965c0.963-0.567,2.184-1.048,3.361-1.518    c1.037-0.408,2.105-0.833,3.045-1.322c0.607-0.318,1.146-0.669,1.541-0.93c0.156-0.102,0.279-0.188,0.367-0.241    c0.404-0.126,0.715-0.501,0.73-0.938c0.014-0.404,0.045-1.244-2.807-1.448c-1.783-0.135-3.916,0.041-5.957,0.208    c-0.693,0.061-1.383,0.114-2.057,0.164c1.021-0.653,1.609-1.212,1.738-1.669c0.086-0.31,0.018-0.71-0.174-0.963    c-0.373-0.49-0.988-0.49-1.221-0.49c-0.4,0-1.023,0.074-1.75,0.188c-2.604,0.412-5.961,0.293-9.506,0.065    c-1.119-0.073-2.254-0.143-3.408-0.192c-0.461-0.016-0.791-0.069-1.004-0.114c-0.023-0.078-0.057-0.147-0.098-0.208    c-0.18-0.281-0.543-0.64-1.59-0.763c0.33-0.106,0.656-0.212,0.986-0.318c0.412-0.135,1.668-0.542,1.525-1.616    c-0.121-0.906-1.084-1.089-1.639-1.13c0.211-0.062,0.424-0.119,0.641-0.184c1.002-0.282,1.926-0.518,2.096-0.551    c0.555,0,1.025-0.441,1.037-0.996c0.016-0.686-0.131-0.91-1.037-1.024v-0.02c-0.027,0-0.061,0.004-0.102,0.008    c-0.42-0.049-0.988-0.078-1.75-0.114l-1.674-0.082c-0.098-0.004-0.191-0.008-0.281-0.012c0.465-0.645,0.344-1.183,0.221-1.457    c-0.176-0.392-0.873-1.053-2.48-0.693l-2.447,0.542c0.443-0.318,0.758-0.722,0.607-1.314c-0.281-1.105-1.531-0.849-1.982-0.914    c0.023-0.229-0.014-0.453-0.115-0.661c-0.143-0.286-0.436-0.62-1.068-0.747l0.439-0.31c0.928-0.641,1.584-1.024,1.756-1.102    c0.51-0.139,1.049-0.649,1.049-1.126c0-0.563-0.617-1.053-1.184-1.053c-0.348,0-1.18,0.094-2.15,0.249    c-3.938,0.624-8.992,1.167-13.461,0.583c-0.27-0.037-0.383-0.155-0.281-0.204l0.232-0.163c0.742-0.506,1.42-0.971,1.742-1.134    c0.438-0.184,0.816-0.641,0.768-1.098c-0.07-0.616-0.625-1.106-1.457-0.82c-0.297,0.065-0.889,0.18-1.611,0.306    c-3.994,0.706-7.988,1.432-11.986,2.163c0.51-0.302,0.971-0.616,1.326-0.861c0.18-0.127,0.33-0.233,0.428-0.29    c0.363-0.118,0.66-0.428,0.727-0.812c0.154-0.914-0.742-1.22-1.277-1.408c-0.105-0.037-0.213-0.086-0.303-0.131    c0.156-0.253,0.404-0.6,0.768-0.996l0.469-0.51c0.91-0.983,0.771-1.75,0.613-2.118c-0.139-0.318-0.617-1.142-2.217-0.836    c-1.541,0.282-3.047,0.625-4.557,0.971c-3.182,0.726-6.467,1.473-10.363,1.604l0.738-0.596c0.34-0.269,1.248-0.992,0.93-1.905    c-0.084-0.249-0.529-1.11-2.223-0.653c-0.412,0.11-0.82,0.229-1.232,0.339c0.783-0.588,0.902-0.833,0.951-0.938    c0.146-0.318,0.123-0.718-0.066-1.012c-0.188-0.29-0.631-0.498-0.979-0.498c-0.543,0-1.57,0.298-2.143,0.478l-2.99,0.946    c-1.045,0.334-2.852,0.616-3.941,0.616h-1.084c-0.258,0-0.506-0.004-0.734-0.008l3.695-1.897c1.086-0.563,1.799-0.877,1.727-0.894    c0.27,0,0.539-0.11,0.73-0.302c0.191-0.192,0.309-0.453,0.309-0.727c0-1.252-1.965-1.351-2.566-1.351    c-0.125,0-0.256,0.004-0.387,0.017c-2.008,0.13-5.031,0.938-9.004,2.415c1.08-1.689,1.08-1.787,1.08-2.093    c0-0.563-0.477-1.032-1.039-1.032c-0.205,0-0.482,0-2.379,0.975l-3.73,1.934c0.27-0.763,0.246-1.444-0.076-1.95    c-0.381-0.596-1.105-0.849-1.93-0.625c-0.135,0.041-0.25,0.057-0.377,0.061c-0.184-0.461-0.635-0.832-1.334-0.832    c-0.402,0-0.832,0.122-1.219,0.286l1.51-1.342c1.166-1.041,1.836-1.706,1.986-1.975c0.18-0.314,0.18-0.734-0.004-1.048    c-0.322-0.555-0.934-0.555-1.139-0.555c-0.555,0-1.436,0.146-1.941,0.24c-0.34,0.065-0.645,0.098-1.041,0.102    c-0.207-0.232-0.637-0.408-0.934-0.408c-0.617,0-1.49,0.396-2.109,0.726l-0.959,0.506c-3.064,1.62-6.141,3.252-9.213,4.896    c-0.037,0.021-0.074,0.041-0.105,0.062c-0.037-0.114-0.086-0.208-0.131-0.277c-0.225-0.351-0.604-0.571-1.064-0.604l0.615-0.689    c0.248-0.278,1-1.126,0.607-1.991c-0.33-0.739-1.174-0.967-2.365-0.408c-1.816,0.841-4.264,2.175-6.301,3.656    c-0.203-0.571-0.873-0.845-1.582-0.698c0.256-0.396,0.551-0.738,0.852-1.085c1.062-1.224,1.604-2.073,1.604-2.518    c0-0.563-0.473-1.028-1.035-1.028c-0.303,0-0.486,0.044-2.244,0.979l0.109-0.261c0.34-0.816,0.344-1.477,0.018-1.971    c-0.486-0.73-1.494-0.804-2.535,0c-0.596,0.461-1.146,0.93-1.693,1.392c-1.158,0.987-2.252,1.921-3.74,2.692l0.158-0.359    c0.135-0.302,0.535-1.224,0.053-1.958c-0.424-0.653-1.26-0.808-2.41-0.334c-0.33,0.135-0.67,0.253-1.199,0.302    c0.742-1.306,0.734-1.832,0.484-2.261c-0.18-0.314-0.547-0.526-0.91-0.526l0,0c0.059-0.253,0.096-0.481,0.096-0.657    c0-0.563-0.512-1.077-1.074-1.077c-0.807,0-1.721,1.057-2.322,1.853c-0.256,0.343-0.506,0.673-0.787,1.003    c0.004-0.302-0.049-0.632-0.26-0.922c-0.193-0.257-0.654-0.49-0.977-0.49c-0.514,0-1.016,0.294-1.578,0.93    c-0.547,0.612-1.094,1.269-1.641,1.926c-1.484,1.783-3.02,3.623-4.867,4.974c-0.016-0.024-0.061-0.147-0.041-0.379l0.176-1.942    c0.232-2.477,0.068-2.656-0.195-2.95c-0.191-0.212-0.479-0.338-0.768-0.338c-0.615,0-0.873,0.432-1.176,0.934    c-0.199,0.334-0.496,0.833-0.885,1.347c-0.963,1.273-2.367,2.525-3.9,3.419l0.754-1.742c0.502-1.163,0.568-1.812,0.238-2.313    c-0.359-0.542-1.201-0.661-1.832-0.147l-0.977,0.804l0.021-0.078c0.232-0.824,0.18-1.44-0.156-1.885    c-0.191-0.253-0.684-0.498-1.008-0.498c-0.514,0-1.02,0.286-1.529,0.881c-0.668,0.775-1.273,1.595-1.877,2.415    c-0.723,0.979-1.406,1.914-2.207,2.767c0.131-0.555,0.338-1.836-0.252-2.595c-0.254-0.318-0.621-0.501-1.018-0.501    c-0.158,0-0.465,0.077-0.607,0.146c-0.064,0.033-0.131,0.069-0.191,0.102c-0.025-0.045-0.049-0.085-0.082-0.118    c-0.184-0.208-0.533-0.367-0.836-0.367c-0.363,0-0.848,0.106-2.02,1.358l-1.023,1.102c-0.18,0.196-0.355,0.367-0.52,0.518    l0.336-1.007c0.27-0.812,0.24-1.457-0.094-1.918c-0.193-0.261-0.686-0.518-1.018-0.518c-0.525,0-1.039,0.31-1.529,0.93    c-0.244,0.31-0.473,0.628-0.701,0.947c-0.453,0.62-0.881,1.216-1.473,1.75c0.484-2.256,0.33-2.448,0.076-2.767    c-0.195-0.241-0.492-0.383-0.803-0.383c-0.674,0-0.857,0.363-1.477,1.566l-0.49,0.938c-0.311,0.58-0.738,1.326-1.229,2.093    l0.217-1.257c0.143-0.808,0.045-1.408-0.307-1.819c-0.195-0.233-0.701-0.465-1.004-0.465c-0.521,0-1.031,0.282-1.558,0.873    c-0.963,1.077-1.795,2.118-2.606,3.134c-1.734,2.162-3.375,4.21-5.982,6.185c0.392-2.962,1.387-5.128,2.444-7.421    c0.408-0.886,0.812-1.767,1.179-2.689c0.274-0.693,0.51-1.661,0.053-2.33c-0.192-0.281-0.669-0.542-1.008-0.542    c-0.347,0-0.677,0.139-0.975,0.416c-0.151,0.135-0.277,0.232-0.371,0.298c-0.771-0.592-1.848-0.249-2.86,1.232l-0.681,1    c-0.367,0.538-0.788,1.081-1.155,1.518c-0.212-0.861-0.877-1.261-1.509-1.261c-0.233,0-0.526,0.049-0.857,0.229    c0.167-0.718,0.424-1.877,0.424-2.269c0-0.563-0.539-1.089-1.102-1.089c-0.221,0-0.734,0-2.26,1.2l-3.179,2.484    c-0.469,0.367-0.975,0.784-1.428,1.171l0.596-2.676c0.502-2.248,0.502-2.378,0.502-2.493c0-0.563-0.469-1.028-1.032-1.028    c-0.469,0-1.265,0.506-2.362,1.498c-1.546,1.391-2.84,2.941-4.092,4.439c-1.906,2.281-3.876,4.635-6.773,6.471    c-0.722,0.461-1.542,0.759-1.967,0.865c0.106-0.302,0.253-0.678,0.437-1.106l0.261-0.604c0.221-0.51,0.58-1.138,0.935-1.771    c0.416-0.734,0.828-1.469,1.077-2.068c0.51-1.216,0.856-2.652,1.224-4.174c0.212-0.874,0.424-1.767,0.682-2.64l0.229-0.771    c0.383-1.293,0.518-1.779,0.518-2.13c0-1.163-0.632-1.575-1.179-1.575c-0.653,0-0.894,0.441-1.293,1.179    c-0.184,0.338-0.424,0.779-0.71,1.249c-0.73,1.191-1.665,2.321-2.566,3.419c-0.372,0.445-0.739,0.894-1.094,1.338    c-0.355,0.444-0.689,0.861-0.996,1.228c0.278-0.914,0.559-1.82,0.845-2.734c0.204-0.648,0.339-1.322-0.037-1.836    c-0.192-0.257-0.575-0.453-0.897-0.453c-0.633,0-1.094,0.506-1.498,1.052c-2.909,3.925-5.814,7.871-8.711,11.8l-0.379,0.514    c0.514-2.215,1.228-4.312,1.926-6.353c0.502-1.469,1-2.934,1.424-4.427c0.237-0.816,0.192-1.424-0.126-1.844    c-0.192-0.253-0.624-0.474-0.946-0.474c-0.563,0-1.065,0.367-1.539,1.114c-0.559,0.877-0.995,1.763-1.416,2.615    c-0.726,1.485-1.375,2.807-2.591,3.823l0.625-1.204c0.526-1.012,0.375-1.657,0.155-2.02c-0.449-0.747-1.465-0.861-2.513-0.09    c-2.105,1.53-3.811,3.627-5.614,5.847c-1.693,2.081-3.435,4.219-5.557,5.899c0.657-1.399,1.424-2.713,2.166-3.994    c0.478-0.82,0.951-1.636,1.396-2.464c0.18-0.338,1.085-2.048,1.085-2.579c0-0.563-0.592-1.167-1.155-1.167    c-0.351,0-0.498,0-2.468,1.571l-0.914,0.727c-0.779,0.624-1.803,1.518-2.468,2.146c-0.004-0.045-0.008-0.094-0.012-0.155    c-0.024-0.881,0.212-1.681,0.792-2.672c0.755-1.289,0.918-2.023,0.579-2.611c-0.134-0.241-0.343-0.412-0.624-0.502    c-0.017-0.204-0.008-0.51,0.061-0.902l0.098-0.551c0.432-2.468,0.273-2.656,0.012-2.974c-0.192-0.232-0.49-0.367-0.788-0.367    c-0.82,0-0.987,0.596-1.289,1.689l-0.331,1.146c-1.016,3.366-2.779,5.912-4.929,7.095c-0.024-0.155-0.028-0.322-0.028-0.506V92.01    c0-2.064,0-3.199-1.163-3.199c-1.016,0-1.146,0.885-1.469,3.023c-0.6,3.978-1.432,7.948-3.411,10.041    c-0.11,0.119-0.229,0.233-0.339,0.334c0.126-0.657,0.375-1.403,0.755-2.264c0.767-1.746,0.718-2.411,0.416-2.876    c-0.041-0.069-0.09-0.122-0.143-0.18c0.216-0.575,0.037-0.979-0.094-1.175c-0.188-0.282-0.645-0.514-0.983-0.514    c-0.188,0-0.767,0-1.844,0.938c-1.713,1.501-3.17,3.305-4.574,5.047c-0.42,0.518-0.836,1.032-1.256,1.538    c-0.318,0.392-0.547,0.347-0.677,0.004c-0.645-1.742-1.139-4.362-1.387-7.377c-0.065-0.775-0.151-1.84-1.184-1.84    c-1.02,0-1.118,1.053-1.191,1.819l-0.477,5.153c-0.078,0.849-0.906,1.995-1.685,2.693c-0.833,0.75-1.726,1.779-2.562,2.938    c0.628-2.648,1.253-5.304,1.877-7.952l0.257-1.102c0.461-1.954,0.057-2.464-0.094-2.66c-0.065-0.085-0.159-0.163-0.257-0.232    c0-0.2,0.024-0.49,0.085-0.861l0.424-2.574c0.417-2.485,0.286-2.636,0.008-2.971c-0.192-0.229-0.485-0.363-0.783-0.363    c-0.816,0-0.975,0.542-1.359,1.852l-0.29,0.971c-1.208,3.941-3.398,7.148-5.516,10.253c-0.677,0.987-1.359,1.991-2.016,3.023    l0.873-3.285c0.628-2.342,0.526-2.607,0.241-2.974c-0.191-0.253-0.502-0.408-0.82-0.408c-0.608,0-0.877,0.224-2.105,2.423    c-1.155,2.064-2.317,4.125-3.484,6.181l-1.681,2.974c0.126-1.371,0.587-2.823,1.065-4.349c0.42-1.334,0.853-2.713,1.109-4.162    c0.123-0.702,0.355-2.399-0.143-2.986c-0.192-0.233-0.49-0.372-0.792-0.372c-0.845,0-1.077,0.625-1.759,2.795l-0.143,0.449    c-0.126-0.367-0.396-0.677-0.959-0.677c-0.783,0-1.052,0.514-1.86,2.713c-1.016,2.758-2.048,5.516-3.081,8.253    c-0.028-0.567-0.151-0.918-0.399-1.175c-0.461-0.485-1.326-0.331-1.689,0.073c-0.151-1.57-0.469-2.415-1.387-2.415    c-0.583,0-1.04,0.188-2.011,2.681l-0.641,1.64l-0.302-0.955c-0.71-2.26-0.955-2.787-1.763-2.787c-0.914,0-1.004,0.453-1.505,2.971    c-0.331,1.652-0.71,2.921-1.175,3.868v0.004c-0.163-1.852-0.302-4.631-0.412-8.27c-0.065-2.175-0.094-3.166-1.216-3.166    c-0.857,0-1.081,0.628-1.722,2.819l-2.375,8.033c-0.11-0.971-0.759-1.081-1.041-1.081c-0.775,0-0.967,0.575-1.281,1.522    c-0.114,0.347-0.253,0.775-0.42,1.236c-0.273,0.751-0.571,1.424-0.865,2.098c-0.245,0.559-0.489,1.114-0.726,1.713    c-0.437,1.114-0.951,1.742-1.028,1.803c-1.199,0.053-2.333,1.143-2.823,2.717c-0.457,1.473-0.983,2.828-1.505,4.166l-0.583,1.522    l-1.444-5.904c-0.318-1.277-1.126-1.738-1.775-1.738c-0.351,0-1.22,0.139-1.709,1.428c-0.935,2.473-1.657,6.271-2.183,9.045    l-0.098,0.526c-0.085,0.465-0.212,0.894-0.331,1.228c-0.502-0.338-1.261-0.318-1.876,0.114c0.061-0.29,0.134-0.604,0.216-0.951    c0.555-2.387,0.241-2.787,0.069-2.995c-0.191-0.249-0.501-0.396-0.812-0.396c-0.743,0-1.049,0.633-1.191,1.167    c-0.012-0.061-0.024-0.118-0.033-0.188l-0.139-0.828c-0.086-0.522-0.29-1.742-1.347-1.742c-1.081,0-1.252,1.244-1.326,1.774    l-0.408,2.942c-0.151-0.657-0.469-1.322-1.256-1.322c-0.147,0-0.4,0.028-0.645,0.212c-0.363-2.293-0.853-2.509-1.134-2.636    c-0.383-0.171-0.914-0.073-1.204,0.225c-0.281,0.286-0.498,0.669-0.477,2.742c0.021,1.812-0.057,3.097-0.249,4.166    c-0.078,0.42-0.18,0.816-0.277,1.155c-0.114-0.09-0.232-0.2-0.355-0.326c-0.478-0.494-0.959-1.114-1.399-1.795    c-0.535-0.832-1.322-1.326-2.109-1.326c-0.689,0-1.526,0.412-1.808,1.563c-0.404,1.644-0.424,3.864-0.445,6.014    c-0.008,0.894-0.016,1.767-0.053,2.558l-2.048-5.353c-0.494-1.298-1.265-1.489-1.681-1.489c-0.302,0-1.318,0.126-1.575,1.767    c-0.188,1.195-0.204,2.281-0.212,3.235c-0.021,1.754-0.037,3.142-1.077,4.651c-0.053,0.077-0.102,0.146-0.155,0.22v-5.027    c0-1.677-0.159-2.75-0.473-3.182c-0.192-0.265-0.559-0.461-0.885-0.461c-0.955,0-1.302,0.967-1.579,2.635    c-0.424,2.562-0.857,5.141-1.297,7.72l-0.033-0.233c-0.216-1.579-1.008-1.812-1.46-1.812c-0.506,0-1.175,0.282-1.494,1.628    c-0.702,2.975-1.126,7.438-1.469,11.028l-0.22,2.285c-0.061,0.608-0.192,1.13-0.293,1.469c-0.151-0.147-0.327-0.351-0.49-0.621    c-0.942-1.558-1.824-3.603-2.411-5.602c-0.474-1.616-0.69-2.346-1.583-2.346c-0.236,0-0.477,0.102-0.665,0.261    c-0.061-0.021-0.134-0.053-0.22-0.09c-0.71-0.359-1.452-0.163-1.819,0.408c-0.363,0.563-0.311,1.363,0.212,2.505    c0.706,1.538,1.371,2.991,1.33,4.705c-0.012,0.526-0.575,1.102-0.804,1.102c-0.824-0.559-1.693-1.91-2.211-3.432l-0.204-0.62    c-0.302-0.922-0.518-1.587-1.334-1.587c-0.314,0-0.628,0.192-0.836,0.457c0-0.012-0.004-0.021-0.024-0.024    c-0.298,0-0.706-0.078-1.126-0.212l-0.424-0.13c-1.024-0.327-1.881-0.11-2.362,0.522c-0.273,0.367-0.535,1.028-0.225,2.114    c0.694,2.403,0.906,5.451,1.105,8.4c0.053,0.784,0.106,1.575,0.171,2.346c0.021,0.286-0.061,0.485-0.146,0.583l-0.343,0.024    c-2.521-1.041-3.66-3.595-4.868-6.299c-0.286-0.637-0.571-1.277-0.877-1.897l-0.547-1.093c-0.18-0.351-0.334-0.645-0.416-0.833    c-0.159-0.424-0.58-0.861-1.008-0.861c-0.563,0-1.024,0.478-1.024,1.041c0,0.098,0.049,0.302,0.094,0.449    c0.065,0.31,0.171,0.885,0.298,1.587l0.942,5.488c-0.094-0.123-0.184-0.253-0.265-0.384c-0.302-0.481-0.547-0.963-0.739-1.334    c-0.343-0.665-0.498-0.967-0.856-1.143c-0.424-0.228-1.024-0.085-1.318,0.286c-0.225,0.29-0.457,0.592,0.122,2.832l0.91,3.525    c0.245,0.946,0.208,1.795,0.171,1.93c-0.033,0.045-0.069,0.086-0.102,0.118c-0.253-0.212-0.583-0.538-0.857-0.946    c-0.478-0.722-0.836-1.55-1.216-2.428c-0.151-0.351-0.302-0.702-0.465-1.057c-0.232-0.498-0.473-0.967-0.669-1.351    c-0.155-0.298-0.277-0.534-0.322-0.636c-0.118-0.449-0.522-0.816-0.992-0.816c-0.563,0-1.02,0.477-1.02,1.04    c0,0.049,0.004,0.106,0.012,0.167c0.016,0.253,0.057,0.922,0.102,1.779c0.094,1.767,0.188,3.533,0.298,5.304    c-0.216-0.273-0.489-0.571-0.979-0.571c-0.306,0-0.608,0.143-0.8,0.383c-0.293,0.363-0.396,0.6,0.098,2.975l0.253,1.211    c0.102,0.494,0.2,0.959,0.273,1.322c-0.167-0.012-0.331-0.062-0.478-0.131c-0.269-0.134-0.567-0.343-0.93-0.648    c-0.555-0.465-1.02-0.686-1.473-0.686c-0.331,0-0.836,0.253-1.024,0.526c-0.424,0.596-0.229,1.371-0.041,1.897l1.175,3.411    c-0.522-0.845-0.958-1.575-1.036-1.709c-0.18-0.318-0.555-0.543-0.922-0.543c-0.926,0-1.167,0.918-1.35,1.881    c-0.649-0.392-1.383-0.404-1.856-0.044c-0.086-0.045-0.192-0.102-0.314-0.188c-0.404-0.29-0.75-0.424-1.102-0.424    c-0.338,0-0.804,0.241-0.996,0.518c-0.204,0.298-0.241,0.632-0.204,0.947c-1-0.392-1.122-0.392-1.281-0.392    c-0.331,0-0.645,0.163-0.836,0.428c-0.192,0.261-0.453,0.628,0.338,2.999c0.164,0.49,0.335,0.971,0.502,1.453    c0.457,1.302,0.897,2.558,1.22,3.982c-0.143-0.175-0.261-0.298-0.372-0.379c-0.171-0.122-0.534-0.249-0.747-0.249    c-0.253,0-0.506,0.082-0.718,0.241c-0.085-0.114-0.171-0.237-0.265-0.363l-1.179-1.632c-0.596-0.833-0.983-1.477-1.097-1.697    c-0.094-0.461-0.506-0.812-1-0.812c-0.563,0-1.02,0.457-1.02,1.02v3.488c-0.167-0.232-0.433-0.473-0.877-0.473    c-0.294,0-0.583,0.13-0.775,0.355c-0.257,0.293-0.428,0.489-0.106,2.954c0.159,1.188,0.31,2.375,0.457,3.562    c-0.155-0.245-0.298-0.498-0.428-0.771c-0.355-0.751-0.665-1.399-1.428-1.399c-1.142,0-1.142,1.244-1.142,1.913    c0,0.339-0.078,0.449-0.233,0.372c-0.722-0.302-1.616-0.987-1.864-1.779c0,0-0.139-0.429-0.139-0.433    c-0.171-0.539-0.49-1.542-1.412-1.542c-0.277,0-0.591,0.134-0.783,0.334c-0.359,0.367-0.42,0.906-0.4,1.644    c0.069,2.407,0.139,4.811,0.22,7.193c-0.979,0.114-1.738,1.244-1.795,2.717c-0.053,1.383,0.11,2.926,0.338,4.472l-0.229-0.293    c-0.685-0.885-1.061-1.469-1.163-1.657c-0.118-0.432-0.518-0.767-0.987-0.767c-0.404,0-1.236,0-1.346,2.852    c-0.131,3.313,0.975,7.308,1.95,10.836l0.159,0.576c-0.69-0.996-1.281-2.175-1.865-3.321c-0.286-0.571-0.567-1.13-0.861-1.673    l-0.592-1.044c-0.212-0.375-0.388-0.677-0.465-0.845c-0.11-0.457-0.514-0.816-0.996-0.816c-0.486,0-0.743,0.208-0.897,0.551    c-0.563-0.922-0.902-1.628-0.935-1.526c0-0.857-1.236-1.334-1.795-0.689c-0.477,0.551-0.383,2.13-0.306,2.693    c0.13,0.942,0.404,2.056,0.836,3.407c0.241,0.755,0.392,1.346,0.469,1.713c-0.012,0.017-0.021,0.029-0.033,0.041    c-0.347,0.485-0.322,1.22-0.22,1.795c-0.045-0.045-0.094-0.085-0.143-0.122c-0.412-0.335-0.955-0.632-1.514-0.935    c-0.661-0.355-1.342-0.722-1.628-1.122c-1.098-1.518-2.338-3.301-3.231-5.186l-0.31-0.669c-0.632-1.363-0.824-1.775-1.31-1.983    c-0.44-0.188-1.02-0.024-1.289,0.371c-0.314,0.461-0.29,0.91,0.461,2.803l0.934,2.35c1.004,2.525,2.003,5.047,3.011,7.56    c-0.11-0.086-0.216-0.171-0.327-0.261c-1.946-1.604-2.174-1.604-2.484-1.604c-0.339,0-0.665,0.176-0.853,0.457    c-0.29,0.428-0.338,0.694,0.596,2.97c1.22,2.966,2.444,5.924,3.664,8.874c-2.452-1.665-4.847-4.28-5.945-6.528    c-0.175-0.359-0.334-0.714-0.469-1.028c-0.424-0.955-0.652-1.485-1.216-1.677c-0.387-0.139-1.02,0.028-1.289,0.334    c-0.065,0.078-0.123,0.155-0.167,0.241c-0.922-0.82-1.326-0.645-1.738-0.359c-0.062-0.049-0.126-0.102-0.196-0.171    c-0.412-0.372-0.833-0.559-1.249-0.559c-0.331,0-0.861,0.27-1.053,0.539c-0.347,0.481-0.379,1.171-0.09,2.044    c0.914,2.75,2.407,5.521,3.705,7.65c-0.041-0.041-0.082-0.082-0.122-0.118c-0.62-0.587-1.012-0.804-1.444-0.804    c-0.367,0-0.767,0.229-0.951,0.551c-0.347,0.612-0.017,1.273,0.355,1.893l1.008,1.677c3.615,6.034,7.242,12.093,10.881,18.123    c-1.816-1.041-2.66-2.342-3.554-3.713c-0.804-1.24-1.636-2.517-3.142-3.582c-0.49-0.359-0.983-0.4-1.314-0.4l-0.734,0.033    c-0.237,0-0.51-0.033-0.833-0.232l-5.63-3.893c-0.612-0.424-1-0.587-1.371-0.587c-0.396,0-0.833,0.265-1,0.624    c-0.347,0.743,0.257,1.457,0.616,1.889l1.477,1.754l-3.166-2.252c-0.579-0.412-0.996-0.592-1.383-0.592    c-0.396,0-0.856,0.282-1.024,0.637c-0.363,0.767,0.27,1.538,0.58,1.914c2.26,2.746,5.333,5.655,8.307,8.462    c3.909,3.692,7.948,7.515,10.151,10.967c0.11,0.175,0.216,0.351,0.318,0.522c-1.783-0.531-3.19-1.453-4.684-2.436    c-0.612-0.404-1.224-0.8-1.861-1.175c-0.489-0.286-0.91-0.424-1.285-0.424c-0.396,0-0.983,0.343-1.15,0.702    c-0.265,0.571-0.082,1.236,0.551,1.983c2.428,2.901,5.284,5.602,8.046,8.213c1.909,1.808,3.88,3.667,5.696,5.585    c-0.29,0.127-0.514,0.355-0.628,0.656c-0.363,0.955,0.591,1.809,0.901,2.094l0.853,0.742c0.53,0.457,1.061,0.914,1.571,1.424    c0.286,0.285,0.457,0.576,0.542,0.768c-0.102,0.123-0.184,0.252-0.225,0.375c-0.281,0.873,0.404,1.955,1.028,2.705    c1.387,1.67,3.378,4.17,4.847,6.834l-0.783-0.51c-1.387-0.902-2.428-0.979-2.983-0.334c-0.077,0.086-0.139,0.215-0.188,0.359    c-0.102-0.01-0.237-0.029-0.412-0.074c-0.404-0.102-0.718-0.15-0.967-0.15c-0.453,0-1.049,0.363-1.175,0.795    c-0.163,0.559,0.094,1.061,0.763,1.484l0.767,0.512c-0.286,0.049-0.682,0.068-1.085,0.008c-0.449-0.078-0.873-0.184-1.322-0.291    l-0.282-0.072c-1.828-0.445-2.158,0.611-2.191,0.807c-0.196,1.041,1.012,1.506,1.408,1.662c0.322,0.121,0.636,0.248,0.934,0.402    c0.184,0.1,0.335,0.266,0.441,0.438c-0.637,0.109-1.155,0.355-1.155,1.098c0,0.244,0,0.645,1.685,2.484l0.306,0.334    c1.044,1.131,1.971,2.135,2.66,3.633c-0.947-0.723-1.934-1.461-3.142-2.09c-1.183-0.604-2.154-0.334-2.428,0.477    c-0.151,0.445-0.114,1.143,0.91,1.926c0.596,0.453,1.22,0.846,1.844,1.24c0.767,0.482,1.501,0.943,2.15,1.506    c-0.996-0.408-1.771-0.18-2.093,0.482c-0.416,0.832,0.245,1.701,0.461,1.986c0.563,0.746,1.143,1.461,1.726,2.18    c1.098,1.35,2.13,2.627,3.048,4.08c0.457,0.734,0.755,1.553,0.861,1.982c-0.265,0.086-0.539,0.26-0.677,0.449    c-0.147,0.203-0.587,0.811,0.065,2.758c1.803,5.4,4.08,14.287,4.561,21.537c0.065,0.971-0.232,1.746-0.318,1.857    c-0.975,0.672-1.073,2.182-0.665,3.328c0.02,0.059,0.037,0.107,0.049,0.156c-0.306,0.135-0.592,0.375-0.686,0.641    c-0.2,0.551,0.017,1.102,0.645,1.631c0.126,0.107,0.249,0.52,0.159,0.641c-0.747,1.078-0.804,2.211-0.163,2.934    c-0.518,0.326-0.812,0.787-0.808,1.289c0,0.363,0.159,0.693,0.498,0.996c-0.249,0.146-0.388,0.348-0.461,0.477    c-0.359,0.658-0.049,1.381,0.224,2.02c0.086,0.197-0.057,0.471-0.106,0.52c-1.036,0.51-1.424,0.914-1.424,1.484    c0,0.254,0.192,0.621,0.363,0.809c0.192,0.215,0.547,0.607,0.563,1.178c0.057,2.244-1.702,6.639-2.824,8.883    c-1.665,3.342-3.831,6.447-5.928,9.445c-2.721,3.896-5.537,7.924-7.389,12.627c-0.506,1.281-0.775,3.363-0.747,4.637l0.159,7.057    c0.028,1.266,0.522,3.539,1.758,4.611c0.596,0.518,1.265,0.951,1.922,1.379c0.685,0.441,1.33,0.861,1.93,1.443    c0.942,0.936,2.232,2.205,3.647,2.521c3.611,0.809,6.883,1.205,10.004,1.205c10.331,0,17.091-4.402,24.92-9.504    c1.024-0.668,2.068-1.346,3.142-2.031c0.894-0.57,2.546-1.203,3.615-1.387l7.414-1.289c1.269-0.217,3.187-0.742,4.374-1.195    l6.267-2.42c0.396-0.15,0.816-0.236,1.187-0.236c0.282,0,0.433,0.053,0.396,0.004c0.253,0.303,0.604,0.652,1.126,0.652    c0.334-0.004,0.694-0.191,0.885-0.465c0.375-0.547,0.123-1.207,0.033-1.395c0.017-0.107,0.27-0.52,0.897-0.812    c0.706-0.334,1.946-0.396,2.391-0.168c0.494,0.254,0.914,0.375,1.281,0.375c0.351,0,0.91-0.273,1.093-0.574    c0.114-0.184,0.257-0.535,0.126-1.004c0.147-0.146,0.457-0.387,0.951-0.592l2.26-0.922c0.82-0.348,2.073-0.236,2.33-0.057    c0.253,0.166,0.592,0.367,0.992,0.367c0.286,0,0.673-0.168,0.865-0.379c0.429-0.471,0.375-1.059,0.282-2.094    c-0.012-0.156-0.033-0.348,1.408-0.84c1.118-0.381,6.287-1.816,7.413-2.109c0.951-0.246,2.052-0.336,3.219-0.434    c0.669-0.061,1.346-0.113,2.016-0.203c1.493-0.201,3.427-1.199,4.365-1.82l1.514-1.004c0.869-0.574,2.468-1.121,3.496-1.199    l3.68-0.266c1.188-0.086,3.17-0.338,4.443-0.615c0.987-0.213,2.003-0.438,3.031-0.67c1.069-0.24,2.154-0.484,3.252-0.723    c1.322-0.285,2.925-1.166,3.439-2.297c0.135-0.297,0.971-0.93,1.926-1.057l0.967-0.121c0.955-0.119,1.938-0.25,2.868-0.422    c0.412-0.08,0.833-0.143,1.196-0.162c-0.053,0.09-0.119,0.172-0.2,0.225c-0.596,0.404-1.105,0.754-1.175,1.412    c-0.012,0.158,0.024,0.354,0.094,0.541c-0.216,0.291-0.322,0.707-0.212,1.029c0.143,0.412,0.649,0.723,1.085,0.723    c0.139,0,0.498,0,1.75-0.359l1.485-0.426c1.922-0.545,3.754-1.068,5.716-1.766c-0.4,0.387-0.829,0.754-1.273,1.127    c-0.445,0.383-0.89,0.762-1.31,1.162c-0.718,0.689-0.955,1.346-0.709,1.953c0.306,0.768,1.208,1.018,2.415,0.502l0.689-0.301    c1.971-0.861,3.933-1.723,5.9-2.566c0.004,0,0.012-0.004,0.016-0.008c-0.396,0.986-0.918,1.881-1.379,2.668    c-1.204,2.064-1.204,2.387-1.204,2.559c0,0.27,0.13,0.537,0.322,0.73c0.192,0.191,0.473,0.305,0.743,0.305    c0.628,0,2.203-0.619,2.383-0.693c1.962-0.787,3.729-1.668,5.508-2.578c-0.22,0.529-0.457,1.293-0.049,1.91    c0.188,0.281,0.693,0.545,1.036,0.545c0.437,0,0.897-0.207,1.444-0.645l0.816-0.645l-0.073,1.559    c-0.114,2.465,0.069,2.652,0.326,2.922c0.192,0.205,0.469,0.322,0.751,0.322c0.686,0,0.934-0.529,1.179-1.045    c0.163-0.35,0.408-0.877,0.742-1.416c0.192-0.305,0.408-0.596,0.649-0.859c0.327-0.355,0.759-0.596,1.106-0.752    c-0.029,0.059-0.062,0.111-0.094,0.168l-2.097,3.635c-0.351,0.604-0.661,1.303-0.306,1.918c0.179,0.318,0.596,0.555,0.958,0.555    c0.478,0,0.918-0.273,1.473-0.922c0.686-0.795,1.342-1.727,1.893-2.689c0.404-0.705,0.689-1.121,0.857-1.354    c0.004,0.029,0.004,0.064,0.004,0.094c-0.057,0.84-0.094,1.398,0.314,1.836c0.237,0.252,0.673,0.408,1.004,0.342    c0.033,0.127,0.061,0.291,0.061,0.498c-0.004,1.764-0.795,2.982-1.713,4.402l-0.286,0.441c-0.351,0.551-0.706,1.27-0.355,1.904    c0.18,0.328,0.604,0.576,0.979,0.576c0.481,0,0.938-0.277,1.489-0.918c0.347-0.404,0.677-0.812,1.008-1.221    c0.465-0.578,0.918-1.133,1.399-1.656l-0.298,0.783c-0.322,0.846-0.445,1.428-0.106,1.922c0.188,0.273,0.551,0.465,0.885,0.465    c0.616,0,1.012-0.477,1.363-0.963c0.596-0.828,1.763-2.133,2.603-2.916l1.122-1.045c0.171-0.158,0.31-0.203,0.338-0.213    c0.017,0.014,0.069,0.09,0.102,0.266c0.4,2.24,0.469,5.162,0.539,7.859c0.037,1.59,0.706,1.926,1.261,1.926    c1.085,0,1.281-1.303,1.347-1.73c0.151-0.98,0.191-1.922,0.229-2.807c0.073-1.678,0.126-3,0.93-3.926    c0.396-0.457,1.065-0.768,1.554-0.918c-0.069,0.209-0.151,0.438-0.249,0.697l-0.192,0.51c-0.31,0.828-0.416,1.363-0.09,1.828    c0.192,0.273,0.53,0.453,0.865,0.453c0.681,0,1.052-0.57,1.436-1.26c0.281-0.506,0.555-0.996,0.901-1.445    c0.135-0.172,0.286-0.262,0.412-0.307c0.241,0.73,0.836,0.996,1.326,0.996c0.587,0,1.195-0.355,1.86-1.08l-0.755-0.689l0.853,0.42    c-0.196,0.543-0.392,1.102-0.583,1.664c-0.273,0.795-0.225,1.518,0.147,2.035c0.542,0.764,1.648,0.846,2.624,0.104    c0.763-0.58,1.485-1.285,2.109-2.074l-0.127,4.09c-0.024,0.84,0.094,1.316,0.425,1.652c0.191,0.199,0.542,0.35,0.82,0.35    c0.861,0,1.302-0.906,1.514-1.342c2.208-4.574,4.207-5.643,9.2-7.258l-1.457,1.877c-0.249,0.273-0.501,0.559-0.75,0.852    c-0.388,0.453-0.481,0.902-0.286,1.326c0.167,0.363,0.563,0.607,0.963,0.607c0.294,0,0.649-0.068,1.758-0.896    c1.894-1.42,3.268-2.346,6.34-2.713c-0.139,0.357-0.387,0.893-0.771,1.504c-0.567,0.91-1.15,1.846-1.628,2.955    c-0.44,1.023-0.184,1.668,0.008,1.967c0.522,0.795,1.701,0.84,2.681-0.021c1.085-0.959,1.995-2.061,2.872-3.125    c0.302-0.367,0.596-0.727,0.897-1.072c-0.146,0.342-0.191,0.701,0,1.068c0.176,0.334,0.563,0.562,0.938,0.562    c0.474,0,0.849-0.277,1.428-0.824l0.942-0.896c-0.057,0.289-0.037,0.588,0.123,0.865c0.347,0.596,1.154,0.762,1.962,0.129    c-0.053,0.246-0.037,0.494,0.09,0.752c0.175,0.338,0.571,0.578,0.951,0.578c0.412,0,0.767-0.195,1.42-0.773l1.289-1.135    c0.225-0.195,0.44-0.379,0.645-0.543c-0.012,0.045-0.028,0.086-0.045,0.131c-0.546,1.578-1.313,2.908-2.125,4.32    c-0.437,0.76-0.869,1.506-1.265,2.293c-0.4,0.787-0.449,1.445-0.143,1.941c0.184,0.303,0.706,0.588,1.061,0.588    c0.489,0,0.979-0.252,1.497-0.775c0.914-0.914,1.718-1.918,2.497-2.885c0.424-0.525,0.845-1.053,1.285-1.566l0.804-0.918    c0.171,0.375,0.277,0.652,0.294,0.652c0,0.734,0.518,1.307,1.179,1.307c0.314,0,0.62-0.15,0.816-0.4    c0.265-0.346,0.371-0.584-0.078-2.436c0.216,0.326,0.412,0.67,0.596,1c0.637,1.146,0.947,1.727,0.947,1.686    c0,0.27,0.11,0.547,0.302,0.738c0.375,0.375,1.024,0.379,1.338,0.135c0.506,4.186,0.273,7.633-0.751,11.635    c-0.518,2.029-0.62,2.611-0.62,2.93c0,0.307,0.232,0.797,0.473,0.988c0.18,0.146,0.641,0.297,0.874,0.297    c0.163,0,0.326-0.023,0.481-0.076c-0.424,1.133-1.04,1.9-1.689,2.709c-0.338,0.424-0.677,0.84-0.991,1.305    c-0.42,0.617-1.208,0.898-1.958,0.76c-0.159-0.029-0.318-0.049-0.722-0.074c-1.652,0-3.423,1.379-4.043,2.668    c-0.232,0.486-0.4,0.936-0.51,1.379c-0.404,1.625,0.702,3.766,1.542,4.807c3.06,3.77,9.115,7.756,16.32,7.418    c1.424-0.078,3.497-0.666,4.68-1.064c0.894-0.299,2.48-0.4,3.211-0.229c0.408,0.098,0.902,0.15,1.428,0.15    c0.543,0,1.93-0.064,3.04-0.656l0.245-0.127c0.42-0.229,0.853-0.457,1.473-0.791c0,0,0.021,0.084-0.053,0.256    c-2.016,4.736-7.454,6.133-13.211,7.609l-1.118,0.285c-0.885,0.232-2.534,0.812-3.076,1.531c-0.237,0.305-0.306,0.877-0.135,1.223    c0.359,0.727,1.269,0.727,1.567,0.727c0.334,0,0.759-0.037,1.249-0.117h0.012c-0.951,0.686-1.995,1.105-3.084,1.541    c-2.358,0.943-5.031,2.012-7.23,5.957c-0.596,1.078-1.114,2.742-0.897,3.709c0.253,1.158,1.869,1.484,3.345,0.686l-0.938,2.537    c-1,2.668-0.535,3.135-0.261,3.398c0.771,0.793,2.48-0.305,3.321-1.312l0.477-0.58c0.286-0.352,0.571-0.701,0.877-1.035    c0.208-0.229,0.51-0.262,0.677-0.262c0.363,0,0.722,0.158,0.934,0.412l0.404,0.498c1.155,1.432,2.15,2.668,4.998,2.729    l0.417,0.004c0.318,0,0.608-0.008,0.865-0.016l0.069,0.547c0.094,0.816,0.481,2.75,1.962,2.99    c0.057,0.012,0.282,0.029,0.339,0.029c1.22,0,2.26-1.029,2.664-1.996c0.106,0,0.408,0.029,0.926,0.295    c1.02,0.525,2.036,0.779,3.105,0.779c1.832,0,3.427-0.764,4.97-1.494c1.387-0.66,2.7-1.281,4.296-1.281c0.008,0,0.016,0,0.023,0    c0.445,0.012,1.004,0.258,1.645,0.551c1.334,0.596,3.312,1.311,5.463,0.836c4.979-1.039,11.086-4.98,12.738-11.174    c0.057-0.209,0.113-0.381,0.168-0.51c1.064,0.412,2.41-0.438,2.803-1.898c0.408-1.537,0.453-3.316,0.492-5.039    c0.018-0.734,0.037-1.465,0.082-2.166c0.037-0.57,0.408-1.057,0.352-1.143c1.357,0.779,3.043-0.064,3.158-1.184    c0.734,0.404,1.529,0.277,1.998-0.293c0.408-0.498,0.523-1.273,0.318-2.273c-0.072-0.361-0.057-0.615-0.023-0.762    c0.037,0.004,0.064,0.004,0.076,0.004c0.816,0,1.213-0.408,1.375-0.648c0.143-0.213,0.332-0.629,0.184-1.232    c0.396,0.061,0.85,0.123,1.33,0.158c0.371,0.029,0.748,0.045,1.131,0.045l0.383-0.004c0.846-0.02,1.539-0.367,1.963-0.975    c0.461-0.666,0.539-1.578,0.213-2.514c-0.123-0.346-0.195-0.678-0.232-1.049c-0.004-0.057-0.008-0.105-0.008-0.15    c0.48,0.24,1.271,0.098,1.549-0.424c0.352-0.658-0.053-1.363-0.582-2.15c-0.197-0.289-0.385-0.596-0.551-0.914    c-0.115-0.217-0.055-0.379-0.004-0.457c0.039-0.068,0.088-0.102,0.42-0.188l0.264,0.041c0.592,0.09,1.119,0.225,1.502,0.314    c0.42,0.098,0.629,0.15,0.842,0.15c0.271,0,0.578-0.119,0.77-0.314c0.27-0.281,0.486-0.502,0.152-3.117l-0.225-1.725    c0,0.004,0.004,0.012,0.008,0.016c0.09,0.18,0.18,0.363,0.262,0.562c0.244,0.58,0.402,1.123,0.51,1.49    c0.15,0.518,0.359,1.227,1.162,1.227c0.299,0,0.6-0.143,0.791-0.367c0.438-0.51,0.535-1.916,0.371-2.979    c-0.098-0.648-0.264-1.248-0.451-1.818c0.143,0.139,0.268,0.248,0.375,0.301c0.146,0.078,0.33,0.119,0.498,0.119    c0.998,0,1.289-0.988,1.504-2.934c0.27-2.469,0.58-4.533,0.943-6.312c0.094,0.902,0.359,1.408,1.123,1.408    c1.088,0,1.174-1.037,1.35-3.109l0.18-1.986c0-0.037,0.004-0.074,0.008-0.105c0.854,0.297,1.836-0.91,2.443-1.947    c1.074-1.818,1.85-4.051,2.506-6.291c0.172,0.244,0.428,0.412,0.832,0.412c1.012,0,1.135-1.082,1.221-1.799l0.09-0.791    c0.125-1.066,0.668-2.764,1.188-3.705l2.125-3.904c0.664-1.408,1.578-4.998,2.244-7.617c0.221-0.869,0.4-1.588,0.51-1.98    c0.637-0.555,1.158-2.361,0.584-10.457c-0.021-0.277,0.064-0.391,0.086-0.402l0.252,0.084c2.211,1.33,4.145,2.004,5.744,2.004    c1.514,0,2.494-0.596,3.027-1.195c2.27,0.012,11.693,0.119,23.641,0.254c23.289,0.264,55.182,0.631,63.934,0.631    c1.701,0,2.365,0,2.701-0.109c1.268-0.164,8.42-0.338,10.023-0.363c0.254,0.15,0.82,0.543,1.566,1.135    c0.564,0.443,1.396,0.416,2.09,0.256c0.387-0.08,0.723-0.158,0.947-0.045c3.316,1.629,7.232,4.318,9.971,6.852    c0.566,0.521-0.012,1.289-0.209,1.518c-0.293,0.346-0.562,0.705-0.828,1.061l-0.289,0.387c-0.502,0.662-1.963,1.188-2.971,1.254    l-0.525,0.027c-1.262,0.078-3.285,0.482-4.553,1.082c-6.979,3.297-10.963,8.596-11.838,15.77c-0.195,1.574,0.412,3.455,1.727,3.75    c0.078,0.016,0.318,0.039,0.393,0.039c1.121,0,2.395-1.023,3.152-2.035c0.727-0.971,1.449-1.945,2.195-2.949    c0.059,0.102,0.119,0.211,0.18,0.318c0.482,0.814,1.09,1.488,1.805,2.002c0.766,0.561,1.244,1.404,1.24,2.199    c-0.006,1.008,0.252,1.783,0.762,2.297c1.105,1.111,3.17,0.609,5.512-0.354c0,0,0.963-0.004,1.854,0.105    c0.412,0.053,0.84,0.102,1.256,0.135c0.719,0.061,1.082,0.135,1.262,0.188c0.264,1.041,1.6,1.873,3.279,1.893    c3.232,0,7.021-1.271,11.254-3.793c0.465-0.273,0.828-0.393,1.043-0.426c0.752,0.873,2.387,0.947,2.914,0.947    c0.143,0,0.289-0.004,0.596-0.025c0.963-0.061,1.832-0.117,2.762-0.252c1.191-0.172,2.734-0.715,3.24-1.375    c0.701-0.902,0.338-3.102,0.252-3.529c-0.484-2.6-1.031-5.541-0.664-8.279c0.031-0.252,0.08-0.484,0.135-0.697    c0.086,0.123,0.166,0.262,0.244,0.412c0.441,0.861,0.768,1.82,1.113,2.836l0.592,1.693c0.184,0.518,0.334,0.926,0.359,0.93    c0,0.723,0.518,1.285,1.18,1.285c0.309,0,0.611-0.146,0.807-0.387c0.471-0.588,0.225-2.135,0.033-3.004    c-0.285-1.309-0.682-2.402-1.068-3.459c-0.225-0.607-0.441-1.203-0.625-1.812l0.648,0.977c0.58,0.869,0.939,1.506,1.049,1.732    c0.131,0.996,1.441,1.438,1.979,0.695c0.303-0.412,0.363-0.65-0.363-2.988l-0.129-0.42c-0.033-0.113-0.051-0.211-0.062-0.277    c1.428,0.816,2.416,0.877,2.869,0.107c0.053,0.004,0.098,0.008,0.135,0.008c1.117,0,1.945-1.348,2.238-2.6l0.07-0.307    c0.119-0.51,0.289-1.271,0.453-1.379l0.387-0.244c0.805-0.49,1.715-1.049,1.562-2.705c-0.076-0.812,0.184-1.457,0.576-2.439    l0.143-0.355c0.135-0.334,0.254-0.656,0.359-0.938c0.064,0.045,0.131,0.09,0.195,0.143c0.34,0.252,0.666,0.379,0.992,0.379    c0.289,0,0.717-0.191,0.91-0.412c0.424-0.469,0.436-1.143,0.322-2.139c-0.086-0.75-0.033-1.463,0.18-2.328    c0.102-0.426,0.312-0.596,0.371-0.596c1.191,0.799,2.893,0.436,2.893-1.576c0-0.248,0.008-0.473,0.023-0.676    c1.127,0.93,1.326,0.967,1.652,0.967s0.637-0.16,0.828-0.422c0.322-0.436,0.326-0.721-0.375-2.973l-0.121-0.4    c-0.09-0.285-0.041-0.535,0.264-0.701c0.242,0.064,0.461,0.154,0.699,0.285c0.904,0.502,1.398,0.686,1.83,0.686    c0.322,0,0.779-0.213,0.973-0.465c0.113-0.152,0.225-0.381,0.236-0.682c0.305,0.191,0.562,0.391,0.742,0.529    c0.303,0.232,0.539,0.416,0.918,0.416c0.307,0,0.604-0.143,0.799-0.379c0.287-0.35,0.389-0.592-0.057-2.803    c0.277,0.449,0.559,0.615,0.975,0.615c1.146,0,1.156-1.195,1.156-2.713c0.098,0.086,0.195,0.172,0.289,0.266    c0.449,0.449,0.82,0.934,1.314,1.574c0.57,0.734,1.154,1.107,1.729,1.107c0.303,0,0.768-0.217,0.963-0.445    c0.213-0.254,0.322-0.576,0.322-0.971c0.078,0.031,0.164,0.072,0.262,0.121c0.494,0.25,0.885,0.363,1.24,0.363    c0.393,0,0.975-0.33,1.146-0.686c0.396-0.828-0.277-1.66-0.529-1.975c-0.633-0.787-1.094-1.42-1.479-2.23l4.791,2.48    c0.521,0.27,0.926,0.398,1.271,0.398c0.422,0,0.955-0.334,1.107-0.725c0.334-0.861-0.461-1.584-0.801-1.891l-0.359-0.326    c-0.086-0.08-0.174-0.158-0.26-0.24c0.533,0.27,1.072,0.539,1.611,0.805c0.506,0.252,0.9,0.371,1.244,0.371    c0.4,0,0.947-0.318,1.113-0.682c0.375-0.816-0.311-1.611-0.6-1.955c-0.682-0.791-1.359-1.586-2.031-2.391    c-0.143-0.168-0.273-0.33-0.393-0.486l1.844,0.621c1.445,0.477,2.135-0.078,2.303-0.648c0.277-0.975-0.748-1.615-1.086-1.828    c-0.787-0.494-1.664-0.943-2.562-1.408c-1.926-0.986-3.916-2.006-5.088-3.68c0,0,0.004,0,0.004,0.004l5.275,1.625    c0.828,0.252,1.906,0.555,2.33,0.555c0.562,0,1.068-0.475,1.068-1.037c0-0.518-0.102-0.754-2.223-2.236l-1.791-1.244l2.057,0.562    c0.758,0.209,1.652,0.037,2.432-0.143c0.42-0.098,0.828-0.162,1.361-0.18c0.486,0.086,1.049,0.27,1.607,0.467    c0.295,0.098,1.797,0.615,2.359,0.615s1.068-0.473,1.068-1.037c0-0.68-0.363-0.93-2.406-2.031c-0.625-0.33-1.078-0.693-1.289-0.91    c0.117-0.734-0.299-1.693-1.787-2.607l-1.445-0.881c-0.131-0.082-0.252-0.158-0.367-0.236c0.441,0.029,0.84,0.045,1.139,0.045    c0.387,0,1.559,0,1.559-1.082c0-0.773-0.596-0.979-1.42-1.26c-0.115-0.041-0.244-0.086-0.379-0.131    c0.08-0.123,0.131-0.27,0.154-0.432c0.15-1.064-1.061-1.416-1.709-1.604l-1.012-0.295c-0.645-0.188-1.285-0.371-1.93-0.559    c0.709-0.072,1.578-0.289,2.039-0.914c0.27-0.367,0.348-0.82,0.217-1.252c-0.15-0.477-0.6-1.18-2.754-2.334    c-0.146-0.082-0.291-0.158-0.441-0.258l2.574,0.104c0.977,0.035,2.473,0.559,3.016,1.203l0.229,0.285    c0.258,0.348,0.518,0.73,0.768,1.102c0.488,0.723,0.91,1.348,1.316,1.686c0.654,0.547,1.52,0.457,1.895-0.082    c0.383-0.551,0.203-1.264-0.025-1.896c-0.113-0.311-0.207-0.613-0.285-0.887c0.521,0.111,1.24-0.203,1.453-0.656    c0.383-0.812-0.229-1.697-0.719-2.293l-1.529-1.828c-0.27-0.318-0.535-0.641-0.775-0.934c0.533-0.109,1.035-0.393,1.035-1.09    c0-0.82-0.717-1.008-1.244-1.146c-0.367-0.098-0.922-0.244-1.521-0.473c-0.24-0.09-0.469-0.199-0.674-0.307    c-0.113-0.064-0.219-0.131-0.312-0.203c0.174-0.018,0.367-0.025,0.574-0.025c0,0,0,0,0.004,0c1.967,0.029,3.039,0.697,4.521,1.621    l0.893,0.551c1.064,0.631,2.555,1.146,3.322,1.146c0.473,0,0.893-0.238,1.162-0.645c0.432-0.666,0.4-1.756-0.082-2.836    c-1.121-2.51-2.832-4.559-4.488-6.541c-0.975-1.166-1.893-2.268-2.664-3.424c-0.086-0.129-0.172-0.26-0.252-0.391    c0.645,0.387,1.158,0.877,1.746,1.453c1.17,1.154,1.701,1.162,1.934,1.162h0.004c0.334,0,0.723-0.195,0.914-0.465    c0.061-0.086,0.105-0.205,0.139-0.33c0.188,0.008,0.457,0.008,0.727,0.053l1.146,0.176c1.832,0.293,2.146-0.752,2.215-1.033    c0.086-0.334,0.139-1.195-1.158-1.881c-0.645-0.334-1.352-0.625-2.053-0.914c-1.053-0.424-2.049-0.828-2.729-1.33    c0.301,0.061,0.582,0.15,0.877,0.281l0.285,0.131c0.934,0.424,1.408,0.629,1.844,0.629c0.355,0,0.73-0.232,0.955-0.543    c0.143-0.037,0.277-0.191,1.154,0.199c0.311,0.18,0.617,0.385,0.906,0.58c0.768,0.506,1.443,0.934,2.33,0.93    c0.35-0.049,1.533-0.27,1.9-1.008c0.396-0.807-0.135-1.322-1.721-2.863c-0.914-0.895-1.678-1.82-2.209-2.686    c-0.129-0.211-0.191-0.395-0.215-0.525c0.305-0.111,0.559-0.33,0.709-0.633c0.434-0.854-0.127-1.914-0.668-2.648    c-1.045-1.428-2.086-2.836-3.127-4.238c-0.533-0.727-0.953-1.709-1.068-2.301c0.168,0.102,0.344,0.211,0.527,0.322    c1.998,1.248,3.994,2.477,5.996,3.709c1.115,0.689,2.041,0.555,2.482-0.156c0.469-0.758,0.012-1.676-0.139-1.979l-2.527-5.059    c1.107,0.559,2.213,1.113,3.322,1.676c0.498,0.254,0.893,0.371,1.248,0.371c0.389,0,0.959-0.322,1.135-0.664    c0.404-0.805-0.236-1.656-0.479-1.979C557.006,296.164,554.484,292.566,553.516,289.424z" fill="#292829"/>
	</g>
</g>
<g>
</g>
<g>
</g>
<g>
</g>
<g>
</g>
<g>
</g>
<g>
</g>
<g>
</g>
<g>
</g>
<g>
</g>
<g>
</g>
<g>
</g>
<g>
</g>
<g>
</g>
<g>
</g>
<g>
</g>
</svg>
