<?xml version="1.0" encoding="iso-8859-1"?>
<!-- Generator: Adobe Illustrator 16.0.0, SVG Export Plug-In . SVG Version: 6.00 Build 0)  -->
<!DOCTYPE svg PUBLIC "-//W3C//DTD SVG 1.1//EN" "http://www.w3.org/Graphics/SVG/1.1/DTD/svg11.dtd">
<svg xmlns="http://www.w3.org/2000/svg" xmlns:xlink="http://www.w3.org/1999/xlink" version="1.1" id="Capa_1" x="0px" y="0px" width="512px" height="512px" viewBox="0 0 559.963 559.962" style="enable-background:new 0 0 559.963 559.962;" xml:space="preserve">
<g>
	<g>
		<path d="M557.908,262.146c-3.379-4.586-6.279-9.621-10.18-13.705c-4.174-4.374-7.215-9.298-8.984-14.835    c-4.795-14.986-13.166-27.169-26.549-35.635c-2.896-1.832-6.121-3.15-9.213-4.664c-2.443-1.195-4.945-2.268-7.373-3.497    c-3.533-1.791-7.4-3.207-10.412-5.655c-2.443-1.987-4.111-5.12-5.65-8.001c-3.881-7.246-7.441-14.659-11.236-21.95    c-1.945-3.737-4.297-4.406-7.279-1.42c-4.039,4.047-8,8.348-11.068,13.138c-2.637,4.113-3.912,9.054-2.775,14.215    c0.613,2.766-0.117,4.418-3.35,5.206c-7.07,1.718-14.264,3.366-19.049,9.784c-2.412,3.235-5.65,5.892-7.826,9.258    c-3.984,6.177-8,12.313-13.504,17.217c-6.504,5.793-17.029,8.707-25.615,1.636c-7.311-6.022-15.846-10.204-25.152-12.142    c-10.029-2.089-20.199-3.488-30.307-5.214c-2.436-0.416-4.852-0.93-7.049-1.358c0.256,0.383,0.734,1.085,1.488,2.207    c-1.473,0.359-2.555,0.833-3.648,0.857c-6.82,0.135-13.695-0.29-20.457,0.4c-4.32,0.44-9.807,0.191-11.219,6.405    c-0.107,0.465-0.906,0.931-1.473,1.102c-8.161,2.497-15.215,6.896-21.543,12.526c-5.712,5.088-11.387,10.216-17.389,15.61    c3.713,1.191,3.154,2.767,1.277,4.798c-1.856,2.007-3.484,4.231-5.166,6.397c-1.514,1.946-2.974,3.937-4.626,6.132    c-4.133-4.345,1.057-5.953,1.485-8.764c-3.529-2.958-3.562-3.786-0.555-7.85c2.068-2.799,4.039-5.675,5.989-8.563    c1.453-2.15,2.179-4.243,0.029-6.598c-0.604-0.665-0.408-2.366-0.106-3.468c0.323-1.179,1.212-2.203,1.832-3.301    c1.436-2.538,1.718-4.741-1.538-6.173c-2.118-0.931-2.672-2.391-1.534-4.639c1.33-2.624,2.546-5.353,3.358-8.168    c0.404-1.399-0.151-3.097-0.363-4.647c-0.191-1.403-0.824-2.815-0.714-4.174c0.302-3.688,0.894-7.352,1.396-11.212    c-1.138,0-2.093,0.004-3.048,0c-5.1-0.016-5.251-0.02-5.031-5.275c0.151-3.594,0.898-7.16,1.159-10.755    c0.057-0.816-0.799-2.432-1.252-2.436c-2.995-0.033-2.587-2.105-2.885-3.999c-0.179-1.138-0.718-2.758-1.558-3.146    c-2.085-0.955-2.942-2.158-3.391-4.48c-0.404-2.093-0.11-5.602-3.999-5.243c-2.938,0.269-3.395-1.13-3.688-3.75    c-0.551-4.913-1.742-9.755-2.774-15.202c-2.358,2.55-3.309,1.252-4.125-0.037c-1.763-2.783-3.382-5.655-5.178-8.417    c-1.003-1.542-2.142-2.032-3.982-0.665c-0.869,0.645-3.309,0.693-3.823,0.049c-3.288-4.133-6.899-7.883-11.093-11.089    c-0.412-0.314-0.665-0.833-1.032-1.216c-1.089-1.134-2.028-2.546-3.337-3.313c-5.161-3.036-10.445-5.863-15.504-8.67    c-0.571,0.849-1.049,1.824-1.795,2.505c-0.208,0.188-1.42-0.326-1.815-0.812c-3.852-4.716-9.311-6.887-14.158-9.486    c-0.257,1.354-0.229,2.676-0.812,3.619c-0.29,0.469-1.799,0.522-2.607,0.269c-5.394-1.668-10.747-3.472-16.492-5.357    c0,1.566,0.208,2.579-0.069,3.427c-0.2,0.616-1.13,1.518-1.595,1.44c-3.517-0.567-6.993-1.354-10.49-2.056    c-3.521-0.706-7.046-1.391-10.877-2.146c0.645,4.904-0.481,5.487-4.639,5.177c-5.516-0.408-11.081-0.102-16.858-0.102    c1.003,4.525-2.211,4.378-4.982,4.549c0.779,3.868,0.147,4.627-3.525,4.3c-1.75-0.155-3.484-0.494-5.467-0.783    c1.975,4.019,1.562,5.137-2.411,6.124c-4.598,1.143-9.294,1.914-13.88,3.101c-1.142,0.298-2.966,1.681-2.884,2.379    c0.432,3.705-1.979,4.137-4.558,4.708c-1.13,0.249-2.199,0.771-3.28,1.208c-1.51,0.612-2.044,1.493-1.371,3.219    c1.269,3.251,0.661,4.537-2.558,5.989c-2.762,1.249-5.671,2.22-8.323,3.664c-1.142,0.624-1.812,2.125-2.672,3.244    c-0.677,0.881-1.159,2.011-2.015,2.64c-3.534,2.607-7.173,5.063-10.979,7.723c0.881,0.808,1.604,1.583,2.44,2.211    c3.06,2.293,3.199,3.048,0.367,5.643c-2.509,2.301-5.255,4.35-7.826,6.593c-1.322,1.155-2.125,2.318-0.098,3.848    c0.465,0.351,0.167,2.562-0.474,3.358c-1.191,1.469-1.338,2.489-0.42,4.207c0.604,1.13,0.702,3.023,0.163,4.169    c-1.016,2.15-2.644,4.015-4.035,5.985c-2.097,2.97-4.21,5.933-6.32,8.898c0.196,0.204,0.388,0.404,0.583,0.608    c2.546-0.465,5.092-0.926,7.638-1.392c0.294,0.237,0.583,0.473,0.877,0.71c-2.546,5.218-5.092,10.437-7.964,16.32    c1.497-0.42,2.17-0.767,2.84-0.754c0.759,0.016,1.812,0.122,2.183,0.608c0.392,0.514,0.424,1.668,0.118,2.297    c-2.591,5.259-2.701,10.767-1.962,16.532c0.625-1.138,1.044-2.224,1.742-3.084c0.6-0.739,1.522-1.216,2.297-1.808    c0.351,1,0.992,1.995,1.004,2.999C9.449,228.641,9.4,235.034,9.4,241.24c4.264,1.171,6.769,3.142,8.743,6.679    c1.494,2.677,2.783,5.479,4.402,8.079c0.661,1.061,1.991,2.489,2.946,2.436c3.317-0.188,4.321,2.387,4.688,4.362    c0.779,4.202,2.864,3.692,5.838,2.701c4.341-1.448,5.802-0.747,7.989,3.138c0.51,0.91,1.069,1.791,1.657,2.766    c0.783-0.983,1.412-1.979,2.235-2.778c3.489-3.387,5.451-3.133,8.062,0.877c1.457,2.244,2.995,4.439,4.782,7.079    c1.734-3.538,3.101-6.496,4.626-9.364c0.543-1.016,1.465-1.828,2.215-2.733c0.943,1.044,2.216,1.942,2.754,3.162    c1.13,2.579,1.873,5.325,3.003,8.678c0.775-2.183,1.383-3.737,1.881-5.32c0.844-2.676,2.081-3.027,4.239-1.134    c1.661,1.461,3.309,2.934,5.202,4.615c3.223-3.521,6.23-6.822,9.253-10.102c1.591-1.726,3.027-1.665,4.463,0.29    c0.926,1.261,2.077,2.35,3.546,3.982c0.273-1.889,0.184-3.248,0.685-4.329c0.922-1.983,1.967-5.153,3.362-5.386    c2.391-0.396,1.395,2.603,1.799,4.19c0.041,0.159,0.229,0.277,0.343,0.412c3.313-1.595,4.154-1.269,4.651,2.175    c0.408,2.832,0.657,5.7,0.714,8.56c0.098,4.782-1.061,5.541-5.508,4.031c-0.29,1.542-0.783,3.093-0.833,4.659    c-0.077,2.444,0.216,4.896,0.216,7.345c0,1.175-0.175,2.391-0.502,3.521c-0.714,2.48-2.109,4.888-2.231,7.377    c-0.126,2.582-0.641,4.137-3.032,4.251c0.176,3.533,0.053,6.847,0.559,10.065c1.167,7.434,6.202,12.272,11.702,16.806    c0.914,0.755,1.469,2.484,1.375,3.705c-0.049,0.636-1.84,1.518-2.905,1.615c-2.558,0.236-5.157,0.077-8.343,0.077    c2.888,2.999,5.622,5.839,8.87,9.205c-1.485-0.363-2.187-0.535-2.889-0.702c-0.045,0.151-0.094,0.302-0.139,0.453    c0.824,0.339,1.652,0.677,2.477,1.016c-0.93,0.567-1.665,0.522-2.362,0.343c-0.861-0.225-1.693-0.559-3.129-1.044    c0.661,1.464,0.996,2.317,1.416,3.125c2.648,5.1,6.805,8.531,11.987,10.845c1.53,0.686,2.815,2.04,1.036,3.26    c-2.236,1.53-1.052,2.803-0.416,4.28c0.469,1.093,1.648,2.468,1.326,3.166c-0.429,0.922-2.02,1.301-3.378,2.068    c1.983,2.126,4.047,4.251,6.002,6.475c0.804,0.918,1.848,2.032,1.897,3.097c0.053,1.184-0.91,2.411-1.607,4.031    c3.064,2.774,7.393,6.675,11.689,10.612c0.649,0.592,1.139,1.358,1.702,2.044c-0.694,0.555-1.359,1.159-2.093,1.648    c-0.477,0.318-1.065,0.481-1.273,0.571c1.722,1.889,3.33,3.872,5.166,5.622c2.97,2.836,6.145,5.459,9.094,8.319    c0.628,0.607,0.648,1.844,1.02,3.015c1.146,0.608,2.795,1.334,4.28,2.302c5.006,3.26,9.922,6.63,16.414,5.646    c2.236-0.339,2.472,1.383,2.17,2.945c-0.412,2.143-1.13,4.228-1.808,6.671c2.028,0.449,4.002,0.751,5.879,1.358    c0.89,0.29,1.591,1.163,2.375,1.775c-0.571,0.669-1.061,1.436-1.73,1.986c-0.91,0.755-1.954,1.347-2.868,1.963    c4.011,0.723,7.833,1.379,11.645,2.109c2.452,0.469,2.737,2.102,2.562,4.337c-0.098,1.225,0.457,3.154,1.351,3.668    c1.869,1.077,4.141,1.465,6.271,2.057c1.46,0.408,2.962,0.681,4.447,1.012c-0.963,1.407-1.926,2.807-2.876,4.223    c-0.078,0.118-0.049,0.306-0.057,0.375c3.464-0.351,6.948-1.089,10.388-0.926c2.97,0.139,6.267,0.571,7.532,4.264    c0.681,1.995,2.199,1.31,3.729,1.053c1.75-0.294,3.746-0.539,5.312,0.053c0.91,0.343,1.188,2.371,1.506,3.093    c4.427-0.987,8.703-2.19,13.056-2.799c2.032-0.285,5.32-0.191,5.443,2.477c0.155,3.342,2.032,2.681,3.766,2.562    c1.342-0.094,2.632-0.796,3.974-1.073c2.362-0.485,3.835,0.249,3.497,3.162c1.31-0.522,2.436-1.04,3.607-1.424    c6.589-2.163,13.284-4.056,19.743-6.553c2.522-0.975,4.745-2.33,7.528-1.542c3.932,1.113,7.82,3.023,11.795,3.215    c7.092,0.343,14.332,0.318,21.318-0.796c6.602-1.053,13.055-3.415,19.379-5.728c5.133-1.877,9.369-1.408,13.391,2.35    c1.273,1.188,3.094,2.497,4.676,2.518c7.568,0.102,15.145-0.114,22.709-0.421c5.938-0.24,11.869-1.195,17.789-1.081    c6.994,0.131,13.967,1.232,20.963,1.538c1.641,0.069,4.223-0.971,4.791-2.219c0.66-1.453,0.004-3.909-0.828-5.549    c-2.33-4.591-6.986-6.234-11.352-8.181c-0.979-0.437-1.836-1.139-2.75-1.718c0.67-1.024,1.146-2.272,2.037-3.04    c5.303-4.581,11.049-8.71,15.992-13.644c7.852-7.829,13.697-16.939,12.734-28.69c-0.49-5.98-1.322-12.035-2.957-17.784    c-1.326-4.651-3.086-9.434-7.668-12.432c-2.055-1.347-0.453-2.432,1.078-3.121c5.654-2.559,11.498-4.79,16.891-7.813    c5.586-3.13,11.176-6.54,15.924-10.775c3.256-2.901,5.334-2.917,8.662-1.265c3.848,1.909,7.752,3.953,11.869,5.034    c10.016,2.632,19.371-0.306,28.172-4.867c17.891-9.27,32.146-22.803,44.297-38.67c-0.619-0.812-1.506-1.514-1.762-2.399    c-1.191-4.092-4.537-5.724-8.674-4.309c-2.176,0.747-4.473,1.249-6.758,1.526c-0.951,0.114-2.309-0.392-2.896-1.098    c-0.348-0.416,0.453-1.787,1.037-3.725c-4.84,2.333-9.609,3.798-13.338,6.634c-4.863,3.696-9.506,7.079-15.695,8.449    c-3.521,0.779-5.721,0.159-7.818-2.346c-0.812-0.971-1.574-1.991-2.465-2.893c-2.064-2.102-1.889-3.415,0.797-4.391    c2.668-0.967,5.414-1.709,8.082-2.676c7.961-2.877,15.557-6.324,19.775-14.329c3.084-5.847,8.1-7.72,14.395-8.254    c6.328-0.539,12.342-2.35,15.197-9.164c0.824-1.962,2.293-3.64,3.33-5.524c0.322-0.587,0.469-1.571,0.191-2.118    C559.416,263.398,558.463,262.896,557.908,262.146z" fill="#292829"/>
	</g>
</g>
<g>
</g>
<g>
</g>
<g>
</g>
<g>
</g>
<g>
</g>
<g>
</g>
<g>
</g>
<g>
</g>
<g>
</g>
<g>
</g>
<g>
</g>
<g>
</g>
<g>
</g>
<g>
</g>
<g>
</g>
</svg>
