<?xml version="1.0" encoding="utf-8"?>
<!-- Generator: Adobe Illustrator 19.0.0, SVG Export Plug-In . SVG Version: 6.00 Build 0)  -->
<svg version="1.1" id="Layer_1" xmlns="http://www.w3.org/2000/svg" xmlns:xlink="http://www.w3.org/1999/xlink" x="0px" y="0px"
	 viewBox="-223 25 512 512" style="enable-background:new -223 25 512 512;" xml:space="preserve">
<style type="text/css">
	.st0{fill:#212221;}
</style>
<g>
	<path class="st0" d="M221.1,265.3c-3.9,1-11.8,6.4-6.1,7.9c-3.2,1.5-15.3,5.6-10.3,10.7c-3.7,1.4-7.7-1.1-7.2,4.9
		c-6,1.6-15,2-20.5-1.3c1.8,2,3.9,3.9,6,5.5c-3.6-1.1-7.5-2.2-10.9-3.3c-0.5,1.2-0.4,2.7-0.4,4.1c-4.2-1.2-8.2-4.6-12.4-6
		c0.1,0.6-0.2,1.5-0.1,2.2c-3.9-0.7-8.3-4.5-11.6-6.8c1.2,1.1,2.4,2.4,3,4c-3.5-3.1-6.7-8-11.4-9.3c-0.1,1.5-0.1,3-0.1,4.4
		c-0.3-4-5.3-6.1-8-8.5c0.3,0.9,0.4,1.9,0.7,2.8c-2-3.2-5.6-6.2-8.6-8.6c-0.5,5.4,7.4,13.6,10.2,18.2c2.5,4,4.8,12.2,10.2,12.2
		c-2.1,15.2-7.1,48.2,12.5,54.7c-4.9,5.4-6.9,12.2-4.8,19.6c0.4-0.1,0.4-0.4,0.7-0.7l-0.4,0.4c-3.2,1.3-10.2-4.5-14.7-4.2
		c-0.1-2.9-0.3-6.1-0.1-9.1c0.4-4.2-0.6-5.2-2.2-9.5c-3.4-8.9-6.4-19-8.7-28.4c-0.6-2.5,0.7-8-0.8-10c-0.8-1-4.2-1.4-5.3-1.8
		c-2.7-0.9-5.4-2.2-8-3.5c-5.7-2.9-24.3-9.5-25-17.4c-0.5,1.4-1.5,2.5-2.7,3.3l3-3.4c0,5.9-1.1,12.1,0,17.9c0.5,2.7,1.5,5.2,3.8,7.1
		c1.8,1.5,4.3,1.5,5.7,3c-4.1,5.7-7.6,9-8.7,16.6c-1.2,8.3,1.8,15.5,2.5,23.2c-4.2-2.8-8.6-3.8-13.5-3.8c0.1-1.9,1.5-3.9,1.9-5.9
		c0.6-2.8,0.6-5.9,0.7-8.7c0.2-4.2,0-9.2-2-13c-2.1-3.9-7-6.1-10.4-8.7c-4.3-3.3-8.4-7.2-11.8-11.5c-4.2-5.2-6.5-9.1-8.4-15.5
		c-2.3-7.5-4.3-14.7-7.9-21.6c-2.2-4.2-3.1-10-6.4-13.3c-2.6-2.6-6.2-3.5-9.5-4.5c-0.1,0.3-0.5,0.8-0.7,1.1
		c-0.4,0.1-0.8-0.1-1.2-0.4l-0.4-0.8c-1.1,2.3,1,4.1,1.8,6c-2.5,0.5-5.1-1.1-7.1-2.4c0.3,0.3,1,1.6,1.5,2.1c-2.6,0.3-5.6-2-7.7,0.4
		c-1.3,1.4-0.8,5.1-0.9,6.9c-0.2,2.4-0.7,4.8-0.5,7.3c0.2,2.8,2,4.7,2.2,7.1c-0.9-0.3-2.4-0.3-3.3-0.7c1.1,2.8,4,5.1,4.5,8.2
		c-1.4-0.4-2.8-1.2-4.1-1.7c-0.1,2,1,3.8,1.8,5.5c-0.4,0-1,0.1-1.4,0.1c0.2,3.3-1.4,6-1.6,9.4c-0.1,3.2,0.5,7.1,0.1,10.1
		c-0.4,2.8-0.2,1.4-2.6,3.2c-2.1,1.5-3.2,2.7-4.7,4.9c-2.4,3.3-4.4,6-4.2,10.2c-4.3,0.7-7.5-3.1-11.7-2.7c0.7-4,5.3-8.9,6.9-13.1
		c2.1-5.5,2.3-11.4,1.4-17.2c-1.9-12.6-1.4-25.4-3.1-37.9c-1.2,2.2-3.9,7.4-5.3,1.9c-1.1,1.9-2.6,1.5-4,0
		c-4.6,5.6-2.5,14.5-2.4,21.9c-0.3-0.6-0.8-1.3-1.1-1.8c-0.2,2.2,0.9,4.5,1.4,6.7c-1.4-1.7-3.4-2.9-4.9-4.3c1.8,1.4,3,3.3,3.3,5.5
		c-1.2-0.5-2.8-2-4.1-2.5c0,3.7,2.1,6.8,1.8,10.8c-0.7-1.1-1.7-1.7-2.6-2.4c-0.1,2.3,1.3,4.7,1.9,7c-0.8-1-1.9-1.5-2.9-2.1
		c-0.1,2.4,1.3,4.7,1.4,7.1c-4.9,2.3-5.4,8.6-8.3,12.3c-3.6-3.5-6.4-7.5-11.7-8.8c-0.1-4,2.7-8.4,3.3-12.5c0.6-4.1,0.4-9.1,0.1-13.3
		c-0.5-6.2-2.4-13.3-3.9-19.4c-1.6-6.8-2.9-11.1-7.9-16.2c-2.9-3-8.3-9-4.2-13.2c0.6,0.1,1.1,0.3,1.5,0.7h-1.9
		c-2.3-1.7-0.8-6.8-1.9-9.5c-2.1,1.4-3.6,4.3-6.1,5.3c-0.2-3.5-0.5-14.1-5.8-7.7c0.2-2.7-0.6-9.5-4.5-7.9c0.1-1.6,0-3.3-0.5-4.9
		c-0.7,0.7-2,1.3-2.9,1.9c-0.3-2.5,0.9-4.9,0.6-7.5c-1.7,0.1-3.1,1.3-4.8,1.4c-0.2-3.2,0.1-6,1.1-9c-2.1,0.1-4.2,1.3-6,2.2
		c-0.1-3.9,4.6-7.2,5.6-10.9c-3.1-0.2-5.4,2.5-8.3,2.2c-0.6-3.6,5.4-7.8,7.5-10.1c-1.4-0.1-2.8,0.4-4,1c1-1.1,5.7-4.3,5.2-6.1
		c-0.6-2.3-6.6-0.8-6.8-4.2c-0.2-2.4,4.1-2.4,4.2-4.6c0.1-1.9-3.1-2.3-4.2-3.7c1.5-0.6,7.1-2.3,6.3-4.3c-0.8-1.9-6.2,0.2-6.7-2.9
		c5.6-2.4,5.4-2.5,0.8-5.4c1.8-1.1,4.4-0.8,5.6-2.7c-1.1-0.6-2.4-1.4-3-2.6c0.8-0.6,1.7-1.6,2.5-2c-0.9,1.1-2.3,1.6-3.7,1.5l3.8-3
		c-1.3-2.7-5.1-3.5-7.1-5.7c1.5,0,3,0.1,4.4,0c-0.4-0.5-2-2.3-2-3.1c0-2.5,1.2-1,1.6-2.5c0.6-1.7,0.9-1.9-0.4-4.2
		c6.9,0.7,1.7-2.8-0.5-4.6c0.3-0.3,0.4-0.2,0.8-0.4c-0.5-1.1-0.7-2.4-0.6-3.6c2.4-0.3,7.8-5.6,7.5-7.3l-1.5,8
		c2.1-10.7-0.2-22.1,0.9-32.9c0.5-4.9,0.7-9.5-0.5-14.6c-1.2-5.1-2.2-8.4,0.4-13.1c2.1,0.1,3.8,2.3,5.6,2.9
		c1.5-3.4-0.5-8.2,0.8-10.5c1.2-2.2,7.7-7,10.2-6.5c2.6,5.9,4.8,11.3,9.1,16c3.9,4.3,4.5,10.1,8.4,14.3c7.8,8.7,13.8,9.8,17.1,15.2
		c3.3,5.4,4.5,11.6,8.4,16.3c2.1,2.6,6.5,5.8,8.1,8.5c1.5,2.5,5.6,5.1,6.8,7.7c-3.2,1.2-11.7-3.3-14.6-2.6c-3.8,1-2,4.5-0.5,7.2
		c1.8,3,3.6,5.3,6.6,7.1c1.1,0.7,2.7,0.8,3.5,1.9c1,1.4,0,2.8,0.7,4.3c1.2,2.8,5.2,3.8,7.6,6c2.3,2.1,4,4,6.8,5.7
		c5.8,3.4,11.1,7.4,17.1,10.4c7.7,3.9,14.9,9.1,20.8,15.6c2.7,2.9,5.2,4.9,8.8,6.8c3.6,1.8,13.1,1.2,14.8,3.4l-0.4,0.4
		c11.9,0,26.9,1.9,36.5,9.5c5.3,4.2,9.7,8.6,15.7,12.1c5.9,3.5,11.8,7.1,18.1,9.8c0.9,0.4,4.4,1.2,4.8,2c1.4,2.3-1.4,1.9-2,4.1
		c-0.6,2,0.3,1.8,1,3.4c0.2,0.5,1.4,1.1,1.7,1.7c0.4,0.7-0.3,2,0.1,2.6c3.5,5.6,10.6,11,15.6,15.5c4.6,4.2,9.2,7.8,14.4,11.1
		c5,3.2,9.6,7.6,14.8,10.2c12.2,6.3,23.6-1,35.6-2.3"/>
	<path class="st0" d="M-174.9,414.1c17.7-14.9,25.6-38.6,45.1-49.5c18.4-10.3,18.2-13.5,21.3-31.8c2.2-13,10.5-12,20.1-18.8
		c9.2-6.5,14.4-7.7,25.6-10.2c14.4-3.3,12.1-2.9,22.8,8.5c10,10.7,10.5,1.6,23.2,2.5c8.2,0.5,15.8,10.2,23.6,13.7
		c4.1,1.8,8.4,2.6,12.4,5.2c5.5,3.5,8.4,10.1,13.3,13.5c10.6,7.4,17.4-1.2,29.2-3.7c10.2-2.2,15.4,2.6,25.3,5
		c11.1,2.8,18.1,2.9,27.7,10.4c10.5,8.2,15.2,7.4,28.8,6.9c10.4-0.4,17.3-6.1,26.2-0.8c11.8,7,12.3,23.4,17.5,34.4
		c3.2,6.9,8.4,20.1,13.5,25.4c3.2,3.4,9.5,4.7,13.4,6.8c9,4.9,13.1,9.1,18.8,17.3c7.5,10.8,12.7,22.7,19.8,33.6
		c4.8,7.4,17.2,15,10.4,24.4c-4.9,6.9-25.1,9.4-32.6,10.7c-23,4-47.8,2.6-71.1,3.5c-52.5,2-102.6,1-154.2-9
		c-35.4-6.8-68.6-15.5-98.8-35.3c-7.8-5.1-4.2,21.4-13.5,20.1c-8-1.1-20.7-6.3-28.5-10.3c-19.9-10.2-49.9,8.8-47.9-11.4
		c0,1.2-17.2-10.3-17.1-9.1"/>
</g>
</svg>
