<?xml version="1.0" encoding="utf-8"?>
<!-- Generator: Adobe Illustrator 16.0.0, SVG Export Plug-In . SVG Version: 6.00 Build 0)  -->
<!DOCTYPE svg PUBLIC "-//W3C//DTD SVG 1.1//EN" "http://www.w3.org/Graphics/SVG/1.1/DTD/svg11.dtd">
<svg version="1.1" id="Layer_1" xmlns="http://www.w3.org/2000/svg" xmlns:xlink="http://www.w3.org/1999/xlink" x="0px" y="0px"
	 width="120px" height="20px" viewBox="0 0 120 20" enable-background="new 0 0 120 20" xml:space="preserve">
<g>
	<g>
		<g>
			<g>
				<g>
					<polygon fill="#777777" points="118.752,18.834 118.814,18.082 118.636,17.844 					"/>
					<path fill="#777777" d="M119.396,15.265l-0.075-1.295c-0.518,0.744-0.368-0.255-0.737,1.765c0.08,0.707,0.26,2.266,0.463,2.06
						c-0.022-0.507-0.22-1.253-0.156-2.011c0.149,0.325,0.132,1.136,0.325,1.515c0.16-1.218-0.126-0.766-0.054-2.107L119.396,15.265
						z"/>
					<path fill="#777777" d="M118.88,13.737c0.089,0.117,0.178,0.241,0.251,0.219C119.041,13.834,118.932,13.207,118.88,13.737z"/>
					<path fill="#777777" d="M118.826,12.949c0.02-0.817,0.191,0.014,0.22-0.071l-0.334-0.924L118.826,12.949z"/>
					<path fill="#777777" d="M118.849,9.559c-0.011-0.131-0.021-0.257-0.031-0.378C118.764,9.312,118.81,9.419,118.849,9.559z"/>
					<path fill="#777777" d="M118.81,7.894c-0.116,0.333-0.048,0.754,0.008,1.287c0.007-0.017,0.013-0.03,0.021-0.052
						c0.097-0.466,0.335-0.027,0.272,0.727c0.053,0.788-0.182,0.716-0.027,1.399l0.192-0.937
						C119.247,9.079,118.903,8.376,118.81,7.894z"/>
					<path fill="#777777" d="M118.849,9.559c0.009,0.14,0.015,0.288,0.015,0.445C118.903,9.806,118.88,9.674,118.849,9.559z"/>
					<polygon fill="#777777" points="118.82,11.263 118.87,11.685 118.971,11.583 					"/>
					<path fill="#777777" d="M118.79,5.112c0.323,0.196-0.034,1.989,0.217,2.206c-0.014-1.094,0.224-1.974,0.402-1.734l-0.101-1.212
						C119.187,3.964,118.943,4.478,118.79,5.112z"/>
					<path fill="#777777" d="M119.609,2.735c-0.027-0.078-0.046-0.171-0.055-0.276C119.567,2.591,119.584,2.703,119.609,2.735z"/>
					<path fill="#777777" d="M114.854,0.356l2.837-0.326c-0.264,0.104-0.159,0.206-0.804,0.243c0.523,0.018,0.788-0.005,1.156-0.037
						c0.385-0.031,0.741-0.072,1.219-0.089c0.009,0.183,0.012,0.431,0.005,0.729c-0.125,0.232-0.15-0.147-0.156-0.578
						c-0.636,0.008-1.368-0.022-0.968,0.136c0.253-0.004,0.544-0.01,0.848-0.015c0.012,0.344,0.032,0.702,0.073,1.064
						c0.04,0.312,0.1,0.567,0.189,0.777l-0.206,1.159l0.332-0.393c0.096-0.472-0.26-0.949-0.029-1.238
						c0.142-0.147,0.169,0.323,0.203,0.657c-0.021-0.224-0.005-0.498,0.024-0.812c0.034-0.568,0.072-1.214,0.113-1.915
						c-0.487-0.02-1.001-0.042-1.535-0.064c-0.187-0.005-0.378-0.01-0.571-0.015c-0.147,0-0.298,0.001-0.451,0.002
						C115.531-0.324,115.909,0.197,114.854,0.356z"/>
					<polygon fill="#777777" points="114.746,-0.009 114.558,-0.138 114.688,0.037 					"/>
					<path fill="#777777" d="M111.652,0.424l1.476-0.208c0.159,0.028,0.247,0.098,0.354,0.158c-0.058-0.077,0.339-0.206,0.276-0.269
						c-0.682-0.299-1.807,0.096-2.6,0.148c-2.093-0.135,0.096-0.161-0.719-0.443c0.587,0.007,0.609,0.079,1.421,0.1
						c-1.281-0.337-2.892-0.028-3.714,0.056c0.239,0.03,0.302,0.123,0.754,0.096l-0.854,0.098
						C108.931,0.398,109.685,0.462,111.652,0.424z"/>
					<path fill="#777777" d="M114.29,0.421c-0.551,0.022-0.753,0-0.803-0.042C113.631,0.459,113.817,0.518,114.29,0.421z"/>
					<path fill="#777777" d="M107.703-0.026c0.092,0.02,0.242,0.013,0.443-0.008C108.047-0.046,107.914-0.049,107.703-0.026z"/>
					<path fill="#777777" d="M108.541,0.33l-1.034-0.032l0.407,0.142C108.059,0.424,108.565,0.402,108.541,0.33z"/>
					<path fill="#777777" d="M68.977-0.128c0.094,0.122,0.472,0.182,1.271,0.158c-0.095,0.162-1.13,0.13-1.616,0.224
						c1.058,0.104-0.017,0.19,0.253,0.348c1.177,0.016,1.7-0.195,2.96-0.152c-0.061,0.046-0.037,0.117,0.126,0.174
						c1.516-0.103,4.085-0.254,5.564-0.115c1.429,0.061,2.487-0.016,4.055-0.089c5.153,0.084,10.53-0.083,16.075,0.069l0.784-0.316
						c0.269,0.158,1.321-0.001,1.165,0.205c-0.304-0.04-0.592-0.007-0.956-0.002c1.188,0.278,3.146-0.023,4.57,0.076
						c-0.162-0.057-0.396-0.331,0.032-0.379c-0.115,0.352,1.682-0.006,2.097,0.397c1.426,0.1,0.058-0.308,1.537-0.251
						c0.158-0.208-1.422-0.101-1.689-0.257c0.465-0.168,1.343,0.071,1.276-0.147c-2.378-0.103-6.794,0.329-10.424,0.446l0.381-0.195
						c-1.862,0.139-4.869,0.146-6.359-0.171c0.352,0.185-2.741-0.1-2.466,0.321C87.144,0.12,87,0.135,86.331,0.1l-0.18,0.134
						c-0.956-0.003-0.8-0.208-1.895-0.195c0.714,0.18-0.076,0.234-0.395,0.384c-1.255-0.202-2.713-0.379-3.827-0.545
						c0.088,0.059,0.187,0.125,0.569,0.203c-0.756-0.063-0.627,0.109-0.83,0.171c-0.729,0.009-0.652-0.225-0.617-0.343
						c-1.339-0.072-1.937,0.375-2.938,0.225l0.349,0.187c-1.377,0.045-2.54-0.16-4.06-0.097c-0.738-0.255,1.251-0.221,1.882-0.331
						c-0.311-0.053-0.966-0.068-1.177-0.152c-0.647,0.13-1.742,0.308-2.552,0.43C71.435-0.125,69.495-0.109,68.977-0.128z"/>
					<path fill="#777777" d="M73.213-0.259c0.191-0.04,0.348-0.074,0.441-0.102c-0.146,0.016-0.285,0.033-0.508,0.021
						C73.125-0.308,73.157-0.281,73.213-0.259z"/>
					<path fill="#777777" d="M68.977-0.128c-0.007-0.011-0.027-0.02-0.031-0.03C68.793-0.141,68.837-0.134,68.977-0.128z"/>
					<path fill="#777777" d="M77.73,0.525c-0.06-0.005-0.131-0.011-0.196-0.016c-0.086-0.002-0.161-0.005-0.251-0.007L77.73,0.525z"
						/>
					<path fill="#777777" d="M78.869-0.322c0.297,0.066,0.706,0.133,1.166,0.2C79.906-0.207,79.799-0.272,78.869-0.322z"/>
					<path fill="#777777" d="M88.172-0.112c0.285-0.033,0.121-0.089,0.318-0.15C87.903-0.27,87.703-0.208,88.172-0.112z"/>
					<polygon fill="#777777" points="71.543,-0.308 70.386,-0.25 69.962,-0.2 					"/>
					<path fill="#777777" d="M48.077,0.662c1.022,0.222,2.522,0.086,3.78,0.131c2.312-0.116,0.292-0.486,2.486-0.513l-0.377,0.458
						c2.192-0.027,5.299,0.068,7.16-0.334c0.162,0.056,0.551,0.125-0.019,0.19c1.462-0.018,0.757-0.652,2.707-0.5
						c-1.818,0.284,0.597,0.271,0.098,0.554l-0.284,0.032c1.237-0.029,2.875-0.18,3.693-0.161C67.354,0.4,66.64,0.22,67.737,0.206
						c-0.445-0.023-0.267-0.157-0.23-0.274c-1.132,0.13-1.745,0.049-2.434,0.205c-0.631-0.154,0.428-0.05-0.209-0.202l-0.906,0.142
						c-0.671-0.035,0.688-0.154-0.353-0.186c-0.118,0.089-0.966,0.188-1.78,0.167l0.234-0.053c-0.621,0.062-1.506-0.014-1.203,0.24
						l-0.738-0.253l0.129,0.174c-1.709-0.068-2.348-0.483-4.554-0.267c0.525,0.052,0.041,0.146-0.242,0.178
						c0.919,0.121,1.136-0.13,2.005-0.154c0.129,0.173-1.35,0.381-0.291,0.484C56.004,0.201,54.975,0.434,54.477,0
						c-1.402-0.027-1.926,0.184-3.348,0.084l0.038-0.065c-0.263,0.286-1.155-0.129-2.207,0.164l0.75,0.064
						c-0.036,0.117-0.402,0.121-0.908,0.142c0.059-0.045,0.059-0.045-0.105-0.102c-0.158,0.207-1.76,0.24-1.96,0.302
						c0.67,0.036,1.498-0.135,2.288-0.188C48.625,0.523,48.748,0.697,48.077,0.662z"/>
					<path fill="#777777" d="M62.511-0.095l-0.451,0.1C62.245-0.012,62.412-0.042,62.511-0.095z"/>
					<path fill="#777777" d="M41.736,0.299c-0.895-0.047,0.24-0.177-0.594-0.27c-0.909,0.144,1.04,0.295,0.155,0.51
						c-0.552-0.125-1.44,0.091-1.808,0.095c0.406-0.123,0.174-0.397,0.01-0.454c-0.344,0.077-1.117-0.06-1.705-0.067
						c1.444,0.172-1.215,0.103,0.088,0.29c-0.098,0.163-1.454,0.283-2.008,0.157c0.042-0.118,0.488-0.093,0.854-0.098
						c0.299-0.224-0.917-0.12-1.125-0.323c-1.376,0.31-5.78,0.288-4.528,0.786c0.471,0.095,0.871-0.024,1.38-0.046
						c-1.428-0.1-0.01-0.262,0.112-0.352c0.61,0.08,1.66-0.078,1.422,0.101l-0.971,0.187c3.108,0.094,7.352,0.058,10.924-0.015
						l-1.546-0.01c0.18-0.134,0.909-0.143,1.477-0.208l-0.758-0.327c0.446,0.024,0.872-0.025,0.836,0.093
						c0.542-0.139,0.296-0.223-0.029-0.336c1.152-0.057,1.342,0.071,2.229-0.144c-1.915-0.269-1.617,0.223-3.816-0.012L41.736,0.299
						z"/>
					<polygon fill="#777777" points="45.936,0.119 45.472,0.285 46.177,0.203 					"/>
					<path fill="#777777" d="M45.199,0.842c-0.021-0.072,0.262-0.104,0.24-0.176C44.545,0.617,44.649,0.718,45.199,0.842z"/>
					<path fill="#777777" d="M34.422,0.125L33.27,0.183l0.75,0.063C34,0.173,34.282,0.143,34.422,0.125z"/>
					<path fill="#777777" d="M26.325,0.981c1.602-0.034,2.289-0.188,4.1-0.021c0.886-0.215-0.417-0.402-0.034-0.597
						c-0.897-0.048-0.786,0.315-1.716,0.386c-0.347-0.185-1.364,0.041-2.252-0.002C26.532,0.824,26.532,0.911,26.325,0.981z"/>
					<path fill="#777777" d="M20.81,0.272C20.08,0.27,19.34,0.414,18.76,0.325c0.081-0.117,0.519-0.16,0.96-0.128
						c-0.28-0.264-0.81,0.041-1.603-0.135c0.069,0.028,0.359,0.073,0.137,0.131c-1.972-0.062-1.108,0.217-3.664,0.065
						c-0.372,0.073-0.735,0.071-0.673,0.246c-1.451-0.221-0.719-0.22-2.463-0.414c0.067,0.103,0.638,0.337,0.626,0.556
						C9.614,0.338,9.562,0.69,7.989,0.459c0.175-0.011,0.388-0.068,0.811-0.039C8.596,0.114,7.48,0.477,6.607,0.417l0.082-0.262
						c-0.806,0.041-2.206,0.213-3.22,0.022L3.7,0.045C2.783,0.131,2.017,0.163,0.532,0.179C0.54,0.937,0.547,1.686,0.555,2.398
						c0.008,0.585,0.021,1.141,0.049,1.643L0.441,4.985C0.641,7.41,0.533,2.573,0.924,4.351C0.441,4.616,1.081,5.602,0.889,6.982
						C0.697,7.632,0.789,5.588,0.57,6.307C0.817,6.614,0.641,7.042,0.712,7.78C0.479,7.621,0.681,9.313,0.418,8.864l0.432,2.584
						c-0.132,0.414-0.109,1.163-0.076,1.714c0.003-1.394,0.347,0.385,0.455-1.182C1.117,9.706,1.037,5.894,1.16,3.045
						C1,2.89,1,2.433,1.009,1.958c0.008-0.506,0.024-0.873-0.107-1.216c0.055,0.007,0.105-0.024,0.156-0.036
						C1.162,0.75,1.25,0.794,1.312,0.842C1.95,0.808,1.918,0.764,1.659,0.714c-0.243-0.05-0.742-0.106-0.573-0.165
						c0.84-0.042,1.472,0.15,1.4,0.267c1.315,0.017,0.15-0.087,0.82-0.26l0.857,0.352c4.104-0.108,9.534-0.346,14.207-0.145
						l-0.35-0.22c2.112,0.121,3.539-0.489,5.413-0.018l0.644-0.188c-0.353,0.107,0.363,0.33-0.191,0.479
						c0.576-0.075,1.188,0.009,1.783-0.06L24.61,0.652c0.742-0.187,1.56-0.072,1.807,0.092c1.577-0.221-0.938-0.38-1.29-0.565
						c-2.222,0.406-2.238-0.398-4.373-0.228C19.433,0.079,20.892,0.155,20.81,0.272z"/>
					<path fill="#777777" d="M23.561,0.875c0.14-0.017,0.244-0.038,0.324-0.059C23.772,0.83,23.668,0.848,23.561,0.875z"/>
					<path fill="#777777" d="M0.773,13.162c0.003,0.165,0.008,0.362,0.013,0.623C0.842,13.996,0.803,13.659,0.773,13.162z"/>
					<path fill="#777777" d="M26.422,0.748c0-0.001,0-0.001-0.005-0.004L26.4,0.748C26.409,0.748,26.417,0.748,26.422,0.748z"/>
					<polygon fill="#777777" points="27.481,0.208 26.894,0.201 26.996,0.302 					"/>
					<path fill="#777777" d="M1.326,19.265l0.056-0.115C1.293,19.186,1.239,19.223,1.326,19.265z"/>
					<path fill="#777777" d="M18.404,19.336l-0.364-0.006C18.153,19.347,18.282,19.345,18.404,19.336z"/>
					<path fill="#777777" d="M58.968,19.096c1.102-0.071,2.571-0.141,3.382-0.328l-0.079,0.116c0.592-0.057,2.502-0.242,1.27-0.449
						l-0.299,0.102c-1.399,0.172-1.015-0.192-2.109-0.267c-1.32,0.054-2.074,0.49-3.239,0.388c-0.514,0.012-0.433-0.104-0.284-0.191
						c-1.169-0.032-1.627,0.303-2.434,0.347c-0.318-0.877-3.598,0.238-5.327-0.319c-1.099,0.071-2.56-0.006-3.96,0.167
						c0.743-0.219-1.318-0.019-1.011-0.266c-0.394,0.51-4.013-0.227-4.266,0.414c-1.893-0.18-0.08,0.043-2.266-0.107
						c0.003-0.072,0.373-0.072,0.517-0.085c-0.87-0.133-1.332,0.273-2.049-0.02c-1.751-0.048-0.299,0.174-1.332,0.346
						c-1.827-0.075-1.314-0.162-2.321-0.427c-0.162,0.306-1.253,0.158-2.141,0.316c0.221,0.015,1.461,0.075,0.649,0.191
						c-2.121-0.05-1.695,0.201-3.676,0.283c-1.004-0.338,1.978-0.01,0.236-0.276c1.253-0.157,2.206-0.142,2.877-0.388
						c-1.687-0.019-3.738,0.036-5.577,0.178c-1.021-0.046,0.524-0.16-0.28-0.189c-1.822-0.15-2.801,0.343-4.258,0.194l0.305-0.174
						c-0.892,0.231-3.221-0.052-4.908,0.077c0.212,0.087,0.356,0.146,0.132,0.204c0.027-0.438-2.353,0.228-4.019-0.081
						c0.131,0.276-1.487,0.434-2.513,0.462c-0.362-0.076-0.284-0.192-0.28-0.266c1.676,0.165,1.627-0.302,2.953-0.431
						c-1.107,0.145-2.931-0.005-3.891,0.197l0.375-0.218c-1.533-0.032-1.341,0.492-2.943,0.284l0.158-0.159
						c-0.87,0.006-1.781-0.011-2.698-0.031c-0.852-0.018-1.708-0.035-2.538-0.053c0-0.316,0.001-0.628,0.001-0.933
						c-0.008-0.369-0.016-0.73-0.023-1.081c-0.026-0.7-0.074-1.358-0.157-1.953c-0.131-0.226-0.44,1.076-0.543,1.145
						c0.047,0.636,0.114,1.161,0.185,1.643c0.072,0.527,0.138,1.01,0.206,1.511c0.223-0.021,0.456-0.045,0.698-0.069l-0.11,0.25
						c0.106-0.043,0.294-0.081,0.485-0.117c0.16-0.033,0.336-0.07,0.483-0.101c0.289-0.063,0.447-0.123,0.056-0.189
						c0.958-0.128,0.722,0.22,1.824,0.077c-0.085,0.262-0.746,0.289-0.757,0.507l0.958-0.128c-0.299,0.101,0.579,0.088,0.285,0.19
						c1.772-0.317,2.48,0.123,4.318-0.02l-1.023-0.047c0.008-0.146,0.596-0.13,1.035-0.173c0.502,0.205,0.797,0.177,1.742,0.267
						c0.812-0.115,1.265-0.376,2.362-0.374c-0.236,0.276,1.824,0.15,2.03,0.383c0.233-0.276,2.129-0.099,2.281-0.257
						c0.588-0.057,1.395-0.027,1.387,0.12c-0.087,0.01-0.259,0.028-0.443,0.048l0.587,0.009c-0.056,0.032-0.037,0.056-0.103,0.061
						c0.522,0.007,0.527-0.193,1.199-0.057c-0.005,0.072-0.368,0.07-0.664,0.101c1.391,0.047,2.441-0.418,3.595-0.168
						c0.226-0.13,1.838-0.142,1.488-0.435c0.434,0.104,0.274,0.336,1.449,0.295c0.671-0.246,1.312,0.092,2.197-0.067
						c-1.185,0.259-0.002,0.072-1.042,0.319c0.801,0.103,1.989-0.229,3.381-0.185c0.139,0.059,0.136,0.133,0.281,0.191
						c0.519-0.087,1.111-0.289,1.613-0.084l-0.063-0.176c0.949,0.09,2.268,0.034,3.284,0.227l1.185-0.333
						c1.594,0.353,3.731,0.035,4.993-0.267c0.584,0.016,1.46,0.076,1.455,0.149c-0.135,0.026-0.366,0.07-0.635,0.121
						c0.86,0.013,1.909,0.202,2.389-0.074c0.883-0.085,0.647,0.19,1.305,0.235c1.782-0.389,5.256,0.288,5.801-0.308
						c-0.732-0.002-2.118-0.121-3.509-0.096c0.369-0.072,0.083-0.188,0.595-0.202c1.396-0.026,2.112,0.193,3.509,0.095l-0.167,0.379
						C54.922,19.452,57.095,18.553,58.968,19.096z"/>
					<path fill="#777777" d="M41.112,19.087l1.011,0.191l-0.108-0.163C41.702,19.142,41.383,19.142,41.112,19.087z"/>
					<path fill="#777777" d="M42.015,19.115c0.208-0.018,0.409-0.046,0.59-0.077c-0.221-0.003-0.434,0.004-0.615,0.036
						L42.015,19.115z"/>
					<path fill="#777777" d="M62.992,19.031c0.224,0.016,0.661,0.046,1.104,0.003C63.805,18.989,63.218,18.974,62.992,19.031z"/>
					<polygon fill="#777777" points="64.172,18.917 63.663,18.857 63.589,18.901 					"/>
					<path fill="#777777" d="M93.759,18.588l1.627-0.23c0.284,0.116,2.122-0.024,1.526,0.177c0.968-0.274,3.071-0.008,2.291-0.403
						c-4.765,0.137-11.341-0.096-16.851,0.257l0.888-0.158c-2.868,0.313-3.931-0.345-6.234,0.277l0.307-0.32
						c-1.311-0.09-2.511,0.462-3.884,0.124l0.14,0.131c-0.365-0.001-0.509-0.059-0.878-0.061l0.146,0.059
						c-0.959,0.129-1.543,0.114-2.489,0.025c-0.068-0.103,0.441-0.044,0.735-0.071c-0.436-0.104-1.179,0.113-1.912,0.111
						c-0.579-0.089,0.008-0.146,0.086-0.189c-2.204,0.142-3.208-0.196-4.771,0.281c-0.152,0.088,0.573,0.097-0.23,0.138
						c1.454,0.15,2.636-0.234,3.961-0.234h-0.367c1.051,0,0.8,0.171,2.493-0.029c-0.447,0.188-1.183,0.22-1.479,0.321
						c1.957,0.354,2.796-0.254,4.088,0.201l-0.146,0.022c0.291,0.043,0.807-0.039,1.247-0.081c-0.145-0.059-0.578-0.087-0.87-0.132
						c0.443-0.042,0.671-0.245,0.823-0.332c0.501,0.205,0.662-0.101,1.464,0.003c0.282,0.189-0.668,0.175-0.966,0.276l0.96-0.13
						c0.875-0.013,0.864,0.207,1.299,0.31c0.739-0.145-0.435-0.103,0.165-0.306c0.939,0.235,4.967,0.17,6.881-0.014
						c-0.663,0.026-0.231,0.202-1.036,0.172c0.292,0.043,1.316-0.057,1.326-0.202c1.326-0.128,3.005-0.037,4.242,0.097l-0.356-0.146
						c1.037-0.245,2.625,0.182,4.461,0.038l-0.04-0.003c0.591-0.031,1.099-0.386,2.183-0.312
						C94.283,18.428,93.698,18.413,93.759,18.588z"/>
					<path fill="#777777" d="M100.221,18.25l-0.597,0.203c0.658,0.046,1.477-0.215,1.336-0.347c-0.438,0.043-1.023-0.047-1.103,0.07
						C99.935,18.206,99.928,18.278,100.221,18.25z"/>
					<path fill="#777777" d="M112.518,18.218c0.242-0.047,0.18-0.123,0.281-0.18c-2.604,0.025-5.817,0.106-6.854-0.053
						c-0.88-0.06-1.037,0.245-2.141,0.316l-0.499-0.205c-0.595,0.13-2.414-0.094-1.772,0.243c0.071,0.029,0.521-0.158,1.032-0.099
						l-0.083,0.116l1.175-0.041l-0.373,0.146c1.599,0.207,1.122-0.436,3.089-0.301l-0.016,0.292c1.32,0.018,1.982-0.084,3.143,0.094
						c0,0,0.009-0.146-0.211-0.087c-0.223-0.016-0.508-0.133-0.355-0.221c1.989-0.229-0.303,0.175,1.081,0.294
						c1.694-0.2,4.922-0.368,5.861-0.133c-0.796-0.177,0.39-0.363,1.336-0.348c0.434,0.104-0.302,0.174-0.453,0.262
						c0.439,0.031,0.799,0.104,1.243,0.062c-0.576-0.161-0.2-0.38,0.831-0.479C116.572,17.717,114.785,18.252,112.518,18.218z"/>
					<path fill="#777777" d="M113.192,17.972c-0.234,0.01-0.337,0.035-0.394,0.066c0.309-0.002,0.616-0.005,0.904-0.007
						L113.192,17.972z"/>
				</g>
			</g>
		</g>
	</g>
</g>
</svg>
