<?xml version="1.0" encoding="utf-8"?>
<!-- Generator: Adobe Illustrator 16.0.0, SVG Export Plug-In . SVG Version: 6.00 Build 0)  -->
<!DOCTYPE svg PUBLIC "-//W3C//DTD SVG 1.1//EN" "http://www.w3.org/Graphics/SVG/1.1/DTD/svg11.dtd">
<svg version="1.1" id="Layer_1" xmlns="http://www.w3.org/2000/svg" xmlns:xlink="http://www.w3.org/1999/xlink" x="0px" y="0px"
	 width="530px" height="380px" viewBox="0 0 530 380" enable-background="new 0 0 530 380" xml:space="preserve">
<g>
	<rect x="4" y="3" fill="#FFFFFF" width="521" height="372"/>
	<g>
		<g>
			<g>
				<g>
					<path fill="#797979" d="M524.835,374.857c0.086,0.939,0.281,0.408,0.242-2.182l-0.331-1.84L524.835,374.857z"/>
					<path fill="#797979" d="M525.447,357.428c-0.16-3.045-0.442-6.56-0.746-4.586c0.318,3.016,0.186,3.746,0.564,6.995
						c0.038,2.595-0.106,4.524-0.229,4.089c0.085,0.915-0.072,4.026,0.136,5.421c0.256-3.372,0.266-7.646,0.055-12.108
						C525.3,356.28,525.387,357.21,525.447,357.428z"/>
					<path fill="#797979" d="M525.964,104.15l-0.039,1.632C525.946,105.336,525.958,104.776,525.964,104.15z"/>
					<path fill="#797979" d="M469.864,2.212c1.195-0.008,1.693-0.041,1.755-0.071C470.51,2.163,469.599,2.183,469.864,2.212z"/>
					<path fill="#797979" d="M443.072,1.847c0.574,0.008,1.058,0.015,1.58,0.022C444.05,1.839,443.442,1.822,443.072,1.847z"/>
					<path fill="#797979" d="M525.964,104.15l0.104-4.192C525.96,99.664,525.987,102.106,525.964,104.15z"/>
					<path fill="#797979" d="M524.649,322.502c0.016,0.878,0.047,1.607,0.087,2.276c-0.012-0.721-0.023-1.418-0.035-2.139
						C524.684,322.602,524.668,322.568,524.649,322.502z"/>
					<path fill="#797979" d="M526.232,173.328v1.276c0.038,0.375,0.083,0.726,0.135,1.058L526.232,173.328z"/>
					<path fill="#797979" d="M526.283,226.418c0.012-1.199-0.27-1.617-0.392-2.077c0.115,0.679,0.171,1.565,0.192,2.618
						C526.138,226.979,526.201,226.821,526.283,226.418z"/>
					<path fill="#797979" d="M525.788,310.603l0.039,1.494C525.816,311.707,525.8,311.053,525.788,310.603z"/>
					<path fill="#797979" d="M526.293,135.329c0.042-0.09,0.078-0.28,0.101-0.484C526.358,134.845,526.324,135.035,526.293,135.329z
						"/>
					<path fill="#797979" d="M463.958,373.538c-0.043,0.02,0.019,0.032,0.005,0.05C464.271,373.56,464.366,373.54,463.958,373.538z"
						/>
					<path fill="#797979" d="M525.5,374.93l-0.854,0.016c-0.09,0.053-0.186,0.105-0.186,0.157L525.5,374.93z"/>
					<path fill="#797979" d="M394.037,1.487c0.095,0.002,0.128,0.002,0.219,0.005C395.546,1.46,394.815,1.466,394.037,1.487z"/>
					<path fill="#797979" d="M3.337,63.465c0.251-5.099,0.323,8.3,0.602,0.621C3.829,64.802,3.5,57.109,3.337,63.465z"/>
					<path fill="#797979" d="M524.687,321.127c-0.001-0.717-0.002-1.447-0.003-2.177
						C524.674,319.941,524.675,320.609,524.687,321.127z"/>
					<path fill="#797979" d="M3.938,64.086h0.003l0.026-0.792C3.956,63.621,3.949,63.806,3.938,64.086z"/>
					<path fill="#797979" d="M281.056,1.656c0.231,0.049,0.683,0.087,1.152,0.123C282.17,1.75,281.909,1.715,281.056,1.656z"/>
					<path fill="#797979" d="M365.225,2.056l-2.082-0.037C363.969,2.033,364.637,2.045,365.225,2.056z"/>
					<path fill="#797979" d="M237.355,2.053c-1.134-0.021-1.518-0.061-3.064-0.022c0.143,0.01,0.285,0.021,0.47,0.034
						C235.321,2.025,236.065,2.008,237.355,2.053z"/>
					<path fill="#797979" d="M191.868,2.055c0.242,0.016,0.56,0.038,0.839,0.057c0.451-0.005,0.977-0.011,1.442-0.016L191.868,2.055
						z"/>
					<path fill="#797979" d="M325.721,373.673c0.996,0.079,1.617,0.167,2.101,0.253C327.12,373.726,333.803,373.654,325.721,373.673
						z"/>
					<path fill="#797979" d="M524.808,322.479c-0.071-0.266-0.106-0.654-0.121-1.352c0.005,0.521,0.01,1.024,0.015,1.513
						C524.743,322.772,524.782,322.801,524.808,322.479z"/>
					<path fill="#797979" d="M235.506,4.271l-7.228-0.042C230.298,4.24,232.926,4.255,235.506,4.271z"/>
					<path fill="#797979" d="M5.645,369.752l0.033,1.66C5.685,370.771,5.676,370.184,5.645,369.752z"/>
					<path fill="#797979" d="M206.831,4.271c-1.29-0.1-2.656-0.157-4.069-0.194c-0.299,0.021-0.64,0.04-0.839,0.072L206.831,4.271z"
						/>
					<path fill="#797979" d="M327.836,373.929c-0.015-0.001-0.015-0.003-0.015-0.003S327.821,373.928,327.836,373.929z"/>
					<path fill="#797979" d="M375.439,373.261c-6.887-0.008-3.235,0.362-4.695,0.574c-8.22,0.104-3.804-0.272-6.603-0.461
						c-5.132,0.098-9.068,0.437-12.896,0.422c-0.284-0.061-1.029-0.083-0.156-0.159c-5.426,0.294-16.106,0.015-22.429,0.384
						c-0.47-0.033-0.707-0.063-0.825-0.092c1.024,0.186,1.181,0.373,0.973,0.507c-3.088,0.007-5.729,0.233-6.892-0.008
						c1.893,0.007,2.049-0.091,2.936-0.166l-3.234,0.105c-2.912-0.348,4.415-0.12,4.415-0.378c-6.308,0.113-13.659,0.4-18.491,0.303
						c-1.011-0.34,11.302-0.114,4.852-0.416l7.479,0.129c-5.715-0.535,4.543,0.038-0.707-0.535
						c-9.841-0.099-11.008,0.173-20.825,0.074c-2.21,0.188,0.73,0.279-1.479,0.468c-13.953,0.339-10.984-0.854-21.243-0.401
						c-2.656,0.226-3.686,0.655-10.989,0.429l2.49-0.385c-9.528-0.037-5.44,0.553-15.419,0.294c1.774-0.15,7.489-0.127,6.047-0.173
						c-6.464-0.303-4.572,0.218-9.542,0.218l-1.029-0.34c-10.145,0.112-21.319,0.236-32.554,0.361
						c0.621-0.102,2.547-0.208-0.081-0.312c-14.171,0.17-30.25-0.042-43.918-0.243l-5.222,0.293
						c-1.214-0.003-2.252-0.133-0.939-0.189c-5.326-0.111-0.275,0.187-2.836,0.302c-3.031,0.021-4.003-0.169-2.082-0.257
						c-9.4,0.249-26.778,0.536-36.681,0.222l1.93-0.087c-7.712-0.119-8.703,0.602-15.855,0.327l1.371-0.052
						c-16.737-0.127-35.234,0.142-48.006-0.302c-2.428,0.423-16.566-0.188-17.643,0.401c-9.557-0.292-6.82-0.397-20.28-0.594
						c-3.595-0.027-5.359,0.368-9.803,0.43l-0.109-0.309l-6.033,0.323c0,0-0.803-0.092-1.605-0.184
						c-0.201-0.023-0.401-0.047-0.589-0.068l-0.126-0.016l-0.037-0.016l-0.06-0.027c-0.069-0.035-0.098-0.058-0.098-0.058
						c-0.058,0.004-0.117,0.009-0.17,0.009l-0.018-0.188l-0.009-0.102l-0.004-0.053l-0.004-0.132l-0.035-1.723
						c-0.01,0.415-0.021,0.843-0.03,1.248c-0.009,0.201-0.018,0.396-0.026,0.581c-0.011,0.061-0.021,0.118-0.031,0.17
						c-0.043,0.222-0.096,0.437-0.141,0.427c-0.006-0.167-0.013-0.339-0.02-0.514c-0.003-0.39-0.007-0.785-0.01-1.187
						c0.002-0.88,0.005-1.78,0.008-2.678c0.016-1.797,0.052-3.582,0.098-5.17c0.091-3.175,0.219-5.556,0.298-5.636L5.562,343.25
						c0.124,0.341,0.167,2.921,0.246,4.961c-0.314-8.225,0.324-1.494,0.036-9.03c-0.07,1.01-0.184-0.546-0.246-0.717
						c0.187-3.756,0.188-12.307,0.109-18.634l0.213,1.214c0.054-11.425-0.103-24.088-0.099-36.913
						c-0.099,4.601-0.467,3.543-0.502-0.218l0.325-1.504c-0.201-2.428-0.123,3.928-0.369-1.058c0.037-4.79,0.37-3.22,0.477-0.469
						l-0.113-5.824c0.098-0.342,0.148,1.024,0.272,1.38c-0.202-2.391,0.327-10.055-0.024-13.503l0.097-0.327
						c-0.055-12.819-0.08-18.634-0.125-29.078c-0.281-0.203-0.219-4.287-0.446-7.398c0.09-7.674,0.311-16.191,0.287-25.44
						c-0.141-6.497-0.238-1.896-0.405-4.818c0.256-0.479,0.231-9.713,0.416-4.923c-0.042-11.098-0.051-14.176-0.259-28.21
						c-0.105,1.522-0.151,3.234-0.238,2.348c-0.042-2.547,0.107-5.796,0.23-5.431l0.026,0.674
						c-0.384-15.756,0.747-36.363,0.213-48.908l0.026,0.702L5.432,99.116c0.044-5.985,0.192,3.59,0.351-0.84
						C5.355,84.243,5.845,76.104,5.56,64.546c0.756-8.945-0.053-31.743,0.43-43.818l-0.178,0.697
						c-0.175-3.121,0.102-3.775,0.143-6.075c-0.139,0.327-0.16,3.386-0.257,1.446C5.68,12.589,5.661,8.335,5.643,4
						c5.177,0.018,10.406,0.036,15.663,0.054c5.641,0.044,11.312,0.088,16.99,0.132C49.65,4.282,61.028,4.379,72.231,4.475
						c9.912,0.048,5.625-0.92,18.122-0.495l-3.548,0.33c20.005-0.396,40.907,0.014,60.489-0.322c-1.167,0.076-1.2,0.175-3.111,0.174
						c2.068,0.12,5.892,0.123,9.208,0.071c1.658-0.026,3.189-0.065,4.31-0.111c1.121-0.045,1.832-0.096,1.849-0.145
						c3.05,0.022,0.707,0.178,2.585,0.277c4.15,0.142,10.415-0.307,12.621-0.068c0.375,0.039-1.167,0.078-1.926,0.097
						c2.704-0.116,12.597,0.029,10.007-0.247c7.351,0.132,14.062-0.123,19.924,0.041c3.823-0.31,12.583,0.148,13.797-0.289
						c-0.527,0.452,12.886,0.365,17.534,0.152c-1.556,0.137,4.041,0.142,2.22,0.331c5.302-0.007,10.164-0.091,9.239-0.323
						c9.77,0.541,19.64-0.436,25.142,0.258c15.755-0.243,30.335-0.407,44.506-0.514c-0.512,0.451-15.665,0.045-15.059,0.519
						c13.446-0.186,21.2-0.572,34.532-0.464c3.453,0.062-1.959,0.195-3.125,0.272c13.432-0.186,25.971,0.041,37.923-0.204
						c-0.033,0.042-1.323,0.088-2.542,0.122c2.357-0.015,5.478,0.066,5.212-0.139l-2.295,0.056
						c-3.762-0.298,9.353-0.622,9.774-0.779c-3.998,0.588,11.805,0.148,5.454,0.891c1.551-0.039,3.496-0.136,3.14-0.273
						c2.301,0.04,3.031,0.12,0.697,0.276c8.438-0.111,5.44-0.329,13.086-0.325c-0.029,0.1-1.57,0.138-2.362,0.255
						c3.87-0.193,7.759-0.388,14.219-0.304c-0.389,0.061,0.36,0.138-1.565,0.137c11.094-0.03,18.91-0.516,31.08-0.328
						c-3.591,0.431,4.14,0.142,4.785,0.515l6.545-0.111l-2.628-0.181c5.734,0.006,10.8-0.266,15.728-0.144l-4.259,0.153l10.742-0.07
						l-6.08-0.142c5.8-0.192-0.622-0.473,7.01-0.368c-1.551,0.038,5.733,0.004,8.722,0.225c0,0-0.018,0-0.019,0.001
						c2.836-0.119,5.753-0.244,9.992-0.151c1.101,0.119-0.887,0.412-0.17,0.492c2.798-0.312,13.427-0.087,16.969-0.419
						c-1.181,0.078-1.242,0.273-0.854,0.313l2.348-0.253c2.656,0.081,3.045,0.12,2.613,0.276c7.987,0.046-2.537-0.474,6.943-0.27
						c-0.744,0.021-0.389,0.059-1.939,0.097c1.745,0.008,3.465,0.017,5.15,0.025c0.024,3.529,0.049,6.972,0.072,10.363
						c0.026,3.565,0.039,7.075-0.011,10.566c-0.376,2.58-0.093-7.646-0.409-4.69c0.068,12.616,0.45,26.123,0.361,38.331l0.042-2.277
						c0.53,1.693-0.262,9.092-0.012,15.267c-0.04-1.513-0.295-1.982-0.235-1.575c-0.086,8.362,0.13,17.093,0.297,29.761l-0.137-1.57
						c-0.121,4.928-0.069,12.977-0.132,18.298c0.136,1.579,0.114,4.624,0.312,2.774c-0.776,16.41,0.416,31.302-0.23,45.862
						c-0.002-1.74-0.119-4.15-0.12-2.765l0.126,12.402c0.23-0.982,0.14-1.627,0.319-4.231c0.137,1.57,0.243,5.07,0.243,8.144
						c-0.153-5.578-0.371,0.047-0.5,2.457c0.071-0.403,0.149,0.422,0.221,0.218c-0.411,6.479,0.465,1.086,0.188,9.932l-0.121-0.47
						c0.062,3.311,0.222,6.36,0.188,9.932c-0.268,1.479-0.125-3.524-0.345-3.752c0.016,5.014,0.506,9.894,0.24,14.433
						c-0.044-2.131-0.106-5.192-0.15-7.323c-0.313,4.942-0.233,5.516-0.283,9.187l0.007-0.36l-0.143,8.49l0.085-2.163
						c0.697,6.274,0.128,12.777,0.584,21.229c-0.432-8.215-0.25-1.356-0.553-1.987c-0.084,2.158-0.178,5.44-0.264,4.506
						c0.245,3.993-0.192,6.668,0.165,12.308c-0.098,0.251-0.01,4.273-0.254,3.372c0.076,5.193,0.169-1.229,0.292-0.792
						c0.333,8.006-0.404,18.819,0.053,30.334c0.188,9.932,0.518,11.768,0.681,20.982c-0.156,3.111-0.355-2.547-0.355-2.547
						c-0.144,5.018-0.117,8.793-0.005,13.521c-0.085-0.958-0.157,0.028-0.267,1.471c0.025,3.794,0.354,2.537,0.211,7.541
						c-0.108-0.858-0.282-1.959-0.392-3.79c0.119,4.472,0.236,8.889,0.359,13.518c-0.17,1.228-0.258-2.794-0.368-4.426
						c0.076,5.203,0.153,13.479,0.423,15.087l0.096-3.339c0.014,1.897-0.23,0.978-0.28-0.422c-0.211-4.458,0.094-6.432,0.191-6.683
						l0.062,3.296c0.572-3.386-0.092-13.241-0.059-19.877l0.416,2.766l-0.345-6.806c0.107-1.447,0.34-2.438,0.402,0.839
						c0.205-4.757-0.147-4.212,0.081-8.3c0.036-0.45,0.056-0.246,0.072,0.171l-0.124-4.648c0.088,0.911,0.294-0.772,0.234,2.083
						c0.239-8.343-0.312-13.456,0.003-16.596l0.025,0.697c-0.141-11.577-0.306-1.119-0.664-9.803l0.754-5.844l-0.306-1.138
						c0.011-1.195,0.034-3.558,0.156-3.121c-0.209-4.444-0.133,0.759-0.33-1.821c0.278-5.748-0.13-15.851,0.356-17.145
						c-0.232-2.063-0.18,5.496-0.341-0.641c0.523-1.75-0.09-7.095,0.15-12.346c0.271,1.613,0.127,6.588,0.368,1.333
						c-0.456-3.168,0.1-10.226,0.013-14.655c-0.363-0.209-0.151-9.633-0.272-17.064c0.122,0.47,0.199-13.986,0.331-20.901
						l0.061,0.204c-0.367-1.337-0.298-8.471-0.374-13.664c0.221,0.204,0.307,1.138,0.405,3.951l-0.002-4.88
						c-0.117-1.153-0.18-2.675-0.222-5.843l0.274,1.229c-0.015-6.498-0.323-13.085-0.14-21.447c-0.256-0.47-0.713,6.649-0.884-2.191
						c0.138-0.327,0.375-0.654,0.432,1.66c-0.019-0.759-0.115-2.704-0.056-4.23l0.232,3.533c0.103-3.809-0.194-1.992-0.173-5.037
						c0.197,0.062,0.141-2.253,0.298-1.817c0.019,0.778-0.082,2.656-0.004,3.823c0.035-3.434,0.152-7.583,0.302-8.954
						c-0.112,0.299-0.266,0-0.292-2.514c-0.014-6.498,0.238-2.225,0.339-6.014c-0.137-1.574,0.006-5.72-0.29-5.829
						c0.002-1.902,0.14-2.253,0.22-2.988c-0.131-3.363-0.037-15.708-0.352-11.919l-0.021,0.863c-0.004-0.161-0.009-0.351-0.013-0.55
						c0,0.029,0,0,0,0.029v-0.029c-0.294-11.022,0.167-22.898,0.041-33.834l0.099,0.019c-0.113-6.531-0.067-14.532-0.279-19.194
						c0-1.93,0.181-4.558,0.298-3.732c-0.074-4.989-0.186-5.549-0.022-12.758c0.173,5.018,0.153-1.731,0.126,5.141
						c0.086-6.483,0.244-7.954-0.026-14.916c0.253,2.371,0.318-4.88,0.243-7.963l-0.181,4.544c-0.037-3.467-0.015-6.498,0.007-9.576
						l0.333,1.665c0.069-2.298,0.095-4.517,0.092-6.667c-0.025-2.507-0.051-4.933-0.075-7.289
						c-4.199,0.083-8.172,0.163-11.998,0.239c-3.495,0.043-6.856,0.011-10.158-0.21c-3.51,0.232,7.209,0.163,4.069,0.436
						c-6.104-0.045-12.465-0.522-14.376-0.523c-8.361-0.185-7.802,0.486-16.552,0.36c1.119,0.118,2.177,0.436-4.363,0.547
						c-6.109-0.044-7.508-0.498-3.652-0.593c1.466-0.01,2.172,0.027,2.11,0.067c1.974-0.043,4.562-0.094,2.144-0.223l-0.792,0.119
						c-3.03-0.121-11.435-0.108-9.461-0.304c-4.615,0.113-1.974,0.195,1.446,0.257c-7.835-0.172-12.241-0.005-20.304-0.121
						c1.28,0.065,2.461,0.205,1.186,0.204c-11.828-0.147-5.208,0.225-13.223,0.277c-4.554-0.182,1.631-0.433-6.437-0.28
						c-4.928-0.123-1.043-0.315,0.916-0.412c-7.352,0.229-13.735-0.15-17.933-0.192l3.87-0.096
						c-2.314,0.057-4.212,0.056-6.142,0.055l2.21,0.237c-2.272-0.041-4.197-0.042-4.155-0.141c-2.343,0.155,1.793,0.395-2.854,0.607
						c-3.031-0.121-9.229,0.129-10.278-0.186c9.533,0.106-1.053-0.316,7.015-0.367c-1.556,0.037-3.452,0.036-5.733-0.006
						c-0.342-0.035,0.322-0.065,0.943-0.083c-9.12-0.282-4.192,0.355-13.645,0.349c1.199-0.178-2.191-0.337-3.732-0.299
						c3.809,0.004,1.821,0.296-1.675,0.432c-6.061-0.138-6.588,0.104-9.761,0.087l3.624,0.065c-1.229,0.177-4.259,0.154-8.485,0.21
						c-0.36-0.139,3.837-0.095,2.329-0.156c-4.69,0.312-10.6-0.323-17.141-0.112c-3.03-0.121-0.294-0.334-2.954-0.415
						c-7.333,0.229-7.939-0.243-15.646-0.054c2.22,0.239,2.608,0.181-2.817,0.413l12.668-0.168l-8.129,0.347
						c3.822,0.004,8.067-0.149,10.357-0.109c-3.874,0.195-3.476,0.136-1.646,0.334c-5.231-0.358-10.372,0.208-16.419-0.033
						l0.185-0.591c-9.092-0.264-16.153,0.303-27.958,0.154l3.794,0.103c-1.584,0.235-7.29,0.033-11.112,0.128
						c0.355-0.197-2.035-0.269-3.666-0.392c0.199,0.146-8.642-0.014-9.714,0.381l-5.269-0.261
						c-9.533-0.106-10.88,0.562-20.043,0.496c2.76-0.215-1.404-0.354,4.733-0.509c-3.059-0.002-5.81-0.038-5.857,0.1
						c-1.788-0.124-8.485,0.266-11.297,0.078c-1.29,0.087-1.712,0.293-5.146,0.277c-0.375-0.04,0.014-0.098,0.014-0.098
						c-0.014,0.098-5.378,0.133-2.376,0.351c-9.424-0.615-26.341,0.045-34.546-0.483c-6.678,0.046-14.722,0.102-20.783,0.144
						c0.389-0.059,0.019-0.099,1.167-0.078c-8.361-0.184-5.141,0.567-14.655,0.362c-4.861-0.319,5.051-0.173,2.02-0.294
						c-1.318-0.649-11.482,0.089-17.885-0.29l1.551-0.038c-4.895-0.221-11.942,0.246-19.938,0.199c0,0,0.389-0.058,0.047-0.098
						c-5.468,0.331-15.822,0.44-23.515,0.532c2.395-0.254,3.496-0.134,2.035-0.393c-3.448,0.037,1.01,0.415-5.872,0.487
						c-2.238-0.14-7.204-0.261-7.863-0.536l6.493-0.016c-3.325-0.356-8.404,0.013-11.824-0.05l0.437-0.155
						c-9.95,0.051-10.088,0.443-20.783,0.415l1.105,0.118c-5.843,0.389-4.899-0.219-10.728,0.07l-1.765-0.395
						c-3.855,0.095-13.507,0.382-20.422,0.456c3.917-0.293,12.009-0.442,17.017-0.616c-3.823-0.003-12.99,0.028-14.982,0.224
						c1.542-0.038,3.481-0.135,5.004-0.074C33.876,2.397,27.707,2.55,20.089,2.543c0.442-0.25-1.528-0.357-4.572-0.409
						C12.251,2.113,7.835,2.084,3.701,2.058C3.69,3.354,3.68,4.625,3.669,5.843C3.65,6.803,3.632,7.719,3.616,8.568
						c-0.046,1.697-0.114,3.123-0.217,4.078c0.283,13.474-0.12,26.73-0.075,42.429c0.596-5.568,0.017,4.582,0.629,3.619
						c0.038,3.657,0.028,5.051-0.011,5.378L3.576,75.151c-0.179,2.627-0.135-3.477-0.272-3.14c-0.047,8.006-0.259,3.358-0.422,8.655
						c0.219-1.086,0.313,2.784,0.23,7.347l0.281-6.426c0.326,11.188-0.513,9.67-0.19,20.949l-0.192-3.566
						c0.113,5.786-0.004,21.347,0.487,27.019c-0.07,1.025-0.238,2.376-0.282-0.17c-0.073,13.83,0.522,30.785,0.221,41.532
						l-0.149-1.048c0.043,2.58,0.28,4.492,0.13,7.722c-0.062-0.166-0.149-1.039-0.158,0.156c0.052,1.366,0.263,6.854,0.175,10.273
						l-0.168-2.921c-0.195,13.488,0.41,20.702,0.513,32.014c-0.44-0.028-0.584,10.586-0.655,15.883l-0.062-0.185
						c-0.055,15.708,0.364,26.683,0.537,41.229c-0.478,9.03-0.2,30.587-0.468,45.1c0.08-2.22,0.343,0.36,0.387,2.94
						c-0.089,3.405,0.306,9.414-0.098,8.873l0.008-1.214c-0.396,2.566-0.291,9.566-0.302,15.03l0.528,0.9
						c-0.252,4.695-0.309,10.346-0.294,16.092c0.043,6.096,0.088,12.292,0.126,17.678c1.688-0.003,3.308-0.006,4.842-0.009
						c1.212,0.011,2.357,0.02,3.419,0.028c2.124,0.033,3.914,0.101,5.253,0.219c3.448-0.132,7.721-0.131,11.141-0.263l-0.185,0.283
						c9.557,0.072,14.328,0.108,26.142,0.04l-2.409,0.203c6.664,0.018,8.414-0.816,14.561-0.833l1.85,0.422
						c11.625-0.006,23.391,0.365,34.878-0.019c-0.189,0.062-0.531,0.185-2.414,0.201c5.473,0.011,21.167,0.286,19.18-0.294
						c0.137,0.378,11.994,0.037,18.273-0.13L137.039,376c5.298-0.356,5.469-0.454,12.867-0.553c1.755,0.037,1.537,0.224-0.792,0.152
						c5.843,0.146,4.553-0.264,11.639-0.115l-2.642,0.178c6.014,0.021,5.535-0.074,8.845-0.281c3.78-0.112,11.406,0.07,12.293,0.322
						c0.811-0.154,4.103-0.359,7.645-0.287c0.479,0.096-0.811,0.154-1.46,0.184c10.055,0.189,14.949-0.324,21.864-0.051
						c0.142,0.093,0.593,0.139,1.167,0.167c-7.987-0.007-14.418-0.022-13.816-0.043c0,0.257,6.45,0.303,1.319,0.657
						c5.179-0.193,14.034-0.614,20.323-0.494c0.303,0.025,0.602,0.05,0.83,0.089l-0.65,0.029c1.451,0.025,2.75,0.002,3.974-0.042
						c2.006,0.043,3.282,0.074,5.208,0.077c0.744,0.213,7.398,0.115,10.614,0.126c-0.266-0.281,3.946-0.236,0-0.469
						c0.512,0.021-0.607,0.034-2.746,0.046c-0.484,0.01-1.053,0.021-1.371,0.028c0.062-0.007,0.137-0.016,0.218-0.024
						c-2.11,0.005-4.866,0.012-7.996,0.019c2.542-0.143,5.198-0.263,8.755-0.106c1.651-0.181,3.467-0.366,4.492-0.454
						c4.401,0.393,12.886,0.604,14.067,0.846c9.822-0.157,23.14-0.104,29.315-0.632c2.794-0.067,3.211,0.151,4.255,0.234
						c-1.613,0.053-3.529,0.045-4.401,0.121c5.582-0.136,16.542-0.053,17.875-0.422c7.038,0.167-3.955,0.34,5.715,0.279
						l-1.304,0.113c19.022,0.589,30.928-0.942,52.019-0.186c-1.461-0.046-2.191-0.067-2.49-0.129
						c24.046,0.333,49.553-0.313,73.28,0.216c6.744,0.106,7.475-0.129,11.592-0.309l1.461,0.303l7.038-0.349
						c9.979-0.255,17.282,0.741,29.917,0.259l-1.632-0.204c4.539,0.039,14.376-0.119,13.617,0.114
						c0.465-0.037,1.489-0.211,3.263-0.105l0.138,0.158l11.146-0.271c8.642,0.114-1.352,0.627,11.259,0.657
						c4.687-0.061,13.347-0.46,11.587-0.565c-1.893-0.008-4.833-0.099-4.976-0.257l4.288-0.082c0.777-0.466,4.074-0.942-6.45-1.268
						l-7.332,0.284l-2.362-0.226l6.17-0.014c-3.5-0.213-5.72-0.025-8.205,0.104c-0.588-0.12-1.617-0.204-3.073-0.249l-7.199,0.444
						c-0.872-0.182,3.229-0.361-1.603-0.462c-3.372,0.207,3.234,0.408-2.348,0.544c-3.51-0.211-2.485-0.384-6.603-0.203
						c-0.578-0.12,0.294-0.196,1.926-0.249c-3.666,0.144-9.699,0.061-11.591,0.309c-3.657-0.262-12.374,0.067-12.014-0.373
						c-1.152,0.105-6.455,0.346-9.822,0.364c6.151-0.527-12.602-0.031-10.975-0.597c-4.554,0.475-16.443,0.211-24.506,0.474
						c0.45-0.037,1.337-0.113,2.049-0.09c-4.539-0.039-5.857-0.182-8.774-0.271c-0.583,0.392-7.65,0.481-11.459,0.723
						c-5.562-0.378,3.377-0.46,1.632-0.823c0.28,0.318-9.666,0.317-7.773,0.582c-4.254-0.234-3.666-0.113-5.857-0.438
						c-0.744,0.49-3.96,0.083-7.488,0.384c-6.156-0.241-1.584-0.459-8.348-0.31C369.425,373.435,375.439,373.261,375.439,373.261z
						 M214.603,374.108v-0.006c1.385-0.007,2.566-0.013,3.32-0.016C217.23,374.091,216.272,374.098,214.603,374.108z
						 M201.085,374.112c1.646,0.003,3.695,0.007,5.862,0.012c0.474,0.097-0.038,0.196-1.399,0.191
						C206.289,374.251,203.101,374.194,201.085,374.112z M229.675,376.061c-2.139,0.04-2.855-0.016-3.149-0.073
						c1.01-0.009,2.191-0.02,3.742-0.033c0.062-0.009,0.189-0.026,0.251-0.034C230.315,375.974,230.083,376.023,229.675,376.061z"/>
					<path fill="#797979" d="M233.521,375.692c0.308-0.008,0.479-0.012,0.882-0.021c-0.437-0.021-0.854-0.043-1.276-0.063
						c-0.261,0.03-0.526,0.061-0.759,0.088C232.758,375.694,233.161,375.693,233.521,375.692z"/>
					<path fill="#797979" d="M525.918,106.066l0.007-0.284c-0.012,0.237-0.022,0.455-0.04,0.597
						C525.904,106.19,525.904,106.189,525.918,106.066z"/>
					<polygon fill="#797979" points="14.448,373.575 14.467,373.646 15.648,373.584 					"/>
					<path fill="#797979" d="M524.953,180.508c-0.024,0.143-0.05,0.422-0.072,0.977
						C524.899,181.443,524.926,181.021,524.953,180.508z"/>
					<path fill="#797979" d="M524.891,212.664l-0.101,4.549C524.833,215.244,524.865,213.812,524.891,212.664z"/>
					<path fill="#797979" d="M524.751,237.389c0.049,0.312,0.086,0.403,0.12,0.483c0.001-0.019,0.002-0.033,0.002-0.047
						L524.751,237.389z"/>
					<path fill="#797979" d="M366.928,3.937c-0.332,0.004-0.659,0.008-0.953,0.013C363.735,4.004,365.258,3.982,366.928,3.937z"/>
					<path fill="#797979" d="M483.913,3.28c-1.243,0.043-2.467,0.087-3.762,0.133C482.233,3.435,483.851,3.439,483.913,3.28z"/>
					<path fill="#797979" d="M236.298,4.275c0.014-0.002,0-0.003,0.014-0.005c-0.28,0-0.526,0-0.806,0L236.298,4.275z"/>
					<path fill="#797979" d="M474.712,3.408c2.082,0.056,3.822,0.044,5.439,0.005C478.444,3.394,476.434,3.365,474.712,3.408z"/>
					<path fill="#797979" d="M524.623,344.547l-0.012,1.19c0.019-0.02,0.034,0.052,0.046,0.142L524.623,344.547z"/>
					<path fill="#797979" d="M524.657,345.879l0.033,1.323C524.69,346.596,524.688,346.068,524.657,345.879z"/>
					<path fill="#797979" d="M524.761,349.986l-0.07-2.784C524.689,348.165,524.681,349.355,524.761,349.986z"/>
					<path fill="#797979" d="M524.753,311.816l-0.102-0.374C524.673,311.646,524.705,311.778,524.753,311.816z"/>
					<path fill="#797979" d="M524.724,301.871c-0.023,2.371-0.218,5.952-0.153,9.263l0.081,0.309
						C524.5,309.887,524.896,304.124,524.724,301.871z"/>
					<path fill="#797979" d="M525.983,260.357l-0.081,8.333c0.108-1.456,0.255-3.372,0.28,0.418
						C526.507,258.603,525.94,271.275,525.983,260.357z"/>
					<path fill="#797979" d="M526.142,234.515c0.05,4.477,0.157-0.053,0.219,0.185C526.262,231.858,526.236,231.171,526.142,234.515
						z"/>
					<path fill="#797979" d="M526.143,47.759l0.256,0.45C526.361,44.756,526.299,48.176,526.143,47.759z"/>
					<polygon fill="#797979" points="524.82,12.06 524.661,15.417 524.896,17.016 					"/>
					<polygon fill="#797979" points="513.611,1.715 515.12,1.679 509.362,1.771 					"/>
					<path fill="#797979" d="M199.958,1.806l1.043,0.315C203.335,2.064,203.824,1.71,199.958,1.806z"/>
					<path fill="#797979" d="M64.553,2.127c-1.475-0.158-5.283-0.259-7.631-0.104C59.967,2.044,63.002,2.167,64.553,2.127z"/>
					<polygon fill="#797979" points="3.256,348.894 3.15,346.171 3.238,351.303 					"/>
				</g>
			</g>
		</g>
	</g>
</g>
</svg>
