<?xml version="1.0" encoding="utf-8"?>
<!-- Generator: Adobe Illustrator 16.0.0, SVG Export Plug-In . SVG Version: 6.00 Build 0)  -->
<!DOCTYPE svg PUBLIC "-//W3C//DTD SVG 1.1//EN" "http://www.w3.org/Graphics/SVG/1.1/DTD/svg11.dtd">
<svg version="1.1" id="Layer_1" xmlns="http://www.w3.org/2000/svg" xmlns:xlink="http://www.w3.org/1999/xlink" x="0px" y="0px"
	 width="517.333px" height="10px" viewBox="0 0 517.333 10" enable-background="new 0 0 517.333 10" xml:space="preserve">
<g>
	<line fill="#666666" x1="4" y1="4" x2="625" y2="4"/>
	<g>
		<g>
			<g>
				<g>
					<path fill="#797979" d="M476.311,3.435c0.416-0.007,0.589-0.036,0.61-0.062C476.535,3.392,476.219,3.41,476.311,3.435z"/>
					<path fill="#797979" d="M466.995,3.116c0.2,0.007,0.368,0.013,0.55,0.02C467.335,3.108,467.124,3.094,466.995,3.116z"/>
					<path fill="#797979" d="M25.405,5.155c0.015-0.018-0.007-0.028-0.002-0.043C25.296,5.137,25.263,5.154,25.405,5.155z"/>
					<path fill="#797979" d="M4.007,3.937l0.297-0.013c0.031-0.047,0.064-0.092,0.064-0.138L4.007,3.937z"/>
					<path fill="#797979" d="M449.945,2.801c0.033,0.001,0.045,0.002,0.076,0.004C450.47,2.777,450.216,2.782,449.945,2.801z"/>
					<path fill="#797979" d="M293.43,2.982c1.772,0.22-2.886,0.283-0.216,0.527C292.965,3.413,295.64,3.125,293.43,2.982z"/>
					<path fill="#797979" d="M293.214,3.509v0.002l0.275,0.023C293.376,3.523,293.312,3.518,293.214,3.509z"/>
					<path fill="#797979" d="M410.662,2.948c0.08,0.043,0.237,0.076,0.4,0.108C411.049,3.031,410.959,3,410.662,2.948z"/>
					<path fill="#797979" d="M439.928,3.298l-0.724-0.033C439.49,3.288,439.723,3.295,439.928,3.298z"/>
					<path fill="#797979" d="M395.468,3.295c-0.395-0.019-0.528-0.053-1.065-0.02c0.049,0.013,0.099,0.021,0.163,0.03
						C394.76,3.272,395.019,3.256,395.468,3.295z"/>
					<path fill="#797979" d="M379.651,3.297c0.085,0.015,0.194,0.033,0.292,0.05c0.156-0.004,0.34-0.009,0.501-0.014L379.651,3.297z
						"/>
					<path fill="#797979" d="M73.47,5.037c-0.346-0.069-0.562-0.146-0.73-0.221C72.984,4.991,70.66,5.053,73.47,5.037z"/>
					<path fill="#797979" d="M394.824,5.237l-2.514-0.037C393.014,5.225,393.927,5.237,394.824,5.237z"/>
					<path fill="#797979" d="M186.934,5.002l-0.577,0.029C186.579,5.037,186.784,5.03,186.934,5.002z"/>
					<path fill="#797979" d="M384.854,5.237c-0.448-0.087-0.923-0.138-1.414-0.17c-0.104,0.019-0.223,0.035-0.292,0.063
						L384.854,5.237z"/>
					<path fill="#797979" d="M72.735,4.813c0.005,0.001,0.005,0.002,0.005,0.002S72.74,4.814,72.735,4.813z"/>
					<path fill="#797979" d="M56.183,5.398c2.395,0.007,1.125-0.317,1.632-0.502c2.858-0.091,1.323,0.239,2.296,0.403
						c1.784-0.085,3.153-0.382,4.483-0.37c0.099,0.054,0.358,0.073,0.055,0.14c1.887-0.257,5.6-0.013,7.798-0.336
						c0.163,0.029,0.246,0.056,0.287,0.081c-0.356-0.163-0.411-0.327-0.338-0.444c1.074-0.006,1.992-0.205,2.396,0.007
						c-0.658-0.006-0.712,0.079-1.021,0.146l1.125-0.092c1.013,0.304-1.535,0.105-1.535,0.33c2.193-0.099,4.75-0.351,6.43-0.265
						c0.351,0.298-3.93,0.1-1.687,0.364l-2.601-0.113c1.987,0.469-1.58-0.033,0.246,0.469c3.422,0.086,3.828-0.151,7.241-0.065
						c0.769-0.165-0.254-0.245,0.515-0.41c4.852-0.297,3.819,0.748,7.386,0.352c0.924-0.198,1.282-0.574,3.821-0.375l-0.866,0.336
						c3.313,0.033,1.891-0.483,5.361-0.257c-0.617,0.131-2.604,0.111-2.103,0.151c2.248,0.265,1.59-0.191,3.318-0.191l0.358,0.298
						c3.527-0.047,7.413-0.262,11.319-0.316c-0.216,0.089-0.886,0.182,0.028,0.272c4.927-0.148,10.518,0.037,15.271,0.213
						l1.815-0.256c0.422,0.002,0.783,0.116,0.327,0.166c1.852,0.097,0.096-0.164,0.986-0.264c1.054-0.018,1.392,0.148,0.724,0.225
						c3.269-0.218,9.311-0.469,12.754-0.194l-0.671,0.076c2.682,0.104,3.026-0.527,5.513-0.287l-0.477,0.046
						c5.82,0.111,12.251-0.124,16.692,0.264c0.844-0.37,5.76,0.165,6.135-0.351c3.323,0.256,2.371,0.348,7.051,0.52
						c1.25,0.024,1.863-0.322,3.409-0.376l0.038,0.271l2.098-0.284l1.117,0.323l1.449-0.069c-0.577-0.016-1.227-0.121-1.139-0.199
						c2.264-0.122,5.519,0.188,5.575,0.327l5.356-0.228c-0.119,0.108-1.016,0.146-1.725,0.215c2.859-0.275,0.52,0.284,3.14,0.032
						c-0.351-0.062,0.19-0.161,0.249-0.215c1.306,0.163,4.279,0.165,6.479,0.096l-0.422,0.186c3.973,0.047,8.375-0.089,12.834-0.086
						c-1.6-0.086-1.231-0.409,0.076-0.44l0.522,0.285c0.844-0.176-1.365-0.108,0.368-0.323c1.666,0.032,1.12,0.324,0.164,0.417
						l2.025-0.099c0.119,0.085-0.356,0.13-0.48,0.239c0.831-0.177,3.496,0.286,4.695-0.021l0.114,0.084
						c4.458,0.002,6.479-0.096,10.11-0.11c0.071-0.246,1.491-0.191,2.573-0.39c2.668,0.078,5.63,0.272,8.846,0.251
						c2.259-0.123,0.66-0.208,1.675-0.354c0.167,0.224,3.377,0.203,1.712,0.364c3.858-0.036,4.929-0.044,9.809-0.227
						c-0.529-0.092-1.125-0.132-0.816-0.208c0.886-0.038,2.015,0.094,1.888,0.202L259.75,4.85
						c5.479-0.336,12.644,0.654,17.005,0.187l-0.244,0.023l4.523-0.244c2.081,0.039-1.249,0.168,0.292,0.307
						c4.879-0.374,7.709,0.055,11.728-0.195c3.11,0.662,11.037-0.046,15.235,0.376l-0.242-0.156
						c1.085-0.152,1.312,0.089,2.112,0.125c-0.114-0.121-1.177-0.14-0.503-0.225c9.192-0.188,18.972,0.228,28.397,0.368
						c3.446,0.042,1.956-0.806,6.301-0.434l-1.233,0.289c6.956-0.347,14.224,0.012,21.032-0.282
						c-0.405,0.066-0.417,0.153-1.082,0.152c1.438,0.21,5.318,0.01,5.343-0.162c1.061,0.02,0.246,0.156,0.899,0.243
						c1.442,0.124,3.621-0.269,4.388-0.06c0.131,0.034-0.405,0.068-0.669,0.084c0.939-0.102,4.38,0.026,3.479-0.216
						c2.556,0.116,4.889-0.107,6.928,0.036c1.329-0.271,4.375,0.13,4.797-0.253c-0.184,0.396,4.48,0.32,6.097,0.133
						c-0.541,0.12,1.404,0.124,0.771,0.29c1.844-0.006,3.534-0.079,3.212-0.283c3.397,0.474,6.829-0.381,8.742,0.226
						c5.479-0.213,10.547-0.357,15.475-0.45c-0.178,0.395-5.446,0.039-5.235,0.454c4.675-0.163,7.371-0.501,12.007-0.407
						c1.2,0.054-0.682,0.171-1.087,0.239c4.67-0.163,9.03,0.036,13.186-0.179c-0.012,0.037-0.46,0.077-0.884,0.106
						c0.819-0.013,1.904,0.059,1.812-0.121l-0.798,0.049c-1.308-0.261,3.252-0.544,3.398-0.682
						c-1.391,0.514,4.104,0.129,1.896,0.779c0.539-0.034,1.215-0.119,1.092-0.239c0.8,0.035,1.054,0.105,0.242,0.242
						c2.934-0.098,1.892-0.289,4.55-0.285c-0.01,0.087-0.546,0.121-0.821,0.223c1.346-0.169,2.698-0.339,4.944-0.265
						c-0.136,0.052,0.125,0.121-0.545,0.119c3.857-0.026,6.575-0.452,10.807-0.287c-1.248,0.377,1.439,0.124,1.664,0.45l2.275-0.097
						l-0.913-0.158c1.993,0.005,3.755-0.232,5.468-0.126l-1.48,0.135l3.734-0.062l-2.113-0.124c2.017-0.168-0.217-0.414,2.437-0.322
						c-0.539,0.033,1.994,0.004,3.033,0.197c0,0-0.007,0-0.007,0.001c0.986-0.104,2-0.214,3.475-0.133
						c0.383,0.104-0.309,0.361-0.06,0.431c0.974-0.273,4.669-0.076,5.9-0.367c-0.41,0.068-0.432,0.24-0.297,0.274l0.816-0.222
						c0.924,0.071,1.059,0.105,0.909,0.242c2.776,0.041-0.883-0.415,2.414-0.236c-0.259,0.018-0.136,0.052-0.675,0.085
						c3.312,0.093,6.396-0.141,9.439-0.032c0.896,0.329-2.658,0.081-1.631,0.358c4.386-0.06,9.083-0.395,13.327-0.317l-0.791-0.036
						c0.589-0.464,3.161,0.229,5.309,0.01c-0.526,0.034-0.689,0.258-0.548,0.206c2.907,0.075,5.943-0.114,10.348-0.26l-0.546,0.119
						c1.714,0.107,4.512,0.062,6.362,0.116c0.549-0.12,1.607-0.1,0.965-0.274c5.705,0.68,10.884-0.364,15.946,0.202
						c-0.605,0.001-1.443,0.104-0.962,0.105l4.312-0.11c-0.341-0.202-0.565-0.122-1.471-0.279c0.546-0.121,1.763-0.213,2.831-0.213
						c-1.939,0.134,0.017,0.325,0.854,0.438c-0.14-0.062,0.146-0.131,0.076-0.194c2.252,0.36,0.377-0.407,3.453-0.165l-0.163,0.106
						c1.15-0.054,2.211-0.195,3.453-0.165c0.514,0.234-1.226,0.109-1.305,0.302c1.743-0.014,3.439-0.443,5.018-0.21
						c-0.74,0.065-1.806,0.066-2.546,0.131c1.719,0.275,1.918,0.205,3.194,0.249l-0.125-0.006l2.951,0.125l-0.752-0.075
						c2.182-0.61,4.442-0.111,7.382-0.511c-2.856,0.378-0.472,0.219-0.691,0.484c0.75,0.074,1.892,0.156,1.566,0.23
						c1.389-0.214,2.319,0.168,4.279-0.144c0.088,0.085,1.486,0.008,1.173,0.222c1.806-0.066-0.427-0.148-0.275-0.255
						c2.783-0.292,6.543,0.354,10.547-0.046c3.453-0.165,4.092-0.453,7.296-0.596c1.082,0.136-0.886,0.311-0.886,0.311
						c1.745,0.126,3.058,0.103,4.701,0.005c-0.333,0.074,0.011,0.138,0.512,0.233c1.319-0.022,0.882-0.311,2.622-0.185
						c-0.299,0.095-0.681,0.247-1.317,0.343c1.553-0.104,3.093-0.208,4.699-0.315c0.428,0.148-0.971,0.226-1.538,0.323
						c1.809-0.067,4.687-0.135,5.245-0.371l-1.16-0.083c0.659-0.012,0.339,0.202-0.147,0.245c-1.55,0.185-2.236-0.082-2.323-0.167
						l1.146-0.055c-1.178-0.501-4.604,0.081-6.912,0.051l0.962-0.364l-2.366,0.302c-0.503-0.094-0.848-0.298,0.292-0.352
						c-1.654-0.18-1.465,0.129-2.886-0.071c-0.157-0.031-0.086-0.049,0.059-0.063l-1.615,0.108c0.316-0.076-0.27-0.257,0.724-0.205
						c-2.901-0.21-4.679,0.273-5.771-0.002l0.242-0.022c-4.025,0.123-0.389,0.268-3.408,0.581l-2.031-0.66l-0.396,0.268
						c-0.415-0.01-1.236-0.03-1.085-0.137c-1.545,0.183,0.264,0.116-0.633,0.289c-1.999-0.244-5.512,0.114-5.962-0.312
						c-0.717,0.203,1.912,0.157-0.223,0.298c-0.608-0.458-2.467,0.078-4.292-0.132c0.561-0.237,2.29-0.111,0.463-0.322
						c-1.102,0.399-3.555-0.087-5.095-0.011c-0.073,0.318-3.35,0.133-5.934,0.239c0.163-0.107-4.863-0.174-7.268-0.29l0.071-0.053
						c-0.466,0.321-2.945,0.261-4.751,0.327c0.07-0.193,0.396-0.269,1.373-0.354l-1.696,0.001c-0.401,0.103-0.931,0.157-2.032,0.194
						l0.428-0.241c-2.26,0.013-4.55,0.283-7.457,0.123c-0.164,0.224,2.312,0.624-0.763,0.774c-0.113-0.121-0.228-0.329,0.577-0.378
						c-0.264,0.016-0.939,0.101-1.471,0.049l1.229-0.204c-1.324-0.09-0.692,0.17-1.751,0.151c0.021-0.173-0.783-0.124-0.632-0.261
						c0.271-0.017,0.924,0.072,1.329,0.003c-1.193-0.031-2.637-0.134-3.113-0.265c0.104,0.099,0,0.233-0.874,0.255
						c-2.259,0.013-0.773-0.208-2.091-0.296c-0.548,0.12-1.989-0.005-2.026,0.254c-0.662-0.001-0.784-0.122-1.039-0.192
						c-1.17,0.114-5.462,0.032-4.145,0.308l0.301,0.018c-0.057,0.003-0.122,0.007-0.191,0.011c0.01,0,0,0,0.01,0h-0.01
						c-3.833,0.258-7.962-0.146-11.765-0.036l0.007-0.086c-2.271,0.099-5.053,0.059-6.674,0.245c-0.672,0-1.585-0.158-1.298-0.261
						c-1.735,0.065-1.93,0.162-4.437,0.02c1.745-0.151-0.602-0.134,1.788-0.111c-2.255-0.075-2.766-0.213-5.187,0.023
						c0.824-0.222-1.697-0.279-2.769-0.213l1.58,0.158c-1.206,0.033-2.26,0.013-3.33-0.006l0.579-0.292
						c-4.614-0.354-8.321,0.603-11.834,0.01c-1.22,0.204,2.507,0.143,1.415,0.381c-2.122-0.04-4.334-0.458-4.998-0.458
						c-2.907-0.161-2.713,0.426-5.756,0.316c0.39,0.103,0.758,0.381-1.517,0.479c-2.124-0.039-2.61-0.436-1.27-0.519
						c0.509-0.008,0.755,0.024,0.733,0.06c0.687-0.038,1.587-0.083,0.745-0.195l-0.275,0.104c-1.054-0.106-3.976-0.095-3.289-0.265
						c-1.605,0.099-0.687,0.17,0.503,0.224c-2.725-0.15-4.257-0.004-7.06-0.105c0.444,0.057,0.855,0.179,0.412,0.178
						c-4.113-0.128-1.811,0.197-4.598,0.243c-1.583-0.159,0.567-0.378-2.238-0.246c-1.713-0.108-0.362-0.276,0.318-0.361
						c-2.556,0.201-4.775-0.132-6.235-0.168l1.346-0.084c-0.805,0.05-1.464,0.049-2.135,0.048l0.768,0.208
						c-0.789-0.036-1.459-0.037-1.444-0.123c-0.814,0.136,0.624,0.345-0.992,0.532c-1.054-0.106-3.209,0.113-3.574-0.163
						c3.315,0.093-0.365-0.277,2.439-0.321c-0.541,0.032-1.2,0.032-1.994-0.005c-0.118-0.031,0.112-0.057,0.328-0.072
						c-3.171-0.247-1.457,0.312-4.744,0.305c0.417-0.156-0.762-0.295-1.298-0.262c1.324,0.003,0.634,0.259-0.582,0.378
						c-2.107-0.121-2.29,0.09-3.394,0.076l1.26,0.057c-0.427,0.155-1.48,0.135-2.95,0.184c-0.125-0.121,1.334-0.083,0.81-0.137
						c-1.631,0.274-3.686-0.282-5.96-0.098c-1.054-0.105-0.102-0.292-1.027-0.363c-2.549,0.201-2.76-0.213-5.439-0.047
						c0.771,0.209,0.906,0.158-0.979,0.361l4.404-0.147l-2.826,0.304c1.329,0.003,2.805-0.131,3.602-0.096
						c-1.348,0.171-1.209,0.119-0.572,0.292c-1.819-0.313-3.606,0.182-5.709-0.029l0.063-0.518c-3.161-0.23-5.616,0.265-9.721,0.135
						l1.319,0.09c-0.551,0.206-2.535,0.029-3.864,0.112c0.124-0.172-0.707-0.235-1.274-0.343c0.069,0.128-3.005-0.012-3.377,0.333
						l-1.832-0.228c-3.315-0.093-3.783,0.493-6.97,0.434c0.96-0.188-0.487-0.311,1.646-0.445c-1.064-0.002-2.021-0.034-2.037,0.086
						c-0.621-0.108-2.95,0.233-3.928,0.068c-0.448,0.076-0.596,0.257-1.789,0.243c-0.131-0.035,0.005-0.085,0.005-0.085
						c-0.005,0.085-1.87,0.116-0.826,0.307c-3.277-0.539-9.159,0.039-12.012-0.423c-2.322,0.058-5.119,0.113-7.227,0.125
						c0.136-0.051,0.007-0.086,0.406-0.068c-2.908-0.161-1.788,0.496-5.096,0.317c-1.69-0.28,1.756-0.151,0.702-0.257
						c-0.458-0.569-3.992,0.078-6.219-0.254l0.539-0.033c-1.701-0.193-4.152,0.215-6.933,0.174c0,0,0.136-0.05,0.017-0.085
						c-1.901,0.29-5.501,0.386-8.176,0.466c0.833-0.223,1.215-0.117,0.707-0.344c-1.198,0.032,0.352,0.363-2.041,0.426
						c-0.778-0.122-2.505-0.228-2.734-0.469l2.258-0.013c-1.156-0.312-2.923,0.011-4.111-0.043l0.151-0.137
						c-3.459,0.044-3.507,0.388-7.226,0.364l0.384,0.103c-2.031,0.341-1.703-0.191-3.73,0.062l-0.613-0.345
						c-1.341,0.083-4.696,0.334-7.101,0.399c1.362-0.257,4.176-0.387,5.917-0.54c-1.329-0.002-4.517,0.025-5.21,0.196
						c0.536-0.033,1.211-0.118,1.74-0.065c-1.631,0.272-3.776,0.405-6.425,0.399c0.47-0.67-6.903-0.168-8.824-0.689
						c-4.685,0.248-9.294-0.105-14.752-0.066c1.936,0.521-1.593,0.015-1.258,0.55c-1.271,0.034-1.756,0.025-1.87-0.009l-3.852-0.32
						c-0.914-0.156,1.209-0.118,1.092-0.238c-2.784-0.041-1.167-0.227-3.01-0.369c0.378,0.191-0.968,0.274-2.554,0.201l2.234,0.247
						c-3.89,0.285-3.362-0.449-7.284-0.167l1.24-0.168c-2.012,0.099-7.422-0.003-9.395,0.427c-0.356-0.062-0.826-0.209,0.06-0.247
						c-4.809-0.065-10.704,0.458-14.441,0.193l0.364-0.131c-0.897,0.038-1.562,0.246-2.685,0.114
						c0.058-0.054,0.361-0.131-0.054-0.138c-0.475,0.045-2.383,0.229-3.572,0.153l1.016-0.147c-4.69-0.171-7.198,0.359-11.131,0.448
						c0.01-0.385-3.681-0.511-5.522-0.573l0.064-0.054c-5.462-0.047-9.278,0.319-14.335,0.471c-3.14-0.418-10.635-0.175-15.681-0.41
						c0.772,0.07-0.125,0.3-1.022,0.339c-1.184-0.078-3.273,0.268-3.085-0.085l0.422,0.006c-0.892-0.347-3.326-0.254-5.226-0.264
						l-0.313,0.462c-4.97-0.672-13.022,0.247-15.735-0.355c-1.199,0.116-2.685,0.115-3.874,0.23l0.064-0.248
						c-3.323-0.063-4.981-0.095-9.089-0.036l0.838-0.177c-2.317-0.016-2.926,0.715-5.063,0.729l-0.643-0.37
						c-4.042,0.005-8.133-0.319-12.127,0.017c0.066-0.054,0.185-0.162,0.839-0.176c-1.903-0.01-7.36-0.25-6.669,0.257
						c-0.048-0.331-4.17-0.032-6.354,0.114L139.075,3c-1.842,0.312-1.901,0.397-4.474,0.483c-0.61-0.032-0.535-0.195,0.275-0.133
						c-2.032-0.128-1.583,0.23-4.047,0.101l0.918-0.156c-2.091-0.019-1.924,0.065-3.076,0.247c-1.314,0.098-3.966-0.062-4.274-0.282
						c-0.282,0.135-1.426,0.314-2.658,0.251c-0.167-0.083,0.282-0.135,0.508-0.16c-3.496-0.166-5.198,0.284-7.602,0.044
						c-0.049-0.081-0.206-0.121-0.406-0.146c2.777,0.006,5.013,0.02,4.804,0.037c0-0.225-2.243-0.265-0.458-0.575
						c-1.801,0.169-4.879,0.538-7.066,0.432c-0.105-0.022-0.209-0.043-0.289-0.078l0.226-0.025
						c-0.504-0.022-0.956-0.002-1.382,0.036c-0.697-0.037-1.141-0.064-1.811-0.067c-0.259-0.186-2.572-0.101-3.69-0.11
						c0.092,0.246-1.372,0.207,0,0.41c-0.178-0.018,0.211-0.03,0.955-0.04c0.168-0.007,0.366-0.011,0.477-0.025
						c-0.021,0.006-0.048,0.014-0.076,0.021c0.734-0.004,1.692-0.01,2.78-0.017c-0.884,0.125-1.808,0.23-3.044,0.094
						c-0.574,0.158-1.206,0.32-1.562,0.397c-1.53-0.343-4.48-0.529-4.891-0.74c-3.415,0.138-8.046,0.091-10.193,0.554
						c-0.971,0.059-1.116-0.133-1.479-0.206c0.561-0.046,1.227-0.039,1.53-0.106c-1.941,0.119-5.752,0.046-6.215,0.37
						c-2.447-0.146,1.375-0.298-1.987-0.245l0.454-0.099C74.707,2.751,70.568,4.092,63.234,3.43
						c0.508,0.041,0.762,0.059,0.866,0.113c-8.361-0.292-17.229,0.274-25.479-0.189c-2.345-0.093-2.599,0.113-4.03,0.27
						l-0.508-0.265l-2.447,0.305c-3.47,0.223-6.009-0.649-10.402-0.227L21.8,3.616c-1.578-0.034-4.999,0.105-4.734-0.1
						c-0.162,0.033-0.518,0.185-1.135,0.092L15.883,3.47l-3.875,0.237c-3.005-0.1,0.47-0.549-3.915-0.576
						C6.464,3.185,3.453,3.534,4.064,3.626c0.658,0.007,1.681,0.086,1.73,0.225L4.304,3.923c-0.271,0.408-1.417,0.825,2.243,1.11
						l2.549-0.25l0.821,0.198L7.771,4.994C8.989,5.18,9.76,5.016,10.625,4.902c0.205,0.105,0.562,0.179,1.068,0.218l2.503-0.389
						c0.304,0.159-1.123,0.317,0.558,0.405c1.172-0.181-1.125-0.358,0.816-0.477c1.221,0.185,0.864,0.336,2.296,0.178
						c0.201,0.104-0.103,0.172-0.67,0.218c1.275-0.126,3.373-0.053,4.031-0.27c1.271,0.229,4.302-0.06,4.177,0.327
						c0.401-0.092,2.245-0.303,3.415-0.319C26.68,5.254,33.2,4.82,32.634,5.315C34.218,4.9,38.352,5.13,41.155,4.9
						C40.999,4.933,40.69,5,40.443,4.979c1.578,0.035,2.037,0.159,3.051,0.238c0.203-0.343,2.66-0.421,3.984-0.633
						c1.935,0.331-1.174,0.402-0.567,0.721c-0.098-0.278,3.36-0.277,2.703-0.509C51.092,5,50.888,4.895,51.65,5.179
						c0.259-0.429,1.377-0.073,2.604-0.336c2.14,0.211,0.551,0.402,2.902,0.271C58.274,5.246,56.183,5.398,56.183,5.398z
						 M112.106,4.656v0.005c-0.481,0.006-0.892,0.011-1.154,0.014C111.192,4.671,111.525,4.666,112.106,4.656z M116.806,4.652
						c-0.572-0.003-1.285-0.006-2.038-0.01c-0.165-0.085,0.013-0.172,0.486-0.168C114.997,4.531,116.105,4.581,116.806,4.652z
						 M106.865,2.947c0.744-0.035,0.993,0.013,1.095,0.063c-0.352,0.008-0.762,0.018-1.301,0.03
						c-0.022,0.008-0.064,0.022-0.087,0.03C106.643,3.023,106.724,2.979,106.865,2.947z"/>
					<path fill="#797979" d="M105.528,3.269c-0.107,0.006-0.167,0.016-0.307,0.018c0.152,0.019,0.297,0.037,0.444,0.056
						c0.09-0.026,0.183-0.053,0.264-0.077C105.793,3.267,105.653,3.268,105.528,3.269z"/>
					<polygon fill="#797979" points="181.7,5.123 181.693,5.062 181.282,5.115 					"/>
					<path fill="#797979" d="M440.52,4.945c-0.115,0.004-0.229,0.008-0.331,0.011C439.41,5.004,439.939,4.985,440.52,4.945z"/>
					<path fill="#797979" d="M481.195,4.371c-0.432,0.044-0.857,0.088-1.308,0.116C480.611,4.505,481.174,4.51,481.195,4.371z"/>
					<path fill="#797979" d="M395.1,5.242c0.005-0.001,0-0.002,0.005-0.004c-0.098,0-0.183,0-0.28,0L395.1,5.242z"/>
					<path fill="#797979" d="M477.996,4.482c0.724,0.049,1.329,0.039,1.892,0.004C479.294,4.47,478.595,4.445,477.996,4.482z"/>
					<path fill="#797979" d="M511.268,3.438l0.156-0.224C510.224,3.246,511.413,3.301,511.268,3.438z"/>
					<polygon fill="#797979" points="498.855,4.595 500.022,4.735 500.578,4.529 					"/>
					<polygon fill="#797979" points="491.521,3 492.046,2.968 490.044,3.049 					"/>
					<path fill="#797979" d="M382.465,3.079l0.362,0.276C383.639,3.306,383.809,2.996,382.465,3.079z"/>
					<path fill="#797979" d="M335.384,3.361c-0.513-0.138-1.837-0.227-2.653-0.092C333.789,3.289,334.845,3.396,335.384,3.361z"/>
					<polygon fill="#797979" points="194.187,2.911 195.133,2.818 193.349,2.896 					"/>
				</g>
			</g>
		</g>
	</g>
</g>
</svg>
