<?xml version="1.0" encoding="utf-8"?>
<!-- Generator: Adobe Illustrator 19.0.0, SVG Export Plug-In . SVG Version: 6.00 Build 0)  -->
<svg version="1.1" id="捲入線" xmlns="http://www.w3.org/2000/svg" xmlns:xlink="http://www.w3.org/1999/xlink" x="0px" y="0px"
	 viewBox="0 0 1580 700" style="enable-background:new 0 0 1580 700;" xml:space="preserve">
<style type="text/css">
	.st0{fill:#CEBCA6;}
	.st1{display:none;}
	.st2{display:inline;}
</style>
<g id="XMLID_272_">
	<g id="XMLID_58_">
		<g id="XMLID_62_">
			<g id="XMLID_63_">
				<g id="XMLID_70_">
					<path id="XMLID_163_" class="st0" d="M1473.2,156.5c0.1,0,0.1-0.1,0.1-0.1C1473.2,156.4,1473.1,156.4,1473.2,156.5z"/>
					<path id="XMLID_162_" class="st0" d="M1410.8,155.6l0.7-0.1C1411.1,155.6,1410.9,155.6,1410.8,155.6z"/>
					<path id="XMLID_161_" class="st0" d="M1510.5,156.8C1510.5,156.8,1510.5,156.8,1510.5,156.8c0.5,0,1.3,0,2.5,0.1L1510.5,156.8z
						"/>
					<path id="XMLID_160_" class="st0" d="M1277.9,154.7l0.8,0C1278.3,154.7,1278.1,154.6,1277.9,154.7z"/>
					<path id="XMLID_159_" class="st0" d="M1356.7,155.3c-0.2,0.1-0.7,0.1-1.1,0.1C1356.1,155.4,1356.5,155.4,1356.7,155.3z"/>
					<path id="XMLID_158_" class="st0" d="M1530.2,159.6l-1.1-0.2C1529.2,159.5,1529.6,159.6,1530.2,159.6z"/>
					<path id="XMLID_157_" class="st0" d="M1568.1,158.9C1568.1,158.8,1568.1,158.8,1568.1,158.9
						C1568,158.8,1568,158.8,1568.1,158.9z"/>
					<path id="XMLID_156_" class="st0" d="M1553.3,158.1c-0.3,0-0.7,0.1-1.1,0.1C1552.7,158.2,1553.3,158.2,1553.3,158.1z"/>
					<path id="XMLID_155_" class="st0" d="M1551.7,158.2c0.2,0,0.3,0,0.5,0C1552,158.2,1551.7,158.2,1551.7,158.2z"/>
					<path id="XMLID_154_" class="st0" d="M794.9,155.6c-1.1,0-2,0.1-3,0.3L794.9,155.6z"/>
					<path id="XMLID_153_" class="st0" d="M1157.5,154.6l0.2-0.1C1157.5,154.5,1157.5,154.5,1157.5,154.6z"/>
					<path id="XMLID_152_" class="st0" d="M793.6,157.3l-0.8,0C793.1,157.2,793.3,157.3,793.6,157.3z"/>
					<path id="XMLID_151_" class="st0" d="M1510.2,160.1c-1.1,0.2-3.3,0-3.3,0.1C1508,160.3,1509.7,160.4,1510.2,160.1z"/>
					<path id="XMLID_150_" class="st0" d="M1132,161.6l-0.7,0C1131.7,161.6,1131.9,161.6,1132,161.6z"/>
					<path id="XMLID_149_" class="st0" d="M793.6,157.3l0.9,0c-0.1,0-0.2-0.1-0.3-0.1C794,157.2,793.8,157.3,793.6,157.3z"/>
					<path id="XMLID_148_" class="st0" d="M1032.1,154.5C1032.1,154.5,1032.1,154.5,1032.1,154.5c0.1,0,0.2,0,0.3,0L1032.1,154.5z"
						/>
					<path id="XMLID_147_" class="st0" d="M1025.5,154.2c0.5,0,0.9,0,1.4-0.1C1026.1,154.1,1025.7,154.1,1025.5,154.2z"/>
					<path id="XMLID_146_" class="st0" d="M791.9,155.9l-1.7,0.1C790.8,156,791.4,155.9,791.9,155.9z"/>
					<path id="XMLID_145_" class="st0" d="M953.8,154.4c0.2,0,0.4,0,0.7,0C954.2,154.4,953.9,154.4,953.8,154.4z"/>
					<path id="XMLID_144_" class="st0" d="M1361.7,155.4c0.2,0,0.4,0,0.6,0C1362.4,155.4,1362.3,155.4,1361.7,155.4z"/>
					<path id="XMLID_143_" class="st0" d="M1312.2,160.4L1312.2,160.4C1312.2,160.4,1312.2,160.4,1312.2,160.4
						C1312.2,160.4,1312.2,160.4,1312.2,160.4z"/>
					<path id="XMLID_142_" class="st0" d="M1314.8,160.1c-0.8,0-2,0.1-2.6,0.2C1313,160.4,1313.8,160.3,1314.8,160.1z"/>
					<path id="XMLID_141_" class="st0" d="M1306.5,160.3c0.1,0,0.2,0,0.3,0C1306.7,160.3,1306.6,160.3,1306.5,160.3z"/>
					<path id="XMLID_140_" class="st0" d="M1359.7,160.6C1359.7,160.6,1359.7,160.6,1359.7,160.6
						C1359.7,160.6,1359.7,160.6,1359.7,160.6L1359.7,160.6z"/>
					<path id="XMLID_139_" class="st0" d="M1349.2,160.7c-0.2,0-0.4-0.1-0.7-0.1C1348.6,160.6,1348.9,160.7,1349.2,160.7z"/>
					<path id="XMLID_138_" class="st0" d="M1280.3,160.8C1280.3,160.8,1280.3,160.8,1280.3,160.8
						C1280.3,160.8,1280.3,160.8,1280.3,160.8C1280.2,160.8,1280.3,160.8,1280.3,160.8z"/>
					<path id="XMLID_137_" class="st0" d="M1181,162.2c10-0.1,22.9-0.5,32.8-0.4c2.1-0.4,5.3-0.4,8.4-0.5l0.3,0.5l2.6-0.2
						c1.1,0.2-2,0.1-0.1,0.3l1-0.3c0.2,0.2,6.7,0.1,2.3,0.5l10.2,0c2.3,0,1.3-0.4,3.8-0.3c0.5,0.1-0.9,0.1-0.7,0.3
						c7.5,0.4,8.7-1,15.6-0.8l-0.6,0.1c1.2-0.1,3.5-0.1,3.5-0.2c-0.9-0.5-1.3,0.3-3.4,0c0.2-0.4,2.7-0.2,2.5-0.6
						c1.6,0.2,2.6-0.1,4-0.1c2.4,0.3,5.9,0.1,7.7,0.4c1.2-0.1,2.5-0.6,5.1-0.6c1.8,0.3-0.4,0.3,2.1,0.5l0.4-0.3c2,0,1.7,0.1,1.7,0.2
						c2.2,0,1.8-0.3,4.6-0.2l-1.5,0.2c2-0.1,2.9-0.1,5.7,0c-0.1,0.1-1.2,0.1-2,0.1c1.5,0.4,2.6-0.2,3.5-0.1
						c-0.2-0.1-2.2-0.2-1.2-0.4c1.4,0,3-0.3,4,0l-1.5,0.2c2.9-0.2,1.6-0.3,4.9-0.2c-0.2,0-0.1,0.1-0.2,0.1c2.1-0.3,4.9,0,8,0
						l-0.6,0.1c1.3-0.1,2-0.3,2.6-0.3c-1.8-0.1-1.3-0.2-1.5-0.5c2.4,0.4,3.6-0.5,7.5-0.2c-0.1,0.1-1,0.3-2.1,0.2
						c-1.3,0.4-1.5,0.8-3.8,1c1.5-0.1,3.2-0.2,2.8,0l0.5-0.4c0.9,0,1.6,0,2.3,0c0.4-0.3-1.8-0.4,0.3-0.6c2.3-0.1,1.2,0.4,1.6,0.2
						c3.2-0.2,1.3-0.4,4.4-0.3c-0.3,0-0.9,0.1-1.2,0.1c2.2,0.2,5.4-0.1,6.1,0.4c-0.3,0.1-0.4,0.2-1.2,0.2l0-0.1
						c-2.4,0.3,2-0.1,1.3,0.3c-0.2-0.3,2.9-0.2,4.3-0.2l-0.4-0.3c4.6-0.9-0.3,0.6,4.3,0.5c2.9-0.2-1.1-0.1,0.7-0.3
						c2,0.1,2.7,0.3,5.6,0.2c0.8,0.1,2.4,0.3,2.6,0.6c1.8-0.1,5.3,0.1,6.3-0.2c-3-0.3-3,0.3-6.5-0.1l1-0.3c2.4,0,5.5-0.1,7.2,0
						c-0.3-0.1-0.5-0.1-0.3-0.2c3.5-0.1,4.4-0.4,7.8-0.3c0.4,0.3-1.5,0.2-3,0.3c2.2,0.2,2.3,0,5.6,0.1c0.2,0.3-2.3,0-2.6,0.2
						l3.7-0.1c0,0,0,0,0,0.1c0.5-0.4,2.8,0,5.1-0.1c5.4,0,6.2-0.6,9.2-0.9c0.8,0.1,1,0.2,0.7,0.3c-1.3-0.2-1.1,0-1.5,0.1
						c1.8,0,4,0.4,3,0.6c2.9-0.1-1-0.2,0.7-0.4l4,0c-0.5-0.2-1.9-0.3,0.2-0.4c1.7-0.1,2.6,0,4.8,0c-0.3,0.1,0.7,0.3-1,0.3
						c1.1,0.1,2.8,0.1,3.5-0.1c-2.5-0.2,4.1-0.2,2.2-0.5l2.5,0.2c-0.6,0-0.6,0.1-1.5,0.1c0.7,0.3,2-0.1,2.9-0.1
						c0.9,0.1,3.1,0.1,3.3,0.2c0.8-0.1,2.7,0,3,0.2c1.2-0.1,0.1-0.2,0.4-0.3l3.9,0c0.2,0.2,0.5,0.7-0.1,0.8c1.5-0.2,0.5-0.5,2.8-0.5
						c-1.3,0.4,3,0.3,1.1,0.7c1.3,0.3,5,0.3,7,0.2c1.3-0.3-2.2-0.2-2.1-0.5c5.7-0.1,6.1-0.9,10.3-0.8l-1.1-0.1
						c2.6-0.2,2.3-0.1,3.8-0.4c-0.7,0.4,3,1,7.3,0.9c0.4-0.2-2.4-0.3-1.7-0.6l2.9-0.1c0.2,0-0.1,0.1-0.5,0.1c2.6-0.1,4.8,0.5,5.5,0
						l2.6,0.5l-1-0.2c0.4-0.2,3.2-0.2,3.8-0.3c2.9-0.2,4,0,5.6,0.2c-0.5-0.1-1.8-0.5,0.5-0.5c0,0.6,4.8,0.2,4.8,0.5
						c0.9,0,2.6,0.2,2.7-0.1l-0.2,0.4c0.2-0.5,3.6-0.5,6.2-0.6c-0.6,0.7,2.9-0.1,4,0.6c0.5-0.5,4.6-0.2,5.1-0.6c2,0,1.8,0.4,2.3,0.6
						l0.9-0.2c1,0.2,4.8,0.3,7,0.4l2.1-0.4l0.8,0.2c0.3-0.1,2.1-0.2,1-0.3l1.1,0c0.1-0.4,1.6-0.1,3.8-0.3c0.5,0.1,0.4,0.2-0.1,0.2
						c1.1,0,0.6,0.2,1.3,0.4c-0.8-0.1,4-0.8,1-1c-0.2-0.2,1.6-0.3,2.7-0.2l0.7,0.4l1.3-0.4c1.7-0.1,2.5,0.2,3.9,0.2
						c-1.4,0-3.2,0.8,0.5,0.8c-1.9,0.1-2.9,0.3-3.9,0.4c0.8,0,1.1,0.1,0,0.2c2.9-0.1,1-0.2,3.8-0.3c-0.2,0.4,0.6,0.5,3.1,0.6
						l-1.9-0.3c0.1,0,0.2-0.1,0.4-0.1c-0.7,0-0.9-0.1-1.1-0.2c0.6,0,3.3-0.4,3.8-0.2c-2.9-0.6,5-0.4,3.2-0.8
						c0.3-0.1,2.3-0.1,2.5,0.1c-2.4,0.3,1.8,0.4,1.4,0.7c0.9-0.1-1.9-0.3-0.7-0.4c1.4,0,2.5,0.2,3.3,0.3l-0.6,0.1l2.2,0.2
						c0.4-0.2-2.1-0.3-0.1-0.4c0.5,0.1,2.6,0,2.5,0.1c-1,0.2-0.3,0.6-2,0.6c1.4,0,6-0.1,4.1-0.4l1.7,0c-1.1-0.2-4.1-0.4-0.6-0.5
						l0,0.1l2.4-0.3l1,0.2c0-0.1,0.3-0.2,1.2-0.2c0.2,0.1,1.1,0.2,1,0.3c2.6,0,2.4-0.2,2.7-0.3c1.4,0,2,0.1,1.3,0.3
						c2,0,5.4,0,6.7,0.2c2.6-0.2-0.5-0.1,1-0.3c2.3,0.6,8.7,0.2,13,0.2c-1.2-0.6,1.2-0.1,2-0.6c-0.9,0.2,4.1,0.4,0.3,0.6l2.3-0.1
						c1.6,0.3-3.8,0.2-1.4,0.6c2.6,0,4.2-0.6,7.3-0.4c-1,0.4,2.3-0.1,1.6,0.3c-0.6,0.1-1.5,0.1-2.3,0.1l0.5,0.1
						c5.6,0.1,1.6-0.5,4.6-0.7c3.4,0,2.7,0.3,2.9,0.5c0.5,0.1,2.3,0,3.2-0.1c-2.1,0.2-3.9-0.2-2.9-0.5c1.5,0.4,5.1,0,6-0.1
						c-4.9-0.5-3.4,0-8-0.5c-0.6,0.1-0.5,0.5-3.3,0.4c1.7-0.2-0.1-0.2-0.6-0.3c0.5,0.2-1.9,0.1-2.8,0.2c-0.8-0.2,1.7-0.5-1.1-0.6
						l-0.5,0.5c-1.1-0.1,0.5-0.4-1.9-0.3c1.3-0.3-0.4-0.4,2.8-0.5c-3.8-0.5-5.8,0.2-8.7,0.4c0.3,0,0.3-0.1,0.6-0.1
						c-0.6,0.1-1.8,0.1-2.6,0.2c-1.9-0.1,1.5-0.2,1-0.4l-3.1,0c-0.1,0-0.1,0-0.1,0c-0.8,0.1-1.6,0.1-1.9,0c0.9-0.2,1.3-0.4,1.9-0.5
						l-3.3,0.4c0.4-0.2-2.7-0.3-0.4-0.4l-4.9,0.1l-0.4-0.4c-1.2,0.1-1.2,0.1,0.2,0.2c-1.7-0.1-7.4,0.6-6.5-0.1
						c-3.8,0.3-5.2,0.2-9.8,0.4c3.5-0.3-4.1-0.4-0.3-0.6c-2.2-0.2-2.7,0.2-4.4,0.3c-1.6-0.2-0.9-0.5,0.9-0.6l-2.1,0.2l0-0.1
						l-1.8,0.2c-1.9-0.2-0.4-0.4-2.4-0.4l-0.4,0.3l-1.3-0.2c0.5,0.1-0.7,0.2-2.1,0.2l0-0.1l-1.7,0.1c1.7-0.2-1.6-0.1-0.8-0.3
						c-1.5,0-1.5,0-4.2,0l0.5,0.2c-3.5,0.2-0.1-0.3-3-0.3l0.2,0.3c-4.1-0.4-6.9,0.2-9.9,0c1.7-0.1,1.3-0.4,1.3-0.3
						c-2.6,0.1-6.8,0-9.5,0.3c-1-0.4-1.2-0.5-4-0.6c-2,0-2.3,0.1-3,0.3c-1.9-0.1-5.6,0.1-5.7-0.2c-0.5,0.2-1.7,0-2.8,0.1l-0.2-0.1
						l0.2,0.3c-3.4-0.6-5.8,0.3-9.3-0.2l0.6-0.1l-1.5,0.1c-0.2-0.1,0.4-0.2,0.4-0.3l-6.8,0l1.3,0.2c-1.4,0-2.4,0.3-4,0.1
						c2.7-0.4-2.3,0-2.7-0.3l1.5-0.1c-2,0-2,0-1.8,0.3c-2.6,0.1-1.8-0.5-4.2-0.2l1.7,0c0.5,0.1-0.7,0.4-1.9,0.3
						c-0.3,0-1.1-0.2-0.2-0.2c-2,0.1-5.1,0-6,0.1c-1.1-0.1-0.7-0.3-0.1-0.3c-4.3,0.2-2,0-6.3,0.2l0.1-0.1l-1.5,0.2l-2.1-0.3l0.8,0.2
						c-1.4,0-2.3,0.1-4,0l0.7-0.2c-4,0.1-4.7-0.4-8.5-0.1c-0.3,0,0.3-0.1,0.6-0.1c-3.6,0.3-2.7-0.4-6.3,0c0.2-0.1-0.2-0.2,0-0.2
						l-1.6,0.1l0.1-0.3l-1.3,0.4l-1-0.3l-0.6,0.1c-1.7-0.6-4.2-0.1-6.6-0.6l0.4,0.4c-6,0.8-13.7-0.4-20.9-0.1l0.1-0.3l-3,0.3
						c-1.6-0.2,1-0.2,0.5-0.4c-3.2,0.2-1.3,0.4-5,0.5c-1.9-0.2,0.7-0.2,1.6-0.3c-3.5,0.1-8.6,0.3-11.1,0.1c-0.1,0-0.2,0.1-0.1,0.1
						c-2.3,0.1-5.4,0-7.9,0c0.1-0.1,0.7-0.2,1.3-0.2c-0.9,0-2.2-0.1-3,0l1-0.2c-2-0.1-5.7,0.2-6.2-0.1c0.2,0.1,0.1,0.3-1.6,0.3
						c-0.9-0.4-4.6,0.2-7.3-0.1c0.3-0.1,2.3-0.1,1.8-0.1c-1.4-0.1-2.6,0.1-3.8,0.2l0.4-0.2l-6.3,0.2c-0.9-0.4-6,0.1-5.6-0.3
						c-2.3,0,1.9,0.2-1,0.2c-0.8-0.2-2.6,0.1-2.5-0.2l0.3,0l-2,0l1.3-0.3c-1.7,0.1-3,0.3-3.1,0.6c-1.6-0.2-4,0-4.7-0.3l0.6-0.1
						c-4.6,0.1-7.6-0.8-11.2-0.3c-0.3,0-0.2-0.1,0.3-0.1l-2.8,0l0.7-0.2l-4.7,0.3l0.1-0.1c-3.1-0.1-7.9,0-11.9,0.1l0.6-0.1
						c-4.3,0.2-4.2-0.1-7.4,0c0.1,0,0.2-0.1,0.3-0.1l-2.9,0l0.6-0.1c-2.1,0.3-6.1-0.4-4.8-0.1c-1.2,0.1-3.3,0.3-3.6,0.5
						c-3.1,0-0.8-0.2-2.7-0.3c-2.3,0-2.7,0.2-5.7,0.1l0.1-0.1c-1.4,0-2.3,0.1-4.3,0.2l0.6-0.1c-3.3,0.3-4.1-0.4-6.6,0.2
						c-1.4-0.1-4,0-3.8-0.3c-4.1,0.2-7.2,0.3-11.2,0.4c-0.6-0.5-0.9,0-3.3-0.2l0.2,0.3c-5.7,0-12.2-0.6-18.5-0.5l-0.2-0.3l-1.3,0.3
						c-6.8-0.1-15.5-0.2-20.9-0.2c-1.8,0.1-4.4,0.4-7.2,0.3l0.3,0c-4.9,0.1-10,0.3-15.4,0.1c0.3-0.1-0.2-0.2,0.4-0.3
						c-1.3,0.3-3.1,0-4.3,0l1.3,0.2c-1.5,0.2-3.7,0-4.5-0.2l-2.4,0.3c-0.2,0-0.4-0.1-0.4-0.1l-0.4,0.1l-1.3-0.3
						c-0.6,0.1-3.8,0.2-4.7,0.5c-0.2-0.1-2.5-0.2-0.7-0.3l-8.7-0.1l1.4,0.1c0.2,0.3-2.5,0.4-3.8,0.3c1.8-0.2,0.1-0.4-0.6-0.5
						c-1.2,0.1,1,0.2,0.4,0.4c-1.5,0.2-4.7,0.3-5.4,0.1l0.9-0.1c-2,0.1-3-0.3-5-0.3c-1.8,0.2-3.1,0-2.8,0.5c-2.6,0.1-1-0.3-1.8-0.3
						c-1.2,0.2-4.8,0.1-5.3-0.1c-1.4,0.6-7-0.2-7.5,0.3l-2.1-0.3c-0.1,0.1-0.5,0.5-2.2,0.5c-1.6-0.2-1.2-0.4-1.7-0.6l-1.1,0.5
						c-9.4-0.6-21.7-0.2-32-0.7c-4.6,0.1-10.4,0.4-15.7,0.3l0.6-0.1l-5.3-0.1l3.9,0.2c-1.2,0.1-2.1,0.2-3.2,0.2
						c-5.8-0.2-13.6-0.5-20.8-0.2c-4.7,0.6-3.1-0.5-7.6-0.1c0.4-0.1,0.5-0.1,0.9-0.2c-4.8,0.2-7.4,0.3-12.2,0.7
						c0.6-0.6-3.1,0-2.7-0.3l-0.4,0.2c-1.1-0.2-3.6-0.2-3.2-0.4l-2.1,0.3l-0.2-0.3c-2.8,0-8.9,0.2-10.3-0.3c-7,0.4-18,0.3-26.7,0.2
						c-1.2,0.2-3.8,0.2-5.8,0.2l-2.1-0.3c-2,0.1-4.2,0.5-6.1,0.3c0,0,0.1-0.1,0.2-0.1c-2.1,0.1-4-0.1-6,0.2c-2.3,0-4.5-0.2-3.8-0.5
						c-0.2,0.5-4.8-0.1-4.8-0.1s-116-1.2-144.4,1.5c-1,0.2-3.6,0.4-2.6,0.7c-2,0.1-3-0.3-3.4-0.1c2.8,0.2-0.9,0.6,1.8,1l-1.7,0.1
						c-0.4,0.2,2.4-0.2,1.9,0.1l0.5-0.5c1.4,0.1,2.2,0.2,2.7,0.3c1.3-0.2,2.2-0.8,5.3-0.5l-0.9,0c2.6,0,1.6,0.3,2.1,0.4l-0.6,0
						l2.2,0.2c-1.6-0.2-4.3,0.2-2.9,0.2c3.1,0.1-0.8-0.1,1.5-0.2c1.4,0,1,0.2,1,0.4l2.6,0c-0.1,0.2-1.7,0-0.7,0.2l3.2-0.2
						c0.6,0.5,3.5-0.3,5,0.3c-2.3,0.1,0.2,0.2-0.2,0.4l5.7,0c0.5,0.1-1.5,0.2-0.6,0.1c1.1,0.2,1.8-0.1,2.3-0.1
						c0.5,0.2,4.2,0,4.1,0.4c3.9,0.2,1.6-0.5,5.2-0.3c0.5,0.2-2.9,0.1-1.3,0.3l3.7-0.1c-0.3,0.1-0.7,0.4-2.1,0.3
						c10.1,0.3,15.5,1.5,24.7,1.2c1.3,0.3-0.9,0.2-1.9,0.3c6.7-0.3,9.4,0.6,15.1,0.5l0.1-0.2c7.9,0.7,17.5,0.3,26.4,0.6l-1.1-0.2
						c1.2-0.2,3.2-0.2,4.7-0.3c0.2,0.1-1.1,0.5,1.5,0.4c-0.5-0.1-1.6-0.2-1.3-0.3c7.7,0.6,23.9,0.4,36.5,0.7
						c17.1-0.2,35.6,0.3,52.4,0.1c-2.6,0-1.5-0.5,0.5-0.4c5.3,0.9,9.1-0.2,14.5,0.5c9.8-0.3,18.5,0.5,27.6-0.2l0.2,0.3
						c1.4,0.1,1.7-0.1,3.2-0.1l0,0.1c3.4,0.1,7.4-0.2,9.4,0l0.1-0.3c2,0,1,0.2,3.1,0.1l-0.1,0.1l2.4-0.3c-0.2,0.5,5.6,0,7.3,0.3
						c2.6-0.1,7.5-0.3,11.4-0.2c0.7,0.3,5.5,0.3,8.6,0.4c6-0.1,14.5-0.1,22.1-0.1l-0.1-0.3l2,0c0,0.1,0.2,0.1-0.1,0.1
						c1.5,0.4,4.6-0.1,6.2,0.1c-1-0.3-1.4,0-2.5-0.1c-1.6-0.2-0.1-0.5,2.1-0.3l0,0.1l1.5-0.2c0.2,0.3,1.5,0.4,1.7,0.6
						c6.5-0.1,11-0.5,17.7-0.4c-0.7,0.3,4.9-0.1,3.5,0.4c4.1-0.2-0.7-0.4,1.2-0.8c1.1,0,2.3-0.1,2.5,0.1c-0.5,0.1,0.9,0.3,0,0.3
						l2.7,0c0.3,0-0.3,0.1-0.6,0.1c5.5-0.3,9.8,0.3,14.7,0c0.4-0.2-2-0.1-1.6-0.2c5-0.4,4.4,0.3,9,0.1l-1,0.2
						c1.5-0.2,2.2-0.4,4.6-0.2c0.4,0.3-2.1,0.2-3.3,0.4c1.7,0,6-0.1,4.7-0.3c2-0.1,2.8,0.2,3.9,0.2c0-0.1-1.9-0.2-0.7-0.3
						c2.8,0.2,7,0.2,10.4,0.2c0,0.1,0.2,0.2-0.1,0.2C1177.5,161.6,1177.2,162.3,1181,162.2z"/>
					<path id="XMLID_136_" class="st0" d="M1361.1,160.7l-1.4,0c0,0.1-0.1,0.1-0.7,0.2L1361.1,160.7z"/>
					<path id="XMLID_135_" class="st0" d="M1296.4,160.5c-0.2,0-0.3,0-0.5,0.1C1296.3,160.6,1296.4,160.5,1296.4,160.5z"/>
					<path id="XMLID_134_" class="st0" d="M1280.7,161c1.1-0.1,0.1-0.1-0.4-0.2C1280.2,160.9,1280.3,160.9,1280.7,161z"/>
					<path id="XMLID_133_" class="st0" d="M1397.7,159.9c-0.2,0-0.4,0.1-0.3,0.1C1397.7,160,1397.8,160,1397.7,159.9z"/>
					<path id="XMLID_132_" class="st0" d="M1499,160.1c-0.1,0-0.2,0-0.4,0C1498.6,160.1,1498.8,160.1,1499,160.1z"/>
					<path id="XMLID_131_" class="st0" d="M1493.4,159.7c-0.3,0-0.6,0-1.1,0C1492.7,159.7,1493.1,159.7,1493.4,159.7z"/>
					<path id="XMLID_127_" class="st0" d="M1373.2,160c-0.4,0-0.7,0-1.1,0.1C1372.7,160.1,1373,160.1,1373.2,160z"/>
					<path id="XMLID_126_" class="st0" d="M1491,159.8l-1.4,0c0,0,0,0,0,0.1L1491,159.8z"/>
					<path id="XMLID_125_" class="st0" d="M1500.7,160.2c-0.6,0-1.3,0-1.8,0C1499.7,160.2,1500.2,160.2,1500.7,160.2z"/>
					<path id="XMLID_124_" class="st0" d="M1434.9,159.6c0,0-0.1,0-0.2,0C1433.6,159.7,1434.3,159.6,1434.9,159.6z"/>
					<path id="XMLID_74_" class="st0" d="M1484.9,160.3c-0.1,0-0.1,0-0.2,0l-0.4,0.1L1484.9,160.3z"/>
					<path id="XMLID_73_" class="st0" d="M1506.8,160.3c-0.3,0-0.5,0-0.7,0.1C1506.4,160.3,1506.6,160.4,1506.8,160.3
						C1506.9,160.3,1506.8,160.3,1506.8,160.3z"/>
					<path id="XMLID_71_" class="st0" d="M1456.1,160c0.4-0.1,0.5-0.2,0.6-0.2C1456.2,159.8,1455.9,159.8,1456.1,160z"/>
				</g>
			</g>
		</g>
	</g>
</g>
<g id="XMLID_273_">
	<g id="XMLID_175_">
		<g id="XMLID_64_">
			<g id="XMLID_67_">
				<g id="XMLID_68_">
					<path id="XMLID_75_" class="st0" d="M682.4,536.5c0.1,0,0.1-0.1,0.1-0.1C682.4,536.4,682.4,536.4,682.4,536.5z"/>
					<path id="XMLID_77_" class="st0" d="M620.3,535.6l0.7-0.1C620.5,535.6,620.3,535.6,620.3,535.6z"/>
					<path id="XMLID_78_" class="st0" d="M719.7,536.8C719.6,536.8,719.6,536.8,719.7,536.8c0.5,0,1.3,0,2.5,0.1L719.7,536.8z"/>
					<path id="XMLID_82_" class="st0" d="M487.6,534.7l0.8,0C488.1,534.7,487.8,534.6,487.6,534.7z"/>
					<path id="XMLID_83_" class="st0" d="M566.2,535.3c-0.2,0.1-0.7,0.1-1.1,0.1C565.7,535.4,566.1,535.4,566.2,535.3z"/>
					<path id="XMLID_84_" class="st0" d="M739.4,539.6l-1.1-0.2C738.3,539.5,738.7,539.6,739.4,539.6z"/>
					<path id="XMLID_85_" class="st0" d="M777.2,538.9C777.1,538.8,777.1,538.8,777.2,538.9C777,538.8,777.1,538.8,777.2,538.9z"/>
					<path id="XMLID_86_" class="st0" d="M762.4,538.1c-0.3,0-0.7,0.1-1.1,0.1C761.8,538.2,762.3,538.2,762.4,538.1z"/>
					<path id="XMLID_87_" class="st0" d="M760.8,538.2c0.2,0,0.3,0,0.5,0C761,538.2,760.8,538.2,760.8,538.2z"/>
					<path id="XMLID_88_" class="st0" d="M5.9,535.6c-1.1,0-2,0.1-3,0.3L5.9,535.6z"/>
					<path id="XMLID_89_" class="st0" d="M367.5,534.6l0.2-0.1C367.6,534.5,367.5,534.5,367.5,534.6z"/>
					<path id="XMLID_91_" class="st0" d="M4.6,537.3l-0.8,0C4.1,537.2,4.3,537.3,4.6,537.3z"/>
					<path id="XMLID_92_" class="st0" d="M719.3,540.1c-1.1,0.2-3.3,0-3.3,0.1C717.2,540.3,718.8,540.4,719.3,540.1z"/>
					<path id="XMLID_93_" class="st0" d="M342.2,541.6l-0.7,0C341.8,541.6,342,541.6,342.2,541.6z"/>
					<path id="XMLID_97_" class="st0" d="M4.6,537.3l0.9,0c-0.1,0-0.2-0.1-0.3-0.1C5,537.2,4.8,537.3,4.6,537.3z"/>
					<path id="XMLID_98_" class="st0" d="M242.5,534.5C242.5,534.5,242.5,534.5,242.5,534.5c0.1,0,0.2,0,0.3,0L242.5,534.5z"/>
					<path id="XMLID_99_" class="st0" d="M235.9,534.2c0.5,0,0.9,0,1.4-0.1C236.5,534.1,236.1,534.1,235.9,534.2z"/>
					<path id="XMLID_100_" class="st0" d="M2.9,535.9L1.2,536C1.8,536,2.4,535.9,2.9,535.9z"/>
					<path id="XMLID_105_" class="st0" d="M164.4,534.4c0.2,0,0.4,0,0.7,0C164.7,534.4,164.5,534.4,164.4,534.4z"/>
					<path id="XMLID_106_" class="st0" d="M571.3,535.4c0.2,0,0.4,0,0.6,0C571.9,535.4,571.9,535.4,571.3,535.4z"/>
					<path id="XMLID_107_" class="st0" d="M521.9,540.4L521.9,540.4C521.8,540.4,521.8,540.4,521.9,540.4
						C521.8,540.4,521.9,540.4,521.9,540.4z"/>
					<path id="XMLID_108_" class="st0" d="M524.5,540.1c-0.8,0-2,0.1-2.6,0.2C522.7,540.4,523.5,540.3,524.5,540.1z"/>
					<path id="XMLID_109_" class="st0" d="M516.2,540.3c0.1,0,0.2,0,0.3,0C516.4,540.3,516.3,540.3,516.2,540.3z"/>
					<path id="XMLID_110_" class="st0" d="M569.3,540.6C569.3,540.6,569.3,540.6,569.3,540.6C569.3,540.6,569.2,540.6,569.3,540.6
						L569.3,540.6z"/>
					<path id="XMLID_111_" class="st0" d="M558.8,540.7c-0.2,0-0.4-0.1-0.7-0.1C558.2,540.6,558.5,540.7,558.8,540.7z"/>
					<path id="XMLID_112_" class="st0" d="M490,540.8C490,540.8,490,540.8,490,540.8C490,540.8,490,540.8,490,540.8
						C490,540.8,490,540.8,490,540.8z"/>
					<path id="XMLID_113_" class="st0" d="M391,542.2c9.9-0.1,22.8-0.5,32.7-0.4c2.1-0.4,5.3-0.4,8.4-0.5l0.3,0.5l2.6-0.2
						c1.1,0.2-2,0.1-0.1,0.3l1-0.3c0.2,0.2,6.7,0.1,2.3,0.5l10.2,0c2.3,0,1.3-0.4,3.8-0.3c0.5,0.1-0.9,0.1-0.7,0.3
						c7.5,0.4,8.6-1,15.6-0.8l-0.6,0.1c1.2-0.1,3.4-0.1,3.5-0.2c-0.9-0.5-1.3,0.3-3.4,0c0.2-0.4,2.7-0.2,2.5-0.6
						c1.6,0.2,2.6-0.1,4-0.1c2.4,0.3,5.9,0.1,7.7,0.4c1.2-0.1,2.5-0.6,5.1-0.6c1.8,0.3-0.4,0.3,2.1,0.5l0.4-0.3c2,0,1.7,0.1,1.6,0.2
						c2.2,0,1.8-0.3,4.6-0.2l-1.5,0.2c2-0.1,2.9-0.1,5.7,0c-0.1,0.1-1.2,0.1-2,0.1c1.5,0.4,2.6-0.2,3.5-0.1
						c-0.2-0.1-2.2-0.2-1.2-0.4c1.4,0,3-0.3,4,0l-1.5,0.2c2.9-0.2,1.6-0.3,4.9-0.2c-0.2,0-0.1,0.1-0.2,0.1c2.1-0.3,4.9,0,8,0
						l-0.6,0.1c1.3-0.1,2-0.3,2.6-0.3c-1.8-0.1-1.3-0.2-1.5-0.5c2.4,0.4,3.6-0.5,7.5-0.2c-0.1,0.1-1,0.3-2.1,0.2
						c-1.3,0.4-1.5,0.8-3.8,1c1.5-0.1,3.2-0.2,2.8,0l0.5-0.4c0.9,0,1.6,0,2.3,0c0.4-0.3-1.8-0.4,0.3-0.6c2.3-0.1,1.2,0.4,1.6,0.2
						c3.2-0.2,1.3-0.4,4.4-0.3c-0.3,0-0.9,0.1-1.2,0.1c2.2,0.2,5.4-0.1,6,0.4c-0.3,0.1-0.4,0.2-1.2,0.2l0-0.1
						c-2.4,0.3,2-0.1,1.3,0.3c-0.2-0.3,2.9-0.2,4.3-0.2l-0.4-0.3c4.6-0.9-0.2,0.6,4.3,0.5c2.9-0.2-1.1-0.1,0.7-0.3
						c2,0.1,2.7,0.3,5.6,0.2c0.8,0.1,2.4,0.3,2.6,0.6c1.7-0.1,5.3,0.1,6.3-0.2c-3-0.3-3,0.3-6.5-0.1l1-0.3c2.4,0,5.5-0.1,7.2,0
						c-0.3-0.1-0.5-0.1-0.3-0.2c3.4-0.1,4.4-0.4,7.8-0.3c0.4,0.3-1.5,0.2-2.9,0.3c2.2,0.2,2.3,0,5.6,0.1c0.2,0.3-2.3,0-2.6,0.2
						l3.7-0.1c0,0,0,0,0,0.1c0.5-0.4,2.8,0,5.1-0.1c5.4,0,6.2-0.6,9.2-0.9c0.8,0.1,1,0.2,0.7,0.3c-1.3-0.2-1.1,0-1.5,0.1
						c1.8,0,4,0.4,3,0.6c2.9-0.1-1-0.2,0.7-0.4l3.9,0c-0.5-0.2-1.9-0.3,0.2-0.4c1.7-0.1,2.6,0,4.8,0c-0.3,0.1,0.7,0.3-1,0.3
						c1.1,0.1,2.8,0.1,3.4-0.1c-2.5-0.2,4-0.2,2.2-0.5l2.5,0.2c-0.6,0-0.6,0.1-1.5,0.1c0.7,0.3,2-0.1,2.9-0.1
						c0.9,0.1,3.1,0.1,3.3,0.2c0.8-0.1,2.7,0,3,0.2c1.2-0.1,0.1-0.2,0.4-0.3l3.9,0c0.2,0.2,0.5,0.7-0.1,0.8c1.5-0.2,0.5-0.5,2.8-0.5
						c-1.3,0.4,3,0.3,1.1,0.7c1.3,0.3,5,0.3,7,0.2c1.3-0.3-2.2-0.2-2.1-0.5c5.7-0.1,6-0.9,10.2-0.8l-1.1-0.1
						c2.6-0.2,2.3-0.1,3.8-0.4c-0.7,0.4,3,1,7.2,0.9c0.4-0.2-2.4-0.3-1.7-0.6l2.8-0.1c0.2,0-0.1,0.1-0.5,0.1c2.6-0.1,4.7,0.5,5.5,0
						l2.6,0.5l-1-0.2c0.4-0.2,3.2-0.2,3.8-0.3c2.9-0.2,4,0,5.6,0.2c-0.5-0.1-1.8-0.5,0.5-0.5c0,0.6,4.8,0.2,4.7,0.5
						c0.9,0,2.6,0.2,2.7-0.1l-0.2,0.4c0.2-0.5,3.6-0.5,6.2-0.6c-0.6,0.7,2.8-0.1,4,0.6c0.5-0.5,4.6-0.2,5.1-0.6c2,0,1.8,0.4,2.3,0.6
						l0.9-0.2c1,0.2,4.7,0.3,7,0.4l2.1-0.4l0.8,0.2c0.3-0.1,2.1-0.2,1-0.3l1.1,0c0.1-0.4,1.6-0.1,3.8-0.3c0.5,0.1,0.4,0.2-0.1,0.2
						c1.1,0,0.6,0.2,1.2,0.4c-0.8-0.1,4-0.8,1-1c-0.2-0.2,1.6-0.3,2.7-0.2l0.7,0.4l1.3-0.4c1.7-0.1,2.5,0.2,3.8,0.2
						c-1.4,0-3.2,0.8,0.5,0.8c-1.9,0.1-2.9,0.3-3.9,0.4c0.8,0,1.1,0.1,0,0.2c2.9-0.1,1-0.2,3.8-0.3c-0.2,0.4,0.6,0.5,3.1,0.6
						l-1.9-0.3c0.1,0,0.2-0.1,0.4-0.1c-0.7,0-0.9-0.1-1.1-0.2c0.6,0,3.3-0.4,3.8-0.2c-2.9-0.6,5-0.4,3.2-0.8
						c0.3-0.1,2.3-0.1,2.5,0.1c-2.4,0.3,1.8,0.4,1.4,0.7c0.9-0.1-1.9-0.3-0.7-0.4c1.4,0,2.5,0.2,3.2,0.3l-0.6,0.1l2.2,0.2
						c0.4-0.2-2.1-0.3-0.1-0.4c0.5,0.1,2.6,0,2.5,0.1c-1,0.2-0.3,0.6-2,0.6c1.4,0,6-0.1,4.1-0.4l1.7,0c-1.1-0.2-4.1-0.4-0.6-0.5
						l0,0.1l2.4-0.3l1,0.2c0-0.1,0.3-0.2,1.2-0.2c0.2,0.1,1.1,0.2,1,0.3c2.6,0,2.3-0.2,2.7-0.3c1.4,0,2,0.1,1.3,0.3
						c2,0,5.4,0,6.7,0.2c2.6-0.2-0.5-0.1,1-0.3c2.3,0.6,8.7,0.2,12.9,0.2c-1.2-0.6,1.2-0.1,2-0.6c-0.9,0.2,4.1,0.4,0.3,0.6l2.3-0.1
						c1.6,0.3-3.8,0.2-1.4,0.6c2.6,0,4.2-0.6,7.3-0.4c-1,0.4,2.3-0.1,1.6,0.3c-0.6,0.1-1.5,0.1-2.3,0.1l0.5,0.1
						c5.6,0.1,1.6-0.5,4.6-0.7c3.4,0,2.7,0.3,2.9,0.5c0.5,0.1,2.3,0,3.2-0.1c-2.1,0.2-3.9-0.2-2.9-0.5c1.5,0.4,5.1,0,6-0.1
						c-4.9-0.5-3.4,0-8-0.5c-0.6,0.1-0.5,0.5-3.3,0.4c1.7-0.2-0.1-0.2-0.6-0.3c0.5,0.2-1.9,0.1-2.7,0.2c-0.8-0.2,1.6-0.5-1.1-0.6
						l-0.5,0.5c-1.1-0.1,0.5-0.4-1.9-0.3c1.3-0.3-0.4-0.4,2.8-0.5c-3.7-0.5-5.8,0.2-8.7,0.4c0.3,0,0.3-0.1,0.6-0.1
						c-0.6,0.1-1.8,0.1-2.6,0.2c-1.9-0.1,1.5-0.2,1-0.4l-3.1,0c-0.1,0-0.1,0-0.1,0c-0.8,0.1-1.6,0.1-1.9,0c0.9-0.2,1.3-0.4,1.9-0.5
						l-3.3,0.4c0.4-0.2-2.7-0.3-0.4-0.4l-4.8,0.1l-0.4-0.4c-1.2,0.1-1.2,0.1,0.2,0.2c-1.7-0.1-7.3,0.6-6.5-0.1
						c-3.8,0.3-5.2,0.2-9.8,0.4c3.5-0.3-4.1-0.4-0.3-0.6c-2.2-0.2-2.7,0.2-4.4,0.3c-1.6-0.2-0.9-0.5,0.9-0.6l-2.1,0.2l0-0.1
						l-1.8,0.2c-1.9-0.2-0.4-0.4-2.4-0.4l-0.4,0.3l-1.3-0.2c0.5,0.1-0.7,0.2-2.1,0.2l0-0.1l-1.7,0.1c1.7-0.2-1.6-0.1-0.8-0.3
						c-1.5,0-1.5,0-4.2,0l0.5,0.2c-3.5,0.2-0.1-0.3-3-0.3l0.2,0.3c-4.1-0.4-6.9,0.2-9.9,0c1.7-0.1,1.3-0.4,1.3-0.3
						c-2.6,0.1-6.8,0-9.5,0.3c-1-0.4-1.2-0.5-4-0.6c-2,0-2.3,0.1-2.9,0.3c-1.9-0.1-5.6,0.1-5.7-0.2c-0.4,0.2-1.7,0-2.8,0.1l-0.2-0.1
						l0.2,0.3c-3.4-0.6-5.8,0.3-9.3-0.2l0.6-0.1l-1.5,0.1c-0.2-0.1,0.4-0.2,0.4-0.3l-6.8,0l1.3,0.2c-1.4,0-2.4,0.3-4,0.1
						c2.7-0.4-2.2,0-2.7-0.3l1.5-0.1c-2,0-2,0-1.8,0.3c-2.6,0.1-1.8-0.5-4.1-0.2l1.7,0c0.5,0.1-0.7,0.4-1.8,0.3
						c-0.3,0-1.1-0.2-0.2-0.2c-2,0.1-5.1,0-6,0.1c-1.1-0.1-0.7-0.3-0.1-0.3c-4.3,0.2-2,0-6.3,0.2l0.1-0.1l-1.5,0.2l-2.1-0.3l0.8,0.2
						c-1.4,0-2.3,0.1-4,0l0.7-0.2c-4,0.1-4.6-0.4-8.5-0.1c-0.3,0,0.3-0.1,0.6-0.1c-3.5,0.3-2.7-0.4-6.2,0c0.2-0.1-0.2-0.2,0-0.2
						l-1.6,0.1l0.1-0.3l-1.3,0.4l-1-0.3l-0.6,0.1c-1.7-0.6-4.2-0.1-6.5-0.6l0.4,0.4c-6,0.8-13.7-0.4-20.9-0.1l0.1-0.3l-3,0.3
						c-1.6-0.2,1-0.2,0.5-0.4c-3.2,0.2-1.3,0.4-5,0.5c-1.9-0.2,0.7-0.2,1.6-0.3c-3.5,0.1-8.6,0.3-11.1,0.1c-0.1,0-0.2,0.1-0.1,0.1
						c-2.3,0.1-5.4,0-7.9,0c0.1-0.1,0.7-0.2,1.3-0.2c-0.9,0-2.2-0.1-3,0l1-0.2c-2-0.1-5.7,0.2-6.2-0.1c0.2,0.1,0.1,0.3-1.6,0.3
						c-0.9-0.4-4.6,0.2-7.3-0.1c0.3-0.1,2.3-0.1,1.8-0.1c-1.4-0.1-2.6,0.1-3.8,0.2l0.4-0.2l-6.3,0.2c-0.9-0.4-6,0.1-5.5-0.3
						c-2.3,0,1.9,0.2-1,0.2c-0.8-0.2-2.6,0.1-2.5-0.2l0.3,0l-2,0l1.3-0.3c-1.7,0.1-3,0.3-3.1,0.6c-1.6-0.2-3.9,0-4.7-0.3l0.6-0.1
						c-4.6,0.1-7.6-0.8-11.2-0.3c-0.3,0-0.2-0.1,0.3-0.1l-2.8,0l0.7-0.2l-4.7,0.3l0.1-0.1c-3.1-0.1-7.9,0-11.9,0.1l0.6-0.1
						c-4.3,0.2-4.2-0.1-7.4,0c0.1,0,0.2-0.1,0.3-0.1l-2.9,0l0.6-0.1c-2.1,0.3-6-0.4-4.7-0.1c-1.2,0.1-3.3,0.3-3.6,0.5
						c-3.1,0-0.8-0.2-2.7-0.3c-2.3,0-2.7,0.2-5.7,0.1l0.1-0.1c-1.4,0-2.3,0.1-4.3,0.2l0.6-0.1c-3.2,0.3-4-0.4-6.6,0.2
						c-1.4-0.1-3.9,0-3.8-0.3c-4,0.2-7.2,0.3-11.2,0.4c-0.6-0.5-0.9,0-3.3-0.2l0.2,0.3c-5.7,0-12.2-0.6-18.4-0.5l-0.2-0.3l-1.3,0.3
						c-6.7-0.1-15.5-0.2-20.8-0.2c-1.8,0.1-4.4,0.4-7.2,0.3l0.3,0c-4.9,0.1-10,0.3-15.3,0.1c0.3-0.1-0.2-0.2,0.4-0.3
						c-1.3,0.3-3.1,0-4.3,0l1.3,0.2c-1.5,0.2-3.7,0-4.4-0.2l-2.4,0.3c-0.2,0-0.4-0.1-0.4-0.1l-0.4,0.1l-1.3-0.3
						c-0.6,0.1-3.7,0.2-4.7,0.5c-0.2-0.1-2.5-0.2-0.7-0.3l-8.7-0.1l1.4,0.1c0.2,0.3-2.5,0.4-3.8,0.3c1.8-0.2,0.1-0.4-0.6-0.5
						c-1.2,0.1,1,0.2,0.4,0.4c-1.5,0.2-4.6,0.3-5.4,0.1l0.9-0.1c-2,0.1-3-0.3-4.9-0.3c-1.8,0.2-3.1,0-2.7,0.5
						c-2.6,0.1-1-0.3-1.8-0.3c-1.2,0.2-4.8,0.1-5.3-0.1c-1.4,0.6-7-0.2-7.5,0.3l-2.1-0.3c-0.1,0.1-0.5,0.5-2.2,0.5
						c-1.6-0.2-1.2-0.4-1.7-0.6l-1.1,0.5c-9.4-0.6-21.7-0.2-31.9-0.7c-4.6,0.1-10.3,0.4-15.7,0.3l0.6-0.1l-5.3-0.1l3.9,0.2
						c-1.2,0.1-2.1,0.2-3.2,0.2c-5.8-0.2-13.6-0.5-20.8-0.2c-4.6,0.6-3.1-0.5-7.5-0.1c0.4-0.1,0.5-0.1,0.9-0.2
						c-4.8,0.2-7.4,0.3-12.2,0.7c0.6-0.6-3.1,0-2.7-0.3l-0.4,0.2c-1.1-0.2-3.6-0.2-3.2-0.4l-2.1,0.3l-0.2-0.3
						c-2.8,0-8.8,0.2-10.3-0.3c-7,0.4-17.9,0.3-26.7,0.2c-1.2,0.2-3.8,0.2-5.8,0.2l-2.1-0.3c-2,0.1-4.2,0.5-6.1,0.3
						c0,0,0.1-0.1,0.2-0.1c-2.1,0.1-4-0.1-5.9,0.2c-2.3,0-4.4-0.2-3.8-0.5c-0.2,0.5-4.8-0.1-4.8-0.1s-115.7-1.2-144,1.5
						c-0.9,0.2-3.6,0.4-2.6,0.7c-2,0.1-3-0.3-3.4-0.1c2.8,0.2-0.9,0.6,1.8,1l-1.7,0.1c-0.4,0.2,2.4-0.2,1.9,0.1l0.5-0.5
						c1.4,0.1,2.2,0.2,2.7,0.3c1.3-0.2,2.2-0.8,5.3-0.5l-0.9,0c2.6,0,1.6,0.3,2.1,0.4l-0.6,0l2.2,0.2c-1.6-0.2-4.3,0.2-2.9,0.2
						c3.1,0.1-0.8-0.1,1.5-0.2c1.4,0,1,0.2,1,0.4l2.6,0c-0.1,0.2-1.7,0-0.7,0.2l3.2-0.2c0.6,0.5,3.5-0.3,5,0.3
						c-2.3,0.1,0.2,0.2-0.2,0.4l5.7,0c0.5,0.1-1.5,0.2-0.6,0.1c1.1,0.2,1.8-0.1,2.3-0.1c0.5,0.2,4.2,0,4.1,0.4
						c3.8,0.2,1.6-0.5,5.2-0.3c0.5,0.2-2.8,0.1-1.3,0.3l3.7-0.1c-0.3,0.1-0.7,0.4-2.1,0.3c10,0.3,15.5,1.5,24.7,1.2
						c1.3,0.3-0.9,0.2-1.9,0.3c6.7-0.3,9.4,0.6,15,0.5l0.1-0.2c7.9,0.7,17.4,0.3,26.3,0.6l-1.1-0.2c1.2-0.2,3.2-0.2,4.7-0.3
						c0.2,0.1-1.1,0.5,1.5,0.4c-0.5-0.1-1.6-0.2-1.3-0.3c7.7,0.6,23.9,0.4,36.5,0.7c17-0.2,35.5,0.3,52.3,0.1
						c-2.6,0-1.5-0.5,0.5-0.4c5.3,0.9,9.1-0.2,14.5,0.5c9.8-0.3,18.5,0.5,27.5-0.2l0.2,0.3c1.4,0.1,1.7-0.1,3.1-0.1l0,0.1
						c3.4,0.1,7.4-0.2,9.4,0l0.1-0.3c2,0,1,0.2,3.1,0.1l-0.1,0.1l2.4-0.3c-0.2,0.5,5.6,0,7.2,0.3c2.6-0.1,7.5-0.3,11.4-0.2
						c0.7,0.3,5.5,0.3,8.6,0.4c6-0.1,14.5-0.1,22.1-0.1l-0.1-0.3l2,0c0,0.1,0.2,0.1-0.1,0.1c1.5,0.4,4.6-0.1,6.2,0.1
						c-1-0.3-1.4,0-2.5-0.1c-1.6-0.2-0.1-0.5,2.1-0.3l0,0.1l1.5-0.2c0.2,0.3,1.5,0.4,1.7,0.6c6.5-0.1,11-0.5,17.7-0.4
						c-0.7,0.3,4.8-0.1,3.5,0.4c4-0.2-0.7-0.4,1.2-0.8c1.1,0,2.3-0.1,2.5,0.1c-0.5,0.1,0.9,0.3,0,0.3l2.7,0c0.3,0-0.3,0.1-0.6,0.1
						c5.5-0.3,9.8,0.3,14.7,0c0.4-0.2-2-0.1-1.6-0.2c5-0.4,4.4,0.3,9,0.1l-1,0.2c1.5-0.2,2.2-0.4,4.6-0.2c0.4,0.3-2.1,0.2-3.3,0.4
						c1.7,0,6-0.1,4.7-0.3c2-0.1,2.8,0.2,3.9,0.2c0-0.1-1.9-0.2-0.7-0.3c2.8,0.2,7,0.2,10.4,0.2c0,0.1,0.2,0.2-0.1,0.2
						C387.5,541.6,387.3,542.3,391,542.2z"/>
					<path id="XMLID_114_" class="st0" d="M570.6,540.7l-1.4,0c0,0.1-0.1,0.1-0.7,0.2L570.6,540.7z"/>
					<path id="XMLID_115_" class="st0" d="M506.1,540.5c-0.2,0-0.3,0-0.5,0.1C506,540.6,506.1,540.5,506.1,540.5z"/>
					<path id="XMLID_116_" class="st0" d="M490.5,541c1.1-0.1,0.1-0.1-0.4-0.2C490,540.9,490,540.9,490.5,541z"/>
					<path id="XMLID_117_" class="st0" d="M607.2,539.9c-0.2,0-0.4,0.1-0.3,0.1C607.2,540,607.2,540,607.2,539.9z"/>
					<path id="XMLID_118_" class="st0" d="M708.2,540.1c-0.1,0-0.2,0-0.4,0C707.8,540.1,708,540.1,708.2,540.1z"/>
					<path id="XMLID_119_" class="st0" d="M702.6,539.7c-0.3,0-0.6,0-1.1,0C701.9,539.7,702.3,539.7,702.6,539.7z"/>
					<path id="XMLID_120_" class="st0" d="M582.7,540c-0.4,0-0.7,0-1.1,0.1C582.2,540.1,582.5,540.1,582.7,540z"/>
					<path id="XMLID_121_" class="st0" d="M700.3,539.8l-1.4,0c0,0,0,0,0,0.1L700.3,539.8z"/>
					<path id="XMLID_122_" class="st0" d="M709.9,540.2c-0.5,0-1.3,0-1.8,0C708.9,540.2,709.4,540.2,709.9,540.2z"/>
					<path id="XMLID_123_" class="st0" d="M644.2,539.6c0,0-0.1,0-0.2,0C643,539.7,643.7,539.6,644.2,539.6z"/>
					<path id="XMLID_128_" class="st0" d="M694.1,540.3c-0.1,0-0.1,0-0.2,0l-0.4,0.1L694.1,540.3z"/>
					<path id="XMLID_129_" class="st0" d="M716,540.3c-0.3,0-0.5,0-0.7,0.1C715.5,540.3,715.8,540.4,716,540.3
						C716.1,540.3,716,540.3,716,540.3z"/>
					<path id="XMLID_130_" class="st0" d="M665.4,540c0.4-0.1,0.5-0.2,0.6-0.2C665.5,539.8,665.2,539.8,665.4,540z"/>
				</g>
			</g>
		</g>
	</g>
</g>
<g id="XMLID_1_" class="st1">
	<g id="XMLID_165_" class="st2">
		<g id="XMLID_2_">
			<g id="XMLID_3_">
				<g id="XMLID_4_">
					<path id="XMLID_5_" class="st0" d="M915.5,204.6c0.1,0,0.2,0.1,0.3,0C915.5,204.6,915.5,204.6,915.5,204.6z"/>
					<path id="XMLID_6_" class="st0" d="M832.2,160.9l1.1,0.2C832.6,161,832.4,160.9,832.2,160.9z"/>
					<path id="XMLID_7_" class="st0" d="M951.6,248C951.6,248,951.6,248,951.6,248c0.1,0.3,0.4,0.7,0.8,1.3c0.3,0.6,0.7,1.2,1.2,2.1
						c0,0-0.5-0.8-0.9-1.7c-0.2-0.4-0.5-0.8-0.7-1.1C951.8,248.2,951.6,248,951.6,248z"/>
					<path id="XMLID_11_" class="st0" d="M646.6,217.7l0.9-0.9C647.1,217.2,646.8,217.5,646.6,217.7z"/>
					<path id="XMLID_13_" class="st0" d="M750.1,159.6c-0.4,0.1-1,0.3-1.6,0.5C749.3,159.9,749.9,159.7,750.1,159.6z"/>
					<path id="XMLID_14_" class="st0" d="M962.7,275.7c0,0-0.1-0.4-0.2-0.8c-0.1-0.4-0.2-0.8-0.2-0.8
						C962.2,274.2,962.4,274.8,962.7,275.7z"/>
					<path id="XMLID_15_" class="st0" d="M977.1,330.4c0,0,0-0.1,0-0.2C977.1,330.1,977.1,330.2,977.1,330.4z"/>
					<path id="XMLID_16_" class="st0" d="M974.5,308.3c-0.1-0.5-0.3-1-0.4-1.5C974.2,307.4,974.4,308.2,974.5,308.3z"/>
					<path id="XMLID_17_" class="st0" d="M973.8,306c0.1,0.2,0.1,0.5,0.2,0.7C973.9,306.3,973.8,306,973.8,306z"/>
					<path id="XMLID_18_" class="st0" d="M981,357.2c0.1-1.7-0.1-3.1-0.1-4.6L981,357.2z"/>
					<path id="XMLID_19_" class="st0" d="M600.2,389.3L600,389C600.1,389.3,600.2,389.4,600.2,389.3z"/>
					<path id="XMLID_20_" class="st0" d="M979.4,355.1l0.1-1.2C979.4,354.4,979.4,354.8,979.4,355.1z"/>
					<path id="XMLID_21_" class="st0" d="M948.5,249.4c-1-1.3-2.7-4.2-2.8-4.1C946.7,246.7,947.9,248.8,948.5,249.4z"/>
					<path id="XMLID_22_" class="st0" d="M618.7,423.6l0.5,1C619,424.1,618.8,423.8,618.7,423.6z"/>
					<path id="XMLID_23_" class="st0" d="M979.4,355.1l-0.1,1.4c0-0.1,0.1-0.3,0.1-0.4C979.4,355.8,979.4,355.4,979.4,355.1z"/>
					<path id="XMLID_24_" class="st0" d="M720.8,529.1C720.8,529.1,720.8,529.1,720.8,529.1c-0.2-0.1-0.3-0.1-0.4-0.1L720.8,529.1z"
						/>
					<path id="XMLID_25_" class="st0" d="M730.4,532.8c-0.7-0.2-1.3-0.4-2.1-0.6C729.4,532.5,730,532.7,730.4,532.8z"/>
					<path id="XMLID_26_" class="st0" d="M980.8,352.7l-0.1-2.6C980.8,351,980.8,351.8,980.8,352.7z"/>
					<path id="XMLID_27_" class="st0" d="M839,535c-0.3,0.1-0.7,0.2-1,0.3C838.5,535.2,838.8,535.1,839,535z"/>
					<path id="XMLID_28_" class="st0" d="M757.8,158.3c0.2,0,0.6-0.1,0.9-0.1C758.7,158.2,758.7,158.1,757.8,158.3z"/>
					<path id="XMLID_29_" class="st0" d="M690,189L690,189L690,189C690,189.1,690,189,690,189z"/>
					<path id="XMLID_30_" class="st0" d="M693.2,186.8c-0.5,0.3-1.2,0.7-1.8,1.1c-0.6,0.4-1.1,0.8-1.5,1.2
						C691,188.4,692,187.7,693.2,186.8z"/>
					<path id="XMLID_31_" class="st0" d="M682.9,193.6c0.1-0.1,0.2-0.1,0.4-0.2C683.1,193.4,683,193.5,682.9,193.6z"/>
					<path id="XMLID_32_" class="st0" d="M755.7,164C755.7,164,755.7,164,755.7,164C755.7,164,755.6,164,755.7,164L755.7,164z"/>
					<path id="XMLID_33_" class="st0" d="M740.4,167.5c-0.3,0-0.7,0.1-1.1,0.2C739.6,167.6,740,167.6,740.4,167.5z"/>
					<path id="XMLID_34_" class="st0" d="M653.6,219.3C653.6,219.3,653.6,219.3,653.6,219.3C653.6,219.3,653.6,219.3,653.6,219.3
						C653.6,219.3,653.6,219.3,653.6,219.3z"/>
					<path id="XMLID_35_" class="st0" d="M603.5,353.4c0-1.8-0.2-3.7-0.2-5.7c0-2,0.1-4,0.1-6c0-1,0-2.1,0-3.1
						c0.1-1,0.1-2.1,0.2-3.1c0.1-2.1,0.3-4.2,0.4-6.3c0.2-2.1,0.5-4.2,0.7-6.3c0.1-1,0.2-2.1,0.4-3.1c0.2-1,0.3-2,0.5-3
						c0.4-2,0.7-4,1-5.9c0.4-1.9,0.9-3.7,1.3-5.5c0.2-3.2,1.6-7.7,2.8-12.2l0.6-0.3l1.1-3.7c0.7-1.4-0.9,2.9,0.2,0.3l0.2-1.5
						c0.1-0.1,0.9-2.5,1.6-4c0.7-1.5,1-2.2,0,0.9c0,0,0.1-0.2,0.2-0.6c0.2-0.4,0.4-0.9,0.6-1.6c0.5-1.3,1.2-3.1,1.9-4.8
						c0.7-1.8,1.5-3.5,2-4.8c0.6-1.3,1-2.1,1-2.1c0.7-1.5,0.8-2,0.9-2.5c0.1-0.5,0.3-1.1,1.2-2.7c0.5-0.6-0.5,1.2-0.2,1
						c1.3-2.4,2.3-4.4,3.1-6.1c0.8-1.7,1.5-3.1,2.2-4.5c0.7-1.4,1.3-2.8,2.1-4.4c0.9-1.6,2-3.3,3.4-5.5l-0.4,0.8
						c0.4-0.8,1.1-1.9,1.6-2.8c0.6-0.9,1.1-1.6,1-1.6c-1.2,0.8-0.8,1.7-2.8,4.2c-0.2-0.5,1.9-3.5,1.6-3.5c1.5-1.9,2.2-3.2,3.4-4.9
						c0.6-0.7,1.2-1.5,1.8-2.3c0.7-0.8,1.3-1.6,2-2.4c1.3-1.6,2.6-3.2,3.5-4.1c1-1.4,2-3.2,4.5-6.1c1-0.9,1-0.7,1-0.7
						c0,0.1,0.1,0,1.4-1.3l0.2-0.6c2.1-2.2,1.9-1.8,1.9-1.6c1.1-1.2,1.5-1.7,2-2.3c0.2-0.3,0.5-0.6,0.9-1.1c0.4-0.4,0.9-0.9,1.7-1.6
						l-1.5,1.7c2.1-2.2,3-3,6.1-5.9c0,0.2-1.2,1.3-2.1,2.1c1.9-1.3,2.7-2.8,3.7-3.6c-0.2,0.1-0.8,0.6-1.3,0.9
						c-0.5,0.4-0.8,0.6-0.4,0c1.6-1.4,3.1-3.2,4.5-3.9l-1.6,1.7c1.6-1.5,2-1.9,2.4-2.4c0.2-0.2,0.5-0.5,0.9-0.9
						c0.4-0.4,1.1-0.9,2.1-1.6c-0.2,0.2-0.1,0.1-0.1,0.3c2.3-2.2,5.7-4.6,9.5-7.2l-0.7,0.6c1.5-1.2,2.2-1.9,3-2.5
						c-2.3,1.4-1.7,0.9-2,0.9c1.6-0.8,2.6-1.8,3.9-2.8c1.3-1,2.8-2.2,5.3-3.6c0,0.2-1.1,1.1-2.5,1.8c-0.7,0.7-1.1,1.2-1.6,1.7
						c-0.5,0.6-1.3,1.1-2.6,2.2c0.8-0.7,1.8-1.4,2.5-1.8c0.7-0.5,1.2-0.7,1-0.5l0.4-0.7c1.1-0.7,2-1.3,2.8-1.8
						c0.3-0.5-2.5,1.1,0-0.7c1.4-1,1.9-1.1,2-1.1c0.1,0-0.1,0.2,0.1,0c4-2.5,1.5-1.3,5.5-3.5c-0.4,0.3-1.1,0.8-1.5,0.9
						c2.9-1.6,7.1-3.9,8.1-3.9c-0.4,0.3-0.4,0.5-1.5,1l0-0.1c-3,1.9,2.6-1.5,1.8-0.6c-0.3-0.1,3.8-2.2,5.7-2.9l-0.7,0
						c5.9-3.6-0.1,0.7,6.1-2.2c3.9-1.8-1.6,0.5,0.8-0.7c2.7-1,3.9-1.2,7.8-2.9c1.2-0.3,3.5-0.9,3.8-0.7c1.2-0.5,3.1-1.1,4.8-1.6
						c1.7-0.5,3.4-1,4-1.3c-4.4,0.9-4.1,1.6-9.2,2.8l1.3-0.8c0.9-0.3,1.8-0.6,2.7-0.9c0.9-0.3,1.9-0.7,2.8-0.9
						c1.8-0.5,3.5-1,4.7-1.3c-0.5,0.1-0.7,0.1-0.5-0.1c1.2-0.4,2.2-0.7,3.1-1c0.9-0.3,1.7-0.5,2.5-0.7c1.6-0.4,3.1-0.9,5.6-1.4
						c0.7,0.1-2.2,0.7-4.2,1.3c1.6-0.2,2.4-0.4,3.5-0.7c0.5-0.1,1.1-0.3,1.8-0.4c0.8-0.1,1.7-0.3,2.9-0.5c0.3,0.2-3.3,0.5-3.8,1
						c0,0,0.3-0.1,0.8-0.2c0.5-0.1,1.2-0.2,1.9-0.4c1.4-0.3,2.7-0.5,2.7-0.5c0,0,0,0,0,0.1c0.4-0.3,1.4-0.5,2.8-0.7
						c0.7-0.1,1.4-0.2,2.2-0.3c0.8-0.1,1.6-0.2,2.5-0.3c7.9-1.1,9.1-1.6,13.5-2.3c1.2,0,1.6,0.1,1.1,0.3c-2,0-1.6,0.1-2.3,0.2
						c1.4-0.1,2.8-0.1,3.8-0.1c1,0.1,1.4,0.3,0.6,0.4c4.3-0.2-1.6-0.2,1.1-0.4l5.9-0.1c-0.7-0.2-2.8-0.2,0.3-0.4
						c0.6,0,1.2,0,1.7-0.1c0.5,0,1,0,1.6,0c1.1,0,2.2,0.1,3.9,0.1c-0.5,0.1,1.1,0.4-1.5,0.3c1.6,0.1,4.2,0.2,5.2,0
						c-1.8-0.1-0.3-0.2,1.3-0.1c1.6,0.1,3.4,0.1,2-0.2l3.7,0.5c-0.8-0.1-0.9,0.1-2.2-0.1c1,0.4,3,0.1,4.3,0.2
						c1.3,0.1,4.6,0.7,4.9,0.8c1.2,0.1,4,0.5,4.5,0.7c1.7,0.2,0.2-0.2,0.7-0.2c0,0,0.4,0,0.9,0.1c0.5,0.1,1.3,0.2,2,0.4
						c1.5,0.3,2.9,0.5,2.9,0.5c0.3,0.2,0.7,0.8-0.2,0.7c2.2,0.2,0.9-0.4,4.2,0.2c-2-0.1,4.3,1.3,1.5,1.1c0.9,0.3,2.7,0.8,4.6,1.3
						c1,0.2,2,0.5,2.9,0.7c0.9,0.2,1.8,0.5,2.5,0.7c1.9,0.2-3.1-1.1-2.8-1.3c4.1,1.1,6.3,1.5,8.3,1.9c2,0.4,3.6,0.8,6.5,1.9
						l-1.5-0.6c3.8,1.1,3.3,1,5.6,1.5c-0.6,0,0.4,0.6,2.2,1.5c0.9,0.5,2.1,1,3.3,1.6c0.6,0.3,1.3,0.6,2,0.9c0.7,0.3,1.4,0.6,2.1,1
						c0.6,0.1-3.1-1.8-2.1-1.6l3.9,1.7c0.3,0.2-0.2,0-0.7-0.2c1.8,0.7,3.3,1.6,4.6,2.2c1.3,0.7,2.2,1.3,2.8,1.3l3.2,2.2l-1.3-0.9
						c0.5,0.1,4.4,2,5.2,2.4c3.9,2,5.2,2.9,7.1,4.4c-0.3-0.3-0.8-0.7-0.8-0.9c-0.1-0.2,0.3-0.1,1.8,0.8c-0.3,0.5,6,4.1,5.7,4.3
						c1.2,0.8,3,2.4,3.3,2.3l-0.4,0.2c0.3-0.1,1.4,0.6,2.9,1.6c0.7,0.5,1.6,1,2.4,1.7c0.8,0.6,1.7,1.2,2.4,1.8
						c-1.1,0,3.4,2.6,4.3,4.2c0.8,0.1,5.3,4.4,6.1,4.5c2.2,2,1.7,2.1,2.1,2.8l1.1,0.8c0.5,0.6,1.7,1.9,3.1,3.3
						c1.4,1.4,2.9,3.1,4,4.4l2.4,2c0,0,0.2,0.2,0.3,0.5c0.2,0.2,0.3,0.5,0.3,0.5c0.4,0.3,2.1,2.2,1.2,0.9l1.1,1.3
						c0.4-0.2,1.6,1.7,4,4.1c0.4,0.7,0.2,0.6-0.3,0c1,1.3,0.4,0.9,0.9,1.7c-0.6-1,4.4,4.2,1.7,0.6c-0.1-0.4,1.7,1.6,2.6,3l0.3,1
						c0,0,0.4,0.3,0.8,0.7c0.4,0.3,0.7,0.7,0.7,0.7c1.5,2.1,2,3.1,3.2,4.9c-1.3-1.7-3.4-3.4-0.2,1.1c-1.7-2.3-2.7-3.4-3.7-4.5
						c0.6,0.9,0.9,1.4-0.2,0.1c2.6,3.4,1,1,3.5,4.5c-0.4,0,0.2,1,2.1,4.2l-1.3-2.5c0.1,0.1,0.2,0.2,0.4,0.4
						c-0.5-0.9-0.6-1.2-0.7-1.4c0.5,0.7,3,3.9,3.3,4.6c-0.9-2,0.2-0.4,1.4,1.3c1.2,1.7,2.3,3.6,1.8,2.4c0.3,0.4,1.8,3,1.8,3.3
						c-2-3,1,2.5,0.5,2.2c0.8,1.1-1.2-2.6-0.2-1.1c1.1,1.8,1.7,3.3,2.1,4.4l-0.5-0.8l1.4,3c0.4,0.4-1.2-3,0.3-0.3
						c0.3,0.7,1.8,3.4,1.6,3.4c-0.9-1.2-0.7-0.1-1.9-2.4c0.5,0.9,1.5,2.9,2.3,4.3c0.7,1.5,1.2,2.3,0.8,1l1,2.3
						c-0.5-1.5-2.1-5.7,0-1.1l-0.1,0l1.7,3.1l0.5,1.5c0.1-0.1,0.4,0.4,0.9,1.6c0,0.4,0.4,1.5,0.3,1.5c1.4,3.6,1.5,3.2,1.8,3.6
						c0.8,2,1,2.8,0.5,1.9c1,2.8,2.6,7.6,3.1,9.6c1.2,3.7-0.1-0.8,0.7,1.3c0.1,1.7,1,4.8,2,8.3c0.4,1.8,0.9,3.6,1.3,5.4
						c0.2,0.9,0.4,1.8,0.7,2.6c0.2,0.9,0.3,1.7,0.5,2.5c0.2-1.8,0.4,1.7,1.1,2.8c-0.4-1.3,0.6,6.1-0.5,0.6l0.7,3.4
						c0.1,2.3-1.2-5.5-1-2c0.4,1.9,0.7,3.4,1.1,5.1c0.3,1.6,0.7,3.4,0.8,5.6c-0.3-0.7-0.1,0.1,0,1c0.1,0.9,0.2,1.9-0.1,1.3
						c-0.2-0.9-0.3-2.2-0.5-3.4l0,0.8c0.1,1,0.2,1.9,0.2,2.5c0.1,0.6,0.1,1.1,0.2,1.5c0.1,0.7,0.2,0.9,0.3,0.9
						c0.2,0.1,0.4-0.3,0.7,1.9c0.4,5.1,0,4-0.2,4.4c-0.1,0.8,0.1,3.4,0.2,4.7c-0.3-3.1,0.1-5.8,0.4-4.4c-0.4,2.3,0.2,7.6,0.4,9
						c0.1-3.7,0.1-4.9,0.1-6.2c0-0.6,0-1.2,0-2.1c0-0.4,0-0.9,0-1.6c0-0.6,0-1.3,0-2.2c-0.2-0.9-0.6-0.7-0.7-4.9
						c0.4,2.6,0.2-0.2,0.2-0.9c-0.1,0.4-0.2-0.3-0.2-1.3c-0.1-1-0.3-2.2-0.4-2.8c0-1.2,0.8,2.4,0.4-1.8l-0.6-0.7
						c-0.1-1.6,0.5,0.6-0.1-2.8c0.5,1.8,0.4-0.6,1,4.1c-0.1-1.4-0.2-2.7-0.3-3.8c-0.1-1.1-0.3-2.2-0.6-3.2c-0.5-2-1-3.7-1.5-5.9
						c0.1,0.4,0.2,0.5,0.3,0.9c-0.3-0.9-0.6-2.6-0.9-3.8c-0.5-2.9,0.7,2.2,0.7,1.4c0,0-0.1-0.3-0.1-0.7c-0.1-0.4-0.2-1-0.4-1.6
						c-0.3-1.1-0.5-2.3-0.5-2.3c0-0.1,0-0.1,0-0.1c-0.3-1.2-0.7-2.3-0.6-2.8c0.5,1.3,0.8,1.8,1.1,2.7l-1.5-4.7
						c0.4,0.5-0.8-4,0.3-0.7l-2.1-7l0.2-0.7c-0.5-1.7-0.6-1.7-0.1,0.3c-0.3-1.2-1.3-3.8-2.1-6c-0.8-2.2-1.4-3.9-0.8-3.4
						c-1.1-2.7-1.9-4.4-2.7-6.4c-0.4-1-0.8-2-1.3-3.2c-0.5-1.1-1.2-2.4-1.9-4c2.5,4.7-2.1-5.8,0.3-0.7c-1.2-3.1-1.8-3.6-3.1-5.9
						c-1-2.3-0.2-1.4,1.2,0.9l-1.6-2.7l0.1,0l-1.4-2.3c-1.2-2.6,0.1-0.7-1.3-3.4l-0.6-0.4L955,254c0.2,0.7-0.7-0.8-1.8-2.6l0.1,0
						c0,0-0.3-0.6-0.7-1.1c-0.3-0.6-0.7-1.1-0.7-1.1c0.7,1.1,0.5,0.5,0.1-0.1c-0.4-0.7-0.9-1.5-0.5-1c-1.2-1.9-1.2-1.9-3.5-5.3
						l0.2,0.7c-1.5-2.2-1.5-2.2-1.4-2.3c0.1,0,0.4,0.1-0.9-1.7l-0.1,0.4c-1.6-2.6-3.1-4.8-4.7-6.6c-1.6-1.9-3-3.5-4.3-5.4
						c1.7,2,1.5,1.3,1.4,1.3c-0.6-0.8-1.3-1.6-2.1-2.6c-0.8-0.9-1.7-1.9-2.5-2.9c-1.7-1.9-3.5-3.9-5-5.2c-0.8-1.3-0.9-1.7-3.7-4.8
						c-2.2-2.2-2.5-2.4-3.4-2.9c-1-1.1-2.6-2.5-3.8-3.7c-1.3-1.2-2.4-2.1-2.4-2.3c-0.7-0.3-2-1.8-3.3-2.7l-0.2-0.3l0,0.4
						c-0.4-0.5-0.9-0.9-1.3-1.4c-0.5-0.4-0.9-0.8-1.4-1.1c-0.9-0.7-1.8-1.4-2.7-2c-0.9-0.6-1.8-1.3-2.7-2c-0.9-0.7-1.9-1.4-2.9-2.3
						l0.8,0.5l-1.9-1.2c-0.2-0.3,0.6,0.2,0.7,0.1c0,0-2.1-1.5-4.2-3c-2.1-1.4-4.3-2.8-4.3-2.8l1.6,1.3c-1.8-1.2-3.2-1.7-5.2-3.2
						c1.8,1,1.1,0.5-0.1-0.3c-1.3-0.7-3.1-1.7-3.3-2l2,1c-2.6-1.5-2.6-1.5-2.6-1.1c-1.7-0.9-2.2-1.4-2.8-1.8c-0.5-0.4-1-0.8-2.7-1.5
						c0,0,0.6,0.3,1.1,0.6c0.6,0.3,1.1,0.6,1.1,0.6c0.6,0.5-1.1-0.3-2.6-1c-0.3-0.2-1.4-0.9-0.2-0.3c-2.8-1.3-6.8-3.6-8.2-4
						c-1.5-0.8-0.9-0.7-0.1-0.4c-3.1-1.3-3.7-1.6-4.4-1.9c-0.3-0.2-0.7-0.3-1.3-0.6c-0.6-0.3-1.6-0.7-3.1-1.2l0.2-0.1l-2.2-0.7
						l-2.9-1.5l1,0.6c-1-0.4-1.8-0.7-2.7-1c-0.9-0.3-1.8-0.6-3-1l1,0.1c-2.9-0.9-4.6-1.6-6.2-2.2c-1.6-0.6-3.3-1.1-6.1-1.7
						c-0.4-0.1,0.5,0,1,0.1c-2.7-0.6-3.6-1-4.6-1.3c-1-0.3-2-0.6-4.7-1c0.3,0-0.2-0.2,0-0.2l-2.4-0.4l0.2-0.2l-2.1,0
						c0,0-0.4-0.2-0.7-0.3c-0.4-0.1-0.7-0.3-0.7-0.3l-1,0c-1.2-0.5-2.8-0.8-4.5-1.1c-0.8-0.2-1.7-0.3-2.6-0.5
						c-0.9-0.2-1.8-0.3-2.7-0.5l0.6,0.4c-9.1-0.7-20.8-2.5-31.9-1.9l0.2-0.3l-4.6,0.5c-2.5-0.2,1.5-0.3,0.7-0.4
						c-2.4,0.1-2.9,0.3-3.5,0.5c-0.6,0.1-1.3,0.3-4.1,0.5c-2.9,0,1-0.3,2.3-0.5c-5.3,0.4-13.1,1.6-16.8,2c-0.1,0.1-0.3,0.1-0.1,0.1
						c-3.5,0.8-8.1,1.3-11.9,2.3c0.1-0.2,1-0.4,1.9-0.6c-1.4,0.3-3.3,0.6-4.4,1l1.4-0.6c-1.5,0.3-3.6,0.8-5.4,1.3
						c-1.8,0.5-3.4,1-3.8,0.9c0.4,0,0.3,0.3-2.2,1c-1.5-0.1-6.7,2.3-10.7,3.4c0.4-0.3,3.3-1.3,2.5-1c-1,0.3-1.9,0.6-2.8,1
						c-0.9,0.4-1.7,0.8-2.5,1.2l0.5-0.4c0,0-2.2,0.9-4.5,1.9c-2.3,0.9-4.4,2-4.4,2c-1.5,0.2-8.3,3.8-7.8,3.3
						c-3.1,1.6,2.7-1.1-1.2,0.9c-1.1,0.4-3.5,1.9-3.5,1.5l0.4-0.2l-2.7,1.4l1.6-1.1c-2.3,1.2-3.8,2.5-3.9,2.7
						c-2.2,1.1-5.3,3-6.4,3.4c0,0,0.2-0.1,0.4-0.3c0.2-0.1,0.4-0.3,0.4-0.3c-2.9,1.9-5.5,3.3-7.9,4.7c-2.3,1.4-4.4,2.8-6.6,4.6
						c-0.4,0.2-0.4,0.1,0.3-0.4c0,0-0.9,0.6-1.8,1.3c-0.9,0.7-1.7,1.3-1.7,1.3l0.7-0.8l-5.5,4.7l0-0.2c-1.9,1.4-4.1,3.5-6.6,5.6
						c-1.2,1-2.4,2.2-3.6,3.3c-1.2,1.1-2.3,2.3-3.4,3.3l0.6-0.7c-0.6,0.6-1.1,1.1-1.6,1.6c-0.4,0.5-0.8,0.9-1.2,1.2
						c-0.7,0.7-1.2,1.2-1.7,1.7c-1,1-1.8,1.8-3.5,3.6c0.1-0.2,0.2-0.3,0.3-0.4c0,0-0.2,0.2-0.5,0.5c-0.3,0.3-0.6,0.7-1,1.1
						c-0.7,0.8-1.4,1.7-1.4,1.7l0.5-0.8c-0.9,1.3-2.5,3-3.7,4.2c-1.2,1.2-1.8,1.9-1.1,1.2c-1,1.5-2.9,4.1-3.1,4.7
						c-2.9,3.8-0.9,0.8-2.8,3.1c-2,2.8-2.2,3.4-5,7.2l-0.1-0.2c-1.2,1.9-1.8,3.1-3.4,5.7l0.4-0.8c-0.6,1.1-1.1,1.9-1.6,2.7
						c-0.5,0.8-0.9,1.4-1.2,2c-0.8,1.2-1.4,2.3-2.1,4.2c-1.2,1.7-2.9,5.3-3.1,5c-1.3,2.8-2.6,5.3-3.6,7.8c-0.5,1.3-1.1,2.5-1.6,3.8
						c-0.3,0.7-0.6,1.3-0.9,2c-0.3,0.7-0.5,1.4-0.8,2.1c-0.8,0.7-0.5,1.2-2.1,4.6l0.3-0.2c-3,8.2-6.7,17.5-8.6,27l-0.3,0.2l-0.2,1.9
						c-0.6,2.5-1,5.3-1.6,8.1c-0.1,0.7-0.3,1.4-0.4,2.1l-0.3,2.1c-0.2,1.4-0.4,2.9-0.6,4.3c-0.2,1.4-0.4,2.8-0.5,4.2
						c-0.1,1.4-0.2,2.7-0.3,4c-0.2,2.6-0.4,5-0.4,7c0,1.4,0.1,3.1,0.1,5c0,1,0,2,0,3c0,1,0.1,2.1,0.1,3.2l0-0.5
						c0.1,1.9,0.2,3.8,0.2,5.7l0.1,1.4l0.1,1.4c0.1,1,0.2,1.9,0.2,2.9c0.2,2,0.3,3.9,0.5,5.9c0.2,2,0.5,4,0.7,6
						c-0.2-0.5-0.1,0.3-0.3-0.6c0.3,0.9,0.4,2.1,0.5,3.3c0.1,1.2,0.3,2.3,0.4,3.2l-0.2-2.1c0.6,2.2,1,5.6,1,6.8c0,0,0.2,0.9,0.5,1.8
						c0.3,0.9,0.5,1.8,0.5,1.8c0,0.2,0.1,0.6,0,0.7l0.3,0.6l0.1,2c0.3,0.9,1.4,5.6,2.2,7c0,0.4,0.8,3.7,0.1,1.2c0,0,0.2,0.8,0.6,2
						c0.4,1.2,0.7,2.8,1.3,4.4c1.1,3.2,2.1,6.4,2.1,6.4l-0.6-2c0.1-0.2,0.5,0.7,0.9,1.8c0.2,0.6,0.5,1.2,0.7,1.9
						c0.2,0.6,0.5,1.2,0.6,1.7c-1.2-2.5-0.4-0.1-0.2,1.1c0.8,1.6-0.4-1.6,0.1-0.7c1,2.1,2.8,6.6,3.2,7.7c0,0-0.2-0.3-0.3-0.6
						c-0.2-0.3-0.3-0.6-0.3-0.6c1.3,2.8,1.5,4.3,2.8,7.1c0.3,0.6,0.6,1.2,0.9,1.7c0.3,0.5,0.5,0.9,0.7,1.3c0.4,0.7,0.6,1,0.7,0.6
						c1.9,3.5,0.4,1.5,1,2.7c0.5,0.8,1.4,2.4,2.1,4c0.8,1.5,1.5,2.9,1.6,3.3c0.8,0.8,2.1,3.2,3.3,5.3c1.3,2.2,2.5,4.2,2.9,4.4
						l1.5,2.9c0.2,0,0.8,0.4,2.4,2.5c1.3,2.1,0.8,1.8,1.1,2.5l1.4,1.1c7.9,12,21.3,25.7,33.3,36c1.4,1.1,2.9,2.2,4.5,3.4
						c0.8,0.6,1.6,1.2,2.4,1.8c0.8,0.6,1.7,1.1,2.5,1.7c1.7,1.2,3.4,2.4,5.2,3.5c1.8,1.1,3.5,2.3,5.3,3.4l-0.8-0.4
						c0,0,0.4,0.3,1.1,0.7c0.6,0.4,1.5,1,2.4,1.5c1.8,1.1,3.5,2.1,3.5,2.1s-1.3-0.8-2.5-1.6c-1.3-0.8-2.5-1.6-2.5-1.6
						c1.5,0.9,2.8,1.5,4.3,2.4c1,0.6,2,1.2,3,1.8c1,0.6,2.1,1.3,3.2,1.9c2.3,1.2,4.6,2.5,7.1,3.8c2.5,1.2,5.1,2.3,7.6,3.5
						c2.6,1.1,5.3,2.1,7.8,3c1.7,0.5,2.9,0.9,3.7,1.2c0.8,0.3,1.4,0.6,1.9,0.8c1,0.5,2,1.1,5.4,1.9c-0.6-0.1-0.8-0.1-1.3-0.2
						c3.6,1,6.3,1.6,9.1,2.4c1.4,0.4,2.8,0.6,4.3,0.9c1.5,0.3,3.1,0.6,4.9,0.9c-0.5,0.2,0.7,0.5,1.9,0.7c1.2,0.2,2.5,0.3,2.1,0.4
						l0.7-0.1c1.6,0.4,5.4,1.2,4.8,1.2c0,0,0.8,0.1,1.6,0.1c0.8,0,1.6,0.1,1.6,0.1l0.2,0.3c2.1,0.3,5.5,0.7,8.6,1
						c3.1,0.3,6,0.5,7.1,0.9c5.4,0.1,12.3,0.2,19.5-0.1c1.8,0,3.6-0.2,5.5-0.3c1.8-0.1,3.7-0.3,5.5-0.4c3.6-0.4,7.2-0.8,10.5-1.2
						c1.8-0.5,5.7-1.2,8.7-1.8c0,0,0.8-0.1,1.6-0.2c0.8-0.1,1.6-0.2,1.6-0.2c1.5-0.4,3.1-0.9,4.6-1.3c0.8-0.2,1.5-0.4,2.3-0.6
						c0.7-0.2,1.5-0.4,2.2-0.6c0,0-0.1,0.1-0.3,0.2c1.5-0.5,3-0.9,4.5-1.3c1.5-0.4,2.9-0.8,4.3-1.5c3.3-1.1,6.5-2,5.6-1.4
						c0.1-0.3,1.8-0.8,3.5-1.4c1.7-0.6,3.4-1.1,3.4-1.1s0.7-0.3,1.9-0.7c0.6-0.2,1.4-0.5,2.3-0.9c0.9-0.4,1.9-0.8,3-1.3
						c1.1-0.5,2.4-1.1,3.8-1.7c1.4-0.6,2.8-1.3,4.4-2.1c1.6-0.8,3.2-1.6,5-2.5c1.8-0.9,3.5-2,5.4-3c7.6-4.3,16.2-9.9,24.9-17
						c8.7-7.1,17.6-15.5,25.7-25.1c8.1-9.5,15.5-20.2,21.6-31.2c6.1-11,10.9-22.4,14.4-33.3c0.4-1.4,0.9-2.7,1.3-4
						c0.4-1.4,0.7-2.7,1.1-4c0.4-1.3,0.7-2.6,1-3.9c0.4-1.3,0.6-2.6,0.9-3.9c0.5-2.5,1.1-5,1.5-7.4c0.4-2.4,0.7-4.7,1.1-7
						c0.1-0.6,0.2-1.1,0.2-1.7c0.1-0.5,0.1-1.1,0.2-1.6c0.1-1.1,0.2-2.1,0.3-3.2c0.2-2.1,0.4-4,0.5-5.8c0.1-3.7,0.3-6.9,0.2-9.6
						c-0.2-1.5-0.3-5.5-0.6-4c0-3.1,0.5-4.5,0.2-5.1c-0.3,4.2-0.6-1.3-1,2.8l0-2.6c-0.2-0.5,0.1,3.6-0.2,2.9l0.4,0.7
						c-0.1,2.1-0.3,3.3-0.4,4c0.2,2,0.7,3.3,0,8.1l0.1-1.3c-0.3,3.9-0.5,2.4-0.6,3.2l0.1-0.9c0,0-0.1,0.8-0.2,1.6
						c-0.1,0.8-0.3,1.6-0.3,1.6c0.4-2.5,0.3-6.6,0.2-4.4c-0.5,4.6,0.2-1.2,0,2.3c-0.1,2.2-0.4,1.5-0.5,1.4l-0.5,3.8
						c-0.2-0.2,0.3-2.5-0.1-1l-0.4,4.9c-0.6,0.8-0.6,5.3-1.5,7.4c0.5-3.5-0.2,0.3-0.3-0.3c0,0-0.4,2.1-0.7,4.2
						c-0.5,2.1-0.9,4.2-0.9,4.2c-0.3,0.8,0.3-2.2,0.1-1c-0.5,1.5-0.5,2.6-0.7,3.5c-0.2,0.3-0.5,1.9-0.9,3.3c-0.4,1.4-0.8,2.7-1,2.5
						c-0.9,2.8-1,3.4-1,3.9c0,0.6,0,1.1-1,3.6c-0.4,0.6,1.3-4.1,0.3-1.9l-1.7,5.3c0.1-0.5,0-1.1,0.7-3.1c-0.7,1.8-1.3,3.4-1.9,5
						c-0.6,1.6-1.3,3-1.9,4.5c-0.6,1.4-1.3,2.8-1.9,4.1c-0.6,1.3-1.3,2.6-1.9,3.8c-1.3,2.5-2.5,5-3.9,7.6c-1.4,2.6-2.7,5.3-4.4,8.3
						c-1.2,1.5,0.5-1.3,1.1-2.6c-2.4,4.4-4.1,7.4-6.1,10c-1,1.3-1.9,2.6-2.9,4c-1,1.4-2.1,2.8-3.3,4.6l0.1,0.2
						c-0.9,1.2-1.8,2.3-2.8,3.6c-1,1.2-2,2.4-3,3.6c-1,1.2-2,2.5-3.1,3.7c-1.1,1.2-2.2,2.5-3.3,3.7c-4.4,5-9.2,9.9-14.2,14.3l1.2-1
						c-1.1,1.5-3.4,3.4-5,4.9c-0.3,0.1,0.9-1.4-2,1.2c0.7-0.5,1.9-1.5,1.6-1.1c-4.4,3.6-11.5,9-19.7,14.3c-2.1,1.3-4.2,2.7-6.3,4
						c-2.2,1.2-4.4,2.5-6.6,3.7c-4.5,2.3-8.9,4.6-13.3,6.4c-11.5,5.3-24.1,9.4-36.9,12.1c-12.8,2.7-25.9,4-38.3,4.1
						c3.8-0.1,2.2,0.5-0.7,0.4c-3.9-0.5-7.3-0.6-10.7-0.6c-1.7-0.1-3.4-0.2-5.2-0.3c-1.8-0.1-3.6-0.3-5.6-0.7
						c-3.6-0.4-7.1-0.7-10.5-1.4c-1.7-0.3-3.4-0.6-5-0.9c-1.7-0.3-3.3-0.8-4.9-1.2c-1.6-0.4-3.3-0.8-4.9-1.2
						c-1.6-0.5-3.2-0.9-4.8-1.4c-1.6-0.5-3.2-0.8-4.8-1.3c-1.6-0.5-3.2-1-4.8-1.4l-0.2-0.3c-1.9-0.8-2.5-0.7-4.4-1.5l0.1,0
						c-2.3-1-4.9-1.9-7.2-2.8c-2.3-1-4.3-1.9-5.6-2.5l-0.3,0.2c-2.7-1.2-1.3-0.8-4.1-2l0.1-0.1l-3.3-1.4c0.3-0.2-1.6-1.1-3.7-2.2
						c-2.1-1.2-4.5-2.5-5.5-3.2c-1.7-0.9-4-2.4-6.6-3.9c-2.6-1.5-5.3-3.5-7.6-5.2c-0.8-0.8-6.4-5.1-9.8-8.1
						c-6.9-5.5-16-14.3-23.2-23l-0.1,0.4c0,0-0.5-0.6-1-1.1c-0.5-0.5-0.9-1.1-0.9-1.1c0.1,0-0.1-0.3,0.2,0c-1.1-2-4.3-5.2-5.5-7.3
						c0.6,1.4,1.2,1.7,2.2,3c1.4,2-0.3,0.4-2.2-2.3l0.1,0l-1.4-1.7c0.1-0.4-1-2.1-1-2.4c-0.7-1-1.4-1.9-2.1-2.8
						c-0.7-0.9-1.2-1.8-1.8-2.7c-1.2-1.8-2.3-3.5-3.5-5.2c-1.1-1.8-2.1-3.5-3.2-5.4c-0.5-0.9-1.1-1.9-1.7-2.9
						c-0.5-1-1.1-2.1-1.6-3.2c0.7,0.8-3.3-6.4-2-4.8c-2.6-5.4,0,1.1-1.4-1.3c-0.7-1.5-1.5-3.1-1.5-3.4c0.4,0.7-0.3-1.4,0.3-0.1
						c0,0-0.4-0.9-0.8-1.8c-0.4-0.9-0.8-1.8-0.8-1.8c-0.1-0.4,0.3,0.4,0.5,0.8c-3.3-7.5-4.9-13.6-7.2-20.5c-0.3-0.5,0.7,2.8,0.4,2.3
						c-2.3-7-1.6-6.3-3.3-13l0.6,1.3c-0.3-1.1-0.6-1.8-0.9-2.8c-0.2-0.9-0.6-2.1-0.8-3.9c0.1-0.3,0.3,0.4,0.5,1.5
						c0.3,1,0.6,2.4,0.9,3.2c-0.7-2.4-1.8-8.6-1.7-6.7c-0.6-2.9-0.6-4.1-0.8-5.7c-0.1,0,0.3,2.8-0.1,1.1c-0.3-2-0.5-4.6-0.8-7.3
						c-0.1-1.3-0.4-2.7-0.4-4.1c-0.1-1.4-0.2-2.7-0.3-3.9c0.1,0,0.2-0.3,0.2,0.1C603.1,358.5,603.7,358.9,603.5,353.4z"/>
					<path id="XMLID_36_" class="st0" d="M757.7,163.7l-2,0.3c0,0.1-0.1,0.2-1,0.4L757.7,163.7z"/>
					<path id="XMLID_37_" class="st0" d="M671,202.8c-0.2,0.2-0.4,0.3-0.5,0.5C670.8,203,670.9,202.8,671,202.8z"/>
					<path id="XMLID_38_" class="st0" d="M654.2,219c1.1-1.2,0-0.2-0.6,0.3C653.6,219.4,653.7,219.4,654.2,219z"/>
					<path id="XMLID_39_" class="st0" d="M812,161.7c-0.4,0-0.6,0-0.5,0.1C812,161.8,812.1,161.8,812,161.7z"/>
					<path id="XMLID_40_" class="st0" d="M939.1,235.6c-0.1-0.2-0.2-0.3-0.3-0.5C938.8,235.2,939,235.3,939.1,235.6z"/>
					<path id="XMLID_41_" class="st0" d="M934.3,228.7c-0.3-0.3-0.6-0.7-1.1-1.3C933.6,228,934,228.4,934.3,228.7z"/>
					<path id="XMLID_42_" class="st0" d="M775.5,160.9c-0.6,0.1-1.1,0.1-1.6,0.2C774.8,161.1,775.2,161,775.5,160.9z"/>
					<path id="XMLID_43_" class="st0" d="M932,226.1l-1.4-1.6c0,0,0,0-0.1,0L932,226.1z"/>
					<path id="XMLID_45_" class="st0" d="M940.7,237.7c-0.5-0.7-1.1-1.6-1.5-2.2C939.7,236.4,940.2,237.1,940.7,237.7z"/>
					<path id="XMLID_46_" class="st0" d="M865.4,176.1c-0.1,0-0.1-0.1-0.2-0.1C863.7,175.5,864.6,175.9,865.4,176.1z"/>
					<path id="XMLID_47_" class="st0" d="M925.5,219.6c-0.1-0.1-0.1-0.1-0.2-0.2l-0.5-0.4L925.5,219.6z"/>
					<path id="XMLID_48_" class="st0" d="M945.7,245.3c-0.2-0.3-0.4-0.6-0.6-0.9c0.2,0.3,0.4,0.6,0.6,1
						C945.7,245.3,945.7,245.3,945.7,245.3z"/>
					<path id="XMLID_49_" class="st0" d="M892.9,191.8c0.6,0.2,0.8,0.3,0.8,0.3C893.2,191.6,892.8,191.4,892.9,191.8z"/>
				</g>
			</g>
		</g>
	</g>
</g>
</svg>
