<?xml version="1.0" encoding="utf-8"?>
<!-- Generator: Adobe Illustrator 19.0.0, SVG Export Plug-In . SVG Version: 6.00 Build 0)  -->
<svg version="1.1" id="木板logo" xmlns="http://www.w3.org/2000/svg" xmlns:xlink="http://www.w3.org/1999/xlink" x="0px" y="0px"
	 viewBox="0 0 700 700" style="enable-background:new 0 0 700 700;" xml:space="preserve">
<style type="text/css">
	.st0{fill:#FFFFFF;}
</style>
<g id="白logo_2_">
	<g id="XMLID_383_">
		<path id="XMLID_384_" class="st0" d="M228.7,307.3c-3.7,8.7-8.6,16.9-12.1,25.7c-2.1,5.3-4.2,10.9-5.1,16.5
			c-0.7,4.2,0.2,7.6,2.9,10.8c3.7,4.4,8.7,6.1,14.3,6.9c5.9,0.8,12.5,1,18.4,0.3c11.2-1.3,16.9-11.1,21.3-20.4
			c5.9-12.4,11.8-24.8,16.9-37.5c-0.1,0.2-4.4,0-4.8,0c-0.5,0-4.7-0.3-4.8,0c-4.1,10.4-8.9,20.5-13.6,30.7c-4,8.5-7.8,18.9-16,24.3
			c-2.1,1.3-4.4,2.2-6.8,2.7c-0.6,0.1-1.2,0.2-1.7,0.3c-6.5,0.7,10,0.6,3.4,0c-1.6-0.1-3.1-0.3-4.6-0.6c-5.1-0.9-9.4-3-12.7-7.1
			c-2.3-2.9-3.1-6-2.6-9.7c0.7-5.3,2.6-10.6,4.6-15.6c3.7-9.4,8.8-18,12.8-27.2c-0.1,0.2-4.4,0-4.8,0
			C233,307.2,228.9,306.9,228.7,307.3L228.7,307.3z"/>
	</g>
	<g id="XMLID_381_">
		<path id="XMLID_382_" class="st0" d="M284.3,368.1c5.1-11.6,10.8-23.1,17-34.1c-3.2,0-6.4,0-9.6,0c2.9,6,6.1,13.8,9.7,20.3
			c1.7,3.1,3.5,6.3,5.4,9.4c0.7,1.1,1.5,3.2,2.8,3.6c1.3,0.4,3.4,0.1,4.7,0.1c1.5,0,3.8,0.4,5.4,0c1.4-0.4,1.8-1.7,2.4-2.9
			c1.6-3.4,3.1-6.9,4.7-10.4c1.6-3.5,3.1-6.9,4.7-10.4c0.8-1.7,1.6-3.5,2.3-5.2c0.6-1.4,2.4-4,2-5.5c-0.1,0-0.1,0-0.2,0
			c-2.1-0.1-4.2-0.1-6.3,0c-0.4,0-4.2-0.3-3.6,0.6c0.3,0.4,4.2,0,4.8,0c0.6,0,4.5-0.5,4.8,0c-0.2-0.2-0.2-0.4,0.1-0.5
			c-3.1,0-6.3,0-9.4,0c1,0-1,3.9-1.2,4.3c-0.7,1.6-1.4,3.2-2.1,4.7c-1.4,3-2.7,6-4.1,9.1c-1.4,3-2.7,6-4.1,9.1
			c-0.9,2.1-1.9,6.3-4.2,7.2c3,0,6,0,9,0c-0.2,0-0.4,0-0.5,0c0.2,0,0.4,0,0.7,0c-1.3-0.6-1.9-2-2.6-3.2c-0.9-1.4-1.7-2.8-2.5-4.2
			c-1.6-2.7-3.1-5.5-4.6-8.2c-3-5.7-5.7-11.5-8.2-17.4c-0.1-0.3-9.4-0.3-9.6,0c-6.2,11-11.9,22.4-17,33.9c0.1-0.2,4.4,0,4.8,0
			C280,368.2,284.2,368.5,284.3,368.1L284.3,368.1z"/>
	</g>
	<g id="XMLID_62_">
		<path id="XMLID_63_" class="st0" d="M351.9,333.5c-5,11.4-10.1,22.5-15.1,34.5c3.2,0,6.4,0,9.6,0c-0.2-1-0.5-1.9-0.7-2.7
			c-0.1-0.3-4.4-0.2-4.8-0.2c-0.4,0-4.7,0.2-4.8,0c0.2,0.8,0.5,1.6,0.7,2.4c0.1,0.2,9.5,0.3,9.6,0c5-11.4,10.1-22.8,15.1-34.2
			c-0.1,0.2-4.4,0.1-4.8,0.1C356.2,333.3,352.1,333.1,351.9,333.5L351.9,333.5z"/>
	</g>
	<g id="XMLID_60_">
		<path id="XMLID_61_" class="st0" d="M391.8,333.2c-5.8,0.1-16.2,0.6-17.6,7.9c-1.7,8.1,7.3,14.2,5.3,22.5
			c-1.6,6.5-6.8,11-12.3,14.4c-2.9,1.8-6,3.2-9.2,4.4c-1.6,0.6-3.3,1.1-4.9,1.4c-2.6,0.5-9.2,0.5,0.4,0.6c-1.9,0-4.1-0.3-5.9,0
			c-0.5,0.1,0.5,0,0.5,0c1,0.1,1.9,0,2.9,0c3.7,0,7.5,0.2,11.1-0.5c3.4-0.7,6.8-1.9,9.9-3.3c5.7-2.7,11.9-6.5,15.2-12.1
			c2.2-3.7,3-7.9,1.5-12c-1.3-3.8-3.8-7-4.7-10.9c-0.8-3.7,0-7.2,3.3-9.3c3.2-2.1,7.6-2.9,11.4-3c-0.2,0,1.4,0,1.4,0s-1.6,0-1.4,0
			C396.3,333.2,394.1,333.2,391.8,333.2L391.8,333.2z"/>
	</g>
	<g id="XMLID_58_">
		<path id="XMLID_59_" class="st0" d="M410.2,368.1c7.6-11,11.9-24.1,20-34.1c-3.2,0-6.4,0-9.6,0c4.6,10,8.3,22.5,11.1,34.4
			c0.2,0.8,9.4-0.9,9.6-0.2c-2.9-11.9-6.6-23.7-11.1-35c-0.1-0.3-9.3-0.5-9.6-0.1c-8,10.7-12.3,23.6-20,34.6
			c0.2-0.4,4.3,0.3,4.8,0.3C406,367.9,409.8,368.6,410.2,368.1L410.2,368.1z"/>
	</g>
	<g id="XMLID_56_">
		<path id="XMLID_57_" class="st0" d="M463.8,364.9c0.4,0,4.8,0,4.8,0C468.6,364.8,463.9,364.8,463.8,364.9c-0.4-0.1-4.8-0.1-4.8,0
			C459,365,463.8,364.9,463.8,364.9L463.8,364.9z"/>
	</g>
	<g id="XMLID_54_">
		<path id="XMLID_55_" class="st0" d="M448.3,332.7c3.8,10.3,7.6,20.6,11.4,30.9c0.1,0.3,4.4,0,4.8,0c0.4,0,4.7-0.3,4.8,0
			c-3.8-10.3-7.6-20.6-11.4-30.9c-0.1-0.3-4.4,0-4.8,0C452.7,332.7,448.4,333,448.3,332.7L448.3,332.7z"/>
	</g>
	<g id="XMLID_52_">
		<path id="XMLID_53_" class="st0" d="M477.4,333c-6,12.4-12.8,24.9-21,35.9c-6.4,8.6-15.8,19.5-27.5,19.7c-1.8,0,1.6,0.1,1.7,0.1
			c2.2,0,4.4,0,6.6,0c12-0.2,21.2-9.7,28-18.6c3.5-4.6,6.6-9.5,9.5-14.5c4.3-7.4,8.5-14.8,12.3-22.5c-0.1,0.3-4.3,0-4.8,0
			C481.7,333,477.6,332.6,477.4,333L477.4,333z"/>
	</g>
</g>
</svg>
