<svg id="Layer_1" data-name="Layer 1" xmlns="http://www.w3.org/2000/svg" viewBox="0 0 55 55"><defs><style>.cls-1{fill:none;stroke:#db4d4d;stroke-linecap:round;stroke-linejoin:round;stroke-width:5px;}</style></defs><title>add_price_icon</title><path class="cls-1" d="M73.4,54.09v15A1.88,1.88,0,0,1,71.53,71H36.46a1.88,1.88,0,0,1-1.87-1.87V44.33" transform="translate(-26.5 -18.5)"/><rect class="cls-1" x="2.5" y="13.77" width="50" height="12.07" rx="1.87" ry="1.87"/><line class="cls-1" x1="27.5" y1="14.08" x2="27.5" y2="51.72"/><path class="cls-1" d="M59.25,22.32c-3.16,2-5.7,10-5.7,10s9.14.6,12.3-1.4a7.27,7.27,0,0,0,3-3.5A4.51,4.51,0,0,0,68.27,23C66.45,20.63,62.41,20.32,59.25,22.32Z" transform="translate(-26.5 -18.5)"/><path class="cls-1" d="M38.34,23c1.82-2.37,5.86-2.68,9-.68s5.71,10,5.71,10" transform="translate(-26.5 -18.5)"/><path class="cls-1" d="M42.18,54.39v8.19" transform="translate(-26.5 -18.5)"/></svg>