<svg id="Layer_1" data-name="Layer 1" xmlns="http://www.w3.org/2000/svg" viewBox="0 0 100 100"><defs><style>.cls-1{fill:#ffbab1;}.cls-2{fill:#fff;}</style></defs><title>go_cart</title><circle class="cls-1" cx="50" cy="50" r="50"/><g id="_Group_" data-name="&lt;Group&gt;"><path id="_Compound_Path_" data-name="&lt;Compound Path&gt;" class="cls-2" d="M35.78,64.83c.48,1.83.81,3.17,1.13,4.5.64,0,1.13.17,1.77.17,5.48,0,11,.17,16.45.17,3.71,0,7.58-.17,11.29-.17,1.77,0,5.16,2.17,5.8,3.83a6.64,6.64,0,0,1-1.13,6.83c-1.93,2-5.8,2.33-7.74.5a5.73,5.73,0,0,1-.32-7.5A5.28,5.28,0,0,1,64,72c-5.8-.17-11.13-.17-16.77-.33.32.83.81,1.33,1,2a6,6,0,0,1-4,8.33,5.33,5.33,0,0,1-6.61-5.33,25.22,25.22,0,0,1,.81-4.83c-.16,0-.16-.17-.32-.17-3.06-.17-2.9-.17-3.87-3.17-1.93-7-4-13.83-5.8-20.83C27.08,43,26.11,38.17,25,33.5a39.94,39.94,0,0,0-1.13-4.17,3.16,3.16,0,0,0-2.42-2.5c0,.33-.16.5-.16.67-.16,2.5-1.77,4.17-4.19,4-1.29,0-1.93-1-2.42-2.17a3.27,3.27,0,0,1,.64-3.17A5.64,5.64,0,0,1,20,24.33c3.87.17,4.84,1,6,4.83,0,.17.16.33.16.5,1,3.33,1,3.33,4.19,3.33,6.61,0,13.06.17,19.67.17,4.68,0,9.19-.17,13.87,0,5,0,9.84.17,14.83.33h.64c1.61.17,1.93.67,1.77,2.33a99,99,0,0,1-3.06,15c-1,3.67-1.77,7.5-2.58,11.33-.16.83-.48,1.5-.64,2.5C62.23,65.33,49.17,63.83,35.78,64.83ZM27.72,35.5C28,37,28,38,28.37,39c2.1,7.17,4.19,14.5,6.29,21.67.48,1.67.81,2,2.58,2,2.58,0,5-.33,7.58-.33,5.16.17,10.32.5,15.48.67,3.71.17,7.58,0,11.29-.17,1.93,0,1.93-.17,2.26-2,.32-1.67.64-3.33,1.13-5a180.41,180.41,0,0,0,4.68-20C62.23,35.17,45.3,34.83,27.72,35.5Zm13.71,37c-1.29,1.67-2.1,3.33-1,5.33,1,1.83,2.26,2.67,4,2a3.42,3.42,0,0,0,2.26-4.17C46.26,73.67,45,71.83,41.43,72.5Zm29.19,3.67c0-2.17-1-3.33-2.9-3.33a3.91,3.91,0,0,0-3.55,3.83A3.27,3.27,0,0,0,67.23,80C69.48,79.83,70.61,78.5,70.61,76.17ZM16.76,28c1,1.5,1.93,2,3.22.67-.48-.67-.81-1.5-1.45-1.67C18,27,17.4,27.67,16.76,28Z"/><path id="_Path_" data-name="&lt;Path&gt;" class="cls-2" d="M31.91,40.17a5.82,5.82,0,0,1,1.45-.33l24.67.5c3.71,0,7.58.17,11.29.17a5.23,5.23,0,0,1,1.61,0A1.35,1.35,0,0,1,72.22,42c0,.33-.64.67-1.13.83a5.23,5.23,0,0,1-1.61,0c-5.64-.17-11.29-.5-16.93-.67C48.2,42,44,42,39.65,42c-1.93,0-4,0-6,.17C32.4,42.33,32.07,41.5,31.91,40.17Z"/><path id="_Path_2" data-name="&lt;Path&gt;" class="cls-2" d="M71.58,50.5,34.17,50c-.16-.17-.32-.83-.64-1.5,1.77-.83,3.55-.5,5.16-.5,4-.17,8.22-.17,12.25,0,4.84,0,9.67.33,14.51.33a35.26,35.26,0,0,0,4.19-.17C71.1,48.17,71.58,49,71.58,50.5Z"/><path id="_Path_3" data-name="&lt;Path&gt;" class="cls-2" d="M35.94,55.17c1.29,0,2.26.17,3.22.17,9,0,18.06,0,27.09.17a33.94,33.94,0,0,1,4,.17,1.16,1.16,0,0,1,1.13,1.5c-.16.83-.81.67-1.45.67-8.38-.17-16.61-.33-25-.33H38.2C36.91,57.5,36.27,56.83,35.94,55.17Z"/><path id="_Path_4" data-name="&lt;Path&gt;" class="cls-2" d="M41.27,76.5c.48-1.17,1-2.33,2.1-2,.64.17,1.29,1.33,1.45,2.17.16.33-.64,1.33-1.29,1.5C42.39,78.67,41.59,77.83,41.27,76.5Z"/><path id="_Path_5" data-name="&lt;Path&gt;" class="cls-2" d="M68.68,76.33a1.87,1.87,0,0,1-1.77,2A1.21,1.21,0,0,1,65.61,77c0-1,.81-2,1.61-1.83C67.71,75.33,68.19,76,68.68,76.33Z"/></g></svg>