<svg xmlns="http://www.w3.org/2000/svg" viewBox="0 0 200 440"><defs><style>.cls-1{fill:#999;}.cls-2{fill:#a6a6a6;}.cls-3{fill:#91bab1;}.cls-4{fill:#9fc3bb;}</style></defs><title>custom_light</title><g id="Layer_1" data-name="Layer 1"><g id="亮"><polygon class="cls-1" points="110.54 0 28.39 154.84 175.09 154.84 110.54 0"/><path class="cls-2" d="M97.25,6.33c-.08-.76-2.3.48-2.76.56C95.46,7.79,97.84,6,97.25,6.33Z"/><polygon class="cls-2" points="107.14 15.13 106.11 15.34 109.11 15.97 107.14 15.13"/><path class="cls-2" d="M111.41,25.49c3.56-2.68-2.2-3.47-1.56-5.92l.78-.69-3.54.54C108.52,21.44,111.86,23.44,111.41,25.49Z"/><path class="cls-2" d="M105.14,34.69c1.4-1,1.82.63-.06-1.49a3.6,3.6,0,0,1-.29.4A3.8,3.8,0,0,1,105.14,34.69Z"/><path class="cls-2" d="M104.79,33.59c-.57-1-1,1.27,0,0Z"/><path class="cls-2" d="M107.77,38.25l-2-.84c-.78.69-.46,2.06-1.32,1.87C105.84,40.42,106.62,39.73,107.77,38.25Z"/><path class="cls-2" d="M111.23,38.36l-.89-.49C110,38.17,110,38.42,111.23,38.36Z"/><path class="cls-2" d="M108.45,36.82l1.89,1c.55-.48,1.83-1.06-.74-.53C110.81,37,109.55,37.14,108.45,36.82Z"/><path class="cls-2" d="M108.68,35.67c.53-1.18.64-2.45,2.61-1.6C109.59,31.56,107,33.16,108.68,35.67Z"/><path class="cls-2" d="M115.73,24.26l.72-1.58-1.72-.36C115.57,22.51,114.51,24.86,115.73,24.26Z"/><path class="cls-2" d="M109.44,48.07c.88-.27,2-1.45,3.08-2l-1.41-.64C110.76,46.2,110.66,47.46,109.44,48.07Z"/><path class="cls-2" d="M112.52,46l2.11,1C114.21,45.52,113.41,45.56,112.52,46Z"/><polygon class="cls-2" points="115.73 36.73 111.61 35.43 115.98 37.22 115.73 36.73"/><polygon class="cls-2" points="111.86 54.17 109.53 54.11 113.15 54.44 111.86 54.17"/><path class="cls-2" d="M113.88,58c-1.89,0-2.36,2.09-3.64,1.81.74,1,2.52,1.3,4.12,1.61C113.28,60.86,113.06,59.84,113.88,58Z"/><path class="cls-2" d="M116.76,62.08a11,11,0,0,0-2.4-.63A5.67,5.67,0,0,0,116.76,62.08Z"/><path class="cls-2" d="M115.34,49.89c-.46.34-1.69,1.15-1.89,2.28l2.11-1.64Z"/><path class="cls-2" d="M115.63,50.48l-.07.05.43,1.41Z"/><path class="cls-2" d="M115.28,49.73l.06.16C115.55,49.73,115.61,49.66,115.28,49.73Z"/><path class="cls-2" d="M115.32,41.81c1.72.36,3.95,1.69,5.19-1.05C118.6,40.79,117.9,42.36,115.32,41.81Z"/><path class="cls-2" d="M117.93,47.68l-.16-1.92c-.61.3-1.4,1-2.25.82Z"/><polygon class="cls-2" points="119.03 48.19 117.93 47.68 117.99 48.39 119.03 48.19"/><path class="cls-2" d="M117.77,58.25a3.32,3.32,0,0,1,2.3,1.87,7.14,7.14,0,0,0-.5-3.21C118.77,57.09,117.26,57.25,117.77,58.25Z"/><path class="cls-2" d="M116.94,54.38l.2.1C117.31,54.3,117.33,54.19,116.94,54.38Z"/><path class="cls-2" d="M123.74,69l.37-.33-.42.14Z"/><path class="cls-2" d="M119.95,56.55c.16-.92-.6-1.1-1.5-1.21a5,5,0,0,1,1.13,1.56C119.93,56.82,120.16,56.74,119.95,56.55Z"/><path class="cls-2" d="M118.89,64.08a9.16,9.16,0,0,0,.78-1.81C119.08,63,118.22,64.21,118.89,64.08Z"/><path class="cls-2" d="M116.59,55a.92.92,0,0,1-.15-.06C116,55.4,116.26,55.27,116.59,55Z"/><path class="cls-2" d="M116.59,55a6.59,6.59,0,0,0,1.85.34,4.16,4.16,0,0,0-1.3-.86A4,4,0,0,1,116.59,55Z"/><path class="cls-2" d="M140.09,65.12c-2.25.82-5.08-.22-3.41-2.87-2.32-.91-9.12,3.25-12.57,6.4,1-.36,1.87-.74,3.86.37,1-1.1,1.27-4.9,3.84-4.35,2,1.72,0,2.14-.74,3.71,2.36-2.09,5.16,1.09,9-1.11l-2.22-1.32C138.45,65.63,139.74,65.9,140.09,65.12Z"/><path class="cls-2" d="M123,65.38l-.56-.57c-.06.94-.7,1.88-2,3.65a4.23,4.23,0,0,0,3.23.33l-1.1-3.5Z"/><path class="cls-2" d="M121.17,61.74c2.62-.49,4.32.72,6.49-1.4-1-1.94-2.59-.55-4.13-1.31,1.95,3-1.72-.36-2.1,2.57a4.81,4.81,0,0,1-1.36-1.48,9.34,9.34,0,0,1-.39,2.15l.12-.14h0c.24-.27.41-.39.3-.16,0,0,.06,0,.08,0a6,6,0,0,1,1-.24c-.1,1.15-.56.41-1,.24l-.38.12,0,0,2.67,2.69C122.51,64,122.08,63.15,121.17,61.74Z"/><path class="cls-2" d="M126.37,40.28a1.39,1.39,0,0,1-.51.34C126.24,40.71,126.48,40.7,126.37,40.28Z"/><path class="cls-2" d="M125.49,42.24c-.43-.09-1.47.12-1.54-.75.44-1,1.15-.49,1.92-.86-.83-.19-2.39-.88-3,1.07l.42.09c-.28,1.66-2.56,4.62-3,4.54A27.64,27.64,0,0,0,125.49,42.24Z"/><path class="cls-2" d="M124,51.82l2.3,2.2,1.5-2.27-1.21.6C126.41,50.61,125,51.6,124,51.82Z"/><polygon class="cls-2" points="122.68 69.8 120 70.52 124.23 70.55 122.68 69.8"/><polygon class="cls-2" points="124.45 73.18 122.2 73.99 123.91 74.35 124.45 73.18"/><path class="cls-2" d="M50,169.37l-1.71.69A7,7,0,0,0,50,169.37Z"/><path class="cls-2" d="M59.92,169.54l.47-1.19C59.81,169,59.52,169.49,59.92,169.54Z"/><path class="cls-2" d="M152.23,139.13c-1.24-.68-2.79-1.6-4-2.33-2-1.25-3-1.88-.59-.24l4,2.65c-.11-.13-.14-.2-.11-.23C151.34,138.75,151.68,138.87,152.23,139.13Z"/><path class="cls-2" d="M113.23,155.45l.36.8.84-2.54Z"/><path class="cls-2" d="M112.36,166.44l-1.63-1.71A6.08,6.08,0,0,0,112.36,166.44Z"/><path class="cls-2" d="M4.23,163.78q-1.67.3-3.29.51C-.4,166.84,2.3,164.62,4.23,163.78Z"/><path class="cls-2" d="M140.35,108.82a5.38,5.38,0,0,0-.42,3.12C140.82,110.14,142.49,108.27,140.35,108.82Z"/><path class="cls-2" d="M63.82,141.21a5.73,5.73,0,0,0-.92,1.61A3.64,3.64,0,0,0,63.82,141.21Z"/><path class="cls-2" d="M141.15,114.82a7.54,7.54,0,0,0,.35-.77,3.75,3.75,0,0,1-1.56-2.11C139.28,113.26,139.07,114.56,141.15,114.82Z"/><path class="cls-2" d="M75.65,33.81a2.43,2.43,0,0,1,.41-.1C75.76,33.52,75.68,33.62,75.65,33.81Z"/><path class="cls-2" d="M115.74,14.75a4.71,4.71,0,0,1-.51,1.4C115.51,16,115.7,15.6,115.74,14.75Z"/><path class="cls-2" d="M129.3,87.78c-.47-.68-.31,0,0,0Z"/><path class="cls-2" d="M137.31,80.06a2.54,2.54,0,0,0,1.3-.2A3.28,3.28,0,0,1,137.31,80.06Z"/><path class="cls-2" d="M159.24,115.81l0,.07C159.64,115.45,159.56,115.53,159.24,115.81Z"/><path class="cls-2" d="M129.92,86.19a3.73,3.73,0,0,0-.32,1.26A3.92,3.92,0,0,0,129.92,86.19Z"/><path class="cls-2" d="M128.85,86.83l0-.75C128.37,86.15,128.15,86.35,128.85,86.83Z"/><path class="cls-2" d="M129.86,88.76a2.55,2.55,0,0,1-.25-1.31c-.1.22-.21.34-.31.33C129.42,88,129.6,88.27,129.86,88.76Z"/><path class="cls-2" d="M50.83,95.58a2.22,2.22,0,0,1,.3,0C50.55,94.31,50.54,94.71,50.83,95.58Z"/><path class="cls-2" d="M164,167.17s0-.1.06-.12l-.24-.1Z"/><path class="cls-2" d="M160.7,169.14c.1-3.3,1.19-2.9,3.1-2.2q-3.27-3.83-6.23-7.65A71.05,71.05,0,0,1,160.7,169.14Z"/><path class="cls-2" d="M25.35,170.14a17.43,17.43,0,0,0,.94,2.39c-8.26,3.93-10.55,2.57-10.48,5.92,4.87-4.16,8.59-4.37,12.32-4.58s7.46-.42,10.74-4.57q.42.87.93,1.75c-.58-.08-1,.41-1.62.33,1.8,4,7.27-6,11.35-4.83,1.39.64,2.18,1.84.48,2.83l4.88-2.05c1.09.16.36,1.61-.79,1.45l6.38-.66-.09.24c1.16-1.3,3.3-3.32,4.21-4.17,1.33,1.19-.78.88-.52,1.91q1.7-1,3.22-2a2.45,2.45,0,0,1-.48,2.89,4.3,4.3,0,0,1-3.3,1c1.21,4.15,2.21,3.63,3.43,2.67,1.06-1,1.88-2.34,4.14.09L69,171.82c1.33,4.71,2.93,3,5.26,5.94-.55-1.53-4.66-7.4-2.29-9.47.67.63,1.55.92,2.82-.75,0,3,1.26,2.23,2.82,2.06l-.11,3.92c1.69-1.13,1.55-3.12,2.55-4.88,1.88.39,2.27,3.42,2.71,6,3,.62-2.08-4.86,1.48-5.6,2.5,1.5,4.26-.1,7.26-2.44,1.75,1.35-.31,2.4.32,3.52l1.55-3.12c.38.08.26,1,.2,1.52,1.31-1.21.11-3.91,2.17-5,.55-4.31,4.22,6.3,6.77,1.4.63,1.11-.3,2.4-.11,3.91,3.49-3.21,3-2.34,5.86-6.66l2.44,2.57c-1.8-2.94.5-6.41,2.51-9.27-.64-1.42-1.18-2.66-1.55-3.25l3.21-2.1c.39.64.06,2-.46,3.62.22-.32.43-.64.59-.94,1.15,1.45.55,3.71-.27,5.89l-1.16-2.42a20.06,20.06,0,0,0-1.37,7.3,2.31,2.31,0,0,1,1.05-1.06,3.38,3.38,0,0,0-.24,1.61c.11.41.44-.45,1-1.45l.73,4.36.18-1.73,4.2,2.73c3-4.39,5.61-10.86,10.38-12.66-1.18,3.2-.25,5.22-.32,9-1.3-4-3.69,1.7-6.16.89,1.29.42,1,2.23.68,2.86l4.4-3.65c-.1,3.1.94,2.32,2.09,3.61-.87-6.13,3.28-4.08,5.07-6,.11,2.05-.32,4.16-2.5,3.66,2.41,4.62,3.12-7.19,5.48-3.27-.53,0-.82-.27-1,.78a2,2,0,0,1,2.53-.65c.91.36,1.89,1.17,1.38,2.06l-.75,0c5.08.73,15.78,0,13.54-5.16a50.85,50.85,0,0,1,2.56,7.32,34.89,34.89,0,0,0-3.21-17.51c1.39,2.23,4.46,6,7.21,9.55s5,6.83,3.59,8.09c1.67.64,4,1.38,5.4-.2-1.48-.64-7.13-6.46-6.47-6.87a39.37,39.37,0,0,0,5.58,3.73l6.22,3.18c-2.18-1-7.51-8-5.83-7.74.81,1,7.34,6.91,7.35,7.64a30.68,30.68,0,0,0-2.9-6.88c.4,1.24,6.45,5.83,10,7.78-2.17-1.35,4.66.12,5.17-.56l-4.25-1.6c4.49.66.11-3.41-2.84-6.39-2.89-2.54-5.21-4.65-5.58-5.89,2.19,1.61,13.24,9.31,13.36,7.38-2.76-2.11-9.31-6.94-15.53-11.24s-12.1-8.07-14.27-9.77l2.45.7q-1.85-1.48-3.59-2.73a109.75,109.75,0,0,1,15.12,8.66,147.2,147.2,0,0,1,15.91,12.4c1.36-.82,3.05,1.22,1.47-2.1,2.05.08,4.63,3.76,5.23,4.9l-1.77-7.37c-5.24-2-7.76-8-11.85-9.05q4.18,4.54,8.73,10c-2.66-1.11-7-4.1-10.67-6.88s-6.56-5.4-6.91-7.17c1.54-.51,9.25,3.39,10.94,3.93-2-1.26-5.19-5.5-4.19-5.69l3.48,2.69c.31-1.23-1.79-2.79-3.5-4.16s-3-2.6-1.56-4.09c-.13-1,4.21-3.5,1.52-3.7-4.07,2.29-19.86,1.67-23.83,1.2a21.19,21.19,0,0,0,2.13-1.71c1.07-.95,2.26-2.25,3.23-2.93,1.55-1,3.86-1.1,6.21-.91s4.73.59,6-.45a8.57,8.57,0,0,1-3.51-.83c.48-1.31,3.59-.31,2.06-2.7-4.13.79-1.71-5-3.8-.08a2.38,2.38,0,0,1-1-2.29,3.13,3.13,0,0,0-.19-2.3c-2.18,1.69-9.07,1.77-10.87.53a8.44,8.44,0,0,0,2.59-1.67c-1.12-3.64-.18-6.26-1.51-9.54.79-.69,1.24-2.74,3.15-2.77-.87-.18-2.33-.06-2.84-1,2.46-3.35,1.44,2,4.76-1.15-2.25.82-4.12-1.3-6.09-2.14-3.21,1.9.73,3.59,2.7,4.44-4.68,2-10.63,1.63-14.22-.85-2.29-2.21,2.54-2.47,1.68-2.66-1.3-5.44-10-.82-8.37-6.5,2.28-3,5.9-2.62,7.9-3.92,2.05,1.72-.48,4.2.26,5.65l.64-2.45c1.29.27,2.65,1.43,2.13,2.6,2.09-2.56-3.07-8.82-2.23-13.81-1.29-.27-2.83-1-3.79.06l.93,1.06c-1.93,2.17-4.3-.91-4.77,1.15-2.39-.94-5.83-1.67-5.44-4.6l3.22-1.9c-1,.48-1.39,2.4-.08,2.62-1.92-.33,3.11-5.58-1.8-4.73L133.8,78c-2.41-.94-6.89-1.46-6.68-4-3,2.39.58.31-2.73,3.48,4.36-3.38,2,5.41,6.3,1.14-3.93,3.48-.84,3.45-3.91,7.11,1.1-.54,1.86-1.63,2,.36A6.07,6.07,0,0,1,130,86a.76.76,0,0,1,0,.15L130,86c.2,0,.24,0,0-.05a4.52,4.52,0,0,1,1.34-1.62c2.94-.24,4,2.57,5.74,2.94-.1,1.27-1.47.12-2.43,1.2l2.58.55c-2.43,1.21-3,4.53-5.48,2.72l.8,2.24c-.86,1.89-.67,3.91.83,4.56-.11,1.27,3.85,1.43,1.52,1.37l3,2.78-.61.3c1.1,3.53,7,5.22,4.16,11,1.11.87,2.37,1.73,2.46,3.94l-2,1.3c1.36,1.15-.32,5.34,2.19,5-2.59,2-2.11,4-1.11,5.66.38.11,1.48.28,1,.63l3.12-.48c0,.56,1.15.93,2.87,1.89l3,.16c1.44.57,1.2,1.25.63,1.75s-1.48.84-1,1.53c-1.34-.52-1.12-.69-.44-.7-3.47-.37-1.94.41.15,2s4.62,3.69,1.76,2.62c1.56,1.16,1.2,1.19.31.81a1.33,1.33,0,0,0-.25-.21s0,.05,0,.11l-1.94-.91a18.14,18.14,0,0,0,2,1A13.46,13.46,0,0,0,156,142l.13.16-4.49-2.94s0,0,0,.08c-1.86-1.09,1.67,1.39,5.11,3.61.45.48,1,1.07,1.8,1.77-3.51-2.38-3.22-2-3.11-1.62s.1.68-3.25-1.85c2.72,2.47-.06,1.86,4.66,7.07-.7-.68-1.22-1-.9-1-1.36-.59-2.53-1.18-1.94.28l-3.48-3.75a33.59,33.59,0,0,1,2.44,5,15.06,15.06,0,0,1-5.1-6.49c.71,2.22.42,2.64.3,3s-.21.82-.24,3l-1-2.42c-.52.09-.54,3.34-1.71,1.34-1.58-2.3-3.2-2.46-5.19-2.58-3.39-.12-7.35-.2-10.42-2.34,1.2,7.13-2.87-3.19-3.11,2.33-.36-1.68-1.22-2.64-.22-4.1-3.15,1.65-4.73-2.68-6.91,2-.36-1.69.67-2.47.35-3.47-.25.37-1,1.47-1.33.46s.46-1.41,1-2.15c-3.22.28-3.54,5.48-3.78,10.36-1.63-2.31-2.44-2-3.62,1.22-.57-1.6-1.51-3.27.48-3.84-1.12-.23-6.87-2.34-7,1.57-.35-1-1.57-.29-1.87.16-2.52-.24-2.75-.59-5.22-.22l.69.64c-1,4.72-2.06,1.05-4.06,1.62l.06-.48c-4.58-3.41-2,1.63-6.5-2.26l.25,2.94c-.42,6.31-4-3.72-6.63-1.31l.95,1.68c-1.43,2.16-4-8.58-5.44-9.37-.31-.55.5-.88.93-1.28-3.77-3.73-.49,3.84-3.29,4.73-.52-2.07.67-5.28-1.22-5.66-.47-.84-1.84.85-3.41,2.24-1.41,1.4-3.82,2.5-3.86.51.12,1.6.48,3.19-.34,4.39-.63.29-1.26-1.22-1.68-2.17s-.77-1.34-2.18,1.18a4.31,4.31,0,0,1,.28-1.26c-1.23,1.3-3.56,2.16-6,4.89,2.69-5.07,1-3.83-1.54-2.5s-5.41,2.76-.5-1.91l-3,.5,1.24-1c-.64-.62-4.13,1.62-8.1,3.87a14.81,14.81,0,0,1,2.81-2c.14-1,.19-1.36-1.44-.77-.59,0-2.38.77-5.24,1.57l4.88-2.8c-1.24.48,1.09-1.4,3-3s3.43-2.85,1.55-3a11.93,11.93,0,0,1,1.74-.4c-1.84-.3,1.7-2.52,3.53-3.51s2.33-1.44-3.45-2.19a11.68,11.68,0,0,1-1.93-2.11,2.94,2.94,0,0,1-3.6.57c-1.23-.47-2.38-1.35-3.72-.74.16-1.67,5.19-2.75,4.94-1.1l-.68.12c5.57,1.64,3.84-2.93,7.42-1.42a34.15,34.15,0,0,1,2.72-4.42c1.18-1.67,2.45-3.27,3.73-4.84a74.32,74.32,0,0,0,7.06-9.57L64,105.73l1.48-2.25c1.23-.13,3.48.82,2.42,2.43,2.67.31-.34-3.85-1.15-4.36,3.33-2.46,3.84,3.77,4.47,2.8l.45-1.54-.62.06c-1-2-2.62-3-1.35-4.94,1.46-.86,2.75.65,3.16.22.28.16.5.05.53-.71l1.92-2.81-3.7-.48c-.81-2.15,1.65-2.73-2.55-3.24,6.43.9,7.84-10.11,10.16-10.45-1.25-3.08-.24-4.89,1.24-7-.94.21-4.56-1.33-3.1-3.06,6.73,4.6,5-1.9,10.95-.69-4.14-.44,2.12-6-3.88-6.44,1.45-1.32,2.72,1.36,5,1-.69-5.4,6.34-7.59,8-12.91-.9-.59-2.75-.56-3.59-2.35h6c0-1.2-4.92-3.82-.76-3.78-.92-.18-2.29-.46-2.25-1.26,9.55-6.93,6.48-21.28,20.11-26.18-2.5.31-2.22-.65-1.76-1.68-.77.41-2.3-1.27-3.63-1.84l5.64-2.08c-3.12-2.65,2-4.42-1.1-6.68l-.07,1.6C113,3.3,106,4.7,101.05,1.67c3.5,4.35-9.31,1.33-4.51,8-1.4.12-1.33-1.48-2.7-1.76,1.76,2,1.71,3.17-.2,4.4l-.43-.49c-2.09,5.23-5.36,6.17-9.73,10.94l2.73,1c-1,1-1.89.83-2.82,1,3.09,3.45,2-3.23,5.54.31-6-1.21-4.54,8.36-10.92,6.26-1,1.82,3.2,1.05,2.19,2.87l-1.83-.37,1.78,1.57c-1,1-3.26.55-4.62-.13.31-.21.07-1,.12-1.41-2.68.55-1.7,4.74-2.59,4.95L75,37.53c-1.18,5.81-6.49,10.79-5.86,17.37l1.38.28c.24,4.89-2.87,2.25-4,6.85l-.2-.3a3.71,3.71,0,0,1,0,3.9c-.85-1.78-3.72.45-4.55-1.73.23,5.29.8,3,3.81,8l-2.3-.47c1.31,1.88,2.21,2.46,1.64,4.77-.81-2.58-3.68-.35-4.93-3.43-6.56,1.9,1,8.68-6.33,7.19,4.41,4.93,5-2,5.56-.29,2.26.06,3.22,3.84,2,4.87-.84,1.29-8.2-1.5-9.9,2,.21-.33-.2-.58,0-.9-2.07.52.55,3.53-2.54,3.86,2.83,2.68-1.27,1.93,2.8,4.48l.69-3.66c.16,2.38,4.19,6.73.25,8.35a8.6,8.6,0,0,1-1.68-3.11c-1.69.18-.05,2.09-1.8,2.29-4.07-2.55,1.1-4.31-1.09-8-2.26-.05,1.14,5.26-2.91,1.82,5.06,4.54-2.52,3,.68,7.69l-2.44-1.53c.2.58,1,2,.57,2.63l-2.62-3c1.79,3.39-4.35,2.28-3.79,4.9,1.92-3.8,3.48.81,6.17.23.91,6.48-8-.93-9.55,4.92,0-.9,2.91-1.81,3.5-.08a7.34,7.34,0,0,1-4.35,1.36c-1.3,3.73,2.87.89,3.65,3.2-3.73-.44.48,2.13.25,4.95l-2.65-1.23c-5,5.45,4.9,3.74.09,8a34.4,34.4,0,0,1-2.85-3.27l-.46,3.1-3-1.35c.75,3.83-.3,4.47-3,7.65,2.65-.63,5.66.63,4.52,3-2.92,1.8-2.7-.82-4.16,2.8-1.77-.55-3.87-1.48.13-3.3-1-.14-1.63-.83-2.6-1-3.42,2.21-3.43,5.5-4.16,6.93a6.34,6.34,0,0,1,1.68-1.72,24.62,24.62,0,0,0,2.06,4.76c-1.86,1.17-2.65.78-3.38.3-.21,1.09,1.11,1.45.59,3-2.92.44-6.25,1.5-6.28-.84q.09,2.64.39,4.89c-1.59.79-5.53,4.37-6.34,4a4.39,4.39,0,0,0-1,5.1c.45,1.49.91,2.85-1.65,5.71.6-.15,1.05-.07,1.12.53-1.61,2.4-4.39,5.44-6.1,8,1.6.24,4.19,0,8.67-1.45q-1.73,2.15-3.14,4.3c2.94-.49,3.67-1.84,5-3.28s3.28-3,7.53-3.76c6.24-1.37-3.07,3.67-2.88,4.86,2.63-1.08,6.27-2.73,9.13-3.66s5-1.16,5.41.59C27.51,170.46,27,169.82,25.35,170.14Zm46.59-1.9c-.58.62-1.74,2.53-2.17.79C70.43,165.64,70.94,167.26,71.93,168.23Zm45.73-7.1c-.43,1-1.1.49-1.86-.63C116.35,160.26,117,160.37,117.66,161.13ZM134.88,95H135C134.5,96.69,134.74,96.08,134.88,95Zm.11-3a1.36,1.36,0,0,0-1.17.35c.75-.11,1,.43,1.11,1.16C135.56,93,135.91,92.49,135,92ZM72.11,97.38l-.92.1C71,96,71.52,96.69,72.11,97.38Z"/><path class="cls-2" d="M112.48,165.16a6.61,6.61,0,0,1-.25-1.6A1.38,1.38,0,0,0,112.48,165.16Z"/><path class="cls-2" d="M4.85,163.66l.13-.17a5.36,5.36,0,0,0-.75.28Z"/><path class="cls-2" d="M174.85,123.37a2.53,2.53,0,0,1-.89,1.78C174.7,125.06,175.16,124.61,174.85,123.37Z"/><path class="cls-2" d="M124.87,80.58l1.37,1.32c-.46-.72,0-1.26.27-1.83C125.9,80.37,125.13,81.07,124.87,80.58Z"/><path class="cls-2" d="M135.6,59.44c-.43-.09-.25-.49-.67-.58l-1.22.6C134.21,60.43,135.51,60.7,135.6,59.44Z"/><path class="cls-2" d="M133.15,75.26c2.2-1.1,1-1.78.12-2.73a.41.41,0,0,1,.08.2C130.07,73.75,131.61,74.51,133.15,75.26Z"/><path class="cls-2" d="M133.08,72.3a1.94,1.94,0,0,1-.49-1C131.27,71.69,132.5,71.82,133.08,72.3Z"/><path class="cls-2" d="M132.17,89.44c.35-.78-3,.9-2.23.2C126.82,90.27,134.9,91.73,132.17,89.44Z"/><polygon class="cls-2" points="140.19 71.16 137.58 72.76 140.08 72.43 140.19 71.16"/><path class="cls-2" d="M141.87,81l0-2.14a1.11,1.11,0,0,1-1.15-.08C141.11,79.92,141.07,81.37,141.87,81Z"/><path class="cls-2" d="M140.74,78.76c-.19-.6-.48-1.13-1.07-1.26A3.31,3.31,0,0,0,140.74,78.76Z"/><polygon class="cls-2" points="142.06 73.28 141.7 74.06 142.03 75.42 142.06 73.28"/><path class="cls-2" d="M149.45,100.65l1.62,1.63c1-.21,1.4-1,.71-1.57C150.91,100.53,150.24,100,149.45,100.65Z"/><path class="cls-2" d="M154.57,91.41c-.35.78-1,1.08-1.75,1.78l3.47-1.42Z"/><path class="cls-2" d="M157.78,96.83c1-.21,3.94,1.69,2.68-.72C159.43,96.31,157.81,94.67,157.78,96.83Z"/><path class="cls-2" d="M166,128.93l-.27-.53-6.35.76Q162.68,129,166,128.93Z"/><path class="cls-2" d="M198.83,171.37c.48.11.87.19,1.17.23-.43-2.32-6-4.26-4.78-5.79-2.49-2.18-1.08,1.31-3.32-.79.94,1.07,1.54,1.86,2,2.51C193.64,168.07,193.8,168.49,198.83,171.37Z"/><path class="cls-2" d="M191.9,165c-.5-.57-1.09-1.21-1.82-2A22.93,22.93,0,0,0,191.9,165Z"/><polygon class="cls-2" points="121.44 11.07 123.33 10.24 121.02 10.18 121.44 11.07"/><path class="cls-2" d="M118.89,6.11l3.62,1.54-2.66-2.57C119.84,5.5,119.8,6.29,118.89,6.11Z"/><path class="cls-2" d="M76.41,176.23l.12-1c-.25-1-.63-1.11-1.38-1.27Z"/><path class="cls-2" d="M44.62,173.26l.63.08q.32-1.8.74-3.59Z"/><path class="cls-2" d="M6,177.84c1.29.15,4-.65,5.3-.49C7.18,178,11.46,173.36,6,177.84Z"/><line class="cls-1" x1="102.55" y1="219.99" x2="102.55" y2="154.84"/><path class="cls-2" d="M106.56,154.84c-.52,0-1.7,0-1.46.08l2,.07Z"/><path class="cls-2" d="M102.87,155.48a30.81,30.81,0,0,0,4.5.17c-1.92-.11-1.12-.14-3.4-.26-.23-.09.64-.17,1.37-.15-.51,0,.44-.15-.81-.2-1.55.12-1.61.28-.33.44C103.75,155.52,103.23,155.49,102.87,155.48Z"/><path class="cls-2" d="M99.75,164.72l.24-.06A.62.62,0,0,0,99.75,164.72Z"/><path class="cls-2" d="M98.66,170.44a1,1,0,0,0-.43-.06A1.12,1.12,0,0,0,98.66,170.44Z"/><path class="cls-2" d="M96.46,171.42l.14-.06C96.41,171.38,96.31,171.41,96.46,171.42Z"/><path class="cls-2" d="M99.75,164.72l-.63.15C99.78,164.88,99.61,164.79,99.75,164.72Z"/><path class="cls-2" d="M107.68,156.75a3,3,0,0,0-.52-.08l.21.08Z"/><path class="cls-2" d="M98.14,162.19v0l-.81,0Z"/><path class="cls-2" d="M97.83,160.26c-.07,0,1.62.06,2.36.08a6.56,6.56,0,0,1-1.16-.1Z"/><path class="cls-2" d="M100.81,157.19l-.24-.05Z"/><path class="cls-2" d="M97.77,163.58l-.6,0Z"/><path class="cls-2" d="M110.5,217.75h-.3A1,1,0,0,0,110.5,217.75Z"/><path class="cls-2" d="M102.11,220l-.09,0h-.95Z"/><path class="cls-2" d="M94.29,173.21h0C94.13,173.15,94.16,173.18,94.29,173.21Z"/><path class="cls-2" d="M95.54,189.63c1.51-.19,1.95.3,3.63,0A21.07,21.07,0,0,0,95.54,189.63Z"/><path class="cls-2" d="M107.46,156.8s0,.05,0,.08S107.52,156.82,107.46,156.8Z"/><path class="cls-2" d="M99.17,189.65h0l.16,0Z"/><path class="cls-2" d="M95.31,177.33l.74,0C95.88,177.29,95.66,177.3,95.31,177.33Z"/><path class="cls-2" d="M97.72,174.26l-.23.08C97.65,174.3,97.7,174.28,97.72,174.26Z"/><path class="cls-2" d="M97.7,178.92c-.13,0-.36.06-.14.11l.21,0C97.54,179,97.43,179,97.7,178.92Z"/><path class="cls-2" d="M97.71,180.58l.34,0L98,180.5Z"/><path class="cls-2" d="M109.69,212.7c-.48,0-1,.06-1.52.08C109.37,212.75,109.8,213,109.69,212.7Z"/><path class="cls-2" d="M106.73,156.75a4.11,4.11,0,0,1,.73,0l-.09-.06C107.11,156.74,106.88,156.74,106.73,156.75Z"/><path class="cls-2" d="M111.07,179l-.25.26C111,179.18,111.07,179.08,111.07,179Z"/><path class="cls-2" d="M109.45,200.8l.2.06S109.64,200.82,109.45,200.8Z"/><path class="cls-2" d="M111.07,180a8.65,8.65,0,0,0-1.17.15l.44,0Z"/><path class="cls-2" d="M108.15,212.78h0Z"/><path class="cls-2" d="M112.17,214.52c0-.25-2.18-.12-3.46-.17-.63-.3,1.64-.14,2.78-.24-.59-.19-2.63-.33-2.55-.47a7.13,7.13,0,0,1,1,0c-1.77-.2-.09-.59-2.31-.82l.55,0c-1.12,0-2.25,0-3.06,0,0-.11-1.41-.21,0-.25,0,.07.54.07,1,.11l-.63-.12c2.09-.11.72.16,2.27.16-.68-.23-2.41-.5-1.82-.67,2,0,.69.41,2.51.18l-.78.27c3.23-.21-.22.17,3.23,0,.59-.36-1-.4-.45-.76-1.14-.08-1.68,0-2.82-.05-2-.51,5.15-.4,2.42-.77-1.36-.1-4-.13-2.58-.4l2.31.09c.23-.35-3.33-.2-1.77-.56.91.06.77.27,1,.22,1.83-.24-1.31-.17-1.31-.35l2.05,0c-.32-.37-1.8-.78-2.18-1.19a9.94,9.94,0,0,0,1.88,0c-1-.52.25-1.1,1.47-1.6l-1.77-.19a4.11,4.11,0,0,1,1.14,0c.67-.19-1.12,0-1.82-.1-.12-.11,1-.15,1.55-.08-1.5-.34-3.23-1-1.34-1.34l.53.07c.72-.28-3.63-.32-2-.58l.31.05c.77-.61-.85-1.29,1.82-1.75-2.55-.09,1.14-.6-2.42-.64a17.22,17.22,0,0,0,3.58-.74c.16-.13-2.22-.2-2.59-.36h1.86l-1.95-.22,2.22-.12-.48-.15a5.62,5.62,0,0,1-1.37.12c-.84-.24,1.29-.58,2.25-.58l-1.57-.56a7.75,7.75,0,0,1,1.48.18c-1.9-.3,2-.05.22-.33-.42,0-1.11,0-1.48,0,1.12-.14,1.13-.45.66-.68l1.28,0c.33-.42-.61-.88-.59-1.35a10,10,0,0,1-3,0l2-.05a18.55,18.55,0,0,1-2.23,0,9.85,9.85,0,0,1,2.87,0l-.68-.21c.59,0,.9,0,1.64.05-1.22-.09,2-.37-.15-.49h.58c0-.47-.66-.68-.76-1.06a17.54,17.54,0,0,1-2.69-.27c.54-.28,1.87-.59,1.73-.93a14.09,14.09,0,0,0-2.44-.18c1.54,0,1.4-.35,2.51-.18-.25-.4-.31-.52-1.56-1a8.42,8.42,0,0,1-1.43.09c-.25-.09.65-.21,1.39-.2l.16,0c-2.32-.57,4.5-1.33,1.28-1.78l.16,0-1.68-.47c.27-.22,1.16.13,2.12,0-2.58-.51.37-.81-1.34-1.23,4.56-.33-.32-1.16,2.59-1.6l-1.07,0c-1.05-.11.61-.14.86-.22a10.64,10.64,0,0,1-1.55.05c-1.29-1,1.57-2,2.53-3,.29-.36-5.55-.21-3-.66l2,.13c-2.39-.73.08-1.49-1.94-2.21a4.32,4.32,0,0,1,1,.11c1.45-.15.07-.56-1.11-.56a12.9,12.9,0,0,1,1.67-.09c.85-.15-1.85-.38-.41-.46a2,2,0,0,1,.58.07c-.7-.1.18-.46-1.49-.37.8-.27-.74-.51.25-.73-1.87-.14.9-.46-1.74-.5,2.73,0,2.2-.47.92-.64.82.06.85-.15,2-.08,0-.19-.54-.37-1.95-.34,3.26-.36-2.63-.72,1.56-.92a12,12,0,0,1-3.1-1.62c2.72,0,.27.57,3.12.55-1.12-.49-3.45-.77-2.8-1.26a5.61,5.61,0,0,1,1.64.11c-1.12-.49.25-.95-1.23-1.38a3.8,3.8,0,0,1,.74.09c-.09-.09.4-.2-.84-.19l.33.08a33.62,33.62,0,0,1-4.7-.36c3.54.15.89-.43,5.37-.2a7.65,7.65,0,0,0-1.65-.11,4.67,4.67,0,0,1,1.66,0c-.67-.31-2-.2-2-.48.6,0,.83.06,1.53.09-1.17-.14-2.33-.28-1.83-.52.36,0,.83,0,.82.06-.18-.4-3.11-.69-2-1.13,2.6.13.86-.15,3.11-.17l-.67-.24-1.09.1c0-.21-1.6-.39-.86-.57l.93.16-.43-.39-.85.22c-1.16-.21-2.85,0-2.22-.26.23.06,0-.21,1.35-.32h0c-.72-.1-1.47-.21-.91-.36.72,0,2.49,0,3,0-1.88-.1-.52-.49-2.53-.62.47,0,1.65,0,1.89,0L105,168.9a6.48,6.48,0,0,1,1.67-.1c.28-.29-2.86.09-1.62-.25.12,0,.35,0,.58.07.64-.35-1-.67-.22-1,2.27-.09.55.28,2.47.17-.41-.46-2.71-1-2.18-1.4l-.25.08c-3.2-.06,1.58-.33.07-.56a13.15,13.15,0,0,0,1.42.06c.51-.31-.79-.62-1.79-1.09l.82.06c.73-.18.42-.47.8-.67a8,8,0,0,0-1.88-.1c4.68-.6-2.51-1.14,1.39-1.67a1.6,1.6,0,0,0,.72.1l-.76-.45a14.75,14.75,0,0,0-1.93.15c-.83-.06-1.47-.18-1.47-.3a10.3,10.3,0,0,0,3-.09c-.43,0-.9,0-1.33,0,2.48-.24-2.8,0-1.13-.36l.73,0c-.37-.12-1.34-.23-1.13-.36a17.69,17.69,0,0,1,2.08.14c-.09-.18-3.05-.36-1.45-.53.45.08.46.19.9.27,1.89-.18,1.41-.2,1.71-.34h0l.86-.31-.51.08c-4.2-.23-.77-.47-3.52-.77a13.87,13.87,0,0,0,3.33.07,7.55,7.55,0,0,1,1.59-.16c-1.47-.15,1.16-.24-1-.45a5.72,5.72,0,0,1,1.53-.12c-.46-.19-1,0-1.76,0-2-.29,2.44-.69-.32-1.11-1.13-.36-3.12-.43-4.11-.77a8.91,8.91,0,0,1,2.14.09c.87-.18.71-.32,0-.49a10.41,10.41,0,0,0,1.61-.05c-.15-.14-2.14-.09-1.27-.28.66,0,1.7.07,2.36.14-.54-.16-1.64-.32-2.17-.49a12.64,12.64,0,0,1,2.22.16,5.56,5.56,0,0,0-2.55-.55l-.58.12a8,8,0,0,1,1.69,0c1.27.16-.56.23-1.15.24l-.38-.12c-3.45.12.55.48.35.73l-2.51-.1,2.08.25a11.14,11.14,0,0,1-2.43,0c-1.24.17.89.15-.49.3a1.83,1.83,0,0,1-.43,0l.75.17c-.53,0-1.77,0-1.41-.08-1.45.3,1.88.49,0,.61l-.15,0c.85.42,1.84,0,4,.36l-4.54.21,1.84,0c-.07,0-.2.13-.94.11,1.26.16.8,0,2,.07-1.68.21.78.58-2.15.63,1.4.08,1.08-.2,2.05,0-3.15.06.54.26-.91.45-1.63-.06-.77-.24-2.22,0,2.75.12-.6.37-.08.53,2.19,0,.91.35,1.64.62-.74,0-1.2.51-2,.76h-.37c2.21,0,1.8.31,2.25.5a13.76,13.76,0,0,1-2.44-.14v.18a4,4,0,0,1,1.34.21l-1.65,0c.09.24,1.95.48.84.78,1.54,0,4.3-.24,5.33.08a20.59,20.59,0,0,1-2.6-.06c.11,0,.69.1.34.15l-1.4-.13c-.62.14,1.17.07,1,.18-1.19,0-.85.08-1.79.07-.12,0,.49-.1,0-.14a5.45,5.45,0,0,1-1.82.33,7.6,7.6,0,0,1,1.76.09c.09.24-1.43.08-2,.22.83.06,0,.21,1.75.21a6.73,6.73,0,0,1-1.32.11c.78.12.22.57,2.12.43l.12,0,.08,0h0c1.77.4-1,.84-.25,1.23h-.6c.68.24.4.53,1.68.7a6.47,6.47,0,0,1-1.8.14c.45.18,1.12.2.13.47-1-.18-.92.06-.76-.19-.51.24-1.47.29.16.54-1.52-.09-1.92.18-1.46.29l1.09-.17c.22.13.09.24,0,.35l-2-.06c-2.44.48,4.15.87.07,1.24,1.4.13,1-.26,2.63-.15a31.59,31.59,0,0,1-3.16.52c-1.11.31,2.93.28,2.17.6a13,13,0,0,1,3.3.16,11.41,11.41,0,0,1-3.58.13c-.06-.05.17-.08.41-.08a3,3,0,0,0-1.34-.08l.72,0c-.73.11-.65.42-1.83.35a2.62,2.62,0,0,0,1.54-.05c-1,.29,0,.45-.73.74a6,6,0,0,1,1.23,0c-.89.43,1.36.19,1.67.48-1.09.17-2.6-.06-1.69.23a8.14,8.14,0,0,1-2.48,0c1.38.27-.91.5-1.16.65l-.58-.14c.34.08.33.15.33.22l1.43-.08a1.62,1.62,0,0,1-.85.15c.94.09,2.38-.07,3.66.1-.73.11.78.34-1.12.37.64-.35-1.91,0-2.21-.26.23.06.22.13,0,.21a2,2,0,0,1-.5,0c-1.7.33,2.15.15,2.1.5-1.07,0-2,.08-1.8.14a8.7,8.7,0,0,1,2.61.06c-.83.22.62.24.52.36l.39-.13c1.07,0,.93.16,1.27.31-.83,0-.57-.14-.94-.09,1.88.17-1.95.39-.68.63-.72.11-2,0-2.5.11,1.39.27-1.47.29-.32.57a7.43,7.43,0,0,1,2.49.1l-1-.46,2.09.3c0-.14-.9-.29-.66-.38a6.5,6.5,0,0,0,2,.06c-2.16.19,1.26.38-.2.6H96.09c-1.59.33,1.83.59.93,1l.62-.14c1.42.06.2.27.77.41a18.76,18.76,0,0,0-2.36.13c.88,0-.08.32,2.3.35l-1.57.19c-.64.35,3.39.4,3,.73a21.7,21.7,0,0,1-3.06-.17c0,.11-.23.21.6.21-.75.07,1.6.31.47.41.52,0,1.77.06,1.67.19s-.59,0-.59,0a10,10,0,0,0,2.12.09c-3.71.34.27,1-2.92,1.26a2.33,2.33,0,0,1,.87.76c-.36,0-.59,0-.47,0-1.11.31,3.42.19,2.18.53-1.92.18-1-.18-1.77-.07-3.92,0,.53.42-1.75.65l-.23-.06c-1.33.18,1.48.44,1.2.73,0,0-.35,0-.59,0a7.5,7.5,0,0,1,3.21.86,13.27,13.27,0,0,0-2.37-.07c.22.13,2.5,0,2.94.21a26.07,26.07,0,0,1-3.23.29l-.09-.24c-2.15.12.07.31-.3.43l-.94,0c.3.36,2.67.37,2.5.76l.71,0c2.34.21-1.32.18.42.39l-2.38.06a19.2,19.2,0,0,1,2.75.74,29.43,29.43,0,0,1-3.72-.62c0,.14.18.47,1.35.55-.23-.06-.81-.13-.45-.18,1.87.17,2.79.4,2.75.67-4.61,0-1.16.72-4.75.93,1.71.49-.73,1-.46,1.55,3.59-.2.1.17,3.79.13.24.13.18.18-.06.2l-2.2.4c-1.07.1-.81-.13-1.64-.11-.28.29-1.56.12-2.54.32,1.32,0,1.89.1,1.38.27l1.7-.23c2,.41-3.09.35-1.15.76l-1.16-.13c.68.21,0,.78,2.94,1a7.35,7.35,0,0,1-1.7,0c-.44.5,3.15,1.12,1.33,1.52l-.9,0c.26.09,1.69.16.79.28a5.51,5.51,0,0,0-1,0c.31,0,1.58.25,1.05.37l-1-.11c-1.18.49,2.47.76,3.09,1.17a8.71,8.71,0,0,0-3.95.58h-.38c-.33.57,2.2,1,3.24,1.5-2.88.33-1.21,1.12-2.82,1.65a9.84,9.84,0,0,1,2.33.11c-.54.12,1.84.34-.59.32l0,0c-2.39.09-1.75.35-1.82.55l3.18,0c-4.63.52,1.7,1.37-2.45,1.65.8.13.79.28,1.58.41H94.88c-.44.35-.65.52-.24,1l-1.22-.09c-.11.24,4.92.31,5,.53l-2.55.07c0,.42-2.2.85.11,1.27a5.92,5.92,0,0,1-1.21-.09c-.07.2-1.72.77,1.77.7-2.28,0-.22.44.78.67l-1.68,0c2.15.19,2.73.2,3.33.47-.22.06-1.34.06-.91,0-.88.21,1.59.17.7.42l-1.07-.1c-.13.22.45.2,1.7.32.67.14-.42.42-1.94.45.93,0,2.16.15,1.73.28a6.27,6.27,0,0,1-1.1-.05c-1.14.37,2,.55.3.8a9.54,9.54,0,0,0-1,0c0-.29.13-.53.26-.5a26.6,26.6,0,0,1-4,0c1.17.19,3.7.51,3,.74l-.54,0-.17,0c-.15.05,0,.1.25.14-.25.07-.44.12-.47.19-1.28,0-.69.27-.75.39a19.69,19.69,0,0,0,2.82,0,.28.28,0,0,1-.27-.1.55.55,0,0,0-.18-.05h.15a1,1,0,0,1-.11-.29c.86.09,1.59.19.64.32l2.73.16c-2.36.16-3.64.47-5.1.51,1,.36.63.84,3.81,1.07.41.1-.91.12-1.41.16a3.28,3.28,0,0,0-.73-.16c.82.2.32.6,2.54.65-1,.26-2-.14-1.68.21l-.68,0c-3.55.69,5.68,1.13,1.11,1.9a3.9,3.9,0,0,1,.78-.09c-2,.88,1.89,1.81-1.3,2.67-.64.25.78.27,1.86.42l-1.82.05,2.1.26c1.54.36-4.47.63-1.56,1.09l1.23-.06c-.23.17.72.52-.69.5.22,0,1.28.05.64.12h-1l1.63.41c-.69.32-3.78,0-4,.41A14.76,14.76,0,0,0,100,220a4,4,0,0,1,1.55-.18l.5.16a44.28,44.28,0,0,0,7.64-.24l-1.72-.27,1.36-.09.09.23c1.28-.13.15-.21-.63-.3a11,11,0,0,0,1.5-.11l-2.68-.26a16.45,16.45,0,0,0,2.78-.06c-1.25-.12-2.46.12-3.28-.09,1.27-.13,2.32-.09,1.22-.24a7.28,7.28,0,0,1,1.5.07c-.87-.13-.37-.35-1.86-.42,1.57-.13-.41-.45,2.25-.44a9.78,9.78,0,0,1-2.2-.36c3.18.22.19-.46,3.6-.4-2.86-.17-1.27-.6-2.86-.89.23,0,.69,0,.54.07a7.93,7.93,0,0,1,1.64-.32,30.7,30.7,0,0,1-4.36-.42c2.28-.2,2.77.12,5,.06-1.91,0-1.91-.35-3.51-.28a19.24,19.24,0,0,1,2.64-.21c-3,0-.5-.14-2.32-.27,1.46-.22,2.77-.06,1.87-.3A6.86,6.86,0,0,1,112.17,214.52Zm-5.11-5.87h0l.1.12Zm0-.49a.22.22,0,0,0-.07.21,4,4,0,0,1-1.16-.05A5.89,5.89,0,0,0,107,208.16Zm-11.74,1c-.24-.08.09-.1.44-.11a.59.59,0,0,0,.2.14h.21Z"/><path class="cls-2" d="M97.52,209.34a.58.58,0,0,1,.12,0l.38,0-.53,0Z"/><path class="cls-2" d="M100,164.65h0l.24,0Z"/><polygon class="cls-2" points="110.28 201.35 109.86 201.35 110.23 201.39 110.28 201.35"/><path class="cls-2" d="M105.85,161.93l.43,0Z"/><path class="cls-2" d="M106.23,160.76l.6-.17A3.3,3.3,0,0,0,106.23,160.76Z"/><path class="cls-2" d="M107.07,159.86l-.73,0h0Z"/><path class="cls-2" d="M109.06,174.2l.08,0C109.46,174.31,109.33,174.26,109.06,174.2Z"/><path class="cls-2" d="M105.1,169.93c.31,0,.61.09.8.14S106.06,169.93,105.1,169.93Z"/><path class="cls-2" d="M111.1,179h0s0,0,0,0Z"/><path class="cls-2" d="M105.87,170.26c.34-.08.27-.14,0-.2S105.61,170.2,105.87,170.26Z"/><path class="cls-2" d="M107.84,155.95l.07,0h-.27Z"/><path class="cls-2" d="M107.63,155.9l-.2,0S107.45,155.89,107.63,155.9Z"/><path class="cls-2" d="M107,155.75l.43.1S107.49,155.77,107,155.75Z"/><path class="cls-2" d="M107.05,157.14h0Z"/><path class="cls-2" d="M107.23,157.5c.14-.09,1.31-.22.93-.34h-.49C108.58,157.21,106.19,157.42,107.23,157.5Z"/><path class="cls-2" d="M99.63,159l.49-.3a4.67,4.67,0,0,1-1.69,0C96.48,159.08,99.9,158.62,99.63,159Z"/><path class="cls-2" d="M98.68,160c-.3-.16-1,0-1.32,0A2.62,2.62,0,0,0,98.68,160Z"/><path class="cls-2" d="M98.68,166.77l-1.54,0C97.36,166.88,97.73,166.76,98.68,166.77Z"/><polygon class="cls-2" points="106.65 168.08 107.61 167.95 106.19 167.9 106.65 168.08"/><polygon class="cls-2" points="95.66 168.85 95.44 168.79 96 169 95.66 168.85"/><path class="cls-2" d="M96.21,180.29l1.9,0C97.77,180.16,95.64,180.15,96.21,180.29Z"/><path class="cls-2" d="M98.15,185.23c-.95.05-1.56.19-.63.28C97.65,185.39,98.39,185.28,98.15,185.23Z"/><polygon class="cls-2" points="95.05 200.04 94.42 199.94 94.94 200.13 95.05 200.04"/></g></g><g id="Layer_2" data-name="Layer 2"><g id="亮-2" data-name="亮"><polygon class="cls-3" points="110.86 220 22.2 374.84 180.52 374.84 110.86 220"/><path class="cls-4" d="M100.53,224.73c-.14-.73-1.85.23-2.23.26C99.21,226,101,224.52,100.53,224.73Z"/><polygon class="cls-4" points="109.63 234.15 108.8 234.25 111.36 235.16 109.63 234.15"/><path class="cls-4" d="M114.25,244.51c2.66-2.21-2.19-3.55-1.91-5.83l.57-.59-2.87.16C111.45,240.34,114.41,242.59,114.25,244.51Z"/><path class="cls-4" d="M110,252.69c1-.82,1.57.78-.2-1.44a2.52,2.52,0,0,1-.2.35A5,5,0,0,1,110,252.69Z"/><path class="cls-4" d="M109.63,251.61c-.58-1.06-.69,1.11,0,0Z"/><path class="cls-4" d="M112.58,256.37l-1.72-1c-.58.58-.16,1.92-.9,1.66C111.22,258.26,111.79,257.67,112.58,256.37Z"/><path class="cls-4" d="M115.46,256.83l-.79-.56C114.43,256.52,114.41,256.76,115.46,256.83Z"/><path class="cls-4" d="M113,255.07l1.67,1.19c.4-.41,1.4-.83-.67-.59C115,255.45,113.95,255.48,113,255.07Z"/><path class="cls-4" d="M113.07,254c.31-1.07.27-2.28,2-1.27C113.39,250.15,111.4,251.42,113.07,254Z"/><path class="cls-4" d="M117.7,243.77l.43-1.44-1.46-.52C117.39,242.07,116.76,244.22,117.7,243.77Z"/><path class="cls-4" d="M115,265.95c.7-.17,1.54-1.18,2.34-1.62l-1.24-.76C115.9,264.29,115.95,265.49,115,265.95Z"/><path class="cls-4" d="M117.34,264.32l1.84,1.14C118.68,264,118,263.94,117.34,264.32Z"/><polygon class="cls-4" points="119.01 255.72 115.47 254.06 119.27 256.21 119.01 255.72"/><polygon class="cls-4" points="117.64 272.04 115.71 271.74 118.74 272.43 117.64 272.04"/><path class="cls-4" d="M119.72,275.95c-1.56-.16-1.73,1.76-2.82,1.37.72,1,2.22,1.5,3.58,2C119.53,278.59,119.24,277.59,119.72,275.95Z"/><path class="cls-4" d="M122.53,280.11a10.09,10.09,0,0,0-2.05-.84A5.21,5.21,0,0,0,122.53,280.11Z"/><path class="cls-4" d="M120.07,268.29a2.86,2.86,0,0,0-1.32,2l1.57-1.36Z"/><path class="cls-4" d="M120.38,268.88l0,0,.5,1.39Z"/><path class="cls-4" d="M120,268.13l.06.16C120.23,268.16,120.27,268.1,120,268.13Z"/><path class="cls-4" d="M119.21,260.54c1.46.52,3.44,2,4.18-.49C121.81,259.89,121.4,261.32,119.21,260.54Z"/><path class="cls-4" d="M122,266.43l-.33-1.85c-.47.23-1.05.82-1.78.56Z"/><polygon class="cls-4" points="122.94 267.02 121.98 266.43 122.11 267.12 122.94 267.02"/><path class="cls-4" d="M123,276.54a4,4,0,0,1,2.1,2,8.82,8.82,0,0,0-.75-3.13C123.67,275.53,122.43,275.53,123,276.54Z"/><path class="cls-4" d="M121.87,272.75l.18.12C122.16,272.71,122.17,272.61,121.87,272.75Z"/><polygon class="cls-4" points="129.03 287.42 129.3 287.14 128.97 287.23 129.03 287.42"/><path class="cls-4" d="M124.58,275.13c0-.87-.62-1.12-1.37-1.31a6.57,6.57,0,0,1,1.1,1.61C124.6,275.39,124.78,275.33,124.58,275.13Z"/><path class="cls-4" d="M124.51,282.24a7.77,7.77,0,0,0,.46-1.66C124.54,281.18,124,282.29,124.51,282.24Z"/><path class="cls-4" d="M121.64,273.32l-.13-.08C121.22,273.64,121.4,273.53,121.64,273.32Z"/><path class="cls-4" d="M121.64,273.32a5.65,5.65,0,0,0,1.57.51,4.79,4.79,0,0,0-1.16-1A2.5,2.5,0,0,1,121.64,273.32Z"/><path class="cls-4" d="M142.15,285.36c-1.78.56-4.22-.72-3.12-3.09-2-1.11-7.2,2.2-9.72,4.87.77-.25,1.47-.52,3.23.74.67-1,.53-4.57,2.72-3.78,1.88,1.85.2,2-.22,3.48,1.73-1.76,4.38,1.57,7.31-.17l-2-1.49C140.84,285.69,141.94,286.08,142.15,285.36Z"/><path class="cls-4" d="M128.05,283.9l-.52-.6c.05.9-.38,1.73-1.27,3.3a3.34,3.34,0,0,0,2.71.64l-1.28-3.47Z"/><path class="cls-4" d="M126.14,280.22c2.11-.21,3.65,1.12,5.22-.69-1-2-2.2-.79-3.55-1.66,1.92,3.06-1.46-.52-1.47,2.25a6.17,6.17,0,0,1-1.28-1.56,9.47,9.47,0,0,1-.1,2l.08-.12h0c.17-.23.29-.34.23-.13,0,0,.07.05.07.05a3.79,3.79,0,0,1,.77-.13c0,1.09-.42.34-.77.13l-.3.07,0,0,2.49,2.84A7.21,7.21,0,0,0,126.14,280.22Z"/><path class="cls-4" d="M128.19,260.19a.83.83,0,0,1-.39.28C128.13,260.58,128.32,260.6,128.19,260.19Z"/><path class="cls-4" d="M127.66,262c-.37-.13-1.2,0-1.36-.88.26-.89.9-.35,1.5-.63-.71-.27-2.07-1.09-2.33.73l.36.13c-.05,1.56-1.63,4.17-2,4A16.74,16.74,0,0,0,127.66,262Z"/><path class="cls-4" d="M127.42,271l2.13,2.34,1-2-.94.46C129.3,270.09,128.25,270.9,127.42,271Z"/><polygon class="cls-4" points="128.24 288.1 126.1 288.52 129.6 288.97 128.24 288.1"/><polygon class="cls-4" points="130.06 291.52 128.28 292.07 129.74 292.59 130.06 291.52"/><path class="cls-4" d="M52.65,385.37l-1.51.5A5.67,5.67,0,0,0,52.65,385.37Z"/><path class="cls-4" d="M59.29,385.49l.16-.86C59.15,385.1,59,385.45,59.29,385.49Z"/><path class="cls-4" d="M162.59,363.33c-.94-.43-2.14-1.06-3-1.56-1.62-.91-2.37-1.36-.53-.17l3.1,1.92c-.06-.09-.07-.15,0-.16C161.93,363.14,162.18,363.19,162.59,363.33Z"/><path class="cls-4" d="M113.77,375.29l.39.58.9-1.84Z"/><path class="cls-4" d="M112.82,383.24,111.06,382A5.83,5.83,0,0,0,112.82,383.24Z"/><path class="cls-4" d="M4.64,379q-1.14-.07-2.23-.24C1,381.33,3.2,379.48,4.64,379Z"/><path class="cls-4" d="M147,327.26a5.68,5.68,0,0,0,0,2.95C147.48,328.57,148.66,327,147,327.26Z"/><path class="cls-4" d="M55.26,365a1.34,1.34,0,0,0-.79,1.17C55.06,365.8,55.38,365.44,55.26,365Z"/><path class="cls-4" d="M148.24,333.09a6.32,6.32,0,0,0,.21-.7,4.88,4.88,0,0,1-1.51-2.18C146.54,331.41,146.5,332.63,148.24,333.09Z"/><path class="cls-4" d="M77.11,255.79a2.39,2.39,0,0,1,.36-.14C77.24,255.5,77.16,255.61,77.11,255.79Z"/><path class="cls-4" d="M113.47,233.23a6.12,6.12,0,0,1-.61,1.37C113.12,234.43,113.33,234,113.47,233.23Z"/><path class="cls-4" d="M135.6,306c-.46-.7-.26,0,0,0Z"/><path class="cls-4" d="M141.42,299.4a1.7,1.7,0,0,0,1-.07A2.19,2.19,0,0,1,141.42,299.4Z"/><path class="cls-4" d="M163.31,335.85l0,.07C163.6,335.55,163.55,335.62,163.31,335.85Z"/><path class="cls-4" d="M136,304.53a3.6,3.6,0,0,0-.13,1.18A3.74,3.74,0,0,0,136,304.53Z"/><path class="cls-4" d="M135.13,305l-.11-.72C134.66,304.34,134.5,304.5,135.13,305Z"/><path class="cls-4" d="M136.17,307a3.18,3.18,0,0,1-.35-1.28c-.06.2-.14.3-.22.29Z"/><path class="cls-4" d="M48.49,316.63a2,2,0,0,1,.26-.07C48.41,315.47,48.35,315.84,48.49,316.63Z"/><path class="cls-4" d="M163.09,383.77c.05,0,.07-.07.11-.09l-.22-.07Z"/><path class="cls-4" d="M158.67,385.2c1.57-2.39,2.57-2.1,4.31-1.59q-1.83-2.77-3.34-5.54A30.83,30.83,0,0,1,158.67,385.2Z"/><path class="cls-4" d="M26.42,385.92q1,.87,2.19,1.73c-7,2.84-10.13,1.86-8.41,4.29,3.22-3,7.13-3.16,11-3.32s7.84-.31,9.34-3.31l1.86,1.27c-.67-.06-.91.3-1.58.24,3.89,2.88,4.9-4.35,9.88-3.5,2,.46,2.77,1.33,1.9,2l2.79-1.49c.81.12.61,1.16-.19,1l4.25-.48,0,.18a20.76,20.76,0,0,1,2.65-3c1.08.87-.54.64-.27,1.39l2.35-1.46c1,1.56-1,3.07-2.62,2.85,2.2,6,2-1.51,6.7,2l-2.22.76c1.43,3.41,3.17,2.18,5.68,4.3-.6-1.11-5-5.36-2.48-6.86.72.45,1.67.67,3-.54,0,2.14,1.36,1.61,3,1.49l-.11,2.84c1.82-.82,1.68-2.26,2.75-3.54,2,.28,2.45,2.47,2.93,4.33,3.25.45-2.24-3.52,1.6-4.06,2.7,1.09,4.6-.07,7.83-1.77,1.89,1-.33,1.74.35,2.55l1.68-2.26c.41.06.28.75.21,1.1,1.41-.88.12-2.84,2.34-3.6.6-3.12,4.56,4.56,7.31,1,.68.81-.33,1.74-.12,2.84,3.77-2.33,3.23-1.69,6.33-4.83l2.64,1.86c-1.94-2.13.54-4.65,2.71-6.72a25.38,25.38,0,0,0-1.67-2.36l3.46-1.52c.42.47.07,1.44-.5,2.62a8.92,8.92,0,0,0,.63-.68c1.24,1,.6,2.68-.29,4.27l-1.25-1.75c-.85,1.72-1.65,3.63-1.48,5.29a2.26,2.26,0,0,1,1.13-.77,1.73,1.73,0,0,0-.26,1.17c.12.3.48-.33,1-1.05l.79,3.16.19-1.26,4.53,2c3.24-3.18,6.06-7.87,11.2-9.17-1.28,2.32-.27,3.79-.34,6.53-1.4-2.91-4,1.23-6.65.64a1.25,1.25,0,0,1,.73,2.07l4.75-2.64c-.11,2.25,1,1.68,2.25,2.61-.94-4.44,3.54-3,5.48-4.32.12,1.49-.34,3-2.7,2.65,2.6,3.34,3.36-5.21,5.92-2.37-.58,0-.89-.19-1.11.57,1.35-1.33,4.64-.27,3.86,1l-.57,0c3.81.53,11.55,0,12.63-3.74a21.07,21.07,0,0,1-.47,5.31q4.67-6.34,4.28-12.68a54.7,54.7,0,0,0,3.56,6.92c1.38,2.56,2.37,4.95.3,5.86a7.58,7.58,0,0,0,5.91-.14c-1.32-.46-4.84-4.68-3.95-5a23.08,23.08,0,0,0,4.38,2.7l5.31,2.3c-1.93-.69-4.58-5.77-2.87-5.61.41.76,4.87,5,4.55,5.54a11.78,11.78,0,0,0-.09-5c-.12.9,4.39,4.22,7.36,5.64-1.75-1,5,.09,5.83-.4l-3.88-1.16c4.55.48,1.63-2.47-.24-4.63-2.36-2.06-4.27-3.81-4.73-5.08,1.73,1.22,10.42,6.9,10.17,4.73-2.21-1.63-7.4-5.29-12.28-8.45s-9.45-5.82-11.19-7.15l1.75.14q-1.48-1.16-2.86-2.09a56.58,56.58,0,0,1,11.56,5.69,93.63,93.63,0,0,1,12.73,9.63c.77-1.26,2.24.56.62-2.7,1.38-.44,3.73,3,4.32,4.08L193.16,369c-3.83-.87-6.55-6.9-9.45-7q3.56,4,7.54,8.83c-2-.54-5.39-2.73-8.29-4.88s-5.3-4.29-5.84-6.16c.94-1,6.74,1.37,8,1.53-1.58-.87-4.4-4.75-3.77-5.22l2.78,2.09c0-1.45-1.68-2.63-3.05-3.7s-2.47-2.09-1.75-4.12c-.16-.59.43-1.75.78-2.81s.71-1.47-.23-1.28a31.32,31.32,0,0,1-7.86,4.49,50.31,50.31,0,0,1-8,2.58c.11-.35,1.38-5.28,2.63-6.8,2-2.3,7.07-.59,8.84-2.55a4.81,4.81,0,0,1-2.56-.2c.32-1.07,2.62-.65,1.48-2.25-3.09.88-1.35-3.65-2.87.17-1.61-1.37-.2-2.06-1.24-4-1.62,1.4-7.31.79-8.93-.58a5,5,0,0,0,2-1.34c-1.31-3.6-.81-6-2.25-9.29.58-.59.74-2.5,2.32-2.34-.74-.26-1.93-.29-2.46-1.27,1.68-3,1.41,2.09,3.82-.62-1.78.56-3.55-1.66-5.26-2.66-2.46,1.5,1,3.51,2.7,4.52-3.66,1.46-8.62.49-11.85-2.24-2.13-2.35,1.84-2.12,1.11-2.38-1.65-5.34-8.35-1.79-7.6-7.07,1.58-2.6,4.61-1.92,6.12-3,1.88,1.86,0,4,.81,5.44l.28-2.28c1.09.39,2.34,1.63,2,2.7,1.46-2.24-3.47-8.76-3.3-13.45-1.09-.39-2.45-1.27-3.13-.33l.88,1.11c-1.37,1.89-3.66-1.3-3.83.62-2.07-1.14-5-2.18-5-5l2.46-1.5c-.76.36-.89,2.16.21,2.5-1.62-.51,2-5-2-4.72l-1.1,2.38c-2.09-1.14-5.85-2.09-5.94-4.5-2.2,2,.52.36-1.89,3.06,3.25-2.8,2.23,5.38,5.33,1.73-2.89,2.94-.33,3.22-2.49,6.42.85-.41,1.37-1.37,1.72.55a4.38,4.38,0,0,1,.95.08v.14l.06-.14c.17,0,.2,0,0,0a3.07,3.07,0,0,1,.94-1.42c2.41.06,3.59,2.87,5.06,3.39,0,1.2-1.2,0-1.89.91l2.19.78c-1.89.91-2,4-4.24,2.05l.9,2.23c-.51,1.73-.15,3.68,1.17,4.45,0,1.2,3.34,1.76,1.4,1.46l2.76,3-.47.22c1.28,3.5,6.38,5.71,4.6,11a6.27,6.27,0,0,1,2.45,4l-1.52,1c1.25,1.24.3,5.08,2.34,5-3.83,3.39,2.22,7.52,2.57,10.43l2.25-.78c.62,1.7,2.31,3.82,3.37,3.86l2-.6c1.06.26,1,1.08.72,1.78s-.84,1.31-.43,2c-1-.23-.86-.47-.41-.66-2.38.48-1.22.95.44,2.17s3.71,2.89,1.62,2.44c1.24.89,1,1,.35.82a.94.94,0,0,0-.2-.17s0,.06,0,.12l-1.45-.5a8.72,8.72,0,0,0,1.49.58,11,11,0,0,0,1.51,1.63l.07.12-3.55-2.13s0,0,0,.06c-1.53-.79,1.18,1,3.91,2.62a12.25,12.25,0,0,0,1.16,1.29c-2.73-1.72-2.6-1.43-2.64-1.17s-.2.49-2.69-1.34c1.84,1.79-.88,1.35,1.9,5.12-.46-.49-.87-.73-.5-.76-1.21-.43-2.21-.86-2.22.21l-2.1-2.71a12.2,12.2,0,0,1,.41,3.65c-2-1.65-2.48-2.62-2.63-4.7a2.89,2.89,0,0,1-1,2.21,8.17,8.17,0,0,0-1.59,2.18l0-1.75c-.45.07-2.4,2.42-3.12,1-2.59-3.34-12.84-.46-19.5-3.56,1.29,5.17-3.1-2.31-3.36,1.69-.39-1.22-1.32-1.91-.24-3-3.4,1.2-5.11-1.94-7.45,1.44-.39-1.23.73-1.79.38-2.52-.27.27-1.08,1.06-1.43.33s.5-1,1-1.56c-3.47.21-3.82,4-4.08,7.5-1.76-1.67-2.64-1.44-3.91.88-.61-1.16-1.63-2.37.52-2.78-1.21-.17-7.41-1.69-7.54,1.14-.38-.72-1.7-.21-2,.12-2.72-.17-3-.43-5.64-.16l.74.46c-1.06,3.42-2.22.76-4.38,1.17l.06-.35c-4.94-2.47-2.13,1.18-7-1.64l.27,2.13c-.45,4.57-4.32-2.7-7.15-.95l1,1.22c-1.55,1.56-4.32-6.22-5.87-6.79-.34-.4.53-.64,1-.93-4.06-2.7-.53,2.78-3.56,3.43-.56-1.5.72-3.82-1.32-4.1-1-1.21-5.91,4.88-8.69,2,.61,1.16,1.22,2.31-.19,3.18-2.16.41-5.83-4.37-7.78-.72a1.45,1.45,0,0,1-.39-.91,11.07,11.07,0,0,1-1.55.67,6.3,6.3,0,0,0-1.19.71,7.43,7.43,0,0,0-2.24,2.16c.41-3.67-.85-2.78-2.89-1.81s-4.49,2-1.48-1.39l-3,.36.87-.69c-1-.45-3.66,1.18-6.84,2.8.2-.46,1.51-1.1,2.05-1.45-.35-.73-.47-1-1.93-.56a33.57,33.57,0,0,0-3.73.49l3.78-2c-.91.24,1-1.32,2.62-2.63s2.86-2.38,1.7-3.05a4.75,4.75,0,0,1,1.21,0c-1.11-.79,1.68-2.44,3.08-3.1s1.83-1.06-1.7-3.33a21.08,21.08,0,0,1-.33-3.59c-2.7,3.4-2.94-2.2-5-1.31.39-1.67,4.41-2.61,3.77-.63l-.53.09c3.53,2.63,4-3.89,6.62-2.44,4-7.37,10.19-13.35,14.25-20.08l-3.49-.75L60,322.33c1.06-.27,2.86.37,1.76,2,2.23,0,.18-3.57-.45-4,3.13-2.69,2.8,3.09,3.45,2.11l.57-1.5-.53.13c-.6-1.75-1.86-2.51-.54-4.47,1.35-1,2.25.29,2.66-.16.22.11.42,0,.54-.73l2-2.86-3.08,0c-.42-1.92,1.74-2.75-1.77-2.74,5.35.09,7.89-10.4,9.9-11-.68-2.74.4-4.56,1.91-6.72-.82.31-3.71-.71-2.26-2.51,5.15,3.53,4.47-2.36,9.38-1.92-3.46.07,2.53-5.9-2.51-5.59,1.39-1.41,2.14,1,4.16.38.07-5,6.31-7.86,8.33-13-.69-.45-2.26-.2-2.76-1.79l5.1-.69c.19-1.13-3.71-3-.19-3.46-.75-.07-1.89-.17-1.76-.92,8.95-7.62,8.11-20.72,20.27-26.91-2.16.58-1.8-.35-1.29-1.37-.71.47-1.79-.93-2.86-1.3l5-2.61c-2.33-2.12,2.27-4.39-.11-6.14l-.25,1.51c-2.14-3.26-8.24-1.13-12.07-3.39,2.44,3.67-8.07,2.34-4.8,8-1.2.27-.95-1.23-2.08-1.33,1.25,1.65,1.07,2.78-.7,4.15l-.31-.41c-2.41,5.15-5.3,6.41-9.6,11.4l2.2.58a4.47,4.47,0,0,1-2.52,1.31c2.2,2.88,2.09-3.26,4.66-.35-4.91-.44-4.87,8.38-10,7.14-1.08,1.82,2.58.61,1.51,2.43l-1.51-.14,1.32,1.27c-.95,1.07-2.84.9-3.9.42.29-.23.18-1,.27-1.33-2.34.83-2,4.65-2.8,4.94l1.77-1.38c-1.71,5.59-6.83,10.88-7.1,17l1.14.1c-.4,4.56-2.71,2.44-4.24,6.9l-.14-.26a3.93,3.93,0,0,1-.44,3.65c-.5-1.57-3.21.86-3.65-1.09-.45,4.94.31,2.71,2.25,7.1L62,292.57c.88,1.61,1.57,2.05.81,4.28-.37-2.33-3.08.11-3.77-2.64-5.8,2.54-.21,8-6.25,7.49,3.14,4.11,4.47-2.48,4.76-.92,1.92-.21,2.26,3.22,1.07,4.34-.87,1.31-6.78-.45-8.65,3,.21-.33-.1-.52.12-.84-1.82.73,0,3.25-2.63,3.92,2.08,2.18-1.31,2,1.83,3.88l1-3.52c-.16,2.21,2.74,5.82-.8,7.8a6.19,6.19,0,0,1-1-2.72c-1.46.36-.3,2-1.81,2.35-3.14-1.92,1.46-4.17,0-7.34-1.91.22.32,4.8-2.69,2,3.74,3.67-2.5,3.07-.36,7.14l-1.88-1.15c.1.52.59,1.75.16,2.4l-1.86-2.51c1.11,3-4,2.64-3.81,5,2.09-3.79,2.86.36,5.21-.5,0,6-6.68.06-8.71,5.73.12-.84,2.69-2,3-.48a7.6,7.6,0,0,1-3.86,1.79c-1.56,3.65,2.33.5,2.71,2.58-3.07,0,0,2.18-.09,4.08l-2-1c-3.53,3.27,3.58,3.15,0,5.89l-1.92-2.9-.34,2.2-2.06-1.53a4.26,4.26,0,0,1-.14,2.91c-.43.79-.79.83-2.15,2.48,1.85-.06,3.48,2.1,2.21,4.47-2.29,1.32-1.54-1.6-3.32,2.15-1-1.06-2.14-2.63.85-3.69-.61-.4-.85-1.34-1.43-1.79-2.71,1.65-3.48,5.37-4.28,6.82a5.61,5.61,0,0,1,1.48-1.53,46.05,46.05,0,0,0,.21,5.89c-1.46.86-1.88.23-2.24-.49-.39,1.17.38,1.91-.31,3.5-2-.22-4.36.16-3.83-2.49q-.55,3-.89,5.62c-1.2.51-4.56,3.58-5,3a7.54,7.54,0,0,0-1.79,5.53,8,8,0,0,1-2.39,6c.42,0,.69.19.59.87-1.59,2.32-4.08,5.07-5.78,7.57a25.84,25.84,0,0,0,8.65-1.05,17.67,17.67,0,0,0-1.28,3.11c2.94-.35,3.06-1.34,3.82-2.37s2.1-2.14,6.28-2.73c6.06-1-1.51,2.66-.72,3.52,2.31-.78,5.43-2,8.05-2.65s4.81-.84,6.12.43C28.91,386.15,28.06,385.69,26.42,385.92Zm42.78-1.38c-.63.45-1.88,1.83-2.34.57C67.57,382.66,68.12,383.84,69.19,384.54Zm49.35-5.15c-.47.7-1.19.36-2-.45A2.19,2.19,0,0,1,118.55,379.4ZM141,313.49l.13,0C140.84,315,141,314.49,141,313.49Zm-.22-2.89a.86.86,0,0,0-.93.22c.61,0,.9.52,1,1.22C141.33,311.65,141.57,311.17,140.76,310.6Zm-74.43,5.24-.79.2C65.57,314.69,65.92,315.25,66.33,315.84Z"/><path class="cls-4" d="M112.95,382.32a3.36,3.36,0,0,1-.27-1.16A.77.77,0,0,0,112.95,382.32Z"/><path class="cls-4" d="M5.06,379l.12-.16a2.38,2.38,0,0,0-.55.14Z"/><path class="cls-4" d="M176.1,342.63a2.46,2.46,0,0,1-.63,1.43C176,343.88,176.32,343.47,176.1,342.63Z"/><path class="cls-4" d="M131.18,298.65l1.27,1.4c-.46-.74-.12-1.2,0-1.73C132,298.55,131.44,299.14,131.18,298.65Z"/><path class="cls-4" d="M137.83,279.47c-.36-.13-.25-.49-.62-.62l-.94.45C136.79,280.28,137.89,280.67,137.83,279.47Z"/><path class="cls-4" d="M137.47,294.39c1.71-.83.65-1.6-.19-2.61a.54.54,0,0,1,.09.2C134.76,292.62,136.12,293.51,137.47,294.39Z"/><path class="cls-4" d="M137.1,291.54a2.56,2.56,0,0,1-.51-1C135.54,290.77,136.57,291,137.1,291.54Z"/><path class="cls-4" d="M138.15,307.87c.21-.72-2.4.56-1.83,0C133.81,308.13,140.65,310.34,138.15,307.87Z"/><polygon class="cls-4" points="142.86 291.16 140.87 292.43 142.91 292.37 142.86 291.16"/><path class="cls-4" d="M145.28,300.74l-.21-2a.88.88,0,0,1-1-.19C144.54,299.64,144.66,301,145.28,300.74Z"/><path class="cls-4" d="M144.12,298.49a2,2,0,0,0-1-1.31A4.28,4.28,0,0,0,144.12,298.49Z"/><polygon class="cls-4" points="144.63 293.37 144.41 294.09 144.83 295.43 144.63 293.37"/><path class="cls-4" d="M153.62,320.35l1.51,1.73c.84-.1,1.05-.81.42-1.43C154.82,320.38,154.2,319.76,153.62,320.35Z"/><path class="cls-4" d="M156.89,312c-.21.71-.68.94-1.26,1.53l2.72-1Z"/><path class="cls-4" d="M160.11,317.52c.84-.1,3.44,2,2.14-.42C161.42,317.19,159.9,315.46,160.11,317.52Z"/><polygon class="cls-4" points="170.08 348.62 169.82 348.13 165.43 349.96 170.08 348.62"/><path class="cls-4" d="M198.84,386.82,200,387c-.68-2.46-4.72-3.17-4.18-5.18-2-1.77-.5,1.73-2.35,0,.81.94,1.34,1.67,1.79,2.25C194.7,384.42,194.69,384.73,198.84,386.82Z"/><path class="cls-4" d="M193.47,381.78c-.43-.51-.93-1.06-1.55-1.69A18.47,18.47,0,0,0,193.47,381.78Z"/><polygon class="cls-4" points="118.76 229.11 120.46 228.12 118.51 228.33 118.76 229.11"/><path class="cls-4" d="M117.2,224.76l2.89,1-1.94-2.1C118.08,224.07,118,224.82,117.2,224.76Z"/><path class="cls-4" d="M74,390.34l.13-.69c-.27-.75-.68-.8-1.49-.92Z"/><path class="cls-4" d="M48.75,388.19l.72.06q-.54-1.3-1-2.6Z"/><path class="cls-4" d="M9.28,391.5c1.47.11,4-.47,5.47-.36C10.67,391.61,13,388.26,9.28,391.5Z"/><line class="cls-3" x1="102.23" y1="439.99" x2="102.23" y2="374.84"/><path class="cls-4" d="M105.37,374.84c-.41,0-1.33,0-1.14.08l1.56.07Z"/><path class="cls-4" d="M102.48,375.48a18.89,18.89,0,0,0,3.52.17c-1.5-.11-.87-.14-2.66-.26-.18-.09.5-.17,1.07-.15-.4,0,.34-.15-.64-.2-1.21.12-1.26.28-.26.44A8.31,8.31,0,0,1,102.48,375.48Z"/><path class="cls-4" d="M100,384.72l.19-.06A.4.4,0,0,0,100,384.72Z"/><path class="cls-4" d="M99.19,390.44a.62.62,0,0,0-.33-.06A.7.7,0,0,0,99.19,390.44Z"/><path class="cls-4" d="M97.47,391.42l.11-.06C97.44,391.38,97.36,391.41,97.47,391.42Z"/><path class="cls-4" d="M100,384.72l-.49.15C100.07,384.88,99.94,384.79,100,384.72Z"/><path class="cls-4" d="M106.25,376.75a1.87,1.87,0,0,0-.41-.08l.16.08Z"/><path class="cls-4" d="M98.78,382.19v0l-.63,0Z"/><path class="cls-4" d="M98.54,380.26c-.06,0,1.27.06,1.85.08a4,4,0,0,1-.91-.1Z"/><path class="cls-4" d="M100.88,377.19l-.18-.05Z"/><path class="cls-4" d="M98.5,383.58l-.47,0Z"/><path class="cls-4" d="M108.45,437.75h-.24A.6.6,0,0,0,108.45,437.75Z"/><path class="cls-4" d="M101.89,440l-.07,0h-.74Z"/><path class="cls-4" d="M95.78,393.21h0C95.65,393.15,95.68,393.18,95.78,393.21Z"/><path class="cls-4" d="M96.75,409.63c1.18-.19,1.52.3,2.84,0A12.89,12.89,0,0,0,96.75,409.63Z"/><path class="cls-4" d="M106.07,376.8a.08.08,0,0,1,0,.08S106.12,376.82,106.07,376.8Z"/><path class="cls-4" d="M99.59,409.65h0l.12,0Z"/><path class="cls-4" d="M96.57,397.33l.58,0A5.59,5.59,0,0,0,96.57,397.33Z"/><path class="cls-4" d="M98.46,394.26l-.18.08C98.4,394.3,98.44,394.28,98.46,394.26Z"/><path class="cls-4" d="M98.44,398.92c-.1,0-.28.06-.11.11l.16,0C98.32,399,98.23,399,98.44,398.92Z"/><path class="cls-4" d="M98.45,400.58l.27,0-.07-.05Z"/><path class="cls-4" d="M107.82,432.7c-.37,0-.78.06-1.19.08C107.57,432.75,107.9,433,107.82,432.7Z"/><path class="cls-4" d="M105.5,376.75a2.53,2.53,0,0,1,.57,0l-.07-.06A4.69,4.69,0,0,0,105.5,376.75Z"/><path class="cls-4" d="M108.9,399l-.2.26A.33.33,0,0,0,108.9,399Z"/><path class="cls-4" d="M107.63,420.8l.16.06S107.78,420.82,107.63,420.8Z"/><path class="cls-4" d="M108.9,400a5.35,5.35,0,0,0-.92.15l.34,0Z"/><path class="cls-4" d="M106.61,432.78h0Z"/><path class="cls-4" d="M109.76,434.52c0-.25-1.7-.12-2.7-.17-.49-.3,1.28-.14,2.17-.24-.46-.19-2.06-.33-2-.47a4.38,4.38,0,0,1,.75,0c-1.38-.2-.07-.59-1.81-.82l.43,0c-.87,0-1.76,0-2.39,0,0-.11-1.1-.21,0-.25,0,.07.43.07.78.11l-.49-.12c1.64-.11.57.16,1.78.16-.53-.23-1.89-.5-1.42-.67,1.6,0,.54.41,2,.18l-.61.27c2.53-.21-.17.17,2.53,0,.46-.36-.82-.4-.35-.76-.89-.08-1.32,0-2.21-.05-1.6-.51,4-.4,1.89-.77-1.07-.1-3.09-.13-2-.4l1.81.09c.18-.35-2.6-.2-1.38-.56.71.06.6.27.82.22,1.43-.24-1-.17-1-.35l1.6,0c-.25-.37-1.41-.78-1.7-1.19a6.1,6.1,0,0,0,1.47,0c-.8-.52.2-1.1,1.15-1.6l-1.38-.19a2.52,2.52,0,0,1,.89,0c.52-.19-.88,0-1.42-.1-.1-.11.8-.15,1.21-.08-1.17-.34-2.53-1-1-1.34l.41.07c.56-.28-2.84-.32-1.55-.58l.25.05c.6-.61-.67-1.29,1.42-1.75-2-.09.89-.6-1.89-.64a11,11,0,0,0,2.8-.74c.13-.13-1.74-.2-2-.36h1.45l-1.52-.22,1.74-.12-.37-.15a3.48,3.48,0,0,1-1.07.12c-.66-.24,1-.58,1.76-.58l-1.23-.56a4.81,4.81,0,0,1,1.16.18c-1.48-.3,1.53-.05.17-.33a10.23,10.23,0,0,1-1.16,0c.88-.14.89-.45.52-.68l1,0c.25-.42-.48-.88-.46-1.35a6.12,6.12,0,0,1-2.37,0l1.54-.05c-.95-.09-.58.14-1.74,0a6,6,0,0,1,2.25,0l-.53-.21c.46,0,.7,0,1.28.05-1-.09,1.54-.37-.12-.49h.46c0-.47-.52-.68-.59-1.06a10.84,10.84,0,0,1-2.1-.27c.42-.28,1.47-.59,1.35-.93a8.68,8.68,0,0,0-1.91-.18c1.21,0,1.09-.35,2-.18-.2-.4-.24-.52-1.22-1a5.19,5.19,0,0,1-1.12.09c-.2-.09.51-.21,1.09-.2l.13,0c-1.81-.57,3.52-1.33,1-1.78l.12,0-1.31-.47c.21-.22.91.13,1.66,0-2-.51.29-.81-1.05-1.23,3.56-.33-.25-1.16,2-1.6l-.84,0c-.82-.11.48-.14.67-.22a6.51,6.51,0,0,1-1.21.05c-1-1,1.23-2,2-3,.23-.36-4.34-.21-2.34-.66l1.56.13c-1.87-.73.06-1.49-1.52-2.21.36,0,.83,0,.82.11,1.13-.15.06-.56-.87-.56.1-.11.83,0,1.3-.09.67-.15-1.44-.38-.32-.46a1.25,1.25,0,0,1,.45.07c-.55-.1.14-.46-1.17-.37.62-.27-.58-.51.19-.73-1.46-.14.7-.46-1.36-.5,2.13,0,1.72-.47.72-.64.64.06.67-.15,1.56-.08,0-.19-.43-.37-1.52-.34,2.55-.36-2.05-.72,1.22-.92a8.93,8.93,0,0,1-2.42-1.62c2.13,0,.21.57,2.44.55-.88-.49-2.7-.77-2.19-1.26.29-.13.92.07,1.29.11-.88-.49.19-.95-1-1.38a2.36,2.36,0,0,1,.58.09c-.07-.09.31-.2-.65-.19l.26.08a20.71,20.71,0,0,1-3.67-.36c2.77.15.7-.43,4.2-.2a4.71,4.71,0,0,0-1.29-.11,2.87,2.87,0,0,1,1.3,0c-.53-.31-1.55-.2-1.53-.48.47,0,.65.06,1.2.09-.91-.14-1.83-.28-1.43-.52.28,0,.65,0,.64.06-.14-.4-2.43-.69-1.55-1.13,2,.13.67-.15,2.43-.17l-.52-.24-.85.1c0-.21-1.25-.39-.68-.57l.73.16-.33-.39-.67.22c-.91-.21-2.23,0-1.74-.26.18.06,0-.21,1.06-.32h0c-.56-.1-1.15-.21-.71-.36s1.95,0,2.32,0c-1.47-.1-.41-.49-2-.62a13.59,13.59,0,0,0,1.48,0l-1.2-.09a4,4,0,0,1,1.3-.1c.22-.29-2.23.09-1.27-.25a4.32,4.32,0,0,1,.46.07c.5-.35-.76-.67-.17-1,1.77-.09.43.28,1.93.17-.32-.46-2.12-1-1.71-1.4l-.2.08c-2.5-.06,1.24-.33.06-.56a8,8,0,0,0,1.11.06c.4-.3-.61-.62-1.4-1.09l.64.06c.57-.18.33-.47.62-.67a4.93,4.93,0,0,0-1.47-.1c3.66-.6-2-1.14,1.09-1.67a1,1,0,0,0,.56.1l-.59-.45a9.05,9.05,0,0,0-1.51.15c-.65-.06-1.15-.18-1.15-.3a6.33,6.33,0,0,0,2.36-.09c-.33,0-.7,0-1,0,1.94-.24-2.19,0-.89-.36l.57,0c-.29-.12-1-.23-.88-.36,1.26-.05.59.13,1.62.14-.07-.18-2.39-.36-1.13-.53.35.08.36.19.71.27,1.48-.18,1.1-.2,1.34-.34h0l.67-.31-.4.08c-3.29-.23-.6-.47-2.75-.77a8.51,8.51,0,0,0,2.61.07,4.67,4.67,0,0,1,1.24-.16c-1.15-.15.91-.24-.78-.45.46,0,0-.16,1.2-.12-.36-.19-.8,0-1.38,0-1.57-.29,1.9-.69-.25-1.11-.89-.36-2.44-.43-3.21-.77a5.48,5.48,0,0,1,1.67.09c.68-.18.55-.32,0-.49a6.37,6.37,0,0,0,1.26-.05c-.12-.14-1.67-.09-1-.28.51,0,1.33.07,1.85.14-.42-.16-1.28-.32-1.7-.49a7.78,7.78,0,0,1,1.74.16,3.61,3.61,0,0,0-2-.55l-.45.12a4.87,4.87,0,0,1,1.32,0c1,.16-.44.23-.9.24l-.29-.12c-2.7.12.43.48.28.73l-2-.1,1.63.25a6.83,6.83,0,0,1-1.9,0c-1,.17.7.15-.38.3a1.12,1.12,0,0,1-.34,0l.58.17c-.41,0-1.38,0-1.1-.08-1.13.3,1.47.49,0,.61l-.12,0c.66.42,1.44,0,3.13.36l-3.55.21,1.44,0c-.05,0-.16.13-.74.11a12.34,12.34,0,0,0,1.56.07c-1.31.21.61.58-1.68.63,1.09.08.84-.2,1.6,0-2.47.06.42.26-.71.45-1.27-.06-.6-.24-1.73,0,2.15.12-.47.37-.06.53,1.71,0,.71.35,1.29.62-.58,0-.94.51-1.56.76h-.29c1.73,0,1.4.31,1.76.5a8.45,8.45,0,0,1-1.91-.14v.18a2.53,2.53,0,0,1,1,.21l-1.29,0c.07.24,1.52.48.66.78,1.21,0,3.36-.24,4.17.08a12.59,12.59,0,0,1-2-.06c.09,0,.54.1.26.15l-1.1-.13c-.48.14.92.07.82.18-.93,0-.66.08-1.4.07-.09,0,.39-.1,0-.14a3.46,3.46,0,0,1-1.42.33,4.67,4.67,0,0,1,1.37.09c.07.24-1.12.08-1.6.22.65.06,0,.21,1.37.21a4.14,4.14,0,0,1-1,.11c.61.12.17.57,1.66.43l.1,0,.06,0h0c1.38.4-.79.84-.19,1.23h-.47c.53.24.31.53,1.32.7a4,4,0,0,1-1.4.14c.35.18.87.2.1.47-.81-.18-.72.06-.59-.19-.4.24-1.15.29.13.54-1.19-.09-1.5.18-1.15.29l.85-.17c.17.13.07.24,0,.35l-1.57-.06c-1.91.48,3.25.87.05,1.24,1.1.13.77-.26,2.06-.15a19.82,19.82,0,0,1-2.47.52c-.87.31,2.29.28,1.7.6a8,8,0,0,1,2.58.16,7,7,0,0,1-2.8.13c0-.05.13-.08.32-.08a1.84,1.84,0,0,0-1-.08l.56,0c-.57.11-.51.42-1.43.35a1.63,1.63,0,0,0,1.21-.05c-.81.29,0,.45-.57.74a3.67,3.67,0,0,1,1,0c-.69.43,1.06.19,1.31.48-.85.17-2-.06-1.32.23a5,5,0,0,1-1.94,0c1.08.27-.71.5-.91.65l-.45-.14c.27.08.26.15.26.22l1.12-.08a1,1,0,0,1-.67.15c.73.09,1.86-.07,2.86.1-.57.11.61.34-.87.37.5-.35-1.49,0-1.73-.26.18.06.17.13,0,.21a1.21,1.21,0,0,1-.39,0c-1.33.33,1.68.15,1.64.5-.84,0-1.59.08-1.41.14a5.34,5.34,0,0,1,2,.06c-.65.22.48.24.41.36l.31-.13c.84,0,.73.16,1,.31-.65,0-.45-.14-.74-.08,1.47.17-1.52.39-.53.63-.57.11-1.57,0-2,.11,1.09.27-1.15.29-.25.57a4.57,4.57,0,0,1,1.95.1l-.79-.46,1.64.3c0-.14-.71-.29-.52-.38a4,4,0,0,0,1.57.06c-1.69.19,1,.38-.16.6H97.19c-1.24.33,1.43.59.73,1l.48-.14c1.11.06.15.27.6.41a11.51,11.51,0,0,0-1.85.13c.69,0-.06.32,1.8.35l-1.23.19c-.5.35,2.65.4,2.33.73a13.31,13.31,0,0,1-2.39-.17c0,.11-.18.21.47.21-.58.07,1.25.31.37.41.41,0,1.38.06,1.31.19a4.58,4.58,0,0,1-.46,0,6.16,6.16,0,0,0,1.66.09c-2.9.34.21,1-2.28,1.26a2.06,2.06,0,0,1,.68.76c-.28,0-.46,0-.37,0-.87.31,2.67.19,1.71.53-1.5.18-.81-.18-1.38-.07-3.06,0,.42.42-1.37.65l-.18-.06c-1,.18,1.16.44.94.73,0,0-.27,0-.46,0a5,5,0,0,1,2.51.86,8.12,8.12,0,0,0-1.85-.07c.17.13,2,0,2.3.21a16.11,16.11,0,0,1-2.53.29l-.07-.24c-1.68.12.06.31-.23.43l-.73,0c.24.36,2.09.37,2,.76l.56,0c1.83.21-1,.18.33.39l-1.86.06a12.51,12.51,0,0,1,2.15.74,18.52,18.52,0,0,1-2.9-.62c0,.14.14.47,1.06.55-.18-.06-.64-.13-.35-.18,1.46.17,2.18.4,2.15.67-3.61,0-.91.72-3.71.93,1.33.49-.57,1-.36,1.55,2.81-.2.08.17,3,.13.18.13.14.18-.05.2l-1.72.4c-.84.1-.64-.13-1.28-.11-.22.29-1.22.12-2,.32,1,0,1.48.1,1.08.27l1.33-.23c1.53.41-2.42.35-.9.76l-.91-.13c.54.21,0,.78,2.3,1a4.51,4.51,0,0,1-1.33,0c-.35.5,2.46,1.12,1,1.51l-.7,0c.2.09,1.32.16.61.28a3.36,3.36,0,0,0-.74,0c.24,0,1.24.25.82.37l-.79-.11c-.92.49,1.93.76,2.41,1.17a5.52,5.52,0,0,0-3.09.58h-.29c-.26.57,1.72,1,2.53,1.5-2.25.33-.94,1.12-2.21,1.65a6,6,0,0,1,1.83.11c-.42.12,1.44.34-.46.32l0,0c-1.87.09-1.37.35-1.42.55l2.49,0c-3.62.52,1.33,1.37-1.91,1.65.62.13.62.28,1.24.41H96.24c-.34.35-.51.52-.19,1l-1-.09c-.09.24,3.85.31,3.93.53l-2,.07c0,.42-1.72.85.09,1.27a3.65,3.65,0,0,1-.95-.09c-.05.2-1.35.77,1.39.7-1.78,0-.17.44.61.67l-1.31,0a7.17,7.17,0,0,1,2.6.47c-.17.06-1.05.06-.71,0-.69.21,1.24.17.54.42l-.84-.1c-.1.22.35.2,1.33.32.53.14-.33.42-1.52.45.72,0,1.69.15,1.35.28a3.85,3.85,0,0,1-.86-.05c-.89.37,1.53.55.24.8a5.86,5.86,0,0,0-.78,0c0-.29.1-.53.2-.5a16.28,16.28,0,0,1-3.1,0c.91.19,2.9.51,2.33.74l-.42,0-.14,0c-.12.05,0,.1.2.15-.2.07-.35.12-.36.19-1,0-.54.27-.59.39a12.06,12.06,0,0,0,2.21,0,.2.2,0,0,1-.21-.1.37.37,0,0,0-.14-.05h.12a1.13,1.13,0,0,1-.09-.29c.67.09,1.24.19.5.32l2.14.16c-1.85.16-2.85.47-4,.51.74.36.49.84,3,1.07.32.1-.71.12-1.11.16s-.21-.13-.57-.16c.64.2.25.6,2,.65-.78.26-1.6-.14-1.32.21l-.53,0c-2.78.69,4.44,1.13.87,1.9a2.42,2.42,0,0,1,.61-.09c-1.57.88,1.48,1.81-1,2.67-.5.25.61.27,1.45.42l-1.42.05,1.64.26c1.2.36-3.49.63-1.22,1.09l1-.06c-.18.17.57.52-.54.5.17,0,1,.05.5.12h-.74l1.28.41c-.54.32-3,0-3.1.41a9.18,9.18,0,0,0,2.67.42,2.48,2.48,0,0,1,1.21-.18l.39.16a27.13,27.13,0,0,0,6-.24l-1.34-.27,1.06-.09.07.23c1-.13.12-.21-.49-.3a6.74,6.74,0,0,0,1.17-.11l-2.1-.26a10.08,10.08,0,0,0,2.18-.06,23.7,23.7,0,0,1-2.56-.09c1-.13,1.81-.09,1-.24a4.48,4.48,0,0,1,1.17.07c-.68-.13-.29-.35-1.45-.42,1.23-.13-.32-.45,1.76-.44a6.15,6.15,0,0,1-1.72-.36c2.49.22.15-.46,2.81-.4-2.24-.17-1-.6-2.23-.89.18,0,.54,0,.42.07a5,5,0,0,1,1.28-.32,19,19,0,0,1-3.41-.42,35.82,35.82,0,0,1,3.88.06c-1.5,0-1.49-.35-2.74-.28a11.85,11.85,0,0,1,2.07-.21c-2.31,0-.39-.14-1.81-.27,1.14-.22,2.16-.06,1.46-.3A4.23,4.23,0,0,1,109.76,434.52Zm-4-5.87h0l.07.12Zm0-.49a.27.27,0,0,0-.05.21,2.49,2.49,0,0,1-.9-.05A3.66,3.66,0,0,0,105.75,428.16Zm-9.18,1c-.19-.08.07-.1.34-.11a.48.48,0,0,0,.16.14h.16Z"/><path class="cls-4" d="M98.3,429.34s.08,0,.1,0l.3,0-.42,0Z"/><path class="cls-4" d="M100.26,384.65h0l.19,0Z"/><polygon class="cls-4" points="108.28 421.35 107.95 421.35 108.24 421.39 108.28 421.35"/><path class="cls-4" d="M104.81,381.93l.34,0Z"/><path class="cls-4" d="M105.11,380.76l.47-.17A2.17,2.17,0,0,0,105.11,380.76Z"/><path class="cls-4" d="M105.77,379.86l-.57,0h0Z"/><path class="cls-4" d="M107.32,394.2l.06,0C107.64,394.31,107.54,394.26,107.32,394.2Z"/><path class="cls-4" d="M104.23,389.93a6.36,6.36,0,0,1,.63.14C105,390,105,389.93,104.23,389.93Z"/><path class="cls-4" d="M108.92,399h0s0,0,0,0Z"/><path class="cls-4" d="M104.83,390.26c.26-.08.21-.14,0-.2S104.63,390.2,104.83,390.26Z"/><path class="cls-4" d="M106.37,375.95l.05,0h-.21Z"/><path class="cls-4" d="M106.21,375.9l-.16,0S106.06,375.89,106.21,375.9Z"/><path class="cls-4" d="M105.72,375.75l.33.1S106.1,375.77,105.72,375.75Z"/><path class="cls-4" d="M105.76,377.14h0Z"/><path class="cls-4" d="M105.89,377.5c.11-.09,1-.22.72-.34h-.38C107,377.21,105.08,377.42,105.89,377.5Z"/><path class="cls-4" d="M100,379l.38-.3c-.51.05-1.2.12-1.32,0C97.49,379.08,100.16,378.62,100,379Z"/><path class="cls-4" d="M99.21,380c-.24-.16-.74,0-1,0A1.62,1.62,0,0,0,99.21,380Z"/><path class="cls-4" d="M99.21,386.77l-1.2,0C98.17,386.88,98.47,386.76,99.21,386.77Z"/><polygon class="cls-4" points="105.44 388.08 106.19 387.95 105.08 387.9 105.44 388.08"/><polygon class="cls-4" points="96.85 388.85 96.68 388.79 97.11 389 96.85 388.85"/><path class="cls-4" d="M97.28,400.29l1.49,0C98.5,400.16,96.83,400.15,97.28,400.29Z"/><path class="cls-4" d="M98.79,405.23c-.74.05-1.22.19-.49.28C98.4,405.39,99,405.28,98.79,405.23Z"/><polygon class="cls-4" points="96.37 420.04 95.87 419.94 96.29 420.13 96.37 420.04"/></g></g></svg>