<?xml version="1.0" encoding="utf-8"?>
<!-- Generator: Adobe Illustrator 16.0.0, SVG Export Plug-In . SVG Version: 6.00 Build 0)  -->
<!DOCTYPE svg PUBLIC "-//W3C//DTD SVG 1.1//EN" "http://www.w3.org/Graphics/SVG/1.1/DTD/svg11.dtd">
<svg version="1.1" id="Layer_1" xmlns="http://www.w3.org/2000/svg" xmlns:xlink="http://www.w3.org/1999/xlink" x="0px" y="0px"
	 width="900px" height="50px" viewBox="0 0 900 50" enable-background="new 0 0 900 50" xml:space="preserve">
<g>
	<g>
		<g>
			<g>
				<g>
					<path fill="#919292" d="M900.001,25.382c0.474-0.076,0.205-0.248-1.101-0.211l-0.928,0.292L900.001,25.382z"/>
					<path fill="#919292" d="M891.212,24.856c-1.535,0.144-3.307,0.394-2.312,0.661c1.521-0.283,1.889-0.167,3.526-0.502
						c1.309-0.036,2.282,0.09,2.062,0.198c0.462-0.075,2.03,0.061,2.733-0.124c-1.7-0.223-3.855-0.229-6.104-0.039
						C890.634,24.987,891.103,24.91,891.212,24.856z"/>
					<path fill="#919292" d="M763.509,24.59l0.823,0.033C764.106,24.604,763.824,24.595,763.509,24.59z"/>
					<path fill="#919292" d="M684.386,24.546c0.603-0.007,0.854-0.037,0.885-0.063C684.711,24.503,684.252,24.521,684.386,24.546z"
						/>
					<path fill="#919292" d="M670.877,24.246c0.289,0.007,0.533,0.012,0.796,0.019C671.369,24.237,671.063,24.223,670.877,24.246z"
						/>
					<path fill="#919292" d="M763.509,24.59l-2.114-0.088C761.247,24.597,762.479,24.57,763.509,24.59z"/>
					<path fill="#919292" d="M873.604,25.584c0.442-0.015,0.811-0.042,1.147-0.078c-0.363,0.011-0.715,0.021-1.078,0.032
						C873.653,25.554,873.637,25.568,873.604,25.584z"/>
					<path fill="#919292" d="M798.388,24.302l0.644-0.001c0.189-0.034,0.366-0.074,0.533-0.119L798.388,24.302z"/>
					<path fill="#919292" d="M825.156,24.218c-0.605-0.01-0.815,0.238-1.047,0.346c0.342-0.102,0.789-0.152,1.319-0.171
						C825.438,24.346,825.359,24.29,825.156,24.218z"/>
					<path fill="#919292" d="M867.603,24.591l0.753-0.036C868.159,24.565,867.83,24.581,867.603,24.591z"/>
					<path fill="#919292" d="M779.229,24.277c-0.045-0.037-0.141-0.069-0.243-0.088C778.985,24.22,779.081,24.25,779.229,24.277z"/>
					<path fill="#919292" d="M30.531,27.238c0.021-0.018-0.01-0.028-0.002-0.044C30.374,27.22,30.326,27.237,30.531,27.238z"/>
					<path fill="#919292" d="M-0.5,26.06l0.43-0.015c0.045-0.046,0.093-0.093,0.093-0.138L-0.5,26.06z"/>
					<path fill="#919292" d="M646.152,23.965c0.048,0.002,0.064,0.002,0.11,0.004C646.913,23.94,646.545,23.946,646.152,23.965z"/>
					<path fill="#919292" d="M419.19,24.482c2.571,0.217-4.184,0.29-0.312,0.53C418.517,24.916,422.395,24.621,419.19,24.482z"/>
					<path fill="#919292" d="M872.91,25.553c-0.361,0.001-0.729,0.003-1.098,0.004C872.312,25.564,872.649,25.563,872.91,25.553z"/>
					<path fill="#919292" d="M418.877,25.012v0.002l0.399,0.022C419.112,25.026,419.019,25.021,418.877,25.012z"/>
					<path fill="#919292" d="M589.188,24.198c0.117,0.043,0.345,0.076,0.581,0.107C589.749,24.279,589.618,24.249,589.188,24.198z"
						/>
					<path fill="#919292" d="M631.626,24.487l-1.05-0.031C630.992,24.478,631.33,24.485,631.626,24.487z"/>
					<path fill="#919292" d="M567.154,24.579c-0.571-0.018-0.766-0.052-1.545-0.018c0.072,0.013,0.144,0.021,0.237,0.03
						C566.129,24.557,566.504,24.541,567.154,24.579z"/>
					<path fill="#919292" d="M544.22,24.615c0.122,0.014,0.282,0.033,0.423,0.049c0.228-0.005,0.493-0.01,0.728-0.015L544.22,24.615
						z"/>
					<path fill="#919292" d="M100.23,27.017c-0.502-0.068-0.815-0.146-1.06-0.221C99.524,26.972,96.155,27.039,100.23,27.017z"/>
					<path fill="#919292" d="M873.592,25.445c-0.134,0.063-0.33,0.094-0.682,0.107c0.263-0.005,0.517-0.009,0.763-0.014
						C873.74,25.502,873.754,25.467,873.592,25.445z"/>
					<path fill="#919292" d="M566.225,26.532l-3.645-0.031C563.599,26.523,564.924,26.534,566.225,26.532z"/>
					<path fill="#919292" d="M264.763,26.739l-0.837,0.031C264.249,26.775,264.545,26.768,264.763,26.739z"/>
					<path fill="#919292" d="M551.767,26.554c-0.65-0.087-1.339-0.137-2.052-0.168c-0.15,0.019-0.322,0.035-0.423,0.063
						L551.767,26.554z"/>
					<path fill="#919292" d="M99.163,26.794c0.007,0.001,0.007,0.002,0.007,0.002S99.17,26.795,99.163,26.794z"/>
					<path fill="#919292" d="M75.163,27.416c3.472,0.003,1.63-0.32,2.367-0.508c4.144-0.099,1.918,0.236,3.329,0.4
						c2.587-0.09,4.572-0.391,6.501-0.381c0.144,0.054,0.519,0.072,0.079,0.14c2.735-0.262,8.121-0.024,11.308-0.354
						c0.237,0.028,0.356,0.055,0.416,0.08c-0.517-0.163-0.596-0.327-0.491-0.445c1.557-0.009,2.888-0.21,3.475,0.002
						c-0.954-0.005-1.033,0.081-1.48,0.147l1.631-0.095c1.469,0.304-2.226,0.109-2.226,0.335c3.18-0.104,6.887-0.362,9.323-0.279
						c0.51,0.298-5.698,0.109-2.446,0.37l-3.771-0.108c2.882,0.467-2.291-0.03,0.357,0.471c4.962,0.079,5.55-0.16,10.5-0.081
						c1.114-0.167-0.369-0.245,0.746-0.413c7.035-0.309,5.539,0.744,10.711,0.338c1.339-0.201,1.857-0.58,5.54-0.386l-1.255,0.34
						c4.804,0.026,2.742-0.489,7.774-0.27c-0.894,0.134-3.776,0.117-3.049,0.157c3.26,0.262,2.305-0.195,4.811-0.199l0.52,0.299
						c5.114-0.107,10.75-0.225,16.413-0.343c-0.313,0.09-1.284,0.186,0.041,0.274c7.145-0.16,15.252,0.015,22.144,0.182l2.632-0.262
						c0.612,0.001,1.136,0.114,0.474,0.166c2.686,0.094,0.139-0.165,1.43-0.268c1.528-0.021,2.019,0.146,1.05,0.224
						c4.739-0.226,13.5-0.491,18.494-0.222l-0.973,0.078c3.889,0.099,4.387-0.536,7.994-0.301l-0.691,0.047
						c8.439,0.1,17.765-0.15,24.205,0.229c1.224-0.373,8.353,0.154,8.895-0.365c4.819,0.25,3.439,0.345,10.226,0.507
						c1.812,0.021,2.702-0.327,4.942-0.385l0.055,0.271l3.042-0.29l1.619,0.322l2.102-0.072c-0.837-0.015-1.779-0.12-1.653-0.198
						c1.642-0.063,3.643-0.02,5.244,0.059c1.601,0.077,2.801,0.188,2.842,0.258l7.767-0.241c-0.172,0.109-1.473,0.149-2.501,0.221
						c4.146-0.283,0.754,0.284,4.553,0.025c-0.509-0.062,0.275-0.162,0.361-0.218c1.894,0.162,6.206,0.156,9.396,0.083l-0.612,0.188
						c5.761,0.038,12.145-0.108,18.611-0.114c-2.32-0.084-1.787-0.408,0.109-0.442l0.758,0.285c1.224-0.179-1.98-0.105,0.533-0.325
						c2.416,0.028,1.624,0.323,0.237,0.418l2.937-0.104c0.172,0.085-0.516,0.132-0.695,0.241c1.205-0.18,5.07,0.28,6.808-0.032
						l0.165,0.085c6.464-0.007,9.396-0.109,14.661-0.132c0.103-0.247,2.162-0.195,3.73-0.397c3.869,0.072,8.164,0.261,12.827,0.233
						c3.276-0.129,0.956-0.211,2.429-0.36c0.242,0.225,4.897,0.196,2.482,0.362c5.596-0.045,7.147-0.056,14.223-0.249
						c-0.768-0.091-1.631-0.13-1.184-0.207c1.284-0.039,2.922,0.09,2.738,0.198l-0.339,0.024c7.943-0.35,18.335,0.63,24.659,0.15
						l-0.354,0.024l6.559-0.255c3.018,0.034-1.81,0.172,0.424,0.308c7.075-0.386,11.179,0.039,17.007-0.221
						c4.511,0.658,16.005-0.07,22.094,0.346l-0.352-0.156c1.573-0.156,1.904,0.087,3.063,0.121
						c-0.165-0.122-1.708-0.139-0.729-0.225c13.329-0.209,27.512,0.188,41.179,0.309c4.998,0.035,2.835-0.813,9.137-0.449
						l-1.789,0.293c10.086-0.363,20.625-0.019,30.499-0.328c-0.589,0.067-0.605,0.154-1.569,0.155
						c2.086,0.208,7.713-0.001,7.748-0.174c1.537,0.018,0.356,0.155,1.304,0.242c2.093,0.121,5.251-0.278,6.363-0.069
						c0.188,0.034-0.589,0.069-0.971,0.086c1.362-0.104,6.351,0.017,5.045-0.225c3.707,0.11,7.09-0.119,10.046,0.021
						c1.927-0.275,6.345,0.121,6.956-0.265c-0.265,0.398,6.497,0.312,8.841,0.121c-0.784,0.121,2.037,0.121,1.119,0.289
						c2.674-0.01,5.125-0.087,4.658-0.291c4.927,0.469,9.901-0.398,12.677,0.209c7.943-0.226,15.294-0.382,22.439-0.485
						c-0.258,0.397-7.898,0.051-7.592,0.468c6.778-0.174,10.688-0.52,17.41-0.435c1.741,0.052-0.987,0.174-1.575,0.242
						c6.771-0.174,13.095,0.017,19.12-0.208c-0.017,0.037-0.667,0.078-1.281,0.109c1.188-0.015,2.762,0.055,2.628-0.126
						l-1.157,0.051c-1.897-0.259,4.715-0.554,4.927-0.692c-2.015,0.52,5.952,0.121,2.752,0.779c0.781-0.035,1.762-0.122,1.582-0.243
						c1.16,0.033,1.528,0.103,0.352,0.242c4.255-0.104,2.743-0.293,6.598-0.295c-0.015,0.087-0.791,0.122-1.19,0.226
						c1.951-0.173,3.911-0.347,7.169-0.277c-0.196,0.053,0.182,0.121-0.789,0.121c5.593-0.035,9.533-0.468,15.67-0.312
						c-1.811,0.382,2.087,0.122,2.413,0.45l3.3-0.103l-1.325-0.157c2.892,0.001,5.444-0.242,7.93-0.138l-2.147,0.139l5.416-0.07
						l-3.065-0.12c2.924-0.173-0.313-0.416,3.534-0.329c-0.782,0.035,2.891,0,4.397,0.191c0,0-0.01,0-0.01,0
						c1.43-0.107,2.9-0.219,5.038-0.141c0.556,0.104-0.446,0.364-0.085,0.434c1.41-0.277,6.77-0.086,8.556-0.381
						c-0.596,0.069-0.626,0.242-0.431,0.276l1.184-0.224c1.34,0.069,1.535,0.104,1.318,0.241c4.026,0.035-1.28-0.415,3.5-0.242
						c-0.375,0.019-0.195,0.052-0.978,0.086c4.802,0.086,9.275-0.155,13.688-0.052c1.302,0.329-3.854,0.087-2.364,0.364
						c6.36-0.07,13.171-0.416,19.326-0.347l-1.148-0.035c0.854-0.468,4.585,0.224,7.698-0.001c-0.763,0.036-1,0.261-0.794,0.208
						c4.216,0.069,8.618-0.127,15.005-0.284l-0.791,0.121c2.484,0.104,6.543,0.052,9.226,0.103c0.796-0.121,2.331-0.104,1.398-0.277
						c8.275,0.671,15.782-0.389,23.124,0.169c-0.877,0.003-2.092,0.108-1.394,0.108l6.253-0.12c-0.495-0.202-0.82-0.122-2.134-0.278
						c0.792-0.122,2.557-0.218,4.105-0.22c-2.812,0.139,0.024,0.327,1.239,0.438c-0.203-0.062,0.213-0.132,0.11-0.195
						c3.267,0.357,0.547-0.41,5.007-0.173l-0.236,0.107c1.669-0.057,3.206-0.2,5.007-0.172c0.746,0.234-1.776,0.112-1.891,0.306
						c2.527-0.018,4.987-0.453,7.276-0.222c-1.075,0.04-2.617,0.097-3.692,0.137c2.492,0.272,2.781,0.202,4.633,0.243l-0.183-0.005
						l4.281,0.119l-1.091-0.073c3.163-0.618,6.442-0.122,10.703-0.53c-4.142,0.386-0.684,0.221-1.002,0.488
						c1.089,0.072,2.743,0.152,2.272,0.229c2.014-0.218,3.362,0.164,6.205-0.154c0.127,0.086,2.154,0.005,1.701,0.221
						c2.618-0.071-0.62-0.148-0.4-0.256c4.036-0.299,9.489,0.342,15.295-0.069c5.007-0.173,5.932-0.464,10.578-0.615
						c1.568,0.135-1.283,0.314-1.283,0.314c2.529,0.123,4.434,0.096,6.817-0.005c-0.483,0.075,0.015,0.138,0.741,0.233
						c1.913-0.025,1.279-0.314,3.802-0.191c-0.433,0.096-0.987,0.25-1.91,0.348c2.254-0.108,4.483-0.215,6.815-0.327
						c0.619,0.148-1.408,0.229-2.23,0.328c2.623-0.071,6.795-0.146,7.605-0.383l-1.684-0.082c0.957-0.013,0.493,0.202-0.212,0.247
						c-2.248,0.189-3.243-0.077-3.37-0.163l1.662-0.057c-1.708-0.501-6.677,0.09-10.021,0.066l1.394-0.368l-3.432,0.308
						c-0.729-0.094-1.229-0.297,0.423-0.354c-2.398-0.177-2.123,0.133-4.185-0.065c-0.228-0.031-0.125-0.049,0.086-0.063
						l-2.344,0.112c0.459-0.078-0.39-0.258,1.05-0.208c-4.207-0.205-6.784,0.285-8.367,0.01l0.352-0.023
						c-5.837,0.132-0.564,0.27-4.942,0.591l-2.946-0.659l-0.574,0.27c-0.603-0.009-1.793-0.028-1.573-0.135
						c-2.24,0.187,0.383,0.116-0.918,0.292c-2.898-0.24-7.991,0.126-8.646-0.301c-1.039,0.206,2.772,0.154-0.322,0.3
						c-0.883-0.459-3.577,0.084-6.225-0.123c0.812-0.239,3.321-0.117,0.672-0.325c-1.597,0.403-5.156-0.081-7.39,0
						c-0.104,0.32-4.856,0.14-8.604,0.252c0.237-0.108-7.052-0.165-10.538-0.276l0.103-0.053c-0.674,0.324-4.271,0.268-6.889,0.339
						c0.103-0.194,0.573-0.271,1.991-0.359l-2.461,0.005c-0.581,0.104-1.349,0.16-2.945,0.199l0.618-0.242
						c-3.275,0.018-6.597,0.294-10.812,0.139c-0.236,0.226,3.354,0.623-1.104,0.779c-0.166-0.121-0.331-0.329,0.836-0.381
						c-0.383,0.017-1.363,0.104-2.133,0.052l1.781-0.208c-1.921-0.087-1.004,0.173-2.539,0.156c0.03-0.174-1.137-0.123-0.917-0.261
						c0.393-0.018,1.34,0.07,1.928,0c-1.731-0.028-3.824-0.128-4.516-0.259c0.151,0.099,0.001,0.233-1.267,0.258
						c-3.276,0.017-1.122-0.208-3.032-0.294c-0.794,0.122-2.885,0-2.938,0.26c-0.959,0-1.137-0.121-1.507-0.191
						c-1.695,0.117-7.92,0.044-6.009,0.318l0.435,0.018c-0.081,0.003-0.177,0.007-0.277,0.011c0.015,0,0,0,0.015,0h-0.015
						c-5.557,0.267-11.545-0.13-17.06-0.011l0.01-0.087c-3.293,0.104-7.327,0.07-9.678,0.26c-0.973,0.001-2.298-0.156-1.882-0.26
						c-2.516,0.069-2.798,0.167-6.433,0.029c2.529-0.156-0.873-0.133,2.592-0.115c-3.269-0.07-4.011-0.208-7.521,0.034
						c1.195-0.225-2.461-0.276-4.016-0.208l2.291,0.155c-1.747,0.035-3.275,0.018-4.827,0.001l0.839-0.294
						c-6.691-0.346-12.066,0.624-17.16,0.036c-1.77,0.207,3.635,0.139,2.052,0.38c-3.077-0.035-6.284-0.45-7.248-0.45
						c-4.217-0.156-3.934,0.434-8.346,0.33c0.564,0.103,1.099,0.381-2.199,0.484c-3.08-0.034-3.786-0.432-1.842-0.519
						c0.739-0.01,1.095,0.022,1.064,0.058c0.994-0.04,2.3-0.086,1.08-0.197l-0.399,0.105c-1.527-0.104-5.766-0.087-4.771-0.26
						c-2.327,0.103-0.995,0.173,0.729,0.224c-3.95-0.145-6.172,0.005-10.237-0.091c0.646,0.057,1.241,0.178,0.599,0.178
						c-5.965-0.121-2.626,0.202-6.667,0.254c-2.296-0.156,0.822-0.381-3.245-0.242c-2.485-0.105-0.526-0.277,0.461-0.363
						c-3.706,0.207-6.926-0.123-9.042-0.156l1.951-0.087c-1.167,0.052-2.123,0.052-3.097,0.053l1.115,0.207
						c-1.146-0.034-2.117-0.034-2.096-0.121c-1.181,0.138,0.904,0.346-1.438,0.537c-1.528-0.104-4.653,0.12-5.183-0.156
						c4.807,0.086-0.531-0.277,3.537-0.328c-0.785,0.034-1.741,0.034-2.892-0.001c-0.172-0.031,0.162-0.058,0.476-0.074
						c-4.599-0.241-2.113,0.316-6.879,0.317c0.604-0.157-1.105-0.295-1.883-0.26c1.921,0,0.919,0.259-0.844,0.381
						c-3.056-0.117-3.321,0.096-4.921,0.083l1.827,0.055c-0.619,0.157-2.147,0.139-4.277,0.191
						c-0.183-0.122,1.934-0.086,1.174-0.139c-2.365,0.278-5.346-0.276-8.643-0.086c-1.528-0.104-0.148-0.293-1.49-0.363
						c-3.696,0.208-4.003-0.208-7.889-0.035c1.119,0.208,1.315,0.156-1.42,0.365l6.387-0.157l-4.099,0.312
						c1.928,0,4.067-0.138,5.223-0.104c-1.953,0.174-1.753,0.122-0.829,0.294c-2.639-0.312-5.229,0.191-8.279-0.017l0.093-0.52
						c-4.584-0.225-8.145,0.278-14.097,0.157l1.914,0.087c-0.799,0.208-3.676,0.035-5.604,0.121c0.18-0.174-1.025-0.235-1.849-0.342
						c0.101,0.129-4.356-0.005-4.896,0.342l-2.657-0.225c-4.807-0.086-5.485,0.503-10.105,0.451
						c1.392-0.191-0.708-0.311,2.386-0.451c-1.542,0-2.929-0.029-2.953,0.091c-0.901-0.108-4.277,0.24-5.695,0.077
						c-0.65,0.078-0.863,0.26-2.595,0.248c-0.188-0.035,0.008-0.086,0.008-0.086c-0.008,0.086-2.712,0.121-1.198,0.311
						c-4.752-0.535-13.281,0.059-17.419-0.4c-3.367,0.045-7.423,0.1-10.479,0.142c0.196-0.052,0.01-0.086,0.589-0.069
						c-4.217-0.155-2.592,0.503-7.389,0.33c-2.452-0.277,2.546-0.156,1.018-0.26c-0.665-0.571-5.789,0.086-9.018-0.243l0.782-0.035
						c-2.469-0.19-6.021,0.226-10.053,0.19c0,0,0.195-0.051,0.023-0.086c-2.757,0.295-7.977,0.399-11.855,0.486
						c1.207-0.226,1.763-0.121,1.025-0.347c-1.738,0.035,0.51,0.364-2.96,0.433c-1.129-0.121-3.633-0.224-3.965-0.466l3.273-0.018
						c-1.677-0.312-4.237,0.017-5.962-0.035l0.22-0.137c-5.017,0.052-5.085,0.397-10.478,0.38l0.557,0.103
						c-2.945,0.347-2.47-0.188-5.408,0.07l-0.891-0.346c-1.944,0.087-6.81,0.346-10.296,0.417c1.975-0.261,6.054-0.398,8.579-0.555
						c-1.928,0-6.55,0.035-7.554,0.208c0.776-0.035,1.755-0.121,2.522-0.069c-2.364,0.277-5.476,0.416-9.316,0.415
						c0.681-0.674-10.01-0.154-12.796-0.674c-6.793,0.259-13.478-0.086-21.393-0.035c2.808,0.52-2.31,0.018-1.824,0.556
						c-1.844,0.037-2.547,0.029-2.712-0.005l-5.586-0.313c-1.325-0.155,1.752-0.122,1.583-0.242
						c-4.037-0.036-1.693-0.226-4.365-0.365c0.548,0.191-1.403,0.278-3.704,0.208l3.241,0.243
						c-5.641,0.295-4.876-0.444-10.563-0.152l1.798-0.172c-2.917,0.104-10.763,0.012-13.623,0.449
						c-0.517-0.062-1.198-0.208,0.085-0.249c-6.973-0.055-15.521,0.483-20.94,0.225l0.528-0.132
						c-1.301,0.041-2.264,0.25-3.893,0.121c0.083-0.054,0.523-0.132-0.079-0.139c-0.688,0.046-3.455,0.236-5.179,0.162l1.473-0.15
						c-6.801-0.163-10.438,0.375-16.141,0.474c0.014-0.387-5.338-0.505-8.009-0.564l0.093-0.055
						c-7.92-0.036-13.453,0.341-20.787,0.504c-4.554-0.414-15.421-0.153-22.739-0.378c1.119,0.068-0.181,0.302-1.482,0.342
						c-1.717-0.076-4.747,0.276-4.475-0.08l0.612,0.006c-1.294-0.347-4.824-0.249-7.578-0.254l-0.454,0.465
						c-7.208-0.665-18.883,0.276-22.818-0.323c-1.738,0.119-3.893,0.121-5.617,0.239l0.093-0.249
						c-4.819-0.057-7.225-0.085-13.181-0.017l1.215-0.18c-3.36-0.01-4.241,0.725-7.34,0.744l-0.933-0.37
						c-5.861,0.014-11.794-0.304-17.586,0.042c0.096-0.055,0.268-0.163,1.217-0.179c-2.76-0.006-10.673-0.236-9.67,0.273
						c-0.07-0.333-6.047-0.024-9.213,0.127l0.492-0.246c-2.67,0.317-2.756,0.403-6.487,0.495c-0.885-0.031-0.775-0.195,0.399-0.134
						c-2.946-0.125-2.295,0.235-5.868,0.11l1.332-0.158c-3.032-0.015-2.791,0.069-4.459,0.254c-1.906,0.102-5.751-0.053-6.198-0.274
						c-0.409,0.136-2.068,0.319-3.854,0.258c-0.242-0.083,0.409-0.136,0.736-0.162c-5.07-0.159-7.537,0.296-11.024,0.061
						c-0.072-0.081-0.299-0.121-0.588-0.146c4.027,0,7.27,0.009,6.966,0.027c0-0.226-3.252-0.261-0.666-0.577
						c-2.611,0.174-7.075,0.551-10.246,0.45c-0.153-0.022-0.304-0.043-0.419-0.078l0.328-0.026c-0.731-0.021-1.387,0-2.004,0.04
						c-1.011-0.036-1.655-0.062-2.625-0.064c-0.376-0.187-3.73-0.096-5.352-0.103c0.134,0.247-1.989,0.211,0,0.412
						c-0.258-0.018,0.306-0.03,1.385-0.042c0.244-0.007,0.531-0.012,0.691-0.026c-0.031,0.006-0.069,0.014-0.11,0.022
						c1.064-0.006,2.454-0.014,4.032-0.023c-1.282,0.128-2.621,0.236-4.414,0.101c-0.832,0.161-1.748,0.325-2.264,0.403
						c-2.22-0.342-6.498-0.522-7.094-0.734c-4.952,0.146-11.667,0.109-14.78,0.578c-1.408,0.062-1.619-0.131-2.145-0.203
						c0.813-0.048,1.779-0.042,2.219-0.11c-2.814,0.124-8.341,0.059-9.012,0.385c-3.549-0.142,1.994-0.302-2.882-0.242l0.657-0.101
						c-9.592-0.504-15.592,0.852-26.228,0.202c0.737,0.04,1.105,0.058,1.256,0.112C74.516,25.26,61.657,25.848,49.692,25.4
						c-3.4-0.089-3.769,0.119-5.844,0.279l-0.737-0.265l-3.548,0.312c-5.031,0.231-8.715-0.64-15.085-0.206l0.823,0.178
						c-2.289-0.031-7.248,0.116-6.866-0.09c-0.234,0.033-0.75,0.187-1.645,0.095l-0.07-0.139l-5.619,0.247
						c-4.357-0.094,0.681-0.553-5.678-0.57c-2.362,0.057-6.729,0.415-5.841,0.506c0.954,0.005,2.437,0.083,2.509,0.222l-2.162,0.075
						c-0.392,0.411-2.053,0.833,3.254,1.111L6.881,26.9l1.191,0.196l-3.111,0.018c1.765,0.185,2.884,0.018,4.137-0.099
						c0.296,0.105,0.815,0.179,1.55,0.217l3.629-0.396c0.44,0.159-1.628,0.32,0.809,0.405c1.7-0.185-1.631-0.356,1.183-0.48
						c1.77,0.184,1.254,0.336,3.329,0.174c0.292,0.105-0.148,0.173-0.971,0.221c1.849-0.129,4.89-0.061,5.844-0.28
						c1.844,0.228,6.239-0.068,6.058,0.319c0.581-0.094,3.254-0.309,4.952-0.327c-3.101,0.469,6.354,0.018,5.534,0.517
						c2.295-0.421,8.291-0.198,12.355-0.436c-0.227,0.033-0.674,0.102-1.033,0.081c2.289,0.031,2.954,0.155,4.424,0.232
						c0.294-0.345,3.857-0.43,5.776-0.645c2.806,0.328-1.702,0.407-0.821,0.726c-0.142-0.279,4.873-0.286,3.918-0.518
						c2.146,0.202,1.849,0.097,2.954,0.382c0.375-0.433,1.997-0.076,3.775-0.344c3.104,0.208,0.799,0.402,4.209,0.267
						C78.195,27.26,75.163,27.416,75.163,27.416z M156.255,26.552v0.005c-0.698,0.007-1.294,0.013-1.674,0.017
						C154.931,26.568,155.414,26.562,156.255,26.552z M163.07,26.538c-0.83-0.002-1.863-0.004-2.956-0.006
						c-0.239-0.085,0.019-0.173,0.705-0.17C160.447,26.42,162.054,26.467,163.07,26.538z M148.653,24.845
						c1.078-0.037,1.439,0.011,1.588,0.062c-0.509,0.009-1.105,0.019-1.887,0.032c-0.032,0.008-0.095,0.022-0.127,0.03
						C148.331,24.922,148.448,24.878,148.653,24.845z"/>
					<path fill="#919292" d="M146.714,25.172c-0.155,0.006-0.242,0.01-0.445,0.019c0.22,0.019,0.431,0.037,0.644,0.055
						c0.131-0.026,0.265-0.054,0.382-0.078C147.099,25.169,146.896,25.17,146.714,25.172z"/>
					<path fill="#919292" d="M764.476,24.629l-0.144-0.006c0.119,0.01,0.229,0.02,0.301,0.035
						C764.537,24.646,764.537,24.638,764.476,24.629z"/>
					<polygon fill="#919292" points="257.173,26.872 257.164,26.811 256.568,26.865 					"/>
					<path fill="#919292" d="M802.01,25.423c0.072,0.021,0.213,0.043,0.493,0.062C802.481,25.469,802.269,25.446,802.01,25.423z"/>
					<path fill="#919292" d="M818.224,25.454l2.293,0.085C819.523,25.502,818.802,25.475,818.224,25.454z"/>
					<path fill="#919292" d="M830.689,25.558c0.157-0.043,0.203-0.076,0.243-0.106l-0.023-0.002L830.689,25.558z"/>
					<path fill="#919292" d="M632.487,26.141c-0.168,0.004-0.332,0.008-0.48,0.012C630.878,26.202,631.646,26.183,632.487,26.141z"
						/>
					<path fill="#919292" d="M691.47,25.476c-0.627,0.04-1.244,0.079-1.896,0.12C690.624,25.613,691.439,25.617,691.47,25.476z"/>
					<path fill="#919292" d="M566.624,26.536c0.007-0.002,0-0.003,0.007-0.005c-0.141,0-0.265,0.001-0.406,0.001L566.624,26.536z"/>
					<path fill="#919292" d="M686.831,25.596c1.05,0.047,1.928,0.036,2.743,0C688.713,25.581,687.699,25.557,686.831,25.596z"/>
					<path fill="#919292" d="M884.719,25.591l0.6,0.009c-0.01-0.016,0.026-0.029,0.072-0.04L884.719,25.591z"/>
					<path fill="#919292" d="M885.391,25.56l0.667-0.03C885.751,25.53,885.486,25.533,885.391,25.56z"/>
					<path fill="#919292" d="M887.461,25.466l-1.403,0.063C886.543,25.53,887.143,25.537,887.461,25.466z"/>
					<path fill="#919292" d="M868.216,25.501l-0.188,0.09C868.13,25.572,868.197,25.543,868.216,25.501z"/>
					<path fill="#919292" d="M863.201,25.535c1.196,0.018,3.002,0.187,4.671,0.128l0.155-0.072
						C867.243,25.725,864.337,25.381,863.201,25.535z"/>
					<path fill="#919292" d="M842.269,24.457l4.202,0.065c-0.734-0.094-1.701-0.222,0.21-0.248
						C841.383,23.998,847.773,24.486,842.269,24.457z"/>
					<path fill="#919292" d="M829.238,24.337c2.258-0.048-0.026-0.139,0.093-0.193C827.899,24.233,827.553,24.256,829.238,24.337z"
						/>
					<path fill="#919292" d="M735.076,24.475l0.227-0.226C733.562,24.284,735.286,24.337,735.076,24.475z"/>
					<polygon fill="#919292" points="717.079,25.665 718.771,25.802 719.577,25.595 					"/>
					<polygon fill="#919292" points="706.442,24.077 707.202,24.044 704.3,24.13 					"/>
					<path fill="#919292" d="M548.299,24.39l0.526,0.277C550.002,24.615,550.247,24.303,548.299,24.39z"/>
					<path fill="#919292" d="M480.027,24.773c-0.743-0.138-2.664-0.224-3.848-0.086C477.715,24.704,479.246,24.809,480.027,24.773z"
						/>
					<polygon fill="#919292" points="275.277,24.623 276.649,24.527 274.062,24.608 					"/>
				</g>
			</g>
		</g>
	</g>
</g>
</svg>
