<?xml version="1.0" encoding="utf-8"?>
<!-- Generator: Adobe Illustrator 19.0.0, SVG Export Plug-In . SVG Version: 6.00 Build 0)  -->
<svg version="1.1" xmlns="http://www.w3.org/2000/svg" xmlns:xlink="http://www.w3.org/1999/xlink" x="0px" y="0px"
	 viewBox="0 0 700 700" style="enable-background:new 0 0 700 700;" xml:space="preserve">
<style type="text/css">
	.st0{fill:#998675;}
	.st1{fill:#736357;}
</style>
<g id="Layer_2">
	<g id="XMLID_93_">
		<path id="XMLID_91_" class="st0" d="M481.5,278.5c-15.1-0.6-30.3-0.3-45.5-0.3c-19.8,0-39.5,0-59.3,0c-7,0-14.1-0.1-21.1,0.2
			c-0.5,0-1,1-0.3,1c15.1,0.6,30.4,0.2,45.5,0.2c19.8,0,39.5,0,59.3-0.1c7,0,14.1,0,21.1-0.2C481.7,279.2,482,278.5,481.5,278.5"/>
		<path id="XMLID_89_" class="st0" d="M459.8,279.3c1,2.3,2.9,4.4,5.1,5.6c1.1,0.6,2.9,1.3,4.1,0.5c3.9-2.5-5.1-7.2-6.9-7.3
			c-0.4,0-1.1,0.8-0.6,1.1c1.5,0.9,3.1,1.3,4.5,2.3c0.8,0.6,3.9,3.5,1.1,2.8c-3.1-0.8-4.8-3.3-6.7-5.6
			C460.1,278.3,459.7,279,459.8,279.3"/>
		<path id="XMLID_88_" class="st0" d="M460,279.5c2.6-0.5,5.3-1.8,7.4-3.3c1.1-0.7,3-2.9,1.3-4.1c-1.6-1.2-4.2,0.9-5.3,1.8
			c-1.6,1.4-3.3,3.1-3.7,5.2c-0.1,0.6,0.7,0.3,0.9,0c0.6-1.2,1.5-2.2,2.4-3.2c0.8-0.9,2.8-3,4.1-2.7c1.9,0.5-0.4,2.2-0.9,2.4
			c-0.6,0.4-1.3,0.8-1.9,1.1c-1.4,0.8-2.9,1.3-4.4,2C459.6,278.9,459.5,279.6,460,279.5"/>
		<path id="XMLID_87_" class="st0" d="M469.8,279.2c1,2.1,3.3,4,5.5,4.8c1.2,0.4,3.9,1.3,4.7-0.4c1.5-3-7.6-5.4-9.2-5.3
			c-0.4,0-1,0.8-0.4,1.1c1.3,0.7,3,0.9,4.4,1.4c0.8,0.3,3.4,1.1,3.7,2c0.4,1.2-3.9-0.5-4.5-0.8c-1.4-0.9-2.5-2.2-3.8-3.2
			C470,278.6,469.7,279,469.8,279.2"/>
		<path id="XMLID_86_" class="st0" d="M470.4,279.9c1.6-0.5,3.1-1.2,4.6-1.9c1.3-0.7,3-1.4,4-2.6c1.2-1.4,1.2-3.9-1.2-3.7
			c-1.9,0.2-3.5,2.1-4.8,3.2c-1.3,1.2-2.9,2.6-3.1,4.5c-0.1,0.6,0.7,0.3,0.9,0c1.2-2.3,3.1-4,5.1-5.6c0.5-0.4,1.6-1.2,2.2-0.8
			c0.1,0.4,0.3,0.8,0.4,1.2c-0.2,0.4-0.4,0.6-0.8,0.8c-0.4,0.3-0.9,0.6-1.4,0.9c-1.9,1.2-4,2.1-6,3.1
			C470,279.2,469.8,280.1,470.4,279.9"/>
		<path id="XMLID_85_" class="st0" d="M481.4,279.2c1.1,0.9,2.2,1.7,3.1,2.8c0.3,0.3,0.9-0.2,0.9-0.5c0.3-1.3,0.9-2.3,2-3
			c0.3-0.2,0.8-1,0.2-1.2c-1.3-0.3-2.3-0.9-3.2-1.9c-0.3-0.3-0.8,0.1-1,0.4c-0.6,1.1-1.4,2-2.2,2.9c-0.3,0.3-0.1,0.9,0.4,0.6
			c1.3-0.7,2.2-1.9,2.9-3.2c-0.3,0.1-0.6,0.3-1,0.4c0.9,1,2.1,1.7,3.4,2l0.2-1.2c-1.6,1-2.6,2.4-2.9,4.3c0.3-0.2,0.7-0.4,1-0.7
			c-1-1-2.1-2.1-3.5-2.4C481.6,278.5,481.1,278.9,481.4,279.2"/>
		<path id="XMLID_84_" class="st0" d="M216.5,280.1c15.1,0.6,30.4,0.2,45.5,0.3c19.8,0,39.5,0,59.3,0c7,0,14.1,0.1,21.1-0.2
			c0.5,0,1-1,0.3-1c-15.1-0.6-30.4-0.2-45.5-0.2c-19.8,0-39.5,0-59.3,0.1c-7,0-14.1,0-21.1,0.2C216.4,279.4,216,280.1,216.5,280.1"
			/>
		<path id="XMLID_83_" class="st0" d="M237.7,279.7c-1.7,2.3-3.5,4.9-6.5,5.5c-0.8,0.2-1.9,0.4-1.5-0.9c0.3-0.7,1.2-1.4,1.8-1.9
			c1.5-1.1,3.1-1.6,4.7-2.4c0.3-0.2,0.8-1.1,0.1-1.1c-2.5,0.2-5.2,2-6.8,3.8c-0.8,0.8-2.1,2.7-0.7,3.6c1.2,0.8,3.4-0.2,4.5-0.9
			c2.1-1.2,4-3.3,5-5.5C238.5,279.6,238,279.3,237.7,279.7"/>
		<path id="XMLID_82_" class="st0" d="M238.2,279.7c-1.7-0.8-3.4-1.4-5-2.4c-0.5-0.3-4.3-2.6-2.8-3.2c1.2-0.4,3.4,1.8,4.1,2.5
			c1,1,2.1,2.2,2.8,3.5C237.7,280.7,238.4,280,238.2,279.7c-0.3-2.2-2.3-4-3.9-5.3c-1.2-1-3.4-2.4-4.9-1.2c-3.8,3.2,6.8,6.9,8.4,7.2
			C238.2,280.5,238.7,279.9,238.2,279.7"/>
		<path id="XMLID_78_" class="st0" d="M228,279.7c-1.3,1.1-2.3,2.4-3.8,3.3c-0.5,0.3-5.1,2.1-4.6,0.5c0.3-0.8,2.9-1.6,3.6-1.9
			c1.4-0.5,3-0.8,4.4-1.4c0.4-0.2,0.7-1,0.1-1c-1.6-0.1-10.8,2.4-9.6,5.5c0.6,1.6,4,0.4,5,0c2.1-0.9,4.2-2.7,5.3-4.7
			C228.4,279.8,228.2,279.6,228,279.7"/>
		<path id="XMLID_77_" class="st0" d="M227.9,279.9c-2.2-1-4.3-2.1-6.3-3.3c-0.4-0.3-0.9-0.6-1.3-0.9c-0.2-0.2-0.3-0.4-0.5-0.6
			c-0.3-0.5-0.2-0.7,0.3-0.8c0.8-0.4,1.4,0.2,2,0.7c2,1.6,3.9,3.4,5.3,5.7c0.3,0.5,0.9-0.2,0.9-0.6c-0.2-1.9-1.8-3.2-3.1-4.4
			c-1.3-1.2-3-3.2-4.9-3c-1.9,0.2-2.4,2.4-1.3,3.8c0.8,1,2.1,1.5,3.2,2.1c1.7,0.9,3.5,1.7,5.3,2.3
			C227.8,280.9,228.4,280.1,227.9,279.9"/>
		<path id="XMLID_75_" class="st0" d="M216.4,279.4c-1.5,0.4-2.7,1.5-3.7,2.6c0.3,0,0.6,0,0.9,0c-0.3-1.6-1.2-2.9-2.5-3.8
			c-0.2,0.4-0.3,0.8-0.5,1.2c1.5-0.4,2.7-1.1,3.7-2.2c-0.3,0-0.6,0.1-0.9,0.1c0.7,1.3,1.5,2.3,2.8,2.9c0.4,0.2,0.8-0.5,0.6-0.8
			c-0.8-1-1.6-1.9-2.2-3c-0.2-0.4-0.7-0.1-0.9,0.1c-0.8,0.8-1.7,1.4-2.8,1.6c-0.4,0.1-1,0.9-0.5,1.2c1.2,0.8,2,1.9,2.4,3.3
			c0.1,0.5,0.7,0.3,0.9,0c0.9-1.1,2-1.8,3.1-2.6C216.8,279.9,216.8,279.3,216.4,279.4"/>
		<path id="XMLID_74_" class="st0" d="M349.5,284.5c0.3-1.5,1.7-4.3,3.4-5c0.3-0.1,1-1,0.4-1.2c-0.9-0.3-2.1-0.6-2.9-1.2
			c-0.9-0.7-1-1.7-1.3-2.7c-0.2-0.7-1,0-1.1,0.4c-0.2,2.9,2.2,3.9,4.6,4.6c0.1-0.4,0.1-0.7,0.2-1.1c-2.2,0.9-3.9,4-4.1,6.3
			C348.7,285.3,349.5,284.8,349.5,284.5"/>
		<path id="XMLID_73_" class="st0" d="M348.1,274.7c-0.3,1-0.8,1.9-1.4,2.6c-0.6,0.7-1.5,1.1-2,1.9c-0.2,0.3-0.2,0.8,0.3,0.7
			c1-0.2,2-1.5,2.6-2.3c0.6-0.9,1.2-1.9,1.2-3C348.7,274.1,348.2,274.4,348.1,274.7"/>
		<path id="XMLID_71_" class="st0" d="M344.7,279.7c1,0.8,2,1.5,2.7,2.5c0.3,0.5,0.6,1,0.8,1.5c0.2,0.5,0.2,0.9,0.7,1.1
			c0.2,0.1,0.5-0.1,0.6-0.3c0.5-1.1-0.4-2.4-1-3.3c-0.8-1-1.9-1.9-3.2-2.2C344.9,279,344.4,279.5,344.7,279.7"/>
	</g>
	<g id="XMLID_28_">
		<path id="XMLID_29_" class="st1" d="M294.4,224.3c0,2.9,0,5.3,0,7.1c0,1.9,0,3.5,0,4.9c0,1.7,0,3.2,0,4.4c0,1.2,0,2.2,0,3.1
			c0,1.7-0.3,3.3-0.8,4.6c-0.5,1.3-1.3,2.5-2.3,3.5s-2.3,1.8-3.9,2.3s-3.3,0.8-5.3,0.8s-3.8-0.3-5.3-0.8s-2.8-1.3-3.9-2.3
			c-1-1-1.8-2.1-2.3-3.5c-0.5-1.3-0.8-2.9-0.8-4.6c0-0.9,0-1.9,0-3.1c0-1.2,0-2.7,0-4.4c0-1.4,0-3,0-4.9c0-1.9,0-4.3,0-7.1h3.7
			c0,0.4,0,1.7-0.1,3.8c0,2.2,0,5,0,8.6c0,1.1,0,2.2,0,3.3c0,1.2,0,2.3,0,3.5c0,2.7,0.8,4.8,2.4,6.2s3.7,2.1,6.4,2.1
			c2.9,0,5.1-0.7,6.5-2s2.2-3.5,2.2-6.3c0-1.2,0-2.4,0-3.5c0-1.2,0-2.3,0-3.3c0-3.5,0-6.5,0-8.7s0-3.5,0-3.7H294.4z"/>
		<path id="XMLID_31_" class="st1" d="M330.5,224.3c0,2.4-0.1,5-0.1,8.1c0,3,0,5.2,0,6.5c0,4.3,0,7.6,0,10.1c0,2.5,0,3.8,0,4l-3,1.5
			c-4.5-6.1-8.7-11.6-12.7-16.5c-3.9-4.9-6.2-7.8-6.8-8.5l0,0c0,4,0,8.9,0.1,14.8c0.1,5.8,0.1,9.2,0.1,10.1h-3.5c0-0.4,0-1.7,0.1-4
			s0-5.5,0-9.6c0-1.6,0-3.8,0-6.5c0-2.7,0-5.6-0.1-8.6l3.4-1.6c0.3,0.3,2.6,3.3,6.9,8.7c4.3,5.5,8.4,10.6,12.2,15.3l0,0
			c0-2.3,0-6.2-0.1-11.6s-0.1-9.5-0.1-12.1H330.5z"/>
		<path id="XMLID_33_" class="st1" d="M344.7,254.4H341c0-0.9,0-2.5,0.1-4.8s0-5.6,0-9.9c0-1.7,0-3.9,0-6.7s0-5.6-0.1-8.6h3.7
			c0,2.1-0.1,4.6-0.1,7.5c0,2.8,0,5.2,0,7c0,4.6,0,8.1,0,10.6S344.7,253.5,344.7,254.4z"/>
		<path id="XMLID_35_" class="st1" d="M370.3,245.9c0,1.5-0.4,2.9-1.1,4.1c-0.7,1.2-1.7,2.1-2.9,2.8c-1.1,0.7-2.4,1.2-3.9,1.5
			c-1.5,0.3-3.1,0.5-4.8,0.5c-1,0-2,0-3-0.1c-1-0.1-1.6-0.1-1.8-0.1l-0.2-3.2c0.2,0,0.8,0.1,1.8,0.2c1,0.1,2.1,0.1,3.4,0.1
			c0.8,0,1.8-0.1,3.1-0.3s2.2-0.5,2.9-0.8c0.9-0.4,1.6-1,2-1.6c0.5-0.6,0.7-1.4,0.7-2.3c0-1-0.2-1.9-0.7-2.5c-0.5-0.7-1.3-1.4-2.3-2
			c-0.7-0.4-1.6-0.9-2.7-1.4s-2.1-1.1-3-1.6c-1.5-0.9-2.6-1.9-3.3-3c-0.7-1.1-1-2.3-1-3.7c0-1.4,0.3-2.6,0.9-3.6
			c0.6-1,1.4-1.9,2.3-2.6c1-0.7,2.1-1.3,3.5-1.6s2.9-0.5,4.6-0.5c0.9,0,1.9,0,2.8,0.1c1,0.1,1.5,0.1,1.6,0.1l0.3,3.3
			c-0.1,0-0.7-0.1-1.6-0.2s-2.1-0.1-3.5-0.1c-0.8,0-1.7,0.1-2.6,0.3c-0.9,0.2-1.7,0.5-2.3,0.9c-0.6,0.3-1.1,0.8-1.5,1.4
			s-0.6,1.3-0.6,2.2c0,0.7,0.2,1.4,0.7,2.1c0.4,0.7,1.3,1.4,2.5,2.1c0.6,0.4,1.4,0.8,2.4,1.3c1,0.5,2,1,3,1.6c1.5,0.9,2.6,1.9,3.4,3
			C369.9,243.1,370.3,244.5,370.3,245.9z"/>
		<path id="XMLID_37_" class="st1" d="M403.4,253.2l-3.5,1.8c-0.1-0.2-0.5-1.3-1.4-3.3s-2.1-4.7-3.6-8h-13.3
			c-1.6,3.5-2.8,6.2-3.7,8.1s-1.3,3-1.4,3.2l-3-1.6c0.4-0.8,2-4.2,4.8-10.3c2.8-6.1,5.8-12.5,8.8-19.2h2.9c3,6.7,5.9,13.2,8.8,19.5
			C401.8,249.7,403.3,252.9,403.4,253.2z M393.7,240.8c-0.8-1.8-1.6-3.7-2.5-5.7c-0.9-2-1.8-4.1-2.8-6.2l-0.1,0
			c-0.8,1.6-1.7,3.7-2.7,6.1c-1.1,2.4-1.9,4.4-2.6,5.9l0,0L393.7,240.8L393.7,240.8z"/>
		<path id="XMLID_40_" class="st1" d="M430.1,225.8c-0.1,0.1-1.6,2-4.4,5.6s-5.1,6.5-6.9,8.7c0,2.7,0,5.6,0,8.5c0,3,0.1,4.9,0.1,5.8
			h-3.7c0-0.9,0.1-2.9,0.1-5.9s0-5.8,0-8.2c-1.8-2.4-4.1-5.3-6.8-8.7c-2.7-3.4-4.1-5.3-4.4-5.5l2.9-2.2c0.2,0.3,1.4,1.8,3.5,4.7
			c2.2,2.9,4.3,5.8,6.5,8.6h0c2.1-2.7,4.3-5.6,6.6-8.6c2.3-3,3.5-4.6,3.7-4.8L430.1,225.8z"/>
	</g>
	<g id="XMLID_1_">
		<path id="XMLID_2_" class="st1" d="M272.5,340.1v1.6c0,1.3-0.8,1.8-2.3,1.8c-1.3,0-1.8-0.4-1.8-1.5c0-1.6,0.2-3.4,0.2-9.6
			c0-2.4,0-4.9-0.1-7.3c2.2,0.9,2.5,1.1,4.5,2.1h6.5c1.5-1.6,1.8-1.9,2.2-1.9c0.4,0,0.8,0.3,2.2,1.5c0.6,0.6,0.9,0.9,0.9,1.2
			s-0.3,0.6-1.1,1.3v2c0,5.2,0.3,9,0.3,10.2c0,1.1-0.8,1.6-2.4,1.6c-1.3,0-1.8-0.5-1.8-1.5v-1.5H272.5z M279.8,328.2h-7.3v10.9h7.3
			V328.2z M279.1,320.6v0.9c0,1.3-0.8,1.8-2.3,1.8c-1.4,0-1.9-0.5-1.9-1.5c0-1.1,0.1-2.5,0.1-7.2c0-2.6,0-5.1-0.3-7.7
			c2.3,1,2.6,1.1,4.9,2.3H292c1.6-1.8,1.9-2,2.3-2c0.4,0,0.8,0.3,2.4,1.6c0.7,0.6,1,0.9,1,1.2c0,0.5-0.3,0.8-1.2,1.3v1.6
			c0,4.4,0.1,7.6,0.1,8.5c0,1.3-0.6,1.8-2.4,1.8c-1.2,0-1.8-0.4-1.8-1.5v-1.2H279.1z M292.4,310.3h-13.3v9.4h13.3V310.3z
			 M291.4,340.1v1.4c0,1.2-0.8,1.7-2.4,1.7c-1.2,0-1.8-0.4-1.8-1.4c0-1.5,0.2-3.4,0.2-9.5c0-2.4,0-4.8-0.1-7.3
			c2.1,0.9,2.5,1.1,4.5,2.1h7.1c1.6-1.6,1.9-1.9,2.2-1.9c0.4,0,0.8,0.3,2.2,1.5c0.7,0.6,0.9,0.9,0.9,1.2s-0.3,0.6-1.1,1.3v2
			c0,5.3,0.3,8.9,0.3,10.1c0,1.2-0.8,1.8-2.4,1.8c-1.2,0-1.7-0.4-1.7-1.4v-1.7H291.4z M299.3,328.1h-7.9v11h7.9V328.1z"/>
		<path id="XMLID_9_" class="st1" d="M328.2,325.4v0.4c0,0.8-0.9,1.4-2.2,1.4c-1,0-1.6-0.4-1.6-1.3c0-1.3,0.1-2.8,0.1-5.8
			c-0.1,0-0.2,0-0.3,0h-10c0,2.2-0.1,4.5-0.3,6.6h3.6c1.3-1.6,1.6-1.8,2-1.8c0.4,0,0.8,0.3,2.1,1.4c0.5,0.5,0.8,0.8,0.8,1.1
			c0,0.3-0.1,0.4-1.1,1.1v2.4c0,6.3,0,10.5,0,12c0,1.1-0.8,1.6-2.3,1.6c-1.1,0-1.6-0.4-1.6-1.4c0-0.8,0.2-4.7,0.3-11.8v-3.6H314
			c-0.2,1.7-0.3,3.2-0.6,4.6c-0.9,4.8-2.4,8.1-5.1,11.9c-0.1,0.2-0.6-0.2-0.5-0.4c1.4-3.4,2.1-6.4,2.5-11.8c0.3-4,0.3-9.4,0.3-17.4
			c0-4.5,0-5.3-0.2-7.1c4.2,0.5,5.2,0.7,5.2,1.3c0,0.4-0.3,0.7-1.3,1.1v3.3c0,2.1,0,4.1,0,5.9h2.7v-9c0-1.5,0-2.6-0.2-3.7
			c4.6,0.4,5.1,0.8,5.1,1.2c0,0.3-0.3,0.8-1.3,1.1v10.4h0.1c0.7-1.7,1.2-2.1,1.5-2.1c0.4,0,0.7,0.3,1.8,1.5c0.2,0.2,0.3,0.3,0.4,0.5
			c0-1.3,0-2.9,0-4.9c0-1.8,0-3.4-0.2-5c1.9,0.9,2.3,1.1,4,2.1h2.9c0.3-1.1,0.5-2.2,0.8-3.2c0.1-0.8,0.2-1.6,0.3-2.2
			c4.2,1.2,5.1,1.6,5.1,2.1c0,0.5-0.5,0.7-1.8,0.7c-1.1,1.1-1.8,1.7-3,2.6h8.4c1.3-1.6,1.6-1.9,2-1.9c0.4,0,0.8,0.3,2.2,1.5
			c0.7,0.6,0.9,0.9,0.9,1.2c0,0.4-0.3,0.7-1.1,1.2v2.1c0,5.5,0.2,9.3,0.2,10.5c0,1-0.8,1.5-2.3,1.5c-1.1,0-1.5-0.3-1.5-1.3v-0.7
			h-6.9c-0.3,0.6-0.7,1.2-1.1,1.8c-2,2.7-4.9,4.5-8.8,5.7c-0.2,0-0.3-0.4-0.1-0.5c3-2,5-3.8,6.2-6.2l0.4-0.8H328.2z M338.9,334.7
			c0,4.5,0.2,7.5,0.2,8.6c0,1-0.8,1.6-2.4,1.6c-1.1,0-1.6-0.4-1.6-1.3c0-0.8,0.2-3.3,0.2-8.4v-0.5h-10.1c-0.7,0-1.3,0.1-2.2,0.3
			l-0.5-1.6c1.1,0.3,1.9,0.3,2.7,0.3h10.1c0-3.4,0-4.9-0.2-6.8c5,0.5,5,0.7,5,1.2c0,0.4-0.3,0.6-1.2,1v4.6h3
			c1.8-2.3,2.3-2.6,2.6-2.6c0.4,0,0.8,0.3,2.6,1.8c0.8,0.6,1.1,1,1.1,1.3s-0.1,0.4-0.5,0.4H338.9z M328.2,312.2v5.5h4.6
			c0.1-1.8,0.2-3.7,0.2-5.5H328.2z M331.6,324.5c0.7-1.8,0.9-3.8,1.1-5.8h-4.5v5.8H331.6z M341.6,324.5v-5.8h-5.3
			c-0.2,1.9-0.4,3.9-1.2,5.8H341.6z M336.6,312.2c0,1.9-0.1,3.9-0.2,5.5h5.2v-5.5H336.6z"/>
		<path id="XMLID_17_" class="st1" d="M361.4,326.1h1.4c1.3-1.6,1.6-1.8,1.9-1.8c0.4,0,0.8,0.3,2.3,1.5c0.7,0.6,0.9,0.9,0.9,1.2
			c0,0.4-0.2,0.7-1.1,1.3v1.8c0,4.8,0.2,8.1,0.2,9.2c0,1-0.7,1.5-2.2,1.5c-1,0-1.6-0.3-1.6-1.1v-1H356v2.4c0,1.1-0.7,1.6-2.2,1.6
			c-1.1,0-1.6-0.3-1.6-1.2c0-1.3,0.1-2.7,0.1-8.2c0-3.1,0-6.1-0.3-9.2c2,0.9,2.4,1.1,4.3,2.1h1.3v-9h-3.9c-0.9,0-1.7,0.1-2.9,0.3
			l-0.5-1.6c1.3,0.3,2.3,0.3,3.3,0.3h4v-5.3c0-1.5-0.1-2.8-0.2-4c4.8,0.5,5.3,1,5.3,1.4c0,0.4-0.5,0.8-1.4,1.3v6.6h2.2
			c1.7-2.1,2.2-2.4,2.5-2.4c0.4,0,0.8,0.3,2.5,1.7c0.7,0.6,1.1,1,1.1,1.3s-0.1,0.4-0.5,0.4h-7.7V326.1z M363.2,327.1H356v10.7h7.2
			V327.1z M385.1,317.7c-0.7,5.7-2.3,11.4-5.5,16.2c2.8,2.6,6.2,4.5,10.4,5.8c0.2,0,0.1,0.3,0,0.4c-1.5,0.7-1.8,1.2-2.3,2.9
			c-0.3,1.1-0.3,1.2-0.7,1.2s-1.3-0.4-2.3-1c-2.8-1.7-5.3-4.1-7.2-6.8c-3.4,3.8-8.1,6.5-13.8,8.1c-0.2,0-0.4-0.5-0.2-0.6
			c5.4-3,9.3-6.3,12.2-10.4c-2.1-3.7-3.4-7.8-4.1-11.9c-1.1,1.6-2.3,2.9-3.7,4.1c-0.2,0.1-0.5-0.2-0.3-0.3c2.1-3.6,3.9-8.6,4.8-13.5
			c0.3-1.7,0.6-3.5,0.7-5.2c4.9,1.2,5.5,1.5,5.5,2.1c0,0.5-0.4,0.8-1.5,0.9c-0.8,2.6-1.7,4.9-2.6,6.9h8.5c2.1-2.5,2.6-2.9,2.9-2.9
			c0.4,0,0.8,0.3,2.7,2c0.8,0.8,1.2,1.1,1.2,1.4s-0.1,0.4-0.5,0.4H385.1z M373.9,317.7c-0.5,1-1,2-1.6,2.9c0.9,3.8,2.4,7.4,4.8,10.5
			c2.3-4.1,3.5-8.8,4.1-13.5H373.9z"/>
		<path id="XMLID_22_" class="st1" d="M413.3,335.9c0,1.9,0.1,3.6,0.1,5.1c0,1-0.3,1.7-0.8,2.4c-0.7,1-2,1.5-3.9,1.5
			c-0.8,0-0.8,0-1-1.2c-0.3-1.4-1.3-2.2-5-3.1c-0.2,0-0.2-0.6,0-0.6c2.1,0.1,4.2,0.3,6,0.3c0.4,0,0.5-0.2,0.5-0.6v-3.7h-9.7
			c-0.8,0-1.7,0.1-2.9,0.3l-0.5-1.6c1.3,0.2,2.2,0.3,3.2,0.3h9.8v-3.7h-12.9c-1,0-2.1,0.1-3.5,0.3l-0.5-1.6c1.5,0.3,2.6,0.3,3.7,0.3
			h13.1v-3.7h-9.2c-1,0-1.9,0.1-3.2,0.3l-0.5-1.6c1.4,0.3,2.4,0.3,3.5,0.3h9.4v-3.5h-7.5v0.3c0,0.9-0.8,1.4-2.1,1.4
			c-1.2,0-1.7-0.4-1.7-1.2c0-0.7,0.1-1.9,0.1-4.8c0-1.5,0-2.4-0.1-3.9c2,0.7,2.3,0.8,4.2,1.8h7.1v-3.4h-11.8c-1.1,0-2.1,0.1-3.6,0.3
			l-0.5-1.6c1.5,0.3,2.6,0.3,3.8,0.3h12.1v-0.7c0-2.1,0-2.8-0.2-4.5c5.4,0.8,5.4,0.8,5.4,1.5c0,0.4-0.3,0.6-1.3,1v2.7h10
			c2.1-2.3,2.6-2.6,2.9-2.6c0.4,0,0.8,0.3,2.7,1.8c0.8,0.7,1.2,1,1.2,1.3s-0.1,0.4-0.5,0.4h-16.1v3.4h7.2c1.4-1.6,1.7-1.8,2.1-1.8
			c0.4,0,0.8,0.3,2.2,1.4c0.6,0.5,0.9,0.8,0.9,1.2c0,0.4-0.1,0.5-1,1.1v0.8c0,2,0.1,3.4,0.1,3.8c0,1-0.8,1.4-2.4,1.4
			c-1.1,0-1.6-0.3-1.6-1.1v-0.3h-7.5v3.5h7.9c1.4-1.5,1.7-1.7,2.1-1.7c0.4,0,0.8,0.3,2.3,1.3c0.7,0.5,1,0.8,1,1.2
			c0,0.3-0.1,0.4-1.2,1.1v2.7h0.7c1.3-1.9,1.8-2.2,2.1-2.2c0.4,0,0.8,0.3,2.4,1.6c0.6,0.5,1,0.9,1,1.2s-0.1,0.4-0.5,0.4h-5.5
			c0,2.9,0.2,4.9,0.2,5.7c0,1.2-0.9,1.7-2.6,1.7c-1,0-1.6-0.4-1.6-1.3v-1.3H413.3z M409.3,316.6h-7.5v4.5h7.5V316.6z M420.7,321.1
			v-4.5h-7.5v4.5H420.7z M421.3,330.2v-3.7h-8.1v3.7H421.3z M421.3,334.9v-3.7h-8.1c0,1,0,2,0.1,3.7H421.3z"/>
	</g>
</g>
<g id="Layer_3">
	<g id="XMLID_136_">
		<g id="XMLID_137_">
			<g id="XMLID_138_">
				<g id="XMLID_139_">
					<g id="XMLID_165_">
						<path id="XMLID_170_" class="st0" d="M440.7,175.8c-4.4-3.1-10.1-4.8-15.3-5.6c-4.9-0.8-9.9-0.4-14.4,1.7
							c-1.4,0.7-2.7,1.5-4,2.5c-1.5-1.3-3.3-2.3-5.2-2.9c-0.3-0.1-0.6-0.2-0.9-0.2c2-6-0.3-13.3-6.7-15.8c-10.8-4.2-20,5.3-29.6,8.3
							c-4.9,1.6-13.1,0.6-13.1-6.1c0-3,2.4-4.7,5.2-4c1,0.3,2,0.8,2.6,1.7c0.4,0.6,1.5,2.5-0.5,2.6c-0.7,0-1.3-0.7-1.9-0.8
							c1,0.3,2.2-1.5,1-1.9c-1.2-0.4-2.5,0.4-2.8,1.7c-0.3,1.4,0.8,2.5,2.1,2.9c3.1,1,5.8-2,4.4-4.9c-1.2-2.6-4.4-3.7-7-3.1
							c-2.9,0.6-5,3-5.2,6c-0.3,3.3,1.7,6.3,4.7,7.7c3.3,1.6,7.1,1.3,10.5,0.2c8.4-2.7,15.6-10.1,25-9.1c4.3,0.4,8,2.9,9.4,7
							c0.8,2.3,0.8,5,0,7.4c-2.9-0.3-6.3,0.3-7.4,3.1c-0.5,1.3-0.3,3.3,1.1,4c1.5,0.7,3.2-0.3,4.3-1.2c1.2-1,2.2-2.3,2.9-3.6
							c0.8,0.2,1.6,0.5,2.3,0.9c1.1,0.5,2,1.2,2.9,2c-1.3,1.4-2.4,3-3,4.9c-1.2,3.4,0.1,9.5,5,8.2c4.3-1.1,4.7-6.2,3.2-9.7
							c-0.6-1.4-1.4-2.7-2.4-3.8c2-1.6,4.4-2.7,6.8-3.3c4.7-1.1,9.6-0.4,14.2,0.9c4.2,1.2,8.7,2.9,12,5.9c3,2.8,5,6.9,4.3,11.1
							c-0.8,4.4-5.5,8.1-10,7.5c-4.6-0.6-7.1-5.9-4.2-9.7c1.5-2,4.2-2.9,6.4-1.5c1,0.6,1.7,1.5,1.7,2.7c0.1,2.3-2.6,3.1-3.6,1.1
							c-0.3-0.6-1.3,0.1-1.1,0.6c1.5,4.1,6.7,1.1,6.5-2.4c-0.2-4.7-6.1-5.3-9.3-3.1c-3.8,2.6-5.2,8-1.9,11.6
							c3.3,3.6,8.7,2.9,12.4,0.4C450.6,191.6,448.1,180.9,440.7,175.8 M398.2,172.8c-0.5,0.9-1.1,1.7-1.8,2.4
							c-0.5,0.5-1.9,1.4-2.6,0.6c-0.6-0.6-0.3-1.3,0.1-1.8c0.7-1.1,2-1.2,3.2-1.2C397.4,172.7,397.8,172.8,398.2,172.8 M405.2,178.9
							c0.4-0.7,0.9-1.3,1.4-1.8c1.4,1.6,2.4,3.5,2.7,5.5c0.3,1.6,0.1,3.6-1.6,4.3c-1.5,0.6-2.9-0.4-3.5-1.7
							C403.2,183.2,404.1,180.7,405.2,178.9"/>
						<path id="XMLID_166_" class="st0" d="M255.2,197.2c3.7,2.6,9.1,3.2,12.4-0.4c3.3-3.6,1.8-9-1.9-11.6c-3.1-2.2-9-1.6-9.3,3.1
							c-0.2,3.5,5.1,6.5,6.5,2.4c0.2-0.6-0.8-1.2-1.1-0.6c-1,2-3.7,1.2-3.6-1.1c0-1.1,0.8-2.1,1.7-2.7c2.2-1.4,4.9-0.5,6.4,1.5
							c2.9,3.8,0.3,9-4.2,9.7c-4.5,0.6-9.2-3.1-10-7.5c-0.7-4.2,1.3-8.3,4.3-11.1c3.3-3,7.7-4.7,12-5.9c4.6-1.3,9.5-2,14.2-0.9
							c2.5,0.6,4.9,1.7,6.8,3.3c-1,1.1-1.8,2.4-2.4,3.8c-1.4,3.4-1.1,8.5,3.2,9.7c4.9,1.3,6.3-4.7,5-8.2c-0.7-1.8-1.7-3.4-3-4.9
							c0.9-0.8,1.9-1.4,2.9-2c0.7-0.4,1.5-0.7,2.3-0.9c0.7,1.4,1.7,2.6,2.9,3.6c1.1,0.9,2.9,1.9,4.3,1.2c1.4-0.7,1.7-2.6,1.1-4
							c-1.1-2.8-4.5-3.4-7.4-3.1c-0.8-2.4-0.8-5.1,0-7.4c1.5-4.1,5.2-6.6,9.4-7c9.3-0.9,16.6,6.5,25,9.1c3.4,1.1,7.2,1.4,10.5-0.2
							c2.9-1.4,4.9-4.4,4.7-7.7c-0.2-3-2.3-5.4-5.2-6c-2.6-0.5-5.9,0.5-7,3.1c-1.3,3,1.3,5.9,4.4,4.9c1.3-0.4,2.5-1.4,2.1-2.9
							c-0.3-1.2-1.6-2-2.8-1.7c-1.2,0.4,0,2.2,1,1.9c-0.6,0.2-1.2,0.9-1.9,0.8c-2-0.1-0.9-2-0.5-2.6c0.6-0.9,1.6-1.4,2.6-1.7
							c2.8-0.7,5.1,1,5.2,4c0,6.7-8.2,7.7-13.1,6.1c-9.6-3-18.8-12.6-29.6-8.3c-6.4,2.5-8.7,9.8-6.7,15.8c-0.3,0.1-0.6,0.1-0.9,0.2
							c-1.9,0.6-3.7,1.6-5.2,2.9c-1.2-1-2.6-1.9-4-2.5c-4.5-2.1-9.6-2.4-14.4-1.7c-5.2,0.8-10.9,2.6-15.3,5.6
							C249.4,180.9,246.9,191.6,255.2,197.2 M300.5,172.7c1.2,0,2.5,0.1,3.2,1.2c0.4,0.6,0.7,1.2,0.1,1.9c-0.8,0.7-2.1-0.1-2.6-0.6
							c-0.7-0.7-1.3-1.5-1.8-2.4C299.7,172.7,300.1,172.7,300.5,172.7 M293.3,185.2c-0.6,1.3-2,2.3-3.5,1.7
							c-1.7-0.7-1.8-2.7-1.6-4.3c0.3-2.1,1.3-4,2.7-5.5c0.5,0.6,1,1.2,1.4,1.8C293.4,180.7,294.3,183.2,293.3,185.2"/>
					</g>
				</g>
			</g>
		</g>
	</g>
	<g id="XMLID_110_">
		<g id="XMLID_111_">
			<g id="XMLID_112_">
				<g id="XMLID_113_">
					<g id="XMLID_115_">
						<path id="XMLID_120_" class="st0" d="M440.8,381.8c7.4-5.2,9.8-15.8,1.6-21.5c-3.7-2.6-9.1-3.2-12.4,0.4
							c-3.3,3.6-1.8,9,1.9,11.6c3.1,2.2,9,1.6,9.3-3.1c0.2-3.5-5-6.5-6.5-2.4c-0.2,0.6,0.8,1.2,1.1,0.6c1-2,3.7-1.2,3.6,1.1
							c0,1.1-0.8,2.1-1.7,2.7c-2.2,1.4-4.9,0.5-6.4-1.5c-2.9-3.8-0.4-9,4.2-9.7c4.5-0.6,9.3,3.1,10,7.5c0.7,4.2-1.3,8.3-4.3,11.1
							c-3.3,3-7.7,4.7-12,5.9c-4.6,1.3-9.5,2-14.2,0.9c-2.5-0.6-4.9-1.7-6.8-3.3c1-1.1,1.8-2.4,2.4-3.8c1.4-3.4,1.1-8.5-3.2-9.7
							c-4.9-1.3-6.3,4.7-5,8.2c0.7,1.8,1.7,3.4,3,4.9c-0.9,0.8-1.9,1.4-2.9,2c-0.7,0.4-1.5,0.7-2.3,0.9c-0.7-1.4-1.7-2.6-2.9-3.6
							c-1.1-0.9-2.9-1.9-4.3-1.2c-1.4,0.7-1.7,2.6-1.1,4c1.1,2.8,4.5,3.4,7.4,3.1c0.8,2.4,0.8,5.1,0,7.4c-1.5,4.1-5.2,6.6-9.4,7
							c-9.3,0.9-16.6-6.5-25-9.1c-3.4-1.1-7.2-1.4-10.5,0.2c-2.9,1.4-4.9,4.4-4.7,7.7c0.2,3,2.3,5.4,5.2,6c2.6,0.5,5.9-0.5,7-3.1
							c1.3-3-1.3-5.9-4.4-4.9c-1.3,0.4-2.5,1.4-2.1,2.9c0.3,1.2,1.6,2,2.8,1.7c1.2-0.4,0-2.2-1-1.9c0.6-0.2,1.2-0.9,1.9-0.8
							c2,0.1,0.9,2,0.5,2.6c-0.6,0.9-1.6,1.4-2.6,1.7c-2.8,0.7-5.2-1-5.2-4c0-6.7,8.2-7.7,13.1-6.1c9.6,3,18.8,12.6,29.6,8.3
							c6.4-2.5,8.7-9.8,6.7-15.8c0.3-0.1,0.6-0.1,0.9-0.2c1.9-0.6,3.7-1.6,5.2-2.9c1.2,1,2.6,1.9,4,2.5c4.5,2.1,9.6,2.4,14.4,1.7
							C430.7,386.6,436.4,384.8,440.8,381.8 M398.3,384.8c-0.4,0-0.8,0.1-1.2,0c-1.2,0-2.5-0.1-3.2-1.2c-0.4-0.5-0.7-1.2-0.1-1.8
							c0.8-0.7,2.1,0.1,2.6,0.6C397.2,383.1,397.8,383.9,398.3,384.8 M405.2,378.6c-1.1-1.8-1.9-4.2-1-6.3c0.6-1.3,2-2.3,3.5-1.7
							c1.7,0.7,1.8,2.7,1.6,4.3c-0.3,2.1-1.3,4-2.7,5.5C406.1,379.9,405.6,379.3,405.2,378.6"/>
						<path id="XMLID_116_" class="st0" d="M255.2,360.3c-8.2,5.7-5.8,16.3,1.6,21.5c4.4,3.1,10.1,4.8,15.3,5.6
							c4.9,0.8,9.9,0.4,14.4-1.7c1.4-0.7,2.7-1.5,4-2.5c1.5,1.3,3.3,2.3,5.2,2.9c0.3,0.1,0.6,0.2,0.9,0.2c-2,6,0.3,13.3,6.7,15.8
							c10.8,4.2,20-5.3,29.6-8.3c4.9-1.6,13.1-0.6,13.1,6.1c0,3-2.4,4.7-5.2,4c-1-0.3-2-0.8-2.6-1.7c-0.4-0.6-1.5-2.5,0.5-2.6
							c0.7,0,1.3,0.7,1.9,0.8c-1-0.3-2.2,1.5-1,1.9c1.2,0.4,2.5-0.4,2.8-1.7c0.3-1.4-0.8-2.5-2.1-2.9c-3.1-1-5.8,2-4.4,4.9
							c1.2,2.6,4.4,3.7,7,3.1c2.9-0.6,5-3,5.2-6c0.3-3.3-1.7-6.3-4.7-7.7c-3.3-1.6-7.1-1.3-10.5-0.2c-8.4,2.7-15.6,10.1-25,9.1
							c-4.3-0.4-8-2.9-9.4-7c-0.8-2.3-0.8-5,0-7.4c2.9,0.3,6.3-0.3,7.4-3.1c0.5-1.3,0.3-3.3-1.1-4c-1.5-0.7-3.2,0.3-4.3,1.2
							c-1.2,1-2.2,2.3-2.9,3.6c-0.8-0.2-1.6-0.5-2.3-0.9c-1-0.5-2-1.2-2.9-2c1.3-1.4,2.4-3,3-4.9c1.2-3.4-0.1-9.5-5-8.2
							c-4.3,1.1-4.7,6.2-3.2,9.7c0.6,1.4,1.4,2.7,2.4,3.8c-2,1.6-4.4,2.7-6.8,3.3c-4.7,1.1-9.6,0.4-14.2-0.9
							c-4.2-1.2-8.7-2.9-12-5.9c-3-2.8-5-6.9-4.3-11.1c0.8-4.4,5.5-8.1,10-7.5c4.6,0.6,7.1,5.9,4.2,9.7c-1.5,2-4.2,2.9-6.4,1.5
							c-1-0.6-1.7-1.5-1.7-2.7c-0.1-2.3,2.6-3.1,3.6-1.1c0.3,0.6,1.3-0.1,1.1-0.6c-1.5-4.1-6.7-1.1-6.5,2.4c0.2,4.7,6.1,5.3,9.3,3.1
							c3.8-2.6,5.2-8,1.9-11.6C264.3,357.1,258.9,357.8,255.2,360.3 M300.5,384.8c-0.4,0-0.8,0-1.2,0c0.5-0.9,1.1-1.7,1.8-2.4
							c0.5-0.5,1.9-1.4,2.6-0.6c0.6,0.6,0.3,1.3-0.1,1.9C303,384.7,301.7,384.8,300.5,384.8 M293.4,372.4c1,2,0.1,4.5-1,6.3
							c-0.4,0.7-0.9,1.3-1.4,1.8c-1.4-1.6-2.4-3.5-2.7-5.5c-0.3-1.6-0.1-3.6,1.6-4.3C291.3,370,292.7,371,293.4,372.4"/>
					</g>
				</g>
			</g>
		</g>
	</g>
	<g id="XMLID_43_">
		<path id="XMLID_108_" class="st0" d="M312.8,188.6c-0.4-0.3-1.2-0.6-2.3-0.6c-2,0-2.7,1.2-2.7,2.2c0,1.4,0.8,2.1,2.6,2.8
			c2.1,0.9,3.2,1.9,3.2,3.8c0,2-1.4,3.5-4.1,3.5c-1.1,0-2.4-0.4-3-0.8l0.4-0.9c0.7,0.5,1.7,0.8,2.8,0.8c1.9,0,3-1,3-2.5
			c0-1.4-0.7-2.3-2.5-3c-2-0.7-3.3-1.8-3.3-3.6c0-1.9,1.6-3.3,3.8-3.3c1.2,0,2.1,0.3,2.5,0.6L312.8,188.6z"/>
		<path id="XMLID_106_" class="st0" d="M316.1,187.3h1.1v12.9h-1.1V187.3z"/>
		<path id="XMLID_100_" class="st0" d="M329.1,200.2h-1l-4.6-7.3c-0.9-1.5-1.8-2.8-2.4-4.2l-0.1,0c0.1,1.6,0.1,3,0.1,5.2v6.3h-1
			v-12.9h1l4.7,7.4c1,1.6,1.8,2.8,2.4,4.1l0,0c-0.1-1.8-0.2-3.2-0.2-5.3v-6.2h1V200.2z"/>
		<path id="XMLID_98_" class="st0" d="M340.7,199.8c-0.6,0.3-1.8,0.6-3.4,0.6c-3.1,0-6-2-6-6.6c0-4,2.5-6.7,6.4-6.7
			c1.7,0,2.6,0.4,2.9,0.5l-0.3,0.9c-0.6-0.3-1.5-0.6-2.6-0.6c-3.2,0-5.3,2.2-5.3,5.8c0,3.5,1.9,5.7,5.2,5.7c1.1,0,2.1-0.2,2.8-0.6
			L340.7,199.8z"/>
		<path id="XMLID_92_" class="st0" d="M349.5,200.2h-6.7v-12.9h6.4v0.9h-5.3v4.8h5v0.9h-5v5.5h5.6V200.2z"/>
		<path id="XMLID_53_" class="st0" d="M362.5,200.2h-7.4v-0.6l1.2-1.2c3.3-3.3,4.8-5.2,4.8-7.3c0-1.4-0.6-2.8-2.6-2.8
			c-1,0-2,0.6-2.6,1.1l-0.4-0.7c0.8-0.7,1.9-1.3,3.2-1.3c2.5,0,3.5,1.9,3.5,3.5c0,2.5-1.7,4.5-4.7,7.5l-1,1v0h6V200.2z"/>
		<path id="XMLID_50_" class="st0" d="M364.2,193.9c0-4.7,1.8-6.6,4-6.6s3.8,2.1,3.8,6.4c0,4.5-1.6,6.7-4,6.7
			C365.9,200.4,364.2,198.4,364.2,193.9z M371,193.8c0-3.3-0.8-5.6-2.8-5.6c-1.6,0-2.9,2.1-2.9,5.6c0,3.5,1.1,5.7,2.8,5.7
			C370.2,199.6,371,197,371,193.8z"/>
		<path id="XMLID_48_" class="st0" d="M377.2,200.2v-11.7h0l-2,1.2l-0.3-0.8l2.4-1.4h0.9v12.7H377.2z"/>
		<path id="XMLID_45_" class="st0" d="M383.8,193.7c0.6-0.9,1.7-1.7,3.2-1.7c2.2,0,3.6,1.7,3.6,4.1c0,2.3-1.3,4.4-3.8,4.4
			c-2.3,0-4.1-1.9-4.1-5.3c0-3.1,1.4-6.9,5.6-7.6c0.5-0.1,0.9-0.2,1.2-0.2l0,0.9C385.9,188.2,384.1,191,383.8,193.7L383.8,193.7z
			 M389.5,196.1c0-2.1-1.2-3.3-2.8-3.3c-1.7,0-2.9,1.7-2.9,2.5c0,2.5,1.1,4.2,3,4.2C388.5,199.6,389.5,198.1,389.5,196.1z"/>
	</g>
</g>
</svg>
