<?xml version="1.0" encoding="utf-8"?>
<!-- Generator: Adobe Illustrator 16.0.0, SVG Export Plug-In . SVG Version: 6.00 Build 0)  -->
<!DOCTYPE svg PUBLIC "-//W3C//DTD SVG 1.1//EN" "http://www.w3.org/Graphics/SVG/1.1/DTD/svg11.dtd">
<svg version="1.1" id="Layer_1" xmlns="http://www.w3.org/2000/svg" xmlns:xlink="http://www.w3.org/1999/xlink" x="0px" y="0px"
	 width="400px" height="10px" viewBox="0 0 400 10" enable-background="new 0 0 400 10" xml:space="preserve">
<g id="XMLID_12_">
	<g>
		<g>
			<g>
				<g>
					<path fill="#CEBCA6" d="M291.886,3.934c0.029-0.03,0.051-0.068,0.062-0.12C291.894,3.862,291.878,3.901,291.886,3.934z"/>
					<path fill="#CEBCA6" d="M265.567,3.16l0.307-0.059C265.673,3.111,265.597,3.131,265.567,3.16z"/>
					<path fill="#CEBCA6" d="M307.656,4.261c-0.021,0.01-0.021,0.018-0.037,0.028c0.243,0.005,0.573,0.011,1.109,0.021
						L307.656,4.261z"/>
					<path fill="#CEBCA6" d="M209.424,2.29l0.353-0.003C209.618,2.284,209.515,2.271,209.424,2.29z"/>
					<path fill="#CEBCA6" d="M242.695,2.871c-0.104,0.05-0.277,0.068-0.446,0.084C242.463,2.964,242.635,2.954,242.695,2.871z"/>
					<path fill="#CEBCA6" d="M315.988,6.857l-0.448-0.176C315.548,6.757,315.706,6.836,315.988,6.857z"/>
					<path fill="#CEBCA6" d="M331.986,6.148c-0.013-0.013-0.017-0.023-0.042-0.039C331.92,6.125,331.946,6.138,331.986,6.148z"/>
					<path fill="#CEBCA6" d="M325.734,5.445c-0.134,0.016-0.291,0.046-0.448,0.077C325.477,5.516,325.719,5.516,325.734,5.445z"/>
					<path fill="#CEBCA6" d="M325.072,5.565c0.069-0.014,0.142-0.029,0.214-0.043C325.167,5.527,325.069,5.535,325.072,5.565z"/>
					<path fill="#CEBCA6" d="M5.508,3.153C5.047,3.145,4.654,3.278,4.24,3.388L5.508,3.153z"/>
					<path fill="#CEBCA6" d="M158.591,2.187l0.101-0.072C158.597,2.139,158.581,2.164,158.591,2.187z"/>
					<path fill="#CEBCA6" d="M4.935,4.675L4.609,4.639C4.728,4.667,4.834,4.677,4.935,4.675z"/>
					<path fill="#CEBCA6" d="M307.516,7.324c-0.463,0.17-1.409-0.034-1.402,0.133C306.603,7.43,307.297,7.559,307.516,7.324z"/>
					<path fill="#CEBCA6" d="M147.847,8.663l-0.306,0.009C147.687,8.674,147.779,8.67,147.847,8.663z"/>
					<path fill="#CEBCA6" d="M4.935,4.675l0.377,0.042C5.279,4.684,5.237,4.658,5.199,4.63C5.115,4.655,5.026,4.671,4.935,4.675z"/>
					<path fill="#CEBCA6" d="M105.658,2.114c0.007,0,0.01,0,0.018,0c0.038-0.011,0.066-0.019,0.106-0.031L105.658,2.114z"/>
					<path fill="#CEBCA6" d="M102.852,1.835c0.196-0.019,0.387-0.036,0.598-0.056C103.133,1.762,102.967,1.791,102.852,1.835z"/>
					<path fill="#CEBCA6" d="M4.24,3.388L3.516,3.522C3.777,3.503,4.012,3.449,4.24,3.388z"/>
					<path fill="#CEBCA6" d="M72.584,2.087c0.097-0.008,0.19-0.015,0.277-0.022C72.742,2.063,72.652,2.07,72.584,2.087z"/>
					<path fill="#CEBCA6" d="M244.83,2.972c0.068,0.017,0.163,0.025,0.244,0.038C245.102,2.97,245.085,2.941,244.83,2.972z"/>
					<polygon fill="#CEBCA6" points="223.917,7.538 223.909,7.538 223.909,7.541 					"/>
					<path fill="#CEBCA6" d="M225.032,7.325c-0.35-0.039-0.849,0.085-1.115,0.213C224.269,7.538,224.598,7.502,225.032,7.325z"/>
					<path fill="#CEBCA6" d="M221.52,7.45c0.044,0.007,0.079,0.013,0.131,0.021C221.603,7.459,221.563,7.451,221.52,7.45z"/>
					<path fill="#CEBCA6" d="M243.986,7.791c0-0.006,0.004-0.013,0-0.019c-0.006,0.007-0.01,0.01-0.013,0.016L243.986,7.791z"/>
					<path fill="#CEBCA6" d="M239.537,7.819c-0.079-0.034-0.188-0.06-0.307-0.077C239.306,7.776,239.407,7.805,239.537,7.819z"/>
					<path fill="#CEBCA6" d="M210.442,7.935c0.005-0.002,0.005-0.006,0.005-0.008c-0.011,0.001-0.013,0.001-0.023,0.002
						C210.432,7.932,210.437,7.933,210.442,7.935z"/>
					<path fill="#CEBCA6" d="M168.507,9.201c4.209-0.101,9.663-0.448,13.836-0.348c0.908-0.354,2.232-0.366,3.562-0.445l0.141,0.47
						l1.109-0.15c0.451,0.142-0.853,0.088-0.055,0.266l0.419-0.292c0.087,0.168,2.849,0.111,0.988,0.448l4.311,0.002
						c0.953,0.015,0.557-0.392,1.61-0.275c0.214,0.137-0.379,0.094-0.293,0.263c3.164,0.349,3.655-0.91,6.605-0.696l-0.25,0.062
						c0.502-0.125,1.458-0.108,1.469-0.176c-0.379-0.474-0.529,0.257-1.43-0.023c0.079-0.398,1.123-0.214,1.064-0.518
						c0.69,0.145,1.097-0.082,1.698-0.105c1.025,0.25,2.499,0.072,3.272,0.385c0.502-0.126,1.064-0.518,2.145-0.533
						c0.774,0.312-0.183,0.298,0.872,0.414l0.169-0.231c0.864,0.036,0.729,0.101,0.697,0.21c0.925,0.01,0.769-0.317,1.928-0.169
						l-0.646,0.225c0.857-0.088,1.207-0.048,2.4-0.028c-0.026,0.133-0.505,0.124-0.855,0.086c0.647,0.342,1.109-0.148,1.46-0.111
						c-0.1-0.101-0.927-0.146-0.522-0.374c0.592,0.042,1.262-0.313,1.685-0.04l-0.647,0.223c1.237-0.18,0.661-0.289,2.079-0.199
						c-0.076,0.018-0.039,0.075-0.071,0.123c0.898-0.296,2.071-0.027,3.396-0.005l-0.251,0.062c0.535-0.078,0.829-0.284,1.118-0.268
						c-0.757-0.134-0.55-0.201-0.618-0.424c0.999,0.382,1.526-0.441,3.158-0.216c-0.026,0.132-0.42,0.293-0.869,0.152
						c-0.558,0.392-0.627,0.724-1.621,0.907c0.618-0.091,1.347-0.146,1.192,0.02l0.193-0.364c0.375-0.01,0.671,0.013,0.954,0.013
						c0.16-0.23-0.758-0.377,0.111-0.528c0.979-0.118,0.52,0.374,0.673,0.21c1.347-0.146,0.558-0.391,1.854-0.271
						c-0.13,0.03-0.382,0.093-0.494,0.059c0.93,0.147,2.284-0.065,2.557,0.374c-0.138,0.098-0.163,0.229-0.517,0.191l0.015-0.066
						c-1.022,0.318,0.854-0.086,0.533,0.309c-0.07-0.235,1.236-0.182,1.825-0.138l-0.188-0.27c1.962-0.802-0.105,0.531,1.833,0.429
						c1.231-0.181-0.465-0.075,0.29-0.264c0.832,0.047,1.142,0.286,2.358,0.171c0.339,0.106,1.03,0.249,1.089,0.55
						c0.738-0.121,2.245,0.136,2.665-0.157c-1.263-0.253-1.26,0.314-2.736-0.077l0.414-0.292c1.022,0.016,2.333-0.132,3.038-0.025
						c-0.143-0.058-0.206-0.133-0.116-0.195c1.457-0.109,1.877-0.404,3.294-0.314c0.187,0.27-0.643,0.223-1.247,0.246
						c0.914,0.215,0.955,0.016,2.373,0.104c0.075,0.234-0.955-0.015-1.118,0.215l1.57-0.073c-0.006,0.014,0,0.03,0,0.048
						c0.228-0.393,1.197,0.034,2.158-0.082c2.274,0.003,2.622-0.524,3.882-0.838c0.339,0.105,0.438,0.206,0.296,0.305
						c-0.559-0.175-0.459-0.038-0.654,0.064c0.769-0.04,1.681,0.386,1.252,0.544c1.22-0.113-0.439-0.207,0.307-0.328l1.67,0.025
						c-0.197-0.201-0.785-0.245,0.08-0.398c0.729-0.055,1.081-0.015,2.034-0.001c-0.138,0.099,0.301,0.306-0.415,0.293
						c0.461,0.075,1.181,0.085,1.458-0.109c-1.043-0.184,1.712-0.173,0.934-0.484l1.042,0.183c-0.237-0.004-0.264,0.129-0.614,0.09
						c0.295,0.305,0.853-0.086,1.217-0.115c0.367,0.06,1.321,0.087,1.399,0.204c0.33-0.084,1.136-0.018,1.287,0.139
						c0.49-0.06,0.039-0.199,0.182-0.298l1.668,0.026c0.089,0.17,0.228,0.638-0.023,0.701c0.632-0.156,0.226-0.497,1.179-0.481
						c-0.547,0.325,1.261,0.252,0.468,0.641c0.546,0.241,2.104,0.231,2.962,0.146c0.532-0.259-0.928-0.146-0.873-0.413
						c2.411-0.095,2.56-0.827,4.329-0.698l-0.46-0.075c1.104-0.149,0.98-0.116,1.624-0.341c-0.306,0.328,1.254,0.887,3.067,0.816
						c0.153-0.165-1.015-0.315-0.72-0.578l1.205-0.048c0.088,0.025-0.045,0.081-0.2,0.123c1.08-0.116,2.009,0.43,2.321,0.044
						l1.096,0.482l-0.434-0.206c0.15-0.163,1.36-0.212,1.611-0.274c1.236-0.182,1.686-0.04,2.361,0.17
						c-0.214-0.136-0.75-0.445,0.222-0.496c-0.01,0.535,2.04,0.199,2.011,0.477c0.394-0.007,1.09,0.16,1.136-0.062l-0.066,0.333
						c0.092-0.465,1.523-0.443,2.619-0.525c-0.248,0.631,1.205-0.048,1.69,0.526c0.207-0.429,1.946-0.168,2.141-0.533
						c0.844-0.02,0.76,0.379,0.974,0.516l0.394-0.16c0.426,0.201,2.011,0.232,2.952,0.37l0.877-0.377l0.325,0.172
						c0.141-0.097,0.869-0.152,0.418-0.293l0.473,0.022c0.039-0.413,0.665-0.113,1.616-0.289c0.219,0.066,0.161,0.165-0.045,0.221
						c0.473,0.004,0.27,0.216,0.528,0.354c-0.335-0.105,1.704-0.739,0.428-0.926c-0.088-0.169,0.657-0.291,1.122-0.218l0.283,0.371
						l0.558-0.391c0.729-0.054,1.04,0.184,1.629,0.226c-0.602,0.023-1.342,0.713,0.217,0.704c-0.818,0.048-1.222,0.255-1.646,0.332
						c0.322,0.015,0.483,0.051-0.019,0.208c1.218-0.114,0.406-0.228,1.611-0.274c-0.066,0.332,0.271,0.438,1.323,0.553l-0.788-0.244
						c0.037-0.04,0.091-0.069,0.151-0.089c-0.299-0.036-0.383-0.089-0.446-0.216c0.237,0.004,1.397-0.411,1.598-0.209
						c-1.212-0.518,2.116-0.399,1.342-0.712c0.138-0.097,0.979-0.115,1.066,0.051c-1.008,0.25,0.759,0.378,0.595,0.609
						c0.375-0.095-0.792-0.246-0.285-0.371c0.601-0.022,1.041,0.183,1.376,0.287l-0.251,0.062l0.928,0.149
						c0.152-0.166-0.898-0.282-0.043-0.368c0.225,0.07,1.081-0.016,1.054,0.117c-0.406,0.228-0.11,0.531-0.84,0.587
						c0.604-0.023,2.528-0.062,1.751-0.372l0.722,0.011c-0.453-0.141-1.72-0.393-0.272-0.438l-0.013,0.066l1.006-0.252l0.438,0.173
						c-0.014-0.085,0.146-0.162,0.518-0.156c0.098,0.1,0.449,0.14,0.421,0.272c1.082-0.016,0.994-0.185,1.135-0.281
						c0.604-0.023,0.832,0.047,0.549,0.242c0.829,0.044,2.274,0.002,2.84,0.178c1.109-0.149-0.229-0.07,0.42-0.295
						c0.958,0.581,3.663,0.225,5.472,0.153c-0.49-0.507,0.494-0.058,0.826-0.519c-0.39,0.159,1.717,0.393,0.133,0.534l0.967-0.052
						c0.66,0.278-1.598,0.208-0.6,0.591c1.083-0.017,1.793-0.572,3.069-0.385c-0.428,0.359,0.982-0.118,0.664,0.276
						c-0.266,0.13-0.619,0.09-0.98,0.118l0.224,0.07c2.374,0.104,0.687-0.423,1.932-0.669c1.446-0.046,1.14,0.283,1.225,0.452
						c0.225,0.07,0.953,0.015,1.334-0.079c-0.883,0.219-1.632-0.227-1.226-0.452c0.637,0.409,2.146,0.033,2.541-0.128
						c-2.065-0.433-1.432-0.021-3.373-0.486c-0.267,0.13-0.222,0.497-1.387,0.345c0.731-0.181-0.05-0.204-0.256-0.264
						c0.224,0.212-0.809,0.088-1.163,0.175c-0.324-0.171,0.698-0.487-0.482-0.573l-0.222,0.497
						c-0.462-0.075,0.195-0.364-0.787-0.246c0.53-0.259-0.159-0.402,1.171-0.481c-1.586-0.425-2.437,0.228-3.67,0.408
						c0.127-0.031,0.141-0.097,0.265-0.13c-0.265,0.13-0.742,0.123-1.106,0.152c-0.814-0.113,0.644-0.224,0.433-0.361l-1.318,0.012
						c-0.026-0.016-0.033-0.025-0.033-0.036c-0.347,0.068-0.677,0.113-0.798-0.011c0.392-0.16,0.546-0.325,0.811-0.454l-1.386,0.345
						c0.152-0.163-1.142-0.284-0.156-0.402l-2.05,0.068l-0.172-0.335c-0.491,0.059-0.505,0.125,0.082,0.167
						c-0.7-0.077-3.106,0.585-2.736-0.075c-1.608,0.274-2.189,0.165-4.136,0.333c1.498-0.308-1.717-0.392-0.13-0.534
						c-0.929-0.147-1.122,0.216-1.854,0.271c-0.687-0.144-0.381-0.472,0.362-0.595l-0.873,0.153l0.017-0.066l-0.758,0.188
						c-0.802-0.179-0.169-0.336-0.998-0.382l-0.181,0.296l-0.562-0.174c0.212,0.136-0.279,0.195-0.882,0.219l0.014-0.066
						l-0.732,0.057c0.724-0.181-0.668-0.065-0.335-0.277c-0.626-0.015-0.64-0.011-1.77,0.043l0.198,0.203
						c-1.474,0.176-0.061-0.301-1.255-0.319l0.074,0.233c-1.717-0.393-2.916,0.221-4.184-0.032c0.728-0.054,0.544-0.325,0.529-0.258
						c-1.095,0.084-2.877,0.021-4.01,0.303c-0.413-0.339-0.511-0.441-1.675-0.593c-0.846,0.02-0.97,0.052-1.247,0.248
						c-0.818-0.131-2.355,0.063-2.396-0.183c-0.19,0.195-0.736-0.04-1.188,0.125l-0.096-0.101l0.071,0.233
						c-1.453-0.523-2.454,0.293-3.92-0.161l0.253-0.063l-0.617,0.091c-0.098-0.102,0.153-0.165,0.183-0.298l-2.866-0.045
						l0.563,0.176c-0.604,0.023-1.01,0.25-1.699,0.106c1.146-0.349-0.953-0.014-1.138-0.284l0.615-0.092
						c-0.84,0.021-0.84,0.021-0.771,0.256c-1.091,0.081-0.747-0.446-1.753-0.195l0.716,0.011c0.211,0.137-0.304,0.328-0.782,0.321
						c-0.113-0.036-0.452-0.14-0.087-0.168c-0.858,0.088-2.147-0.033-2.525,0.061c-0.465-0.073-0.312-0.239-0.061-0.301
						c-1.836,0.205-0.829-0.046-2.669,0.158l0.03-0.133l-0.631,0.158l-0.901-0.282l0.323,0.172c-0.603,0.023-0.979,0.117-1.684,0.04
						l0.284-0.195c-1.702,0.107-1.969-0.331-3.586-0.056c-0.11-0.036,0.142-0.099,0.271-0.129c-1.5,0.309-1.132-0.351-2.642,0.025
						c0.093-0.066-0.071-0.148-0.013-0.204l-0.687,0.127l0.053-0.265l-0.56,0.391l-0.423-0.274l-0.267,0.127
						c-0.731-0.51-1.771-0.126-2.771-0.509l0.172,0.336c-2.532,0.693-5.786-0.392-8.842-0.072l0.055-0.265l-1.262,0.312
						c-0.677-0.21,0.407-0.226,0.195-0.363c-1.35,0.146-0.562,0.392-2.132,0.467c-0.803-0.179,0.28-0.195,0.658-0.29
						c-1.47,0.13-3.641,0.276-4.684,0.127c-0.022,0.036-0.087,0.083-0.033,0.098c-0.981,0.12-2.274-0.001-3.355,0.016
						c0.026-0.122,0.294-0.142,0.563-0.167c-0.389-0.016-0.919-0.101-1.252,0.023l0.407-0.229c-0.829-0.046-2.428,0.162-2.612-0.108
						c0.1,0.104,0.058,0.303-0.658,0.29c-0.396-0.406-1.952,0.169-3.101-0.048c0.138-0.097,0.98-0.117,0.742-0.122
						c-0.576-0.108-1.094,0.082-1.601,0.208l0.156-0.164l-2.682,0.225c-0.396-0.406-2.527,0.059-2.344-0.237
						c-0.957-0.015,0.803,0.179-0.407,0.226c-0.322-0.17-1.094,0.082-1.043-0.183l0.129-0.031l-0.845,0.02l0.532-0.259
						c-0.729,0.056-1.262,0.315-1.299,0.514c-0.689-0.146-1.669-0.027-1.983-0.264l0.256-0.063
						c-1.938,0.102-3.209-0.718-4.732-0.274c-0.114-0.037-0.101-0.103,0.138-0.1l-1.197-0.017l0.285-0.196l-1.979,0.302l0.025-0.133
						c-1.308-0.054-3.354,0.014-5.037,0.054l0.252-0.063c-1.836,0.205-1.772-0.127-3.117,0.019c0.048-0.035,0.093-0.048,0.142-0.056
						l-1.209,0.005l0.268-0.129c-0.896,0.286-2.56-0.373-2.007-0.131c-0.508,0.125-1.38,0.278-1.529,0.441
						c-1.318,0.014-0.322-0.171-1.139-0.284c-0.954-0.014-1.122,0.215-2.414,0.095l0.026-0.133c-0.604,0.023-0.98,0.119-1.822,0.138
						l0.25-0.062c-1.374,0.278-1.713-0.393-2.791,0.188c-0.577-0.108-1.67-0.025-1.617-0.292c-1.711,0.173-3.042,0.252-4.74,0.359
						c-0.272-0.437-0.365,0.028-1.395-0.222l0.076,0.233c-2.403,0.031-5.16-0.548-7.81-0.454l-0.074-0.234l-0.531,0.257
						c-2.852-0.111-6.542-0.203-8.816-0.207c-0.745,0.123-1.875,0.404-3.059,0.32l0.124-0.033c-2.06,0.135-4.236,0.233-6.483,0.099
						c0.139-0.099-0.083-0.168,0.168-0.231c-0.534,0.259-1.318,0.013-1.8,0.006l0.564,0.176c-0.639,0.223-1.556,0.008-1.88-0.164
						l-1.012,0.251c-0.066-0.023-0.169-0.059-0.183-0.097l-0.179,0.124l-0.537-0.309c-0.25,0.063-1.587,0.142-2.004,0.437
						c-0.098-0.102-1.041-0.183-0.312-0.239l-3.689-0.092l0.575,0.11c0.072,0.233-1.037,0.382-1.61,0.274
						c0.752-0.188,0.062-0.332-0.259-0.504c-0.501,0.126,0.436,0.207,0.171,0.335c-0.631,0.157-1.965,0.237-2.299,0.131l0.377-0.094
						c-0.856,0.086-1.251-0.32-2.095-0.301c-0.758,0.188-1.318,0.015-1.162,0.417c-1.096,0.083-0.422-0.273-0.777-0.312
						c-0.515,0.192-2.046,0.068-2.242-0.137c-0.6,0.591-2.95-0.212-3.174,0.284l-0.898-0.28c-0.029,0.133-0.207,0.431-0.938,0.485
						c-0.687-0.144-0.523-0.375-0.732-0.512l-0.462,0.494c-3.959-0.529-9.183-0.178-13.522-0.614
						c-1.936,0.104-4.377,0.332-6.638,0.263l0.251-0.063l-2.248-0.135l1.632,0.227c-0.491,0.057-0.873,0.152-1.349,0.145
						c-2.465-0.206-5.756-0.456-8.796-0.206c-1.967,0.569-1.307-0.503-3.19-0.09c0.161-0.052,0.221-0.133,0.366-0.188
						c-2.03,0.188-3.131,0.286-5.164,0.619c0.234-0.562-1.322,0.013-1.14-0.284l-0.169,0.23c-0.452-0.14-1.516-0.19-1.362-0.354
						l-0.896,0.285l-0.077-0.234c-1.188-0.018-3.741,0.174-4.365-0.302c-2.944,0.354-7.59,0.248-11.282,0.156
						c-0.519,0.192-1.599,0.208-2.44,0.228l-0.9-0.28c-0.857,0.086-1.768,0.438-2.566,0.259c0.006-0.033,0.039-0.056,0.093-0.072
						c-0.871,0.057-1.699-0.092-2.512,0.167c-0.954-0.014-1.883-0.163-1.589-0.423c-0.093,0.465-2.021-0.066-2.021-0.066
						S17.463,0.631,5.508,3.153C5.105,3.38,3.993,3.53,4.418,3.803C3.561,3.889,3.167,3.483,3,3.713
						c1.167,0.152-0.361,0.594,0.78,0.879L3.048,4.648C2.897,4.812,4.044,4.462,3.864,4.759L4.07,4.33
						c0.593,0.065,0.919,0.155,1.128,0.3c0.558-0.167,0.913-0.749,2.244-0.495L7.075,4.161c1.083-0.016,0.664,0.277,0.89,0.347
						L7.727,4.504L8.639,4.72C7.947,4.576,6.804,4.924,7.404,4.899c1.293,0.12-0.335-0.104,0.634-0.157
						C8.639,4.72,8.471,4.95,8.444,5.083l1.082-0.016C9.487,5.266,8.81,5.055,9.248,5.261l1.361-0.211
						c0.254,0.504,1.483-0.242,2.105,0.233c-0.98,0.119,0.087,0.169-0.067,0.333l2.4-0.028c0.228,0.07-0.63,0.155-0.266,0.13
						c0.451,0.139,0.741-0.123,0.985-0.119c0.208,0.138,1.791-0.005,1.727,0.328c1.628,0.224,0.683-0.423,2.202-0.233
						c0.2,0.204-1.206,0.049-0.532,0.258l1.573-0.075c-0.142,0.099-0.306,0.329-0.896,0.286c4.256,0.268,6.551,1.336,10.439,1.064
						c0.548,0.241-0.393,0.161-0.783,0.321c2.816-0.321,3.962,0.529,6.361,0.501l0.042-0.199c3.343,0.619,7.37,0.249,11.148,0.508
						l-0.451-0.141c0.519-0.191,1.36-0.212,1.979-0.301c0.097,0.1-0.448,0.425,0.648,0.343c-0.226-0.071-0.69-0.146-0.551-0.243
						c3.247,0.519,10.098,0.392,15.432,0.643c7.214-0.152,15.039,0.237,22.124,0.115c-1.08,0.017-0.621-0.476,0.194-0.362
						c2.225,0.834,3.86-0.14,6.135,0.429c4.127-0.268,7.812,0.456,11.652-0.183l0.074,0.234c0.573,0.108,0.729-0.056,1.331-0.078
						l-0.015,0.065c1.423,0.089,3.145-0.15,3.961-0.038l0.052-0.265c0.846-0.022,0.438,0.205,1.305,0.054l-0.025,0.133l1.01-0.251
						c-0.098,0.465,2.385,0.037,3.061,0.247c1.094-0.083,3.169-0.283,4.828-0.189c0.309,0.238,2.343,0.236,3.639,0.356
						c2.525-0.059,6.133-0.136,9.347-0.052l-0.058-0.302l0.839-0.02c-0.012,0.066,0.101,0.101-0.025,0.133
						c0.649,0.343,1.936-0.104,2.61,0.107c-0.424-0.272-0.587-0.043-1.066-0.05c-0.688-0.144-0.03-0.435,0.899-0.285l-0.019,0.066
						l0.634-0.158c0.071,0.235,0.647,0.345,0.721,0.578c2.763-0.056,4.643-0.46,7.493-0.349c-0.293,0.262,2.049-0.066,1.476,0.389
						c1.712-0.171-0.282-0.368,0.5-0.69c0.478,0.008,0.98-0.118,1.066,0.051c-0.225,0.109,0.389,0.277,0,0.319l1.144-0.036
						c0.109,0.036-0.143,0.099-0.269,0.129c2.329-0.264,4.131,0.299,6.22,0.033c0.156-0.165-0.829-0.047-0.677-0.212
						c2.103-0.334,1.858,0.296,3.819,0.06l-0.406,0.228c0.634-0.157,0.911-0.352,1.952-0.169c0.182,0.27-0.884,0.219-1.386,0.344
						c0.715,0.012,2.525-0.059,1.974-0.301c0.858-0.088,1.169,0.151,1.631,0.224c0.016-0.065-0.8-0.179-0.298-0.303
						c1.167,0.151,2.969,0.146,4.395,0.169c-0.013,0.066,0.087,0.167-0.037,0.199C167.053,8.679,166.933,9.276,168.507,9.201z"/>
					<path fill="#CEBCA6" d="M244.562,7.832l-0.576-0.041c0,0.06-0.026,0.127-0.292,0.192L244.562,7.832z"/>
					<path fill="#CEBCA6" d="M217.256,7.661c-0.071,0.021-0.143,0.041-0.206,0.072C217.189,7.722,217.235,7.692,217.256,7.661z"/>
					<path fill="#CEBCA6" d="M210.623,8.132c0.474-0.058,0.052-0.129-0.181-0.197C210.432,7.987,210.442,8.053,210.623,8.132z"/>
					<path fill="#CEBCA6" d="M260.031,7.124c-0.101,0.026-0.161,0.062-0.145,0.117C260.021,7.193,260.05,7.157,260.031,7.124z"/>
					<path fill="#CEBCA6" d="M302.784,7.319c-0.054-0.013-0.103-0.024-0.17-0.04C302.646,7.299,302.706,7.312,302.784,7.319z"/>
					<path fill="#CEBCA6" d="M300.417,6.9c-0.116-0.002-0.268,0.007-0.483,0.038C300.145,6.952,300.296,6.932,300.417,6.9z"/>
					<path fill="#CEBCA6" d="M249.668,7.222c-0.158,0.009-0.314,0.029-0.449,0.085C249.464,7.301,249.586,7.263,249.668,7.222z"/>
					<path fill="#CEBCA6" d="M299.442,6.997l-0.597-0.028c-0.003,0.018-0.011,0.03-0.011,0.052L299.442,6.997z"/>
					<path fill="#CEBCA6" d="M303.536,7.353c-0.233-0.009-0.549-0.009-0.752-0.033C303.082,7.393,303.316,7.395,303.536,7.353z"/>
					<path fill="#CEBCA6" d="M275.726,6.783c-0.02,0.002-0.04,0.004-0.063,0.006C275.196,6.904,275.487,6.855,275.726,6.783z"/>
					<path fill="#CEBCA6" d="M296.833,7.455c-0.024-0.003-0.053-0.007-0.08-0.011l-0.174,0.073L296.833,7.455z"/>
					<path fill="#CEBCA6" d="M306.113,7.457c-0.112,0.006-0.216,0.018-0.298,0.049c0.093,0.008,0.2,0.018,0.338,0.03
						C306.121,7.502,306.113,7.479,306.113,7.457z"/>
					<path fill="#CEBCA6" d="M284.676,7.196c0.169-0.099,0.232-0.167,0.238-0.217C284.716,6.982,284.589,7.028,284.676,7.196z"/>
				</g>
			</g>
		</g>
	</g>
</g>
</svg>
