<?xml version="1.0" encoding="utf-8"?>
<!-- Generator: Adobe Illustrator 16.0.0, SVG Export Plug-In . SVG Version: 6.00 Build 0)  -->
<!DOCTYPE svg PUBLIC "-//W3C//DTD SVG 1.1//EN" "http://www.w3.org/Graphics/SVG/1.1/DTD/svg11.dtd">
<svg version="1.1" id="Layer_1" xmlns="http://www.w3.org/2000/svg" xmlns:xlink="http://www.w3.org/1999/xlink" x="0px" y="0px"
	 width="110px" height="40px" viewBox="0 0 110 40" enable-background="new 0 0 110 40" xml:space="preserve">
<g id="加入會員標題">
	<g enable-background="new    ">
		<path d="M14.059,14.404l-2.521,1.421c-0.556,0.941-1.113,1.83-1.672,2.667s-1.055,1.528-1.488,2.075
			c-0.433,0.546-0.807,0.963-1.123,1.25c-0.316,0.288-0.55,0.433-0.701,0.433c-0.202,0-0.366-0.068-0.493-0.205
			c-0.127-0.136-0.189-0.295-0.189-0.479c0-0.682,0.384-1.536,1.151-2.562c0.768-1.025,1.982-2.117,3.643-3.272
			c0.72-1.383,1.314-2.64,1.781-3.771c0.467-1.131,0.824-2.098,1.071-2.899c0.246-0.802,0.418-1.446,0.516-1.933
			s0.147-0.796,0.147-0.929c0-0.271-0.104-0.407-0.312-0.407c-0.171,0-0.422,0.098-0.753,0.294c-0.332,0.195-0.69,0.487-1.075,0.876
			c-0.386,0.389-0.746,0.839-1.08,1.351c-0.335,0.505-0.64,1.071-0.915,1.7c-0.275,0.629-0.486,1.208-0.635,1.738
			c-0.148,0.531-0.223,0.957-0.223,1.279c0,0.082,0.013,0.262,0.038,0.54c0.057-0.088,0.126-0.195,0.208-0.322
			c0.082-0.126,0.186-0.256,0.312-0.389c0.126-0.132,0.259-0.243,0.398-0.331c0.082-0.063,0.18-0.115,0.293-0.156
			c0.114-0.041,0.171-0.036,0.171,0.014c0,0.038-0.18,0.276-0.54,0.716c-0.36,0.438-0.673,0.835-0.938,1.188
			c-0.152,0.202-0.354,0.392-0.606,0.568c-0.253,0.178-0.458,0.266-0.616,0.266c-0.189,0-0.314-0.088-0.375-0.266
			c-0.06-0.177-0.09-0.457-0.09-0.843c0-0.929,0.159-1.961,0.479-3.099c0.319-1.137,0.747-2.135,1.284-2.993
			c0.436-0.683,0.97-1.3,1.601-1.853c0.632-0.553,1.246-0.983,1.843-1.293c0.597-0.31,1.066-0.465,1.407-0.465
			c0.417,0,0.739,0.132,0.966,0.394c0.227,0.262,0.341,0.624,0.341,1.085c0,0.228-0.027,0.483-0.081,0.768
			c-0.054,0.285-0.122,0.571-0.204,0.862c-0.082,0.29-0.224,0.758-0.426,1.401c-0.202,0.645-0.335,1.071-0.398,1.279
			c-0.196,0.65-0.453,1.318-0.772,2.004c-0.319,0.686-0.772,1.594-1.36,2.724l1.933-1.042v0.617H14.059z"/>
		<path d="M20.17,13.713v0.635c-0.417,0.379-0.752,0.631-1.004,0.758c-0.252,0.126-0.616,0.177-1.089,0.151
			c-0.821,0.973-1.544,1.459-2.17,1.459c-0.354,0-0.676-0.117-0.966-0.352s-0.522-0.553-0.696-0.957
			c-0.174-0.404-0.261-0.855-0.261-1.354c0-0.404,0.134-0.853,0.403-1.346c0.269-0.492,0.616-0.952,1.042-1.378
			c0.427-0.427,0.883-0.771,1.369-1.033c0.486-0.262,0.938-0.394,1.355-0.394c0.297,0,0.531,0.046,0.701,0.138
			c0.17,0.092,0.256,0.22,0.256,0.384c0,0.126-0.073,0.271-0.218,0.436c0.24,0.051,0.404,0.135,0.493,0.251
			c0.088,0.117,0.133,0.33,0.133,0.64c0,0.304-0.071,0.686-0.213,1.146c-0.143,0.461-0.336,0.894-0.583,1.298l0.17,0.171h0.143
			c0.107,0,0.213-0.026,0.317-0.081c0.104-0.053,0.197-0.11,0.279-0.17C19.712,14.054,19.892,13.921,20.17,13.713z M18.219,11.22
			c-0.524,0.315-0.973,0.602-1.345,0.857c-0.373,0.256-0.689,0.515-0.948,0.777c-0.259,0.262-0.433,0.525-0.521,0.791
			c-0.158,0.707-0.237,1.089-0.237,1.146c0,0.416,0.291,0.625,0.872,0.625c0.271,0,0.726-0.232,1.364-0.701
			c-0.107-0.297-0.161-0.581-0.161-0.853c0-0.398,0.082-0.804,0.247-1.218C17.653,12.233,17.896,11.757,18.219,11.22z"/>
		<path d="M24.68,13.731v0.691c-0.612,0.79-1.184,1.385-1.715,1.787c-0.53,0.4-0.982,0.602-1.354,0.602
			c-0.518,0-0.903-0.271-1.156-0.814c-0.252-0.544-0.379-1.138-0.379-1.781c0-0.247,0.025-0.481,0.076-0.706
			c0.051-0.225,0.111-0.409,0.18-0.555c0.069-0.145,0.199-0.372,0.389-0.682c0.896-1.396,1.718-2.094,2.463-2.094
			c0.385,0,0.578,0.148,0.578,0.445c0,0.202-0.125,0.518-0.374,0.947c-0.249,0.429-0.472,0.735-0.668,0.919
			c-0.55,0.53-0.908,0.9-1.075,1.108c-0.167,0.209-0.251,0.445-0.251,0.711c0,0.228,0.085,0.417,0.256,0.568
			c0.171,0.151,0.392,0.228,0.663,0.228c0.297,0,0.624-0.109,0.981-0.327C23.649,14.561,24.112,14.212,24.68,13.731z M24.036,9.497
			c-0.158,0-0.308-0.06-0.45-0.18c-0.142-0.12-0.213-0.271-0.213-0.455c0-0.277,0.132-0.587,0.398-0.929
			c0.265-0.341,0.54-0.511,0.824-0.511c0.189,0,0.347,0.058,0.474,0.175c0.127,0.117,0.189,0.286,0.189,0.507
			c0,0.271-0.129,0.572-0.389,0.9C24.611,9.333,24.333,9.497,24.036,9.497z"/>
		<path d="M30.98,12.017c-1.111,1.238-1.667,2.101-1.667,2.586c0,0.272,0.111,0.408,0.332,0.408c0.183,0,0.421-0.097,0.715-0.289
			c0.293-0.192,0.753-0.535,1.378-1.028v0.654c-0.897,0.884-1.585,1.521-2.065,1.913c-0.48,0.393-0.872,0.589-1.175,0.589
			c-0.518,0-0.777-0.341-0.777-1.023c0-0.202,0.031-0.401,0.095-0.597c0.063-0.196,0.15-0.399,0.26-0.611s0.28-0.515,0.507-0.909
			c0.228-0.395,0.49-0.842,0.787-1.341c-0.36,0.184-0.812,0.546-1.355,1.09c-0.354,0.341-0.654,0.664-0.9,0.971
			c-0.247,0.307-0.51,0.647-0.791,1.023c-0.281,0.376-0.487,0.628-0.616,0.758c-0.129,0.131-0.26,0.194-0.393,0.194
			c-0.202,0-0.388-0.212-0.559-0.635c-0.17-0.423-0.256-0.916-0.256-1.479c0-0.347,0.04-0.618,0.119-0.814
			c0.079-0.195,0.235-0.474,0.469-0.834c0.436-0.669,0.812-1.16,1.127-1.473c0.316-0.313,0.619-0.47,0.91-0.47
			c0.202,0,0.365,0.035,0.488,0.104c0.123,0.069,0.185,0.177,0.185,0.322c0,0.063-0.019,0.13-0.057,0.199
			c-0.038,0.069-0.08,0.133-0.127,0.189c-0.048,0.057-0.147,0.167-0.299,0.331c-0.998,1.105-1.497,1.822-1.497,2.151
			c0,0.183,0.06,0.274,0.18,0.274c0.076,0,0.223-0.122,0.44-0.365c0.218-0.242,0.499-0.562,0.843-0.956
			c0.344-0.396,0.752-0.808,1.222-1.237c0.471-0.429,1.006-0.843,1.606-1.24c0.335-0.234,0.613-0.351,0.834-0.351
			c0.101,0,0.2,0.139,0.298,0.416c0.098,0.278,0.147,0.56,0.147,0.844C31.388,11.521,31.252,11.732,30.98,12.017z"/>
		<path d="M48.604,9.25c-0.619,0.909-1.141,1.733-1.563,2.473c-0.422,0.74-0.741,1.369-0.952,1.891
			c-0.212,0.521-0.316,0.908-0.316,1.16c0,0.468,0.205,0.701,0.615,0.701c0.437,0,1.42-0.594,2.955-1.781l-0.019,0.654
			c-1.774,1.812-3.076,2.719-3.903,2.719c-0.984,0-1.479-0.513-1.479-1.535c0-0.612,0.301-1.48,0.9-2.605
			c0.6-1.124,1.516-2.577,2.748-4.358c-1.447,1.579-2.654,2.878-3.625,3.895c-0.97,1.017-1.973,2.002-3.009,2.956
			c-0.246,0.233-0.471,0.447-0.672,0.641c-0.203,0.191-0.403,0.344-0.606,0.454c-0.201,0.11-0.424,0.165-0.662,0.165
			c-0.373,0-0.684-0.146-0.931-0.436c-0.245-0.291-0.368-0.701-0.368-1.231c0-0.342,0.102-0.737,0.303-1.189
			c0.203-0.451,0.51-0.978,0.92-1.577c0.41-0.601,0.916-1.257,1.516-1.971c0.973-1.169,1.646-1.993,2.018-2.473
			c0.373-0.48,0.561-0.787,0.561-0.919c0-0.095-0.051-0.143-0.15-0.143c-0.121,0-0.32,0.056-0.603,0.166
			c-0.282,0.11-0.652,0.29-1.113,0.54c-0.461,0.249-1.055,0.604-1.78,1.065c-0.543,0.342-1.078,0.618-1.605,0.829
			c-0.528,0.212-0.899,0.317-1.114,0.317c-0.126,0-0.232-0.034-0.317-0.104c-0.085-0.069-0.128-0.157-0.128-0.265
			c0-0.151,0.066-0.399,0.199-0.744c0.133-0.344,0.305-0.701,0.517-1.07c0.211-0.369,0.399-0.646,0.563-0.829
			c0.455-0.505,1.077-0.95,1.866-1.336c0.79-0.385,1.602-0.682,2.436-0.891c0.834-0.208,1.521-0.312,2.064-0.312
			c0.404,0,0.7,0.067,0.887,0.203c0.187,0.137,0.279,0.359,0.279,0.668c0,0.677-0.086,1.199-0.256,1.568s-0.455,0.848-0.854,1.436
			c-0.146,0.228-0.361,0.538-0.648,0.934c-0.287,0.395-0.578,0.779-0.871,1.155c-0.294,0.376-0.535,0.69-0.725,0.943
			c-0.189,0.252-0.387,0.53-0.588,0.833c-0.55,0.809-0.896,1.33-1.043,1.563c-0.146,0.233-0.218,0.436-0.218,0.606
			c0,0.221,0.104,0.332,0.312,0.332c0.189,0,0.373-0.068,0.55-0.204c0.178-0.136,0.557-0.456,1.138-0.962
			c0.669-0.574,1.319-1.178,1.952-1.81c0.631-0.632,1.205-1.233,1.724-1.805c0.52-0.572,1.176-1.312,1.971-2.222
			c0.892-1.036,1.459-1.684,1.707-1.942c0.246-0.259,0.447-0.389,0.604-0.389c0.14,0,0.265,0.112,0.375,0.337
			c0.108,0.224,0.166,0.538,0.166,0.942c0,0.215-0.108,0.501-0.328,0.857C49.783,7.508,49.316,8.208,48.604,9.25z"/>
		<path d="M49.219,13.998V13.77c1.629-1.718,2.75-2.922,3.363-3.61c0.139-0.776,0.475-1.165,1.004-1.165
			c0.133,0,0.275,0.038,0.428,0.113l0.057,0.181c-0.023,0.075-0.038,0.183-0.038,0.322c0,0.12,0.047,0.343,0.138,0.668
			c0.092,0.325,0.163,0.599,0.215,0.819c0.049,0.221,0.074,0.471,0.074,0.748c0,0.417-0.095,0.816-0.283,1.199
			c-0.189,0.382-0.466,0.748-0.824,1.099c-0.36,0.351-0.824,0.709-1.394,1.075c0.228,0.038,0.407,0.057,0.539,0.057
			c0.261,0,0.539-0.064,0.841-0.194c0.299-0.129,0.604-0.303,0.918-0.521c0.312-0.218,0.678-0.501,1.094-0.848v0.635
			c-0.809,0.789-1.531,1.388-2.168,1.795c-0.64,0.406-1.188,0.611-1.649,0.611c-0.595,0-1.144-0.254-1.647-0.759
			c-0.297-0.304-0.481-0.594-0.555-0.872C49.256,14.846,49.219,14.47,49.219,13.998z M52.752,12.547l-0.17-1.383
			c-0.392,0.442-1.229,1.292-2.511,2.549c0.379,0.082,0.638,0.192,0.776,0.331c0.14,0.139,0.336,0.407,0.588,0.806
			c0.43-0.177,0.76-0.419,0.99-0.725c0.229-0.307,0.346-0.726,0.346-1.256c0-0.062-0.002-0.12-0.006-0.171
			C52.764,12.648,52.76,12.597,52.752,12.547z"/>
	</g>
	<g enable-background="new    ">
		<path d="M37.95,34.571c1.172-3.446,1.767-6.793,1.767-9.969H37.51v-1.443h2.207v-1.834h1.443v1.816h3.432
			c0.391,0.085,0.576,0.137,0.576,0.833L45.1,30.547c-0.084,3.209-0.575,5.18-1.442,5.842c-0.254,0.221-0.662,0.322-1.205,0.322
			c-0.578,0-1.325-0.119-2.208-0.34l-0.119-1.748c1.172,0.355,1.801,0.44,2.123,0.44c0.271,0,0.441-0.052,0.544-0.17
			c0.203-0.204,0.373-0.629,0.562-1.257c0.152-0.662,0.236-1.768,0.254-3.312c0.033-1.697,0.051-3.006,0.051-3.924
			c0-1.035-0.018-1.596-0.066-1.682c-0.035-0.084-0.104-0.118-0.188-0.118h-2.26c-0.033,1.12-0.17,2.733-0.392,4.755
			c-0.475,3.229-1.153,5.604-1.969,7.133l-1.512-0.306L37.95,34.571z M47.936,35.981v0.764h-1.443V22.463
			c-0.018-0.152,0.068-0.237,0.221-0.237h5.555c0.203,0,0.306,0.103,0.306,0.306v14.215h-1.442v-0.764L47.936,35.981L47.936,35.981z
			 M47.936,34.539h3.192V23.873c0-0.137-0.067-0.203-0.221-0.203h-2.785c-0.151,0-0.203,0.084-0.187,0.203V34.539L47.936,34.539z"/>
		<path d="M54.436,35.777c2.225-2.189,5.18-5.18,6.844-12.245h-4.688V22.09h6.012c0.289,0,0.443,0.152,0.477,0.459
			c1.24,7.029,3.566,9.832,6.946,13.313l-1.239,0.851l-1.58-1.768c-2.412-2.785-4.059-6.113-4.908-9.952
			c-1.223,4.263-3.465,8.152-6.656,11.616L54.436,35.777z"/>
		<path d="M86.529,25.23c-1.258-0.254-2.752-0.662-4.449-1.223v0.884h-5.773v-0.9c-1.291,0.425-2.787,0.832-4.519,1.188
			l-0.493-1.375c3.754-0.493,6.352-1.394,7.711-2.649l1.205,0.509l-0.117,0.119c2.156,1.087,4.482,1.783,6.963,2.072L86.529,25.23z
			 M85.663,29.748c0,0.119-0.067,0.188-0.187,0.188h-12.67c-0.119,0-0.188-0.068-0.188-0.188v-3.99c0-0.118,0.066-0.17,0.188-0.17
			h12.67c0.119,0,0.187,0.052,0.187,0.17V29.748z M75.082,36.185v0.612h-1.375v-5.793c-0.018-0.136,0.051-0.221,0.221-0.221h10.563
			c0.187,0,0.288,0.085,0.288,0.271v5.74h-1.375v-0.611L75.082,36.185L75.082,36.185z M76.356,26.912
			c0.323,0.477,0.646,1.07,0.935,1.783h1.223v-1.868h-4.535c-0.051,0-0.067,0.019-0.051,0.052v1.75l0.051,0.066h1.853l-0.646-1.154
			L76.356,26.912z M75.082,32.907h8.322v-0.765c0-0.118-0.068-0.188-0.203-0.188H75.27c-0.137,0-0.203,0.068-0.188,0.188
			L75.082,32.907L75.082,32.907z M83.404,34.079h-8.322v0.917h8.322V34.079z M81.23,23.651l-2.105-1.036
			c-0.374,0.238-1.02,0.611-1.953,1.036H81.23z M83.285,27.676l-0.628,1.02h1.63l0.068-0.066v-1.75l-0.068-0.052h-4.449v1.868h1.154
			c0.527-0.679,0.936-1.273,1.172-1.749L83.285,27.676z"/>
		<path d="M88.426,35.573c1.717-0.17,3.482-0.543,5.316-1.053l0.271,1.409c-1.92,0.477-3.72,0.85-5.418,1.07L88.426,35.573z
			 M102.777,34.215c0,0.136-0.068,0.203-0.204,0.203H89.785c-0.119,0-0.188-0.067-0.188-0.203v-8c0-0.136,0.067-0.203,0.188-0.203
			h12.788c0.136,0,0.204,0.067,0.204,0.203V34.215z M102.25,25.027c0,0.137-0.066,0.203-0.203,0.203H90.039
			c-0.117,0-0.186-0.066-0.186-0.203v-3.176c0-0.119,0.066-0.188,0.186-0.188h12.008c0.137,0,0.203,0.067,0.203,0.188V25.027z
			 M91.041,28.459h10.293v-1.07c0-0.051-0.018-0.067-0.068-0.067H91.094c-0.053,0-0.067,0.017-0.053,0.067V28.459z M101.334,31.957
			H91.041v1.069c-0.016,0.051,0,0.067,0.053,0.085h10.172l0.068-0.085V31.957z M91.041,30.784h10.293v-1.138H91.041V30.784z
			 M100.807,22.973c0-0.053-0.018-0.068-0.067-0.068h-9.392c-0.051,0-0.068,0.018-0.051,0.068v0.934
			c-0.019,0.051,0,0.068,0.051,0.085h9.392l0.067-0.085V22.973z M103.609,37c-1.768-0.51-3.482-0.849-5.146-1.002l0.323-1.408
			c2.259,0.321,3.991,0.695,5.214,1.053L103.609,37z"/>
	</g>
</g>
</svg>
