<?xml version="1.0" encoding="utf-8"?>
<!-- Generator: Adobe Illustrator 16.0.0, SVG Export Plug-In . SVG Version: 6.00 Build 0)  -->
<!DOCTYPE svg PUBLIC "-//W3C//DTD SVG 1.1//EN" "http://www.w3.org/Graphics/SVG/1.1/DTD/svg11.dtd">
<svg version="1.1" id="Layer_1" xmlns="http://www.w3.org/2000/svg" xmlns:xlink="http://www.w3.org/1999/xlink" x="0px" y="0px"
	 width="110px" height="40px" viewBox="0 0 110 40" enable-background="new 0 0 110 40" xml:space="preserve">
<g>
	<g enable-background="new    ">
		<path d="M36.405,19.661c-0.16-0.295-0.4-0.56-0.72-0.797c-0.32-0.236-0.68-0.427-1.079-0.57c-0.4-0.145-0.817-0.251-1.252-0.322
			c-1.292-0.191-2.498-0.61-3.617-1.257c-0.096-0.051-0.198-0.159-0.307-0.326c-0.109-0.166-0.164-0.326-0.164-0.479
			c0-0.562,0.095-1.127,0.283-1.693s0.43-1.009,0.725-1.329c0.473-0.53,1.325-0.994,2.557-1.391s2.618-0.595,4.159-0.595
			c0.921,0,1.633,0.07,2.135,0.211c0.502,0.141,0.753,0.358,0.753,0.652c0,0.479-0.065,0.851-0.197,1.112
			c-0.131,0.263-0.272,0.437-0.422,0.523c-0.15,0.086-0.415,0.203-0.792,0.351c-0.403,0.141-0.753,0.287-1.051,0.44
			c-0.297,0.154-0.552,0.301-0.763,0.441c-0.211,0.142-0.342,0.212-0.394,0.212c-0.064,0-0.096-0.026-0.096-0.077
			c0-0.108,0.113-0.273,0.34-0.494s0.507-0.414,0.84-0.58c0.352-0.186,0.527-0.304,0.527-0.355c0-0.083-0.195-0.125-0.585-0.125
			c-1.184,0-2.277,0.105-3.282,0.317c-1.004,0.211-1.795,0.489-2.375,0.834c-0.579,0.346-0.868,0.697-0.868,1.056
			c0,0.224,0.12,0.382,0.36,0.475c0.24,0.093,0.769,0.248,1.588,0.466c0.818,0.218,1.551,0.467,2.197,0.748
			c0.928,0.396,1.615,0.81,2.063,1.238s0.672,0.908,0.672,1.438c0,0.365-0.088,0.731-0.264,1.099
			c-0.176,0.368-0.433,0.705-0.772,1.013c-0.339,0.307-0.729,0.56-1.17,0.758c-0.377,0.16-0.853,0.311-1.425,0.451
			s-1.193,0.251-1.861,0.331s-1.307,0.12-1.914,0.12c-1.119,0-2.02-0.106-2.701-0.317s-1.022-0.53-1.022-0.959
			c0-0.192,0.115-0.491,0.345-0.897c0.23-0.406,0.502-0.68,0.816-0.82c0.275-0.108,0.54-0.171,0.796-0.187
			c0.255-0.017,0.384,0.014,0.384,0.091c0,0.02-0.01,0.038-0.029,0.058c-0.02,0.02-0.042,0.035-0.067,0.048
			s-0.051,0.025-0.077,0.038c-0.128,0.052-0.232,0.092-0.312,0.12c-0.08,0.029-0.144,0.058-0.192,0.087
			c-0.048,0.028-0.072,0.068-0.072,0.119c0,0.135,0.662,0.202,1.986,0.202c1.151,0,2.095-0.042,2.831-0.125
			c0.735-0.083,1.385-0.233,1.948-0.451C35.432,20.346,35.944,20.045,36.405,19.661z"/>
		<path d="M43.754,19.411v0.7c-0.621,0.8-1.199,1.403-1.737,1.809c-0.537,0.406-0.995,0.609-1.372,0.609
			c-0.524,0-0.915-0.274-1.17-0.825c-0.256-0.55-0.384-1.151-0.384-1.804c0-0.249,0.025-0.487,0.077-0.715
			c0.051-0.227,0.112-0.414,0.183-0.561c0.07-0.147,0.201-0.378,0.393-0.691c0.908-1.413,1.74-2.12,2.495-2.12
			c0.39,0,0.585,0.15,0.585,0.451c0,0.204-0.126,0.524-0.379,0.959c-0.253,0.436-0.479,0.745-0.677,0.931
			c-0.556,0.537-0.919,0.911-1.089,1.123c-0.169,0.211-0.254,0.45-0.254,0.719c0,0.23,0.086,0.423,0.259,0.576
			s0.396,0.23,0.672,0.23c0.3,0,0.631-0.11,0.993-0.331S43.179,19.897,43.754,19.411z M43.102,15.122
			c-0.16,0-0.312-0.061-0.456-0.182c-0.144-0.122-0.216-0.275-0.216-0.461c0-0.281,0.134-0.595,0.403-0.94
			c0.269-0.345,0.547-0.518,0.834-0.518c0.192,0,0.352,0.059,0.48,0.178c0.127,0.118,0.192,0.289,0.192,0.513
			c0,0.275-0.131,0.579-0.394,0.912C43.684,14.956,43.402,15.122,43.102,15.122z"/>
		<path d="M51.295,20.054l-3.186,2.62c-0.896,1.548-1.711,2.704-2.446,3.468c-0.736,0.765-1.283,1.146-1.641,1.146
			c-0.192,0-0.288-0.118-0.288-0.354c0-0.461,0.233-1.049,0.7-1.766c0.186-0.281,0.398-0.557,0.638-0.825s0.467-0.5,0.681-0.695
			s0.498-0.438,0.849-0.729s0.592-0.49,0.72-0.6c0.64-1.305,1.1-2.303,1.381-2.993c-0.601,0.64-1.125,1.164-1.573,1.573
			s-0.859,0.725-1.233,0.945s-0.712,0.331-1.012,0.331c-0.326,0-0.627-0.261-0.902-0.782c-0.275-0.521-0.413-1.057-0.413-1.607
			c0-0.256,0.059-0.524,0.177-0.806c0.119-0.281,0.304-0.582,0.557-0.901c0.252-0.32,0.574-0.648,0.964-0.984
			c0.39-0.335,0.848-0.663,1.372-0.983c0.991-0.62,1.762-0.931,2.312-0.931c0.41,0,0.614,0.15,0.614,0.451
			c0,0.416-0.445,0.822-1.333,1.219c-0.544,0.236-1.083,0.55-1.617,0.94c-0.534,0.39-0.966,0.805-1.295,1.242
			c-0.33,0.438-0.494,0.833-0.494,1.185c0,0.173,0.042,0.311,0.125,0.413c0.083,0.103,0.192,0.153,0.327,0.153
			c0.224,0,0.479-0.103,0.768-0.307c0.288-0.205,0.713-0.566,1.276-1.084c0.256-0.237,0.596-0.619,1.022-1.147
			c0.425-0.527,0.777-0.931,1.055-1.208c0.278-0.278,0.529-0.418,0.753-0.418c0.127,0,0.231,0.04,0.312,0.12s0.12,0.196,0.12,0.351
			c0,0.294-0.117,0.721-0.35,1.28c-0.234,0.56-0.654,1.477-1.262,2.749l2.322-1.688V20.054z"/>
		<path d="M57.695,17.675c-1.126,1.254-1.689,2.127-1.689,2.619c0,0.275,0.112,0.413,0.336,0.413c0.186,0,0.428-0.098,0.725-0.293
			s0.763-0.542,1.396-1.041v0.662c-0.908,0.896-1.605,1.541-2.092,1.938c-0.486,0.397-0.883,0.596-1.19,0.596
			c-0.524,0-0.787-0.346-0.787-1.037c0-0.204,0.032-0.405,0.096-0.604c0.064-0.197,0.152-0.404,0.264-0.618
			c0.112-0.215,0.283-0.521,0.513-0.921c0.23-0.4,0.496-0.853,0.797-1.358c-0.365,0.186-0.823,0.554-1.373,1.104
			c-0.358,0.346-0.662,0.674-0.912,0.983c-0.25,0.311-0.517,0.656-0.801,1.036c-0.285,0.381-0.492,0.637-0.624,0.768
			c-0.131,0.132-0.264,0.197-0.398,0.197c-0.205,0-0.394-0.215-0.566-0.643c-0.172-0.429-0.259-0.928-0.259-1.497
			c0-0.352,0.04-0.627,0.12-0.825c0.08-0.198,0.238-0.479,0.475-0.845c0.441-0.678,0.822-1.175,1.142-1.491
			c0.32-0.317,0.627-0.476,0.921-0.476c0.205,0,0.369,0.035,0.494,0.105c0.125,0.07,0.187,0.18,0.187,0.326
			c0,0.064-0.019,0.132-0.058,0.202s-0.082,0.134-0.129,0.191s-0.149,0.17-0.302,0.336c-1.011,1.119-1.516,1.846-1.516,2.178
			c0,0.186,0.061,0.278,0.183,0.278c0.077,0,0.225-0.123,0.446-0.369s0.505-0.569,0.854-0.969c0.349-0.4,0.761-0.817,1.238-1.253
			c0.476-0.435,1.019-0.854,1.626-1.257c0.339-0.236,0.62-0.354,0.844-0.354c0.103,0,0.203,0.141,0.303,0.422
			s0.148,0.566,0.148,0.854C58.107,17.173,57.97,17.387,57.695,17.675z"/>
		<path d="M67.271,22.712l-0.595-0.432c-0.09-0.077-0.135-0.157-0.135-0.24s0.15-0.371,0.451-0.863
			c0.217-0.352,0.51-0.835,0.878-1.449c0.368-0.613,0.663-1.119,0.888-1.516c0.224-0.396,0.497-0.916,0.82-1.559
			c0.322-0.644,0.619-1.271,0.887-1.886c0.621-1.414,0.932-2.315,0.932-2.706c0-0.46-0.18-0.69-0.537-0.69
			c-0.27,0-0.651,0.136-1.146,0.408c-0.496,0.271-1.01,0.628-1.541,1.069c-0.53,0.441-0.972,0.902-1.323,1.382
			c-0.353,0.479-0.528,0.901-0.528,1.267c0,0.058,0.016,0.101,0.049,0.129c0.031,0.029,0.089,0.043,0.172,0.043
			c0.154,0,0.403-0.089,0.748-0.269c0.154-0.076,0.23-0.063,0.23,0.039s-0.242,0.366-0.729,0.791
			c-0.486,0.426-0.845,0.639-1.074,0.639c-0.199,0-0.476-0.172-0.83-0.514c-0.355-0.342-0.533-0.654-0.533-0.936
			c0-0.108,0.1-0.368,0.298-0.777s0.47-0.871,0.815-1.386c0.346-0.516,0.71-0.961,1.094-1.339c0.441-0.441,0.945-0.835,1.512-1.18
			c0.565-0.346,1.109-0.614,1.631-0.807c0.521-0.191,0.941-0.288,1.262-0.288c0.46,0,0.82,0.175,1.079,0.523
			s0.389,0.836,0.389,1.463c0,0.832-0.326,2.034-0.979,3.607c-0.652,1.574-1.656,3.416-3.012,5.526
			c0.02,0.064,0.041,0.133,0.066,0.207c0.025,0.073,0.039,0.143,0.039,0.206c0,0.013-0.01,0.037-0.029,0.072
			s-0.041,0.071-0.066,0.11c-0.025,0.038-0.042,0.063-0.049,0.076l-0.7,1.151c-0.077,0.135-0.157,0.202-0.239,0.202
			C67.386,22.789,67.322,22.763,67.271,22.712z"/>
		<path d="M78.016,17.675c-1.125,1.254-1.688,2.127-1.688,2.619c0,0.275,0.111,0.413,0.336,0.413c0.185,0,0.426-0.098,0.724-0.293
			s0.763-0.542,1.396-1.041v0.662c-0.908,0.896-1.605,1.541-2.091,1.938c-0.486,0.397-0.883,0.596-1.19,0.596
			c-0.523,0-0.786-0.346-0.786-1.037c0-0.204,0.032-0.405,0.096-0.604c0.063-0.197,0.151-0.404,0.265-0.618
			c0.111-0.215,0.282-0.521,0.513-0.921c0.23-0.4,0.495-0.853,0.796-1.358c-0.364,0.186-0.822,0.554-1.371,1.104
			c-0.359,0.346-0.662,0.674-0.912,0.983c-0.25,0.311-0.517,0.656-0.801,1.036c-0.285,0.381-0.492,0.637-0.624,0.768
			c-0.131,0.132-0.264,0.197-0.397,0.197c-0.205,0-0.395-0.215-0.566-0.643c-0.173-0.429-0.26-0.928-0.26-1.497
			c0-0.352,0.041-0.627,0.121-0.825c0.079-0.198,0.237-0.479,0.475-0.845c0.441-0.678,0.821-1.175,1.141-1.491
			c0.32-0.317,0.627-0.476,0.922-0.476c0.205,0,0.369,0.035,0.494,0.105s0.188,0.18,0.188,0.326c0,0.064-0.02,0.132-0.059,0.202
			c-0.038,0.07-0.081,0.134-0.129,0.191s-0.148,0.17-0.303,0.336c-1.01,1.119-1.516,1.846-1.516,2.178
			c0,0.186,0.061,0.278,0.183,0.278c0.077,0,0.226-0.123,0.446-0.369s0.505-0.569,0.854-0.969c0.349-0.4,0.762-0.817,1.238-1.253
			c0.477-0.435,1.018-0.854,1.626-1.257c0.339-0.236,0.62-0.354,0.845-0.354c0.102,0,0.202,0.141,0.302,0.422
			c0.099,0.281,0.148,0.566,0.148,0.854C78.429,17.173,78.291,17.387,78.016,17.675z"/>
	</g>
	<g enable-background="new    ">
		<path d="M80.027,31.06c-1.272-0.259-2.785-0.671-4.506-1.238v0.894h-5.847v-0.911c-1.307,0.43-2.819,0.843-4.574,1.204
			l-0.499-1.394c3.801-0.498,6.432-1.41,7.808-2.683l1.222,0.517l-0.121,0.12c2.184,1.101,4.54,1.806,7.051,2.098L80.027,31.06z
			 M79.15,35.634c0,0.12-0.068,0.188-0.189,0.188H66.133c-0.121,0-0.189-0.068-0.189-0.188v-4.042c0-0.12,0.068-0.172,0.189-0.172
			h12.828c0.121,0,0.189,0.052,0.189,0.172V35.634z M68.438,42.151v0.618h-1.394v-5.863c-0.017-0.138,0.052-0.224,0.224-0.224
			h10.696c0.188,0,0.292,0.086,0.292,0.275v5.812h-1.393v-0.618H68.438z M69.727,32.762c0.326,0.481,0.653,1.083,0.945,1.806h1.238
			v-1.892h-4.592c-0.051,0-0.068,0.017-0.051,0.052v1.771l0.051,0.069h1.875l-0.653-1.17L69.727,32.762z M68.438,38.832h8.426
			v-0.773c0-0.121-0.068-0.189-0.207-0.189h-8.03c-0.138,0-0.206,0.068-0.188,0.189V38.832z M76.863,40.019h-8.426v0.929h8.426
			V40.019z M74.662,29.46l-2.133-1.049c-0.378,0.24-1.031,0.619-1.977,1.049H74.662z M76.742,33.535l-0.636,1.032h1.651l0.068-0.069
			v-1.771l-0.068-0.052h-4.506v1.892h1.17c0.533-0.688,0.945-1.29,1.186-1.771L76.742,33.535z"/>
		<path d="M81.95,41.532c1.737-0.172,3.525-0.551,5.382-1.066l0.275,1.427c-1.943,0.481-3.766,0.86-5.485,1.084L81.95,41.532z
			 M96.481,40.156c0,0.138-0.069,0.206-0.206,0.206H83.326c-0.121,0-0.189-0.068-0.189-0.206v-8.1c0-0.138,0.068-0.206,0.189-0.206
			h12.949c0.137,0,0.206,0.068,0.206,0.206V40.156z M95.948,30.853c0,0.138-0.069,0.207-0.206,0.207H83.584
			c-0.121,0-0.189-0.069-0.189-0.207v-3.216c0-0.12,0.068-0.188,0.189-0.188h12.158c0.137,0,0.206,0.068,0.206,0.188V30.853z
			 M84.599,34.326H95.02v-1.083c0-0.052-0.018-0.069-0.068-0.069H84.65c-0.052,0-0.069,0.018-0.052,0.069V34.326z M95.02,37.869
			H84.599v1.083c-0.018,0.052,0,0.069,0.052,0.086h10.301l0.068-0.086V37.869z M84.599,36.683H95.02V35.53H84.599V36.683z
			 M94.486,28.771c0-0.051-0.018-0.068-0.068-0.068h-9.51c-0.052,0-0.068,0.018-0.052,0.068v0.946c-0.017,0.052,0,0.068,0.052,0.086
			h9.51l0.068-0.086V28.771z M97.324,42.977c-1.789-0.516-3.525-0.86-5.211-1.015l0.326-1.428c2.287,0.327,4.042,0.705,5.279,1.066
			L97.324,42.977z"/>
		<path d="M112.368,31.248c0.825,0.361,1.702,0.653,2.614,0.843l-0.705,1.29c-2.442-0.637-4.799-2.167-7-4.522
			c-2.631,2.373-5.124,3.92-7.428,4.591l-0.758-1.307c1.016-0.31,1.943-0.688,2.804-1.101l-1.857-1.238l0.825-1.118
			c0.671,0.413,1.462,0.98,2.339,1.651c0.757-0.447,1.497-0.997,2.219-1.6h-3.337v-1.341h5.349c0.155,0,0.275,0.103,0.396,0.292
			l1.204,1.272c0.825-0.843,1.462-1.513,1.806-1.943l0.98,0.963c-0.637,0.74-1.238,1.359-1.754,1.875l1.065,0.757
			c0.739-0.826,1.376-1.6,1.874-2.305l1.049,0.929L112.368,31.248z M103.649,41.188l-0.843-2.579h-1.428
			c-0.223,0-0.344-0.104-0.344-0.361v-3.955c0-0.24,0.121-0.361,0.344-0.361h11.299c0.24,0,0.361,0.121,0.361,0.361v3.955
			c0,0.258-0.121,0.361-0.361,0.361h-1.736l-0.844,2.579h4.059v1.324H99.764v-1.324H103.649z M111.646,35.324
			c0-0.052-0.018-0.069-0.069-0.069h-9.097c-0.052,0-0.069,0.018-0.052,0.069v1.874c-0.018,0.052,0,0.068,0.052,0.086h9.097
			l0.069-0.086V35.324z M103.925,31.575h6.328v1.324h-6.328V31.575z M105.111,41.188h3.525l0.842-2.579h-5.21L105.111,41.188z"/>
		<path d="M116.303,41.738c2.253-2.219,5.245-5.245,6.931-12.398h-4.747v-1.462h6.088c0.293,0,0.447,0.154,0.482,0.464
			c1.255,7.12,3.611,9.957,7.033,13.482l-1.256,0.859l-1.6-1.788c-2.441-2.82-4.109-6.19-4.969-10.077
			c-1.238,4.316-3.509,8.254-6.742,11.763L116.303,41.738z"/>
	</g>
</g>
</svg>
