<?xml version="1.0" encoding="utf-8"?>
<!-- Generator: Adobe Illustrator 16.0.0, SVG Export Plug-In . SVG Version: 6.00 Build 0)  -->
<!DOCTYPE svg PUBLIC "-//W3C//DTD SVG 1.1//EN" "http://www.w3.org/Graphics/SVG/1.1/DTD/svg11.dtd">
<svg version="1.1" id="Layer_1" xmlns="http://www.w3.org/2000/svg" xmlns:xlink="http://www.w3.org/1999/xlink" x="0px" y="0px"
	 width="110px" height="40px" viewBox="0 0 110 40" enable-background="new 0 0 110 40" xml:space="preserve">
<g>
	<g enable-background="new    ">
		<path d="M13.315,12.685c-0.16-0.295-0.4-0.56-0.72-0.797c-0.32-0.236-0.68-0.427-1.079-0.57c-0.4-0.145-0.817-0.251-1.252-0.322
			c-1.292-0.191-2.498-0.61-3.617-1.257C6.551,9.688,6.449,9.58,6.34,9.413C6.231,9.247,6.176,9.086,6.176,8.934
			c0-0.562,0.095-1.127,0.283-1.693c0.188-0.566,0.43-1.009,0.725-1.329c0.473-0.53,1.325-0.994,2.557-1.391
			s2.618-0.595,4.159-0.595c0.921,0,1.633,0.07,2.135,0.211c0.502,0.141,0.753,0.358,0.753,0.652c0,0.479-0.065,0.851-0.197,1.112
			c-0.131,0.263-0.272,0.437-0.422,0.523c-0.15,0.086-0.415,0.203-0.792,0.351c-0.403,0.141-0.753,0.287-1.051,0.44
			c-0.297,0.154-0.552,0.301-0.763,0.441c-0.211,0.142-0.342,0.212-0.394,0.212c-0.064,0-0.096-0.026-0.096-0.077
			c0-0.108,0.113-0.273,0.34-0.494s0.507-0.414,0.84-0.58c0.352-0.186,0.527-0.304,0.527-0.355c0-0.083-0.195-0.125-0.585-0.125
			c-1.184,0-2.277,0.105-3.282,0.317C9.909,6.765,9.118,7.042,8.538,7.388C7.959,7.733,7.67,8.084,7.67,8.443
			c0,0.224,0.12,0.382,0.36,0.475c0.24,0.093,0.769,0.248,1.588,0.466c0.818,0.218,1.551,0.467,2.197,0.748
			c0.928,0.396,1.615,0.81,2.063,1.238c0.448,0.428,0.672,0.908,0.672,1.438c0,0.365-0.088,0.73-0.264,1.099
			s-0.433,0.705-0.772,1.013s-0.729,0.561-1.17,0.759c-0.377,0.159-0.853,0.311-1.425,0.45c-0.572,0.141-1.193,0.252-1.861,0.332
			S7.751,16.58,7.144,16.58c-1.119,0-2.02-0.105-2.701-0.316c-0.681-0.211-1.022-0.53-1.022-0.959c0-0.192,0.115-0.491,0.345-0.897
			c0.23-0.405,0.502-0.68,0.816-0.819c0.275-0.108,0.54-0.171,0.796-0.188c0.255-0.017,0.384,0.014,0.384,0.091
			c0,0.02-0.01,0.038-0.029,0.058c-0.02,0.021-0.042,0.035-0.067,0.049c-0.025,0.013-0.051,0.025-0.077,0.037
			c-0.128,0.053-0.232,0.093-0.312,0.121c-0.08,0.028-0.144,0.058-0.192,0.086c-0.048,0.029-0.072,0.068-0.072,0.119
			c0,0.136,0.662,0.203,1.986,0.203c1.151,0,2.095-0.043,2.831-0.125c0.735-0.084,1.385-0.233,1.948-0.451
			C12.342,13.37,12.854,13.068,13.315,12.685z"/>
		<path d="M20.664,12.435v0.7c-0.621,0.8-1.199,1.403-1.737,1.809c-0.537,0.406-0.995,0.609-1.372,0.609
			c-0.524,0-0.915-0.274-1.17-0.825c-0.256-0.55-0.384-1.151-0.384-1.804c0-0.249,0.025-0.487,0.077-0.715
			c0.051-0.227,0.112-0.414,0.183-0.561c0.07-0.147,0.201-0.378,0.393-0.691c0.908-1.413,1.74-2.12,2.495-2.12
			c0.39,0,0.585,0.15,0.585,0.451c0,0.204-0.126,0.524-0.379,0.959c-0.253,0.436-0.479,0.745-0.677,0.931
			c-0.556,0.537-0.919,0.911-1.089,1.123c-0.169,0.211-0.254,0.45-0.254,0.719c0,0.23,0.086,0.423,0.259,0.576
			c0.173,0.152,0.396,0.229,0.672,0.229c0.3,0,0.631-0.11,0.993-0.331C19.621,13.273,20.089,12.92,20.664,12.435z M20.012,8.146
			c-0.16,0-0.312-0.061-0.456-0.182c-0.144-0.122-0.216-0.275-0.216-0.461c0-0.281,0.134-0.595,0.403-0.94
			c0.269-0.345,0.547-0.518,0.834-0.518c0.192,0,0.352,0.059,0.48,0.178c0.127,0.118,0.192,0.289,0.192,0.513
			c0,0.275-0.131,0.579-0.394,0.912C20.594,7.979,20.312,8.146,20.012,8.146z"/>
		<path d="M28.205,13.078l-3.186,2.62c-0.896,1.549-1.711,2.704-2.446,3.469c-0.736,0.765-1.283,1.146-1.641,1.146
			c-0.192,0-0.288-0.118-0.288-0.354c0-0.461,0.233-1.049,0.7-1.766c0.186-0.281,0.398-0.557,0.638-0.825
			c0.24-0.268,0.467-0.5,0.681-0.694c0.214-0.195,0.498-0.438,0.849-0.729s0.592-0.489,0.72-0.601c0.64-1.305,1.1-2.302,1.381-2.992
			c-0.601,0.64-1.125,1.164-1.573,1.572c-0.448,0.41-0.859,0.726-1.233,0.945c-0.374,0.221-0.712,0.331-1.012,0.331
			c-0.326,0-0.627-0.261-0.902-0.782c-0.275-0.521-0.413-1.057-0.413-1.606c0-0.256,0.059-0.524,0.177-0.806
			c0.119-0.281,0.304-0.582,0.557-0.901c0.252-0.32,0.574-0.648,0.964-0.984c0.39-0.335,0.848-0.663,1.372-0.983
			c0.991-0.62,1.762-0.931,2.312-0.931c0.41,0,0.614,0.15,0.614,0.451c0,0.416-0.445,0.822-1.333,1.219
			c-0.544,0.236-1.083,0.55-1.617,0.94c-0.534,0.39-0.966,0.805-1.295,1.242c-0.33,0.438-0.494,0.833-0.494,1.185
			c0,0.173,0.042,0.312,0.125,0.413c0.083,0.104,0.192,0.153,0.327,0.153c0.224,0,0.479-0.103,0.768-0.307
			c0.288-0.205,0.713-0.566,1.276-1.084c0.256-0.237,0.596-0.619,1.022-1.147c0.425-0.527,0.777-0.931,1.055-1.208
			c0.278-0.278,0.529-0.418,0.753-0.418c0.127,0,0.231,0.04,0.312,0.12c0.081,0.08,0.12,0.196,0.12,0.351
			c0,0.294-0.117,0.721-0.35,1.28c-0.234,0.56-0.654,1.477-1.262,2.749l2.322-1.688V13.078L28.205,13.078z"/>
		<path d="M34.605,10.698c-1.127,1.254-1.689,2.127-1.689,2.619c0,0.274,0.112,0.413,0.336,0.413c0.186,0,0.428-0.098,0.725-0.293
			s0.764-0.542,1.396-1.041v0.662c-0.908,0.896-1.605,1.541-2.092,1.938c-0.486,0.397-0.883,0.596-1.19,0.596
			c-0.524,0-0.787-0.346-0.787-1.036c0-0.204,0.032-0.405,0.096-0.604c0.064-0.197,0.152-0.404,0.264-0.618
			c0.112-0.215,0.283-0.521,0.513-0.921s0.497-0.853,0.797-1.358c-0.365,0.186-0.823,0.554-1.374,1.104
			c-0.358,0.346-0.662,0.674-0.912,0.983c-0.25,0.311-0.517,0.655-0.801,1.036c-0.285,0.381-0.492,0.637-0.624,0.768
			c-0.131,0.133-0.264,0.197-0.398,0.197c-0.205,0-0.394-0.215-0.566-0.643c-0.172-0.43-0.259-0.929-0.259-1.498
			c0-0.352,0.04-0.627,0.12-0.825c0.08-0.198,0.238-0.479,0.475-0.845c0.441-0.678,0.822-1.175,1.142-1.491
			c0.32-0.317,0.627-0.476,0.921-0.476c0.205,0,0.369,0.035,0.494,0.105c0.125,0.07,0.187,0.18,0.187,0.326
			c0,0.064-0.019,0.132-0.058,0.202s-0.082,0.134-0.129,0.191c-0.047,0.057-0.149,0.17-0.302,0.336
			c-1.011,1.119-1.516,1.846-1.516,2.178c0,0.186,0.061,0.278,0.183,0.278c0.077,0,0.225-0.123,0.446-0.369
			c0.221-0.246,0.505-0.569,0.854-0.969c0.349-0.4,0.761-0.817,1.238-1.253c0.476-0.435,1.019-0.854,1.626-1.257
			c0.338-0.236,0.619-0.354,0.844-0.354c0.103,0,0.203,0.141,0.303,0.422c0.1,0.281,0.148,0.566,0.148,0.854
			C35.018,10.196,34.881,10.411,34.605,10.698z"/>
		<path d="M44.182,15.735l-0.596-0.432c-0.09-0.077-0.135-0.157-0.135-0.24s0.15-0.371,0.451-0.863
			c0.217-0.352,0.51-0.835,0.878-1.449c0.368-0.613,0.663-1.119,0.888-1.516c0.225-0.396,0.497-0.916,0.82-1.559
			c0.322-0.644,0.619-1.271,0.887-1.886c0.621-1.414,0.932-2.315,0.932-2.706c0-0.46-0.18-0.69-0.537-0.69
			c-0.27,0-0.65,0.136-1.146,0.408c-0.496,0.271-1.01,0.628-1.541,1.069c-0.53,0.441-0.972,0.902-1.323,1.382
			c-0.353,0.479-0.527,0.901-0.527,1.267c0,0.058,0.016,0.101,0.049,0.129c0.031,0.029,0.089,0.043,0.172,0.043
			c0.154,0,0.402-0.089,0.748-0.269c0.154-0.076,0.23-0.063,0.23,0.039s-0.242,0.366-0.729,0.791
			c-0.485,0.426-0.845,0.639-1.074,0.639c-0.198,0-0.476-0.172-0.829-0.514c-0.355-0.342-0.533-0.654-0.533-0.936
			c0-0.108,0.1-0.368,0.297-0.777c0.199-0.409,0.471-0.871,0.815-1.386c0.347-0.516,0.71-0.961,1.095-1.339
			c0.44-0.441,0.944-0.835,1.512-1.18c0.564-0.346,1.109-0.614,1.631-0.807c0.521-0.191,0.941-0.288,1.262-0.288
			c0.46,0,0.82,0.175,1.079,0.523s0.39,0.836,0.39,1.463c0,0.832-0.326,2.034-0.979,3.607c-0.651,1.574-1.656,3.416-3.013,5.526
			c0.021,0.064,0.041,0.134,0.066,0.207s0.039,0.144,0.039,0.206c0,0.014-0.01,0.037-0.029,0.072
			c-0.019,0.035-0.041,0.07-0.065,0.109s-0.042,0.063-0.05,0.076l-0.699,1.151c-0.077,0.135-0.157,0.202-0.239,0.202
			C44.296,15.812,44.232,15.787,44.182,15.735z"/>
		<path d="M54.926,10.698c-1.125,1.254-1.688,2.127-1.688,2.619c0,0.274,0.111,0.413,0.336,0.413c0.186,0,0.426-0.098,0.725-0.293
			c0.297-0.195,0.762-0.542,1.396-1.041v0.662c-0.908,0.896-1.604,1.541-2.091,1.938c-0.486,0.397-0.883,0.596-1.19,0.596
			c-0.522,0-0.786-0.346-0.786-1.036c0-0.204,0.032-0.405,0.096-0.604c0.063-0.197,0.151-0.404,0.266-0.618
			c0.111-0.215,0.281-0.521,0.513-0.921c0.229-0.4,0.495-0.853,0.796-1.358c-0.363,0.186-0.822,0.554-1.371,1.104
			c-0.358,0.346-0.662,0.674-0.912,0.983c-0.25,0.311-0.517,0.655-0.801,1.036c-0.285,0.381-0.492,0.637-0.623,0.768
			c-0.132,0.133-0.265,0.197-0.397,0.197c-0.205,0-0.396-0.215-0.566-0.643c-0.173-0.43-0.26-0.929-0.26-1.498
			c0-0.352,0.041-0.627,0.121-0.825c0.079-0.198,0.237-0.479,0.475-0.845c0.441-0.678,0.821-1.175,1.142-1.491
			c0.32-0.317,0.627-0.476,0.922-0.476c0.205,0,0.369,0.035,0.494,0.105c0.125,0.07,0.188,0.18,0.188,0.326
			c0,0.064-0.02,0.132-0.059,0.202c-0.038,0.07-0.081,0.134-0.129,0.191c-0.049,0.057-0.148,0.17-0.303,0.336
			c-1.011,1.119-1.517,1.846-1.517,2.178c0,0.186,0.062,0.278,0.183,0.278c0.077,0,0.227-0.123,0.446-0.369s0.505-0.569,0.854-0.969
			c0.349-0.4,0.762-0.817,1.237-1.253c0.478-0.435,1.019-0.854,1.626-1.257c0.34-0.236,0.62-0.354,0.846-0.354
			c0.102,0,0.201,0.141,0.302,0.422c0.099,0.281,0.147,0.566,0.147,0.854C55.34,10.196,55.201,10.411,54.926,10.698z"/>
	</g>
	<g enable-background="new    ">
		<path d="M56.938,24.084c-1.272-0.26-2.785-0.672-4.506-1.238v0.894h-5.848v-0.911c-1.307,0.43-2.818,0.844-4.574,1.204
			l-0.498-1.394c3.801-0.498,6.432-1.41,7.808-2.684l1.222,0.518l-0.121,0.119c2.184,1.102,4.54,1.807,7.051,2.099L56.938,24.084z
			 M56.061,28.657c0,0.12-0.068,0.188-0.189,0.188H43.043c-0.121,0-0.189-0.068-0.189-0.188v-4.042c0-0.119,0.068-0.172,0.189-0.172
			h12.828c0.121,0,0.189,0.053,0.189,0.172V28.657L56.061,28.657z M45.348,35.174v0.619h-1.394V29.93
			c-0.017-0.139,0.052-0.225,0.224-0.225h10.696c0.188,0,0.292,0.086,0.292,0.275v5.812h-1.393v-0.619H45.348z M46.637,25.785
			c0.326,0.481,0.653,1.083,0.945,1.807h1.238v-1.893h-4.592c-0.051,0-0.068,0.018-0.051,0.053v1.771l0.051,0.069h1.875l-0.653-1.17
			L46.637,25.785z M45.348,31.855h8.427v-0.773c0-0.121-0.068-0.188-0.207-0.188h-8.03c-0.138,0-0.206,0.067-0.188,0.188v0.773
			H45.348z M53.773,33.043h-8.426v0.929h8.426V33.043z M51.572,22.483l-2.133-1.049c-0.379,0.239-1.031,0.619-1.978,1.049H51.572z
			 M53.652,26.559l-0.637,1.031h1.651l0.068-0.068V25.75l-0.068-0.052h-4.506v1.892h1.17c0.533-0.688,0.945-1.289,1.187-1.771
			L53.652,26.559z"/>
		<path d="M58.86,34.556c1.737-0.173,3.524-0.552,5.382-1.066l0.275,1.427c-1.943,0.481-3.767,0.86-5.485,1.084L58.86,34.556z
			 M73.391,33.18c0,0.138-0.068,0.205-0.205,0.205H60.236c-0.121,0-0.189-0.067-0.189-0.205v-8.1c0-0.139,0.068-0.207,0.189-0.207
			h12.949c0.137,0,0.205,0.068,0.205,0.207V33.18L73.391,33.18z M72.858,23.877c0,0.138-0.069,0.207-0.206,0.207H60.494
			c-0.121,0-0.189-0.069-0.189-0.207V20.66c0-0.119,0.068-0.188,0.189-0.188h12.158c0.137,0,0.206,0.068,0.206,0.188V23.877z
			 M61.51,27.35h10.42v-1.083c0-0.052-0.018-0.069-0.067-0.069H61.561c-0.053,0-0.069,0.018-0.053,0.069v1.083H61.51z M71.93,30.893
			H61.51v1.083c-0.019,0.052,0,0.069,0.051,0.086h10.302l0.067-0.086V30.893L71.93,30.893z M61.51,29.707h10.42v-1.153H61.51V29.707
			z M71.396,21.795c0-0.052-0.019-0.068-0.068-0.068h-9.51c-0.053,0-0.068,0.018-0.053,0.068v0.945
			c-0.017,0.053,0,0.068,0.053,0.086h9.51l0.068-0.086V21.795z M74.234,36c-1.789-0.516-3.525-0.859-5.211-1.015l0.326-1.428
			c2.287,0.327,4.041,0.705,5.278,1.065L74.234,36z"/>
		<path d="M89.278,24.271c0.825,0.361,1.702,0.652,2.614,0.843l-0.705,1.29c-2.442-0.637-4.799-2.167-7-4.521
			c-2.631,2.373-5.125,3.92-7.428,4.591l-0.759-1.308c1.017-0.31,1.943-0.688,2.804-1.101l-1.856-1.237l0.825-1.119
			c0.671,0.414,1.462,0.98,2.339,1.651c0.757-0.446,1.497-0.997,2.219-1.601h-3.337v-1.34h5.35c0.154,0,0.274,0.103,0.396,0.291
			l1.204,1.272c0.824-0.843,1.462-1.513,1.806-1.942l0.979,0.963c-0.637,0.739-1.237,1.358-1.754,1.875l1.065,0.756
			c0.739-0.825,1.376-1.6,1.874-2.305l1.049,0.93L89.278,24.271z M80.559,34.211l-0.842-2.578h-1.429
			c-0.224,0-0.344-0.104-0.344-0.361v-3.955c0-0.24,0.12-0.361,0.344-0.361h11.299c0.24,0,0.361,0.121,0.361,0.361v3.955
			c0,0.258-0.121,0.361-0.361,0.361h-1.735l-0.844,2.578h4.059v1.324H76.674v-1.324H80.559z M88.557,28.348
			c0-0.053-0.019-0.069-0.069-0.069h-9.097c-0.053,0-0.069,0.019-0.053,0.069v1.874c-0.018,0.052,0,0.067,0.053,0.086h9.097
			l0.069-0.086V28.348z M80.835,24.599h6.328v1.323h-6.328V24.599z M82.021,34.211h3.524l0.843-2.578h-5.211L82.021,34.211z"/>
		<path d="M93.213,34.762c2.254-2.219,5.245-5.245,6.932-12.398h-4.748v-1.462h6.089c0.293,0,0.446,0.154,0.481,0.464
			c1.256,7.12,3.611,9.957,7.033,13.482l-1.256,0.859l-1.6-1.789c-2.441-2.819-4.109-6.189-4.969-10.076
			c-1.238,4.315-3.51,8.254-6.742,11.763L93.213,34.762z"/>
	</g>
</g>
</svg>
